<?xml version="1.0" encoding="utf-8" standalone="no"?>
<!DOCTYPE svg PUBLIC "-//W3C//DTD SVG 1.1//EN"
  "http://www.w3.org/Graphics/SVG/1.1/DTD/svg11.dtd">
<svg xmlns:xlink="http://www.w3.org/1999/xlink" width="720pt" height="432pt" viewBox="0 0 720 432" xmlns="http://www.w3.org/2000/svg" version="1.1">
 <metadata>
  <rdf:RDF xmlns:dc="http://purl.org/dc/elements/1.1/" xmlns:cc="http://creativecommons.org/ns#" xmlns:rdf="http://www.w3.org/1999/02/22-rdf-syntax-ns#">
   <cc:Work>
    <dc:type rdf:resource="http://purl.org/dc/dcmitype/StillImage"/>
    <dc:date>2024-09-30T14:00:17.436772</dc:date>
    <dc:format>image/svg+xml</dc:format>
    <dc:creator>
     <cc:Agent>
      <dc:title>Matplotlib v3.7.3, https://matplotlib.org/</dc:title>
     </cc:Agent>
    </dc:creator>
   </cc:Work>
  </rdf:RDF>
 </metadata>
 <defs>
  <style type="text/css">*{stroke-linejoin: round; stroke-linecap: butt}</style>
 </defs>
 <g id="figure_1">
  <g id="patch_1">
   <path d="M 0 432 
L 720 432 
L 720 0 
L 0 0 
z
" style="fill: #ffffff"/>
  </g>
  <g id="axes_1">
   <g id="patch_2">
    <path d="M 41.15 343.03527 
L 709.2 343.03527 
L 709.2 10.8 
L 41.15 10.8 
z
" style="fill: #ffffff"/>
   </g>
   <g id="matplotlib.axis_1">
    <g id="xtick_1">
     <g id="line2d_1">
      <defs>
       <path id="m53232fb60c" d="M 0 0 
L 0 3.5 
" style="stroke: #000000; stroke-width: 0.8"/>
      </defs>
      <g>
       <use xlink:href="#m53232fb60c" x="107.955" y="343.03527" style="stroke: #000000; stroke-width: 0.8"/>
      </g>
     </g>
     <g id="text_1">
      <!-- Reference -->
      <g transform="translate(92.103655 391.013212) rotate(-45) scale(0.1 -0.1)">
       <defs>
        <path id="DejaVuSans-52" d="M 2841 2188 
Q 3044 2119 3236 1894 
Q 3428 1669 3622 1275 
L 4263 0 
L 3584 0 
L 2988 1197 
Q 2756 1666 2539 1819 
Q 2322 1972 1947 1972 
L 1259 1972 
L 1259 0 
L 628 0 
L 628 4666 
L 2053 4666 
Q 2853 4666 3247 4331 
Q 3641 3997 3641 3322 
Q 3641 2881 3436 2590 
Q 3231 2300 2841 2188 
z
M 1259 4147 
L 1259 2491 
L 2053 2491 
Q 2509 2491 2742 2702 
Q 2975 2913 2975 3322 
Q 2975 3731 2742 3939 
Q 2509 4147 2053 4147 
L 1259 4147 
z
" transform="scale(0.015625)"/>
        <path id="DejaVuSans-65" d="M 3597 1894 
L 3597 1613 
L 953 1613 
Q 991 1019 1311 708 
Q 1631 397 2203 397 
Q 2534 397 2845 478 
Q 3156 559 3463 722 
L 3463 178 
Q 3153 47 2828 -22 
Q 2503 -91 2169 -91 
Q 1331 -91 842 396 
Q 353 884 353 1716 
Q 353 2575 817 3079 
Q 1281 3584 2069 3584 
Q 2775 3584 3186 3129 
Q 3597 2675 3597 1894 
z
M 3022 2063 
Q 3016 2534 2758 2815 
Q 2500 3097 2075 3097 
Q 1594 3097 1305 2825 
Q 1016 2553 972 2059 
L 3022 2063 
z
" transform="scale(0.015625)"/>
        <path id="DejaVuSans-66" d="M 2375 4863 
L 2375 4384 
L 1825 4384 
Q 1516 4384 1395 4259 
Q 1275 4134 1275 3809 
L 1275 3500 
L 2222 3500 
L 2222 3053 
L 1275 3053 
L 1275 0 
L 697 0 
L 697 3053 
L 147 3053 
L 147 3500 
L 697 3500 
L 697 3744 
Q 697 4328 969 4595 
Q 1241 4863 1831 4863 
L 2375 4863 
z
" transform="scale(0.015625)"/>
        <path id="DejaVuSans-72" d="M 2631 2963 
Q 2534 3019 2420 3045 
Q 2306 3072 2169 3072 
Q 1681 3072 1420 2755 
Q 1159 2438 1159 1844 
L 1159 0 
L 581 0 
L 581 3500 
L 1159 3500 
L 1159 2956 
Q 1341 3275 1631 3429 
Q 1922 3584 2338 3584 
Q 2397 3584 2469 3576 
Q 2541 3569 2628 3553 
L 2631 2963 
z
" transform="scale(0.015625)"/>
        <path id="DejaVuSans-6e" d="M 3513 2113 
L 3513 0 
L 2938 0 
L 2938 2094 
Q 2938 2591 2744 2837 
Q 2550 3084 2163 3084 
Q 1697 3084 1428 2787 
Q 1159 2491 1159 1978 
L 1159 0 
L 581 0 
L 581 3500 
L 1159 3500 
L 1159 2956 
Q 1366 3272 1645 3428 
Q 1925 3584 2291 3584 
Q 2894 3584 3203 3211 
Q 3513 2838 3513 2113 
z
" transform="scale(0.015625)"/>
        <path id="DejaVuSans-63" d="M 3122 3366 
L 3122 2828 
Q 2878 2963 2633 3030 
Q 2388 3097 2138 3097 
Q 1578 3097 1268 2742 
Q 959 2388 959 1747 
Q 959 1106 1268 751 
Q 1578 397 2138 397 
Q 2388 397 2633 464 
Q 2878 531 3122 666 
L 3122 134 
Q 2881 22 2623 -34 
Q 2366 -91 2075 -91 
Q 1284 -91 818 406 
Q 353 903 353 1747 
Q 353 2603 823 3093 
Q 1294 3584 2113 3584 
Q 2378 3584 2631 3529 
Q 2884 3475 3122 3366 
z
" transform="scale(0.015625)"/>
       </defs>
       <use xlink:href="#DejaVuSans-52"/>
       <use xlink:href="#DejaVuSans-65" x="64.982422"/>
       <use xlink:href="#DejaVuSans-66" x="126.505859"/>
       <use xlink:href="#DejaVuSans-65" x="161.710938"/>
       <use xlink:href="#DejaVuSans-72" x="223.234375"/>
       <use xlink:href="#DejaVuSans-65" x="262.097656"/>
       <use xlink:href="#DejaVuSans-6e" x="323.621094"/>
       <use xlink:href="#DejaVuSans-63" x="387"/>
       <use xlink:href="#DejaVuSans-65" x="441.980469"/>
      </g>
     </g>
    </g>
    <g id="xtick_2">
     <g id="line2d_2">
      <g>
       <use xlink:href="#m53232fb60c" x="241.565" y="343.03527" style="stroke: #000000; stroke-width: 0.8"/>
      </g>
     </g>
     <g id="text_2">
      <!-- 24h 4ºC +PBS -->
      <g transform="translate(218.442056 405.55641) rotate(-45) scale(0.1 -0.1)">
       <defs>
        <path id="DejaVuSans-32" d="M 1228 531 
L 3431 531 
L 3431 0 
L 469 0 
L 469 531 
Q 828 903 1448 1529 
Q 2069 2156 2228 2338 
Q 2531 2678 2651 2914 
Q 2772 3150 2772 3378 
Q 2772 3750 2511 3984 
Q 2250 4219 1831 4219 
Q 1534 4219 1204 4116 
Q 875 4013 500 3803 
L 500 4441 
Q 881 4594 1212 4672 
Q 1544 4750 1819 4750 
Q 2544 4750 2975 4387 
Q 3406 4025 3406 3419 
Q 3406 3131 3298 2873 
Q 3191 2616 2906 2266 
Q 2828 2175 2409 1742 
Q 1991 1309 1228 531 
z
" transform="scale(0.015625)"/>
        <path id="DejaVuSans-34" d="M 2419 4116 
L 825 1625 
L 2419 1625 
L 2419 4116 
z
M 2253 4666 
L 3047 4666 
L 3047 1625 
L 3713 1625 
L 3713 1100 
L 3047 1100 
L 3047 0 
L 2419 0 
L 2419 1100 
L 313 1100 
L 313 1709 
L 2253 4666 
z
" transform="scale(0.015625)"/>
        <path id="DejaVuSans-68" d="M 3513 2113 
L 3513 0 
L 2938 0 
L 2938 2094 
Q 2938 2591 2744 2837 
Q 2550 3084 2163 3084 
Q 1697 3084 1428 2787 
Q 1159 2491 1159 1978 
L 1159 0 
L 581 0 
L 581 4863 
L 1159 4863 
L 1159 2956 
Q 1366 3272 1645 3428 
Q 1925 3584 2291 3584 
Q 2894 3584 3203 3211 
Q 3513 2838 3513 2113 
z
" transform="scale(0.015625)"/>
        <path id="DejaVuSans-20" transform="scale(0.015625)"/>
        <path id="DejaVuSans-ba" d="M 434 1850 
L 2584 1850 
L 2584 1466 
L 434 1466 
L 434 1850 
z
M 1509 4750 
Q 2069 4750 2391 4404 
Q 2713 4059 2713 3463 
Q 2713 2866 2391 2523 
Q 2069 2181 1509 2181 
Q 950 2181 625 2525 
Q 300 2869 300 3463 
Q 300 4059 625 4404 
Q 950 4750 1509 4750 
z
M 1509 4391 
Q 1181 4391 984 4139 
Q 788 3888 788 3463 
Q 788 3047 986 2797 
Q 1184 2547 1509 2547 
Q 1838 2547 2033 2797 
Q 2228 3047 2228 3463 
Q 2228 3891 2034 4141 
Q 1841 4391 1509 4391 
z
" transform="scale(0.015625)"/>
        <path id="DejaVuSans-43" d="M 4122 4306 
L 4122 3641 
Q 3803 3938 3442 4084 
Q 3081 4231 2675 4231 
Q 1875 4231 1450 3742 
Q 1025 3253 1025 2328 
Q 1025 1406 1450 917 
Q 1875 428 2675 428 
Q 3081 428 3442 575 
Q 3803 722 4122 1019 
L 4122 359 
Q 3791 134 3420 21 
Q 3050 -91 2638 -91 
Q 1578 -91 968 557 
Q 359 1206 359 2328 
Q 359 3453 968 4101 
Q 1578 4750 2638 4750 
Q 3056 4750 3426 4639 
Q 3797 4528 4122 4306 
z
" transform="scale(0.015625)"/>
        <path id="DejaVuSans-2b" d="M 2944 4013 
L 2944 2272 
L 4684 2272 
L 4684 1741 
L 2944 1741 
L 2944 0 
L 2419 0 
L 2419 1741 
L 678 1741 
L 678 2272 
L 2419 2272 
L 2419 4013 
L 2944 4013 
z
" transform="scale(0.015625)"/>
        <path id="DejaVuSans-50" d="M 1259 4147 
L 1259 2394 
L 2053 2394 
Q 2494 2394 2734 2622 
Q 2975 2850 2975 3272 
Q 2975 3691 2734 3919 
Q 2494 4147 2053 4147 
L 1259 4147 
z
M 628 4666 
L 2053 4666 
Q 2838 4666 3239 4311 
Q 3641 3956 3641 3272 
Q 3641 2581 3239 2228 
Q 2838 1875 2053 1875 
L 1259 1875 
L 1259 0 
L 628 0 
L 628 4666 
z
" transform="scale(0.015625)"/>
        <path id="DejaVuSans-42" d="M 1259 2228 
L 1259 519 
L 2272 519 
Q 2781 519 3026 730 
Q 3272 941 3272 1375 
Q 3272 1813 3026 2020 
Q 2781 2228 2272 2228 
L 1259 2228 
z
M 1259 4147 
L 1259 2741 
L 2194 2741 
Q 2656 2741 2882 2914 
Q 3109 3088 3109 3444 
Q 3109 3797 2882 3972 
Q 2656 4147 2194 4147 
L 1259 4147 
z
M 628 4666 
L 2241 4666 
Q 2963 4666 3353 4366 
Q 3744 4066 3744 3513 
Q 3744 3084 3544 2831 
Q 3344 2578 2956 2516 
Q 3422 2416 3680 2098 
Q 3938 1781 3938 1306 
Q 3938 681 3513 340 
Q 3088 0 2303 0 
L 628 0 
L 628 4666 
z
" transform="scale(0.015625)"/>
        <path id="DejaVuSans-53" d="M 3425 4513 
L 3425 3897 
Q 3066 4069 2747 4153 
Q 2428 4238 2131 4238 
Q 1616 4238 1336 4038 
Q 1056 3838 1056 3469 
Q 1056 3159 1242 3001 
Q 1428 2844 1947 2747 
L 2328 2669 
Q 3034 2534 3370 2195 
Q 3706 1856 3706 1288 
Q 3706 609 3251 259 
Q 2797 -91 1919 -91 
Q 1588 -91 1214 -16 
Q 841 59 441 206 
L 441 856 
Q 825 641 1194 531 
Q 1563 422 1919 422 
Q 2459 422 2753 634 
Q 3047 847 3047 1241 
Q 3047 1584 2836 1778 
Q 2625 1972 2144 2069 
L 1759 2144 
Q 1053 2284 737 2584 
Q 422 2884 422 3419 
Q 422 4038 858 4394 
Q 1294 4750 2059 4750 
Q 2388 4750 2728 4690 
Q 3069 4631 3425 4513 
z
" transform="scale(0.015625)"/>
       </defs>
       <use xlink:href="#DejaVuSans-32"/>
       <use xlink:href="#DejaVuSans-34" x="63.623047"/>
       <use xlink:href="#DejaVuSans-68" x="127.246094"/>
       <use xlink:href="#DejaVuSans-20" x="190.625"/>
       <use xlink:href="#DejaVuSans-34" x="222.412109"/>
       <use xlink:href="#DejaVuSans-ba" x="286.035156"/>
       <use xlink:href="#DejaVuSans-43" x="333.154297"/>
       <use xlink:href="#DejaVuSans-20" x="402.978516"/>
       <use xlink:href="#DejaVuSans-2b" x="434.765625"/>
       <use xlink:href="#DejaVuSans-50" x="518.554688"/>
       <use xlink:href="#DejaVuSans-42" x="578.857422"/>
       <use xlink:href="#DejaVuSans-53" x="645.710938"/>
      </g>
     </g>
    </g>
    <g id="xtick_3">
     <g id="line2d_3">
      <g>
       <use xlink:href="#m53232fb60c" x="375.175" y="343.03527" style="stroke: #000000; stroke-width: 0.8"/>
      </g>
     </g>
     <g id="text_3">
      <!-- 72h 4ºC +PBS -->
      <g transform="translate(352.052056 405.55641) rotate(-45) scale(0.1 -0.1)">
       <defs>
        <path id="DejaVuSans-37" d="M 525 4666 
L 3525 4666 
L 3525 4397 
L 1831 0 
L 1172 0 
L 2766 4134 
L 525 4134 
L 525 4666 
z
" transform="scale(0.015625)"/>
       </defs>
       <use xlink:href="#DejaVuSans-37"/>
       <use xlink:href="#DejaVuSans-32" x="63.623047"/>
       <use xlink:href="#DejaVuSans-68" x="127.246094"/>
       <use xlink:href="#DejaVuSans-20" x="190.625"/>
       <use xlink:href="#DejaVuSans-34" x="222.412109"/>
       <use xlink:href="#DejaVuSans-ba" x="286.035156"/>
       <use xlink:href="#DejaVuSans-43" x="333.154297"/>
       <use xlink:href="#DejaVuSans-20" x="402.978516"/>
       <use xlink:href="#DejaVuSans-2b" x="434.765625"/>
       <use xlink:href="#DejaVuSans-50" x="518.554688"/>
       <use xlink:href="#DejaVuSans-42" x="578.857422"/>
       <use xlink:href="#DejaVuSans-53" x="645.710938"/>
      </g>
     </g>
    </g>
    <g id="xtick_4">
     <g id="line2d_4">
      <g>
       <use xlink:href="#m53232fb60c" x="508.785" y="343.03527" style="stroke: #000000; stroke-width: 0.8"/>
      </g>
     </g>
     <g id="text_4">
      <!-- 24h 4ºC -PBS -->
      <g transform="translate(487.349168 402.182185) rotate(-45) scale(0.1 -0.1)">
       <defs>
        <path id="DejaVuSans-2d" d="M 313 2009 
L 1997 2009 
L 1997 1497 
L 313 1497 
L 313 2009 
z
" transform="scale(0.015625)"/>
       </defs>
       <use xlink:href="#DejaVuSans-32"/>
       <use xlink:href="#DejaVuSans-34" x="63.623047"/>
       <use xlink:href="#DejaVuSans-68" x="127.246094"/>
       <use xlink:href="#DejaVuSans-20" x="190.625"/>
       <use xlink:href="#DejaVuSans-34" x="222.412109"/>
       <use xlink:href="#DejaVuSans-ba" x="286.035156"/>
       <use xlink:href="#DejaVuSans-43" x="333.154297"/>
       <use xlink:href="#DejaVuSans-20" x="402.978516"/>
       <use xlink:href="#DejaVuSans-2d" x="434.765625"/>
       <use xlink:href="#DejaVuSans-50" x="470.849609"/>
       <use xlink:href="#DejaVuSans-42" x="531.152344"/>
       <use xlink:href="#DejaVuSans-53" x="598.005859"/>
      </g>
     </g>
    </g>
    <g id="xtick_5">
     <g id="line2d_5">
      <g>
       <use xlink:href="#m53232fb60c" x="642.395" y="343.03527" style="stroke: #000000; stroke-width: 0.8"/>
      </g>
     </g>
     <g id="text_5">
      <!-- 72h 4ºC -PBS -->
      <g transform="translate(620.959168 402.182185) rotate(-45) scale(0.1 -0.1)">
       <use xlink:href="#DejaVuSans-37"/>
       <use xlink:href="#DejaVuSans-32" x="63.623047"/>
       <use xlink:href="#DejaVuSans-68" x="127.246094"/>
       <use xlink:href="#DejaVuSans-20" x="190.625"/>
       <use xlink:href="#DejaVuSans-34" x="222.412109"/>
       <use xlink:href="#DejaVuSans-ba" x="286.035156"/>
       <use xlink:href="#DejaVuSans-43" x="333.154297"/>
       <use xlink:href="#DejaVuSans-20" x="402.978516"/>
       <use xlink:href="#DejaVuSans-2d" x="434.765625"/>
       <use xlink:href="#DejaVuSans-50" x="470.849609"/>
       <use xlink:href="#DejaVuSans-42" x="531.152344"/>
       <use xlink:href="#DejaVuSans-53" x="598.005859"/>
      </g>
     </g>
    </g>
    <g id="text_6">
     <!-- Condition -->
     <g transform="translate(351.314844 418.625409) scale(0.1 -0.1)">
      <defs>
       <path id="DejaVuSans-6f" d="M 1959 3097 
Q 1497 3097 1228 2736 
Q 959 2375 959 1747 
Q 959 1119 1226 758 
Q 1494 397 1959 397 
Q 2419 397 2687 759 
Q 2956 1122 2956 1747 
Q 2956 2369 2687 2733 
Q 2419 3097 1959 3097 
z
M 1959 3584 
Q 2709 3584 3137 3096 
Q 3566 2609 3566 1747 
Q 3566 888 3137 398 
Q 2709 -91 1959 -91 
Q 1206 -91 779 398 
Q 353 888 353 1747 
Q 353 2609 779 3096 
Q 1206 3584 1959 3584 
z
" transform="scale(0.015625)"/>
       <path id="DejaVuSans-64" d="M 2906 2969 
L 2906 4863 
L 3481 4863 
L 3481 0 
L 2906 0 
L 2906 525 
Q 2725 213 2448 61 
Q 2172 -91 1784 -91 
Q 1150 -91 751 415 
Q 353 922 353 1747 
Q 353 2572 751 3078 
Q 1150 3584 1784 3584 
Q 2172 3584 2448 3432 
Q 2725 3281 2906 2969 
z
M 947 1747 
Q 947 1113 1208 752 
Q 1469 391 1925 391 
Q 2381 391 2643 752 
Q 2906 1113 2906 1747 
Q 2906 2381 2643 2742 
Q 2381 3103 1925 3103 
Q 1469 3103 1208 2742 
Q 947 2381 947 1747 
z
" transform="scale(0.015625)"/>
       <path id="DejaVuSans-69" d="M 603 3500 
L 1178 3500 
L 1178 0 
L 603 0 
L 603 3500 
z
M 603 4863 
L 1178 4863 
L 1178 4134 
L 603 4134 
L 603 4863 
z
" transform="scale(0.015625)"/>
       <path id="DejaVuSans-74" d="M 1172 4494 
L 1172 3500 
L 2356 3500 
L 2356 3053 
L 1172 3053 
L 1172 1153 
Q 1172 725 1289 603 
Q 1406 481 1766 481 
L 2356 481 
L 2356 0 
L 1766 0 
Q 1100 0 847 248 
Q 594 497 594 1153 
L 594 3053 
L 172 3053 
L 172 3500 
L 594 3500 
L 594 4494 
L 1172 4494 
z
" transform="scale(0.015625)"/>
      </defs>
      <use xlink:href="#DejaVuSans-43"/>
      <use xlink:href="#DejaVuSans-6f" x="69.824219"/>
      <use xlink:href="#DejaVuSans-6e" x="131.005859"/>
      <use xlink:href="#DejaVuSans-64" x="194.384766"/>
      <use xlink:href="#DejaVuSans-69" x="257.861328"/>
      <use xlink:href="#DejaVuSans-74" x="285.644531"/>
      <use xlink:href="#DejaVuSans-69" x="324.853516"/>
      <use xlink:href="#DejaVuSans-6f" x="352.636719"/>
      <use xlink:href="#DejaVuSans-6e" x="413.818359"/>
     </g>
    </g>
   </g>
   <g id="matplotlib.axis_2">
    <g id="ytick_1">
     <g id="line2d_6">
      <defs>
       <path id="m40965319c9" d="M 0 0 
L -3.5 0 
" style="stroke: #000000; stroke-width: 0.8"/>
      </defs>
      <g>
       <use xlink:href="#m40965319c9" x="41.15" y="339.692661" style="stroke: #000000; stroke-width: 0.8"/>
      </g>
     </g>
     <g id="text_7">
      <!-- 1 -->
      <g transform="translate(27.7875 343.49188) scale(0.1 -0.1)">
       <defs>
        <path id="DejaVuSans-31" d="M 794 531 
L 1825 531 
L 1825 4091 
L 703 3866 
L 703 4441 
L 1819 4666 
L 2450 4666 
L 2450 531 
L 3481 531 
L 3481 0 
L 794 0 
L 794 531 
z
" transform="scale(0.015625)"/>
       </defs>
       <use xlink:href="#DejaVuSans-31"/>
      </g>
     </g>
    </g>
    <g id="ytick_2">
     <g id="line2d_7">
      <g>
       <use xlink:href="#m40965319c9" x="41.15" y="277.474812" style="stroke: #000000; stroke-width: 0.8"/>
      </g>
     </g>
     <g id="text_8">
      <!-- 2 -->
      <g transform="translate(27.7875 281.274031) scale(0.1 -0.1)">
       <use xlink:href="#DejaVuSans-32"/>
      </g>
     </g>
    </g>
    <g id="ytick_3">
     <g id="line2d_8">
      <g>
       <use xlink:href="#m40965319c9" x="41.15" y="215.256963" style="stroke: #000000; stroke-width: 0.8"/>
      </g>
     </g>
     <g id="text_9">
      <!-- 3 -->
      <g transform="translate(27.7875 219.056182) scale(0.1 -0.1)">
       <defs>
        <path id="DejaVuSans-33" d="M 2597 2516 
Q 3050 2419 3304 2112 
Q 3559 1806 3559 1356 
Q 3559 666 3084 287 
Q 2609 -91 1734 -91 
Q 1441 -91 1130 -33 
Q 819 25 488 141 
L 488 750 
Q 750 597 1062 519 
Q 1375 441 1716 441 
Q 2309 441 2620 675 
Q 2931 909 2931 1356 
Q 2931 1769 2642 2001 
Q 2353 2234 1838 2234 
L 1294 2234 
L 1294 2753 
L 1863 2753 
Q 2328 2753 2575 2939 
Q 2822 3125 2822 3475 
Q 2822 3834 2567 4026 
Q 2313 4219 1838 4219 
Q 1578 4219 1281 4162 
Q 984 4106 628 3988 
L 628 4550 
Q 988 4650 1302 4700 
Q 1616 4750 1894 4750 
Q 2613 4750 3031 4423 
Q 3450 4097 3450 3541 
Q 3450 3153 3228 2886 
Q 3006 2619 2597 2516 
z
" transform="scale(0.015625)"/>
       </defs>
       <use xlink:href="#DejaVuSans-33"/>
      </g>
     </g>
    </g>
    <g id="ytick_4">
     <g id="line2d_9">
      <g>
       <use xlink:href="#m40965319c9" x="41.15" y="153.039114" style="stroke: #000000; stroke-width: 0.8"/>
      </g>
     </g>
     <g id="text_10">
      <!-- 4 -->
      <g transform="translate(27.7875 156.838332) scale(0.1 -0.1)">
       <use xlink:href="#DejaVuSans-34"/>
      </g>
     </g>
    </g>
    <g id="ytick_5">
     <g id="line2d_10">
      <g>
       <use xlink:href="#m40965319c9" x="41.15" y="90.821265" style="stroke: #000000; stroke-width: 0.8"/>
      </g>
     </g>
     <g id="text_11">
      <!-- 5 -->
      <g transform="translate(27.7875 94.620483) scale(0.1 -0.1)">
       <defs>
        <path id="DejaVuSans-35" d="M 691 4666 
L 3169 4666 
L 3169 4134 
L 1269 4134 
L 1269 2991 
Q 1406 3038 1543 3061 
Q 1681 3084 1819 3084 
Q 2600 3084 3056 2656 
Q 3513 2228 3513 1497 
Q 3513 744 3044 326 
Q 2575 -91 1722 -91 
Q 1428 -91 1123 -41 
Q 819 9 494 109 
L 494 744 
Q 775 591 1075 516 
Q 1375 441 1709 441 
Q 2250 441 2565 725 
Q 2881 1009 2881 1497 
Q 2881 1984 2565 2268 
Q 2250 2553 1709 2553 
Q 1456 2553 1204 2497 
Q 953 2441 691 2322 
L 691 4666 
z
" transform="scale(0.015625)"/>
       </defs>
       <use xlink:href="#DejaVuSans-35"/>
      </g>
     </g>
    </g>
    <g id="ytick_6">
     <g id="line2d_11">
      <g>
       <use xlink:href="#m40965319c9" x="41.15" y="28.603415" style="stroke: #000000; stroke-width: 0.8"/>
      </g>
     </g>
     <g id="text_12">
      <!-- 6 -->
      <g transform="translate(27.7875 32.402634) scale(0.1 -0.1)">
       <defs>
        <path id="DejaVuSans-36" d="M 2113 2584 
Q 1688 2584 1439 2293 
Q 1191 2003 1191 1497 
Q 1191 994 1439 701 
Q 1688 409 2113 409 
Q 2538 409 2786 701 
Q 3034 994 3034 1497 
Q 3034 2003 2786 2293 
Q 2538 2584 2113 2584 
z
M 3366 4563 
L 3366 3988 
Q 3128 4100 2886 4159 
Q 2644 4219 2406 4219 
Q 1781 4219 1451 3797 
Q 1122 3375 1075 2522 
Q 1259 2794 1537 2939 
Q 1816 3084 2150 3084 
Q 2853 3084 3261 2657 
Q 3669 2231 3669 1497 
Q 3669 778 3244 343 
Q 2819 -91 2113 -91 
Q 1303 -91 875 529 
Q 447 1150 447 2328 
Q 447 3434 972 4092 
Q 1497 4750 2381 4750 
Q 2619 4750 2861 4703 
Q 3103 4656 3366 4563 
z
" transform="scale(0.015625)"/>
       </defs>
       <use xlink:href="#DejaVuSans-36"/>
      </g>
     </g>
    </g>
    <g id="text_13">
     <!-- $log([HSPB1]/[Total Protein])$ -->
     <g transform="translate(21.6875 244.617635) rotate(-90) scale(0.1 -0.1)">
      <defs>
       <path id="DejaVuSans-Oblique-6c" d="M 1172 4863 
L 1747 4863 
L 800 0 
L 225 0 
L 1172 4863 
z
" transform="scale(0.015625)"/>
       <path id="DejaVuSans-Oblique-6f" d="M 1625 -91 
Q 1009 -91 651 289 
Q 294 669 294 1325 
Q 294 1706 417 2101 
Q 541 2497 738 2766 
Q 1047 3184 1428 3384 
Q 1809 3584 2291 3584 
Q 2888 3584 3255 3212 
Q 3622 2841 3622 2241 
Q 3622 1825 3500 1412 
Q 3378 1000 3181 728 
Q 2875 309 2494 109 
Q 2113 -91 1625 -91 
z
M 891 1344 
Q 891 869 1089 633 
Q 1288 397 1691 397 
Q 2269 397 2648 901 
Q 3028 1406 3028 2181 
Q 3028 2634 2825 2865 
Q 2622 3097 2228 3097 
Q 1903 3097 1650 2945 
Q 1397 2794 1197 2484 
Q 1050 2253 970 1956 
Q 891 1659 891 1344 
z
" transform="scale(0.015625)"/>
       <path id="DejaVuSans-Oblique-67" d="M 3816 3500 
L 3219 434 
Q 3047 -456 2561 -893 
Q 2075 -1331 1253 -1331 
Q 950 -1331 690 -1286 
Q 431 -1241 206 -1147 
L 313 -588 
Q 525 -725 762 -790 
Q 1000 -856 1269 -856 
Q 1816 -856 2167 -557 
Q 2519 -259 2631 300 
L 2681 563 
Q 2441 288 2122 144 
Q 1803 0 1434 0 
Q 903 0 598 351 
Q 294 703 294 1319 
Q 294 1803 478 2267 
Q 663 2731 997 3091 
Q 1219 3328 1514 3456 
Q 1809 3584 2131 3584 
Q 2484 3584 2746 3420 
Q 3009 3256 3138 2956 
L 3238 3500 
L 3816 3500 
z
M 2950 2216 
Q 2950 2641 2750 2872 
Q 2550 3103 2181 3103 
Q 1953 3103 1747 3012 
Q 1541 2922 1394 2759 
Q 1156 2491 1023 2127 
Q 891 1763 891 1375 
Q 891 944 1092 712 
Q 1294 481 1672 481 
Q 2219 481 2584 976 
Q 2950 1472 2950 2216 
z
" transform="scale(0.015625)"/>
       <path id="DejaVuSans-28" d="M 1984 4856 
Q 1566 4138 1362 3434 
Q 1159 2731 1159 2009 
Q 1159 1288 1364 580 
Q 1569 -128 1984 -844 
L 1484 -844 
Q 1016 -109 783 600 
Q 550 1309 550 2009 
Q 550 2706 781 3412 
Q 1013 4119 1484 4856 
L 1984 4856 
z
" transform="scale(0.015625)"/>
       <path id="DejaVuSans-5b" d="M 550 4863 
L 1875 4863 
L 1875 4416 
L 1125 4416 
L 1125 -397 
L 1875 -397 
L 1875 -844 
L 550 -844 
L 550 4863 
z
" transform="scale(0.015625)"/>
       <path id="DejaVuSans-Oblique-48" d="M 1081 4666 
L 1716 4666 
L 1344 2753 
L 3634 2753 
L 4006 4666 
L 4641 4666 
L 3731 0 
L 3097 0 
L 3531 2222 
L 1241 2222 
L 806 0 
L 172 0 
L 1081 4666 
z
" transform="scale(0.015625)"/>
       <path id="DejaVuSans-Oblique-53" d="M 3859 4513 
L 3738 3897 
Q 3422 4066 3111 4152 
Q 2800 4238 2509 4238 
Q 1944 4238 1609 3991 
Q 1275 3744 1275 3334 
Q 1275 3109 1398 2989 
Q 1522 2869 2034 2731 
L 2413 2638 
Q 3053 2472 3303 2217 
Q 3553 1963 3553 1503 
Q 3553 797 2998 353 
Q 2444 -91 1538 -91 
Q 1166 -91 791 -17 
Q 416 56 38 206 
L 166 856 
Q 513 641 861 531 
Q 1209 422 1556 422 
Q 2147 422 2503 684 
Q 2859 947 2859 1369 
Q 2859 1650 2717 1795 
Q 2575 1941 2106 2059 
L 1728 2156 
Q 1081 2325 845 2545 
Q 609 2766 609 3163 
Q 609 3859 1145 4304 
Q 1681 4750 2541 4750 
Q 2875 4750 3203 4690 
Q 3531 4631 3859 4513 
z
" transform="scale(0.015625)"/>
       <path id="DejaVuSans-Oblique-50" d="M 1081 4666 
L 2541 4666 
Q 3178 4666 3512 4369 
Q 3847 4072 3847 3500 
Q 3847 2731 3353 2303 
Q 2859 1875 1966 1875 
L 1172 1875 
L 806 0 
L 172 0 
L 1081 4666 
z
M 1613 4147 
L 1275 2394 
L 2069 2394 
Q 2606 2394 2893 2669 
Q 3181 2944 3181 3456 
Q 3181 3784 2986 3965 
Q 2791 4147 2438 4147 
L 1613 4147 
z
" transform="scale(0.015625)"/>
       <path id="DejaVuSans-Oblique-42" d="M 1081 4666 
L 2694 4666 
Q 3350 4666 3675 4422 
Q 4000 4178 4000 3688 
Q 4000 3238 3720 2911 
Q 3441 2584 2988 2516 
Q 3375 2428 3569 2181 
Q 3763 1934 3763 1522 
Q 3763 819 3242 409 
Q 2722 0 1819 0 
L 172 0 
L 1081 4666 
z
M 1234 2228 
L 903 519 
L 1919 519 
Q 2491 519 2800 781 
Q 3109 1044 3109 1522 
Q 3109 1891 2904 2059 
Q 2700 2228 2247 2228 
L 1234 2228 
z
M 1606 4147 
L 1331 2741 
L 2272 2741 
Q 2775 2741 3058 2959 
Q 3341 3178 3341 3566 
Q 3341 3869 3150 4008 
Q 2959 4147 2541 4147 
L 1606 4147 
z
" transform="scale(0.015625)"/>
       <path id="DejaVuSans-5d" d="M 1947 4863 
L 1947 -844 
L 622 -844 
L 622 -397 
L 1369 -397 
L 1369 4416 
L 622 4416 
L 622 4863 
L 1947 4863 
z
" transform="scale(0.015625)"/>
       <path id="DejaVuSans-2f" d="M 1625 4666 
L 2156 4666 
L 531 -594 
L 0 -594 
L 1625 4666 
z
" transform="scale(0.015625)"/>
       <path id="DejaVuSans-Oblique-54" d="M 378 4666 
L 4325 4666 
L 4225 4134 
L 2559 4134 
L 1759 0 
L 1125 0 
L 1925 4134 
L 275 4134 
L 378 4666 
z
" transform="scale(0.015625)"/>
       <path id="DejaVuSans-Oblique-74" d="M 2706 3500 
L 2619 3053 
L 1472 3053 
L 1100 1153 
Q 1081 1047 1072 975 
Q 1063 903 1063 863 
Q 1063 663 1183 572 
Q 1303 481 1569 481 
L 2150 481 
L 2053 0 
L 1503 0 
Q 991 0 739 200 
Q 488 400 488 806 
Q 488 878 497 964 
Q 506 1050 525 1153 
L 897 3053 
L 409 3053 
L 500 3500 
L 978 3500 
L 1172 4494 
L 1747 4494 
L 1556 3500 
L 2706 3500 
z
" transform="scale(0.015625)"/>
       <path id="DejaVuSans-Oblique-61" d="M 3438 1997 
L 3047 0 
L 2472 0 
L 2578 531 
Q 2325 219 2001 64 
Q 1678 -91 1281 -91 
Q 834 -91 548 182 
Q 263 456 263 884 
Q 263 1497 752 1853 
Q 1241 2209 2100 2209 
L 2900 2209 
L 2931 2363 
Q 2938 2388 2941 2417 
Q 2944 2447 2944 2509 
Q 2944 2788 2717 2942 
Q 2491 3097 2081 3097 
Q 1800 3097 1504 3025 
Q 1209 2953 897 2809 
L 997 3341 
Q 1322 3463 1633 3523 
Q 1944 3584 2234 3584 
Q 2853 3584 3176 3315 
Q 3500 3047 3500 2534 
Q 3500 2431 3484 2292 
Q 3469 2153 3438 1997 
z
M 2816 1759 
L 2241 1759 
Q 1534 1759 1195 1570 
Q 856 1381 856 984 
Q 856 709 1029 553 
Q 1203 397 1509 397 
Q 1978 397 2328 733 
Q 2678 1069 2791 1631 
L 2816 1759 
z
" transform="scale(0.015625)"/>
       <path id="DejaVuSans-Oblique-72" d="M 2853 2969 
Q 2766 3016 2653 3041 
Q 2541 3066 2413 3066 
Q 1953 3066 1609 2717 
Q 1266 2369 1153 1784 
L 800 0 
L 225 0 
L 909 3500 
L 1484 3500 
L 1375 2956 
Q 1603 3259 1920 3421 
Q 2238 3584 2597 3584 
Q 2691 3584 2781 3573 
Q 2872 3563 2963 3538 
L 2853 2969 
z
" transform="scale(0.015625)"/>
       <path id="DejaVuSans-Oblique-65" d="M 3078 2063 
Q 3088 2113 3092 2166 
Q 3097 2219 3097 2272 
Q 3097 2653 2873 2875 
Q 2650 3097 2266 3097 
Q 1838 3097 1509 2826 
Q 1181 2556 1013 2059 
L 3078 2063 
z
M 3578 1613 
L 903 1613 
Q 884 1494 878 1425 
Q 872 1356 872 1306 
Q 872 872 1139 634 
Q 1406 397 1894 397 
Q 2269 397 2603 481 
Q 2938 566 3225 728 
L 3116 159 
Q 2806 34 2476 -28 
Q 2147 -91 1806 -91 
Q 1078 -91 686 257 
Q 294 606 294 1247 
Q 294 1794 489 2264 
Q 684 2734 1063 3103 
Q 1306 3334 1642 3459 
Q 1978 3584 2356 3584 
Q 2950 3584 3301 3228 
Q 3653 2872 3653 2272 
Q 3653 2128 3634 1964 
Q 3616 1800 3578 1613 
z
" transform="scale(0.015625)"/>
       <path id="DejaVuSans-Oblique-69" d="M 1172 4863 
L 1747 4863 
L 1606 4134 
L 1031 4134 
L 1172 4863 
z
M 909 3500 
L 1484 3500 
L 800 0 
L 225 0 
L 909 3500 
z
" transform="scale(0.015625)"/>
       <path id="DejaVuSans-Oblique-6e" d="M 3566 2113 
L 3156 0 
L 2578 0 
L 2988 2091 
Q 3016 2238 3031 2350 
Q 3047 2463 3047 2528 
Q 3047 2791 2881 2937 
Q 2716 3084 2419 3084 
Q 1956 3084 1622 2776 
Q 1288 2469 1184 1941 
L 800 0 
L 225 0 
L 903 3500 
L 1478 3500 
L 1363 2950 
Q 1603 3253 1940 3418 
Q 2278 3584 2650 3584 
Q 3113 3584 3367 3334 
Q 3622 3084 3622 2631 
Q 3622 2519 3608 2391 
Q 3594 2263 3566 2113 
z
" transform="scale(0.015625)"/>
       <path id="DejaVuSans-29" d="M 513 4856 
L 1013 4856 
Q 1481 4119 1714 3412 
Q 1947 2706 1947 2009 
Q 1947 1309 1714 600 
Q 1481 -109 1013 -844 
L 513 -844 
Q 928 -128 1133 580 
Q 1338 1288 1338 2009 
Q 1338 2731 1133 3434 
Q 928 4138 513 4856 
z
" transform="scale(0.015625)"/>
      </defs>
      <use xlink:href="#DejaVuSans-Oblique-6c" transform="translate(0 0.015625)"/>
      <use xlink:href="#DejaVuSans-Oblique-6f" transform="translate(27.783203 0.015625)"/>
      <use xlink:href="#DejaVuSans-Oblique-67" transform="translate(88.964844 0.015625)"/>
      <use xlink:href="#DejaVuSans-28" transform="translate(152.441406 0.015625)"/>
      <use xlink:href="#DejaVuSans-5b" transform="translate(191.455078 0.015625)"/>
      <use xlink:href="#DejaVuSans-Oblique-48" transform="translate(227.34375 0.015625)"/>
      <use xlink:href="#DejaVuSans-Oblique-53" transform="translate(302.539062 0.015625)"/>
      <use xlink:href="#DejaVuSans-Oblique-50" transform="translate(366.015625 0.015625)"/>
      <use xlink:href="#DejaVuSans-Oblique-42" transform="translate(426.318359 0.015625)"/>
      <use xlink:href="#DejaVuSans-31" transform="translate(494.921875 0.015625)"/>
      <use xlink:href="#DejaVuSans-5d" transform="translate(558.544922 0.015625)"/>
      <use xlink:href="#DejaVuSans-2f" transform="translate(597.558594 0.015625)"/>
      <use xlink:href="#DejaVuSans-5b" transform="translate(631.25 0.015625)"/>
      <use xlink:href="#DejaVuSans-Oblique-54" transform="translate(670.263672 0.015625)"/>
      <use xlink:href="#DejaVuSans-Oblique-6f" transform="translate(731.347656 0.015625)"/>
      <use xlink:href="#DejaVuSans-Oblique-74" transform="translate(792.529297 0.015625)"/>
      <use xlink:href="#DejaVuSans-Oblique-61" transform="translate(831.738281 0.015625)"/>
      <use xlink:href="#DejaVuSans-Oblique-6c" transform="translate(893.017578 0.015625)"/>
      <use xlink:href="#DejaVuSans-Oblique-50" transform="translate(920.800781 0.015625)"/>
      <use xlink:href="#DejaVuSans-Oblique-72" transform="translate(981.103516 0.015625)"/>
      <use xlink:href="#DejaVuSans-Oblique-6f" transform="translate(1022.216797 0.015625)"/>
      <use xlink:href="#DejaVuSans-Oblique-74" transform="translate(1083.398438 0.015625)"/>
      <use xlink:href="#DejaVuSans-Oblique-65" transform="translate(1122.607422 0.015625)"/>
      <use xlink:href="#DejaVuSans-Oblique-69" transform="translate(1184.130859 0.015625)"/>
      <use xlink:href="#DejaVuSans-Oblique-6e" transform="translate(1211.914062 0.015625)"/>
      <use xlink:href="#DejaVuSans-5d" transform="translate(1275.292969 0.015625)"/>
      <use xlink:href="#DejaVuSans-29" transform="translate(1314.306641 0.015625)"/>
     </g>
    </g>
   </g>
   <g id="patch_3">
    <path d="M 41.15 343.03527 
L 41.15 10.8 
" style="fill: none; stroke: #000000; stroke-width: 0.8; stroke-linejoin: miter; stroke-linecap: square"/>
   </g>
   <g id="patch_4">
    <path d="M 709.2 343.03527 
L 709.2 10.8 
" style="fill: none; stroke: #000000; stroke-width: 0.8; stroke-linejoin: miter; stroke-linecap: square"/>
   </g>
   <g id="patch_5">
    <path d="M 41.15 343.03527 
L 709.2 343.03527 
" style="fill: none; stroke: #000000; stroke-width: 0.8; stroke-linejoin: miter; stroke-linecap: square"/>
   </g>
   <g id="patch_6">
    <path d="M 41.15 10.8 
L 709.2 10.8 
" style="fill: none; stroke: #000000; stroke-width: 0.8; stroke-linejoin: miter; stroke-linecap: square"/>
   </g>
   <g id="PathCollection_1">
    <defs>
     <path id="C0_0_09083d6418" d="M 0 2.5 
C 0.663008 2.5 1.29895 2.236584 1.767767 1.767767 
C 2.236584 1.29895 2.5 0.663008 2.5 -0 
C 2.5 -0.663008 2.236584 -1.29895 1.767767 -1.767767 
C 1.29895 -2.236584 0.663008 -2.5 0 -2.5 
C -0.663008 -2.5 -1.29895 -2.236584 -1.767767 -1.767767 
C -2.236584 -1.29895 -2.5 -0.663008 -2.5 0 
C -2.5 0.663008 -2.236584 1.29895 -1.767767 1.767767 
C -1.29895 2.236584 -0.663008 2.5 0 2.5 
z
"/>
    </defs>
    <g clip-path="url(#p092266409b)">
     <use xlink:href="#C0_0_09083d6418" x="107.955" y="268.624371" style="fill: #f77189"/>
    </g>
    <g clip-path="url(#p092266409b)">
     <use xlink:href="#C0_0_09083d6418" x="101.997715" y="267.031906" style="fill: #f77189"/>
    </g>
    <g clip-path="url(#p092266409b)">
     <use xlink:href="#C0_0_09083d6418" x="107.955" y="246.526658" style="fill: #f77189"/>
    </g>
    <g clip-path="url(#p092266409b)">
     <use xlink:href="#C0_0_09083d6418" x="107.955" y="235.0691" style="fill: #f77189"/>
    </g>
    <g clip-path="url(#p092266409b)">
     <use xlink:href="#C0_0_09083d6418" x="107.955" y="228.002075" style="fill: #f77189"/>
    </g>
    <g clip-path="url(#p092266409b)">
     <use xlink:href="#C0_0_09083d6418" x="103.961296" y="224.145825" style="fill: #f77189"/>
    </g>
    <g clip-path="url(#p092266409b)">
     <use xlink:href="#C0_0_09083d6418" x="109.646778" y="222.016595" style="fill: #f77189"/>
    </g>
    <g clip-path="url(#p092266409b)">
     <use xlink:href="#C0_0_09083d6418" x="115.795879" y="220.98218" style="fill: #f77189"/>
    </g>
    <g clip-path="url(#p092266409b)">
     <use xlink:href="#C0_0_09083d6418" x="107.955" y="216.232117" style="fill: #f77189"/>
    </g>
    <g clip-path="url(#p092266409b)">
     <use xlink:href="#C0_0_09083d6418" x="102.307005" y="214.040812" style="fill: #f77189"/>
    </g>
    <g clip-path="url(#p092266409b)">
     <use xlink:href="#C0_0_09083d6418" x="107.955" y="205.541039" style="fill: #f77189"/>
    </g>
    <g clip-path="url(#p092266409b)">
     <use xlink:href="#C0_0_09083d6418" x="107.955" y="199.728394" style="fill: #f77189"/>
    </g>
    <g clip-path="url(#p092266409b)">
     <use xlink:href="#C0_0_09083d6418" x="107.955" y="194.673274" style="fill: #f77189"/>
    </g>
    <g clip-path="url(#p092266409b)">
     <use xlink:href="#C0_0_09083d6418" x="102.641484" y="192.005634" style="fill: #f77189"/>
    </g>
    <g clip-path="url(#p092266409b)">
     <use xlink:href="#C0_0_09083d6418" x="113.250429" y="191.983026" style="fill: #f77189"/>
    </g>
    <g clip-path="url(#p092266409b)">
     <use xlink:href="#C0_0_09083d6418" x="107.955" y="180.850883" style="fill: #f77189"/>
    </g>
    <g clip-path="url(#p092266409b)">
     <use xlink:href="#C0_0_09083d6418" x="107.955" y="173.223028" style="fill: #f77189"/>
    </g>
    <g clip-path="url(#p092266409b)">
     <use xlink:href="#C0_0_09083d6418" x="103.295775" y="169.871107" style="fill: #f77189"/>
    </g>
    <g clip-path="url(#p092266409b)">
     <use xlink:href="#C0_0_09083d6418" x="108.800642" y="167.460816" style="fill: #f77189"/>
    </g>
    <g clip-path="url(#p092266409b)">
     <use xlink:href="#C0_0_09083d6418" x="107.955" y="155.173245" style="fill: #f77189"/>
    </g>
    <g clip-path="url(#p092266409b)">
     <use xlink:href="#C0_0_09083d6418" x="102.001383" y="153.572143" style="fill: #f77189"/>
    </g>
    <g clip-path="url(#p092266409b)">
     <use xlink:href="#C0_0_09083d6418" x="107.955" y="148.96965" style="fill: #f77189"/>
    </g>
    <g clip-path="url(#p092266409b)">
     <use xlink:href="#C0_0_09083d6418" x="107.955" y="140.077957" style="fill: #f77189"/>
    </g>
    <g clip-path="url(#p092266409b)">
     <use xlink:href="#C0_0_09083d6418" x="107.955" y="106.790802" style="fill: #f77189"/>
    </g>
    <g clip-path="url(#p092266409b)">
     <use xlink:href="#C0_0_09083d6418" x="107.955" y="83.223248" style="fill: #f77189"/>
    </g>
    <g clip-path="url(#p092266409b)">
     <use xlink:href="#C0_0_09083d6418" x="107.955" y="67.115393" style="fill: #f77189"/>
    </g>
    <g clip-path="url(#p092266409b)">
     <use xlink:href="#C0_0_09083d6418" x="103.803214" y="63.366019" style="fill: #f77189"/>
    </g>
    <g clip-path="url(#p092266409b)">
     <use xlink:href="#C0_0_09083d6418" x="107.955" y="47.55972" style="fill: #f77189"/>
    </g>
   </g>
   <g id="PathCollection_2">
    <defs>
     <path id="C1_0_279464b9b6" d="M 0 2.5 
C 0.663008 2.5 1.29895 2.236584 1.767767 1.767767 
C 2.236584 1.29895 2.5 0.663008 2.5 -0 
C 2.5 -0.663008 2.236584 -1.29895 1.767767 -1.767767 
C 1.29895 -2.236584 0.663008 -2.5 0 -2.5 
C -0.663008 -2.5 -1.29895 -2.236584 -1.767767 -1.767767 
C -2.236584 -1.29895 -2.5 -0.663008 -2.5 0 
C -2.5 0.663008 -2.236584 1.29895 -1.767767 1.767767 
C -1.29895 2.236584 -0.663008 2.5 0 2.5 
z
"/>
    </defs>
    <g clip-path="url(#p092266409b)">
     <use xlink:href="#C1_0_279464b9b6" x="241.565" y="321.357341" style="fill: #ae9d31"/>
    </g>
    <g clip-path="url(#p092266409b)">
     <use xlink:href="#C1_0_279464b9b6" x="241.565" y="301.823085" style="fill: #ae9d31"/>
    </g>
    <g clip-path="url(#p092266409b)">
     <use xlink:href="#C1_0_279464b9b6" x="241.565" y="286.935344" style="fill: #ae9d31"/>
    </g>
    <g clip-path="url(#p092266409b)">
     <use xlink:href="#C1_0_279464b9b6" x="238.52256" y="282.565459" style="fill: #ae9d31"/>
    </g>
    <g clip-path="url(#p092266409b)">
     <use xlink:href="#C1_0_279464b9b6" x="241.565" y="276.013513" style="fill: #ae9d31"/>
    </g>
    <g clip-path="url(#p092266409b)">
     <use xlink:href="#C1_0_279464b9b6" x="237.716713" y="272.065027" style="fill: #ae9d31"/>
    </g>
    <g clip-path="url(#p092266409b)">
     <use xlink:href="#C1_0_279464b9b6" x="243.71395" y="270.570222" style="fill: #ae9d31"/>
    </g>
    <g clip-path="url(#p092266409b)">
     <use xlink:href="#C1_0_279464b9b6" x="241.565" y="258.294394" style="fill: #ae9d31"/>
    </g>
    <g clip-path="url(#p092266409b)">
     <use xlink:href="#C1_0_279464b9b6" x="235.561819" y="256.814724" style="fill: #ae9d31"/>
    </g>
    <g clip-path="url(#p092266409b)">
     <use xlink:href="#C1_0_279464b9b6" x="246.355333" y="255.061239" style="fill: #ae9d31"/>
    </g>
    <g clip-path="url(#p092266409b)">
     <use xlink:href="#C1_0_279464b9b6" x="241.565" y="250.821196" style="fill: #ae9d31"/>
    </g>
    <g clip-path="url(#p092266409b)">
     <use xlink:href="#C1_0_279464b9b6" x="241.565" y="242.892252" style="fill: #ae9d31"/>
    </g>
    <g clip-path="url(#p092266409b)">
     <use xlink:href="#C1_0_279464b9b6" x="241.565" y="236.863594" style="fill: #ae9d31"/>
    </g>
    <g clip-path="url(#p092266409b)">
     <use xlink:href="#C1_0_279464b9b6" x="235.287422" y="236.614257" style="fill: #ae9d31"/>
    </g>
    <g clip-path="url(#p092266409b)">
     <use xlink:href="#C1_0_279464b9b6" x="247.752" y="235.983322" style="fill: #ae9d31"/>
    </g>
    <g clip-path="url(#p092266409b)">
     <use xlink:href="#C1_0_279464b9b6" x="241.313371" y="231.873681" style="fill: #ae9d31"/>
    </g>
    <g clip-path="url(#p092266409b)">
     <use xlink:href="#C1_0_279464b9b6" x="243.361311" y="227.152281" style="fill: #ae9d31"/>
    </g>
    <g clip-path="url(#p092266409b)">
     <use xlink:href="#C1_0_279464b9b6" x="241.565" y="216.219833" style="fill: #ae9d31"/>
    </g>
    <g clip-path="url(#p092266409b)">
     <use xlink:href="#C1_0_279464b9b6" x="241.565" y="168.130482" style="fill: #ae9d31"/>
    </g>
    <g clip-path="url(#p092266409b)">
     <use xlink:href="#C1_0_279464b9b6" x="241.565" y="161.564624" style="fill: #ae9d31"/>
    </g>
    <g clip-path="url(#p092266409b)">
     <use xlink:href="#C1_0_279464b9b6" x="235.511192" y="160.221463" style="fill: #ae9d31"/>
    </g>
    <g clip-path="url(#p092266409b)">
     <use xlink:href="#C1_0_279464b9b6" x="246.330114" y="158.308029" style="fill: #ae9d31"/>
    </g>
    <g clip-path="url(#p092266409b)">
     <use xlink:href="#C1_0_279464b9b6" x="241.565" y="153.982173" style="fill: #ae9d31"/>
    </g>
    <g clip-path="url(#p092266409b)">
     <use xlink:href="#C1_0_279464b9b6" x="241.565" y="146.891247" style="fill: #ae9d31"/>
    </g>
    <g clip-path="url(#p092266409b)">
     <use xlink:href="#C1_0_279464b9b6" x="241.565" y="127.3901" style="fill: #ae9d31"/>
    </g>
    <g clip-path="url(#p092266409b)">
     <use xlink:href="#C1_0_279464b9b6" x="235.644766" y="125.712677" style="fill: #ae9d31"/>
    </g>
    <g clip-path="url(#p092266409b)">
     <use xlink:href="#C1_0_279464b9b6" x="241.565" y="108.66156" style="fill: #ae9d31"/>
    </g>
    <g clip-path="url(#p092266409b)">
     <use xlink:href="#C1_0_279464b9b6" x="241.565" y="100.57388" style="fill: #ae9d31"/>
    </g>
    <g clip-path="url(#p092266409b)">
     <use xlink:href="#C1_0_279464b9b6" x="241.565" y="80.587695" style="fill: #ae9d31"/>
    </g>
   </g>
   <g id="PathCollection_3">
    <defs>
     <path id="C2_0_7dcba761c6" d="M 0 2.5 
C 0.663008 2.5 1.29895 2.236584 1.767767 1.767767 
C 2.236584 1.29895 2.5 0.663008 2.5 -0 
C 2.5 -0.663008 2.236584 -1.29895 1.767767 -1.767767 
C 1.29895 -2.236584 0.663008 -2.5 0 -2.5 
C -0.663008 -2.5 -1.29895 -2.236584 -1.767767 -1.767767 
C -2.236584 -1.29895 -2.5 -0.663008 -2.5 0 
C -2.5 0.663008 -2.236584 1.29895 -1.767767 1.767767 
C -1.29895 2.236584 -0.663008 2.5 0 2.5 
z
"/>
    </defs>
    <g clip-path="url(#p092266409b)">
     <use xlink:href="#C2_0_7dcba761c6" x="375.175" y="309.465266" style="fill: #33b07a"/>
    </g>
    <g clip-path="url(#p092266409b)">
     <use xlink:href="#C2_0_7dcba761c6" x="375.175" y="298.066068" style="fill: #33b07a"/>
    </g>
    <g clip-path="url(#p092266409b)">
     <use xlink:href="#C2_0_7dcba761c6" x="381.454236" y="297.84466" style="fill: #33b07a"/>
    </g>
    <g clip-path="url(#p092266409b)">
     <use xlink:href="#C2_0_7dcba761c6" x="375.175" y="290.563594" style="fill: #33b07a"/>
    </g>
    <g clip-path="url(#p092266409b)">
     <use xlink:href="#C2_0_7dcba761c6" x="369.720107" y="288.082616" style="fill: #33b07a"/>
    </g>
    <g clip-path="url(#p092266409b)">
     <use xlink:href="#C2_0_7dcba761c6" x="375.175" y="276.110066" style="fill: #33b07a"/>
    </g>
    <g clip-path="url(#p092266409b)">
     <use xlink:href="#C2_0_7dcba761c6" x="375.175" y="269.597523" style="fill: #33b07a"/>
    </g>
    <g clip-path="url(#p092266409b)">
     <use xlink:href="#C2_0_7dcba761c6" x="375.175" y="261.11778" style="fill: #33b07a"/>
    </g>
    <g clip-path="url(#p092266409b)">
     <use xlink:href="#C2_0_7dcba761c6" x="369.10972" y="259.807697" style="fill: #33b07a"/>
    </g>
    <g clip-path="url(#p092266409b)">
     <use xlink:href="#C2_0_7dcba761c6" x="380.055457" y="257.970861" style="fill: #33b07a"/>
    </g>
    <g clip-path="url(#p092266409b)">
     <use xlink:href="#C2_0_7dcba761c6" x="364.526322" y="256.390418" style="fill: #33b07a"/>
    </g>
    <g clip-path="url(#p092266409b)">
     <use xlink:href="#C2_0_7dcba761c6" x="374.607178" y="255.480724" style="fill: #33b07a"/>
    </g>
    <g clip-path="url(#p092266409b)">
     <use xlink:href="#C2_0_7dcba761c6" x="375.175" y="245.207215" style="fill: #33b07a"/>
    </g>
    <g clip-path="url(#p092266409b)">
     <use xlink:href="#C2_0_7dcba761c6" x="375.175" y="232.733871" style="fill: #33b07a"/>
    </g>
    <g clip-path="url(#p092266409b)">
     <use xlink:href="#C2_0_7dcba761c6" x="375.175" y="225.431626" style="fill: #33b07a"/>
    </g>
    <g clip-path="url(#p092266409b)">
     <use xlink:href="#C2_0_7dcba761c6" x="368.96571" y="224.65674" style="fill: #33b07a"/>
    </g>
    <g clip-path="url(#p092266409b)">
     <use xlink:href="#C2_0_7dcba761c6" x="375.175" y="215.375186" style="fill: #33b07a"/>
    </g>
    <g clip-path="url(#p092266409b)">
     <use xlink:href="#C2_0_7dcba761c6" x="375.175" y="175.273276" style="fill: #33b07a"/>
    </g>
    <g clip-path="url(#p092266409b)">
     <use xlink:href="#C2_0_7dcba761c6" x="375.175" y="167.444324" style="fill: #33b07a"/>
    </g>
    <g clip-path="url(#p092266409b)">
     <use xlink:href="#C2_0_7dcba761c6" x="369.599296" y="165.139109" style="fill: #33b07a"/>
    </g>
    <g clip-path="url(#p092266409b)">
     <use xlink:href="#C2_0_7dcba761c6" x="379.679102" y="163.961123" style="fill: #33b07a"/>
    </g>
    <g clip-path="url(#p092266409b)">
     <use xlink:href="#C2_0_7dcba761c6" x="375.175" y="158.875873" style="fill: #33b07a"/>
    </g>
    <g clip-path="url(#p092266409b)">
     <use xlink:href="#C2_0_7dcba761c6" x="381.346219" y="157.928248" style="fill: #33b07a"/>
    </g>
    <g clip-path="url(#p092266409b)">
     <use xlink:href="#C2_0_7dcba761c6" x="370.001789" y="156.039481" style="fill: #33b07a"/>
    </g>
    <g clip-path="url(#p092266409b)">
     <use xlink:href="#C2_0_7dcba761c6" x="375.175" y="135.786797" style="fill: #33b07a"/>
    </g>
    <g clip-path="url(#p092266409b)">
     <use xlink:href="#C2_0_7dcba761c6" x="369.437297" y="133.747914" style="fill: #33b07a"/>
    </g>
    <g clip-path="url(#p092266409b)">
     <use xlink:href="#C2_0_7dcba761c6" x="375.175" y="127.955107" style="fill: #33b07a"/>
    </g>
    <g clip-path="url(#p092266409b)">
     <use xlink:href="#C2_0_7dcba761c6" x="375.175" y="121.443251" style="fill: #33b07a"/>
    </g>
    <g clip-path="url(#p092266409b)">
     <use xlink:href="#C2_0_7dcba761c6" x="375.175" y="103.789706" style="fill: #33b07a"/>
    </g>
    <g clip-path="url(#p092266409b)">
     <use xlink:href="#C2_0_7dcba761c6" x="375.175" y="25.901603" style="fill: #33b07a"/>
    </g>
   </g>
   <g id="PathCollection_4">
    <defs>
     <path id="C3_0_e200cc3e23" d="M 0 2.5 
C 0.663008 2.5 1.29895 2.236584 1.767767 1.767767 
C 2.236584 1.29895 2.5 0.663008 2.5 -0 
C 2.5 -0.663008 2.236584 -1.29895 1.767767 -1.767767 
C 1.29895 -2.236584 0.663008 -2.5 0 -2.5 
C -0.663008 -2.5 -1.29895 -2.236584 -1.767767 -1.767767 
C -2.236584 -1.29895 -2.5 -0.663008 -2.5 0 
C -2.5 0.663008 -2.236584 1.29895 -1.767767 1.767767 
C -1.29895 2.236584 -0.663008 2.5 0 2.5 
z
"/>
    </defs>
    <g clip-path="url(#p092266409b)">
     <use xlink:href="#C3_0_e200cc3e23" x="508.785" y="327.933666" style="fill: #38a9c5"/>
    </g>
    <g clip-path="url(#p092266409b)">
     <use xlink:href="#C3_0_e200cc3e23" x="508.785" y="320.077037" style="fill: #38a9c5"/>
    </g>
    <g clip-path="url(#p092266409b)">
     <use xlink:href="#C3_0_e200cc3e23" x="502.558489" y="319.394939" style="fill: #38a9c5"/>
    </g>
    <g clip-path="url(#p092266409b)">
     <use xlink:href="#C3_0_e200cc3e23" x="508.785" y="295.378925" style="fill: #38a9c5"/>
    </g>
    <g clip-path="url(#p092266409b)">
     <use xlink:href="#C3_0_e200cc3e23" x="502.95591" y="293.510835" style="fill: #38a9c5"/>
    </g>
    <g clip-path="url(#p092266409b)">
     <use xlink:href="#C3_0_e200cc3e23" x="508.785" y="288.62227" style="fill: #38a9c5"/>
    </g>
    <g clip-path="url(#p092266409b)">
     <use xlink:href="#C3_0_e200cc3e23" x="503.047553" y="286.582931" style="fill: #38a9c5"/>
    </g>
    <g clip-path="url(#p092266409b)">
     <use xlink:href="#C3_0_e200cc3e23" x="508.785" y="282.631377" style="fill: #38a9c5"/>
    </g>
    <g clip-path="url(#p092266409b)">
     <use xlink:href="#C3_0_e200cc3e23" x="503.15558" y="280.410103" style="fill: #38a9c5"/>
    </g>
    <g clip-path="url(#p092266409b)">
     <use xlink:href="#C3_0_e200cc3e23" x="514.407588" y="280.399207" style="fill: #38a9c5"/>
    </g>
    <g clip-path="url(#p092266409b)">
     <use xlink:href="#C3_0_e200cc3e23" x="508.785" y="273.070274" style="fill: #38a9c5"/>
    </g>
    <g clip-path="url(#p092266409b)">
     <use xlink:href="#C3_0_e200cc3e23" x="502.535052" y="272.540495" style="fill: #38a9c5"/>
    </g>
    <g clip-path="url(#p092266409b)">
     <use xlink:href="#C3_0_e200cc3e23" x="514.652961" y="271.280655" style="fill: #38a9c5"/>
    </g>
    <g clip-path="url(#p092266409b)">
     <use xlink:href="#C3_0_e200cc3e23" x="508.785" y="261.969269" style="fill: #38a9c5"/>
    </g>
    <g clip-path="url(#p092266409b)">
     <use xlink:href="#C3_0_e200cc3e23" x="504.136513" y="258.607949" style="fill: #38a9c5"/>
    </g>
    <g clip-path="url(#p092266409b)">
     <use xlink:href="#C3_0_e200cc3e23" x="508.785" y="248.545094" style="fill: #38a9c5"/>
    </g>
    <g clip-path="url(#p092266409b)">
     <use xlink:href="#C3_0_e200cc3e23" x="505.611252" y="244.234568" style="fill: #38a9c5"/>
    </g>
    <g clip-path="url(#p092266409b)">
     <use xlink:href="#C3_0_e200cc3e23" x="508.785" y="229.330024" style="fill: #38a9c5"/>
    </g>
    <g clip-path="url(#p092266409b)">
     <use xlink:href="#C3_0_e200cc3e23" x="508.785" y="217.122234" style="fill: #38a9c5"/>
    </g>
    <g clip-path="url(#p092266409b)">
     <use xlink:href="#C3_0_e200cc3e23" x="508.785" y="211.268341" style="fill: #38a9c5"/>
    </g>
    <g clip-path="url(#p092266409b)">
     <use xlink:href="#C3_0_e200cc3e23" x="508.785" y="200.254037" style="fill: #38a9c5"/>
    </g>
    <g clip-path="url(#p092266409b)">
     <use xlink:href="#C3_0_e200cc3e23" x="508.785" y="189.599814" style="fill: #38a9c5"/>
    </g>
    <g clip-path="url(#p092266409b)">
     <use xlink:href="#C3_0_e200cc3e23" x="508.785" y="164.198884" style="fill: #38a9c5"/>
    </g>
    <g clip-path="url(#p092266409b)">
     <use xlink:href="#C3_0_e200cc3e23" x="508.785" y="144.960679" style="fill: #38a9c5"/>
    </g>
    <g clip-path="url(#p092266409b)">
     <use xlink:href="#C3_0_e200cc3e23" x="502.500024" y="144.901576" style="fill: #38a9c5"/>
    </g>
    <g clip-path="url(#p092266409b)">
     <use xlink:href="#C3_0_e200cc3e23" x="508.785" y="137.896327" style="fill: #38a9c5"/>
    </g>
    <g clip-path="url(#p092266409b)">
     <use xlink:href="#C3_0_e200cc3e23" x="508.785" y="131.241041" style="fill: #38a9c5"/>
    </g>
    <g clip-path="url(#p092266409b)">
     <use xlink:href="#C3_0_e200cc3e23" x="508.785" y="118.513206" style="fill: #38a9c5"/>
    </g>
    <g clip-path="url(#p092266409b)">
     <use xlink:href="#C3_0_e200cc3e23" x="508.785" y="64.802704" style="fill: #38a9c5"/>
    </g>
    <g clip-path="url(#p092266409b)">
     <use xlink:href="#C3_0_e200cc3e23" x="508.785" y="48.940162" style="fill: #38a9c5"/>
    </g>
   </g>
   <g id="PathCollection_5">
    <defs>
     <path id="C4_0_0cd99eae6c" d="M 0 2.5 
C 0.663008 2.5 1.29895 2.236584 1.767767 1.767767 
C 2.236584 1.29895 2.5 0.663008 2.5 -0 
C 2.5 -0.663008 2.236584 -1.29895 1.767767 -1.767767 
C 1.29895 -2.236584 0.663008 -2.5 0 -2.5 
C -0.663008 -2.5 -1.29895 -2.236584 -1.767767 -1.767767 
C -2.236584 -1.29895 -2.5 -0.663008 -2.5 0 
C -2.5 0.663008 -2.236584 1.29895 -1.767767 1.767767 
C -1.29895 2.236584 -0.663008 2.5 0 2.5 
z
"/>
    </defs>
    <g clip-path="url(#p092266409b)">
     <use xlink:href="#C4_0_0cd99eae6c" x="642.395" y="322.923719" style="fill: #cc7af4"/>
    </g>
    <g clip-path="url(#p092266409b)">
     <use xlink:href="#C4_0_0cd99eae6c" x="642.395" y="301.101315" style="fill: #cc7af4"/>
    </g>
    <g clip-path="url(#p092266409b)">
     <use xlink:href="#C4_0_0cd99eae6c" x="642.395" y="288.581671" style="fill: #cc7af4"/>
    </g>
    <g clip-path="url(#p092266409b)">
     <use xlink:href="#C4_0_0cd99eae6c" x="636.146589" y="288.040567" style="fill: #cc7af4"/>
    </g>
    <g clip-path="url(#p092266409b)">
     <use xlink:href="#C4_0_0cd99eae6c" x="648.62096" y="287.896402" style="fill: #cc7af4"/>
    </g>
    <g clip-path="url(#p092266409b)">
     <use xlink:href="#C4_0_0cd99eae6c" x="642.395" y="281.432107" style="fill: #cc7af4"/>
    </g>
    <g clip-path="url(#p092266409b)">
     <use xlink:href="#C4_0_0cd99eae6c" x="639.460394" y="277.015913" style="fill: #cc7af4"/>
    </g>
    <g clip-path="url(#p092266409b)">
     <use xlink:href="#C4_0_0cd99eae6c" x="642.395" y="272.478015" style="fill: #cc7af4"/>
    </g>
    <g clip-path="url(#p092266409b)">
     <use xlink:href="#C4_0_0cd99eae6c" x="641.077262" y="267.595081" style="fill: #cc7af4"/>
    </g>
    <g clip-path="url(#p092266409b)">
     <use xlink:href="#C4_0_0cd99eae6c" x="646.716463" y="265.389524" style="fill: #cc7af4"/>
    </g>
    <g clip-path="url(#p092266409b)">
     <use xlink:href="#C4_0_0cd99eae6c" x="642.395" y="260.582222" style="fill: #cc7af4"/>
    </g>
    <g clip-path="url(#p092266409b)">
     <use xlink:href="#C4_0_0cd99eae6c" x="642.395" y="244.010438" style="fill: #cc7af4"/>
    </g>
    <g clip-path="url(#p092266409b)">
     <use xlink:href="#C4_0_0cd99eae6c" x="642.395" y="237.521126" style="fill: #cc7af4"/>
    </g>
    <g clip-path="url(#p092266409b)">
     <use xlink:href="#C4_0_0cd99eae6c" x="636.490784" y="235.808433" style="fill: #cc7af4"/>
    </g>
    <g clip-path="url(#p092266409b)">
     <use xlink:href="#C4_0_0cd99eae6c" x="642.395" y="232.111944" style="fill: #cc7af4"/>
    </g>
    <g clip-path="url(#p092266409b)">
     <use xlink:href="#C4_0_0cd99eae6c" x="636.378173" y="230.667687" style="fill: #cc7af4"/>
    </g>
    <g clip-path="url(#p092266409b)">
     <use xlink:href="#C4_0_0cd99eae6c" x="642.395" y="221.139086" style="fill: #cc7af4"/>
    </g>
    <g clip-path="url(#p092266409b)">
     <use xlink:href="#C4_0_0cd99eae6c" x="636.603518" y="219.198559" style="fill: #cc7af4"/>
    </g>
    <g clip-path="url(#p092266409b)">
     <use xlink:href="#C4_0_0cd99eae6c" x="642.395" y="205.144184" style="fill: #cc7af4"/>
    </g>
    <g clip-path="url(#p092266409b)">
     <use xlink:href="#C4_0_0cd99eae6c" x="636.265259" y="204.039613" style="fill: #cc7af4"/>
    </g>
    <g clip-path="url(#p092266409b)">
     <use xlink:href="#C4_0_0cd99eae6c" x="642.395" y="179.052704" style="fill: #cc7af4"/>
    </g>
    <g clip-path="url(#p092266409b)">
     <use xlink:href="#C4_0_0cd99eae6c" x="636.177314" y="178.32155" style="fill: #cc7af4"/>
    </g>
    <g clip-path="url(#p092266409b)">
     <use xlink:href="#C4_0_0cd99eae6c" x="642.395" y="164.244095" style="fill: #cc7af4"/>
    </g>
    <g clip-path="url(#p092266409b)">
     <use xlink:href="#C4_0_0cd99eae6c" x="642.395" y="152.148193" style="fill: #cc7af4"/>
    </g>
    <g clip-path="url(#p092266409b)">
     <use xlink:href="#C4_0_0cd99eae6c" x="642.395" y="141.462776" style="fill: #cc7af4"/>
    </g>
    <g clip-path="url(#p092266409b)">
     <use xlink:href="#C4_0_0cd99eae6c" x="638.338478" y="137.648142" style="fill: #cc7af4"/>
    </g>
    <g clip-path="url(#p092266409b)">
     <use xlink:href="#C4_0_0cd99eae6c" x="642.966441" y="134.268991" style="fill: #cc7af4"/>
    </g>
    <g clip-path="url(#p092266409b)">
     <use xlink:href="#C4_0_0cd99eae6c" x="642.395" y="126.952451" style="fill: #cc7af4"/>
    </g>
    <g clip-path="url(#p092266409b)">
     <use xlink:href="#C4_0_0cd99eae6c" x="636.470145" y="125.285357" style="fill: #cc7af4"/>
    </g>
    <g clip-path="url(#p092266409b)">
     <use xlink:href="#C4_0_0cd99eae6c" x="642.395" y="120.506395" style="fill: #cc7af4"/>
    </g>
   </g>
  </g>
 </g>
 <defs>
  <clipPath id="p092266409b">
   <rect x="41.15" y="10.8" width="668.05" height="332.23527"/>
  </clipPath>
 </defs>
</svg>
