<?xml version="1.0" encoding="utf-8" standalone="no"?>
<!DOCTYPE svg PUBLIC "-//W3C//DTD SVG 1.1//EN"
  "http://www.w3.org/Graphics/SVG/1.1/DTD/svg11.dtd">
<svg xmlns:xlink="http://www.w3.org/1999/xlink" width="720pt" height="432pt" viewBox="0 0 720 432" xmlns="http://www.w3.org/2000/svg" version="1.1">
 <metadata>
  <rdf:RDF xmlns:dc="http://purl.org/dc/elements/1.1/" xmlns:cc="http://creativecommons.org/ns#" xmlns:rdf="http://www.w3.org/1999/02/22-rdf-syntax-ns#">
   <cc:Work>
    <dc:type rdf:resource="http://purl.org/dc/dcmitype/StillImage"/>
    <dc:date>2024-09-30T14:00:17.918818</dc:date>
    <dc:format>image/svg+xml</dc:format>
    <dc:creator>
     <cc:Agent>
      <dc:title>Matplotlib v3.7.3, https://matplotlib.org/</dc:title>
     </cc:Agent>
    </dc:creator>
   </cc:Work>
  </rdf:RDF>
 </metadata>
 <defs>
  <style type="text/css">*{stroke-linejoin: round; stroke-linecap: butt}</style>
 </defs>
 <g id="figure_1">
  <g id="patch_1">
   <path d="M 0 432 
L 720 432 
L 720 0 
L 0 0 
z
" style="fill: #ffffff"/>
  </g>
  <g id="axes_1">
   <g id="patch_2">
    <path d="M 105.41 390.04 
L 709.2 390.04 
L 709.2 10.8 
L 105.41 10.8 
z
" style="fill: #ffffff"/>
   </g>
   <g id="PathCollection_1">
    <defs>
     <path id="C0_0_f827b7fe45" d="M 0 1.5 
C 0.397805 1.5 0.77937 1.341951 1.06066 1.06066 
C 1.341951 0.77937 1.5 0.397805 1.5 -0 
C 1.5 -0.397805 1.341951 -0.77937 1.06066 -1.06066 
C 0.77937 -1.341951 0.397805 -1.5 0 -1.5 
C -0.397805 -1.5 -0.77937 -1.341951 -1.06066 -1.06066 
C -1.341951 -0.77937 -1.5 -0.397805 -1.5 0 
C -1.5 0.397805 -1.341951 0.77937 -1.06066 1.06066 
C -0.77937 1.341951 -0.397805 1.5 0 1.5 
z
"/>
    </defs>
    <g clip-path="url(#p35926318cc)">
     <use xlink:href="#C0_0_f827b7fe45" x="379.92581" y="55.847596" style="fill: #f77189"/>
    </g>
    <g clip-path="url(#p35926318cc)">
     <use xlink:href="#C0_0_f827b7fe45" x="339.838944" y="54.681735" style="fill: #f77189"/>
    </g>
    <g clip-path="url(#p35926318cc)">
     <use xlink:href="#C0_0_f827b7fe45" x="301.623043" y="65.547997" style="fill: #f77189"/>
    </g>
    <g clip-path="url(#p35926318cc)">
     <use xlink:href="#C0_0_f827b7fe45" x="325.344102" y="62.809188" style="fill: #f77189"/>
    </g>
    <g clip-path="url(#p35926318cc)">
     <use xlink:href="#C0_0_f827b7fe45" x="365.849714" y="61.9603" style="fill: #f77189"/>
    </g>
    <g clip-path="url(#p35926318cc)">
     <use xlink:href="#C0_0_f827b7fe45" x="327.224002" y="68.061598" style="fill: #f77189"/>
    </g>
    <g clip-path="url(#p35926318cc)">
     <use xlink:href="#C0_0_f827b7fe45" x="420.111055" y="54.309151" style="fill: #f77189"/>
    </g>
    <g clip-path="url(#p35926318cc)">
     <use xlink:href="#C0_0_f827b7fe45" x="400.156886" y="63.104083" style="fill: #f77189"/>
    </g>
    <g clip-path="url(#p35926318cc)">
     <use xlink:href="#C0_0_f827b7fe45" x="414.019419" y="59.045872" style="fill: #f77189"/>
    </g>
    <g clip-path="url(#p35926318cc)">
     <use xlink:href="#C0_0_f827b7fe45" x="355.286063" y="61.03062" style="fill: #f77189"/>
    </g>
    <g clip-path="url(#p35926318cc)">
     <use xlink:href="#C0_0_f827b7fe45" x="449.732086" y="61.716029" style="fill: #f77189"/>
    </g>
    <g clip-path="url(#p35926318cc)">
     <use xlink:href="#C0_0_f827b7fe45" x="474.255836" y="54.060748" style="fill: #f77189"/>
    </g>
    <g clip-path="url(#p35926318cc)">
     <use xlink:href="#C0_0_f827b7fe45" x="642.394476" y="66.345834" style="fill: #f77189"/>
    </g>
    <g clip-path="url(#p35926318cc)">
     <use xlink:href="#C0_0_f827b7fe45" x="534.750471" y="61.031941" style="fill: #f77189"/>
    </g>
    <g clip-path="url(#p35926318cc)">
     <use xlink:href="#C0_0_f827b7fe45" x="606.854841" y="62.488069" style="fill: #f77189"/>
    </g>
    <g clip-path="url(#p35926318cc)">
     <use xlink:href="#C0_0_f827b7fe45" x="613.668793" y="64.124371" style="fill: #f77189"/>
    </g>
    <g clip-path="url(#p35926318cc)">
     <use xlink:href="#C0_0_f827b7fe45" x="577.581124" y="59.050794" style="fill: #f77189"/>
    </g>
    <g clip-path="url(#p35926318cc)">
     <use xlink:href="#C0_0_f827b7fe45" x="335.856561" y="61.298901" style="fill: #f77189"/>
    </g>
    <g clip-path="url(#p35926318cc)">
     <use xlink:href="#C0_0_f827b7fe45" x="375.03667" y="62.386287" style="fill: #f77189"/>
    </g>
    <g clip-path="url(#p35926318cc)">
     <use xlink:href="#C0_0_f827b7fe45" x="379.884723" y="64.561694" style="fill: #f77189"/>
    </g>
    <g clip-path="url(#p35926318cc)">
     <use xlink:href="#C0_0_f827b7fe45" x="280.800575" y="63.774422" style="fill: #f77189"/>
    </g>
    <g clip-path="url(#p35926318cc)">
     <use xlink:href="#C0_0_f827b7fe45" x="321.474532" y="59.88952" style="fill: #f77189"/>
    </g>
    <g clip-path="url(#p35926318cc)">
     <use xlink:href="#C0_0_f827b7fe45" x="424.491414" y="57.79814" style="fill: #f77189"/>
    </g>
    <g clip-path="url(#p35926318cc)">
     <use xlink:href="#C0_0_f827b7fe45" x="446.822314" y="64.338106" style="fill: #f77189"/>
    </g>
    <g clip-path="url(#p35926318cc)">
     <use xlink:href="#C0_0_f827b7fe45" x="458.096458" y="66.757261" style="fill: #f77189"/>
    </g>
    <g clip-path="url(#p35926318cc)">
     <use xlink:href="#C0_0_f827b7fe45" x="314.466348" y="59.650257" style="fill: #f77189"/>
    </g>
    <g clip-path="url(#p35926318cc)">
     <use xlink:href="#C0_0_f827b7fe45" x="240.641147" y="63.019357" style="fill: #f77189"/>
    </g>
    <g clip-path="url(#p35926318cc)">
     <use xlink:href="#C0_0_f827b7fe45" x="243.535223" y="53.903609" style="fill: #f77189"/>
    </g>
   </g>
   <g id="PathCollection_2">
    <defs>
     <path id="C1_0_62838cc845" d="M 0 1.5 
C 0.397805 1.5 0.77937 1.341951 1.06066 1.06066 
C 1.341951 0.77937 1.5 0.397805 1.5 -0 
C 1.5 -0.397805 1.341951 -0.77937 1.06066 -1.06066 
C 0.77937 -1.341951 0.397805 -1.5 0 -1.5 
C -0.397805 -1.5 -0.77937 -1.341951 -1.06066 -1.06066 
C -1.341951 -0.77937 -1.5 -0.397805 -1.5 0 
C -1.5 0.397805 -1.341951 0.77937 -1.06066 1.06066 
C -0.77937 1.341951 -0.397805 1.5 0 1.5 
z
"/>
    </defs>
    <g clip-path="url(#p35926318cc)">
     <use xlink:href="#C1_0_62838cc845" x="215.305217" y="139.286804" style="fill: #ae9d31"/>
    </g>
    <g clip-path="url(#p35926318cc)">
     <use xlink:href="#C1_0_62838cc845" x="207.363576" y="139.578491" style="fill: #ae9d31"/>
    </g>
    <g clip-path="url(#p35926318cc)">
     <use xlink:href="#C1_0_62838cc845" x="227.21244" y="128.268895" style="fill: #ae9d31"/>
    </g>
    <g clip-path="url(#p35926318cc)">
     <use xlink:href="#C1_0_62838cc845" x="259.414401" y="127.795385" style="fill: #ae9d31"/>
    </g>
    <g clip-path="url(#p35926318cc)">
     <use xlink:href="#C1_0_62838cc845" x="262.103487" y="130.45208" style="fill: #ae9d31"/>
    </g>
    <g clip-path="url(#p35926318cc)">
     <use xlink:href="#C1_0_62838cc845" x="287.405587" y="132.364878" style="fill: #ae9d31"/>
    </g>
    <g clip-path="url(#p35926318cc)">
     <use xlink:href="#C1_0_62838cc845" x="335.878885" y="136.419296" style="fill: #ae9d31"/>
    </g>
    <g clip-path="url(#p35926318cc)">
     <use xlink:href="#C1_0_62838cc845" x="307.430259" y="130.119333" style="fill: #ae9d31"/>
    </g>
    <g clip-path="url(#p35926318cc)">
     <use xlink:href="#C1_0_62838cc845" x="298.814943" y="127.936642" style="fill: #ae9d31"/>
    </g>
    <g clip-path="url(#p35926318cc)">
     <use xlink:href="#C1_0_62838cc845" x="461.873658" y="130.547689" style="fill: #ae9d31"/>
    </g>
    <g clip-path="url(#p35926318cc)">
     <use xlink:href="#C1_0_62838cc845" x="435.206897" y="133.191099" style="fill: #ae9d31"/>
    </g>
    <g clip-path="url(#p35926318cc)">
     <use xlink:href="#C1_0_62838cc845" x="448.986916" y="127.530164" style="fill: #ae9d31"/>
    </g>
    <g clip-path="url(#p35926318cc)">
     <use xlink:href="#C1_0_62838cc845" x="500.362674" y="130.727176" style="fill: #ae9d31"/>
    </g>
    <g clip-path="url(#p35926318cc)">
     <use xlink:href="#C1_0_62838cc845" x="582.370864" y="135.316371" style="fill: #ae9d31"/>
    </g>
    <g clip-path="url(#p35926318cc)">
     <use xlink:href="#C1_0_62838cc845" x="497.314198" y="135.956033" style="fill: #ae9d31"/>
    </g>
    <g clip-path="url(#p35926318cc)">
     <use xlink:href="#C1_0_62838cc845" x="531.350636" y="128.710959" style="fill: #ae9d31"/>
    </g>
    <g clip-path="url(#p35926318cc)">
     <use xlink:href="#C1_0_62838cc845" x="546.048835" y="138.391341" style="fill: #ae9d31"/>
    </g>
    <g clip-path="url(#p35926318cc)">
     <use xlink:href="#C1_0_62838cc845" x="180.307241" y="138.886715" style="fill: #ae9d31"/>
    </g>
    <g clip-path="url(#p35926318cc)">
     <use xlink:href="#C1_0_62838cc845" x="144.806529" y="141.440954" style="fill: #ae9d31"/>
    </g>
    <g clip-path="url(#p35926318cc)">
     <use xlink:href="#C1_0_62838cc845" x="272.995867" y="137.349611" style="fill: #ae9d31"/>
    </g>
    <g clip-path="url(#p35926318cc)">
     <use xlink:href="#C1_0_62838cc845" x="234.388247" y="139.752225" style="fill: #ae9d31"/>
    </g>
    <g clip-path="url(#p35926318cc)">
     <use xlink:href="#C1_0_62838cc845" x="237.104841" y="133.360199" style="fill: #ae9d31"/>
    </g>
    <g clip-path="url(#p35926318cc)">
     <use xlink:href="#C1_0_62838cc845" x="265.290196" y="133.900262" style="fill: #ae9d31"/>
    </g>
    <g clip-path="url(#p35926318cc)">
     <use xlink:href="#C1_0_62838cc845" x="316.010729" y="133.9083" style="fill: #ae9d31"/>
    </g>
    <g clip-path="url(#p35926318cc)">
     <use xlink:href="#C1_0_62838cc845" x="298.361808" y="141.356466" style="fill: #ae9d31"/>
    </g>
    <g clip-path="url(#p35926318cc)">
     <use xlink:href="#C1_0_62838cc845" x="299.961577" y="128.63004" style="fill: #ae9d31"/>
    </g>
    <g clip-path="url(#p35926318cc)">
     <use xlink:href="#C1_0_62838cc845" x="441.125292" y="131.653521" style="fill: #ae9d31"/>
    </g>
    <g clip-path="url(#p35926318cc)">
     <use xlink:href="#C1_0_62838cc845" x="437.6479" y="132.89344" style="fill: #ae9d31"/>
    </g>
    <g clip-path="url(#p35926318cc)">
     <use xlink:href="#C1_0_62838cc845" x="423.274391" y="137.516397" style="fill: #ae9d31"/>
    </g>
   </g>
   <g id="PathCollection_3">
    <defs>
     <path id="C2_0_1ba533f66e" d="M 0 1.5 
C 0.397805 1.5 0.77937 1.341951 1.06066 1.06066 
C 1.341951 0.77937 1.5 0.397805 1.5 -0 
C 1.5 -0.397805 1.341951 -0.77937 1.06066 -1.06066 
C 0.77937 -1.341951 0.397805 -1.5 0 -1.5 
C -0.397805 -1.5 -0.77937 -1.341951 -1.06066 -1.06066 
C -1.341951 -0.77937 -1.5 -0.397805 -1.5 0 
C -1.5 0.397805 -1.341951 0.77937 -1.06066 1.06066 
C -0.77937 1.341951 -0.397805 1.5 0 1.5 
z
"/>
    </defs>
    <g clip-path="url(#p35926318cc)">
     <use xlink:href="#C2_0_1ba533f66e" x="496.287379" y="209.553294" style="fill: #33b07a"/>
    </g>
    <g clip-path="url(#p35926318cc)">
     <use xlink:href="#C2_0_1ba533f66e" x="227.036968" y="206.741508" style="fill: #33b07a"/>
    </g>
    <g clip-path="url(#p35926318cc)">
     <use xlink:href="#C2_0_1ba533f66e" x="166.418672" y="206.21384" style="fill: #33b07a"/>
    </g>
    <g clip-path="url(#p35926318cc)">
     <use xlink:href="#C2_0_1ba533f66e" x="260.002374" y="201.619668" style="fill: #33b07a"/>
    </g>
    <g clip-path="url(#p35926318cc)">
     <use xlink:href="#C2_0_1ba533f66e" x="283.198473" y="210.895832" style="fill: #33b07a"/>
    </g>
    <g clip-path="url(#p35926318cc)">
     <use xlink:href="#C2_0_1ba533f66e" x="238.872582" y="205.58658" style="fill: #33b07a"/>
    </g>
    <g clip-path="url(#p35926318cc)">
     <use xlink:href="#C2_0_1ba533f66e" x="262.874603" y="203.296479" style="fill: #33b07a"/>
    </g>
    <g clip-path="url(#p35926318cc)">
     <use xlink:href="#C2_0_1ba533f66e" x="319.137773" y="213.083789" style="fill: #33b07a"/>
    </g>
    <g clip-path="url(#p35926318cc)">
     <use xlink:href="#C2_0_1ba533f66e" x="320.546017" y="200.360476" style="fill: #33b07a"/>
    </g>
    <g clip-path="url(#p35926318cc)">
     <use xlink:href="#C2_0_1ba533f66e" x="445.248052" y="203.94826" style="fill: #33b07a"/>
    </g>
    <g clip-path="url(#p35926318cc)">
     <use xlink:href="#C2_0_1ba533f66e" x="430.851603" y="211.532534" style="fill: #33b07a"/>
    </g>
    <g clip-path="url(#p35926318cc)">
     <use xlink:href="#C2_0_1ba533f66e" x="424.521384" y="212.047591" style="fill: #33b07a"/>
    </g>
    <g clip-path="url(#p35926318cc)">
     <use xlink:href="#C2_0_1ba533f66e" x="508.121744" y="205.967718" style="fill: #33b07a"/>
    </g>
    <g clip-path="url(#p35926318cc)">
     <use xlink:href="#C2_0_1ba533f66e" x="681.755" y="202.611843" style="fill: #33b07a"/>
    </g>
    <g clip-path="url(#p35926318cc)">
     <use xlink:href="#C2_0_1ba533f66e" x="440.093318" y="205.289785" style="fill: #33b07a"/>
    </g>
    <g clip-path="url(#p35926318cc)">
     <use xlink:href="#C2_0_1ba533f66e" x="540.204533" y="200.342463" style="fill: #33b07a"/>
    </g>
    <g clip-path="url(#p35926318cc)">
     <use xlink:href="#C2_0_1ba533f66e" x="485.759783" y="208.77822" style="fill: #33b07a"/>
    </g>
    <g clip-path="url(#p35926318cc)">
     <use xlink:href="#C2_0_1ba533f66e" x="482.054404" y="203.866457" style="fill: #33b07a"/>
    </g>
    <g clip-path="url(#p35926318cc)">
     <use xlink:href="#C2_0_1ba533f66e" x="187.537458" y="214.211452" style="fill: #33b07a"/>
    </g>
    <g clip-path="url(#p35926318cc)">
     <use xlink:href="#C2_0_1ba533f66e" x="187.13508" y="200.483912" style="fill: #33b07a"/>
    </g>
    <g clip-path="url(#p35926318cc)">
     <use xlink:href="#C2_0_1ba533f66e" x="205.278574" y="211.867505" style="fill: #33b07a"/>
    </g>
    <g clip-path="url(#p35926318cc)">
     <use xlink:href="#C2_0_1ba533f66e" x="254.2833" y="214.397565" style="fill: #33b07a"/>
    </g>
    <g clip-path="url(#p35926318cc)">
     <use xlink:href="#C2_0_1ba533f66e" x="256.664188" y="206.289401" style="fill: #33b07a"/>
    </g>
    <g clip-path="url(#p35926318cc)">
     <use xlink:href="#C2_0_1ba533f66e" x="200.769753" y="210.115559" style="fill: #33b07a"/>
    </g>
    <g clip-path="url(#p35926318cc)">
     <use xlink:href="#C2_0_1ba533f66e" x="264.527841" y="214.314904" style="fill: #33b07a"/>
    </g>
    <g clip-path="url(#p35926318cc)">
     <use xlink:href="#C2_0_1ba533f66e" x="305.866987" y="211.948102" style="fill: #33b07a"/>
    </g>
    <g clip-path="url(#p35926318cc)">
     <use xlink:href="#C2_0_1ba533f66e" x="337.413911" y="213.317755" style="fill: #33b07a"/>
    </g>
    <g clip-path="url(#p35926318cc)">
     <use xlink:href="#C2_0_1ba533f66e" x="410.293386" y="202.527802" style="fill: #33b07a"/>
    </g>
    <g clip-path="url(#p35926318cc)">
     <use xlink:href="#C2_0_1ba533f66e" x="428.710782" y="200.34677" style="fill: #33b07a"/>
    </g>
    <g clip-path="url(#p35926318cc)">
     <use xlink:href="#C2_0_1ba533f66e" x="441.815489" y="211.5779" style="fill: #33b07a"/>
    </g>
   </g>
   <g id="PathCollection_4">
    <defs>
     <path id="C3_0_24c16f59ed" d="M 0 1.5 
C 0.397805 1.5 0.77937 1.341951 1.06066 1.06066 
C 1.341951 0.77937 1.5 0.397805 1.5 -0 
C 1.5 -0.397805 1.341951 -0.77937 1.06066 -1.06066 
C 0.77937 -1.341951 0.397805 -1.5 0 -1.5 
C -0.397805 -1.5 -0.77937 -1.341951 -1.06066 -1.06066 
C -1.341951 -0.77937 -1.5 -0.397805 -1.5 0 
C -1.5 0.397805 -1.341951 0.77937 -1.06066 1.06066 
C -0.77937 1.341951 -0.397805 1.5 0 1.5 
z
"/>
    </defs>
    <g clip-path="url(#p35926318cc)">
     <use xlink:href="#C3_0_24c16f59ed" x="204.29783" y="277.721251" style="fill: #38a9c5"/>
    </g>
    <g clip-path="url(#p35926318cc)">
     <use xlink:href="#C3_0_24c16f59ed" x="132.855" y="275.564412" style="fill: #38a9c5"/>
    </g>
    <g clip-path="url(#p35926318cc)">
     <use xlink:href="#C3_0_24c16f59ed" x="192.018577" y="274.510037" style="fill: #38a9c5"/>
    </g>
    <g clip-path="url(#p35926318cc)">
     <use xlink:href="#C3_0_24c16f59ed" x="233.524153" y="274.238121" style="fill: #38a9c5"/>
    </g>
    <g clip-path="url(#p35926318cc)">
     <use xlink:href="#C3_0_24c16f59ed" x="195.413564" y="280.05143" style="fill: #38a9c5"/>
    </g>
    <g clip-path="url(#p35926318cc)">
     <use xlink:href="#C3_0_24c16f59ed" x="219.222267" y="284.741123" style="fill: #38a9c5"/>
    </g>
    <g clip-path="url(#p35926318cc)">
     <use xlink:href="#C3_0_24c16f59ed" x="312.052992" y="281.382018" style="fill: #38a9c5"/>
    </g>
    <g clip-path="url(#p35926318cc)">
     <use xlink:href="#C3_0_24c16f59ed" x="277.132356" y="281.434136" style="fill: #38a9c5"/>
    </g>
    <g clip-path="url(#p35926318cc)">
     <use xlink:href="#C3_0_24c16f59ed" x="364.894433" y="274.81927" style="fill: #38a9c5"/>
    </g>
    <g clip-path="url(#p35926318cc)">
     <use xlink:href="#C3_0_24c16f59ed" x="384.256956" y="281.388484" style="fill: #38a9c5"/>
    </g>
    <g clip-path="url(#p35926318cc)">
     <use xlink:href="#C3_0_24c16f59ed" x="430.419508" y="279.323433" style="fill: #38a9c5"/>
    </g>
    <g clip-path="url(#p35926318cc)">
     <use xlink:href="#C3_0_24c16f59ed" x="465.489599" y="273.997736" style="fill: #38a9c5"/>
    </g>
    <g clip-path="url(#p35926318cc)">
     <use xlink:href="#C3_0_24c16f59ed" x="639.885721" y="273.176244" style="fill: #38a9c5"/>
    </g>
    <g clip-path="url(#p35926318cc)">
     <use xlink:href="#C3_0_24c16f59ed" x="478.220636" y="274.126167" style="fill: #38a9c5"/>
    </g>
    <g clip-path="url(#p35926318cc)">
     <use xlink:href="#C3_0_24c16f59ed" x="611.057823" y="274.805288" style="fill: #38a9c5"/>
    </g>
    <g clip-path="url(#p35926318cc)">
     <use xlink:href="#C3_0_24c16f59ed" x="490.315665" y="276.466923" style="fill: #38a9c5"/>
    </g>
    <g clip-path="url(#p35926318cc)">
     <use xlink:href="#C3_0_24c16f59ed" x="465.382189" y="277.186714" style="fill: #38a9c5"/>
    </g>
    <g clip-path="url(#p35926318cc)">
     <use xlink:href="#C3_0_24c16f59ed" x="513.446681" y="275.564454" style="fill: #38a9c5"/>
    </g>
    <g clip-path="url(#p35926318cc)">
     <use xlink:href="#C3_0_24c16f59ed" x="208.004036" y="279.093447" style="fill: #38a9c5"/>
    </g>
    <g clip-path="url(#p35926318cc)">
     <use xlink:href="#C3_0_24c16f59ed" x="148.372914" y="282.53599" style="fill: #38a9c5"/>
    </g>
    <g clip-path="url(#p35926318cc)">
     <use xlink:href="#C3_0_24c16f59ed" x="258.844558" y="283.60955" style="fill: #38a9c5"/>
    </g>
    <g clip-path="url(#p35926318cc)">
     <use xlink:href="#C3_0_24c16f59ed" x="232.561354" y="284.841856" style="fill: #38a9c5"/>
    </g>
    <g clip-path="url(#p35926318cc)">
     <use xlink:href="#C3_0_24c16f59ed" x="147.133298" y="278.527434" style="fill: #38a9c5"/>
    </g>
    <g clip-path="url(#p35926318cc)">
     <use xlink:href="#C3_0_24c16f59ed" x="215.18542" y="286.989454" style="fill: #38a9c5"/>
    </g>
    <g clip-path="url(#p35926318cc)">
     <use xlink:href="#C3_0_24c16f59ed" x="284.966119" y="282.111012" style="fill: #38a9c5"/>
    </g>
    <g clip-path="url(#p35926318cc)">
     <use xlink:href="#C3_0_24c16f59ed" x="334.238902" y="280.151332" style="fill: #38a9c5"/>
    </g>
    <g clip-path="url(#p35926318cc)">
     <use xlink:href="#C3_0_24c16f59ed" x="344.877512" y="274.223391" style="fill: #38a9c5"/>
    </g>
    <g clip-path="url(#p35926318cc)">
     <use xlink:href="#C3_0_24c16f59ed" x="219.24207" y="275.832768" style="fill: #38a9c5"/>
    </g>
    <g clip-path="url(#p35926318cc)">
     <use xlink:href="#C3_0_24c16f59ed" x="235.813732" y="280.286662" style="fill: #38a9c5"/>
    </g>
    <g clip-path="url(#p35926318cc)">
     <use xlink:href="#C3_0_24c16f59ed" x="252.735841" y="282.659461" style="fill: #38a9c5"/>
    </g>
   </g>
   <g id="PathCollection_5">
    <defs>
     <path id="C4_0_1444573b9b" d="M 0 1.5 
C 0.397805 1.5 0.77937 1.341951 1.06066 1.06066 
C 1.341951 0.77937 1.5 0.397805 1.5 -0 
C 1.5 -0.397805 1.341951 -0.77937 1.06066 -1.06066 
C 0.77937 -1.341951 0.397805 -1.5 0 -1.5 
C -0.397805 -1.5 -0.77937 -1.341951 -1.06066 -1.06066 
C -1.341951 -0.77937 -1.5 -0.397805 -1.5 0 
C -1.5 0.397805 -1.341951 0.77937 -1.06066 1.06066 
C -0.77937 1.341951 -0.397805 1.5 0 1.5 
z
"/>
    </defs>
    <g clip-path="url(#p35926318cc)">
     <use xlink:href="#C4_0_1444573b9b" x="484.812799" y="353.231524" style="fill: #cc7af4"/>
    </g>
    <g clip-path="url(#p35926318cc)">
     <use xlink:href="#C4_0_1444573b9b" x="242.511733" y="353.50177" style="fill: #cc7af4"/>
    </g>
    <g clip-path="url(#p35926318cc)">
     <use xlink:href="#C4_0_1444573b9b" x="141.959861" y="360.314824" style="fill: #cc7af4"/>
    </g>
    <g clip-path="url(#p35926318cc)">
     <use xlink:href="#C4_0_1444573b9b" x="205.354993" y="347.10885" style="fill: #cc7af4"/>
    </g>
    <g clip-path="url(#p35926318cc)">
     <use xlink:href="#C4_0_1444573b9b" x="246.520017" y="356.488831" style="fill: #cc7af4"/>
    </g>
    <g clip-path="url(#p35926318cc)">
     <use xlink:href="#C4_0_1444573b9b" x="204.371613" y="353.328477" style="fill: #cc7af4"/>
    </g>
    <g clip-path="url(#p35926318cc)">
     <use xlink:href="#C4_0_1444573b9b" x="330.465479" y="360.098724" style="fill: #cc7af4"/>
    </g>
    <g clip-path="url(#p35926318cc)">
     <use xlink:href="#C4_0_1444573b9b" x="297.166838" y="357.82258" style="fill: #cc7af4"/>
    </g>
    <g clip-path="url(#p35926318cc)">
     <use xlink:href="#C4_0_1444573b9b" x="285.373443" y="360.774317" style="fill: #cc7af4"/>
    </g>
    <g clip-path="url(#p35926318cc)">
     <use xlink:href="#C4_0_1444573b9b" x="404.753585" y="352.891328" style="fill: #cc7af4"/>
    </g>
    <g clip-path="url(#p35926318cc)">
     <use xlink:href="#C4_0_1444573b9b" x="356.007291" y="349.625802" style="fill: #cc7af4"/>
    </g>
    <g clip-path="url(#p35926318cc)">
     <use xlink:href="#C4_0_1444573b9b" x="358.01469" y="351.896282" style="fill: #cc7af4"/>
    </g>
    <g clip-path="url(#p35926318cc)">
     <use xlink:href="#C4_0_1444573b9b" x="471.739126" y="351.419081" style="fill: #cc7af4"/>
    </g>
    <g clip-path="url(#p35926318cc)">
     <use xlink:href="#C4_0_1444573b9b" x="509.824347" y="358.005386" style="fill: #cc7af4"/>
    </g>
    <g clip-path="url(#p35926318cc)">
     <use xlink:href="#C4_0_1444573b9b" x="498.109563" y="347.73537" style="fill: #cc7af4"/>
    </g>
    <g clip-path="url(#p35926318cc)">
     <use xlink:href="#C4_0_1444573b9b" x="452.319912" y="346.728765" style="fill: #cc7af4"/>
    </g>
    <g clip-path="url(#p35926318cc)">
     <use xlink:href="#C4_0_1444573b9b" x="478.671677" y="354.972461" style="fill: #cc7af4"/>
    </g>
    <g clip-path="url(#p35926318cc)">
     <use xlink:href="#C4_0_1444573b9b" x="501.139266" y="355.194546" style="fill: #cc7af4"/>
    </g>
    <g clip-path="url(#p35926318cc)">
     <use xlink:href="#C4_0_1444573b9b" x="403.424818" y="347.097906" style="fill: #cc7af4"/>
    </g>
    <g clip-path="url(#p35926318cc)">
     <use xlink:href="#C4_0_1444573b9b" x="430.337343" y="355.992815" style="fill: #cc7af4"/>
    </g>
    <g clip-path="url(#p35926318cc)">
     <use xlink:href="#C4_0_1444573b9b" x="309.621981" y="356.558272" style="fill: #cc7af4"/>
    </g>
    <g clip-path="url(#p35926318cc)">
     <use xlink:href="#C4_0_1444573b9b" x="255.2566" y="356.371851" style="fill: #cc7af4"/>
    </g>
    <g clip-path="url(#p35926318cc)">
     <use xlink:href="#C4_0_1444573b9b" x="181.618954" y="351.581148" style="fill: #cc7af4"/>
    </g>
    <g clip-path="url(#p35926318cc)">
     <use xlink:href="#C4_0_1444573b9b" x="205.616991" y="347.963094" style="fill: #cc7af4"/>
    </g>
    <g clip-path="url(#p35926318cc)">
     <use xlink:href="#C4_0_1444573b9b" x="306.997252" y="349.847202" style="fill: #cc7af4"/>
    </g>
    <g clip-path="url(#p35926318cc)">
     <use xlink:href="#C4_0_1444573b9b" x="300.279412" y="352.14005" style="fill: #cc7af4"/>
    </g>
    <g clip-path="url(#p35926318cc)">
     <use xlink:href="#C4_0_1444573b9b" x="326.938848" y="353.043587" style="fill: #cc7af4"/>
    </g>
    <g clip-path="url(#p35926318cc)">
     <use xlink:href="#C4_0_1444573b9b" x="233.6377" y="351.979812" style="fill: #cc7af4"/>
    </g>
    <g clip-path="url(#p35926318cc)">
     <use xlink:href="#C4_0_1444573b9b" x="225.390722" y="347.20911" style="fill: #cc7af4"/>
    </g>
    <g clip-path="url(#p35926318cc)">
     <use xlink:href="#C4_0_1444573b9b" x="217.364922" y="348.955926" style="fill: #cc7af4"/>
    </g>
   </g>
   <g id="PolyCollection_1">
    <defs>
     <path id="md0ca0ce34c" d="M 240.641147 -385.560578 
L 240.641147 -392.265855 
L 244.699262 -392.505818 
L 248.757376 -392.620581 
L 252.815491 -392.642505 
L 256.873605 -392.617897 
L 260.93172 -392.600554 
L 264.989834 -392.644834 
L 269.047948 -392.799675 
L 273.106063 -393.104438 
L 277.164177 -393.586769 
L 281.222292 -394.261983 
L 285.280406 -395.133163 
L 289.338521 -396.191155 
L 293.396635 -397.414105 
L 297.454749 -398.766761 
L 301.512864 -400.200272 
L 305.570978 -401.653487 
L 309.629093 -403.056563 
L 313.687207 -404.337133 
L 317.745322 -405.428491 
L 321.803436 -406.278487 
L 325.86155 -406.857283 
L 329.919665 -407.162123 
L 333.977779 -407.217715 
L 338.035894 -407.071781 
L 342.094008 -406.78641 
L 346.152123 -406.426962 
L 350.210237 -406.050854 
L 354.268352 -405.698713 
L 358.326466 -405.389775 
L 362.38458 -405.122411 
L 366.442695 -404.879361 
L 370.500809 -404.636073 
L 374.558924 -404.369854 
L 378.617038 -404.067379 
L 382.675153 -403.728719 
L 386.733267 -403.36709 
L 390.791381 -403.004779 
L 394.849496 -402.666773 
L 398.90761 -402.374122 
L 402.965725 -402.138974 
L 407.023839 -401.962505 
L 411.081954 -401.835891 
L 415.140068 -401.743508 
L 419.198182 -401.666898 
L 423.256297 -401.588022 
L 427.314411 -401.490791 
L 431.372526 -401.360737 
L 435.43064 -401.183455 
L 439.488755 -400.942929 
L 443.546869 -400.620903 
L 447.604983 -400.197933 
L 451.663098 -399.656127 
L 455.721212 -398.982911 
L 459.779327 -398.174754 
L 463.837441 -397.239853 
L 467.895556 -396.199037 
L 471.95367 -395.084705 
L 476.011784 -393.938041 
L 480.069899 -392.805094 
L 484.128013 -391.732394 
L 488.186128 -390.762694 
L 492.244242 -389.931269 
L 496.302357 -389.263047 
L 500.360471 -388.770703 
L 504.418586 -388.453838 
L 508.4767 -388.299323 
L 512.534814 -388.282892 
L 516.592929 -388.371982 
L 520.651043 -388.529648 
L 524.709158 -388.719176 
L 528.767272 -388.908762 
L 532.825387 -389.075499 
L 536.883501 -389.207918 
L 540.941615 -389.30654 
L 544.99973 -389.382323 
L 549.057844 -389.453358 
L 553.115959 -389.54057 
L 557.174073 -389.663444 
L 561.232188 -389.836647 
L 565.290302 -390.068136 
L 569.348416 -390.358806 
L 573.406531 -390.703303 
L 577.464645 -391.091337 
L 581.52276 -391.508891 
L 585.580874 -391.938988 
L 589.638989 -392.362096 
L 593.697103 -392.756543 
L 597.755217 -393.09943 
L 601.813332 -393.368314 
L 605.871446 -393.543558 
L 609.929561 -393.610835 
L 613.987675 -393.563071 
L 618.04579 -393.401191 
L 622.103904 -393.13341 
L 626.162019 -392.77328 
L 630.220133 -392.337137 
L 634.278247 -391.84173 
L 638.336362 -391.302686 
L 642.394476 -390.734051 
L 642.394476 -385.560578 
L 642.394476 -385.560578 
L 638.336362 -385.560578 
L 634.278247 -385.560578 
L 630.220133 -385.560578 
L 626.162019 -385.560578 
L 622.103904 -385.560578 
L 618.04579 -385.560578 
L 613.987675 -385.560578 
L 609.929561 -385.560578 
L 605.871446 -385.560578 
L 601.813332 -385.560578 
L 597.755217 -385.560578 
L 593.697103 -385.560578 
L 589.638989 -385.560578 
L 585.580874 -385.560578 
L 581.52276 -385.560578 
L 577.464645 -385.560578 
L 573.406531 -385.560578 
L 569.348416 -385.560578 
L 565.290302 -385.560578 
L 561.232188 -385.560578 
L 557.174073 -385.560578 
L 553.115959 -385.560578 
L 549.057844 -385.560578 
L 544.99973 -385.560578 
L 540.941615 -385.560578 
L 536.883501 -385.560578 
L 532.825387 -385.560578 
L 528.767272 -385.560578 
L 524.709158 -385.560578 
L 520.651043 -385.560578 
L 516.592929 -385.560578 
L 512.534814 -385.560578 
L 508.4767 -385.560578 
L 504.418586 -385.560578 
L 500.360471 -385.560578 
L 496.302357 -385.560578 
L 492.244242 -385.560578 
L 488.186128 -385.560578 
L 484.128013 -385.560578 
L 480.069899 -385.560578 
L 476.011784 -385.560578 
L 471.95367 -385.560578 
L 467.895556 -385.560578 
L 463.837441 -385.560578 
L 459.779327 -385.560578 
L 455.721212 -385.560578 
L 451.663098 -385.560578 
L 447.604983 -385.560578 
L 443.546869 -385.560578 
L 439.488755 -385.560578 
L 435.43064 -385.560578 
L 431.372526 -385.560578 
L 427.314411 -385.560578 
L 423.256297 -385.560578 
L 419.198182 -385.560578 
L 415.140068 -385.560578 
L 411.081954 -385.560578 
L 407.023839 -385.560578 
L 402.965725 -385.560578 
L 398.90761 -385.560578 
L 394.849496 -385.560578 
L 390.791381 -385.560578 
L 386.733267 -385.560578 
L 382.675153 -385.560578 
L 378.617038 -385.560578 
L 374.558924 -385.560578 
L 370.500809 -385.560578 
L 366.442695 -385.560578 
L 362.38458 -385.560578 
L 358.326466 -385.560578 
L 354.268352 -385.560578 
L 350.210237 -385.560578 
L 346.152123 -385.560578 
L 342.094008 -385.560578 
L 338.035894 -385.560578 
L 333.977779 -385.560578 
L 329.919665 -385.560578 
L 325.86155 -385.560578 
L 321.803436 -385.560578 
L 317.745322 -385.560578 
L 313.687207 -385.560578 
L 309.629093 -385.560578 
L 305.570978 -385.560578 
L 301.512864 -385.560578 
L 297.454749 -385.560578 
L 293.396635 -385.560578 
L 289.338521 -385.560578 
L 285.280406 -385.560578 
L 281.222292 -385.560578 
L 277.164177 -385.560578 
L 273.106063 -385.560578 
L 269.047948 -385.560578 
L 264.989834 -385.560578 
L 260.93172 -385.560578 
L 256.873605 -385.560578 
L 252.815491 -385.560578 
L 248.757376 -385.560578 
L 244.699262 -385.560578 
L 240.641147 -385.560578 
z
" style="stroke: #434343; stroke-opacity: 0.65"/>
    </defs>
    <g clip-path="url(#p35926318cc)">
     <use xlink:href="#md0ca0ce34c" x="0" y="432" style="fill: #e68193; fill-opacity: 0.65; stroke: #434343; stroke-opacity: 0.65"/>
    </g>
   </g>
   <g id="PolyCollection_2">
    <defs>
     <path id="m3f8b23e1db" d="M 144.806529 -312.454072 
L 144.806529 -316.152735 
L 149.226371 -316.459348 
L 153.646213 -316.753858 
L 158.066054 -317.049711 
L 162.485896 -317.36427 
L 166.905738 -317.716778 
L 171.32558 -318.126173 
L 175.745422 -318.609009 
L 180.165263 -319.177613 
L 184.585105 -319.83853 
L 189.004947 -320.591333 
L 193.424789 -321.427912 
L 197.84463 -322.332452 
L 202.264472 -323.282328 
L 206.684314 -324.250035 
L 211.104156 -325.206085 
L 215.523997 -326.122496 
L 219.943839 -326.976291 
L 224.363681 -327.752298 
L 228.783523 -328.444637 
L 233.203364 -329.056563 
L 237.623206 -329.598724 
L 242.043048 -330.086285 
L 246.46289 -330.535575 
L 250.882732 -330.960962 
L 255.302573 -331.372419 
L 259.722415 -331.773954 
L 264.142257 -332.162751 
L 268.562099 -332.528769 
L 272.98194 -332.854623 
L 277.401782 -333.115796 
L 281.821624 -333.281527 
L 286.241466 -333.316769 
L 290.661307 -333.1855 
L 295.081149 -332.855227 
L 299.500991 -332.302064 
L 303.920833 -331.515377 
L 308.340674 -330.500896 
L 312.760516 -329.281477 
L 317.180358 -327.895238 
L 321.6002 -326.39145 
L 326.020042 -324.82508 
L 330.439883 -323.251134 
L 334.859725 -321.71984 
L 339.279567 -320.273378 
L 343.699409 -318.944397 
L 348.11925 -317.756137 
L 352.539092 -316.723746 
L 356.958934 -315.856279 
L 361.378776 -315.158933 
L 365.798617 -314.635178 
L 370.218459 -314.288561 
L 374.638301 -314.123948 
L 379.058143 -314.148021 
L 383.477984 -314.368811 
L 387.897826 -314.794119 
L 392.317668 -315.428816 
L 396.73751 -316.271266 
L 401.157352 -317.309369 
L 405.577193 -318.517009 
L 409.997035 -319.851799 
L 414.416877 -321.254993 
L 418.836719 -322.65413 
L 423.25656 -323.968542 
L 427.676402 -325.117213 
L 432.096244 -326.027963 
L 436.516086 -326.646476 
L 440.935927 -326.943576 
L 445.355769 -326.91935 
L 449.775611 -326.603236 
L 454.195453 -326.049911 
L 458.615295 -325.331596 
L 463.035136 -324.528075 
L 467.454978 -323.716132 
L 471.87482 -322.96022 
L 476.294662 -322.305865 
L 480.714503 -321.776738 
L 485.134345 -321.375583 
L 489.554187 -321.088364 
L 493.974029 -320.890414 
L 498.39387 -320.753043 
L 502.813712 -320.649153 
L 507.233554 -320.556871 
L 511.653396 -320.460832 
L 516.073237 -320.351484 
L 520.493079 -320.223247 
L 524.912921 -320.072522 
L 529.332763 -319.896378 
L 533.752605 -319.692271 
L 538.172446 -319.458663 
L 542.592288 -319.195992 
L 547.01213 -318.907337 
L 551.431972 -318.598297 
L 555.851813 -318.275925 
L 560.271655 -317.947033 
L 564.691497 -317.616433 
L 569.111339 -317.285749 
L 573.53118 -316.953261 
L 577.951022 -316.614876 
L 582.370864 -316.265941 
L 582.370864 -312.454072 
L 582.370864 -312.454072 
L 577.951022 -312.454072 
L 573.53118 -312.454072 
L 569.111339 -312.454072 
L 564.691497 -312.454072 
L 560.271655 -312.454072 
L 555.851813 -312.454072 
L 551.431972 -312.454072 
L 547.01213 -312.454072 
L 542.592288 -312.454072 
L 538.172446 -312.454072 
L 533.752605 -312.454072 
L 529.332763 -312.454072 
L 524.912921 -312.454072 
L 520.493079 -312.454072 
L 516.073237 -312.454072 
L 511.653396 -312.454072 
L 507.233554 -312.454072 
L 502.813712 -312.454072 
L 498.39387 -312.454072 
L 493.974029 -312.454072 
L 489.554187 -312.454072 
L 485.134345 -312.454072 
L 480.714503 -312.454072 
L 476.294662 -312.454072 
L 471.87482 -312.454072 
L 467.454978 -312.454072 
L 463.035136 -312.454072 
L 458.615295 -312.454072 
L 454.195453 -312.454072 
L 449.775611 -312.454072 
L 445.355769 -312.454072 
L 440.935927 -312.454072 
L 436.516086 -312.454072 
L 432.096244 -312.454072 
L 427.676402 -312.454072 
L 423.25656 -312.454072 
L 418.836719 -312.454072 
L 414.416877 -312.454072 
L 409.997035 -312.454072 
L 405.577193 -312.454072 
L 401.157352 -312.454072 
L 396.73751 -312.454072 
L 392.317668 -312.454072 
L 387.897826 -312.454072 
L 383.477984 -312.454072 
L 379.058143 -312.454072 
L 374.638301 -312.454072 
L 370.218459 -312.454072 
L 365.798617 -312.454072 
L 361.378776 -312.454072 
L 356.958934 -312.454072 
L 352.539092 -312.454072 
L 348.11925 -312.454072 
L 343.699409 -312.454072 
L 339.279567 -312.454072 
L 334.859725 -312.454072 
L 330.439883 -312.454072 
L 326.020042 -312.454072 
L 321.6002 -312.454072 
L 317.180358 -312.454072 
L 312.760516 -312.454072 
L 308.340674 -312.454072 
L 303.920833 -312.454072 
L 299.500991 -312.454072 
L 295.081149 -312.454072 
L 290.661307 -312.454072 
L 286.241466 -312.454072 
L 281.821624 -312.454072 
L 277.401782 -312.454072 
L 272.98194 -312.454072 
L 268.562099 -312.454072 
L 264.142257 -312.454072 
L 259.722415 -312.454072 
L 255.302573 -312.454072 
L 250.882732 -312.454072 
L 246.46289 -312.454072 
L 242.043048 -312.454072 
L 237.623206 -312.454072 
L 233.203364 -312.454072 
L 228.783523 -312.454072 
L 224.363681 -312.454072 
L 219.943839 -312.454072 
L 215.523997 -312.454072 
L 211.104156 -312.454072 
L 206.684314 -312.454072 
L 202.264472 -312.454072 
L 197.84463 -312.454072 
L 193.424789 -312.454072 
L 189.004947 -312.454072 
L 184.585105 -312.454072 
L 180.165263 -312.454072 
L 175.745422 -312.454072 
L 171.32558 -312.454072 
L 166.905738 -312.454072 
L 162.485896 -312.454072 
L 158.066054 -312.454072 
L 153.646213 -312.454072 
L 149.226371 -312.454072 
L 144.806529 -312.454072 
z
" style="stroke: #434343; stroke-opacity: 0.65"/>
    </defs>
    <g clip-path="url(#p35926318cc)">
     <use xlink:href="#m3f8b23e1db" x="0" y="432" style="fill: #9e9241; fill-opacity: 0.65; stroke: #434343; stroke-opacity: 0.65"/>
    </g>
   </g>
   <g id="PolyCollection_3">
    <defs>
     <path id="m9db4c2876d" d="M 166.418672 -239.347566 
L 166.418672 -247.198848 
L 171.62409 -248.357791 
L 176.829507 -249.437472 
L 182.034925 -250.390371 
L 187.240342 -251.184066 
L 192.44576 -251.807819 
L 197.651177 -252.275984 
L 202.856594 -252.626901 
L 208.062012 -252.916706 
L 213.267429 -253.208664 
L 218.472847 -253.559781 
L 223.678264 -254.007397 
L 228.883682 -254.558819 
L 234.089099 -255.186727 
L 239.294517 -255.831994 
L 244.499934 -256.413964 
L 249.705351 -256.846365 
L 254.910769 -257.055489 
L 260.116186 -256.996402 
L 265.321604 -256.663155 
L 270.527021 -256.090325 
L 275.732439 -255.345337 
L 280.937856 -254.513445 
L 286.143274 -253.67912 
L 291.348691 -252.908488 
L 296.554109 -252.237008 
L 301.759526 -251.665054 
L 306.964943 -251.161897 
L 312.170361 -250.676476 
L 317.375778 -250.15186 
L 322.581196 -249.539762 
L 327.786613 -248.811916 
L 332.992031 -247.966312 
L 338.197448 -247.027756 
L 343.402866 -246.043634 
L 348.608283 -245.076606 
L 353.813701 -244.196292 
L 359.019118 -243.471645 
L 364.224535 -242.965007 
L 369.429953 -242.728028 
L 374.63537 -242.798896 
L 379.840788 -243.200044 
L 385.046205 -243.935612 
L 390.251623 -244.988424 
L 395.45704 -246.31701 
L 400.662458 -247.853838 
L 405.867875 -249.506339 
L 411.073292 -251.16212 
L 416.27871 -252.699022 
L 421.484127 -253.999413 
L 426.689545 -254.966619 
L 431.894962 -255.540251 
L 437.10038 -255.7067 
L 442.305797 -255.501678 
L 447.511215 -255.003367 
L 452.716632 -254.31705 
L 457.92205 -253.55446 
L 463.127467 -252.812617 
L 468.332884 -252.157198 
L 473.538302 -251.614219 
L 478.743719 -251.171503 
L 483.949137 -250.788702 
L 489.154554 -250.412462 
L 494.359972 -249.992253 
L 499.565389 -249.492748 
L 504.770807 -248.900108 
L 509.976224 -248.221622 
L 515.181642 -247.480071 
L 520.387059 -246.705451 
L 525.592476 -245.926924 
L 530.797894 -245.16724 
L 536.003311 -244.440609 
L 541.208729 -243.753763 
L 546.414146 -243.108934 
L 551.619564 -242.507197 
L 556.824981 -241.950848 
L 562.030399 -241.444189 
L 567.235816 -240.992786 
L 572.441234 -240.601839 
L 577.646651 -240.274484 
L 582.852068 -240.010687 
L 588.057486 -239.807064 
L 593.262903 -239.6576 
L 598.468321 -239.554956 
L 603.673738 -239.491986 
L 608.879156 -239.463093 
L 614.084573 -239.465186 
L 619.289991 -239.498061 
L 624.495408 -239.564164 
L 629.700825 -239.667673 
L 634.906243 -239.812975 
L 640.11166 -240.002657 
L 645.317078 -240.235319 
L 650.522495 -240.503687 
L 655.727913 -240.793565 
L 660.93333 -241.084158 
L 666.138748 -241.350027 
L 671.344165 -241.564522 
L 676.549583 -241.704099 
L 681.755 -241.75255 
L 681.755 -239.347566 
L 681.755 -239.347566 
L 676.549583 -239.347566 
L 671.344165 -239.347566 
L 666.138748 -239.347566 
L 660.93333 -239.347566 
L 655.727913 -239.347566 
L 650.522495 -239.347566 
L 645.317078 -239.347566 
L 640.11166 -239.347566 
L 634.906243 -239.347566 
L 629.700825 -239.347566 
L 624.495408 -239.347566 
L 619.289991 -239.347566 
L 614.084573 -239.347566 
L 608.879156 -239.347566 
L 603.673738 -239.347566 
L 598.468321 -239.347566 
L 593.262903 -239.347566 
L 588.057486 -239.347566 
L 582.852068 -239.347566 
L 577.646651 -239.347566 
L 572.441234 -239.347566 
L 567.235816 -239.347566 
L 562.030399 -239.347566 
L 556.824981 -239.347566 
L 551.619564 -239.347566 
L 546.414146 -239.347566 
L 541.208729 -239.347566 
L 536.003311 -239.347566 
L 530.797894 -239.347566 
L 525.592476 -239.347566 
L 520.387059 -239.347566 
L 515.181642 -239.347566 
L 509.976224 -239.347566 
L 504.770807 -239.347566 
L 499.565389 -239.347566 
L 494.359972 -239.347566 
L 489.154554 -239.347566 
L 483.949137 -239.347566 
L 478.743719 -239.347566 
L 473.538302 -239.347566 
L 468.332884 -239.347566 
L 463.127467 -239.347566 
L 457.92205 -239.347566 
L 452.716632 -239.347566 
L 447.511215 -239.347566 
L 442.305797 -239.347566 
L 437.10038 -239.347566 
L 431.894962 -239.347566 
L 426.689545 -239.347566 
L 421.484127 -239.347566 
L 416.27871 -239.347566 
L 411.073292 -239.347566 
L 405.867875 -239.347566 
L 400.662458 -239.347566 
L 395.45704 -239.347566 
L 390.251623 -239.347566 
L 385.046205 -239.347566 
L 379.840788 -239.347566 
L 374.63537 -239.347566 
L 369.429953 -239.347566 
L 364.224535 -239.347566 
L 359.019118 -239.347566 
L 353.813701 -239.347566 
L 348.608283 -239.347566 
L 343.402866 -239.347566 
L 338.197448 -239.347566 
L 332.992031 -239.347566 
L 327.786613 -239.347566 
L 322.581196 -239.347566 
L 317.375778 -239.347566 
L 312.170361 -239.347566 
L 306.964943 -239.347566 
L 301.759526 -239.347566 
L 296.554109 -239.347566 
L 291.348691 -239.347566 
L 286.143274 -239.347566 
L 280.937856 -239.347566 
L 275.732439 -239.347566 
L 270.527021 -239.347566 
L 265.321604 -239.347566 
L 260.116186 -239.347566 
L 254.910769 -239.347566 
L 249.705351 -239.347566 
L 244.499934 -239.347566 
L 239.294517 -239.347566 
L 234.089099 -239.347566 
L 228.883682 -239.347566 
L 223.678264 -239.347566 
L 218.472847 -239.347566 
L 213.267429 -239.347566 
L 208.062012 -239.347566 
L 202.856594 -239.347566 
L 197.651177 -239.347566 
L 192.44576 -239.347566 
L 187.240342 -239.347566 
L 182.034925 -239.347566 
L 176.829507 -239.347566 
L 171.62409 -239.347566 
L 166.418672 -239.347566 
z
" style="stroke: #434343; stroke-opacity: 0.65"/>
    </defs>
    <g clip-path="url(#p35926318cc)">
     <use xlink:href="#m9db4c2876d" x="0" y="432" style="fill: #43a178; fill-opacity: 0.65; stroke: #434343; stroke-opacity: 0.65"/>
    </g>
   </g>
   <g id="PolyCollection_4">
    <defs>
     <path id="m9faeffc967" d="M 132.855 -166.24106 
L 132.855 -172.96803 
L 137.976522 -173.589455 
L 143.098045 -174.146195 
L 148.219567 -174.660381 
L 153.34109 -175.171772 
L 158.462612 -175.732046 
L 163.584135 -176.395819 
L 168.705657 -177.209976 
L 173.827179 -178.203349 
L 178.948702 -179.378849 
L 184.070224 -180.709693 
L 189.191747 -182.140548 
L 194.313269 -183.593421 
L 199.434792 -184.977229 
L 204.556314 -186.199322 
L 209.677837 -187.177007 
L 214.799359 -187.847221 
L 219.920881 -188.173012 
L 225.042404 -188.146102 
L 230.163926 -187.785529 
L 235.285449 -187.132976 
L 240.406971 -186.245865 
L 245.528494 -185.189514 
L 250.650016 -184.029661 
L 255.771538 -182.826423 
L 260.893061 -181.630361 
L 266.014583 -180.480848 
L 271.136106 -179.406449 
L 276.257628 -178.426677 
L 281.379151 -177.554291 
L 286.500673 -176.797371 
L 291.622195 -176.160605 
L 296.743718 -175.645595 
L 301.86524 -175.250333 
L 306.986763 -174.968276 
L 312.108285 -174.787553 
L 317.229808 -174.69078 
L 322.35133 -174.655743 
L 327.472852 -174.656951 
L 332.594375 -174.667808 
L 337.715897 -174.662999 
L 342.83742 -174.620674 
L 347.958942 -174.52412 
L 353.080465 -174.362769 
L 358.201987 -174.132596 
L 363.32351 -173.836036 
L 368.445032 -173.481621 
L 373.566554 -173.083419 
L 378.688077 -172.66031 
L 383.809599 -172.234994 
L 388.931122 -171.83267 
L 394.052644 -171.47937 
L 399.174167 -171.200041 
L 404.295689 -171.016616 
L 409.417211 -170.946303 
L 414.538734 -171.000299 
L 419.660256 -171.182969 
L 424.781779 -171.491412 
L 429.903301 -171.915253 
L 435.024824 -172.436557 
L 440.146346 -173.029907 
L 445.267868 -173.66287 
L 450.389391 -174.297177 
L 455.510913 -174.890878 
L 460.632436 -175.401516 
L 465.753958 -175.790031 
L 470.875481 -176.024772 
L 475.997003 -176.084886 
L 481.118525 -175.962368 
L 486.240048 -175.662377 
L 491.36157 -175.201847 
L 496.483093 -174.606766 
L 501.604615 -173.908802 
L 506.726138 -173.141953 
L 511.84766 -172.339754 
L 516.969183 -171.533325 
L 522.090705 -170.750246 
L 527.212227 -170.014093 
L 532.33375 -169.344369 
L 537.455272 -168.756638 
L 542.576795 -168.262708 
L 547.698317 -167.870832 
L 552.81984 -167.585894 
L 557.941362 -167.409569 
L 563.062884 -167.340417 
L 568.184407 -167.373862 
L 573.305929 -167.502054 
L 578.427452 -167.713669 
L 583.548974 -167.993775 
L 588.670497 -168.323927 
L 593.792019 -168.682635 
L 598.913541 -169.046297 
L 604.035064 -169.390541 
L 609.156586 -169.691877 
L 614.278109 -169.929425 
L 619.399631 -170.08652 
L 624.521154 -170.152008 
L 629.642676 -170.121086 
L 634.764198 -169.99561 
L 639.885721 -169.78385 
L 639.885721 -166.24106 
L 639.885721 -166.24106 
L 634.764198 -166.24106 
L 629.642676 -166.24106 
L 624.521154 -166.24106 
L 619.399631 -166.24106 
L 614.278109 -166.24106 
L 609.156586 -166.24106 
L 604.035064 -166.24106 
L 598.913541 -166.24106 
L 593.792019 -166.24106 
L 588.670497 -166.24106 
L 583.548974 -166.24106 
L 578.427452 -166.24106 
L 573.305929 -166.24106 
L 568.184407 -166.24106 
L 563.062884 -166.24106 
L 557.941362 -166.24106 
L 552.81984 -166.24106 
L 547.698317 -166.24106 
L 542.576795 -166.24106 
L 537.455272 -166.24106 
L 532.33375 -166.24106 
L 527.212227 -166.24106 
L 522.090705 -166.24106 
L 516.969183 -166.24106 
L 511.84766 -166.24106 
L 506.726138 -166.24106 
L 501.604615 -166.24106 
L 496.483093 -166.24106 
L 491.36157 -166.24106 
L 486.240048 -166.24106 
L 481.118525 -166.24106 
L 475.997003 -166.24106 
L 470.875481 -166.24106 
L 465.753958 -166.24106 
L 460.632436 -166.24106 
L 455.510913 -166.24106 
L 450.389391 -166.24106 
L 445.267868 -166.24106 
L 440.146346 -166.24106 
L 435.024824 -166.24106 
L 429.903301 -166.24106 
L 424.781779 -166.24106 
L 419.660256 -166.24106 
L 414.538734 -166.24106 
L 409.417211 -166.24106 
L 404.295689 -166.24106 
L 399.174167 -166.24106 
L 394.052644 -166.24106 
L 388.931122 -166.24106 
L 383.809599 -166.24106 
L 378.688077 -166.24106 
L 373.566554 -166.24106 
L 368.445032 -166.24106 
L 363.32351 -166.24106 
L 358.201987 -166.24106 
L 353.080465 -166.24106 
L 347.958942 -166.24106 
L 342.83742 -166.24106 
L 337.715897 -166.24106 
L 332.594375 -166.24106 
L 327.472852 -166.24106 
L 322.35133 -166.24106 
L 317.229808 -166.24106 
L 312.108285 -166.24106 
L 306.986763 -166.24106 
L 301.86524 -166.24106 
L 296.743718 -166.24106 
L 291.622195 -166.24106 
L 286.500673 -166.24106 
L 281.379151 -166.24106 
L 276.257628 -166.24106 
L 271.136106 -166.24106 
L 266.014583 -166.24106 
L 260.893061 -166.24106 
L 255.771538 -166.24106 
L 250.650016 -166.24106 
L 245.528494 -166.24106 
L 240.406971 -166.24106 
L 235.285449 -166.24106 
L 230.163926 -166.24106 
L 225.042404 -166.24106 
L 219.920881 -166.24106 
L 214.799359 -166.24106 
L 209.677837 -166.24106 
L 204.556314 -166.24106 
L 199.434792 -166.24106 
L 194.313269 -166.24106 
L 189.191747 -166.24106 
L 184.070224 -166.24106 
L 178.948702 -166.24106 
L 173.827179 -166.24106 
L 168.705657 -166.24106 
L 163.584135 -166.24106 
L 158.462612 -166.24106 
L 153.34109 -166.24106 
L 148.219567 -166.24106 
L 143.098045 -166.24106 
L 137.976522 -166.24106 
L 132.855 -166.24106 
z
" style="stroke: #434343; stroke-opacity: 0.65"/>
    </defs>
    <g clip-path="url(#p35926318cc)">
     <use xlink:href="#m9faeffc967" x="0" y="432" style="fill: #4a9eb4; fill-opacity: 0.65; stroke: #434343; stroke-opacity: 0.65"/>
    </g>
   </g>
   <g id="PolyCollection_5">
    <defs>
     <path id="ma98d73de68" d="M 141.959861 -93.134554 
L 141.959861 -96.655973 
L 145.675664 -96.898127 
L 149.391467 -97.145821 
L 153.107269 -97.420906 
L 156.823072 -97.748881 
L 160.538875 -98.156093 
L 164.254678 -98.666627 
L 167.970481 -99.299271 
L 171.686284 -100.064908 
L 175.402087 -100.964644 
L 179.11789 -101.988832 
L 182.833693 -103.117132 
L 186.549495 -104.319597 
L 190.265298 -105.558717 
L 193.981101 -106.79225 
L 197.696904 -107.976531 
L 201.412707 -109.069874 
L 205.12851 -110.035626 
L 208.844313 -110.844458 
L 212.560116 -111.475609 
L 216.275918 -111.91703 
L 219.991721 -112.164596 
L 223.707524 -112.220795 
L 227.423327 -112.093396 
L 231.13913 -111.794581 
L 234.854933 -111.340813 
L 238.570736 -110.753454 
L 242.286539 -110.059825 
L 246.002342 -109.294163 
L 249.718144 -108.497843 
L 253.433947 -107.718319 
L 257.14975 -107.0065 
L 260.865553 -106.412638 
L 264.581356 -105.981184 
L 268.297159 -105.745391 
L 272.012962 -105.722587 
L 275.728765 -105.911013 
L 279.444568 -106.288898 
L 283.16037 -106.816076 
L 286.876173 -107.438018 
L 290.591976 -108.091739 
L 294.307779 -108.712712 
L 298.023582 -109.241799 
L 301.739385 -109.631186 
L 305.455188 -109.848565 
L 309.170991 -109.879073 
L 312.886794 -109.724906 
L 316.602596 -109.402876 
L 320.318399 -108.940446 
L 324.034202 -108.370972 
L 327.750005 -107.728896 
L 331.465808 -107.045605 
L 335.181611 -106.346484 
L 338.897414 -105.649503 
L 342.613217 -104.965411 
L 346.32902 -104.299361 
L 350.044822 -103.653516 
L 353.760625 -103.030055 
L 357.476428 -102.433837 
L 361.192231 -101.874107 
L 364.908034 -101.36475 
L 368.623837 -100.922968 
L 372.33964 -100.566592 
L 376.055443 -100.310602 
L 379.771246 -100.163644 
L 383.487048 -100.125384 
L 387.202851 -100.185377 
L 390.918654 -100.323773 
L 394.634457 -100.513813 
L 398.35026 -100.725628 
L 402.066063 -100.930601 
L 405.781866 -101.105455 
L 409.497669 -101.235337 
L 413.213472 -101.315429 
L 416.929274 -101.35097 
L 420.645077 -101.355855 
L 424.36088 -101.350267 
L 428.076683 -101.357834 
L 431.792486 -101.402793 
L 435.508289 -101.507488 
L 439.224092 -101.690377 
L 442.939895 -101.96456 
L 446.655698 -102.336742 
L 450.3715 -102.806556 
L 454.087303 -103.366179 
L 457.803106 -104.000263 
L 461.518909 -104.686212 
L 465.234712 -105.394919 
L 468.950515 -106.091985 
L 472.666318 -106.739445 
L 476.382121 -107.29792 
L 480.097924 -107.7291 
L 483.813726 -107.998358 
L 487.529529 -108.077344 
L 491.245332 -107.946314 
L 494.961135 -107.596023 
L 498.676938 -107.02894 
L 502.392741 -106.259624 
L 506.108544 -105.314109 
L 509.824347 -104.228256 
L 509.824347 -93.134554 
L 509.824347 -93.134554 
L 506.108544 -93.134554 
L 502.392741 -93.134554 
L 498.676938 -93.134554 
L 494.961135 -93.134554 
L 491.245332 -93.134554 
L 487.529529 -93.134554 
L 483.813726 -93.134554 
L 480.097924 -93.134554 
L 476.382121 -93.134554 
L 472.666318 -93.134554 
L 468.950515 -93.134554 
L 465.234712 -93.134554 
L 461.518909 -93.134554 
L 457.803106 -93.134554 
L 454.087303 -93.134554 
L 450.3715 -93.134554 
L 446.655698 -93.134554 
L 442.939895 -93.134554 
L 439.224092 -93.134554 
L 435.508289 -93.134554 
L 431.792486 -93.134554 
L 428.076683 -93.134554 
L 424.36088 -93.134554 
L 420.645077 -93.134554 
L 416.929274 -93.134554 
L 413.213472 -93.134554 
L 409.497669 -93.134554 
L 405.781866 -93.134554 
L 402.066063 -93.134554 
L 398.35026 -93.134554 
L 394.634457 -93.134554 
L 390.918654 -93.134554 
L 387.202851 -93.134554 
L 383.487048 -93.134554 
L 379.771246 -93.134554 
L 376.055443 -93.134554 
L 372.33964 -93.134554 
L 368.623837 -93.134554 
L 364.908034 -93.134554 
L 361.192231 -93.134554 
L 357.476428 -93.134554 
L 353.760625 -93.134554 
L 350.044822 -93.134554 
L 346.32902 -93.134554 
L 342.613217 -93.134554 
L 338.897414 -93.134554 
L 335.181611 -93.134554 
L 331.465808 -93.134554 
L 327.750005 -93.134554 
L 324.034202 -93.134554 
L 320.318399 -93.134554 
L 316.602596 -93.134554 
L 312.886794 -93.134554 
L 309.170991 -93.134554 
L 305.455188 -93.134554 
L 301.739385 -93.134554 
L 298.023582 -93.134554 
L 294.307779 -93.134554 
L 290.591976 -93.134554 
L 286.876173 -93.134554 
L 283.16037 -93.134554 
L 279.444568 -93.134554 
L 275.728765 -93.134554 
L 272.012962 -93.134554 
L 268.297159 -93.134554 
L 264.581356 -93.134554 
L 260.865553 -93.134554 
L 257.14975 -93.134554 
L 253.433947 -93.134554 
L 249.718144 -93.134554 
L 246.002342 -93.134554 
L 242.286539 -93.134554 
L 238.570736 -93.134554 
L 234.854933 -93.134554 
L 231.13913 -93.134554 
L 227.423327 -93.134554 
L 223.707524 -93.134554 
L 219.991721 -93.134554 
L 216.275918 -93.134554 
L 212.560116 -93.134554 
L 208.844313 -93.134554 
L 205.12851 -93.134554 
L 201.412707 -93.134554 
L 197.696904 -93.134554 
L 193.981101 -93.134554 
L 190.265298 -93.134554 
L 186.549495 -93.134554 
L 182.833693 -93.134554 
L 179.11789 -93.134554 
L 175.402087 -93.134554 
L 171.686284 -93.134554 
L 167.970481 -93.134554 
L 164.254678 -93.134554 
L 160.538875 -93.134554 
L 156.823072 -93.134554 
L 153.107269 -93.134554 
L 149.391467 -93.134554 
L 145.675664 -93.134554 
L 141.959861 -93.134554 
z
" style="stroke: #434343; stroke-opacity: 0.65"/>
    </defs>
    <g clip-path="url(#p35926318cc)">
     <use xlink:href="#ma98d73de68" x="0" y="432" style="fill: #c789e5; fill-opacity: 0.65; stroke: #434343; stroke-opacity: 0.65"/>
    </g>
   </g>
   <g id="matplotlib.axis_1">
    <g id="xtick_1">
     <g id="line2d_1">
      <defs>
       <path id="m12cb1ae5c8" d="M 0 0 
L 0 3.5 
" style="stroke: #000000; stroke-width: 0.8"/>
      </defs>
      <g>
       <use xlink:href="#m12cb1ae5c8" x="111.484712" y="390.04" style="stroke: #000000; stroke-width: 0.8"/>
      </g>
     </g>
     <g id="text_1">
      <!-- 1 -->
      <g transform="translate(108.303462 404.638438) scale(0.1 -0.1)">
       <defs>
        <path id="DejaVuSans-31" d="M 794 531 
L 1825 531 
L 1825 4091 
L 703 3866 
L 703 4441 
L 1819 4666 
L 2450 4666 
L 2450 531 
L 3481 531 
L 3481 0 
L 794 0 
L 794 531 
z
" transform="scale(0.015625)"/>
       </defs>
       <use xlink:href="#DejaVuSans-31"/>
      </g>
     </g>
    </g>
    <g id="xtick_2">
     <g id="line2d_2">
      <g>
       <use xlink:href="#m12cb1ae5c8" x="224.556738" y="390.04" style="stroke: #000000; stroke-width: 0.8"/>
      </g>
     </g>
     <g id="text_2">
      <!-- 2 -->
      <g transform="translate(221.375488 404.638438) scale(0.1 -0.1)">
       <defs>
        <path id="DejaVuSans-32" d="M 1228 531 
L 3431 531 
L 3431 0 
L 469 0 
L 469 531 
Q 828 903 1448 1529 
Q 2069 2156 2228 2338 
Q 2531 2678 2651 2914 
Q 2772 3150 2772 3378 
Q 2772 3750 2511 3984 
Q 2250 4219 1831 4219 
Q 1534 4219 1204 4116 
Q 875 4013 500 3803 
L 500 4441 
Q 881 4594 1212 4672 
Q 1544 4750 1819 4750 
Q 2544 4750 2975 4387 
Q 3406 4025 3406 3419 
Q 3406 3131 3298 2873 
Q 3191 2616 2906 2266 
Q 2828 2175 2409 1742 
Q 1991 1309 1228 531 
z
" transform="scale(0.015625)"/>
       </defs>
       <use xlink:href="#DejaVuSans-32"/>
      </g>
     </g>
    </g>
    <g id="xtick_3">
     <g id="line2d_3">
      <g>
       <use xlink:href="#m12cb1ae5c8" x="337.628765" y="390.04" style="stroke: #000000; stroke-width: 0.8"/>
      </g>
     </g>
     <g id="text_3">
      <!-- 3 -->
      <g transform="translate(334.447515 404.638438) scale(0.1 -0.1)">
       <defs>
        <path id="DejaVuSans-33" d="M 2597 2516 
Q 3050 2419 3304 2112 
Q 3559 1806 3559 1356 
Q 3559 666 3084 287 
Q 2609 -91 1734 -91 
Q 1441 -91 1130 -33 
Q 819 25 488 141 
L 488 750 
Q 750 597 1062 519 
Q 1375 441 1716 441 
Q 2309 441 2620 675 
Q 2931 909 2931 1356 
Q 2931 1769 2642 2001 
Q 2353 2234 1838 2234 
L 1294 2234 
L 1294 2753 
L 1863 2753 
Q 2328 2753 2575 2939 
Q 2822 3125 2822 3475 
Q 2822 3834 2567 4026 
Q 2313 4219 1838 4219 
Q 1578 4219 1281 4162 
Q 984 4106 628 3988 
L 628 4550 
Q 988 4650 1302 4700 
Q 1616 4750 1894 4750 
Q 2613 4750 3031 4423 
Q 3450 4097 3450 3541 
Q 3450 3153 3228 2886 
Q 3006 2619 2597 2516 
z
" transform="scale(0.015625)"/>
       </defs>
       <use xlink:href="#DejaVuSans-33"/>
      </g>
     </g>
    </g>
    <g id="xtick_4">
     <g id="line2d_4">
      <g>
       <use xlink:href="#m12cb1ae5c8" x="450.700791" y="390.04" style="stroke: #000000; stroke-width: 0.8"/>
      </g>
     </g>
     <g id="text_4">
      <!-- 4 -->
      <g transform="translate(447.519541 404.638438) scale(0.1 -0.1)">
       <defs>
        <path id="DejaVuSans-34" d="M 2419 4116 
L 825 1625 
L 2419 1625 
L 2419 4116 
z
M 2253 4666 
L 3047 4666 
L 3047 1625 
L 3713 1625 
L 3713 1100 
L 3047 1100 
L 3047 0 
L 2419 0 
L 2419 1100 
L 313 1100 
L 313 1709 
L 2253 4666 
z
" transform="scale(0.015625)"/>
       </defs>
       <use xlink:href="#DejaVuSans-34"/>
      </g>
     </g>
    </g>
    <g id="xtick_5">
     <g id="line2d_5">
      <g>
       <use xlink:href="#m12cb1ae5c8" x="563.772817" y="390.04" style="stroke: #000000; stroke-width: 0.8"/>
      </g>
     </g>
     <g id="text_5">
      <!-- 5 -->
      <g transform="translate(560.591567 404.638438) scale(0.1 -0.1)">
       <defs>
        <path id="DejaVuSans-35" d="M 691 4666 
L 3169 4666 
L 3169 4134 
L 1269 4134 
L 1269 2991 
Q 1406 3038 1543 3061 
Q 1681 3084 1819 3084 
Q 2600 3084 3056 2656 
Q 3513 2228 3513 1497 
Q 3513 744 3044 326 
Q 2575 -91 1722 -91 
Q 1428 -91 1123 -41 
Q 819 9 494 109 
L 494 744 
Q 775 591 1075 516 
Q 1375 441 1709 441 
Q 2250 441 2565 725 
Q 2881 1009 2881 1497 
Q 2881 1984 2565 2268 
Q 2250 2553 1709 2553 
Q 1456 2553 1204 2497 
Q 953 2441 691 2322 
L 691 4666 
z
" transform="scale(0.015625)"/>
       </defs>
       <use xlink:href="#DejaVuSans-35"/>
      </g>
     </g>
    </g>
    <g id="xtick_6">
     <g id="line2d_6">
      <g>
       <use xlink:href="#m12cb1ae5c8" x="676.844843" y="390.04" style="stroke: #000000; stroke-width: 0.8"/>
      </g>
     </g>
     <g id="text_6">
      <!-- 6 -->
      <g transform="translate(673.663593 404.638438) scale(0.1 -0.1)">
       <defs>
        <path id="DejaVuSans-36" d="M 2113 2584 
Q 1688 2584 1439 2293 
Q 1191 2003 1191 1497 
Q 1191 994 1439 701 
Q 1688 409 2113 409 
Q 2538 409 2786 701 
Q 3034 994 3034 1497 
Q 3034 2003 2786 2293 
Q 2538 2584 2113 2584 
z
M 3366 4563 
L 3366 3988 
Q 3128 4100 2886 4159 
Q 2644 4219 2406 4219 
Q 1781 4219 1451 3797 
Q 1122 3375 1075 2522 
Q 1259 2794 1537 2939 
Q 1816 3084 2150 3084 
Q 2853 3084 3261 2657 
Q 3669 2231 3669 1497 
Q 3669 778 3244 343 
Q 2819 -91 2113 -91 
Q 1303 -91 875 529 
Q 447 1150 447 2328 
Q 447 3434 972 4092 
Q 1497 4750 2381 4750 
Q 2619 4750 2861 4703 
Q 3103 4656 3366 4563 
z
" transform="scale(0.015625)"/>
       </defs>
       <use xlink:href="#DejaVuSans-36"/>
      </g>
     </g>
    </g>
    <g id="text_7">
     <!-- Concentration -->
     <g transform="translate(371.933906 418.316562) scale(0.1 -0.1)">
      <defs>
       <path id="DejaVuSans-43" d="M 4122 4306 
L 4122 3641 
Q 3803 3938 3442 4084 
Q 3081 4231 2675 4231 
Q 1875 4231 1450 3742 
Q 1025 3253 1025 2328 
Q 1025 1406 1450 917 
Q 1875 428 2675 428 
Q 3081 428 3442 575 
Q 3803 722 4122 1019 
L 4122 359 
Q 3791 134 3420 21 
Q 3050 -91 2638 -91 
Q 1578 -91 968 557 
Q 359 1206 359 2328 
Q 359 3453 968 4101 
Q 1578 4750 2638 4750 
Q 3056 4750 3426 4639 
Q 3797 4528 4122 4306 
z
" transform="scale(0.015625)"/>
       <path id="DejaVuSans-6f" d="M 1959 3097 
Q 1497 3097 1228 2736 
Q 959 2375 959 1747 
Q 959 1119 1226 758 
Q 1494 397 1959 397 
Q 2419 397 2687 759 
Q 2956 1122 2956 1747 
Q 2956 2369 2687 2733 
Q 2419 3097 1959 3097 
z
M 1959 3584 
Q 2709 3584 3137 3096 
Q 3566 2609 3566 1747 
Q 3566 888 3137 398 
Q 2709 -91 1959 -91 
Q 1206 -91 779 398 
Q 353 888 353 1747 
Q 353 2609 779 3096 
Q 1206 3584 1959 3584 
z
" transform="scale(0.015625)"/>
       <path id="DejaVuSans-6e" d="M 3513 2113 
L 3513 0 
L 2938 0 
L 2938 2094 
Q 2938 2591 2744 2837 
Q 2550 3084 2163 3084 
Q 1697 3084 1428 2787 
Q 1159 2491 1159 1978 
L 1159 0 
L 581 0 
L 581 3500 
L 1159 3500 
L 1159 2956 
Q 1366 3272 1645 3428 
Q 1925 3584 2291 3584 
Q 2894 3584 3203 3211 
Q 3513 2838 3513 2113 
z
" transform="scale(0.015625)"/>
       <path id="DejaVuSans-63" d="M 3122 3366 
L 3122 2828 
Q 2878 2963 2633 3030 
Q 2388 3097 2138 3097 
Q 1578 3097 1268 2742 
Q 959 2388 959 1747 
Q 959 1106 1268 751 
Q 1578 397 2138 397 
Q 2388 397 2633 464 
Q 2878 531 3122 666 
L 3122 134 
Q 2881 22 2623 -34 
Q 2366 -91 2075 -91 
Q 1284 -91 818 406 
Q 353 903 353 1747 
Q 353 2603 823 3093 
Q 1294 3584 2113 3584 
Q 2378 3584 2631 3529 
Q 2884 3475 3122 3366 
z
" transform="scale(0.015625)"/>
       <path id="DejaVuSans-65" d="M 3597 1894 
L 3597 1613 
L 953 1613 
Q 991 1019 1311 708 
Q 1631 397 2203 397 
Q 2534 397 2845 478 
Q 3156 559 3463 722 
L 3463 178 
Q 3153 47 2828 -22 
Q 2503 -91 2169 -91 
Q 1331 -91 842 396 
Q 353 884 353 1716 
Q 353 2575 817 3079 
Q 1281 3584 2069 3584 
Q 2775 3584 3186 3129 
Q 3597 2675 3597 1894 
z
M 3022 2063 
Q 3016 2534 2758 2815 
Q 2500 3097 2075 3097 
Q 1594 3097 1305 2825 
Q 1016 2553 972 2059 
L 3022 2063 
z
" transform="scale(0.015625)"/>
       <path id="DejaVuSans-74" d="M 1172 4494 
L 1172 3500 
L 2356 3500 
L 2356 3053 
L 1172 3053 
L 1172 1153 
Q 1172 725 1289 603 
Q 1406 481 1766 481 
L 2356 481 
L 2356 0 
L 1766 0 
Q 1100 0 847 248 
Q 594 497 594 1153 
L 594 3053 
L 172 3053 
L 172 3500 
L 594 3500 
L 594 4494 
L 1172 4494 
z
" transform="scale(0.015625)"/>
       <path id="DejaVuSans-72" d="M 2631 2963 
Q 2534 3019 2420 3045 
Q 2306 3072 2169 3072 
Q 1681 3072 1420 2755 
Q 1159 2438 1159 1844 
L 1159 0 
L 581 0 
L 581 3500 
L 1159 3500 
L 1159 2956 
Q 1341 3275 1631 3429 
Q 1922 3584 2338 3584 
Q 2397 3584 2469 3576 
Q 2541 3569 2628 3553 
L 2631 2963 
z
" transform="scale(0.015625)"/>
       <path id="DejaVuSans-61" d="M 2194 1759 
Q 1497 1759 1228 1600 
Q 959 1441 959 1056 
Q 959 750 1161 570 
Q 1363 391 1709 391 
Q 2188 391 2477 730 
Q 2766 1069 2766 1631 
L 2766 1759 
L 2194 1759 
z
M 3341 1997 
L 3341 0 
L 2766 0 
L 2766 531 
Q 2569 213 2275 61 
Q 1981 -91 1556 -91 
Q 1019 -91 701 211 
Q 384 513 384 1019 
Q 384 1609 779 1909 
Q 1175 2209 1959 2209 
L 2766 2209 
L 2766 2266 
Q 2766 2663 2505 2880 
Q 2244 3097 1772 3097 
Q 1472 3097 1187 3025 
Q 903 2953 641 2809 
L 641 3341 
Q 956 3463 1253 3523 
Q 1550 3584 1831 3584 
Q 2591 3584 2966 3190 
Q 3341 2797 3341 1997 
z
" transform="scale(0.015625)"/>
       <path id="DejaVuSans-69" d="M 603 3500 
L 1178 3500 
L 1178 0 
L 603 0 
L 603 3500 
z
M 603 4863 
L 1178 4863 
L 1178 4134 
L 603 4134 
L 603 4863 
z
" transform="scale(0.015625)"/>
      </defs>
      <use xlink:href="#DejaVuSans-43"/>
      <use xlink:href="#DejaVuSans-6f" x="69.824219"/>
      <use xlink:href="#DejaVuSans-6e" x="131.005859"/>
      <use xlink:href="#DejaVuSans-63" x="194.384766"/>
      <use xlink:href="#DejaVuSans-65" x="249.365234"/>
      <use xlink:href="#DejaVuSans-6e" x="310.888672"/>
      <use xlink:href="#DejaVuSans-74" x="374.267578"/>
      <use xlink:href="#DejaVuSans-72" x="413.476562"/>
      <use xlink:href="#DejaVuSans-61" x="454.589844"/>
      <use xlink:href="#DejaVuSans-74" x="515.869141"/>
      <use xlink:href="#DejaVuSans-69" x="555.078125"/>
      <use xlink:href="#DejaVuSans-6f" x="582.861328"/>
      <use xlink:href="#DejaVuSans-6e" x="644.042969"/>
     </g>
    </g>
   </g>
   <g id="matplotlib.axis_2">
    <g id="ytick_1">
     <g id="line2d_7">
      <defs>
       <path id="m9a2b1e632c" d="M 0 0 
L -3.5 0 
" style="stroke: #000000; stroke-width: 0.8"/>
      </defs>
      <g>
       <use xlink:href="#m9a2b1e632c" x="105.41" y="61.060723" style="stroke: #000000; stroke-width: 0.8"/>
      </g>
     </g>
     <g id="text_8">
      <!-- Reference -->
      <g transform="translate(48.056875 64.859942) scale(0.1 -0.1)">
       <defs>
        <path id="DejaVuSans-52" d="M 2841 2188 
Q 3044 2119 3236 1894 
Q 3428 1669 3622 1275 
L 4263 0 
L 3584 0 
L 2988 1197 
Q 2756 1666 2539 1819 
Q 2322 1972 1947 1972 
L 1259 1972 
L 1259 0 
L 628 0 
L 628 4666 
L 2053 4666 
Q 2853 4666 3247 4331 
Q 3641 3997 3641 3322 
Q 3641 2881 3436 2590 
Q 3231 2300 2841 2188 
z
M 1259 4147 
L 1259 2491 
L 2053 2491 
Q 2509 2491 2742 2702 
Q 2975 2913 2975 3322 
Q 2975 3731 2742 3939 
Q 2509 4147 2053 4147 
L 1259 4147 
z
" transform="scale(0.015625)"/>
        <path id="DejaVuSans-66" d="M 2375 4863 
L 2375 4384 
L 1825 4384 
Q 1516 4384 1395 4259 
Q 1275 4134 1275 3809 
L 1275 3500 
L 2222 3500 
L 2222 3053 
L 1275 3053 
L 1275 0 
L 697 0 
L 697 3053 
L 147 3053 
L 147 3500 
L 697 3500 
L 697 3744 
Q 697 4328 969 4595 
Q 1241 4863 1831 4863 
L 2375 4863 
z
" transform="scale(0.015625)"/>
       </defs>
       <use xlink:href="#DejaVuSans-52"/>
       <use xlink:href="#DejaVuSans-65" x="64.982422"/>
       <use xlink:href="#DejaVuSans-66" x="126.505859"/>
       <use xlink:href="#DejaVuSans-65" x="161.710938"/>
       <use xlink:href="#DejaVuSans-72" x="223.234375"/>
       <use xlink:href="#DejaVuSans-65" x="262.097656"/>
       <use xlink:href="#DejaVuSans-6e" x="323.621094"/>
       <use xlink:href="#DejaVuSans-63" x="387"/>
       <use xlink:href="#DejaVuSans-65" x="441.980469"/>
      </g>
     </g>
    </g>
    <g id="ytick_2">
     <g id="line2d_8">
      <g>
       <use xlink:href="#m9a2b1e632c" x="105.41" y="134.167229" style="stroke: #000000; stroke-width: 0.8"/>
      </g>
     </g>
     <g id="text_9">
      <!-- 24h 4C +PBS -->
      <g transform="translate(27.489688 137.966448) scale(0.1 -0.1)">
       <defs>
        <path id="DejaVuSans-68" d="M 3513 2113 
L 3513 0 
L 2938 0 
L 2938 2094 
Q 2938 2591 2744 2837 
Q 2550 3084 2163 3084 
Q 1697 3084 1428 2787 
Q 1159 2491 1159 1978 
L 1159 0 
L 581 0 
L 581 4863 
L 1159 4863 
L 1159 2956 
Q 1366 3272 1645 3428 
Q 1925 3584 2291 3584 
Q 2894 3584 3203 3211 
Q 3513 2838 3513 2113 
z
" transform="scale(0.015625)"/>
        <path id="DejaVuSans-20" transform="scale(0.015625)"/>
        <path id="DejaVuSans-ba" d="M 434 1850 
L 2584 1850 
L 2584 1466 
L 434 1466 
L 434 1850 
z
M 1509 4750 
Q 2069 4750 2391 4404 
Q 2713 4059 2713 3463 
Q 2713 2866 2391 2523 
Q 2069 2181 1509 2181 
Q 950 2181 625 2525 
Q 300 2869 300 3463 
Q 300 4059 625 4404 
Q 950 4750 1509 4750 
z
M 1509 4391 
Q 1181 4391 984 4139 
Q 788 3888 788 3463 
Q 788 3047 986 2797 
Q 1184 2547 1509 2547 
Q 1838 2547 2033 2797 
Q 2228 3047 2228 3463 
Q 2228 3891 2034 4141 
Q 1841 4391 1509 4391 
z
" transform="scale(0.015625)"/>
        <path id="DejaVuSans-2b" d="M 2944 4013 
L 2944 2272 
L 4684 2272 
L 4684 1741 
L 2944 1741 
L 2944 0 
L 2419 0 
L 2419 1741 
L 678 1741 
L 678 2272 
L 2419 2272 
L 2419 4013 
L 2944 4013 
z
" transform="scale(0.015625)"/>
        <path id="DejaVuSans-50" d="M 1259 4147 
L 1259 2394 
L 2053 2394 
Q 2494 2394 2734 2622 
Q 2975 2850 2975 3272 
Q 2975 3691 2734 3919 
Q 2494 4147 2053 4147 
L 1259 4147 
z
M 628 4666 
L 2053 4666 
Q 2838 4666 3239 4311 
Q 3641 3956 3641 3272 
Q 3641 2581 3239 2228 
Q 2838 1875 2053 1875 
L 1259 1875 
L 1259 0 
L 628 0 
L 628 4666 
z
" transform="scale(0.015625)"/>
        <path id="DejaVuSans-42" d="M 1259 2228 
L 1259 519 
L 2272 519 
Q 2781 519 3026 730 
Q 3272 941 3272 1375 
Q 3272 1813 3026 2020 
Q 2781 2228 2272 2228 
L 1259 2228 
z
M 1259 4147 
L 1259 2741 
L 2194 2741 
Q 2656 2741 2882 2914 
Q 3109 3088 3109 3444 
Q 3109 3797 2882 3972 
Q 2656 4147 2194 4147 
L 1259 4147 
z
M 628 4666 
L 2241 4666 
Q 2963 4666 3353 4366 
Q 3744 4066 3744 3513 
Q 3744 3084 3544 2831 
Q 3344 2578 2956 2516 
Q 3422 2416 3680 2098 
Q 3938 1781 3938 1306 
Q 3938 681 3513 340 
Q 3088 0 2303 0 
L 628 0 
L 628 4666 
z
" transform="scale(0.015625)"/>
        <path id="DejaVuSans-53" d="M 3425 4513 
L 3425 3897 
Q 3066 4069 2747 4153 
Q 2428 4238 2131 4238 
Q 1616 4238 1336 4038 
Q 1056 3838 1056 3469 
Q 1056 3159 1242 3001 
Q 1428 2844 1947 2747 
L 2328 2669 
Q 3034 2534 3370 2195 
Q 3706 1856 3706 1288 
Q 3706 609 3251 259 
Q 2797 -91 1919 -91 
Q 1588 -91 1214 -16 
Q 841 59 441 206 
L 441 856 
Q 825 641 1194 531 
Q 1563 422 1919 422 
Q 2459 422 2753 634 
Q 3047 847 3047 1241 
Q 3047 1584 2836 1778 
Q 2625 1972 2144 2069 
L 1759 2144 
Q 1053 2284 737 2584 
Q 422 2884 422 3419 
Q 422 4038 858 4394 
Q 1294 4750 2059 4750 
Q 2388 4750 2728 4690 
Q 3069 4631 3425 4513 
z
" transform="scale(0.015625)"/>
       </defs>
       <use xlink:href="#DejaVuSans-32"/>
       <use xlink:href="#DejaVuSans-34" x="63.623047"/>
       <use xlink:href="#DejaVuSans-68" x="127.246094"/>
       <use xlink:href="#DejaVuSans-20" x="190.625"/>
       <use xlink:href="#DejaVuSans-34" x="222.412109"/>
       <use xlink:href="#DejaVuSans-ba" x="286.035156"/>
       <use xlink:href="#DejaVuSans-43" x="333.154297"/>
       <use xlink:href="#DejaVuSans-20" x="402.978516"/>
       <use xlink:href="#DejaVuSans-2b" x="434.765625"/>
       <use xlink:href="#DejaVuSans-50" x="518.554688"/>
       <use xlink:href="#DejaVuSans-42" x="578.857422"/>
       <use xlink:href="#DejaVuSans-53" x="645.710938"/>
      </g>
     </g>
    </g>
    <g id="ytick_3">
     <g id="line2d_9">
      <g>
       <use xlink:href="#m9a2b1e632c" x="105.41" y="207.273735" style="stroke: #000000; stroke-width: 0.8"/>
      </g>
     </g>
     <g id="text_10">
      <!-- 72h 4C +PBS -->
      <g transform="translate(27.489688 211.072954) scale(0.1 -0.1)">
       <defs>
        <path id="DejaVuSans-37" d="M 525 4666 
L 3525 4666 
L 3525 4397 
L 1831 0 
L 1172 0 
L 2766 4134 
L 525 4134 
L 525 4666 
z
" transform="scale(0.015625)"/>
       </defs>
       <use xlink:href="#DejaVuSans-37"/>
       <use xlink:href="#DejaVuSans-32" x="63.623047"/>
       <use xlink:href="#DejaVuSans-68" x="127.246094"/>
       <use xlink:href="#DejaVuSans-20" x="190.625"/>
       <use xlink:href="#DejaVuSans-34" x="222.412109"/>
       <use xlink:href="#DejaVuSans-ba" x="286.035156"/>
       <use xlink:href="#DejaVuSans-43" x="333.154297"/>
       <use xlink:href="#DejaVuSans-20" x="402.978516"/>
       <use xlink:href="#DejaVuSans-2b" x="434.765625"/>
       <use xlink:href="#DejaVuSans-50" x="518.554688"/>
       <use xlink:href="#DejaVuSans-42" x="578.857422"/>
       <use xlink:href="#DejaVuSans-53" x="645.710938"/>
      </g>
     </g>
    </g>
    <g id="ytick_4">
     <g id="line2d_10">
      <g>
       <use xlink:href="#m9a2b1e632c" x="105.41" y="280.380241" style="stroke: #000000; stroke-width: 0.8"/>
      </g>
     </g>
     <g id="text_11">
      <!-- 24h 4C -PBS -->
      <g transform="translate(32.261563 284.17946) scale(0.1 -0.1)">
       <defs>
        <path id="DejaVuSans-2d" d="M 313 2009 
L 1997 2009 
L 1997 1497 
L 313 1497 
L 313 2009 
z
" transform="scale(0.015625)"/>
       </defs>
       <use xlink:href="#DejaVuSans-32"/>
       <use xlink:href="#DejaVuSans-34" x="63.623047"/>
       <use xlink:href="#DejaVuSans-68" x="127.246094"/>
       <use xlink:href="#DejaVuSans-20" x="190.625"/>
       <use xlink:href="#DejaVuSans-34" x="222.412109"/>
       <use xlink:href="#DejaVuSans-ba" x="286.035156"/>
       <use xlink:href="#DejaVuSans-43" x="333.154297"/>
       <use xlink:href="#DejaVuSans-20" x="402.978516"/>
       <use xlink:href="#DejaVuSans-2d" x="434.765625"/>
       <use xlink:href="#DejaVuSans-50" x="470.849609"/>
       <use xlink:href="#DejaVuSans-42" x="531.152344"/>
       <use xlink:href="#DejaVuSans-53" x="598.005859"/>
      </g>
     </g>
    </g>
    <g id="ytick_5">
     <g id="line2d_11">
      <g>
       <use xlink:href="#m9a2b1e632c" x="105.41" y="353.486747" style="stroke: #000000; stroke-width: 0.8"/>
      </g>
     </g>
     <g id="text_12">
      <!-- 72h 4C -PBS -->
      <g transform="translate(32.261563 357.285966) scale(0.1 -0.1)">
       <use xlink:href="#DejaVuSans-37"/>
       <use xlink:href="#DejaVuSans-32" x="63.623047"/>
       <use xlink:href="#DejaVuSans-68" x="127.246094"/>
       <use xlink:href="#DejaVuSans-20" x="190.625"/>
       <use xlink:href="#DejaVuSans-34" x="222.412109"/>
       <use xlink:href="#DejaVuSans-ba" x="286.035156"/>
       <use xlink:href="#DejaVuSans-43" x="333.154297"/>
       <use xlink:href="#DejaVuSans-20" x="402.978516"/>
       <use xlink:href="#DejaVuSans-2d" x="434.765625"/>
       <use xlink:href="#DejaVuSans-50" x="470.849609"/>
       <use xlink:href="#DejaVuSans-42" x="531.152344"/>
       <use xlink:href="#DejaVuSans-53" x="598.005859"/>
      </g>
     </g>
    </g>
    <g id="text_13">
     <!-- $log([HSPB1]/[Total Protein])$ -->
     <g transform="translate(21.389688 268.12) rotate(-90) scale(0.1 -0.1)">
      <defs>
       <path id="DejaVuSans-Oblique-6c" d="M 1172 4863 
L 1747 4863 
L 800 0 
L 225 0 
L 1172 4863 
z
" transform="scale(0.015625)"/>
       <path id="DejaVuSans-Oblique-6f" d="M 1625 -91 
Q 1009 -91 651 289 
Q 294 669 294 1325 
Q 294 1706 417 2101 
Q 541 2497 738 2766 
Q 1047 3184 1428 3384 
Q 1809 3584 2291 3584 
Q 2888 3584 3255 3212 
Q 3622 2841 3622 2241 
Q 3622 1825 3500 1412 
Q 3378 1000 3181 728 
Q 2875 309 2494 109 
Q 2113 -91 1625 -91 
z
M 891 1344 
Q 891 869 1089 633 
Q 1288 397 1691 397 
Q 2269 397 2648 901 
Q 3028 1406 3028 2181 
Q 3028 2634 2825 2865 
Q 2622 3097 2228 3097 
Q 1903 3097 1650 2945 
Q 1397 2794 1197 2484 
Q 1050 2253 970 1956 
Q 891 1659 891 1344 
z
" transform="scale(0.015625)"/>
       <path id="DejaVuSans-Oblique-67" d="M 3816 3500 
L 3219 434 
Q 3047 -456 2561 -893 
Q 2075 -1331 1253 -1331 
Q 950 -1331 690 -1286 
Q 431 -1241 206 -1147 
L 313 -588 
Q 525 -725 762 -790 
Q 1000 -856 1269 -856 
Q 1816 -856 2167 -557 
Q 2519 -259 2631 300 
L 2681 563 
Q 2441 288 2122 144 
Q 1803 0 1434 0 
Q 903 0 598 351 
Q 294 703 294 1319 
Q 294 1803 478 2267 
Q 663 2731 997 3091 
Q 1219 3328 1514 3456 
Q 1809 3584 2131 3584 
Q 2484 3584 2746 3420 
Q 3009 3256 3138 2956 
L 3238 3500 
L 3816 3500 
z
M 2950 2216 
Q 2950 2641 2750 2872 
Q 2550 3103 2181 3103 
Q 1953 3103 1747 3012 
Q 1541 2922 1394 2759 
Q 1156 2491 1023 2127 
Q 891 1763 891 1375 
Q 891 944 1092 712 
Q 1294 481 1672 481 
Q 2219 481 2584 976 
Q 2950 1472 2950 2216 
z
" transform="scale(0.015625)"/>
       <path id="DejaVuSans-28" d="M 1984 4856 
Q 1566 4138 1362 3434 
Q 1159 2731 1159 2009 
Q 1159 1288 1364 580 
Q 1569 -128 1984 -844 
L 1484 -844 
Q 1016 -109 783 600 
Q 550 1309 550 2009 
Q 550 2706 781 3412 
Q 1013 4119 1484 4856 
L 1984 4856 
z
" transform="scale(0.015625)"/>
       <path id="DejaVuSans-5b" d="M 550 4863 
L 1875 4863 
L 1875 4416 
L 1125 4416 
L 1125 -397 
L 1875 -397 
L 1875 -844 
L 550 -844 
L 550 4863 
z
" transform="scale(0.015625)"/>
       <path id="DejaVuSans-Oblique-48" d="M 1081 4666 
L 1716 4666 
L 1344 2753 
L 3634 2753 
L 4006 4666 
L 4641 4666 
L 3731 0 
L 3097 0 
L 3531 2222 
L 1241 2222 
L 806 0 
L 172 0 
L 1081 4666 
z
" transform="scale(0.015625)"/>
       <path id="DejaVuSans-Oblique-53" d="M 3859 4513 
L 3738 3897 
Q 3422 4066 3111 4152 
Q 2800 4238 2509 4238 
Q 1944 4238 1609 3991 
Q 1275 3744 1275 3334 
Q 1275 3109 1398 2989 
Q 1522 2869 2034 2731 
L 2413 2638 
Q 3053 2472 3303 2217 
Q 3553 1963 3553 1503 
Q 3553 797 2998 353 
Q 2444 -91 1538 -91 
Q 1166 -91 791 -17 
Q 416 56 38 206 
L 166 856 
Q 513 641 861 531 
Q 1209 422 1556 422 
Q 2147 422 2503 684 
Q 2859 947 2859 1369 
Q 2859 1650 2717 1795 
Q 2575 1941 2106 2059 
L 1728 2156 
Q 1081 2325 845 2545 
Q 609 2766 609 3163 
Q 609 3859 1145 4304 
Q 1681 4750 2541 4750 
Q 2875 4750 3203 4690 
Q 3531 4631 3859 4513 
z
" transform="scale(0.015625)"/>
       <path id="DejaVuSans-Oblique-50" d="M 1081 4666 
L 2541 4666 
Q 3178 4666 3512 4369 
Q 3847 4072 3847 3500 
Q 3847 2731 3353 2303 
Q 2859 1875 1966 1875 
L 1172 1875 
L 806 0 
L 172 0 
L 1081 4666 
z
M 1613 4147 
L 1275 2394 
L 2069 2394 
Q 2606 2394 2893 2669 
Q 3181 2944 3181 3456 
Q 3181 3784 2986 3965 
Q 2791 4147 2438 4147 
L 1613 4147 
z
" transform="scale(0.015625)"/>
       <path id="DejaVuSans-Oblique-42" d="M 1081 4666 
L 2694 4666 
Q 3350 4666 3675 4422 
Q 4000 4178 4000 3688 
Q 4000 3238 3720 2911 
Q 3441 2584 2988 2516 
Q 3375 2428 3569 2181 
Q 3763 1934 3763 1522 
Q 3763 819 3242 409 
Q 2722 0 1819 0 
L 172 0 
L 1081 4666 
z
M 1234 2228 
L 903 519 
L 1919 519 
Q 2491 519 2800 781 
Q 3109 1044 3109 1522 
Q 3109 1891 2904 2059 
Q 2700 2228 2247 2228 
L 1234 2228 
z
M 1606 4147 
L 1331 2741 
L 2272 2741 
Q 2775 2741 3058 2959 
Q 3341 3178 3341 3566 
Q 3341 3869 3150 4008 
Q 2959 4147 2541 4147 
L 1606 4147 
z
" transform="scale(0.015625)"/>
       <path id="DejaVuSans-5d" d="M 1947 4863 
L 1947 -844 
L 622 -844 
L 622 -397 
L 1369 -397 
L 1369 4416 
L 622 4416 
L 622 4863 
L 1947 4863 
z
" transform="scale(0.015625)"/>
       <path id="DejaVuSans-2f" d="M 1625 4666 
L 2156 4666 
L 531 -594 
L 0 -594 
L 1625 4666 
z
" transform="scale(0.015625)"/>
       <path id="DejaVuSans-Oblique-54" d="M 378 4666 
L 4325 4666 
L 4225 4134 
L 2559 4134 
L 1759 0 
L 1125 0 
L 1925 4134 
L 275 4134 
L 378 4666 
z
" transform="scale(0.015625)"/>
       <path id="DejaVuSans-Oblique-74" d="M 2706 3500 
L 2619 3053 
L 1472 3053 
L 1100 1153 
Q 1081 1047 1072 975 
Q 1063 903 1063 863 
Q 1063 663 1183 572 
Q 1303 481 1569 481 
L 2150 481 
L 2053 0 
L 1503 0 
Q 991 0 739 200 
Q 488 400 488 806 
Q 488 878 497 964 
Q 506 1050 525 1153 
L 897 3053 
L 409 3053 
L 500 3500 
L 978 3500 
L 1172 4494 
L 1747 4494 
L 1556 3500 
L 2706 3500 
z
" transform="scale(0.015625)"/>
       <path id="DejaVuSans-Oblique-61" d="M 3438 1997 
L 3047 0 
L 2472 0 
L 2578 531 
Q 2325 219 2001 64 
Q 1678 -91 1281 -91 
Q 834 -91 548 182 
Q 263 456 263 884 
Q 263 1497 752 1853 
Q 1241 2209 2100 2209 
L 2900 2209 
L 2931 2363 
Q 2938 2388 2941 2417 
Q 2944 2447 2944 2509 
Q 2944 2788 2717 2942 
Q 2491 3097 2081 3097 
Q 1800 3097 1504 3025 
Q 1209 2953 897 2809 
L 997 3341 
Q 1322 3463 1633 3523 
Q 1944 3584 2234 3584 
Q 2853 3584 3176 3315 
Q 3500 3047 3500 2534 
Q 3500 2431 3484 2292 
Q 3469 2153 3438 1997 
z
M 2816 1759 
L 2241 1759 
Q 1534 1759 1195 1570 
Q 856 1381 856 984 
Q 856 709 1029 553 
Q 1203 397 1509 397 
Q 1978 397 2328 733 
Q 2678 1069 2791 1631 
L 2816 1759 
z
" transform="scale(0.015625)"/>
       <path id="DejaVuSans-Oblique-72" d="M 2853 2969 
Q 2766 3016 2653 3041 
Q 2541 3066 2413 3066 
Q 1953 3066 1609 2717 
Q 1266 2369 1153 1784 
L 800 0 
L 225 0 
L 909 3500 
L 1484 3500 
L 1375 2956 
Q 1603 3259 1920 3421 
Q 2238 3584 2597 3584 
Q 2691 3584 2781 3573 
Q 2872 3563 2963 3538 
L 2853 2969 
z
" transform="scale(0.015625)"/>
       <path id="DejaVuSans-Oblique-65" d="M 3078 2063 
Q 3088 2113 3092 2166 
Q 3097 2219 3097 2272 
Q 3097 2653 2873 2875 
Q 2650 3097 2266 3097 
Q 1838 3097 1509 2826 
Q 1181 2556 1013 2059 
L 3078 2063 
z
M 3578 1613 
L 903 1613 
Q 884 1494 878 1425 
Q 872 1356 872 1306 
Q 872 872 1139 634 
Q 1406 397 1894 397 
Q 2269 397 2603 481 
Q 2938 566 3225 728 
L 3116 159 
Q 2806 34 2476 -28 
Q 2147 -91 1806 -91 
Q 1078 -91 686 257 
Q 294 606 294 1247 
Q 294 1794 489 2264 
Q 684 2734 1063 3103 
Q 1306 3334 1642 3459 
Q 1978 3584 2356 3584 
Q 2950 3584 3301 3228 
Q 3653 2872 3653 2272 
Q 3653 2128 3634 1964 
Q 3616 1800 3578 1613 
z
" transform="scale(0.015625)"/>
       <path id="DejaVuSans-Oblique-69" d="M 1172 4863 
L 1747 4863 
L 1606 4134 
L 1031 4134 
L 1172 4863 
z
M 909 3500 
L 1484 3500 
L 800 0 
L 225 0 
L 909 3500 
z
" transform="scale(0.015625)"/>
       <path id="DejaVuSans-Oblique-6e" d="M 3566 2113 
L 3156 0 
L 2578 0 
L 2988 2091 
Q 3016 2238 3031 2350 
Q 3047 2463 3047 2528 
Q 3047 2791 2881 2937 
Q 2716 3084 2419 3084 
Q 1956 3084 1622 2776 
Q 1288 2469 1184 1941 
L 800 0 
L 225 0 
L 903 3500 
L 1478 3500 
L 1363 2950 
Q 1603 3253 1940 3418 
Q 2278 3584 2650 3584 
Q 3113 3584 3367 3334 
Q 3622 3084 3622 2631 
Q 3622 2519 3608 2391 
Q 3594 2263 3566 2113 
z
" transform="scale(0.015625)"/>
       <path id="DejaVuSans-29" d="M 513 4856 
L 1013 4856 
Q 1481 4119 1714 3412 
Q 1947 2706 1947 2009 
Q 1947 1309 1714 600 
Q 1481 -109 1013 -844 
L 513 -844 
Q 928 -128 1133 580 
Q 1338 1288 1338 2009 
Q 1338 2731 1133 3434 
Q 928 4138 513 4856 
z
" transform="scale(0.015625)"/>
      </defs>
      <use xlink:href="#DejaVuSans-Oblique-6c" transform="translate(0 0.015625)"/>
      <use xlink:href="#DejaVuSans-Oblique-6f" transform="translate(27.783203 0.015625)"/>
      <use xlink:href="#DejaVuSans-Oblique-67" transform="translate(88.964844 0.015625)"/>
      <use xlink:href="#DejaVuSans-28" transform="translate(152.441406 0.015625)"/>
      <use xlink:href="#DejaVuSans-5b" transform="translate(191.455078 0.015625)"/>
      <use xlink:href="#DejaVuSans-Oblique-48" transform="translate(227.34375 0.015625)"/>
      <use xlink:href="#DejaVuSans-Oblique-53" transform="translate(302.539062 0.015625)"/>
      <use xlink:href="#DejaVuSans-Oblique-50" transform="translate(366.015625 0.015625)"/>
      <use xlink:href="#DejaVuSans-Oblique-42" transform="translate(426.318359 0.015625)"/>
      <use xlink:href="#DejaVuSans-31" transform="translate(494.921875 0.015625)"/>
      <use xlink:href="#DejaVuSans-5d" transform="translate(558.544922 0.015625)"/>
      <use xlink:href="#DejaVuSans-2f" transform="translate(597.558594 0.015625)"/>
      <use xlink:href="#DejaVuSans-5b" transform="translate(631.25 0.015625)"/>
      <use xlink:href="#DejaVuSans-Oblique-54" transform="translate(670.263672 0.015625)"/>
      <use xlink:href="#DejaVuSans-Oblique-6f" transform="translate(731.347656 0.015625)"/>
      <use xlink:href="#DejaVuSans-Oblique-74" transform="translate(792.529297 0.015625)"/>
      <use xlink:href="#DejaVuSans-Oblique-61" transform="translate(831.738281 0.015625)"/>
      <use xlink:href="#DejaVuSans-Oblique-6c" transform="translate(893.017578 0.015625)"/>
      <use xlink:href="#DejaVuSans-Oblique-50" transform="translate(920.800781 0.015625)"/>
      <use xlink:href="#DejaVuSans-Oblique-72" transform="translate(981.103516 0.015625)"/>
      <use xlink:href="#DejaVuSans-Oblique-6f" transform="translate(1022.216797 0.015625)"/>
      <use xlink:href="#DejaVuSans-Oblique-74" transform="translate(1083.398438 0.015625)"/>
      <use xlink:href="#DejaVuSans-Oblique-65" transform="translate(1122.607422 0.015625)"/>
      <use xlink:href="#DejaVuSans-Oblique-69" transform="translate(1184.130859 0.015625)"/>
      <use xlink:href="#DejaVuSans-Oblique-6e" transform="translate(1211.914062 0.015625)"/>
      <use xlink:href="#DejaVuSans-5d" transform="translate(1275.292969 0.015625)"/>
      <use xlink:href="#DejaVuSans-29" transform="translate(1314.306641 0.015625)"/>
     </g>
    </g>
   </g>
   <g id="line2d_12">
    <path d="M 240.641147 58.319229 
L 240.641147 63.802217 
" clip-path="url(#p35926318cc)" style="fill: none; stroke: #434343; stroke-width: 1.5; stroke-linecap: square"/>
   </g>
   <g id="line2d_13">
    <path d="M 613.668793 58.319229 
L 613.668793 63.802217 
" clip-path="url(#p35926318cc)" style="fill: none; stroke: #434343; stroke-width: 1.5; stroke-linecap: square"/>
   </g>
   <g id="line2d_14">
    <defs>
     <path id="m6be7239790" d="M -0 3.535534 
L 2.12132 0 
L -0 -3.535534 
L -2.12132 -0 
z
" style="stroke: #434343; stroke-linejoin: miter"/>
    </defs>
    <g clip-path="url(#p35926318cc)">
     <use xlink:href="#m6be7239790" x="642.394476" y="61.060723" style="fill: #434343; stroke: #434343; stroke-linejoin: miter"/>
    </g>
   </g>
   <g id="line2d_15">
    <path d="M 144.806529 131.425735 
L 144.806529 136.908723 
" clip-path="url(#p35926318cc)" style="fill: none; stroke: #434343; stroke-width: 1.5; stroke-linecap: square"/>
   </g>
   <g id="line2d_16">
    <path d="M 582.370864 131.425735 
L 582.370864 136.908723 
" clip-path="url(#p35926318cc)" style="fill: none; stroke: #434343; stroke-width: 1.5; stroke-linecap: square"/>
   </g>
   <g id="line2d_17"/>
   <g id="line2d_18">
    <path d="M 166.418672 204.532241 
L 166.418672 210.015229 
" clip-path="url(#p35926318cc)" style="fill: none; stroke: #434343; stroke-width: 1.5; stroke-linecap: square"/>
   </g>
   <g id="line2d_19">
    <path d="M 681.755 204.532241 
L 681.755 210.015229 
" clip-path="url(#p35926318cc)" style="fill: none; stroke: #434343; stroke-width: 1.5; stroke-linecap: square"/>
   </g>
   <g id="line2d_20"/>
   <g id="line2d_21">
    <path d="M 132.855 277.638747 
L 132.855 283.121735 
" clip-path="url(#p35926318cc)" style="fill: none; stroke: #434343; stroke-width: 1.5; stroke-linecap: square"/>
   </g>
   <g id="line2d_22">
    <path d="M 639.885721 277.638747 
L 639.885721 283.121735 
" clip-path="url(#p35926318cc)" style="fill: none; stroke: #434343; stroke-width: 1.5; stroke-linecap: square"/>
   </g>
   <g id="line2d_23"/>
   <g id="line2d_24">
    <path d="M 141.959861 350.745253 
L 141.959861 356.228241 
" clip-path="url(#p35926318cc)" style="fill: none; stroke: #434343; stroke-width: 1.5; stroke-linecap: square"/>
   </g>
   <g id="line2d_25">
    <path d="M 509.824347 350.745253 
L 509.824347 356.228241 
" clip-path="url(#p35926318cc)" style="fill: none; stroke: #434343; stroke-width: 1.5; stroke-linecap: square"/>
   </g>
   <g id="line2d_26"/>
   <g id="line2d_27">
    <path d="M 379.905266 55.577735 
L 379.905266 66.543711 
" clip-path="url(#p35926318cc)" style="fill: none; stroke: #434343; stroke-width: 1.5; stroke-linecap: square"/>
   </g>
   <g id="line2d_28">
    <path d="M 299.961577 128.684241 
L 299.961577 139.650217 
" clip-path="url(#p35926318cc)" style="fill: none; stroke: #434343; stroke-width: 1.5; stroke-linecap: square"/>
   </g>
   <g id="line2d_29">
    <path d="M 319.841895 201.790747 
L 319.841895 212.756723 
" clip-path="url(#p35926318cc)" style="fill: none; stroke: #434343; stroke-width: 1.5; stroke-linecap: square"/>
   </g>
   <g id="line2d_30">
    <path d="M 267.988457 274.897253 
L 267.988457 285.863229 
" clip-path="url(#p35926318cc)" style="fill: none; stroke: #434343; stroke-width: 1.5; stroke-linecap: square"/>
   </g>
   <g id="line2d_31">
    <path d="M 308.309617 348.003759 
L 308.309617 358.969735 
" clip-path="url(#p35926318cc)" style="fill: none; stroke: #434343; stroke-width: 1.5; stroke-linecap: square"/>
   </g>
   <g id="patch_3">
    <path d="M 105.41 390.04 
L 105.41 10.8 
" style="fill: none; stroke: #000000; stroke-width: 0.8; stroke-linejoin: miter; stroke-linecap: square"/>
   </g>
   <g id="patch_4">
    <path d="M 709.2 390.04 
L 709.2 10.8 
" style="fill: none; stroke: #000000; stroke-width: 0.8; stroke-linejoin: miter; stroke-linecap: square"/>
   </g>
   <g id="patch_5">
    <path d="M 105.41 390.04 
L 709.2 390.04 
" style="fill: none; stroke: #000000; stroke-width: 0.8; stroke-linejoin: miter; stroke-linecap: square"/>
   </g>
   <g id="patch_6">
    <path d="M 105.41 10.8 
L 709.2 10.8 
" style="fill: none; stroke: #000000; stroke-width: 0.8; stroke-linejoin: miter; stroke-linecap: square"/>
   </g>
   <g id="patch_7">
    <path d="M 326.754027 55.577735 
L 326.754027 66.543711 
L 451.823179 66.543711 
L 451.823179 55.577735 
L 326.754027 55.577735 
L 326.754027 55.577735 
z
" clip-path="url(#p35926318cc)" style="fill: none; stroke: #434343; stroke-width: 1.5; stroke-linejoin: miter"/>
   </g>
   <g id="line2d_32">
    <path d="M 326.754027 61.060723 
L 240.641147 61.060723 
" clip-path="url(#p35926318cc)" style="fill: none; stroke: #434343; stroke-width: 2; stroke-linecap: square"/>
   </g>
   <g id="line2d_33">
    <path d="M 451.823179 61.060723 
L 613.668793 61.060723 
" clip-path="url(#p35926318cc)" style="fill: none; stroke: #434343; stroke-width: 2; stroke-linecap: square"/>
   </g>
   <g id="patch_8">
    <path d="M 259.414401 128.684241 
L 259.414401 139.650217 
L 441.125292 139.650217 
L 441.125292 128.684241 
L 259.414401 128.684241 
L 259.414401 128.684241 
z
" clip-path="url(#p35926318cc)" style="fill: none; stroke: #434343; stroke-width: 1.5; stroke-linejoin: miter"/>
   </g>
   <g id="line2d_34">
    <path d="M 259.414401 134.167229 
L 144.806529 134.167229 
" clip-path="url(#p35926318cc)" style="fill: none; stroke: #434343; stroke-width: 2; stroke-linecap: square"/>
   </g>
   <g id="line2d_35">
    <path d="M 441.125292 134.167229 
L 582.370864 134.167229 
" clip-path="url(#p35926318cc)" style="fill: none; stroke: #434343; stroke-width: 2; stroke-linecap: square"/>
   </g>
   <g id="patch_9">
    <path d="M 254.878522 201.790747 
L 254.878522 212.756723 
L 441.384946 212.756723 
L 441.384946 201.790747 
L 254.878522 201.790747 
L 254.878522 201.790747 
z
" clip-path="url(#p35926318cc)" style="fill: none; stroke: #434343; stroke-width: 1.5; stroke-linejoin: miter"/>
   </g>
   <g id="line2d_36">
    <path d="M 254.878522 207.273735 
L 166.418672 207.273735 
" clip-path="url(#p35926318cc)" style="fill: none; stroke: #434343; stroke-width: 2; stroke-linecap: square"/>
   </g>
   <g id="line2d_37">
    <path d="M 441.384946 207.273735 
L 681.755 207.273735 
" clip-path="url(#p35926318cc)" style="fill: none; stroke: #434343; stroke-width: 2; stroke-linecap: square"/>
   </g>
   <g id="patch_10">
    <path d="M 216.194632 274.897253 
L 216.194632 285.863229 
L 418.87887 285.863229 
L 418.87887 274.897253 
L 216.194632 274.897253 
L 216.194632 274.897253 
z
" clip-path="url(#p35926318cc)" style="fill: none; stroke: #434343; stroke-width: 1.5; stroke-linejoin: miter"/>
   </g>
   <g id="line2d_38">
    <path d="M 216.194632 280.380241 
L 132.855 280.380241 
" clip-path="url(#p35926318cc)" style="fill: none; stroke: #434343; stroke-width: 2; stroke-linecap: square"/>
   </g>
   <g id="line2d_39">
    <path d="M 418.87887 280.380241 
L 639.885721 280.380241 
" clip-path="url(#p35926318cc)" style="fill: none; stroke: #434343; stroke-width: 2; stroke-linecap: square"/>
   </g>
   <g id="patch_11">
    <path d="M 235.856208 348.003759 
L 235.856208 358.969735 
L 423.941403 358.969735 
L 423.941403 348.003759 
L 235.856208 348.003759 
L 235.856208 348.003759 
z
" clip-path="url(#p35926318cc)" style="fill: none; stroke: #434343; stroke-width: 1.5; stroke-linejoin: miter"/>
   </g>
   <g id="line2d_40">
    <path d="M 235.856208 353.486747 
L 141.959861 353.486747 
" clip-path="url(#p35926318cc)" style="fill: none; stroke: #434343; stroke-width: 2; stroke-linecap: square"/>
   </g>
   <g id="line2d_41">
    <path d="M 423.941403 353.486747 
L 509.824347 353.486747 
" clip-path="url(#p35926318cc)" style="fill: none; stroke: #434343; stroke-width: 2; stroke-linecap: square"/>
   </g>
  </g>
 </g>
 <defs>
  <clipPath id="p35926318cc">
   <rect x="105.41" y="10.8" width="603.79" height="379.24"/>
  </clipPath>
 </defs>
</svg>
