<?xml version="1.0" encoding="utf-8" standalone="no"?>
<!DOCTYPE svg PUBLIC "-//W3C//DTD SVG 1.1//EN"
  "http://www.w3.org/Graphics/SVG/1.1/DTD/svg11.dtd">
<svg xmlns:xlink="http://www.w3.org/1999/xlink" width="720pt" height="432pt" viewBox="0 0 720 432" xmlns="http://www.w3.org/2000/svg" version="1.1">
 <metadata>
  <rdf:RDF xmlns:dc="http://purl.org/dc/elements/1.1/" xmlns:cc="http://creativecommons.org/ns#" xmlns:rdf="http://www.w3.org/1999/02/22-rdf-syntax-ns#">
   <cc:Work>
    <dc:type rdf:resource="http://purl.org/dc/dcmitype/StillImage"/>
    <dc:date>2024-09-30T14:08:31.665338</dc:date>
    <dc:format>image/svg+xml</dc:format>
    <dc:creator>
     <cc:Agent>
      <dc:title>Matplotlib v3.7.3, https://matplotlib.org/</dc:title>
     </cc:Agent>
    </dc:creator>
   </cc:Work>
  </rdf:RDF>
 </metadata>
 <defs>
  <style type="text/css">*{stroke-linejoin: round; stroke-linecap: butt}</style>
 </defs>
 <g id="figure_1">
  <g id="patch_1">
   <path d="M 0 432 
L 720 432 
L 720 0 
L 0 0 
z
" style="fill: #ffffff"/>
  </g>
  <g id="axes_1">
   <g id="patch_2">
    <path d="M 102.53 387.16 
L 709.2 387.16 
L 709.2 10.8 
L 102.53 10.8 
z
" style="fill: #ffffff"/>
   </g>
   <g id="PathCollection_1">
    <defs>
     <path id="C0_0_9e5e73368b" d="M 0 1.5 
C 0.397805 1.5 0.77937 1.341951 1.06066 1.06066 
C 1.341951 0.77937 1.5 0.397805 1.5 -0 
C 1.5 -0.397805 1.341951 -0.77937 1.06066 -1.06066 
C 0.77937 -1.341951 0.397805 -1.5 0 -1.5 
C -0.397805 -1.5 -0.77937 -1.341951 -1.06066 -1.06066 
C -1.341951 -0.77937 -1.5 -0.397805 -1.5 0 
C -1.5 0.397805 -1.341951 0.77937 -1.06066 1.06066 
C -0.77937 1.341951 -0.397805 1.5 0 1.5 
z
"/>
    </defs>
    <g clip-path="url(#pea4596532c)">
     <use xlink:href="#C0_0_9e5e73368b" x="378.355215" y="62.720379" style="fill: #f77189"/>
    </g>
    <g clip-path="url(#pea4596532c)">
     <use xlink:href="#C0_0_9e5e73368b" x="338.077139" y="57.519664" style="fill: #f77189"/>
    </g>
    <g clip-path="url(#pea4596532c)">
     <use xlink:href="#C0_0_9e5e73368b" x="299.678954" y="67.816573" style="fill: #f77189"/>
    </g>
    <g clip-path="url(#pea4596532c)">
     <use xlink:href="#C0_0_9e5e73368b" x="323.513159" y="63.474006" style="fill: #f77189"/>
    </g>
    <g clip-path="url(#pea4596532c)">
     <use xlink:href="#C0_0_9e5e73368b" x="364.211977" y="56.303777" style="fill: #f77189"/>
    </g>
    <g clip-path="url(#pea4596532c)">
     <use xlink:href="#C0_0_9e5e73368b" x="325.402026" y="59.953699" style="fill: #f77189"/>
    </g>
    <g clip-path="url(#pea4596532c)">
     <use xlink:href="#C0_0_9e5e73368b" x="418.732138" y="55.557808" style="fill: #f77189"/>
    </g>
    <g clip-path="url(#pea4596532c)">
     <use xlink:href="#C0_0_9e5e73368b" x="398.68279" y="67.447845" style="fill: #f77189"/>
    </g>
    <g clip-path="url(#pea4596532c)">
     <use xlink:href="#C0_0_9e5e73368b" x="412.611446" y="55.176088" style="fill: #f77189"/>
    </g>
    <g clip-path="url(#pea4596532c)">
     <use xlink:href="#C0_0_9e5e73368b" x="353.59794" y="62.886935" style="fill: #f77189"/>
    </g>
    <g clip-path="url(#pea4596532c)">
     <use xlink:href="#C0_0_9e5e73368b" x="448.494458" y="64.099446" style="fill: #f77189"/>
    </g>
    <g clip-path="url(#pea4596532c)">
     <use xlink:href="#C0_0_9e5e73368b" x="473.135182" y="56.076665" style="fill: #f77189"/>
    </g>
    <g clip-path="url(#pea4596532c)">
     <use xlink:href="#C0_0_9e5e73368b" x="642.075823" y="60.522677" style="fill: #f77189"/>
    </g>
    <g clip-path="url(#pea4596532c)">
     <use xlink:href="#C0_0_9e5e73368b" x="533.918369" y="61.17287" style="fill: #f77189"/>
    </g>
    <g clip-path="url(#pea4596532c)">
     <use xlink:href="#C0_0_9e5e73368b" x="606.366668" y="62.833742" style="fill: #f77189"/>
    </g>
    <g clip-path="url(#pea4596532c)">
     <use xlink:href="#C0_0_9e5e73368b" x="613.213121" y="58.295753" style="fill: #f77189"/>
    </g>
    <g clip-path="url(#pea4596532c)">
     <use xlink:href="#C0_0_9e5e73368b" x="576.953319" y="59.295553" style="fill: #f77189"/>
    </g>
    <g clip-path="url(#pea4596532c)">
     <use xlink:href="#C0_0_9e5e73368b" x="334.075762" y="56.711166" style="fill: #f77189"/>
    </g>
    <g clip-path="url(#pea4596532c)">
     <use xlink:href="#C0_0_9e5e73368b" x="373.442754" y="57.282371" style="fill: #f77189"/>
    </g>
    <g clip-path="url(#pea4596532c)">
     <use xlink:href="#C0_0_9e5e73368b" x="378.313931" y="56.180955" style="fill: #f77189"/>
    </g>
    <g clip-path="url(#pea4596532c)">
     <use xlink:href="#C0_0_9e5e73368b" x="278.757165" y="67.667694" style="fill: #f77189"/>
    </g>
    <g clip-path="url(#pea4596532c)">
     <use xlink:href="#C0_0_9e5e73368b" x="319.625132" y="56.636832" style="fill: #f77189"/>
    </g>
    <g clip-path="url(#pea4596532c)">
     <use xlink:href="#C0_0_9e5e73368b" x="423.133391" y="56.866864" style="fill: #f77189"/>
    </g>
    <g clip-path="url(#pea4596532c)">
     <use xlink:href="#C0_0_9e5e73368b" x="445.570806" y="65.359748" style="fill: #f77189"/>
    </g>
    <g clip-path="url(#pea4596532c)">
     <use xlink:href="#C0_0_9e5e73368b" x="456.898727" y="60.701423" style="fill: #f77189"/>
    </g>
    <g clip-path="url(#pea4596532c)">
     <use xlink:href="#C0_0_9e5e73368b" x="312.58352" y="63.540959" style="fill: #f77189"/>
    </g>
    <g clip-path="url(#pea4596532c)">
     <use xlink:href="#C0_0_9e5e73368b" x="238.406182" y="58.251017" style="fill: #f77189"/>
    </g>
    <g clip-path="url(#pea4596532c)">
     <use xlink:href="#C0_0_9e5e73368b" x="241.314063" y="64.189681" style="fill: #f77189"/>
    </g>
   </g>
   <g id="PathCollection_2">
    <defs>
     <path id="C1_0_ad9bd28075" d="M 0 1.5 
C 0.397805 1.5 0.77937 1.341951 1.06066 1.06066 
C 1.341951 0.77937 1.5 0.397805 1.5 -0 
C 1.5 -0.397805 1.341951 -0.77937 1.06066 -1.06066 
C 0.77937 -1.341951 0.397805 -1.5 0 -1.5 
C -0.397805 -1.5 -0.77937 -1.341951 -1.06066 -1.06066 
C -1.341951 -0.77937 -1.5 -0.397805 -1.5 0 
C -1.5 0.397805 -1.341951 0.77937 -1.06066 1.06066 
C -0.77937 1.341951 -0.397805 1.5 0 1.5 
z
"/>
    </defs>
    <g clip-path="url(#pea4596532c)">
     <use xlink:href="#C1_0_ad9bd28075" x="212.949403" y="126.806204" style="fill: #ae9d31"/>
    </g>
    <g clip-path="url(#pea4596532c)">
     <use xlink:href="#C1_0_ad9bd28075" x="204.969881" y="131.117271" style="fill: #ae9d31"/>
    </g>
    <g clip-path="url(#pea4596532c)">
     <use xlink:href="#C1_0_ad9bd28075" x="224.913422" y="130.380964" style="fill: #ae9d31"/>
    </g>
    <g clip-path="url(#pea4596532c)">
     <use xlink:href="#C1_0_ad9bd28075" x="257.268982" y="138.018426" style="fill: #ae9d31"/>
    </g>
    <g clip-path="url(#pea4596532c)">
     <use xlink:href="#C1_0_ad9bd28075" x="259.970895" y="140.204819" style="fill: #ae9d31"/>
    </g>
    <g clip-path="url(#pea4596532c)">
     <use xlink:href="#C1_0_ad9bd28075" x="285.393682" y="135.671386" style="fill: #ae9d31"/>
    </g>
    <g clip-path="url(#pea4596532c)">
     <use xlink:href="#C1_0_ad9bd28075" x="334.098192" y="125.990395" style="fill: #ae9d31"/>
    </g>
    <g clip-path="url(#pea4596532c)">
     <use xlink:href="#C1_0_ad9bd28075" x="305.51387" y="133.650404" style="fill: #ae9d31"/>
    </g>
    <g clip-path="url(#pea4596532c)">
     <use xlink:href="#C1_0_ad9bd28075" x="296.857459" y="138.706003" style="fill: #ae9d31"/>
    </g>
    <g clip-path="url(#pea4596532c)">
     <use xlink:href="#C1_0_ad9bd28075" x="460.693944" y="127.655801" style="fill: #ae9d31"/>
    </g>
    <g clip-path="url(#pea4596532c)">
     <use xlink:href="#C1_0_ad9bd28075" x="433.899985" y="130.994957" style="fill: #ae9d31"/>
    </g>
    <g clip-path="url(#pea4596532c)">
     <use xlink:href="#C1_0_ad9bd28075" x="447.745733" y="140.202408" style="fill: #ae9d31"/>
    </g>
    <g clip-path="url(#pea4596532c)">
     <use xlink:href="#C1_0_ad9bd28075" x="499.366547" y="135.711149" style="fill: #ae9d31"/>
    </g>
    <g clip-path="url(#pea4596532c)">
     <use xlink:href="#C1_0_ad9bd28075" x="581.765905" y="128.212826" style="fill: #ae9d31"/>
    </g>
    <g clip-path="url(#pea4596532c)">
     <use xlink:href="#C1_0_ad9bd28075" x="496.30353" y="127.857285" style="fill: #ae9d31"/>
    </g>
    <g clip-path="url(#pea4596532c)">
     <use xlink:href="#C1_0_ad9bd28075" x="530.502318" y="135.375902" style="fill: #ae9d31"/>
    </g>
    <g clip-path="url(#pea4596532c)">
     <use xlink:href="#C1_0_ad9bd28075" x="545.270625" y="136.330193" style="fill: #ae9d31"/>
    </g>
    <g clip-path="url(#pea4596532c)">
     <use xlink:href="#C1_0_ad9bd28075" x="177.784491" y="137.675949" style="fill: #ae9d31"/>
    </g>
    <g clip-path="url(#pea4596532c)">
     <use xlink:href="#C1_0_ad9bd28075" x="142.114446" y="127.826936" style="fill: #ae9d31"/>
    </g>
    <g clip-path="url(#pea4596532c)">
     <use xlink:href="#C1_0_ad9bd28075" x="270.915229" y="133.877776" style="fill: #ae9d31"/>
    </g>
    <g clip-path="url(#pea4596532c)">
     <use xlink:href="#C1_0_ad9bd28075" x="232.123457" y="132.118062" style="fill: #ae9d31"/>
    </g>
    <g clip-path="url(#pea4596532c)">
     <use xlink:href="#C1_0_ad9bd28075" x="234.853009" y="130.124521" style="fill: #ae9d31"/>
    </g>
    <g clip-path="url(#pea4596532c)">
     <use xlink:href="#C1_0_ad9bd28075" x="263.172804" y="126.095302" style="fill: #ae9d31"/>
    </g>
    <g clip-path="url(#pea4596532c)">
     <use xlink:href="#C1_0_ad9bd28075" x="314.135267" y="138.216435" style="fill: #ae9d31"/>
    </g>
    <g clip-path="url(#pea4596532c)">
     <use xlink:href="#C1_0_ad9bd28075" x="296.402163" y="130.389747" style="fill: #ae9d31"/>
    </g>
    <g clip-path="url(#pea4596532c)">
     <use xlink:href="#C1_0_ad9bd28075" x="298.009563" y="126.37309" style="fill: #ae9d31"/>
    </g>
    <g clip-path="url(#pea4596532c)">
     <use xlink:href="#C1_0_ad9bd28075" x="439.846611" y="135.261407" style="fill: #ae9d31"/>
    </g>
    <g clip-path="url(#pea4596532c)">
     <use xlink:href="#C1_0_ad9bd28075" x="436.352632" y="133.286001" style="fill: #ae9d31"/>
    </g>
    <g clip-path="url(#pea4596532c)">
     <use xlink:href="#C1_0_ad9bd28075" x="421.910563" y="132.543592" style="fill: #ae9d31"/>
    </g>
   </g>
   <g id="PathCollection_3">
    <defs>
     <path id="C2_0_878ea134ff" d="M 0 1.5 
C 0.397805 1.5 0.77937 1.341951 1.06066 1.06066 
C 1.341951 0.77937 1.5 0.397805 1.5 -0 
C 1.5 -0.397805 1.341951 -0.77937 1.06066 -1.06066 
C 0.77937 -1.341951 0.397805 -1.5 0 -1.5 
C -0.397805 -1.5 -0.77937 -1.341951 -1.06066 -1.06066 
C -1.341951 -0.77937 -1.5 -0.397805 -1.5 0 
C -1.5 0.397805 -1.341951 0.77937 -1.06066 1.06066 
C -0.77937 1.341951 -0.397805 1.5 0 1.5 
z
"/>
    </defs>
    <g clip-path="url(#pea4596532c)">
     <use xlink:href="#C2_0_878ea134ff" x="495.271813" y="210.161144" style="fill: #33b07a"/>
    </g>
    <g clip-path="url(#pea4596532c)">
     <use xlink:href="#C2_0_878ea134ff" x="224.737113" y="202.309664" style="fill: #33b07a"/>
    </g>
    <g clip-path="url(#pea4596532c)">
     <use xlink:href="#C2_0_878ea134ff" x="163.829676" y="209.733639" style="fill: #33b07a"/>
    </g>
    <g clip-path="url(#pea4596532c)">
     <use xlink:href="#C2_0_878ea134ff" x="257.85976" y="202.623702" style="fill: #33b07a"/>
    </g>
    <g clip-path="url(#pea4596532c)">
     <use xlink:href="#C2_0_878ea134ff" x="281.166501" y="198.622826" style="fill: #33b07a"/>
    </g>
    <g clip-path="url(#pea4596532c)">
     <use xlink:href="#C2_0_878ea134ff" x="236.629181" y="211.923459" style="fill: #33b07a"/>
    </g>
    <g clip-path="url(#pea4596532c)">
     <use xlink:href="#C2_0_878ea134ff" x="260.745689" y="205.44558" style="fill: #33b07a"/>
    </g>
    <g clip-path="url(#pea4596532c)">
     <use xlink:href="#C2_0_878ea134ff" x="317.277227" y="207.120032" style="fill: #33b07a"/>
    </g>
    <g clip-path="url(#pea4596532c)">
     <use xlink:href="#C2_0_878ea134ff" x="318.692187" y="202.236272" style="fill: #33b07a"/>
    </g>
    <g clip-path="url(#pea4596532c)">
     <use xlink:href="#C2_0_878ea134ff" x="443.989036" y="212.940734" style="fill: #33b07a"/>
    </g>
    <g clip-path="url(#pea4596532c)">
     <use xlink:href="#C2_0_878ea134ff" x="429.523917" y="208.21676" style="fill: #33b07a"/>
    </g>
    <g clip-path="url(#pea4596532c)">
     <use xlink:href="#C2_0_878ea134ff" x="423.163504" y="199.049946" style="fill: #33b07a"/>
    </g>
    <g clip-path="url(#pea4596532c)">
     <use xlink:href="#C2_0_878ea134ff" x="507.162627" y="209.656665" style="fill: #33b07a"/>
    </g>
    <g clip-path="url(#pea4596532c)">
     <use xlink:href="#C2_0_878ea134ff" x="681.624091" y="203.277443" style="fill: #33b07a"/>
    </g>
    <g clip-path="url(#pea4596532c)">
     <use xlink:href="#C2_0_878ea134ff" x="438.809714" y="212.831656" style="fill: #33b07a"/>
    </g>
    <g clip-path="url(#pea4596532c)">
     <use xlink:href="#C2_0_878ea134ff" x="539.398446" y="210.843172" style="fill: #33b07a"/>
    </g>
    <g clip-path="url(#pea4596532c)">
     <use xlink:href="#C2_0_878ea134ff" x="484.694002" y="204.643491" style="fill: #33b07a"/>
    </g>
    <g clip-path="url(#pea4596532c)">
     <use xlink:href="#C2_0_878ea134ff" x="480.970949" y="208.160522" style="fill: #33b07a"/>
    </g>
    <g clip-path="url(#pea4596532c)">
     <use xlink:href="#C2_0_878ea134ff" x="185.049195" y="204.449867" style="fill: #33b07a"/>
    </g>
    <g clip-path="url(#pea4596532c)">
     <use xlink:href="#C2_0_878ea134ff" x="184.644898" y="206.403465" style="fill: #33b07a"/>
    </g>
    <g clip-path="url(#pea4596532c)">
     <use xlink:href="#C2_0_878ea134ff" x="202.874934" y="204.890324" style="fill: #33b07a"/>
    </g>
    <g clip-path="url(#pea4596532c)">
     <use xlink:href="#C2_0_878ea134ff" x="252.113407" y="211.157754" style="fill: #33b07a"/>
    </g>
    <g clip-path="url(#pea4596532c)">
     <use xlink:href="#C2_0_878ea134ff" x="254.505651" y="207.852825" style="fill: #33b07a"/>
    </g>
    <g clip-path="url(#pea4596532c)">
     <use xlink:href="#C2_0_878ea134ff" x="198.344606" y="202.344743" style="fill: #33b07a"/>
    </g>
    <g clip-path="url(#pea4596532c)">
     <use xlink:href="#C2_0_878ea134ff" x="262.406813" y="205.554206" style="fill: #33b07a"/>
    </g>
    <g clip-path="url(#pea4596532c)">
     <use xlink:href="#C2_0_878ea134ff" x="303.943141" y="212.070659" style="fill: #33b07a"/>
    </g>
    <g clip-path="url(#pea4596532c)">
     <use xlink:href="#C2_0_878ea134ff" x="335.640539" y="210.14792" style="fill: #33b07a"/>
    </g>
    <g clip-path="url(#pea4596532c)">
     <use xlink:href="#C2_0_878ea134ff" x="408.86764" y="208.230595" style="fill: #33b07a"/>
    </g>
    <g clip-path="url(#pea4596532c)">
     <use xlink:href="#C2_0_878ea134ff" x="427.372885" y="202.253587" style="fill: #33b07a"/>
    </g>
    <g clip-path="url(#pea4596532c)">
     <use xlink:href="#C2_0_878ea134ff" x="440.5401" y="206.152883" style="fill: #33b07a"/>
    </g>
   </g>
   <g id="PathCollection_4">
    <defs>
     <path id="C3_0_02d5788b6c" d="M 0 1.5 
C 0.397805 1.5 0.77937 1.341951 1.06066 1.06066 
C 1.341951 0.77937 1.5 0.397805 1.5 -0 
C 1.5 -0.397805 1.341951 -0.77937 1.06066 -1.06066 
C 0.77937 -1.341951 0.397805 -1.5 0 -1.5 
C -0.397805 -1.5 -0.77937 -1.341951 -1.06066 -1.06066 
C -1.341951 -0.77937 -1.5 -0.397805 -1.5 0 
C -1.5 0.397805 -1.341951 0.77937 -1.06066 1.06066 
C -0.77937 1.341951 -0.397805 1.5 0 1.5 
z
"/>
    </defs>
    <g clip-path="url(#pea4596532c)">
     <use xlink:href="#C3_0_02d5788b6c" x="201.889512" y="280.663416" style="fill: #38a9c5"/>
    </g>
    <g clip-path="url(#pea4596532c)">
     <use xlink:href="#C3_0_02d5788b6c" x="130.105909" y="281.009936" style="fill: #38a9c5"/>
    </g>
    <g clip-path="url(#pea4596532c)">
     <use xlink:href="#C3_0_02d5788b6c" x="189.551689" y="283.46164" style="fill: #38a9c5"/>
    </g>
    <g clip-path="url(#pea4596532c)">
     <use xlink:href="#C3_0_02d5788b6c" x="231.255241" y="275.652813" style="fill: #38a9c5"/>
    </g>
    <g clip-path="url(#pea4596532c)">
     <use xlink:href="#C3_0_02d5788b6c" x="192.962869" y="274.129644" style="fill: #38a9c5"/>
    </g>
    <g clip-path="url(#pea4596532c)">
     <use xlink:href="#C3_0_02d5788b6c" x="216.885137" y="278.279738" style="fill: #38a9c5"/>
    </g>
    <g clip-path="url(#pea4596532c)">
     <use xlink:href="#C3_0_02d5788b6c" x="310.158652" y="279.336138" style="fill: #38a9c5"/>
    </g>
    <g clip-path="url(#pea4596532c)">
     <use xlink:href="#C3_0_02d5788b6c" x="275.071449" y="273.864419" style="fill: #38a9c5"/>
    </g>
    <g clip-path="url(#pea4596532c)">
     <use xlink:href="#C3_0_02d5788b6c" x="363.252141" y="284.151752" style="fill: #38a9c5"/>
    </g>
    <g clip-path="url(#pea4596532c)">
     <use xlink:href="#C3_0_02d5788b6c" x="382.70702" y="279.574473" style="fill: #38a9c5"/>
    </g>
    <g clip-path="url(#pea4596532c)">
     <use xlink:href="#C3_0_02d5788b6c" x="429.089761" y="276.14676" style="fill: #38a9c5"/>
    </g>
    <g clip-path="url(#pea4596532c)">
     <use xlink:href="#C3_0_02d5788b6c" x="464.327132" y="281.144984" style="fill: #38a9c5"/>
    </g>
    <g clip-path="url(#pea4596532c)">
     <use xlink:href="#C3_0_02d5788b6c" x="639.555101" y="281.609408" style="fill: #38a9c5"/>
    </g>
    <g clip-path="url(#pea4596532c)">
     <use xlink:href="#C3_0_02d5788b6c" x="477.118894" y="278.306268" style="fill: #38a9c5"/>
    </g>
    <g clip-path="url(#pea4596532c)">
     <use xlink:href="#C3_0_02d5788b6c" x="610.589697" y="276.250063" style="fill: #38a9c5"/>
    </g>
    <g clip-path="url(#pea4596532c)">
     <use xlink:href="#C3_0_02d5788b6c" x="489.271615" y="281.08278" style="fill: #38a9c5"/>
    </g>
    <g clip-path="url(#pea4596532c)">
     <use xlink:href="#C3_0_02d5788b6c" x="464.21921" y="276.220843" style="fill: #38a9c5"/>
    </g>
    <g clip-path="url(#pea4596532c)">
     <use xlink:href="#C3_0_02d5788b6c" x="512.512963" y="281.162541" style="fill: #38a9c5"/>
    </g>
    <g clip-path="url(#pea4596532c)">
     <use xlink:href="#C3_0_02d5788b6c" x="205.613396" y="277.453751" style="fill: #38a9c5"/>
    </g>
    <g clip-path="url(#pea4596532c)">
     <use xlink:href="#C3_0_02d5788b6c" x="145.697842" y="280.489828" style="fill: #38a9c5"/>
    </g>
    <g clip-path="url(#pea4596532c)">
     <use xlink:href="#C3_0_02d5788b6c" x="256.696421" y="282.932634" style="fill: #38a9c5"/>
    </g>
    <g clip-path="url(#pea4596532c)">
     <use xlink:href="#C3_0_02d5788b6c" x="230.28785" y="276.691095" style="fill: #38a9c5"/>
    </g>
    <g clip-path="url(#pea4596532c)">
     <use xlink:href="#C3_0_02d5788b6c" x="144.452312" y="280.057941" style="fill: #38a9c5"/>
    </g>
    <g clip-path="url(#pea4596532c)">
     <use xlink:href="#C3_0_02d5788b6c" x="212.829035" y="281.04929" style="fill: #38a9c5"/>
    </g>
    <g clip-path="url(#pea4596532c)">
     <use xlink:href="#C3_0_02d5788b6c" x="282.942579" y="282.263334" style="fill: #38a9c5"/>
    </g>
    <g clip-path="url(#pea4596532c)">
     <use xlink:href="#C3_0_02d5788b6c" x="332.450386" y="280.176106" style="fill: #38a9c5"/>
    </g>
    <g clip-path="url(#pea4596532c)">
     <use xlink:href="#C3_0_02d5788b6c" x="343.139741" y="274.581629" style="fill: #38a9c5"/>
    </g>
    <g clip-path="url(#pea4596532c)">
     <use xlink:href="#C3_0_02d5788b6c" x="216.905034" y="280.970726" style="fill: #38a9c5"/>
    </g>
    <g clip-path="url(#pea4596532c)">
     <use xlink:href="#C3_0_02d5788b6c" x="233.55574" y="271.161749" style="fill: #38a9c5"/>
    </g>
    <g clip-path="url(#pea4596532c)">
     <use xlink:href="#C3_0_02d5788b6c" x="250.558567" y="279.700347" style="fill: #38a9c5"/>
    </g>
   </g>
   <g id="PathCollection_5">
    <defs>
     <path id="C4_0_453f972d49" d="M 0 1.5 
C 0.397805 1.5 0.77937 1.341951 1.06066 1.06066 
C 1.341951 0.77937 1.5 0.397805 1.5 -0 
C 1.5 -0.397805 1.341951 -0.77937 1.06066 -1.06066 
C 0.77937 -1.341951 0.397805 -1.5 0 -1.5 
C -0.397805 -1.5 -0.77937 -1.341951 -1.06066 -1.06066 
C -1.341951 -0.77937 -1.5 -0.397805 -1.5 0 
C -1.5 0.397805 -1.341951 0.77937 -1.06066 1.06066 
C -0.77937 1.341951 -0.397805 1.5 0 1.5 
z
"/>
    </defs>
    <g clip-path="url(#pea4596532c)">
     <use xlink:href="#C4_0_453f972d49" x="483.742501" y="351.936811" style="fill: #cc7af4"/>
    </g>
    <g clip-path="url(#pea4596532c)">
     <use xlink:href="#C4_0_453f972d49" x="240.28569" y="351.934118" style="fill: #cc7af4"/>
    </g>
    <g clip-path="url(#pea4596532c)">
     <use xlink:href="#C4_0_453f972d49" x="139.254199" y="346.84811" style="fill: #cc7af4"/>
    </g>
    <g clip-path="url(#pea4596532c)">
     <use xlink:href="#C4_0_453f972d49" x="202.951717" y="355.575993" style="fill: #cc7af4"/>
    </g>
    <g clip-path="url(#pea4596532c)">
     <use xlink:href="#C4_0_453f972d49" x="244.313094" y="345.284313" style="fill: #cc7af4"/>
    </g>
    <g clip-path="url(#pea4596532c)">
     <use xlink:href="#C4_0_453f972d49" x="201.963647" y="354.316953" style="fill: #cc7af4"/>
    </g>
    <g clip-path="url(#pea4596532c)">
     <use xlink:href="#C4_0_453f972d49" x="328.658964" y="346.10393" style="fill: #cc7af4"/>
    </g>
    <g clip-path="url(#pea4596532c)">
     <use xlink:href="#C4_0_453f972d49" x="295.201493" y="353.765736" style="fill: #cc7af4"/>
    </g>
    <g clip-path="url(#pea4596532c)">
     <use xlink:href="#C4_0_453f972d49" x="283.351846" y="349.552728" style="fill: #cc7af4"/>
    </g>
    <g clip-path="url(#pea4596532c)">
     <use xlink:href="#C4_0_453f972d49" x="403.301415" y="349.431413" style="fill: #cc7af4"/>
    </g>
    <g clip-path="url(#pea4596532c)">
     <use xlink:href="#C4_0_453f972d49" x="354.322608" y="344.416121" style="fill: #cc7af4"/>
    </g>
    <g clip-path="url(#pea4596532c)">
     <use xlink:href="#C4_0_453f972d49" x="356.339582" y="353.577368" style="fill: #cc7af4"/>
    </g>
    <g clip-path="url(#pea4596532c)">
     <use xlink:href="#C4_0_453f972d49" x="470.606468" y="350.799552" style="fill: #cc7af4"/>
    </g>
    <g clip-path="url(#pea4596532c)">
     <use xlink:href="#C4_0_453f972d49" x="508.873351" y="349.973105" style="fill: #cc7af4"/>
    </g>
    <g clip-path="url(#pea4596532c)">
     <use xlink:href="#C4_0_453f972d49" x="497.102689" y="357.594438" style="fill: #cc7af4"/>
    </g>
    <g clip-path="url(#pea4596532c)">
     <use xlink:href="#C4_0_453f972d49" x="451.094628" y="349.967682" style="fill: #cc7af4"/>
    </g>
    <g clip-path="url(#pea4596532c)">
     <use xlink:href="#C4_0_453f972d49" x="477.572087" y="356.386405" style="fill: #cc7af4"/>
    </g>
    <g clip-path="url(#pea4596532c)">
     <use xlink:href="#C4_0_453f972d49" x="500.146843" y="347.507974" style="fill: #cc7af4"/>
    </g>
    <g clip-path="url(#pea4596532c)">
     <use xlink:href="#C4_0_453f972d49" x="401.96631" y="345.944687" style="fill: #cc7af4"/>
    </g>
    <g clip-path="url(#pea4596532c)">
     <use xlink:href="#C4_0_453f972d49" x="429.007204" y="351.370624" style="fill: #cc7af4"/>
    </g>
    <g clip-path="url(#pea4596532c)">
     <use xlink:href="#C4_0_453f972d49" x="307.716046" y="355.080991" style="fill: #cc7af4"/>
    </g>
    <g clip-path="url(#pea4596532c)">
     <use xlink:href="#C4_0_453f972d49" x="253.091349" y="344.748135" style="fill: #cc7af4"/>
    </g>
    <g clip-path="url(#pea4596532c)">
     <use xlink:href="#C4_0_453f972d49" x="179.102461" y="356.344181" style="fill: #cc7af4"/>
    </g>
    <g clip-path="url(#pea4596532c)">
     <use xlink:href="#C4_0_453f972d49" x="203.214965" y="351.24108" style="fill: #cc7af4"/>
    </g>
    <g clip-path="url(#pea4596532c)">
     <use xlink:href="#C4_0_453f972d49" x="305.078797" y="349.669035" style="fill: #cc7af4"/>
    </g>
    <g clip-path="url(#pea4596532c)">
     <use xlink:href="#C4_0_453f972d49" x="298.328914" y="357.804934" style="fill: #cc7af4"/>
    </g>
    <g clip-path="url(#pea4596532c)">
     <use xlink:href="#C4_0_453f972d49" x="325.115512" y="349.870509" style="fill: #cc7af4"/>
    </g>
    <g clip-path="url(#pea4596532c)">
     <use xlink:href="#C4_0_453f972d49" x="231.369329" y="352.706019" style="fill: #cc7af4"/>
    </g>
    <g clip-path="url(#pea4596532c)">
     <use xlink:href="#C4_0_453f972d49" x="223.083014" y="355.320412" style="fill: #cc7af4"/>
    </g>
    <g clip-path="url(#pea4596532c)">
     <use xlink:href="#C4_0_453f972d49" x="215.018932" y="357.848713" style="fill: #cc7af4"/>
    </g>
   </g>
   <g id="PolyCollection_1">
    <defs>
     <path id="mdac90997db" d="M 238.406182 -385.831229 
L 238.406182 -392.485584 
L 242.483654 -392.723725 
L 246.561125 -392.837617 
L 250.638596 -392.859374 
L 254.716067 -392.834954 
L 258.793538 -392.817742 
L 262.871009 -392.861686 
L 266.94848 -393.015351 
L 271.025951 -393.3178 
L 275.103422 -393.796467 
L 279.180894 -394.466554 
L 283.258365 -395.331119 
L 287.335836 -396.381075 
L 291.413307 -397.594738 
L 295.490778 -398.937122 
L 299.568249 -400.359747 
L 303.64572 -401.801926 
L 307.723191 -403.194347 
L 311.800662 -404.465191 
L 315.878134 -405.548262 
L 319.955605 -406.391803 
L 324.033076 -406.966204 
L 328.110547 -407.268728 
L 332.188018 -407.323899 
L 336.265489 -407.179072 
L 340.34296 -406.895869 
L 344.420431 -406.53915 
L 348.497902 -406.165899 
L 352.575374 -405.816432 
L 356.652845 -405.50984 
L 360.730316 -405.244507 
L 364.807787 -405.003302 
L 368.885258 -404.761862 
L 372.962729 -404.497664 
L 377.0402 -404.197487 
L 381.117671 -403.861399 
L 385.195142 -403.502515 
L 389.272614 -403.142956 
L 393.350085 -402.807517 
L 397.427556 -402.517088 
L 401.505027 -402.283726 
L 405.582498 -402.108597 
L 409.659969 -401.982944 
L 413.73744 -401.891263 
L 417.814911 -401.815235 
L 421.892382 -401.736958 
L 425.969854 -401.640465 
L 430.047325 -401.511399 
L 434.124796 -401.335463 
L 438.202267 -401.096764 
L 442.279738 -400.777184 
L 446.357209 -400.357425 
L 450.43468 -399.819734 
L 454.512151 -399.15163 
L 458.589622 -398.34961 
L 462.667094 -397.421809 
L 466.744565 -396.388898 
L 470.822036 -395.283028 
L 474.899507 -394.145072 
L 478.976978 -393.020728 
L 483.054449 -391.956175 
L 487.13192 -390.993839 
L 491.209391 -390.168728 
L 495.286863 -389.505581 
L 499.364334 -389.016976 
L 503.441805 -388.702517 
L 507.519276 -388.549175 
L 511.596747 -388.532869 
L 515.674218 -388.621282 
L 519.751689 -388.777751 
L 523.82916 -388.96584 
L 527.906631 -389.153986 
L 531.984103 -389.319457 
L 536.061574 -389.45087 
L 540.139045 -389.548743 
L 544.216516 -389.623951 
L 548.293987 -389.694446 
L 552.371458 -389.780996 
L 556.448929 -389.902937 
L 560.5264 -390.074825 
L 564.603871 -390.304555 
L 568.681343 -390.593018 
L 572.758814 -390.9349 
L 576.836285 -391.319987 
L 580.913756 -391.734369 
L 584.991227 -392.1612 
L 589.068698 -392.581095 
L 593.146169 -392.972547 
L 597.22364 -393.31283 
L 601.301111 -393.579672 
L 605.378583 -393.753585 
L 609.456054 -393.820351 
L 613.533525 -393.77295 
L 617.610996 -393.612299 
L 621.688467 -393.346552 
L 625.765938 -392.989157 
L 629.843409 -392.556325 
L 633.92088 -392.064681 
L 637.998351 -391.52973 
L 642.075823 -390.965414 
L 642.075823 -385.831229 
L 642.075823 -385.831229 
L 637.998351 -385.831229 
L 633.92088 -385.831229 
L 629.843409 -385.831229 
L 625.765938 -385.831229 
L 621.688467 -385.831229 
L 617.610996 -385.831229 
L 613.533525 -385.831229 
L 609.456054 -385.831229 
L 605.378583 -385.831229 
L 601.301111 -385.831229 
L 597.22364 -385.831229 
L 593.146169 -385.831229 
L 589.068698 -385.831229 
L 584.991227 -385.831229 
L 580.913756 -385.831229 
L 576.836285 -385.831229 
L 572.758814 -385.831229 
L 568.681343 -385.831229 
L 564.603871 -385.831229 
L 560.5264 -385.831229 
L 556.448929 -385.831229 
L 552.371458 -385.831229 
L 548.293987 -385.831229 
L 544.216516 -385.831229 
L 540.139045 -385.831229 
L 536.061574 -385.831229 
L 531.984103 -385.831229 
L 527.906631 -385.831229 
L 523.82916 -385.831229 
L 519.751689 -385.831229 
L 515.674218 -385.831229 
L 511.596747 -385.831229 
L 507.519276 -385.831229 
L 503.441805 -385.831229 
L 499.364334 -385.831229 
L 495.286863 -385.831229 
L 491.209391 -385.831229 
L 487.13192 -385.831229 
L 483.054449 -385.831229 
L 478.976978 -385.831229 
L 474.899507 -385.831229 
L 470.822036 -385.831229 
L 466.744565 -385.831229 
L 462.667094 -385.831229 
L 458.589622 -385.831229 
L 454.512151 -385.831229 
L 450.43468 -385.831229 
L 446.357209 -385.831229 
L 442.279738 -385.831229 
L 438.202267 -385.831229 
L 434.124796 -385.831229 
L 430.047325 -385.831229 
L 425.969854 -385.831229 
L 421.892382 -385.831229 
L 417.814911 -385.831229 
L 413.73744 -385.831229 
L 409.659969 -385.831229 
L 405.582498 -385.831229 
L 401.505027 -385.831229 
L 397.427556 -385.831229 
L 393.350085 -385.831229 
L 389.272614 -385.831229 
L 385.195142 -385.831229 
L 381.117671 -385.831229 
L 377.0402 -385.831229 
L 372.962729 -385.831229 
L 368.885258 -385.831229 
L 364.807787 -385.831229 
L 360.730316 -385.831229 
L 356.652845 -385.831229 
L 352.575374 -385.831229 
L 348.497902 -385.831229 
L 344.420431 -385.831229 
L 340.34296 -385.831229 
L 336.265489 -385.831229 
L 332.188018 -385.831229 
L 328.110547 -385.831229 
L 324.033076 -385.831229 
L 319.955605 -385.831229 
L 315.878134 -385.831229 
L 311.800662 -385.831229 
L 307.723191 -385.831229 
L 303.64572 -385.831229 
L 299.568249 -385.831229 
L 295.490778 -385.831229 
L 291.413307 -385.831229 
L 287.335836 -385.831229 
L 283.258365 -385.831229 
L 279.180894 -385.831229 
L 275.103422 -385.831229 
L 271.025951 -385.831229 
L 266.94848 -385.831229 
L 262.871009 -385.831229 
L 258.793538 -385.831229 
L 254.716067 -385.831229 
L 250.638596 -385.831229 
L 246.561125 -385.831229 
L 242.483654 -385.831229 
L 238.406182 -385.831229 
z
" style="stroke: #434343; stroke-opacity: 0.65"/>
    </defs>
    <g clip-path="url(#pea4596532c)">
     <use xlink:href="#mdac90997db" x="0" y="432" style="fill: #e68193; fill-opacity: 0.65; stroke: #434343; stroke-opacity: 0.65"/>
    </g>
   </g>
   <g id="PolyCollection_2">
    <defs>
     <path id="m6e3ec83d02" d="M 142.114446 -313.279904 
L 142.114446 -316.950479 
L 146.555369 -317.254763 
L 150.996293 -317.547036 
L 155.437217 -317.840642 
L 159.878141 -318.152813 
L 164.319065 -318.502644 
L 168.759989 -318.90893 
L 173.200912 -319.388099 
L 177.641836 -319.952385 
L 182.08276 -320.608283 
L 186.523684 -321.355369 
L 190.964608 -322.185594 
L 195.405532 -323.083265 
L 199.846455 -324.025928 
L 204.287379 -324.986286 
L 208.728303 -325.935076 
L 213.169227 -326.844527 
L 217.610151 -327.691838 
L 222.051075 -328.461952 
L 226.491998 -329.149034 
L 230.932922 -329.756312 
L 235.373846 -330.294357 
L 239.81477 -330.778215 
L 244.255694 -331.224093 
L 248.696618 -331.64625 
L 253.137541 -332.054582 
L 257.578465 -332.453068 
L 262.019389 -332.838912 
L 266.460313 -333.202151 
L 270.901237 -333.52553 
L 275.342161 -333.78472 
L 279.783084 -333.949191 
L 284.224008 -333.984166 
L 288.664932 -333.853894 
L 293.105856 -333.52613 
L 297.54678 -332.977167 
L 301.987704 -332.196454 
L 306.428627 -331.189677 
L 310.869551 -329.979518 
L 315.310475 -328.603807 
L 319.751399 -327.111439 
L 324.192323 -325.556964 
L 328.633247 -323.994971 
L 333.074171 -322.475306 
L 337.515094 -321.039829 
L 341.956018 -319.72094 
L 346.396942 -318.541703 
L 350.837866 -317.517153 
L 355.27879 -316.656274 
L 359.719714 -315.964223 
L 364.160637 -315.444446 
L 368.601561 -315.100461 
L 373.042485 -314.937098 
L 377.483409 -314.960988 
L 381.924333 -315.180102 
L 386.365257 -315.60218 
L 390.80618 -316.232057 
L 395.247104 -317.068109 
L 399.688028 -318.098329 
L 404.128952 -319.296798 
L 408.569876 -320.621451 
L 413.0108 -322.013988 
L 417.451723 -323.402501 
L 421.892647 -324.706931 
L 426.333571 -325.846879 
L 430.774495 -326.750712 
L 435.215419 -327.364528 
L 439.656343 -327.659372 
L 444.097266 -327.63533 
L 448.53819 -327.321616 
L 452.979114 -326.772494 
L 457.420038 -326.059634 
L 461.860962 -325.262214 
L 466.301886 -324.456437 
L 470.742809 -323.706267 
L 475.183733 -323.05688 
L 479.624657 -322.531772 
L 484.065581 -322.133663 
L 488.506505 -321.848625 
L 492.947429 -321.652179 
L 497.388352 -321.51585 
L 501.829276 -321.41275 
L 506.2702 -321.321169 
L 510.711124 -321.225859 
L 515.152048 -321.117341 
L 519.592972 -320.990078 
L 524.033896 -320.840498 
L 528.474819 -320.665691 
L 532.915743 -320.463135 
L 537.356667 -320.231301 
L 541.797591 -319.970624 
L 546.238515 -319.684162 
L 550.679439 -319.377468 
L 555.120362 -319.057544 
L 559.561286 -318.73115 
L 564.00221 -318.403061 
L 568.443134 -318.074888 
L 572.884058 -317.744924 
L 577.324982 -317.40911 
L 581.765905 -317.062825 
L 581.765905 -313.279904 
L 581.765905 -313.279904 
L 577.324982 -313.279904 
L 572.884058 -313.279904 
L 568.443134 -313.279904 
L 564.00221 -313.279904 
L 559.561286 -313.279904 
L 555.120362 -313.279904 
L 550.679439 -313.279904 
L 546.238515 -313.279904 
L 541.797591 -313.279904 
L 537.356667 -313.279904 
L 532.915743 -313.279904 
L 528.474819 -313.279904 
L 524.033896 -313.279904 
L 519.592972 -313.279904 
L 515.152048 -313.279904 
L 510.711124 -313.279904 
L 506.2702 -313.279904 
L 501.829276 -313.279904 
L 497.388352 -313.279904 
L 492.947429 -313.279904 
L 488.506505 -313.279904 
L 484.065581 -313.279904 
L 479.624657 -313.279904 
L 475.183733 -313.279904 
L 470.742809 -313.279904 
L 466.301886 -313.279904 
L 461.860962 -313.279904 
L 457.420038 -313.279904 
L 452.979114 -313.279904 
L 448.53819 -313.279904 
L 444.097266 -313.279904 
L 439.656343 -313.279904 
L 435.215419 -313.279904 
L 430.774495 -313.279904 
L 426.333571 -313.279904 
L 421.892647 -313.279904 
L 417.451723 -313.279904 
L 413.0108 -313.279904 
L 408.569876 -313.279904 
L 404.128952 -313.279904 
L 399.688028 -313.279904 
L 395.247104 -313.279904 
L 390.80618 -313.279904 
L 386.365257 -313.279904 
L 381.924333 -313.279904 
L 377.483409 -313.279904 
L 373.042485 -313.279904 
L 368.601561 -313.279904 
L 364.160637 -313.279904 
L 359.719714 -313.279904 
L 355.27879 -313.279904 
L 350.837866 -313.279904 
L 346.396942 -313.279904 
L 341.956018 -313.279904 
L 337.515094 -313.279904 
L 333.074171 -313.279904 
L 328.633247 -313.279904 
L 324.192323 -313.279904 
L 319.751399 -313.279904 
L 315.310475 -313.279904 
L 310.869551 -313.279904 
L 306.428627 -313.279904 
L 301.987704 -313.279904 
L 297.54678 -313.279904 
L 293.105856 -313.279904 
L 288.664932 -313.279904 
L 284.224008 -313.279904 
L 279.783084 -313.279904 
L 275.342161 -313.279904 
L 270.901237 -313.279904 
L 266.460313 -313.279904 
L 262.019389 -313.279904 
L 257.578465 -313.279904 
L 253.137541 -313.279904 
L 248.696618 -313.279904 
L 244.255694 -313.279904 
L 239.81477 -313.279904 
L 235.373846 -313.279904 
L 230.932922 -313.279904 
L 226.491998 -313.279904 
L 222.051075 -313.279904 
L 217.610151 -313.279904 
L 213.169227 -313.279904 
L 208.728303 -313.279904 
L 204.287379 -313.279904 
L 199.846455 -313.279904 
L 195.405532 -313.279904 
L 190.964608 -313.279904 
L 186.523684 -313.279904 
L 182.08276 -313.279904 
L 177.641836 -313.279904 
L 173.200912 -313.279904 
L 168.759989 -313.279904 
L 164.319065 -313.279904 
L 159.878141 -313.279904 
L 155.437217 -313.279904 
L 150.996293 -313.279904 
L 146.555369 -313.279904 
L 142.114446 -313.279904 
z
" style="stroke: #434343; stroke-opacity: 0.65"/>
    </defs>
    <g clip-path="url(#pea4596532c)">
     <use xlink:href="#m6e3ec83d02" x="0" y="432" style="fill: #9e9241; fill-opacity: 0.65; stroke: #434343; stroke-opacity: 0.65"/>
    </g>
   </g>
   <g id="PolyCollection_3">
    <defs>
     <path id="m224b3b16f1" d="M 163.829676 -240.728578 
L 163.829676 -248.520237 
L 169.059922 -249.670378 
L 174.290169 -250.74186 
L 179.520416 -251.687522 
L 184.750662 -252.47519 
L 189.980909 -253.094206 
L 195.211155 -253.558816 
L 200.441402 -253.907068 
L 205.671649 -254.194672 
L 210.901895 -254.484413 
L 216.132142 -254.832863 
L 221.362388 -255.27708 
L 226.592635 -255.824315 
L 231.822882 -256.447454 
L 237.053128 -257.087821 
L 242.283375 -257.665372 
L 247.513622 -258.094489 
L 252.743868 -258.302025 
L 257.974115 -258.243386 
L 263.204361 -257.912671 
L 268.434608 -257.34419 
L 273.664855 -256.60486 
L 278.895101 -255.779285 
L 284.125348 -254.951296 
L 289.355595 -254.186516 
L 294.585841 -253.520136 
L 299.816088 -252.952525 
L 305.046334 -252.45319 
L 310.276581 -251.971455 
L 315.506828 -251.450823 
L 320.737074 -250.843373 
L 325.967321 -250.121055 
L 331.197567 -249.281872 
L 336.427814 -248.350444 
L 341.658061 -247.373795 
L 346.888307 -246.414111 
L 352.118554 -245.540483 
L 357.348801 -244.821338 
L 362.579047 -244.318548 
L 367.809294 -244.083369 
L 373.03954 -244.153698 
L 378.269787 -244.5518 
L 383.500034 -245.281782 
L 388.73028 -246.326599 
L 393.960527 -247.645095 
L 399.190774 -249.170253 
L 404.42102 -250.810204 
L 409.651267 -252.45341 
L 414.881513 -253.978642 
L 420.11176 -255.269157 
L 425.342007 -256.229017 
L 430.572253 -256.798294 
L 435.8025 -256.963479 
L 441.032746 -256.760014 
L 446.262993 -256.265487 
L 451.49324 -255.584382 
L 456.723486 -254.827583 
L 461.953733 -254.091374 
L 467.18398 -253.440932 
L 472.414226 -252.902076 
L 477.644473 -252.462722 
L 482.874719 -252.082828 
L 488.104966 -251.709446 
L 493.335213 -251.292428 
L 498.565459 -250.796716 
L 503.795706 -250.208577 
L 509.025953 -249.535243 
L 514.256199 -248.799323 
L 519.486446 -248.030586 
L 524.716692 -247.257972 
L 529.946939 -246.504056 
L 535.177186 -245.782944 
L 540.407432 -245.101314 
L 545.637679 -244.461382 
L 550.867925 -243.864214 
L 556.098172 -243.312091 
L 561.328419 -242.809279 
L 566.558665 -242.361304 
L 571.788912 -241.973326 
L 577.019159 -241.648457 
L 582.249405 -241.386663 
L 587.479652 -241.184587 
L 592.709898 -241.036258 
L 597.940145 -240.934393 
L 603.170392 -240.871901 
L 608.400638 -240.843228 
L 613.630885 -240.845305 
L 618.861131 -240.877931 
L 624.091378 -240.943531 
L 629.321625 -241.046254 
L 634.551871 -241.190453 
L 639.782118 -241.378694 
L 645.012365 -241.60959 
L 650.242611 -241.875919 
L 655.472858 -242.163595 
L 660.703104 -242.451982 
L 665.933351 -242.715832 
L 671.163598 -242.928698 
L 676.393844 -243.067215 
L 681.624091 -243.115299 
L 681.624091 -240.728578 
L 681.624091 -240.728578 
L 676.393844 -240.728578 
L 671.163598 -240.728578 
L 665.933351 -240.728578 
L 660.703104 -240.728578 
L 655.472858 -240.728578 
L 650.242611 -240.728578 
L 645.012365 -240.728578 
L 639.782118 -240.728578 
L 634.551871 -240.728578 
L 629.321625 -240.728578 
L 624.091378 -240.728578 
L 618.861131 -240.728578 
L 613.630885 -240.728578 
L 608.400638 -240.728578 
L 603.170392 -240.728578 
L 597.940145 -240.728578 
L 592.709898 -240.728578 
L 587.479652 -240.728578 
L 582.249405 -240.728578 
L 577.019159 -240.728578 
L 571.788912 -240.728578 
L 566.558665 -240.728578 
L 561.328419 -240.728578 
L 556.098172 -240.728578 
L 550.867925 -240.728578 
L 545.637679 -240.728578 
L 540.407432 -240.728578 
L 535.177186 -240.728578 
L 529.946939 -240.728578 
L 524.716692 -240.728578 
L 519.486446 -240.728578 
L 514.256199 -240.728578 
L 509.025953 -240.728578 
L 503.795706 -240.728578 
L 498.565459 -240.728578 
L 493.335213 -240.728578 
L 488.104966 -240.728578 
L 482.874719 -240.728578 
L 477.644473 -240.728578 
L 472.414226 -240.728578 
L 467.18398 -240.728578 
L 461.953733 -240.728578 
L 456.723486 -240.728578 
L 451.49324 -240.728578 
L 446.262993 -240.728578 
L 441.032746 -240.728578 
L 435.8025 -240.728578 
L 430.572253 -240.728578 
L 425.342007 -240.728578 
L 420.11176 -240.728578 
L 414.881513 -240.728578 
L 409.651267 -240.728578 
L 404.42102 -240.728578 
L 399.190774 -240.728578 
L 393.960527 -240.728578 
L 388.73028 -240.728578 
L 383.500034 -240.728578 
L 378.269787 -240.728578 
L 373.03954 -240.728578 
L 367.809294 -240.728578 
L 362.579047 -240.728578 
L 357.348801 -240.728578 
L 352.118554 -240.728578 
L 346.888307 -240.728578 
L 341.658061 -240.728578 
L 336.427814 -240.728578 
L 331.197567 -240.728578 
L 325.967321 -240.728578 
L 320.737074 -240.728578 
L 315.506828 -240.728578 
L 310.276581 -240.728578 
L 305.046334 -240.728578 
L 299.816088 -240.728578 
L 294.585841 -240.728578 
L 289.355595 -240.728578 
L 284.125348 -240.728578 
L 278.895101 -240.728578 
L 273.664855 -240.728578 
L 268.434608 -240.728578 
L 263.204361 -240.728578 
L 257.974115 -240.728578 
L 252.743868 -240.728578 
L 247.513622 -240.728578 
L 242.283375 -240.728578 
L 237.053128 -240.728578 
L 231.822882 -240.728578 
L 226.592635 -240.728578 
L 221.362388 -240.728578 
L 216.132142 -240.728578 
L 210.901895 -240.728578 
L 205.671649 -240.728578 
L 200.441402 -240.728578 
L 195.211155 -240.728578 
L 189.980909 -240.728578 
L 184.750662 -240.728578 
L 179.520416 -240.728578 
L 174.290169 -240.728578 
L 169.059922 -240.728578 
L 163.829676 -240.728578 
z
" style="stroke: #434343; stroke-opacity: 0.65"/>
    </defs>
    <g clip-path="url(#pea4596532c)">
     <use xlink:href="#m224b3b16f1" x="0" y="432" style="fill: #43a178; fill-opacity: 0.65; stroke: #434343; stroke-opacity: 0.65"/>
    </g>
   </g>
   <g id="PolyCollection_4">
    <defs>
     <path id="m7520676737" d="M 130.105909 -168.177253 
L 130.105909 -174.853137 
L 135.251861 -175.469843 
L 140.397812 -176.022355 
L 145.543763 -176.532636 
L 150.689715 -177.040144 
L 155.835666 -177.596163 
L 160.981618 -178.254895 
L 166.127569 -179.06287 
L 171.273521 -180.048698 
L 176.419472 -181.215271 
L 181.565423 -182.536009 
L 186.711375 -183.955998 
L 191.857326 -185.397838 
L 197.003278 -186.771136 
L 202.149229 -187.983949 
L 207.295181 -188.954209 
L 212.441132 -189.619334 
L 217.587083 -189.942651 
L 222.733035 -189.915945 
L 227.878986 -189.55811 
L 233.024938 -188.910513 
L 238.170889 -188.030138 
L 243.316841 -186.981809 
L 248.462792 -185.830765 
L 253.608743 -184.636665 
L 258.754695 -183.449686 
L 263.900646 -182.308902 
L 269.046598 -181.242662 
L 274.192549 -180.270331 
L 279.338501 -179.40457 
L 284.484452 -178.653398 
L 289.630403 -178.021467 
L 294.776355 -177.510368 
L 299.922306 -177.118108 
L 305.068258 -176.838193 
L 310.214209 -176.658843 
L 315.360161 -176.562805 
L 320.506112 -176.528033 
L 325.652063 -176.529232 
L 330.798015 -176.540007 
L 335.943966 -176.535235 
L 341.089918 -176.493231 
L 346.235869 -176.39741 
L 351.381821 -176.237285 
L 356.527772 -176.008859 
L 361.673723 -175.714552 
L 366.819675 -175.362828 
L 371.965626 -174.96765 
L 377.111578 -174.547755 
L 382.257529 -174.125668 
L 387.403481 -173.7264 
L 392.549432 -173.375782 
L 397.695384 -173.098575 
L 402.841335 -172.916542 
L 407.987286 -172.846763 
L 413.133238 -172.900349 
L 418.279189 -173.081632 
L 423.425141 -173.387732 
L 428.571092 -173.808355 
L 433.717044 -174.3257 
L 438.862995 -174.914544 
L 444.008946 -175.542701 
L 449.154898 -176.17219 
L 454.300849 -176.761383 
L 459.446801 -177.268143 
L 464.592752 -177.653707 
L 469.738704 -177.886666 
L 474.884655 -177.946324 
L 480.030606 -177.824735 
L 485.176558 -177.527023 
L 490.322509 -177.06999 
L 495.468461 -176.479428 
L 500.614412 -175.786765 
L 505.760364 -175.025739 
L 510.906315 -174.229633 
L 516.052266 -173.429328 
L 521.198218 -172.652196 
L 526.344169 -171.921632 
L 531.490121 -171.256995 
L 536.636072 -170.673727 
L 541.782024 -170.183548 
L 546.927975 -169.794648 
L 552.073926 -169.511874 
L 557.219878 -169.336888 
L 562.365829 -169.268261 
L 567.511781 -169.301452 
L 572.657732 -169.42867 
L 577.803684 -169.638678 
L 582.949635 -169.916658 
L 588.095586 -170.244302 
L 593.241538 -170.600287 
L 598.387489 -170.961186 
L 603.533441 -171.302816 
L 608.679392 -171.601864 
L 613.825344 -171.837608 
L 618.971295 -171.99351 
L 624.117246 -172.058501 
L 629.263198 -172.027813 
L 634.409149 -171.903291 
L 639.555101 -171.693138 
L 639.555101 -168.177253 
L 639.555101 -168.177253 
L 634.409149 -168.177253 
L 629.263198 -168.177253 
L 624.117246 -168.177253 
L 618.971295 -168.177253 
L 613.825344 -168.177253 
L 608.679392 -168.177253 
L 603.533441 -168.177253 
L 598.387489 -168.177253 
L 593.241538 -168.177253 
L 588.095586 -168.177253 
L 582.949635 -168.177253 
L 577.803684 -168.177253 
L 572.657732 -168.177253 
L 567.511781 -168.177253 
L 562.365829 -168.177253 
L 557.219878 -168.177253 
L 552.073926 -168.177253 
L 546.927975 -168.177253 
L 541.782024 -168.177253 
L 536.636072 -168.177253 
L 531.490121 -168.177253 
L 526.344169 -168.177253 
L 521.198218 -168.177253 
L 516.052266 -168.177253 
L 510.906315 -168.177253 
L 505.760364 -168.177253 
L 500.614412 -168.177253 
L 495.468461 -168.177253 
L 490.322509 -168.177253 
L 485.176558 -168.177253 
L 480.030606 -168.177253 
L 474.884655 -168.177253 
L 469.738704 -168.177253 
L 464.592752 -168.177253 
L 459.446801 -168.177253 
L 454.300849 -168.177253 
L 449.154898 -168.177253 
L 444.008946 -168.177253 
L 438.862995 -168.177253 
L 433.717044 -168.177253 
L 428.571092 -168.177253 
L 423.425141 -168.177253 
L 418.279189 -168.177253 
L 413.133238 -168.177253 
L 407.987286 -168.177253 
L 402.841335 -168.177253 
L 397.695384 -168.177253 
L 392.549432 -168.177253 
L 387.403481 -168.177253 
L 382.257529 -168.177253 
L 377.111578 -168.177253 
L 371.965626 -168.177253 
L 366.819675 -168.177253 
L 361.673723 -168.177253 
L 356.527772 -168.177253 
L 351.381821 -168.177253 
L 346.235869 -168.177253 
L 341.089918 -168.177253 
L 335.943966 -168.177253 
L 330.798015 -168.177253 
L 325.652063 -168.177253 
L 320.506112 -168.177253 
L 315.360161 -168.177253 
L 310.214209 -168.177253 
L 305.068258 -168.177253 
L 299.922306 -168.177253 
L 294.776355 -168.177253 
L 289.630403 -168.177253 
L 284.484452 -168.177253 
L 279.338501 -168.177253 
L 274.192549 -168.177253 
L 269.046598 -168.177253 
L 263.900646 -168.177253 
L 258.754695 -168.177253 
L 253.608743 -168.177253 
L 248.462792 -168.177253 
L 243.316841 -168.177253 
L 238.170889 -168.177253 
L 233.024938 -168.177253 
L 227.878986 -168.177253 
L 222.733035 -168.177253 
L 217.587083 -168.177253 
L 212.441132 -168.177253 
L 207.295181 -168.177253 
L 202.149229 -168.177253 
L 197.003278 -168.177253 
L 191.857326 -168.177253 
L 186.711375 -168.177253 
L 181.565423 -168.177253 
L 176.419472 -168.177253 
L 171.273521 -168.177253 
L 166.127569 -168.177253 
L 160.981618 -168.177253 
L 155.835666 -168.177253 
L 150.689715 -168.177253 
L 145.543763 -168.177253 
L 140.397812 -168.177253 
L 135.251861 -168.177253 
L 130.105909 -168.177253 
z
" style="stroke: #434343; stroke-opacity: 0.65"/>
    </defs>
    <g clip-path="url(#pea4596532c)">
     <use xlink:href="#m7520676737" x="0" y="432" style="fill: #4a9eb4; fill-opacity: 0.65; stroke: #434343; stroke-opacity: 0.65"/>
    </g>
   </g>
   <g id="PolyCollection_5">
    <defs>
     <path id="mb241d27835" d="M 139.254199 -95.625928 
L 139.254199 -99.120604 
L 142.987726 -99.360919 
L 146.721252 -99.606732 
L 150.454779 -99.879728 
L 154.188306 -100.205212 
L 157.921833 -100.609332 
L 161.65536 -101.115989 
L 165.388886 -101.743829 
L 169.122413 -102.503652 
L 172.85594 -103.396554 
L 176.589467 -104.412965 
L 180.322993 -105.532697 
L 184.05652 -106.72603 
L 187.790047 -107.95574 
L 191.523574 -109.179906 
L 195.257101 -110.355193 
L 198.990627 -111.440233 
L 202.724154 -112.398651 
L 206.457681 -113.20134 
L 210.191208 -113.827698 
L 213.924735 -114.265767 
L 217.658261 -114.511453 
L 221.391788 -114.567225 
L 225.125315 -114.440793 
L 228.858842 -114.144248 
L 232.592368 -113.693925 
L 236.325895 -113.111027 
L 240.059422 -112.422666 
L 243.792949 -111.662819 
L 247.526476 -110.872546 
L 251.260002 -110.098941 
L 254.993529 -109.392528 
L 258.727056 -108.803176 
L 262.460583 -108.374998 
L 266.19411 -108.140996 
L 269.927636 -108.118365 
L 273.661163 -108.305361 
L 277.39469 -108.680376 
L 281.128217 -109.20355 
L 284.861743 -109.820769 
L 288.59527 -110.469525 
L 292.328797 -111.085783 
L 296.062324 -111.610852 
L 299.795851 -111.997282 
L 303.529377 -112.213011 
L 307.262904 -112.243286 
L 310.996431 -112.09029 
L 314.729958 -111.770705 
L 318.463485 -111.311787 
L 322.197011 -110.746638 
L 325.930538 -110.109438 
L 329.664065 -109.431336 
L 333.397592 -108.737524 
L 337.131118 -108.045836 
L 340.864645 -107.36694 
L 344.598172 -106.705947 
L 348.331699 -106.065007 
L 352.065226 -105.44628 
L 355.798752 -104.854591 
L 359.532279 -104.299111 
L 363.265806 -103.793622 
L 366.999333 -103.355195 
L 370.73286 -103.001526 
L 374.466386 -102.74748 
L 378.199913 -102.601637 
L 381.93344 -102.563669 
L 385.666967 -102.623206 
L 389.400493 -102.76055 
L 393.13402 -102.949147 
L 396.867547 -103.159354 
L 400.601074 -103.362771 
L 404.334601 -103.536297 
L 408.068127 -103.665192 
L 411.801654 -103.744676 
L 415.535181 -103.779947 
L 419.268708 -103.784794 
L 423.002235 -103.779249 
L 426.735761 -103.786759 
L 430.469288 -103.831377 
L 434.202815 -103.935276 
L 437.936342 -104.116776 
L 441.669868 -104.388877 
L 445.403395 -104.758233 
L 449.136922 -105.224479 
L 452.870449 -105.779853 
L 456.603976 -106.40912 
L 460.337502 -107.08986 
L 464.071029 -107.793185 
L 467.804556 -108.484958 
L 471.538083 -109.127501 
L 475.27161 -109.681735 
L 479.005136 -110.10964 
L 482.738663 -110.376854 
L 486.47219 -110.45524 
L 490.205717 -110.325205 
L 493.939243 -109.977574 
L 497.67277 -109.414798 
L 501.406297 -108.651324 
L 505.139824 -107.712989 
L 508.873351 -106.635383 
L 508.873351 -95.625928 
L 508.873351 -95.625928 
L 505.139824 -95.625928 
L 501.406297 -95.625928 
L 497.67277 -95.625928 
L 493.939243 -95.625928 
L 490.205717 -95.625928 
L 486.47219 -95.625928 
L 482.738663 -95.625928 
L 479.005136 -95.625928 
L 475.27161 -95.625928 
L 471.538083 -95.625928 
L 467.804556 -95.625928 
L 464.071029 -95.625928 
L 460.337502 -95.625928 
L 456.603976 -95.625928 
L 452.870449 -95.625928 
L 449.136922 -95.625928 
L 445.403395 -95.625928 
L 441.669868 -95.625928 
L 437.936342 -95.625928 
L 434.202815 -95.625928 
L 430.469288 -95.625928 
L 426.735761 -95.625928 
L 423.002235 -95.625928 
L 419.268708 -95.625928 
L 415.535181 -95.625928 
L 411.801654 -95.625928 
L 408.068127 -95.625928 
L 404.334601 -95.625928 
L 400.601074 -95.625928 
L 396.867547 -95.625928 
L 393.13402 -95.625928 
L 389.400493 -95.625928 
L 385.666967 -95.625928 
L 381.93344 -95.625928 
L 378.199913 -95.625928 
L 374.466386 -95.625928 
L 370.73286 -95.625928 
L 366.999333 -95.625928 
L 363.265806 -95.625928 
L 359.532279 -95.625928 
L 355.798752 -95.625928 
L 352.065226 -95.625928 
L 348.331699 -95.625928 
L 344.598172 -95.625928 
L 340.864645 -95.625928 
L 337.131118 -95.625928 
L 333.397592 -95.625928 
L 329.664065 -95.625928 
L 325.930538 -95.625928 
L 322.197011 -95.625928 
L 318.463485 -95.625928 
L 314.729958 -95.625928 
L 310.996431 -95.625928 
L 307.262904 -95.625928 
L 303.529377 -95.625928 
L 299.795851 -95.625928 
L 296.062324 -95.625928 
L 292.328797 -95.625928 
L 288.59527 -95.625928 
L 284.861743 -95.625928 
L 281.128217 -95.625928 
L 277.39469 -95.625928 
L 273.661163 -95.625928 
L 269.927636 -95.625928 
L 266.19411 -95.625928 
L 262.460583 -95.625928 
L 258.727056 -95.625928 
L 254.993529 -95.625928 
L 251.260002 -95.625928 
L 247.526476 -95.625928 
L 243.792949 -95.625928 
L 240.059422 -95.625928 
L 236.325895 -95.625928 
L 232.592368 -95.625928 
L 228.858842 -95.625928 
L 225.125315 -95.625928 
L 221.391788 -95.625928 
L 217.658261 -95.625928 
L 213.924735 -95.625928 
L 210.191208 -95.625928 
L 206.457681 -95.625928 
L 202.724154 -95.625928 
L 198.990627 -95.625928 
L 195.257101 -95.625928 
L 191.523574 -95.625928 
L 187.790047 -95.625928 
L 184.05652 -95.625928 
L 180.322993 -95.625928 
L 176.589467 -95.625928 
L 172.85594 -95.625928 
L 169.122413 -95.625928 
L 165.388886 -95.625928 
L 161.65536 -95.625928 
L 157.921833 -95.625928 
L 154.188306 -95.625928 
L 150.454779 -95.625928 
L 146.721252 -95.625928 
L 142.987726 -95.625928 
L 139.254199 -95.625928 
z
" style="stroke: #434343; stroke-opacity: 0.65"/>
    </defs>
    <g clip-path="url(#pea4596532c)">
     <use xlink:href="#mb241d27835" x="0" y="432" style="fill: #c789e5; fill-opacity: 0.65; stroke: #434343; stroke-opacity: 0.65"/>
    </g>
   </g>
   <g id="matplotlib.axis_1">
    <g id="xtick_1">
     <g id="line2d_1">
      <defs>
       <path id="m6cdb364994" d="M 0 0 
L 0 3.5 
" style="stroke: #000000; stroke-width: 0.8"/>
      </defs>
      <g>
       <use xlink:href="#m6cdb364994" x="108.633688" y="387.16" style="stroke: #000000; stroke-width: 0.8"/>
      </g>
     </g>
     <g id="text_1">
      <!-- 1 -->
      <g transform="translate(105.452438 401.758438) scale(0.1 -0.1)">
       <defs>
        <path id="DejaVuSans-31" d="M 794 531 
L 1825 531 
L 1825 4091 
L 703 3866 
L 703 4441 
L 1819 4666 
L 2450 4666 
L 2450 531 
L 3481 531 
L 3481 0 
L 794 0 
L 794 531 
z
" transform="scale(0.015625)"/>
       </defs>
       <use xlink:href="#DejaVuSans-31"/>
      </g>
     </g>
    </g>
    <g id="xtick_2">
     <g id="line2d_2">
      <g>
       <use xlink:href="#m6cdb364994" x="222.245053" y="387.16" style="stroke: #000000; stroke-width: 0.8"/>
      </g>
     </g>
     <g id="text_2">
      <!-- 2 -->
      <g transform="translate(219.063803 401.758438) scale(0.1 -0.1)">
       <defs>
        <path id="DejaVuSans-32" d="M 1228 531 
L 3431 531 
L 3431 0 
L 469 0 
L 469 531 
Q 828 903 1448 1529 
Q 2069 2156 2228 2338 
Q 2531 2678 2651 2914 
Q 2772 3150 2772 3378 
Q 2772 3750 2511 3984 
Q 2250 4219 1831 4219 
Q 1534 4219 1204 4116 
Q 875 4013 500 3803 
L 500 4441 
Q 881 4594 1212 4672 
Q 1544 4750 1819 4750 
Q 2544 4750 2975 4387 
Q 3406 4025 3406 3419 
Q 3406 3131 3298 2873 
Q 3191 2616 2906 2266 
Q 2828 2175 2409 1742 
Q 1991 1309 1228 531 
z
" transform="scale(0.015625)"/>
       </defs>
       <use xlink:href="#DejaVuSans-32"/>
      </g>
     </g>
    </g>
    <g id="xtick_3">
     <g id="line2d_3">
      <g>
       <use xlink:href="#m6cdb364994" x="335.856418" y="387.16" style="stroke: #000000; stroke-width: 0.8"/>
      </g>
     </g>
     <g id="text_3">
      <!-- 3 -->
      <g transform="translate(332.675168 401.758438) scale(0.1 -0.1)">
       <defs>
        <path id="DejaVuSans-33" d="M 2597 2516 
Q 3050 2419 3304 2112 
Q 3559 1806 3559 1356 
Q 3559 666 3084 287 
Q 2609 -91 1734 -91 
Q 1441 -91 1130 -33 
Q 819 25 488 141 
L 488 750 
Q 750 597 1062 519 
Q 1375 441 1716 441 
Q 2309 441 2620 675 
Q 2931 909 2931 1356 
Q 2931 1769 2642 2001 
Q 2353 2234 1838 2234 
L 1294 2234 
L 1294 2753 
L 1863 2753 
Q 2328 2753 2575 2939 
Q 2822 3125 2822 3475 
Q 2822 3834 2567 4026 
Q 2313 4219 1838 4219 
Q 1578 4219 1281 4162 
Q 984 4106 628 3988 
L 628 4550 
Q 988 4650 1302 4700 
Q 1616 4750 1894 4750 
Q 2613 4750 3031 4423 
Q 3450 4097 3450 3541 
Q 3450 3153 3228 2886 
Q 3006 2619 2597 2516 
z
" transform="scale(0.015625)"/>
       </defs>
       <use xlink:href="#DejaVuSans-33"/>
      </g>
     </g>
    </g>
    <g id="xtick_4">
     <g id="line2d_4">
      <g>
       <use xlink:href="#m6cdb364994" x="449.467783" y="387.16" style="stroke: #000000; stroke-width: 0.8"/>
      </g>
     </g>
     <g id="text_4">
      <!-- 4 -->
      <g transform="translate(446.286533 401.758438) scale(0.1 -0.1)">
       <defs>
        <path id="DejaVuSans-34" d="M 2419 4116 
L 825 1625 
L 2419 1625 
L 2419 4116 
z
M 2253 4666 
L 3047 4666 
L 3047 1625 
L 3713 1625 
L 3713 1100 
L 3047 1100 
L 3047 0 
L 2419 0 
L 2419 1100 
L 313 1100 
L 313 1709 
L 2253 4666 
z
" transform="scale(0.015625)"/>
       </defs>
       <use xlink:href="#DejaVuSans-34"/>
      </g>
     </g>
    </g>
    <g id="xtick_5">
     <g id="line2d_5">
      <g>
       <use xlink:href="#m6cdb364994" x="563.079148" y="387.16" style="stroke: #000000; stroke-width: 0.8"/>
      </g>
     </g>
     <g id="text_5">
      <!-- 5 -->
      <g transform="translate(559.897898 401.758438) scale(0.1 -0.1)">
       <defs>
        <path id="DejaVuSans-35" d="M 691 4666 
L 3169 4666 
L 3169 4134 
L 1269 4134 
L 1269 2991 
Q 1406 3038 1543 3061 
Q 1681 3084 1819 3084 
Q 2600 3084 3056 2656 
Q 3513 2228 3513 1497 
Q 3513 744 3044 326 
Q 2575 -91 1722 -91 
Q 1428 -91 1123 -41 
Q 819 9 494 109 
L 494 744 
Q 775 591 1075 516 
Q 1375 441 1709 441 
Q 2250 441 2565 725 
Q 2881 1009 2881 1497 
Q 2881 1984 2565 2268 
Q 2250 2553 1709 2553 
Q 1456 2553 1204 2497 
Q 953 2441 691 2322 
L 691 4666 
z
" transform="scale(0.015625)"/>
       </defs>
       <use xlink:href="#DejaVuSans-35"/>
      </g>
     </g>
    </g>
    <g id="xtick_6">
     <g id="line2d_6">
      <g>
       <use xlink:href="#m6cdb364994" x="676.690513" y="387.16" style="stroke: #000000; stroke-width: 0.8"/>
      </g>
     </g>
     <g id="text_6">
      <!-- 6 -->
      <g transform="translate(673.509263 401.758438) scale(0.1 -0.1)">
       <defs>
        <path id="DejaVuSans-36" d="M 2113 2584 
Q 1688 2584 1439 2293 
Q 1191 2003 1191 1497 
Q 1191 994 1439 701 
Q 1688 409 2113 409 
Q 2538 409 2786 701 
Q 3034 994 3034 1497 
Q 3034 2003 2786 2293 
Q 2538 2584 2113 2584 
z
M 3366 4563 
L 3366 3988 
Q 3128 4100 2886 4159 
Q 2644 4219 2406 4219 
Q 1781 4219 1451 3797 
Q 1122 3375 1075 2522 
Q 1259 2794 1537 2939 
Q 1816 3084 2150 3084 
Q 2853 3084 3261 2657 
Q 3669 2231 3669 1497 
Q 3669 778 3244 343 
Q 2819 -91 2113 -91 
Q 1303 -91 875 529 
Q 447 1150 447 2328 
Q 447 3434 972 4092 
Q 1497 4750 2381 4750 
Q 2619 4750 2861 4703 
Q 3103 4656 3366 4563 
z
" transform="scale(0.015625)"/>
       </defs>
       <use xlink:href="#DejaVuSans-36"/>
      </g>
     </g>
    </g>
    <g id="text_7">
     <!-- $log([HSPB1]/[Total Protein])$ -->
     <g transform="translate(338.165 415.438125) scale(0.1 -0.1)">
      <defs>
       <path id="DejaVuSans-Oblique-6c" d="M 1172 4863 
L 1747 4863 
L 800 0 
L 225 0 
L 1172 4863 
z
" transform="scale(0.015625)"/>
       <path id="DejaVuSans-Oblique-6f" d="M 1625 -91 
Q 1009 -91 651 289 
Q 294 669 294 1325 
Q 294 1706 417 2101 
Q 541 2497 738 2766 
Q 1047 3184 1428 3384 
Q 1809 3584 2291 3584 
Q 2888 3584 3255 3212 
Q 3622 2841 3622 2241 
Q 3622 1825 3500 1412 
Q 3378 1000 3181 728 
Q 2875 309 2494 109 
Q 2113 -91 1625 -91 
z
M 891 1344 
Q 891 869 1089 633 
Q 1288 397 1691 397 
Q 2269 397 2648 901 
Q 3028 1406 3028 2181 
Q 3028 2634 2825 2865 
Q 2622 3097 2228 3097 
Q 1903 3097 1650 2945 
Q 1397 2794 1197 2484 
Q 1050 2253 970 1956 
Q 891 1659 891 1344 
z
" transform="scale(0.015625)"/>
       <path id="DejaVuSans-Oblique-67" d="M 3816 3500 
L 3219 434 
Q 3047 -456 2561 -893 
Q 2075 -1331 1253 -1331 
Q 950 -1331 690 -1286 
Q 431 -1241 206 -1147 
L 313 -588 
Q 525 -725 762 -790 
Q 1000 -856 1269 -856 
Q 1816 -856 2167 -557 
Q 2519 -259 2631 300 
L 2681 563 
Q 2441 288 2122 144 
Q 1803 0 1434 0 
Q 903 0 598 351 
Q 294 703 294 1319 
Q 294 1803 478 2267 
Q 663 2731 997 3091 
Q 1219 3328 1514 3456 
Q 1809 3584 2131 3584 
Q 2484 3584 2746 3420 
Q 3009 3256 3138 2956 
L 3238 3500 
L 3816 3500 
z
M 2950 2216 
Q 2950 2641 2750 2872 
Q 2550 3103 2181 3103 
Q 1953 3103 1747 3012 
Q 1541 2922 1394 2759 
Q 1156 2491 1023 2127 
Q 891 1763 891 1375 
Q 891 944 1092 712 
Q 1294 481 1672 481 
Q 2219 481 2584 976 
Q 2950 1472 2950 2216 
z
" transform="scale(0.015625)"/>
       <path id="DejaVuSans-28" d="M 1984 4856 
Q 1566 4138 1362 3434 
Q 1159 2731 1159 2009 
Q 1159 1288 1364 580 
Q 1569 -128 1984 -844 
L 1484 -844 
Q 1016 -109 783 600 
Q 550 1309 550 2009 
Q 550 2706 781 3412 
Q 1013 4119 1484 4856 
L 1984 4856 
z
" transform="scale(0.015625)"/>
       <path id="DejaVuSans-5b" d="M 550 4863 
L 1875 4863 
L 1875 4416 
L 1125 4416 
L 1125 -397 
L 1875 -397 
L 1875 -844 
L 550 -844 
L 550 4863 
z
" transform="scale(0.015625)"/>
       <path id="DejaVuSans-Oblique-48" d="M 1081 4666 
L 1716 4666 
L 1344 2753 
L 3634 2753 
L 4006 4666 
L 4641 4666 
L 3731 0 
L 3097 0 
L 3531 2222 
L 1241 2222 
L 806 0 
L 172 0 
L 1081 4666 
z
" transform="scale(0.015625)"/>
       <path id="DejaVuSans-Oblique-53" d="M 3859 4513 
L 3738 3897 
Q 3422 4066 3111 4152 
Q 2800 4238 2509 4238 
Q 1944 4238 1609 3991 
Q 1275 3744 1275 3334 
Q 1275 3109 1398 2989 
Q 1522 2869 2034 2731 
L 2413 2638 
Q 3053 2472 3303 2217 
Q 3553 1963 3553 1503 
Q 3553 797 2998 353 
Q 2444 -91 1538 -91 
Q 1166 -91 791 -17 
Q 416 56 38 206 
L 166 856 
Q 513 641 861 531 
Q 1209 422 1556 422 
Q 2147 422 2503 684 
Q 2859 947 2859 1369 
Q 2859 1650 2717 1795 
Q 2575 1941 2106 2059 
L 1728 2156 
Q 1081 2325 845 2545 
Q 609 2766 609 3163 
Q 609 3859 1145 4304 
Q 1681 4750 2541 4750 
Q 2875 4750 3203 4690 
Q 3531 4631 3859 4513 
z
" transform="scale(0.015625)"/>
       <path id="DejaVuSans-Oblique-50" d="M 1081 4666 
L 2541 4666 
Q 3178 4666 3512 4369 
Q 3847 4072 3847 3500 
Q 3847 2731 3353 2303 
Q 2859 1875 1966 1875 
L 1172 1875 
L 806 0 
L 172 0 
L 1081 4666 
z
M 1613 4147 
L 1275 2394 
L 2069 2394 
Q 2606 2394 2893 2669 
Q 3181 2944 3181 3456 
Q 3181 3784 2986 3965 
Q 2791 4147 2438 4147 
L 1613 4147 
z
" transform="scale(0.015625)"/>
       <path id="DejaVuSans-Oblique-42" d="M 1081 4666 
L 2694 4666 
Q 3350 4666 3675 4422 
Q 4000 4178 4000 3688 
Q 4000 3238 3720 2911 
Q 3441 2584 2988 2516 
Q 3375 2428 3569 2181 
Q 3763 1934 3763 1522 
Q 3763 819 3242 409 
Q 2722 0 1819 0 
L 172 0 
L 1081 4666 
z
M 1234 2228 
L 903 519 
L 1919 519 
Q 2491 519 2800 781 
Q 3109 1044 3109 1522 
Q 3109 1891 2904 2059 
Q 2700 2228 2247 2228 
L 1234 2228 
z
M 1606 4147 
L 1331 2741 
L 2272 2741 
Q 2775 2741 3058 2959 
Q 3341 3178 3341 3566 
Q 3341 3869 3150 4008 
Q 2959 4147 2541 4147 
L 1606 4147 
z
" transform="scale(0.015625)"/>
       <path id="DejaVuSans-5d" d="M 1947 4863 
L 1947 -844 
L 622 -844 
L 622 -397 
L 1369 -397 
L 1369 4416 
L 622 4416 
L 622 4863 
L 1947 4863 
z
" transform="scale(0.015625)"/>
       <path id="DejaVuSans-2f" d="M 1625 4666 
L 2156 4666 
L 531 -594 
L 0 -594 
L 1625 4666 
z
" transform="scale(0.015625)"/>
       <path id="DejaVuSans-Oblique-54" d="M 378 4666 
L 4325 4666 
L 4225 4134 
L 2559 4134 
L 1759 0 
L 1125 0 
L 1925 4134 
L 275 4134 
L 378 4666 
z
" transform="scale(0.015625)"/>
       <path id="DejaVuSans-Oblique-74" d="M 2706 3500 
L 2619 3053 
L 1472 3053 
L 1100 1153 
Q 1081 1047 1072 975 
Q 1063 903 1063 863 
Q 1063 663 1183 572 
Q 1303 481 1569 481 
L 2150 481 
L 2053 0 
L 1503 0 
Q 991 0 739 200 
Q 488 400 488 806 
Q 488 878 497 964 
Q 506 1050 525 1153 
L 897 3053 
L 409 3053 
L 500 3500 
L 978 3500 
L 1172 4494 
L 1747 4494 
L 1556 3500 
L 2706 3500 
z
" transform="scale(0.015625)"/>
       <path id="DejaVuSans-Oblique-61" d="M 3438 1997 
L 3047 0 
L 2472 0 
L 2578 531 
Q 2325 219 2001 64 
Q 1678 -91 1281 -91 
Q 834 -91 548 182 
Q 263 456 263 884 
Q 263 1497 752 1853 
Q 1241 2209 2100 2209 
L 2900 2209 
L 2931 2363 
Q 2938 2388 2941 2417 
Q 2944 2447 2944 2509 
Q 2944 2788 2717 2942 
Q 2491 3097 2081 3097 
Q 1800 3097 1504 3025 
Q 1209 2953 897 2809 
L 997 3341 
Q 1322 3463 1633 3523 
Q 1944 3584 2234 3584 
Q 2853 3584 3176 3315 
Q 3500 3047 3500 2534 
Q 3500 2431 3484 2292 
Q 3469 2153 3438 1997 
z
M 2816 1759 
L 2241 1759 
Q 1534 1759 1195 1570 
Q 856 1381 856 984 
Q 856 709 1029 553 
Q 1203 397 1509 397 
Q 1978 397 2328 733 
Q 2678 1069 2791 1631 
L 2816 1759 
z
" transform="scale(0.015625)"/>
       <path id="DejaVuSans-Oblique-72" d="M 2853 2969 
Q 2766 3016 2653 3041 
Q 2541 3066 2413 3066 
Q 1953 3066 1609 2717 
Q 1266 2369 1153 1784 
L 800 0 
L 225 0 
L 909 3500 
L 1484 3500 
L 1375 2956 
Q 1603 3259 1920 3421 
Q 2238 3584 2597 3584 
Q 2691 3584 2781 3573 
Q 2872 3563 2963 3538 
L 2853 2969 
z
" transform="scale(0.015625)"/>
       <path id="DejaVuSans-Oblique-65" d="M 3078 2063 
Q 3088 2113 3092 2166 
Q 3097 2219 3097 2272 
Q 3097 2653 2873 2875 
Q 2650 3097 2266 3097 
Q 1838 3097 1509 2826 
Q 1181 2556 1013 2059 
L 3078 2063 
z
M 3578 1613 
L 903 1613 
Q 884 1494 878 1425 
Q 872 1356 872 1306 
Q 872 872 1139 634 
Q 1406 397 1894 397 
Q 2269 397 2603 481 
Q 2938 566 3225 728 
L 3116 159 
Q 2806 34 2476 -28 
Q 2147 -91 1806 -91 
Q 1078 -91 686 257 
Q 294 606 294 1247 
Q 294 1794 489 2264 
Q 684 2734 1063 3103 
Q 1306 3334 1642 3459 
Q 1978 3584 2356 3584 
Q 2950 3584 3301 3228 
Q 3653 2872 3653 2272 
Q 3653 2128 3634 1964 
Q 3616 1800 3578 1613 
z
" transform="scale(0.015625)"/>
       <path id="DejaVuSans-Oblique-69" d="M 1172 4863 
L 1747 4863 
L 1606 4134 
L 1031 4134 
L 1172 4863 
z
M 909 3500 
L 1484 3500 
L 800 0 
L 225 0 
L 909 3500 
z
" transform="scale(0.015625)"/>
       <path id="DejaVuSans-Oblique-6e" d="M 3566 2113 
L 3156 0 
L 2578 0 
L 2988 2091 
Q 3016 2238 3031 2350 
Q 3047 2463 3047 2528 
Q 3047 2791 2881 2937 
Q 2716 3084 2419 3084 
Q 1956 3084 1622 2776 
Q 1288 2469 1184 1941 
L 800 0 
L 225 0 
L 903 3500 
L 1478 3500 
L 1363 2950 
Q 1603 3253 1940 3418 
Q 2278 3584 2650 3584 
Q 3113 3584 3367 3334 
Q 3622 3084 3622 2631 
Q 3622 2519 3608 2391 
Q 3594 2263 3566 2113 
z
" transform="scale(0.015625)"/>
       <path id="DejaVuSans-29" d="M 513 4856 
L 1013 4856 
Q 1481 4119 1714 3412 
Q 1947 2706 1947 2009 
Q 1947 1309 1714 600 
Q 1481 -109 1013 -844 
L 513 -844 
Q 928 -128 1133 580 
Q 1338 1288 1338 2009 
Q 1338 2731 1133 3434 
Q 928 4138 513 4856 
z
" transform="scale(0.015625)"/>
      </defs>
      <use xlink:href="#DejaVuSans-Oblique-6c" transform="translate(0 0.015625)"/>
      <use xlink:href="#DejaVuSans-Oblique-6f" transform="translate(27.783203 0.015625)"/>
      <use xlink:href="#DejaVuSans-Oblique-67" transform="translate(88.964844 0.015625)"/>
      <use xlink:href="#DejaVuSans-28" transform="translate(152.441406 0.015625)"/>
      <use xlink:href="#DejaVuSans-5b" transform="translate(191.455078 0.015625)"/>
      <use xlink:href="#DejaVuSans-Oblique-48" transform="translate(227.34375 0.015625)"/>
      <use xlink:href="#DejaVuSans-Oblique-53" transform="translate(302.539062 0.015625)"/>
      <use xlink:href="#DejaVuSans-Oblique-50" transform="translate(366.015625 0.015625)"/>
      <use xlink:href="#DejaVuSans-Oblique-42" transform="translate(426.318359 0.015625)"/>
      <use xlink:href="#DejaVuSans-31" transform="translate(494.921875 0.015625)"/>
      <use xlink:href="#DejaVuSans-5d" transform="translate(558.544922 0.015625)"/>
      <use xlink:href="#DejaVuSans-2f" transform="translate(597.558594 0.015625)"/>
      <use xlink:href="#DejaVuSans-5b" transform="translate(631.25 0.015625)"/>
      <use xlink:href="#DejaVuSans-Oblique-54" transform="translate(670.263672 0.015625)"/>
      <use xlink:href="#DejaVuSans-Oblique-6f" transform="translate(731.347656 0.015625)"/>
      <use xlink:href="#DejaVuSans-Oblique-74" transform="translate(792.529297 0.015625)"/>
      <use xlink:href="#DejaVuSans-Oblique-61" transform="translate(831.738281 0.015625)"/>
      <use xlink:href="#DejaVuSans-Oblique-6c" transform="translate(893.017578 0.015625)"/>
      <use xlink:href="#DejaVuSans-Oblique-50" transform="translate(920.800781 0.015625)"/>
      <use xlink:href="#DejaVuSans-Oblique-72" transform="translate(981.103516 0.015625)"/>
      <use xlink:href="#DejaVuSans-Oblique-6f" transform="translate(1022.216797 0.015625)"/>
      <use xlink:href="#DejaVuSans-Oblique-74" transform="translate(1083.398438 0.015625)"/>
      <use xlink:href="#DejaVuSans-Oblique-65" transform="translate(1122.607422 0.015625)"/>
      <use xlink:href="#DejaVuSans-Oblique-69" transform="translate(1184.130859 0.015625)"/>
      <use xlink:href="#DejaVuSans-Oblique-6e" transform="translate(1211.914062 0.015625)"/>
      <use xlink:href="#DejaVuSans-5d" transform="translate(1275.292969 0.015625)"/>
      <use xlink:href="#DejaVuSans-29" transform="translate(1314.306641 0.015625)"/>
     </g>
    </g>
   </g>
   <g id="matplotlib.axis_2">
    <g id="ytick_1">
     <g id="line2d_7">
      <defs>
       <path id="me21516215f" d="M 0 0 
L -3.5 0 
" style="stroke: #000000; stroke-width: 0.8"/>
      </defs>
      <g>
       <use xlink:href="#me21516215f" x="102.53" y="60.679036" style="stroke: #000000; stroke-width: 0.8"/>
      </g>
     </g>
     <g id="text_8">
      <!-- Reference -->
      <g transform="translate(45.176875 64.478255) scale(0.1 -0.1)">
       <defs>
        <path id="DejaVuSans-52" d="M 2841 2188 
Q 3044 2119 3236 1894 
Q 3428 1669 3622 1275 
L 4263 0 
L 3584 0 
L 2988 1197 
Q 2756 1666 2539 1819 
Q 2322 1972 1947 1972 
L 1259 1972 
L 1259 0 
L 628 0 
L 628 4666 
L 2053 4666 
Q 2853 4666 3247 4331 
Q 3641 3997 3641 3322 
Q 3641 2881 3436 2590 
Q 3231 2300 2841 2188 
z
M 1259 4147 
L 1259 2491 
L 2053 2491 
Q 2509 2491 2742 2702 
Q 2975 2913 2975 3322 
Q 2975 3731 2742 3939 
Q 2509 4147 2053 4147 
L 1259 4147 
z
" transform="scale(0.015625)"/>
        <path id="DejaVuSans-65" d="M 3597 1894 
L 3597 1613 
L 953 1613 
Q 991 1019 1311 708 
Q 1631 397 2203 397 
Q 2534 397 2845 478 
Q 3156 559 3463 722 
L 3463 178 
Q 3153 47 2828 -22 
Q 2503 -91 2169 -91 
Q 1331 -91 842 396 
Q 353 884 353 1716 
Q 353 2575 817 3079 
Q 1281 3584 2069 3584 
Q 2775 3584 3186 3129 
Q 3597 2675 3597 1894 
z
M 3022 2063 
Q 3016 2534 2758 2815 
Q 2500 3097 2075 3097 
Q 1594 3097 1305 2825 
Q 1016 2553 972 2059 
L 3022 2063 
z
" transform="scale(0.015625)"/>
        <path id="DejaVuSans-66" d="M 2375 4863 
L 2375 4384 
L 1825 4384 
Q 1516 4384 1395 4259 
Q 1275 4134 1275 3809 
L 1275 3500 
L 2222 3500 
L 2222 3053 
L 1275 3053 
L 1275 0 
L 697 0 
L 697 3053 
L 147 3053 
L 147 3500 
L 697 3500 
L 697 3744 
Q 697 4328 969 4595 
Q 1241 4863 1831 4863 
L 2375 4863 
z
" transform="scale(0.015625)"/>
        <path id="DejaVuSans-72" d="M 2631 2963 
Q 2534 3019 2420 3045 
Q 2306 3072 2169 3072 
Q 1681 3072 1420 2755 
Q 1159 2438 1159 1844 
L 1159 0 
L 581 0 
L 581 3500 
L 1159 3500 
L 1159 2956 
Q 1341 3275 1631 3429 
Q 1922 3584 2338 3584 
Q 2397 3584 2469 3576 
Q 2541 3569 2628 3553 
L 2631 2963 
z
" transform="scale(0.015625)"/>
        <path id="DejaVuSans-6e" d="M 3513 2113 
L 3513 0 
L 2938 0 
L 2938 2094 
Q 2938 2591 2744 2837 
Q 2550 3084 2163 3084 
Q 1697 3084 1428 2787 
Q 1159 2491 1159 1978 
L 1159 0 
L 581 0 
L 581 3500 
L 1159 3500 
L 1159 2956 
Q 1366 3272 1645 3428 
Q 1925 3584 2291 3584 
Q 2894 3584 3203 3211 
Q 3513 2838 3513 2113 
z
" transform="scale(0.015625)"/>
        <path id="DejaVuSans-63" d="M 3122 3366 
L 3122 2828 
Q 2878 2963 2633 3030 
Q 2388 3097 2138 3097 
Q 1578 3097 1268 2742 
Q 959 2388 959 1747 
Q 959 1106 1268 751 
Q 1578 397 2138 397 
Q 2388 397 2633 464 
Q 2878 531 3122 666 
L 3122 134 
Q 2881 22 2623 -34 
Q 2366 -91 2075 -91 
Q 1284 -91 818 406 
Q 353 903 353 1747 
Q 353 2603 823 3093 
Q 1294 3584 2113 3584 
Q 2378 3584 2631 3529 
Q 2884 3475 3122 3366 
z
" transform="scale(0.015625)"/>
       </defs>
       <use xlink:href="#DejaVuSans-52"/>
       <use xlink:href="#DejaVuSans-65" x="64.982422"/>
       <use xlink:href="#DejaVuSans-66" x="126.505859"/>
       <use xlink:href="#DejaVuSans-65" x="161.710938"/>
       <use xlink:href="#DejaVuSans-72" x="223.234375"/>
       <use xlink:href="#DejaVuSans-65" x="262.097656"/>
       <use xlink:href="#DejaVuSans-6e" x="323.621094"/>
       <use xlink:href="#DejaVuSans-63" x="387"/>
       <use xlink:href="#DejaVuSans-65" x="441.980469"/>
      </g>
     </g>
    </g>
    <g id="ytick_2">
     <g id="line2d_8">
      <g>
       <use xlink:href="#me21516215f" x="102.53" y="133.230361" style="stroke: #000000; stroke-width: 0.8"/>
      </g>
     </g>
     <g id="text_9">
      <!-- 24h 4C +PBS -->
      <g transform="translate(24.609688 137.02958) scale(0.1 -0.1)">
       <defs>
        <path id="DejaVuSans-68" d="M 3513 2113 
L 3513 0 
L 2938 0 
L 2938 2094 
Q 2938 2591 2744 2837 
Q 2550 3084 2163 3084 
Q 1697 3084 1428 2787 
Q 1159 2491 1159 1978 
L 1159 0 
L 581 0 
L 581 4863 
L 1159 4863 
L 1159 2956 
Q 1366 3272 1645 3428 
Q 1925 3584 2291 3584 
Q 2894 3584 3203 3211 
Q 3513 2838 3513 2113 
z
" transform="scale(0.015625)"/>
        <path id="DejaVuSans-20" transform="scale(0.015625)"/>
        <path id="DejaVuSans-ba" d="M 434 1850 
L 2584 1850 
L 2584 1466 
L 434 1466 
L 434 1850 
z
M 1509 4750 
Q 2069 4750 2391 4404 
Q 2713 4059 2713 3463 
Q 2713 2866 2391 2523 
Q 2069 2181 1509 2181 
Q 950 2181 625 2525 
Q 300 2869 300 3463 
Q 300 4059 625 4404 
Q 950 4750 1509 4750 
z
M 1509 4391 
Q 1181 4391 984 4139 
Q 788 3888 788 3463 
Q 788 3047 986 2797 
Q 1184 2547 1509 2547 
Q 1838 2547 2033 2797 
Q 2228 3047 2228 3463 
Q 2228 3891 2034 4141 
Q 1841 4391 1509 4391 
z
" transform="scale(0.015625)"/>
        <path id="DejaVuSans-43" d="M 4122 4306 
L 4122 3641 
Q 3803 3938 3442 4084 
Q 3081 4231 2675 4231 
Q 1875 4231 1450 3742 
Q 1025 3253 1025 2328 
Q 1025 1406 1450 917 
Q 1875 428 2675 428 
Q 3081 428 3442 575 
Q 3803 722 4122 1019 
L 4122 359 
Q 3791 134 3420 21 
Q 3050 -91 2638 -91 
Q 1578 -91 968 557 
Q 359 1206 359 2328 
Q 359 3453 968 4101 
Q 1578 4750 2638 4750 
Q 3056 4750 3426 4639 
Q 3797 4528 4122 4306 
z
" transform="scale(0.015625)"/>
        <path id="DejaVuSans-2b" d="M 2944 4013 
L 2944 2272 
L 4684 2272 
L 4684 1741 
L 2944 1741 
L 2944 0 
L 2419 0 
L 2419 1741 
L 678 1741 
L 678 2272 
L 2419 2272 
L 2419 4013 
L 2944 4013 
z
" transform="scale(0.015625)"/>
        <path id="DejaVuSans-50" d="M 1259 4147 
L 1259 2394 
L 2053 2394 
Q 2494 2394 2734 2622 
Q 2975 2850 2975 3272 
Q 2975 3691 2734 3919 
Q 2494 4147 2053 4147 
L 1259 4147 
z
M 628 4666 
L 2053 4666 
Q 2838 4666 3239 4311 
Q 3641 3956 3641 3272 
Q 3641 2581 3239 2228 
Q 2838 1875 2053 1875 
L 1259 1875 
L 1259 0 
L 628 0 
L 628 4666 
z
" transform="scale(0.015625)"/>
        <path id="DejaVuSans-42" d="M 1259 2228 
L 1259 519 
L 2272 519 
Q 2781 519 3026 730 
Q 3272 941 3272 1375 
Q 3272 1813 3026 2020 
Q 2781 2228 2272 2228 
L 1259 2228 
z
M 1259 4147 
L 1259 2741 
L 2194 2741 
Q 2656 2741 2882 2914 
Q 3109 3088 3109 3444 
Q 3109 3797 2882 3972 
Q 2656 4147 2194 4147 
L 1259 4147 
z
M 628 4666 
L 2241 4666 
Q 2963 4666 3353 4366 
Q 3744 4066 3744 3513 
Q 3744 3084 3544 2831 
Q 3344 2578 2956 2516 
Q 3422 2416 3680 2098 
Q 3938 1781 3938 1306 
Q 3938 681 3513 340 
Q 3088 0 2303 0 
L 628 0 
L 628 4666 
z
" transform="scale(0.015625)"/>
        <path id="DejaVuSans-53" d="M 3425 4513 
L 3425 3897 
Q 3066 4069 2747 4153 
Q 2428 4238 2131 4238 
Q 1616 4238 1336 4038 
Q 1056 3838 1056 3469 
Q 1056 3159 1242 3001 
Q 1428 2844 1947 2747 
L 2328 2669 
Q 3034 2534 3370 2195 
Q 3706 1856 3706 1288 
Q 3706 609 3251 259 
Q 2797 -91 1919 -91 
Q 1588 -91 1214 -16 
Q 841 59 441 206 
L 441 856 
Q 825 641 1194 531 
Q 1563 422 1919 422 
Q 2459 422 2753 634 
Q 3047 847 3047 1241 
Q 3047 1584 2836 1778 
Q 2625 1972 2144 2069 
L 1759 2144 
Q 1053 2284 737 2584 
Q 422 2884 422 3419 
Q 422 4038 858 4394 
Q 1294 4750 2059 4750 
Q 2388 4750 2728 4690 
Q 3069 4631 3425 4513 
z
" transform="scale(0.015625)"/>
       </defs>
       <use xlink:href="#DejaVuSans-32"/>
       <use xlink:href="#DejaVuSans-34" x="63.623047"/>
       <use xlink:href="#DejaVuSans-68" x="127.246094"/>
       <use xlink:href="#DejaVuSans-20" x="190.625"/>
       <use xlink:href="#DejaVuSans-34" x="222.412109"/>
       <use xlink:href="#DejaVuSans-ba" x="286.035156"/>
       <use xlink:href="#DejaVuSans-43" x="333.154297"/>
       <use xlink:href="#DejaVuSans-20" x="402.978516"/>
       <use xlink:href="#DejaVuSans-2b" x="434.765625"/>
       <use xlink:href="#DejaVuSans-50" x="518.554688"/>
       <use xlink:href="#DejaVuSans-42" x="578.857422"/>
       <use xlink:href="#DejaVuSans-53" x="645.710938"/>
      </g>
     </g>
    </g>
    <g id="ytick_3">
     <g id="line2d_9">
      <g>
       <use xlink:href="#me21516215f" x="102.53" y="205.781687" style="stroke: #000000; stroke-width: 0.8"/>
      </g>
     </g>
     <g id="text_10">
      <!-- 72h 4C +PBS -->
      <g transform="translate(24.609688 209.580905) scale(0.1 -0.1)">
       <defs>
        <path id="DejaVuSans-37" d="M 525 4666 
L 3525 4666 
L 3525 4397 
L 1831 0 
L 1172 0 
L 2766 4134 
L 525 4134 
L 525 4666 
z
" transform="scale(0.015625)"/>
       </defs>
       <use xlink:href="#DejaVuSans-37"/>
       <use xlink:href="#DejaVuSans-32" x="63.623047"/>
       <use xlink:href="#DejaVuSans-68" x="127.246094"/>
       <use xlink:href="#DejaVuSans-20" x="190.625"/>
       <use xlink:href="#DejaVuSans-34" x="222.412109"/>
       <use xlink:href="#DejaVuSans-ba" x="286.035156"/>
       <use xlink:href="#DejaVuSans-43" x="333.154297"/>
       <use xlink:href="#DejaVuSans-20" x="402.978516"/>
       <use xlink:href="#DejaVuSans-2b" x="434.765625"/>
       <use xlink:href="#DejaVuSans-50" x="518.554688"/>
       <use xlink:href="#DejaVuSans-42" x="578.857422"/>
       <use xlink:href="#DejaVuSans-53" x="645.710938"/>
      </g>
     </g>
    </g>
    <g id="ytick_4">
     <g id="line2d_10">
      <g>
       <use xlink:href="#me21516215f" x="102.53" y="278.333012" style="stroke: #000000; stroke-width: 0.8"/>
      </g>
     </g>
     <g id="text_11">
      <!-- 24h 4C -PBS -->
      <g transform="translate(29.381563 282.132231) scale(0.1 -0.1)">
       <defs>
        <path id="DejaVuSans-2d" d="M 313 2009 
L 1997 2009 
L 1997 1497 
L 313 1497 
L 313 2009 
z
" transform="scale(0.015625)"/>
       </defs>
       <use xlink:href="#DejaVuSans-32"/>
       <use xlink:href="#DejaVuSans-34" x="63.623047"/>
       <use xlink:href="#DejaVuSans-68" x="127.246094"/>
       <use xlink:href="#DejaVuSans-20" x="190.625"/>
       <use xlink:href="#DejaVuSans-34" x="222.412109"/>
       <use xlink:href="#DejaVuSans-ba" x="286.035156"/>
       <use xlink:href="#DejaVuSans-43" x="333.154297"/>
       <use xlink:href="#DejaVuSans-20" x="402.978516"/>
       <use xlink:href="#DejaVuSans-2d" x="434.765625"/>
       <use xlink:href="#DejaVuSans-50" x="470.849609"/>
       <use xlink:href="#DejaVuSans-42" x="531.152344"/>
       <use xlink:href="#DejaVuSans-53" x="598.005859"/>
      </g>
     </g>
    </g>
    <g id="ytick_5">
     <g id="line2d_11">
      <g>
       <use xlink:href="#me21516215f" x="102.53" y="350.884337" style="stroke: #000000; stroke-width: 0.8"/>
      </g>
     </g>
     <g id="text_12">
      <!-- 72h 4C -PBS -->
      <g transform="translate(29.381563 354.683556) scale(0.1 -0.1)">
       <use xlink:href="#DejaVuSans-37"/>
       <use xlink:href="#DejaVuSans-32" x="63.623047"/>
       <use xlink:href="#DejaVuSans-68" x="127.246094"/>
       <use xlink:href="#DejaVuSans-20" x="190.625"/>
       <use xlink:href="#DejaVuSans-34" x="222.412109"/>
       <use xlink:href="#DejaVuSans-ba" x="286.035156"/>
       <use xlink:href="#DejaVuSans-43" x="333.154297"/>
       <use xlink:href="#DejaVuSans-20" x="402.978516"/>
       <use xlink:href="#DejaVuSans-2d" x="434.765625"/>
       <use xlink:href="#DejaVuSans-50" x="470.849609"/>
       <use xlink:href="#DejaVuSans-42" x="531.152344"/>
       <use xlink:href="#DejaVuSans-53" x="598.005859"/>
      </g>
     </g>
    </g>
    <g id="text_13">
     <!-- Condition -->
     <g transform="translate(18.53 222.840156) rotate(-90) scale(0.1 -0.1)">
      <defs>
       <path id="DejaVuSans-6f" d="M 1959 3097 
Q 1497 3097 1228 2736 
Q 959 2375 959 1747 
Q 959 1119 1226 758 
Q 1494 397 1959 397 
Q 2419 397 2687 759 
Q 2956 1122 2956 1747 
Q 2956 2369 2687 2733 
Q 2419 3097 1959 3097 
z
M 1959 3584 
Q 2709 3584 3137 3096 
Q 3566 2609 3566 1747 
Q 3566 888 3137 398 
Q 2709 -91 1959 -91 
Q 1206 -91 779 398 
Q 353 888 353 1747 
Q 353 2609 779 3096 
Q 1206 3584 1959 3584 
z
" transform="scale(0.015625)"/>
       <path id="DejaVuSans-64" d="M 2906 2969 
L 2906 4863 
L 3481 4863 
L 3481 0 
L 2906 0 
L 2906 525 
Q 2725 213 2448 61 
Q 2172 -91 1784 -91 
Q 1150 -91 751 415 
Q 353 922 353 1747 
Q 353 2572 751 3078 
Q 1150 3584 1784 3584 
Q 2172 3584 2448 3432 
Q 2725 3281 2906 2969 
z
M 947 1747 
Q 947 1113 1208 752 
Q 1469 391 1925 391 
Q 2381 391 2643 752 
Q 2906 1113 2906 1747 
Q 2906 2381 2643 2742 
Q 2381 3103 1925 3103 
Q 1469 3103 1208 2742 
Q 947 2381 947 1747 
z
" transform="scale(0.015625)"/>
       <path id="DejaVuSans-69" d="M 603 3500 
L 1178 3500 
L 1178 0 
L 603 0 
L 603 3500 
z
M 603 4863 
L 1178 4863 
L 1178 4134 
L 603 4134 
L 603 4863 
z
" transform="scale(0.015625)"/>
       <path id="DejaVuSans-74" d="M 1172 4494 
L 1172 3500 
L 2356 3500 
L 2356 3053 
L 1172 3053 
L 1172 1153 
Q 1172 725 1289 603 
Q 1406 481 1766 481 
L 2356 481 
L 2356 0 
L 1766 0 
Q 1100 0 847 248 
Q 594 497 594 1153 
L 594 3053 
L 172 3053 
L 172 3500 
L 594 3500 
L 594 4494 
L 1172 4494 
z
" transform="scale(0.015625)"/>
      </defs>
      <use xlink:href="#DejaVuSans-43"/>
      <use xlink:href="#DejaVuSans-6f" x="69.824219"/>
      <use xlink:href="#DejaVuSans-6e" x="131.005859"/>
      <use xlink:href="#DejaVuSans-64" x="194.384766"/>
      <use xlink:href="#DejaVuSans-69" x="257.861328"/>
      <use xlink:href="#DejaVuSans-74" x="285.644531"/>
      <use xlink:href="#DejaVuSans-69" x="324.853516"/>
      <use xlink:href="#DejaVuSans-6f" x="352.636719"/>
      <use xlink:href="#DejaVuSans-6e" x="413.818359"/>
     </g>
    </g>
   </g>
   <g id="line2d_12">
    <path d="M 238.406182 57.958361 
L 238.406182 63.399711 
" clip-path="url(#pea4596532c)" style="fill: none; stroke: #434343; stroke-width: 1.5; stroke-linecap: square"/>
   </g>
   <g id="line2d_13">
    <path d="M 613.213121 57.958361 
L 613.213121 63.399711 
" clip-path="url(#pea4596532c)" style="fill: none; stroke: #434343; stroke-width: 1.5; stroke-linecap: square"/>
   </g>
   <g id="line2d_14">
    <defs>
     <path id="mfcf0a3072e" d="M -0 3.535534 
L 2.12132 0 
L -0 -3.535534 
L -2.12132 -0 
z
" style="stroke: #434343; stroke-linejoin: miter"/>
    </defs>
    <g clip-path="url(#pea4596532c)">
     <use xlink:href="#mfcf0a3072e" x="642.075823" y="60.679036" style="fill: #434343; stroke: #434343; stroke-linejoin: miter"/>
    </g>
   </g>
   <g id="line2d_15">
    <path d="M 142.114446 130.509687 
L 142.114446 135.951036 
" clip-path="url(#pea4596532c)" style="fill: none; stroke: #434343; stroke-width: 1.5; stroke-linecap: square"/>
   </g>
   <g id="line2d_16">
    <path d="M 581.765905 130.509687 
L 581.765905 135.951036 
" clip-path="url(#pea4596532c)" style="fill: none; stroke: #434343; stroke-width: 1.5; stroke-linecap: square"/>
   </g>
   <g id="line2d_17"/>
   <g id="line2d_18">
    <path d="M 163.829676 203.061012 
L 163.829676 208.502361 
" clip-path="url(#pea4596532c)" style="fill: none; stroke: #434343; stroke-width: 1.5; stroke-linecap: square"/>
   </g>
   <g id="line2d_19">
    <path d="M 681.624091 203.061012 
L 681.624091 208.502361 
" clip-path="url(#pea4596532c)" style="fill: none; stroke: #434343; stroke-width: 1.5; stroke-linecap: square"/>
   </g>
   <g id="line2d_20"/>
   <g id="line2d_21">
    <path d="M 130.105909 275.612337 
L 130.105909 281.053687 
" clip-path="url(#pea4596532c)" style="fill: none; stroke: #434343; stroke-width: 1.5; stroke-linecap: square"/>
   </g>
   <g id="line2d_22">
    <path d="M 639.555101 275.612337 
L 639.555101 281.053687 
" clip-path="url(#pea4596532c)" style="fill: none; stroke: #434343; stroke-width: 1.5; stroke-linecap: square"/>
   </g>
   <g id="line2d_23"/>
   <g id="line2d_24">
    <path d="M 139.254199 348.163663 
L 139.254199 353.605012 
" clip-path="url(#pea4596532c)" style="fill: none; stroke: #434343; stroke-width: 1.5; stroke-linecap: square"/>
   </g>
   <g id="line2d_25">
    <path d="M 508.873351 348.163663 
L 508.873351 353.605012 
" clip-path="url(#pea4596532c)" style="fill: none; stroke: #434343; stroke-width: 1.5; stroke-linecap: square"/>
   </g>
   <g id="line2d_26"/>
   <g id="line2d_27">
    <path d="M 378.334573 55.237687 
L 378.334573 66.120386 
" clip-path="url(#pea4596532c)" style="fill: none; stroke: #434343; stroke-width: 1.5; stroke-linecap: square"/>
   </g>
   <g id="line2d_28">
    <path d="M 298.009563 127.789012 
L 298.009563 138.671711 
" clip-path="url(#pea4596532c)" style="fill: none; stroke: #434343; stroke-width: 1.5; stroke-linecap: square"/>
   </g>
   <g id="line2d_29">
    <path d="M 317.984707 200.340337 
L 317.984707 211.223036 
" clip-path="url(#pea4596532c)" style="fill: none; stroke: #434343; stroke-width: 1.5; stroke-linecap: square"/>
   </g>
   <g id="line2d_30">
    <path d="M 265.883935 272.891663 
L 265.883935 283.774361 
" clip-path="url(#pea4596532c)" style="fill: none; stroke: #434343; stroke-width: 1.5; stroke-linecap: square"/>
   </g>
   <g id="line2d_31">
    <path d="M 306.397421 345.442988 
L 306.397421 356.325687 
" clip-path="url(#pea4596532c)" style="fill: none; stroke: #434343; stroke-width: 1.5; stroke-linecap: square"/>
   </g>
   <g id="patch_3">
    <path d="M 102.53 387.16 
L 102.53 10.8 
" style="fill: none; stroke: #000000; stroke-width: 0.8; stroke-linejoin: miter; stroke-linecap: square"/>
   </g>
   <g id="patch_4">
    <path d="M 709.2 387.16 
L 709.2 10.8 
" style="fill: none; stroke: #000000; stroke-width: 0.8; stroke-linejoin: miter; stroke-linecap: square"/>
   </g>
   <g id="patch_5">
    <path d="M 102.53 387.16 
L 709.2 387.16 
" style="fill: none; stroke: #000000; stroke-width: 0.8; stroke-linejoin: miter; stroke-linecap: square"/>
   </g>
   <g id="patch_6">
    <path d="M 102.53 10.8 
L 709.2 10.8 
" style="fill: none; stroke: #000000; stroke-width: 0.8; stroke-linejoin: miter; stroke-linecap: square"/>
   </g>
   <g id="patch_7">
    <path d="M 324.929809 55.237687 
L 324.929809 66.120386 
L 450.595525 66.120386 
L 450.595525 55.237687 
L 324.929809 55.237687 
L 324.929809 55.237687 
z
" clip-path="url(#pea4596532c)" style="fill: none; stroke: #434343; stroke-width: 1.5; stroke-linejoin: miter"/>
   </g>
   <g id="line2d_32">
    <path d="M 324.929809 60.679036 
L 238.406182 60.679036 
" clip-path="url(#pea4596532c)" style="fill: none; stroke: #434343; stroke-width: 2; stroke-linecap: square"/>
   </g>
   <g id="line2d_33">
    <path d="M 450.595525 60.679036 
L 613.213121 60.679036 
" clip-path="url(#pea4596532c)" style="fill: none; stroke: #434343; stroke-width: 2; stroke-linecap: square"/>
   </g>
   <g id="patch_8">
    <path d="M 257.268982 127.789012 
L 257.268982 138.671711 
L 439.846611 138.671711 
L 439.846611 127.789012 
L 257.268982 127.789012 
L 257.268982 127.789012 
z
" clip-path="url(#pea4596532c)" style="fill: none; stroke: #434343; stroke-width: 1.5; stroke-linejoin: miter"/>
   </g>
   <g id="line2d_34">
    <path d="M 257.268982 133.230361 
L 142.114446 133.230361 
" clip-path="url(#pea4596532c)" style="fill: none; stroke: #434343; stroke-width: 2; stroke-linecap: square"/>
   </g>
   <g id="line2d_35">
    <path d="M 439.846611 133.230361 
L 581.765905 133.230361 
" clip-path="url(#pea4596532c)" style="fill: none; stroke: #434343; stroke-width: 2; stroke-linecap: square"/>
   </g>
   <g id="patch_9">
    <path d="M 252.711468 200.340337 
L 252.711468 211.223036 
L 440.107503 211.223036 
L 440.107503 200.340337 
L 252.711468 200.340337 
L 252.711468 200.340337 
z
" clip-path="url(#pea4596532c)" style="fill: none; stroke: #434343; stroke-width: 1.5; stroke-linejoin: miter"/>
   </g>
   <g id="line2d_36">
    <path d="M 252.711468 205.781687 
L 163.829676 205.781687 
" clip-path="url(#pea4596532c)" style="fill: none; stroke: #434343; stroke-width: 2; stroke-linecap: square"/>
   </g>
   <g id="line2d_37">
    <path d="M 440.107503 205.781687 
L 681.624091 205.781687 
" clip-path="url(#pea4596532c)" style="fill: none; stroke: #434343; stroke-width: 2; stroke-linecap: square"/>
   </g>
   <g id="patch_10">
    <path d="M 213.84306 272.891663 
L 213.84306 283.774361 
L 417.494076 283.774361 
L 417.494076 272.891663 
L 213.84306 272.891663 
L 213.84306 272.891663 
z
" clip-path="url(#pea4596532c)" style="fill: none; stroke: #434343; stroke-width: 1.5; stroke-linejoin: miter"/>
   </g>
   <g id="line2d_38">
    <path d="M 213.84306 278.333012 
L 130.105909 278.333012 
" clip-path="url(#pea4596532c)" style="fill: none; stroke: #434343; stroke-width: 2; stroke-linecap: square"/>
   </g>
   <g id="line2d_39">
    <path d="M 417.494076 278.333012 
L 639.555101 278.333012 
" clip-path="url(#pea4596532c)" style="fill: none; stroke: #434343; stroke-width: 2; stroke-linecap: square"/>
   </g>
   <g id="patch_11">
    <path d="M 233.59842 345.442988 
L 233.59842 356.325687 
L 422.580757 356.325687 
L 422.580757 345.442988 
L 233.59842 345.442988 
L 233.59842 345.442988 
z
" clip-path="url(#pea4596532c)" style="fill: none; stroke: #434343; stroke-width: 1.5; stroke-linejoin: miter"/>
   </g>
   <g id="line2d_40">
    <path d="M 233.59842 350.884337 
L 139.254199 350.884337 
" clip-path="url(#pea4596532c)" style="fill: none; stroke: #434343; stroke-width: 2; stroke-linecap: square"/>
   </g>
   <g id="line2d_41">
    <path d="M 422.580757 350.884337 
L 508.873351 350.884337 
" clip-path="url(#pea4596532c)" style="fill: none; stroke: #434343; stroke-width: 2; stroke-linecap: square"/>
   </g>
  </g>
 </g>
 <defs>
  <clipPath id="pea4596532c">
   <rect x="102.53" y="10.8" width="606.67" height="376.36"/>
  </clipPath>
 </defs>
</svg>
