<?xml version="1.0" encoding="utf-8" standalone="no"?>
<!DOCTYPE svg PUBLIC "-//W3C//DTD SVG 1.1//EN"
  "http://www.w3.org/Graphics/SVG/1.1/DTD/svg11.dtd">
<svg xmlns:xlink="http://www.w3.org/1999/xlink" width="720pt" height="432pt" viewBox="0 0 720 432" xmlns="http://www.w3.org/2000/svg" version="1.1">
 <metadata>
  <rdf:RDF xmlns:dc="http://purl.org/dc/elements/1.1/" xmlns:cc="http://creativecommons.org/ns#" xmlns:rdf="http://www.w3.org/1999/02/22-rdf-syntax-ns#">
   <cc:Work>
    <dc:type rdf:resource="http://purl.org/dc/dcmitype/StillImage"/>
    <dc:date>2024-09-30T14:08:30.882156</dc:date>
    <dc:format>image/svg+xml</dc:format>
    <dc:creator>
     <cc:Agent>
      <dc:title>Matplotlib v3.7.3, https://matplotlib.org/</dc:title>
     </cc:Agent>
    </dc:creator>
   </cc:Work>
  </rdf:RDF>
 </metadata>
 <defs>
  <style type="text/css">*{stroke-linejoin: round; stroke-linecap: butt}</style>
 </defs>
 <g id="figure_1">
  <g id="patch_1">
   <path d="M 0 432 
L 720 432 
L 720 0 
L 0 0 
z
" style="fill: #ffffff"/>
  </g>
  <g id="axes_1">
   <g id="patch_2">
    <path d="M 41.15 343.03527 
L 709.2 343.03527 
L 709.2 10.8 
L 41.15 10.8 
z
" style="fill: #ffffff"/>
   </g>
   <g id="PolyCollection_1">
    <defs>
     <path id="m1243af76eb" d="M 109.078891 -154.19912 
L 106.831109 -154.19912 
L 106.526191 -156.527743 
L 106.15782 -158.856366 
L 105.717939 -161.184988 
L 105.198588 -163.513611 
L 104.592123 -165.842233 
L 103.891425 -168.170856 
L 103.090092 -170.499479 
L 102.182595 -172.828101 
L 101.164399 -175.156724 
L 100.032042 -177.485347 
L 98.783179 -179.813969 
L 97.416608 -182.142592 
L 95.93229 -184.471214 
L 94.33139 -186.799837 
L 92.616352 -189.12846 
L 90.791028 -191.457082 
L 88.860874 -193.785705 
L 86.833191 -196.114328 
L 84.717412 -198.44295 
L 82.525385 -200.771573 
L 80.271626 -203.100195 
L 77.973485 -205.428818 
L 75.651176 -207.757441 
L 73.327639 -210.086063 
L 71.028199 -212.414686 
L 68.780026 -214.743309 
L 66.611395 -217.071931 
L 64.550802 -219.400554 
L 62.625988 -221.729176 
L 60.862939 -224.057799 
L 59.284942 -226.386422 
L 57.911787 -228.715044 
L 56.759155 -231.043667 
L 55.838263 -233.37229 
L 55.155766 -235.700912 
L 54.713926 -238.029535 
L 54.511 -240.358158 
L 54.541812 -242.68678 
L 54.798415 -245.015403 
L 55.27079 -247.344025 
L 55.947484 -249.672648 
L 56.816144 -252.001271 
L 57.863879 -254.329893 
L 59.077441 -256.658516 
L 60.443219 -258.987139 
L 61.947065 -261.315761 
L 63.574011 -263.644384 
L 65.307921 -265.973006 
L 67.131159 -268.301629 
L 69.024332 -270.630252 
L 70.966178 -272.958874 
L 72.933625 -275.287497 
L 74.902075 -277.61612 
L 76.845886 -279.944742 
L 78.739052 -282.273365 
L 80.556035 -284.601987 
L 82.272695 -286.93061 
L 83.867244 -289.259233 
L 85.321177 -291.587855 
L 86.620085 -293.916478 
L 87.75432 -296.245101 
L 88.719449 -298.573723 
L 89.516479 -300.902346 
L 90.151832 -303.230968 
L 90.637081 -305.559591 
L 90.988456 -307.888214 
L 91.226151 -310.216836 
L 91.373463 -312.545459 
L 91.455821 -314.874082 
L 91.499722 -317.202704 
L 91.53165 -319.531327 
L 91.577014 -321.85995 
L 91.659141 -324.188572 
L 91.798388 -326.517195 
L 92.011403 -328.845817 
L 92.310562 -331.17444 
L 92.703619 -333.503063 
L 93.193578 -335.831685 
L 93.778795 -338.160308 
L 94.453287 -340.488931 
L 95.20725 -342.817553 
L 96.02773 -345.146176 
L 96.899415 -347.474798 
L 97.805493 -349.803421 
L 98.728532 -352.132044 
L 99.651317 -354.460666 
L 100.557611 -356.789289 
L 101.432791 -359.117912 
L 102.264342 -361.446534 
L 103.042184 -363.775157 
L 103.758838 -366.103779 
L 104.409439 -368.432402 
L 104.991607 -370.761025 
L 105.505211 -373.089647 
L 105.952056 -375.41827 
L 106.335513 -377.746893 
L 106.660136 -380.075515 
L 106.931283 -382.404138 
L 107.154766 -384.73276 
L 108.755234 -384.73276 
L 108.755234 -384.73276 
L 108.978717 -382.404138 
L 109.249864 -380.075515 
L 109.574487 -377.746893 
L 109.957944 -375.41827 
L 110.404789 -373.089647 
L 110.918393 -370.761025 
L 111.500561 -368.432402 
L 112.151162 -366.103779 
L 112.867816 -363.775157 
L 113.645658 -361.446534 
L 114.477209 -359.117912 
L 115.352389 -356.789289 
L 116.258683 -354.460666 
L 117.181468 -352.132044 
L 118.104507 -349.803421 
L 119.010585 -347.474798 
L 119.88227 -345.146176 
L 120.70275 -342.817553 
L 121.456713 -340.488931 
L 122.131205 -338.160308 
L 122.716422 -335.831685 
L 123.206381 -333.503063 
L 123.599438 -331.17444 
L 123.898597 -328.845817 
L 124.111612 -326.517195 
L 124.250859 -324.188572 
L 124.332986 -321.85995 
L 124.37835 -319.531327 
L 124.410278 -317.202704 
L 124.454179 -314.874082 
L 124.536537 -312.545459 
L 124.683849 -310.216836 
L 124.921544 -307.888214 
L 125.272919 -305.559591 
L 125.758168 -303.230968 
L 126.393521 -300.902346 
L 127.190551 -298.573723 
L 128.15568 -296.245101 
L 129.289915 -293.916478 
L 130.588823 -291.587855 
L 132.042756 -289.259233 
L 133.637305 -286.93061 
L 135.353965 -284.601987 
L 137.170948 -282.273365 
L 139.064114 -279.944742 
L 141.007925 -277.61612 
L 142.976375 -275.287497 
L 144.943822 -272.958874 
L 146.885668 -270.630252 
L 148.778841 -268.301629 
L 150.602079 -265.973006 
L 152.335989 -263.644384 
L 153.962935 -261.315761 
L 155.466781 -258.987139 
L 156.832559 -256.658516 
L 158.046121 -254.329893 
L 159.093856 -252.001271 
L 159.962516 -249.672648 
L 160.63921 -247.344025 
L 161.111585 -245.015403 
L 161.368188 -242.68678 
L 161.399 -240.358158 
L 161.196074 -238.029535 
L 160.754234 -235.700912 
L 160.071737 -233.37229 
L 159.150845 -231.043667 
L 157.998213 -228.715044 
L 156.625058 -226.386422 
L 155.047061 -224.057799 
L 153.284012 -221.729176 
L 151.359198 -219.400554 
L 149.298605 -217.071931 
L 147.129974 -214.743309 
L 144.881801 -212.414686 
L 142.582361 -210.086063 
L 140.258824 -207.757441 
L 137.936515 -205.428818 
L 135.638374 -203.100195 
L 133.384615 -200.771573 
L 131.192588 -198.44295 
L 129.076809 -196.114328 
L 127.049126 -193.785705 
L 125.118972 -191.457082 
L 123.293648 -189.12846 
L 121.57861 -186.799837 
L 119.97771 -184.471214 
L 118.493392 -182.142592 
L 117.126821 -179.813969 
L 115.877958 -177.485347 
L 114.745601 -175.156724 
L 113.727405 -172.828101 
L 112.819908 -170.499479 
L 112.018575 -168.170856 
L 111.317877 -165.842233 
L 110.711412 -163.513611 
L 110.192061 -161.184988 
L 109.75218 -158.856366 
L 109.383809 -156.527743 
L 109.078891 -154.19912 
z
" style="stroke: #434343; stroke-width: 1.5"/>
    </defs>
    <g clip-path="url(#pdaba063736)">
     <use xlink:href="#m1243af76eb" x="0" y="432" style="fill: #e68193; stroke: #434343; stroke-width: 1.5"/>
    </g>
   </g>
   <g id="PolyCollection_2">
    <defs>
     <path id="mea44649d30" d="M 242.213359 -114.499476 
L 240.916641 -114.499476 
L 240.732491 -117.050185 
L 240.506303 -119.600895 
L 240.231293 -122.151604 
L 239.900219 -124.702314 
L 239.505483 -127.253023 
L 239.039234 -129.803733 
L 238.493509 -132.354442 
L 237.86038 -134.905152 
L 237.132123 -137.455861 
L 236.301404 -140.006571 
L 235.361478 -142.55728 
L 234.306414 -145.107989 
L 233.131331 -147.658699 
L 231.832665 -150.209408 
L 230.408445 -152.760118 
L 228.858604 -155.310827 
L 227.185288 -157.861537 
L 225.393175 -160.412246 
L 223.48979 -162.962956 
L 221.485784 -165.513665 
L 219.395167 -168.064375 
L 217.235469 -170.615084 
L 215.027802 -173.165794 
L 212.796798 -175.716503 
L 210.570403 -178.267212 
L 208.379505 -180.817922 
L 206.25739 -183.368631 
L 204.239014 -185.919341 
L 202.360105 -188.47005 
L 200.656102 -191.02076 
L 199.160967 -193.571469 
L 197.905892 -196.122179 
L 196.917975 -198.672888 
L 196.218899 -201.223598 
L 195.823705 -203.774307 
L 195.739716 -206.325016 
L 195.965704 -208.875726 
L 196.491362 -211.426435 
L 197.297153 -213.977145 
L 198.35458 -216.527854 
L 199.626919 -219.078564 
L 201.07039 -221.629273 
L 202.635763 -224.179983 
L 204.270328 -226.730692 
L 205.920126 -229.281402 
L 207.532342 -231.832111 
L 209.057705 -234.382821 
L 210.45275 -236.93353 
L 211.681809 -239.484239 
L 212.718574 -242.034949 
L 213.547151 -244.585658 
L 214.162508 -247.136368 
L 214.570309 -249.687077 
L 214.786146 -252.237787 
L 214.834215 -254.788496 
L 214.745569 -257.339206 
L 214.55605 -259.889915 
L 214.304082 -262.440625 
L 214.028465 -264.991334 
L 213.766323 -267.542043 
L 213.551348 -270.092753 
L 213.412423 -272.643462 
L 213.372686 -275.194172 
L 213.449058 -277.744881 
L 213.652213 -280.295591 
L 213.986921 -282.8463 
L 214.4527 -285.39701 
L 215.044668 -287.947719 
L 215.754503 -290.498429 
L 216.57141 -293.049138 
L 217.483018 -295.599848 
L 218.476153 -298.150557 
L 219.537448 -300.701266 
L 220.653774 -303.251976 
L 221.812513 -305.802685 
L 223.001683 -308.353395 
L 224.209963 -310.904104 
L 225.426648 -313.454814 
L 226.641581 -316.005523 
L 227.845088 -318.556233 
L 229.027946 -321.106942 
L 230.181389 -323.657652 
L 231.297173 -326.208361 
L 232.367672 -328.75907 
L 233.386019 -331.30978 
L 234.346249 -333.860489 
L 235.243445 -336.411199 
L 236.073865 -338.961908 
L 236.835026 -341.512618 
L 237.525745 -344.063327 
L 238.146131 -346.614037 
L 238.697515 -349.164746 
L 239.182343 -351.715456 
L 239.604016 -354.266165 
L 239.966715 -356.816875 
L 240.275199 -359.367584 
L 240.534601 -361.918293 
L 240.750234 -364.469003 
L 240.927411 -367.019712 
L 242.202589 -367.019712 
L 242.202589 -367.019712 
L 242.379766 -364.469003 
L 242.595399 -361.918293 
L 242.854801 -359.367584 
L 243.163285 -356.816875 
L 243.525984 -354.266165 
L 243.947657 -351.715456 
L 244.432485 -349.164746 
L 244.983869 -346.614037 
L 245.604255 -344.063327 
L 246.294974 -341.512618 
L 247.056135 -338.961908 
L 247.886555 -336.411199 
L 248.783751 -333.860489 
L 249.743981 -331.30978 
L 250.762328 -328.75907 
L 251.832827 -326.208361 
L 252.948611 -323.657652 
L 254.102054 -321.106942 
L 255.284912 -318.556233 
L 256.488419 -316.005523 
L 257.703352 -313.454814 
L 258.920037 -310.904104 
L 260.128317 -308.353395 
L 261.317487 -305.802685 
L 262.476226 -303.251976 
L 263.592552 -300.701266 
L 264.653847 -298.150557 
L 265.646982 -295.599848 
L 266.55859 -293.049138 
L 267.375497 -290.498429 
L 268.085332 -287.947719 
L 268.6773 -285.39701 
L 269.143079 -282.8463 
L 269.477787 -280.295591 
L 269.680942 -277.744881 
L 269.757314 -275.194172 
L 269.717577 -272.643462 
L 269.578652 -270.092753 
L 269.363677 -267.542043 
L 269.101535 -264.991334 
L 268.825918 -262.440625 
L 268.57395 -259.889915 
L 268.384431 -257.339206 
L 268.295785 -254.788496 
L 268.343854 -252.237787 
L 268.559691 -249.687077 
L 268.967492 -247.136368 
L 269.582849 -244.585658 
L 270.411426 -242.034949 
L 271.448191 -239.484239 
L 272.67725 -236.93353 
L 274.072295 -234.382821 
L 275.597658 -231.832111 
L 277.209874 -229.281402 
L 278.859672 -226.730692 
L 280.494237 -224.179983 
L 282.05961 -221.629273 
L 283.503081 -219.078564 
L 284.77542 -216.527854 
L 285.832847 -213.977145 
L 286.638638 -211.426435 
L 287.164296 -208.875726 
L 287.390284 -206.325016 
L 287.306295 -203.774307 
L 286.911101 -201.223598 
L 286.212025 -198.672888 
L 285.224108 -196.122179 
L 283.969033 -193.571469 
L 282.473898 -191.02076 
L 280.769895 -188.47005 
L 278.890986 -185.919341 
L 276.87261 -183.368631 
L 274.750495 -180.817922 
L 272.559597 -178.267212 
L 270.333202 -175.716503 
L 268.102198 -173.165794 
L 265.894531 -170.615084 
L 263.734833 -168.064375 
L 261.644216 -165.513665 
L 259.64021 -162.962956 
L 257.736825 -160.412246 
L 255.944712 -157.861537 
L 254.271396 -155.310827 
L 252.721555 -152.760118 
L 251.297335 -150.209408 
L 249.998669 -147.658699 
L 248.823586 -145.107989 
L 247.768522 -142.55728 
L 246.828596 -140.006571 
L 245.997877 -137.455861 
L 245.26962 -134.905152 
L 244.636491 -132.354442 
L 244.090766 -129.803733 
L 243.624517 -127.253023 
L 243.229781 -124.702314 
L 242.898707 -122.151604 
L 242.623697 -119.600895 
L 242.397509 -117.050185 
L 242.213359 -114.499476 
z
" style="stroke: #434343; stroke-width: 1.5"/>
    </defs>
    <g clip-path="url(#pdaba063736)">
     <use xlink:href="#mea44649d30" x="0" y="432" style="fill: #9e9241; stroke: #434343; stroke-width: 1.5"/>
    </g>
   </g>
   <g id="PolyCollection_3">
    <defs>
     <path id="m64c35154ad" d="M 376.311136 -119.991567 
L 374.038864 -119.991567 
L 373.680087 -122.881535 
L 373.232406 -125.771503 
L 372.681643 -128.661471 
L 372.013577 -131.551439 
L 371.214584 -134.441407 
L 370.272391 -137.331375 
L 369.176882 -140.221343 
L 367.920939 -143.111311 
L 366.501239 -146.001279 
L 364.918972 -148.891247 
L 363.180406 -151.781214 
L 361.297257 -154.671182 
L 359.286826 -157.56115 
L 357.171874 -160.451118 
L 354.980235 -163.341086 
L 352.744169 -166.231054 
L 350.499493 -169.121022 
L 348.284518 -172.01099 
L 346.138847 -174.900958 
L 344.102078 -177.790926 
L 342.212472 -180.680894 
L 340.505616 -183.570862 
L 339.013149 -186.46083 
L 337.761568 -189.350798 
L 336.771157 -192.240766 
L 336.055086 -195.130734 
L 335.618689 -198.020702 
L 335.458982 -200.91067 
L 335.564448 -203.800638 
L 335.915119 -206.690606 
L 336.483006 -209.580574 
L 337.232882 -212.470542 
L 338.12344 -215.36051 
L 339.108816 -218.250478 
L 340.140445 -221.140446 
L 341.169178 -224.030414 
L 342.147588 -226.920382 
L 343.032334 -229.81035 
L 343.786442 -232.700318 
L 344.381362 -235.590286 
L 344.798635 -238.480254 
L 345.031036 -241.370222 
L 345.083085 -244.26019 
L 344.970856 -247.150158 
L 344.721062 -250.040126 
L 344.369478 -252.930094 
L 343.958786 -255.820062 
L 343.536004 -258.71003 
L 343.149684 -261.599998 
L 342.847081 -264.489966 
L 342.6715 -267.379934 
L 342.659997 -270.269902 
L 342.841574 -273.15987 
L 343.23596 -276.049838 
L 343.853019 -278.939806 
L 344.692755 -281.829774 
L 345.74587 -284.719742 
L 346.994759 -287.60971 
L 348.414848 -290.499678 
L 349.976147 -293.389646 
L 351.644895 -296.279614 
L 353.38522 -299.169582 
L 355.160704 -302.05955 
L 356.935832 -304.949517 
L 358.677243 -307.839485 
L 360.354801 -310.729453 
L 361.942442 -313.619421 
L 363.418808 -316.509389 
L 364.76767 -319.399357 
L 365.978139 -322.289325 
L 367.044665 -325.179293 
L 367.966841 -328.069261 
L 368.749024 -330.959229 
L 369.399783 -333.849197 
L 369.931194 -336.739165 
L 370.358031 -339.629133 
L 370.696874 -342.519101 
L 370.965183 -345.409069 
L 371.180394 -348.299037 
L 371.359071 -351.189005 
L 371.516177 -354.078973 
L 371.66449 -356.968941 
L 371.814201 -359.858909 
L 371.9727 -362.748877 
L 372.144563 -365.638845 
L 372.331713 -368.528813 
L 372.533741 -371.418781 
L 372.748329 -374.308749 
L 372.971761 -377.198717 
L 373.199441 -380.088685 
L 373.426407 -382.978653 
L 373.647781 -385.868621 
L 373.859139 -388.758589 
L 374.056783 -391.648557 
L 374.237905 -394.538525 
L 374.400659 -397.428493 
L 374.544138 -400.318461 
L 374.668287 -403.208429 
L 374.773769 -406.098397 
L 375.576231 -406.098397 
L 375.576231 -406.098397 
L 375.681713 -403.208429 
L 375.805862 -400.318461 
L 375.949341 -397.428493 
L 376.112095 -394.538525 
L 376.293217 -391.648557 
L 376.490861 -388.758589 
L 376.702219 -385.868621 
L 376.923593 -382.978653 
L 377.150559 -380.088685 
L 377.378239 -377.198717 
L 377.601671 -374.308749 
L 377.816259 -371.418781 
L 378.018287 -368.528813 
L 378.205437 -365.638845 
L 378.3773 -362.748877 
L 378.535799 -359.858909 
L 378.68551 -356.968941 
L 378.833823 -354.078973 
L 378.990929 -351.189005 
L 379.169606 -348.299037 
L 379.384817 -345.409069 
L 379.653126 -342.519101 
L 379.991969 -339.629133 
L 380.418806 -336.739165 
L 380.950217 -333.849197 
L 381.600976 -330.959229 
L 382.383159 -328.069261 
L 383.305335 -325.179293 
L 384.371861 -322.289325 
L 385.58233 -319.399357 
L 386.931192 -316.509389 
L 388.407558 -313.619421 
L 389.995199 -310.729453 
L 391.672757 -307.839485 
L 393.414168 -304.949517 
L 395.189296 -302.05955 
L 396.96478 -299.169582 
L 398.705105 -296.279614 
L 400.373853 -293.389646 
L 401.935152 -290.499678 
L 403.355241 -287.60971 
L 404.60413 -284.719742 
L 405.657245 -281.829774 
L 406.496981 -278.939806 
L 407.11404 -276.049838 
L 407.508426 -273.15987 
L 407.690003 -270.269902 
L 407.6785 -267.379934 
L 407.502919 -264.489966 
L 407.200316 -261.599998 
L 406.813996 -258.71003 
L 406.391214 -255.820062 
L 405.980522 -252.930094 
L 405.628938 -250.040126 
L 405.379144 -247.150158 
L 405.266915 -244.26019 
L 405.318964 -241.370222 
L 405.551365 -238.480254 
L 405.968638 -235.590286 
L 406.563558 -232.700318 
L 407.317666 -229.81035 
L 408.202412 -226.920382 
L 409.180822 -224.030414 
L 410.209555 -221.140446 
L 411.241184 -218.250478 
L 412.22656 -215.36051 
L 413.117118 -212.470542 
L 413.866994 -209.580574 
L 414.434881 -206.690606 
L 414.785552 -203.800638 
L 414.891018 -200.91067 
L 414.731311 -198.020702 
L 414.294914 -195.130734 
L 413.578843 -192.240766 
L 412.588432 -189.350798 
L 411.336851 -186.46083 
L 409.844384 -183.570862 
L 408.137528 -180.680894 
L 406.247922 -177.790926 
L 404.211153 -174.900958 
L 402.065482 -172.01099 
L 399.850507 -169.121022 
L 397.605831 -166.231054 
L 395.369765 -163.341086 
L 393.178126 -160.451118 
L 391.063174 -157.56115 
L 389.052743 -154.671182 
L 387.169594 -151.781214 
L 385.431028 -148.891247 
L 383.848761 -146.001279 
L 382.429061 -143.111311 
L 381.173118 -140.221343 
L 380.077609 -137.331375 
L 379.135416 -134.441407 
L 378.336423 -131.551439 
L 377.668357 -128.661471 
L 377.117594 -125.771503 
L 376.669913 -122.881535 
L 376.311136 -119.991567 
z
" style="stroke: #434343; stroke-width: 1.5"/>
    </defs>
    <g clip-path="url(#pdaba063736)">
     <use xlink:href="#m64c35154ad" x="0" y="432" style="fill: #43a178; stroke: #434343; stroke-width: 1.5"/>
    </g>
   </g>
   <g id="PolyCollection_4">
    <defs>
     <path id="m45d7c44b43" d="M 509.855669 -104.066334 
L 507.714331 -104.066334 
L 507.400421 -106.997348 
L 507.013269 -109.928363 
L 506.541294 -112.859378 
L 505.972489 -115.790392 
L 505.294754 -118.721407 
L 504.496305 -121.652421 
L 503.566145 -124.583436 
L 502.494588 -127.514451 
L 501.273831 -130.445465 
L 499.898542 -133.37648 
L 498.366451 -136.307495 
L 496.678918 -139.238509 
L 494.841447 -142.169524 
L 492.864117 -145.100539 
L 490.761892 -148.031553 
L 488.554778 -150.962568 
L 486.267792 -153.893582 
L 483.930709 -156.824597 
L 481.577566 -159.755612 
L 479.245907 -162.686626 
L 476.97578 -165.617641 
L 474.808489 -168.548656 
L 472.785166 -171.47967 
L 470.945211 -174.410685 
L 469.324685 -177.3417 
L 467.954753 -180.272714 
L 466.860285 -183.203729 
L 466.058703 -186.134743 
L 465.559175 -189.065758 
L 465.362208 -191.996773 
L 465.459688 -194.927787 
L 465.835357 -197.858802 
L 466.465702 -200.789817 
L 467.32118 -203.720831 
L 468.367689 -206.651846 
L 469.56818 -209.582861 
L 470.884285 -212.513875 
L 472.277865 -215.44489 
L 473.712382 -218.375904 
L 475.154037 -221.306919 
L 476.572628 -224.237934 
L 477.94214 -227.168948 
L 479.241077 -230.099963 
L 480.452582 -233.030978 
L 481.564396 -235.961992 
L 482.568709 -238.893007 
L 483.461952 -241.824022 
L 484.244552 -244.755036 
L 484.920676 -247.686051 
L 485.497954 -250.617065 
L 485.987165 -253.54808 
L 486.401851 -256.479095 
L 486.757853 -259.410109 
L 487.072719 -262.341124 
L 487.364998 -265.272139 
L 487.653425 -268.203153 
L 487.956023 -271.134168 
L 488.28918 -274.065183 
L 488.666764 -276.996197 
L 489.099346 -279.927212 
L 489.593608 -282.858227 
L 490.151996 -285.789241 
L 490.772654 -288.720256 
L 491.44967 -291.65127 
L 492.173607 -294.582285 
L 492.9323 -297.5133 
L 493.711824 -300.444314 
L 494.497582 -303.375329 
L 495.275399 -306.306344 
L 496.032527 -309.237358 
L 496.758489 -312.168373 
L 497.445682 -315.099388 
L 498.089708 -318.030402 
L 498.68941 -320.961417 
L 499.246625 -323.892431 
L 499.76571 -326.823446 
L 500.25288 -329.754461 
L 500.715444 -332.685475 
L 501.161015 -335.61649 
L 501.596767 -338.547505 
L 502.028798 -341.478519 
L 502.461657 -344.409534 
L 502.898056 -347.340549 
L 503.338775 -350.271563 
L 503.78275 -353.202578 
L 504.227315 -356.133592 
L 504.668561 -359.064607 
L 505.101757 -361.995622 
L 505.521807 -364.926636 
L 505.923675 -367.857651 
L 506.302763 -370.788666 
L 506.655206 -373.71968 
L 506.978076 -376.650695 
L 507.269491 -379.58171 
L 507.528628 -382.512724 
L 507.755665 -385.443739 
L 507.951659 -388.374753 
L 508.118388 -391.305768 
L 508.258167 -394.236783 
L 509.311833 -394.236783 
L 509.311833 -394.236783 
L 509.451612 -391.305768 
L 509.618341 -388.374753 
L 509.814335 -385.443739 
L 510.041372 -382.512724 
L 510.300509 -379.58171 
L 510.591924 -376.650695 
L 510.914794 -373.71968 
L 511.267237 -370.788666 
L 511.646325 -367.857651 
L 512.048193 -364.926636 
L 512.468243 -361.995622 
L 512.901439 -359.064607 
L 513.342685 -356.133592 
L 513.78725 -353.202578 
L 514.231225 -350.271563 
L 514.671944 -347.340549 
L 515.108343 -344.409534 
L 515.541202 -341.478519 
L 515.973233 -338.547505 
L 516.408985 -335.61649 
L 516.854556 -332.685475 
L 517.31712 -329.754461 
L 517.80429 -326.823446 
L 518.323375 -323.892431 
L 518.88059 -320.961417 
L 519.480292 -318.030402 
L 520.124318 -315.099388 
L 520.811511 -312.168373 
L 521.537473 -309.237358 
L 522.294601 -306.306344 
L 523.072418 -303.375329 
L 523.858176 -300.444314 
L 524.6377 -297.5133 
L 525.396393 -294.582285 
L 526.12033 -291.65127 
L 526.797346 -288.720256 
L 527.418004 -285.789241 
L 527.976392 -282.858227 
L 528.470654 -279.927212 
L 528.903236 -276.996197 
L 529.28082 -274.065183 
L 529.613977 -271.134168 
L 529.916575 -268.203153 
L 530.205002 -265.272139 
L 530.497281 -262.341124 
L 530.812147 -259.410109 
L 531.168149 -256.479095 
L 531.582835 -253.54808 
L 532.072046 -250.617065 
L 532.649324 -247.686051 
L 533.325448 -244.755036 
L 534.108048 -241.824022 
L 535.001291 -238.893007 
L 536.005604 -235.961992 
L 537.117418 -233.030978 
L 538.328923 -230.099963 
L 539.62786 -227.168948 
L 540.997372 -224.237934 
L 542.415963 -221.306919 
L 543.857618 -218.375904 
L 545.292135 -215.44489 
L 546.685715 -212.513875 
L 548.00182 -209.582861 
L 549.202311 -206.651846 
L 550.24882 -203.720831 
L 551.104298 -200.789817 
L 551.734643 -197.858802 
L 552.110312 -194.927787 
L 552.207792 -191.996773 
L 552.010825 -189.065758 
L 551.511297 -186.134743 
L 550.709715 -183.203729 
L 549.615247 -180.272714 
L 548.245315 -177.3417 
L 546.624789 -174.410685 
L 544.784834 -171.47967 
L 542.761511 -168.548656 
L 540.59422 -165.617641 
L 538.324093 -162.686626 
L 535.992434 -159.755612 
L 533.639291 -156.824597 
L 531.302208 -153.893582 
L 529.015222 -150.962568 
L 526.808108 -148.031553 
L 524.705883 -145.100539 
L 522.728553 -142.169524 
L 520.891082 -139.238509 
L 519.203549 -136.307495 
L 517.671458 -133.37648 
L 516.296169 -130.445465 
L 515.075412 -127.514451 
L 514.003855 -124.583436 
L 513.073695 -121.652421 
L 512.275246 -118.721407 
L 511.597511 -115.790392 
L 511.028706 -112.859378 
L 510.556731 -109.928363 
L 510.169579 -106.997348 
L 509.855669 -104.066334 
z
" style="stroke: #434343; stroke-width: 1.5"/>
    </defs>
    <g clip-path="url(#pdaba063736)">
     <use xlink:href="#m45d7c44b43" x="0" y="432" style="fill: #4a9eb4; stroke: #434343; stroke-width: 1.5"/>
    </g>
   </g>
   <g id="PolyCollection_5">
    <defs>
     <path id="m8d7e7b6185" d="M 643.05948 -117.794425 
L 641.73052 -117.794425 
L 641.5496 -119.998043 
L 641.328497 -122.20166 
L 641.060671 -124.405278 
L 640.739053 -126.608896 
L 640.356115 -128.812513 
L 639.903966 -131.016131 
L 639.374482 -133.219748 
L 638.75947 -135.423366 
L 638.050871 -137.626983 
L 637.241004 -139.830601 
L 636.322851 -142.034218 
L 635.290378 -144.237836 
L 634.138889 -146.441454 
L 632.86541 -148.645071 
L 631.469066 -150.848689 
L 629.95146 -153.052306 
L 628.317007 -155.255924 
L 626.573201 -157.459541 
L 624.730791 -159.663159 
L 622.803833 -161.866777 
L 620.809587 -164.070394 
L 618.768256 -166.274012 
L 616.702548 -168.477629 
L 614.637074 -170.681247 
L 612.597601 -172.884864 
L 610.610199 -175.088482 
L 608.700327 -177.2921 
L 606.891914 -179.495717 
L 605.206505 -181.699335 
L 603.662527 -183.902952 
L 602.274731 -186.10657 
L 601.05385 -188.310187 
L 600.006492 -190.513805 
L 599.135277 -192.717422 
L 598.439191 -194.92104 
L 597.914112 -197.124658 
L 597.55347 -199.328275 
L 597.348942 -201.531893 
L 597.29115 -203.73551 
L 597.370259 -205.939128 
L 597.576456 -208.142745 
L 597.900246 -210.346363 
L 598.332565 -212.549981 
L 598.864721 -214.753598 
L 599.488167 -216.957216 
L 600.194184 -219.160833 
L 600.9735 -221.364451 
L 601.815922 -223.568068 
L 602.710029 -225.771686 
L 603.642985 -227.975303 
L 604.600496 -230.178921 
L 605.566942 -232.382539 
L 606.525672 -234.586156 
L 607.459467 -236.789774 
L 608.351122 -238.993391 
L 609.18413 -241.197009 
L 609.943397 -243.400626 
L 610.615975 -245.604244 
L 611.19174 -247.807862 
L 611.663989 -250.011479 
L 612.029921 -252.215097 
L 612.290972 -254.418714 
L 612.452984 -256.622332 
L 612.526206 -258.825949 
L 612.525097 -261.029567 
L 612.467959 -263.233185 
L 612.37638 -265.436802 
L 612.274516 -267.64042 
L 612.188227 -269.844037 
L 612.144092 -272.047655 
L 612.168343 -274.251272 
L 612.285763 -276.45489 
L 612.518596 -278.658507 
L 612.885529 -280.862125 
L 613.400804 -283.065743 
L 614.073513 -285.26936 
L 614.90712 -287.472978 
L 615.899256 -289.676595 
L 617.041788 -291.880213 
L 618.321188 -294.08383 
L 619.719151 -296.287448 
L 621.21346 -298.491066 
L 622.779013 -300.694683 
L 624.388973 -302.898301 
L 626.015946 -305.101918 
L 627.633137 -307.305536 
L 629.215403 -309.509153 
L 630.740147 -311.712771 
L 632.188022 -313.916388 
L 633.543411 -316.120006 
L 634.794669 -318.323624 
L 635.93416 -320.527241 
L 636.958079 -322.730859 
L 637.866125 -324.934476 
L 638.661036 -327.138094 
L 639.348056 -329.341711 
L 639.934363 -331.545329 
L 640.428489 -333.748947 
L 640.839789 -335.952564 
L 643.950211 -335.952564 
L 643.950211 -335.952564 
L 644.361511 -333.748947 
L 644.855637 -331.545329 
L 645.441944 -329.341711 
L 646.128964 -327.138094 
L 646.923875 -324.934476 
L 647.831921 -322.730859 
L 648.85584 -320.527241 
L 649.995331 -318.323624 
L 651.246589 -316.120006 
L 652.601978 -313.916388 
L 654.049853 -311.712771 
L 655.574597 -309.509153 
L 657.156863 -307.305536 
L 658.774054 -305.101918 
L 660.401027 -302.898301 
L 662.010987 -300.694683 
L 663.57654 -298.491066 
L 665.070849 -296.287448 
L 666.468812 -294.08383 
L 667.748212 -291.880213 
L 668.890744 -289.676595 
L 669.88288 -287.472978 
L 670.716487 -285.26936 
L 671.389196 -283.065743 
L 671.904471 -280.862125 
L 672.271404 -278.658507 
L 672.504237 -276.45489 
L 672.621657 -274.251272 
L 672.645908 -272.047655 
L 672.601773 -269.844037 
L 672.515484 -267.64042 
L 672.41362 -265.436802 
L 672.322041 -263.233185 
L 672.264903 -261.029567 
L 672.263794 -258.825949 
L 672.337016 -256.622332 
L 672.499028 -254.418714 
L 672.760079 -252.215097 
L 673.126011 -250.011479 
L 673.59826 -247.807862 
L 674.174025 -245.604244 
L 674.846603 -243.400626 
L 675.60587 -241.197009 
L 676.438878 -238.993391 
L 677.330533 -236.789774 
L 678.264328 -234.586156 
L 679.223058 -232.382539 
L 680.189504 -230.178921 
L 681.147015 -227.975303 
L 682.079971 -225.771686 
L 682.974078 -223.568068 
L 683.8165 -221.364451 
L 684.595816 -219.160833 
L 685.301833 -216.957216 
L 685.925279 -214.753598 
L 686.457435 -212.549981 
L 686.889754 -210.346363 
L 687.213544 -208.142745 
L 687.419741 -205.939128 
L 687.49885 -203.73551 
L 687.441058 -201.531893 
L 687.23653 -199.328275 
L 686.875888 -197.124658 
L 686.350809 -194.92104 
L 685.654723 -192.717422 
L 684.783508 -190.513805 
L 683.73615 -188.310187 
L 682.515269 -186.10657 
L 681.127473 -183.902952 
L 679.583495 -181.699335 
L 677.898086 -179.495717 
L 676.089673 -177.2921 
L 674.179801 -175.088482 
L 672.192399 -172.884864 
L 670.152926 -170.681247 
L 668.087452 -168.477629 
L 666.021744 -166.274012 
L 663.980413 -164.070394 
L 661.986167 -161.866777 
L 660.059209 -159.663159 
L 658.216799 -157.459541 
L 656.472993 -155.255924 
L 654.83854 -153.052306 
L 653.320934 -150.848689 
L 651.92459 -148.645071 
L 650.651111 -146.441454 
L 649.499622 -144.237836 
L 648.467149 -142.034218 
L 647.548996 -139.830601 
L 646.739129 -137.626983 
L 646.03053 -135.423366 
L 645.415518 -133.219748 
L 644.886034 -131.016131 
L 644.433885 -128.812513 
L 644.050947 -126.608896 
L 643.729329 -124.405278 
L 643.461503 -122.20166 
L 643.2404 -119.998043 
L 643.05948 -117.794425 
z
" style="stroke: #434343; stroke-width: 1.5"/>
    </defs>
    <g clip-path="url(#pdaba063736)">
     <use xlink:href="#m8d7e7b6185" x="0" y="432" style="fill: #c789e5; stroke: #434343; stroke-width: 1.5"/>
    </g>
   </g>
   <g id="matplotlib.axis_1">
    <g id="xtick_1">
     <g id="line2d_1">
      <defs>
       <path id="m3c053f2cab" d="M 0 0 
L 0 3.5 
" style="stroke: #000000; stroke-width: 0.8"/>
      </defs>
      <g>
       <use xlink:href="#m3c053f2cab" x="107.955" y="343.03527" style="stroke: #000000; stroke-width: 0.8"/>
      </g>
     </g>
     <g id="text_1">
      <!-- Reference -->
      <g transform="translate(92.103655 391.013212) rotate(-45) scale(0.1 -0.1)">
       <defs>
        <path id="DejaVuSans-52" d="M 2841 2188 
Q 3044 2119 3236 1894 
Q 3428 1669 3622 1275 
L 4263 0 
L 3584 0 
L 2988 1197 
Q 2756 1666 2539 1819 
Q 2322 1972 1947 1972 
L 1259 1972 
L 1259 0 
L 628 0 
L 628 4666 
L 2053 4666 
Q 2853 4666 3247 4331 
Q 3641 3997 3641 3322 
Q 3641 2881 3436 2590 
Q 3231 2300 2841 2188 
z
M 1259 4147 
L 1259 2491 
L 2053 2491 
Q 2509 2491 2742 2702 
Q 2975 2913 2975 3322 
Q 2975 3731 2742 3939 
Q 2509 4147 2053 4147 
L 1259 4147 
z
" transform="scale(0.015625)"/>
        <path id="DejaVuSans-65" d="M 3597 1894 
L 3597 1613 
L 953 1613 
Q 991 1019 1311 708 
Q 1631 397 2203 397 
Q 2534 397 2845 478 
Q 3156 559 3463 722 
L 3463 178 
Q 3153 47 2828 -22 
Q 2503 -91 2169 -91 
Q 1331 -91 842 396 
Q 353 884 353 1716 
Q 353 2575 817 3079 
Q 1281 3584 2069 3584 
Q 2775 3584 3186 3129 
Q 3597 2675 3597 1894 
z
M 3022 2063 
Q 3016 2534 2758 2815 
Q 2500 3097 2075 3097 
Q 1594 3097 1305 2825 
Q 1016 2553 972 2059 
L 3022 2063 
z
" transform="scale(0.015625)"/>
        <path id="DejaVuSans-66" d="M 2375 4863 
L 2375 4384 
L 1825 4384 
Q 1516 4384 1395 4259 
Q 1275 4134 1275 3809 
L 1275 3500 
L 2222 3500 
L 2222 3053 
L 1275 3053 
L 1275 0 
L 697 0 
L 697 3053 
L 147 3053 
L 147 3500 
L 697 3500 
L 697 3744 
Q 697 4328 969 4595 
Q 1241 4863 1831 4863 
L 2375 4863 
z
" transform="scale(0.015625)"/>
        <path id="DejaVuSans-72" d="M 2631 2963 
Q 2534 3019 2420 3045 
Q 2306 3072 2169 3072 
Q 1681 3072 1420 2755 
Q 1159 2438 1159 1844 
L 1159 0 
L 581 0 
L 581 3500 
L 1159 3500 
L 1159 2956 
Q 1341 3275 1631 3429 
Q 1922 3584 2338 3584 
Q 2397 3584 2469 3576 
Q 2541 3569 2628 3553 
L 2631 2963 
z
" transform="scale(0.015625)"/>
        <path id="DejaVuSans-6e" d="M 3513 2113 
L 3513 0 
L 2938 0 
L 2938 2094 
Q 2938 2591 2744 2837 
Q 2550 3084 2163 3084 
Q 1697 3084 1428 2787 
Q 1159 2491 1159 1978 
L 1159 0 
L 581 0 
L 581 3500 
L 1159 3500 
L 1159 2956 
Q 1366 3272 1645 3428 
Q 1925 3584 2291 3584 
Q 2894 3584 3203 3211 
Q 3513 2838 3513 2113 
z
" transform="scale(0.015625)"/>
        <path id="DejaVuSans-63" d="M 3122 3366 
L 3122 2828 
Q 2878 2963 2633 3030 
Q 2388 3097 2138 3097 
Q 1578 3097 1268 2742 
Q 959 2388 959 1747 
Q 959 1106 1268 751 
Q 1578 397 2138 397 
Q 2388 397 2633 464 
Q 2878 531 3122 666 
L 3122 134 
Q 2881 22 2623 -34 
Q 2366 -91 2075 -91 
Q 1284 -91 818 406 
Q 353 903 353 1747 
Q 353 2603 823 3093 
Q 1294 3584 2113 3584 
Q 2378 3584 2631 3529 
Q 2884 3475 3122 3366 
z
" transform="scale(0.015625)"/>
       </defs>
       <use xlink:href="#DejaVuSans-52"/>
       <use xlink:href="#DejaVuSans-65" x="64.982422"/>
       <use xlink:href="#DejaVuSans-66" x="126.505859"/>
       <use xlink:href="#DejaVuSans-65" x="161.710938"/>
       <use xlink:href="#DejaVuSans-72" x="223.234375"/>
       <use xlink:href="#DejaVuSans-65" x="262.097656"/>
       <use xlink:href="#DejaVuSans-6e" x="323.621094"/>
       <use xlink:href="#DejaVuSans-63" x="387"/>
       <use xlink:href="#DejaVuSans-65" x="441.980469"/>
      </g>
     </g>
    </g>
    <g id="xtick_2">
     <g id="line2d_2">
      <g>
       <use xlink:href="#m3c053f2cab" x="241.565" y="343.03527" style="stroke: #000000; stroke-width: 0.8"/>
      </g>
     </g>
     <g id="text_2">
      <!-- 24h 4ºC +PBS -->
      <g transform="translate(218.442056 405.55641) rotate(-45) scale(0.1 -0.1)">
       <defs>
        <path id="DejaVuSans-32" d="M 1228 531 
L 3431 531 
L 3431 0 
L 469 0 
L 469 531 
Q 828 903 1448 1529 
Q 2069 2156 2228 2338 
Q 2531 2678 2651 2914 
Q 2772 3150 2772 3378 
Q 2772 3750 2511 3984 
Q 2250 4219 1831 4219 
Q 1534 4219 1204 4116 
Q 875 4013 500 3803 
L 500 4441 
Q 881 4594 1212 4672 
Q 1544 4750 1819 4750 
Q 2544 4750 2975 4387 
Q 3406 4025 3406 3419 
Q 3406 3131 3298 2873 
Q 3191 2616 2906 2266 
Q 2828 2175 2409 1742 
Q 1991 1309 1228 531 
z
" transform="scale(0.015625)"/>
        <path id="DejaVuSans-34" d="M 2419 4116 
L 825 1625 
L 2419 1625 
L 2419 4116 
z
M 2253 4666 
L 3047 4666 
L 3047 1625 
L 3713 1625 
L 3713 1100 
L 3047 1100 
L 3047 0 
L 2419 0 
L 2419 1100 
L 313 1100 
L 313 1709 
L 2253 4666 
z
" transform="scale(0.015625)"/>
        <path id="DejaVuSans-68" d="M 3513 2113 
L 3513 0 
L 2938 0 
L 2938 2094 
Q 2938 2591 2744 2837 
Q 2550 3084 2163 3084 
Q 1697 3084 1428 2787 
Q 1159 2491 1159 1978 
L 1159 0 
L 581 0 
L 581 4863 
L 1159 4863 
L 1159 2956 
Q 1366 3272 1645 3428 
Q 1925 3584 2291 3584 
Q 2894 3584 3203 3211 
Q 3513 2838 3513 2113 
z
" transform="scale(0.015625)"/>
        <path id="DejaVuSans-20" transform="scale(0.015625)"/>
        <path id="DejaVuSans-ba" d="M 434 1850 
L 2584 1850 
L 2584 1466 
L 434 1466 
L 434 1850 
z
M 1509 4750 
Q 2069 4750 2391 4404 
Q 2713 4059 2713 3463 
Q 2713 2866 2391 2523 
Q 2069 2181 1509 2181 
Q 950 2181 625 2525 
Q 300 2869 300 3463 
Q 300 4059 625 4404 
Q 950 4750 1509 4750 
z
M 1509 4391 
Q 1181 4391 984 4139 
Q 788 3888 788 3463 
Q 788 3047 986 2797 
Q 1184 2547 1509 2547 
Q 1838 2547 2033 2797 
Q 2228 3047 2228 3463 
Q 2228 3891 2034 4141 
Q 1841 4391 1509 4391 
z
" transform="scale(0.015625)"/>
        <path id="DejaVuSans-43" d="M 4122 4306 
L 4122 3641 
Q 3803 3938 3442 4084 
Q 3081 4231 2675 4231 
Q 1875 4231 1450 3742 
Q 1025 3253 1025 2328 
Q 1025 1406 1450 917 
Q 1875 428 2675 428 
Q 3081 428 3442 575 
Q 3803 722 4122 1019 
L 4122 359 
Q 3791 134 3420 21 
Q 3050 -91 2638 -91 
Q 1578 -91 968 557 
Q 359 1206 359 2328 
Q 359 3453 968 4101 
Q 1578 4750 2638 4750 
Q 3056 4750 3426 4639 
Q 3797 4528 4122 4306 
z
" transform="scale(0.015625)"/>
        <path id="DejaVuSans-2b" d="M 2944 4013 
L 2944 2272 
L 4684 2272 
L 4684 1741 
L 2944 1741 
L 2944 0 
L 2419 0 
L 2419 1741 
L 678 1741 
L 678 2272 
L 2419 2272 
L 2419 4013 
L 2944 4013 
z
" transform="scale(0.015625)"/>
        <path id="DejaVuSans-50" d="M 1259 4147 
L 1259 2394 
L 2053 2394 
Q 2494 2394 2734 2622 
Q 2975 2850 2975 3272 
Q 2975 3691 2734 3919 
Q 2494 4147 2053 4147 
L 1259 4147 
z
M 628 4666 
L 2053 4666 
Q 2838 4666 3239 4311 
Q 3641 3956 3641 3272 
Q 3641 2581 3239 2228 
Q 2838 1875 2053 1875 
L 1259 1875 
L 1259 0 
L 628 0 
L 628 4666 
z
" transform="scale(0.015625)"/>
        <path id="DejaVuSans-42" d="M 1259 2228 
L 1259 519 
L 2272 519 
Q 2781 519 3026 730 
Q 3272 941 3272 1375 
Q 3272 1813 3026 2020 
Q 2781 2228 2272 2228 
L 1259 2228 
z
M 1259 4147 
L 1259 2741 
L 2194 2741 
Q 2656 2741 2882 2914 
Q 3109 3088 3109 3444 
Q 3109 3797 2882 3972 
Q 2656 4147 2194 4147 
L 1259 4147 
z
M 628 4666 
L 2241 4666 
Q 2963 4666 3353 4366 
Q 3744 4066 3744 3513 
Q 3744 3084 3544 2831 
Q 3344 2578 2956 2516 
Q 3422 2416 3680 2098 
Q 3938 1781 3938 1306 
Q 3938 681 3513 340 
Q 3088 0 2303 0 
L 628 0 
L 628 4666 
z
" transform="scale(0.015625)"/>
        <path id="DejaVuSans-53" d="M 3425 4513 
L 3425 3897 
Q 3066 4069 2747 4153 
Q 2428 4238 2131 4238 
Q 1616 4238 1336 4038 
Q 1056 3838 1056 3469 
Q 1056 3159 1242 3001 
Q 1428 2844 1947 2747 
L 2328 2669 
Q 3034 2534 3370 2195 
Q 3706 1856 3706 1288 
Q 3706 609 3251 259 
Q 2797 -91 1919 -91 
Q 1588 -91 1214 -16 
Q 841 59 441 206 
L 441 856 
Q 825 641 1194 531 
Q 1563 422 1919 422 
Q 2459 422 2753 634 
Q 3047 847 3047 1241 
Q 3047 1584 2836 1778 
Q 2625 1972 2144 2069 
L 1759 2144 
Q 1053 2284 737 2584 
Q 422 2884 422 3419 
Q 422 4038 858 4394 
Q 1294 4750 2059 4750 
Q 2388 4750 2728 4690 
Q 3069 4631 3425 4513 
z
" transform="scale(0.015625)"/>
       </defs>
       <use xlink:href="#DejaVuSans-32"/>
       <use xlink:href="#DejaVuSans-34" x="63.623047"/>
       <use xlink:href="#DejaVuSans-68" x="127.246094"/>
       <use xlink:href="#DejaVuSans-20" x="190.625"/>
       <use xlink:href="#DejaVuSans-34" x="222.412109"/>
       <use xlink:href="#DejaVuSans-ba" x="286.035156"/>
       <use xlink:href="#DejaVuSans-43" x="333.154297"/>
       <use xlink:href="#DejaVuSans-20" x="402.978516"/>
       <use xlink:href="#DejaVuSans-2b" x="434.765625"/>
       <use xlink:href="#DejaVuSans-50" x="518.554688"/>
       <use xlink:href="#DejaVuSans-42" x="578.857422"/>
       <use xlink:href="#DejaVuSans-53" x="645.710938"/>
      </g>
     </g>
    </g>
    <g id="xtick_3">
     <g id="line2d_3">
      <g>
       <use xlink:href="#m3c053f2cab" x="375.175" y="343.03527" style="stroke: #000000; stroke-width: 0.8"/>
      </g>
     </g>
     <g id="text_3">
      <!-- 72h 4ºC +PBS -->
      <g transform="translate(352.052056 405.55641) rotate(-45) scale(0.1 -0.1)">
       <defs>
        <path id="DejaVuSans-37" d="M 525 4666 
L 3525 4666 
L 3525 4397 
L 1831 0 
L 1172 0 
L 2766 4134 
L 525 4134 
L 525 4666 
z
" transform="scale(0.015625)"/>
       </defs>
       <use xlink:href="#DejaVuSans-37"/>
       <use xlink:href="#DejaVuSans-32" x="63.623047"/>
       <use xlink:href="#DejaVuSans-68" x="127.246094"/>
       <use xlink:href="#DejaVuSans-20" x="190.625"/>
       <use xlink:href="#DejaVuSans-34" x="222.412109"/>
       <use xlink:href="#DejaVuSans-ba" x="286.035156"/>
       <use xlink:href="#DejaVuSans-43" x="333.154297"/>
       <use xlink:href="#DejaVuSans-20" x="402.978516"/>
       <use xlink:href="#DejaVuSans-2b" x="434.765625"/>
       <use xlink:href="#DejaVuSans-50" x="518.554688"/>
       <use xlink:href="#DejaVuSans-42" x="578.857422"/>
       <use xlink:href="#DejaVuSans-53" x="645.710938"/>
      </g>
     </g>
    </g>
    <g id="xtick_4">
     <g id="line2d_4">
      <g>
       <use xlink:href="#m3c053f2cab" x="508.785" y="343.03527" style="stroke: #000000; stroke-width: 0.8"/>
      </g>
     </g>
     <g id="text_4">
      <!-- 24h 4ºC -PBS -->
      <g transform="translate(487.349168 402.182185) rotate(-45) scale(0.1 -0.1)">
       <defs>
        <path id="DejaVuSans-2d" d="M 313 2009 
L 1997 2009 
L 1997 1497 
L 313 1497 
L 313 2009 
z
" transform="scale(0.015625)"/>
       </defs>
       <use xlink:href="#DejaVuSans-32"/>
       <use xlink:href="#DejaVuSans-34" x="63.623047"/>
       <use xlink:href="#DejaVuSans-68" x="127.246094"/>
       <use xlink:href="#DejaVuSans-20" x="190.625"/>
       <use xlink:href="#DejaVuSans-34" x="222.412109"/>
       <use xlink:href="#DejaVuSans-ba" x="286.035156"/>
       <use xlink:href="#DejaVuSans-43" x="333.154297"/>
       <use xlink:href="#DejaVuSans-20" x="402.978516"/>
       <use xlink:href="#DejaVuSans-2d" x="434.765625"/>
       <use xlink:href="#DejaVuSans-50" x="470.849609"/>
       <use xlink:href="#DejaVuSans-42" x="531.152344"/>
       <use xlink:href="#DejaVuSans-53" x="598.005859"/>
      </g>
     </g>
    </g>
    <g id="xtick_5">
     <g id="line2d_5">
      <g>
       <use xlink:href="#m3c053f2cab" x="642.395" y="343.03527" style="stroke: #000000; stroke-width: 0.8"/>
      </g>
     </g>
     <g id="text_5">
      <!-- 72h 4ºC -PBS -->
      <g transform="translate(620.959168 402.182185) rotate(-45) scale(0.1 -0.1)">
       <use xlink:href="#DejaVuSans-37"/>
       <use xlink:href="#DejaVuSans-32" x="63.623047"/>
       <use xlink:href="#DejaVuSans-68" x="127.246094"/>
       <use xlink:href="#DejaVuSans-20" x="190.625"/>
       <use xlink:href="#DejaVuSans-34" x="222.412109"/>
       <use xlink:href="#DejaVuSans-ba" x="286.035156"/>
       <use xlink:href="#DejaVuSans-43" x="333.154297"/>
       <use xlink:href="#DejaVuSans-20" x="402.978516"/>
       <use xlink:href="#DejaVuSans-2d" x="434.765625"/>
       <use xlink:href="#DejaVuSans-50" x="470.849609"/>
       <use xlink:href="#DejaVuSans-42" x="531.152344"/>
       <use xlink:href="#DejaVuSans-53" x="598.005859"/>
      </g>
     </g>
    </g>
    <g id="text_6">
     <!-- Condition -->
     <g transform="translate(351.314844 418.625409) scale(0.1 -0.1)">
      <defs>
       <path id="DejaVuSans-6f" d="M 1959 3097 
Q 1497 3097 1228 2736 
Q 959 2375 959 1747 
Q 959 1119 1226 758 
Q 1494 397 1959 397 
Q 2419 397 2687 759 
Q 2956 1122 2956 1747 
Q 2956 2369 2687 2733 
Q 2419 3097 1959 3097 
z
M 1959 3584 
Q 2709 3584 3137 3096 
Q 3566 2609 3566 1747 
Q 3566 888 3137 398 
Q 2709 -91 1959 -91 
Q 1206 -91 779 398 
Q 353 888 353 1747 
Q 353 2609 779 3096 
Q 1206 3584 1959 3584 
z
" transform="scale(0.015625)"/>
       <path id="DejaVuSans-64" d="M 2906 2969 
L 2906 4863 
L 3481 4863 
L 3481 0 
L 2906 0 
L 2906 525 
Q 2725 213 2448 61 
Q 2172 -91 1784 -91 
Q 1150 -91 751 415 
Q 353 922 353 1747 
Q 353 2572 751 3078 
Q 1150 3584 1784 3584 
Q 2172 3584 2448 3432 
Q 2725 3281 2906 2969 
z
M 947 1747 
Q 947 1113 1208 752 
Q 1469 391 1925 391 
Q 2381 391 2643 752 
Q 2906 1113 2906 1747 
Q 2906 2381 2643 2742 
Q 2381 3103 1925 3103 
Q 1469 3103 1208 2742 
Q 947 2381 947 1747 
z
" transform="scale(0.015625)"/>
       <path id="DejaVuSans-69" d="M 603 3500 
L 1178 3500 
L 1178 0 
L 603 0 
L 603 3500 
z
M 603 4863 
L 1178 4863 
L 1178 4134 
L 603 4134 
L 603 4863 
z
" transform="scale(0.015625)"/>
       <path id="DejaVuSans-74" d="M 1172 4494 
L 1172 3500 
L 2356 3500 
L 2356 3053 
L 1172 3053 
L 1172 1153 
Q 1172 725 1289 603 
Q 1406 481 1766 481 
L 2356 481 
L 2356 0 
L 1766 0 
Q 1100 0 847 248 
Q 594 497 594 1153 
L 594 3053 
L 172 3053 
L 172 3500 
L 594 3500 
L 594 4494 
L 1172 4494 
z
" transform="scale(0.015625)"/>
      </defs>
      <use xlink:href="#DejaVuSans-43"/>
      <use xlink:href="#DejaVuSans-6f" x="69.824219"/>
      <use xlink:href="#DejaVuSans-6e" x="131.005859"/>
      <use xlink:href="#DejaVuSans-64" x="194.384766"/>
      <use xlink:href="#DejaVuSans-69" x="257.861328"/>
      <use xlink:href="#DejaVuSans-74" x="285.644531"/>
      <use xlink:href="#DejaVuSans-69" x="324.853516"/>
      <use xlink:href="#DejaVuSans-6f" x="352.636719"/>
      <use xlink:href="#DejaVuSans-6e" x="413.818359"/>
     </g>
    </g>
   </g>
   <g id="matplotlib.axis_2">
    <g id="ytick_1">
     <g id="line2d_6">
      <defs>
       <path id="m34e98af7dc" d="M 0 0 
L -3.5 0 
" style="stroke: #000000; stroke-width: 0.8"/>
      </defs>
      <g>
       <use xlink:href="#m34e98af7dc" x="41.15" y="325.758409" style="stroke: #000000; stroke-width: 0.8"/>
      </g>
     </g>
     <g id="text_7">
      <!-- 0 -->
      <g transform="translate(27.7875 329.557628) scale(0.1 -0.1)">
       <defs>
        <path id="DejaVuSans-30" d="M 2034 4250 
Q 1547 4250 1301 3770 
Q 1056 3291 1056 2328 
Q 1056 1369 1301 889 
Q 1547 409 2034 409 
Q 2525 409 2770 889 
Q 3016 1369 3016 2328 
Q 3016 3291 2770 3770 
Q 2525 4250 2034 4250 
z
M 2034 4750 
Q 2819 4750 3233 4129 
Q 3647 3509 3647 2328 
Q 3647 1150 3233 529 
Q 2819 -91 2034 -91 
Q 1250 -91 836 529 
Q 422 1150 422 2328 
Q 422 3509 836 4129 
Q 1250 4750 2034 4750 
z
" transform="scale(0.015625)"/>
       </defs>
       <use xlink:href="#DejaVuSans-30"/>
      </g>
     </g>
    </g>
    <g id="ytick_2">
     <g id="line2d_7">
      <g>
       <use xlink:href="#m34e98af7dc" x="41.15" y="284.10665" style="stroke: #000000; stroke-width: 0.8"/>
      </g>
     </g>
     <g id="text_8">
      <!-- 1 -->
      <g transform="translate(27.7875 287.905869) scale(0.1 -0.1)">
       <defs>
        <path id="DejaVuSans-31" d="M 794 531 
L 1825 531 
L 1825 4091 
L 703 3866 
L 703 4441 
L 1819 4666 
L 2450 4666 
L 2450 531 
L 3481 531 
L 3481 0 
L 794 0 
L 794 531 
z
" transform="scale(0.015625)"/>
       </defs>
       <use xlink:href="#DejaVuSans-31"/>
      </g>
     </g>
    </g>
    <g id="ytick_3">
     <g id="line2d_8">
      <g>
       <use xlink:href="#m34e98af7dc" x="41.15" y="242.454891" style="stroke: #000000; stroke-width: 0.8"/>
      </g>
     </g>
     <g id="text_9">
      <!-- 2 -->
      <g transform="translate(27.7875 246.25411) scale(0.1 -0.1)">
       <use xlink:href="#DejaVuSans-32"/>
      </g>
     </g>
    </g>
    <g id="ytick_4">
     <g id="line2d_9">
      <g>
       <use xlink:href="#m34e98af7dc" x="41.15" y="200.803132" style="stroke: #000000; stroke-width: 0.8"/>
      </g>
     </g>
     <g id="text_10">
      <!-- 3 -->
      <g transform="translate(27.7875 204.602351) scale(0.1 -0.1)">
       <defs>
        <path id="DejaVuSans-33" d="M 2597 2516 
Q 3050 2419 3304 2112 
Q 3559 1806 3559 1356 
Q 3559 666 3084 287 
Q 2609 -91 1734 -91 
Q 1441 -91 1130 -33 
Q 819 25 488 141 
L 488 750 
Q 750 597 1062 519 
Q 1375 441 1716 441 
Q 2309 441 2620 675 
Q 2931 909 2931 1356 
Q 2931 1769 2642 2001 
Q 2353 2234 1838 2234 
L 1294 2234 
L 1294 2753 
L 1863 2753 
Q 2328 2753 2575 2939 
Q 2822 3125 2822 3475 
Q 2822 3834 2567 4026 
Q 2313 4219 1838 4219 
Q 1578 4219 1281 4162 
Q 984 4106 628 3988 
L 628 4550 
Q 988 4650 1302 4700 
Q 1616 4750 1894 4750 
Q 2613 4750 3031 4423 
Q 3450 4097 3450 3541 
Q 3450 3153 3228 2886 
Q 3006 2619 2597 2516 
z
" transform="scale(0.015625)"/>
       </defs>
       <use xlink:href="#DejaVuSans-33"/>
      </g>
     </g>
    </g>
    <g id="ytick_5">
     <g id="line2d_10">
      <g>
       <use xlink:href="#m34e98af7dc" x="41.15" y="159.151373" style="stroke: #000000; stroke-width: 0.8"/>
      </g>
     </g>
     <g id="text_11">
      <!-- 4 -->
      <g transform="translate(27.7875 162.950592) scale(0.1 -0.1)">
       <use xlink:href="#DejaVuSans-34"/>
      </g>
     </g>
    </g>
    <g id="ytick_6">
     <g id="line2d_11">
      <g>
       <use xlink:href="#m34e98af7dc" x="41.15" y="117.499614" style="stroke: #000000; stroke-width: 0.8"/>
      </g>
     </g>
     <g id="text_12">
      <!-- 5 -->
      <g transform="translate(27.7875 121.298833) scale(0.1 -0.1)">
       <defs>
        <path id="DejaVuSans-35" d="M 691 4666 
L 3169 4666 
L 3169 4134 
L 1269 4134 
L 1269 2991 
Q 1406 3038 1543 3061 
Q 1681 3084 1819 3084 
Q 2600 3084 3056 2656 
Q 3513 2228 3513 1497 
Q 3513 744 3044 326 
Q 2575 -91 1722 -91 
Q 1428 -91 1123 -41 
Q 819 9 494 109 
L 494 744 
Q 775 591 1075 516 
Q 1375 441 1709 441 
Q 2250 441 2565 725 
Q 2881 1009 2881 1497 
Q 2881 1984 2565 2268 
Q 2250 2553 1709 2553 
Q 1456 2553 1204 2497 
Q 953 2441 691 2322 
L 691 4666 
z
" transform="scale(0.015625)"/>
       </defs>
       <use xlink:href="#DejaVuSans-35"/>
      </g>
     </g>
    </g>
    <g id="ytick_7">
     <g id="line2d_12">
      <g>
       <use xlink:href="#m34e98af7dc" x="41.15" y="75.847855" style="stroke: #000000; stroke-width: 0.8"/>
      </g>
     </g>
     <g id="text_13">
      <!-- 6 -->
      <g transform="translate(27.7875 79.647074) scale(0.1 -0.1)">
       <defs>
        <path id="DejaVuSans-36" d="M 2113 2584 
Q 1688 2584 1439 2293 
Q 1191 2003 1191 1497 
Q 1191 994 1439 701 
Q 1688 409 2113 409 
Q 2538 409 2786 701 
Q 3034 994 3034 1497 
Q 3034 2003 2786 2293 
Q 2538 2584 2113 2584 
z
M 3366 4563 
L 3366 3988 
Q 3128 4100 2886 4159 
Q 2644 4219 2406 4219 
Q 1781 4219 1451 3797 
Q 1122 3375 1075 2522 
Q 1259 2794 1537 2939 
Q 1816 3084 2150 3084 
Q 2853 3084 3261 2657 
Q 3669 2231 3669 1497 
Q 3669 778 3244 343 
Q 2819 -91 2113 -91 
Q 1303 -91 875 529 
Q 447 1150 447 2328 
Q 447 3434 972 4092 
Q 1497 4750 2381 4750 
Q 2619 4750 2861 4703 
Q 3103 4656 3366 4563 
z
" transform="scale(0.015625)"/>
       </defs>
       <use xlink:href="#DejaVuSans-36"/>
      </g>
     </g>
    </g>
    <g id="ytick_8">
     <g id="line2d_13">
      <g>
       <use xlink:href="#m34e98af7dc" x="41.15" y="34.196096" style="stroke: #000000; stroke-width: 0.8"/>
      </g>
     </g>
     <g id="text_14">
      <!-- 7 -->
      <g transform="translate(27.7875 37.995315) scale(0.1 -0.1)">
       <use xlink:href="#DejaVuSans-37"/>
      </g>
     </g>
    </g>
    <g id="text_15">
     <!-- $log([HSPB1]/[Total Protein])$ -->
     <g transform="translate(21.6875 244.617635) rotate(-90) scale(0.1 -0.1)">
      <defs>
       <path id="DejaVuSans-Oblique-6c" d="M 1172 4863 
L 1747 4863 
L 800 0 
L 225 0 
L 1172 4863 
z
" transform="scale(0.015625)"/>
       <path id="DejaVuSans-Oblique-6f" d="M 1625 -91 
Q 1009 -91 651 289 
Q 294 669 294 1325 
Q 294 1706 417 2101 
Q 541 2497 738 2766 
Q 1047 3184 1428 3384 
Q 1809 3584 2291 3584 
Q 2888 3584 3255 3212 
Q 3622 2841 3622 2241 
Q 3622 1825 3500 1412 
Q 3378 1000 3181 728 
Q 2875 309 2494 109 
Q 2113 -91 1625 -91 
z
M 891 1344 
Q 891 869 1089 633 
Q 1288 397 1691 397 
Q 2269 397 2648 901 
Q 3028 1406 3028 2181 
Q 3028 2634 2825 2865 
Q 2622 3097 2228 3097 
Q 1903 3097 1650 2945 
Q 1397 2794 1197 2484 
Q 1050 2253 970 1956 
Q 891 1659 891 1344 
z
" transform="scale(0.015625)"/>
       <path id="DejaVuSans-Oblique-67" d="M 3816 3500 
L 3219 434 
Q 3047 -456 2561 -893 
Q 2075 -1331 1253 -1331 
Q 950 -1331 690 -1286 
Q 431 -1241 206 -1147 
L 313 -588 
Q 525 -725 762 -790 
Q 1000 -856 1269 -856 
Q 1816 -856 2167 -557 
Q 2519 -259 2631 300 
L 2681 563 
Q 2441 288 2122 144 
Q 1803 0 1434 0 
Q 903 0 598 351 
Q 294 703 294 1319 
Q 294 1803 478 2267 
Q 663 2731 997 3091 
Q 1219 3328 1514 3456 
Q 1809 3584 2131 3584 
Q 2484 3584 2746 3420 
Q 3009 3256 3138 2956 
L 3238 3500 
L 3816 3500 
z
M 2950 2216 
Q 2950 2641 2750 2872 
Q 2550 3103 2181 3103 
Q 1953 3103 1747 3012 
Q 1541 2922 1394 2759 
Q 1156 2491 1023 2127 
Q 891 1763 891 1375 
Q 891 944 1092 712 
Q 1294 481 1672 481 
Q 2219 481 2584 976 
Q 2950 1472 2950 2216 
z
" transform="scale(0.015625)"/>
       <path id="DejaVuSans-28" d="M 1984 4856 
Q 1566 4138 1362 3434 
Q 1159 2731 1159 2009 
Q 1159 1288 1364 580 
Q 1569 -128 1984 -844 
L 1484 -844 
Q 1016 -109 783 600 
Q 550 1309 550 2009 
Q 550 2706 781 3412 
Q 1013 4119 1484 4856 
L 1984 4856 
z
" transform="scale(0.015625)"/>
       <path id="DejaVuSans-5b" d="M 550 4863 
L 1875 4863 
L 1875 4416 
L 1125 4416 
L 1125 -397 
L 1875 -397 
L 1875 -844 
L 550 -844 
L 550 4863 
z
" transform="scale(0.015625)"/>
       <path id="DejaVuSans-Oblique-48" d="M 1081 4666 
L 1716 4666 
L 1344 2753 
L 3634 2753 
L 4006 4666 
L 4641 4666 
L 3731 0 
L 3097 0 
L 3531 2222 
L 1241 2222 
L 806 0 
L 172 0 
L 1081 4666 
z
" transform="scale(0.015625)"/>
       <path id="DejaVuSans-Oblique-53" d="M 3859 4513 
L 3738 3897 
Q 3422 4066 3111 4152 
Q 2800 4238 2509 4238 
Q 1944 4238 1609 3991 
Q 1275 3744 1275 3334 
Q 1275 3109 1398 2989 
Q 1522 2869 2034 2731 
L 2413 2638 
Q 3053 2472 3303 2217 
Q 3553 1963 3553 1503 
Q 3553 797 2998 353 
Q 2444 -91 1538 -91 
Q 1166 -91 791 -17 
Q 416 56 38 206 
L 166 856 
Q 513 641 861 531 
Q 1209 422 1556 422 
Q 2147 422 2503 684 
Q 2859 947 2859 1369 
Q 2859 1650 2717 1795 
Q 2575 1941 2106 2059 
L 1728 2156 
Q 1081 2325 845 2545 
Q 609 2766 609 3163 
Q 609 3859 1145 4304 
Q 1681 4750 2541 4750 
Q 2875 4750 3203 4690 
Q 3531 4631 3859 4513 
z
" transform="scale(0.015625)"/>
       <path id="DejaVuSans-Oblique-50" d="M 1081 4666 
L 2541 4666 
Q 3178 4666 3512 4369 
Q 3847 4072 3847 3500 
Q 3847 2731 3353 2303 
Q 2859 1875 1966 1875 
L 1172 1875 
L 806 0 
L 172 0 
L 1081 4666 
z
M 1613 4147 
L 1275 2394 
L 2069 2394 
Q 2606 2394 2893 2669 
Q 3181 2944 3181 3456 
Q 3181 3784 2986 3965 
Q 2791 4147 2438 4147 
L 1613 4147 
z
" transform="scale(0.015625)"/>
       <path id="DejaVuSans-Oblique-42" d="M 1081 4666 
L 2694 4666 
Q 3350 4666 3675 4422 
Q 4000 4178 4000 3688 
Q 4000 3238 3720 2911 
Q 3441 2584 2988 2516 
Q 3375 2428 3569 2181 
Q 3763 1934 3763 1522 
Q 3763 819 3242 409 
Q 2722 0 1819 0 
L 172 0 
L 1081 4666 
z
M 1234 2228 
L 903 519 
L 1919 519 
Q 2491 519 2800 781 
Q 3109 1044 3109 1522 
Q 3109 1891 2904 2059 
Q 2700 2228 2247 2228 
L 1234 2228 
z
M 1606 4147 
L 1331 2741 
L 2272 2741 
Q 2775 2741 3058 2959 
Q 3341 3178 3341 3566 
Q 3341 3869 3150 4008 
Q 2959 4147 2541 4147 
L 1606 4147 
z
" transform="scale(0.015625)"/>
       <path id="DejaVuSans-5d" d="M 1947 4863 
L 1947 -844 
L 622 -844 
L 622 -397 
L 1369 -397 
L 1369 4416 
L 622 4416 
L 622 4863 
L 1947 4863 
z
" transform="scale(0.015625)"/>
       <path id="DejaVuSans-2f" d="M 1625 4666 
L 2156 4666 
L 531 -594 
L 0 -594 
L 1625 4666 
z
" transform="scale(0.015625)"/>
       <path id="DejaVuSans-Oblique-54" d="M 378 4666 
L 4325 4666 
L 4225 4134 
L 2559 4134 
L 1759 0 
L 1125 0 
L 1925 4134 
L 275 4134 
L 378 4666 
z
" transform="scale(0.015625)"/>
       <path id="DejaVuSans-Oblique-74" d="M 2706 3500 
L 2619 3053 
L 1472 3053 
L 1100 1153 
Q 1081 1047 1072 975 
Q 1063 903 1063 863 
Q 1063 663 1183 572 
Q 1303 481 1569 481 
L 2150 481 
L 2053 0 
L 1503 0 
Q 991 0 739 200 
Q 488 400 488 806 
Q 488 878 497 964 
Q 506 1050 525 1153 
L 897 3053 
L 409 3053 
L 500 3500 
L 978 3500 
L 1172 4494 
L 1747 4494 
L 1556 3500 
L 2706 3500 
z
" transform="scale(0.015625)"/>
       <path id="DejaVuSans-Oblique-61" d="M 3438 1997 
L 3047 0 
L 2472 0 
L 2578 531 
Q 2325 219 2001 64 
Q 1678 -91 1281 -91 
Q 834 -91 548 182 
Q 263 456 263 884 
Q 263 1497 752 1853 
Q 1241 2209 2100 2209 
L 2900 2209 
L 2931 2363 
Q 2938 2388 2941 2417 
Q 2944 2447 2944 2509 
Q 2944 2788 2717 2942 
Q 2491 3097 2081 3097 
Q 1800 3097 1504 3025 
Q 1209 2953 897 2809 
L 997 3341 
Q 1322 3463 1633 3523 
Q 1944 3584 2234 3584 
Q 2853 3584 3176 3315 
Q 3500 3047 3500 2534 
Q 3500 2431 3484 2292 
Q 3469 2153 3438 1997 
z
M 2816 1759 
L 2241 1759 
Q 1534 1759 1195 1570 
Q 856 1381 856 984 
Q 856 709 1029 553 
Q 1203 397 1509 397 
Q 1978 397 2328 733 
Q 2678 1069 2791 1631 
L 2816 1759 
z
" transform="scale(0.015625)"/>
       <path id="DejaVuSans-Oblique-72" d="M 2853 2969 
Q 2766 3016 2653 3041 
Q 2541 3066 2413 3066 
Q 1953 3066 1609 2717 
Q 1266 2369 1153 1784 
L 800 0 
L 225 0 
L 909 3500 
L 1484 3500 
L 1375 2956 
Q 1603 3259 1920 3421 
Q 2238 3584 2597 3584 
Q 2691 3584 2781 3573 
Q 2872 3563 2963 3538 
L 2853 2969 
z
" transform="scale(0.015625)"/>
       <path id="DejaVuSans-Oblique-65" d="M 3078 2063 
Q 3088 2113 3092 2166 
Q 3097 2219 3097 2272 
Q 3097 2653 2873 2875 
Q 2650 3097 2266 3097 
Q 1838 3097 1509 2826 
Q 1181 2556 1013 2059 
L 3078 2063 
z
M 3578 1613 
L 903 1613 
Q 884 1494 878 1425 
Q 872 1356 872 1306 
Q 872 872 1139 634 
Q 1406 397 1894 397 
Q 2269 397 2603 481 
Q 2938 566 3225 728 
L 3116 159 
Q 2806 34 2476 -28 
Q 2147 -91 1806 -91 
Q 1078 -91 686 257 
Q 294 606 294 1247 
Q 294 1794 489 2264 
Q 684 2734 1063 3103 
Q 1306 3334 1642 3459 
Q 1978 3584 2356 3584 
Q 2950 3584 3301 3228 
Q 3653 2872 3653 2272 
Q 3653 2128 3634 1964 
Q 3616 1800 3578 1613 
z
" transform="scale(0.015625)"/>
       <path id="DejaVuSans-Oblique-69" d="M 1172 4863 
L 1747 4863 
L 1606 4134 
L 1031 4134 
L 1172 4863 
z
M 909 3500 
L 1484 3500 
L 800 0 
L 225 0 
L 909 3500 
z
" transform="scale(0.015625)"/>
       <path id="DejaVuSans-Oblique-6e" d="M 3566 2113 
L 3156 0 
L 2578 0 
L 2988 2091 
Q 3016 2238 3031 2350 
Q 3047 2463 3047 2528 
Q 3047 2791 2881 2937 
Q 2716 3084 2419 3084 
Q 1956 3084 1622 2776 
Q 1288 2469 1184 1941 
L 800 0 
L 225 0 
L 903 3500 
L 1478 3500 
L 1363 2950 
Q 1603 3253 1940 3418 
Q 2278 3584 2650 3584 
Q 3113 3584 3367 3334 
Q 3622 3084 3622 2631 
Q 3622 2519 3608 2391 
Q 3594 2263 3566 2113 
z
" transform="scale(0.015625)"/>
       <path id="DejaVuSans-29" d="M 513 4856 
L 1013 4856 
Q 1481 4119 1714 3412 
Q 1947 2706 1947 2009 
Q 1947 1309 1714 600 
Q 1481 -109 1013 -844 
L 513 -844 
Q 928 -128 1133 580 
Q 1338 1288 1338 2009 
Q 1338 2731 1133 3434 
Q 928 4138 513 4856 
z
" transform="scale(0.015625)"/>
      </defs>
      <use xlink:href="#DejaVuSans-Oblique-6c" transform="translate(0 0.015625)"/>
      <use xlink:href="#DejaVuSans-Oblique-6f" transform="translate(27.783203 0.015625)"/>
      <use xlink:href="#DejaVuSans-Oblique-67" transform="translate(88.964844 0.015625)"/>
      <use xlink:href="#DejaVuSans-28" transform="translate(152.441406 0.015625)"/>
      <use xlink:href="#DejaVuSans-5b" transform="translate(191.455078 0.015625)"/>
      <use xlink:href="#DejaVuSans-Oblique-48" transform="translate(227.34375 0.015625)"/>
      <use xlink:href="#DejaVuSans-Oblique-53" transform="translate(302.539062 0.015625)"/>
      <use xlink:href="#DejaVuSans-Oblique-50" transform="translate(366.015625 0.015625)"/>
      <use xlink:href="#DejaVuSans-Oblique-42" transform="translate(426.318359 0.015625)"/>
      <use xlink:href="#DejaVuSans-31" transform="translate(494.921875 0.015625)"/>
      <use xlink:href="#DejaVuSans-5d" transform="translate(558.544922 0.015625)"/>
      <use xlink:href="#DejaVuSans-2f" transform="translate(597.558594 0.015625)"/>
      <use xlink:href="#DejaVuSans-5b" transform="translate(631.25 0.015625)"/>
      <use xlink:href="#DejaVuSans-Oblique-54" transform="translate(670.263672 0.015625)"/>
      <use xlink:href="#DejaVuSans-Oblique-6f" transform="translate(731.347656 0.015625)"/>
      <use xlink:href="#DejaVuSans-Oblique-74" transform="translate(792.529297 0.015625)"/>
      <use xlink:href="#DejaVuSans-Oblique-61" transform="translate(831.738281 0.015625)"/>
      <use xlink:href="#DejaVuSans-Oblique-6c" transform="translate(893.017578 0.015625)"/>
      <use xlink:href="#DejaVuSans-Oblique-50" transform="translate(920.800781 0.015625)"/>
      <use xlink:href="#DejaVuSans-Oblique-72" transform="translate(981.103516 0.015625)"/>
      <use xlink:href="#DejaVuSans-Oblique-6f" transform="translate(1022.216797 0.015625)"/>
      <use xlink:href="#DejaVuSans-Oblique-74" transform="translate(1083.398438 0.015625)"/>
      <use xlink:href="#DejaVuSans-Oblique-65" transform="translate(1122.607422 0.015625)"/>
      <use xlink:href="#DejaVuSans-Oblique-69" transform="translate(1184.130859 0.015625)"/>
      <use xlink:href="#DejaVuSans-Oblique-6e" transform="translate(1211.914062 0.015625)"/>
      <use xlink:href="#DejaVuSans-5d" transform="translate(1275.292969 0.015625)"/>
      <use xlink:href="#DejaVuSans-29" transform="translate(1314.306641 0.015625)"/>
     </g>
    </g>
   </g>
   <g id="line2d_14">
    <path d="M 107.955 236.52996 
L 107.955 99.119691 
" clip-path="url(#pdaba063736)" style="fill: none; stroke: #434343; stroke-width: 1.5; stroke-linecap: square"/>
   </g>
   <g id="line2d_15">
    <path d="M 107.955 204.809003 
L 107.955 158.737925 
" clip-path="url(#pdaba063736)" style="fill: none; stroke: #434343; stroke-width: 4.5; stroke-linecap: square"/>
   </g>
   <g id="line2d_16">
    <path d="M 241.565 271.832064 
L 241.565 110.648747 
" clip-path="url(#pdaba063736)" style="fill: none; stroke: #434343; stroke-width: 1.5; stroke-linecap: square"/>
   </g>
   <g id="line2d_17">
    <path d="M 241.565 229.614554 
L 241.565 162.67865 
" clip-path="url(#pdaba063736)" style="fill: none; stroke: #434343; stroke-width: 4.5; stroke-linecap: square"/>
   </g>
   <g id="line2d_18">
    <path d="M 375.175 263.870911 
L 375.175 74.039126 
" clip-path="url(#pdaba063736)" style="fill: none; stroke: #434343; stroke-width: 1.5; stroke-linecap: square"/>
   </g>
   <g id="line2d_19">
    <path d="M 375.175 231.285412 
L 375.175 162.583003 
" clip-path="url(#pdaba063736)" style="fill: none; stroke: #434343; stroke-width: 4.5; stroke-linecap: square"/>
   </g>
   <g id="line2d_20">
    <path d="M 508.785 276.234587 
L 508.785 89.462296 
" clip-path="url(#pdaba063736)" style="fill: none; stroke: #434343; stroke-width: 1.5; stroke-linecap: square"/>
   </g>
   <g id="line2d_21">
    <path d="M 508.785 245.535197 
L 508.785 170.87345 
" clip-path="url(#pdaba063736)" style="fill: none; stroke: #434343; stroke-width: 4.5; stroke-linecap: square"/>
   </g>
   <g id="line2d_22">
    <path d="M 642.395 272.880677 
L 642.395 137.372334 
" clip-path="url(#pdaba063736)" style="fill: none; stroke: #434343; stroke-width: 1.5; stroke-linecap: square"/>
   </g>
   <g id="line2d_23">
    <path d="M 642.395 238.292564 
L 642.395 169.008591 
" clip-path="url(#pdaba063736)" style="fill: none; stroke: #434343; stroke-width: 4.5; stroke-linecap: square"/>
   </g>
   <g id="patch_3">
    <path d="M 41.15 343.03527 
L 41.15 10.8 
" style="fill: none; stroke: #000000; stroke-width: 0.8; stroke-linejoin: miter; stroke-linecap: square"/>
   </g>
   <g id="patch_4">
    <path d="M 709.2 343.03527 
L 709.2 10.8 
" style="fill: none; stroke: #000000; stroke-width: 0.8; stroke-linejoin: miter; stroke-linecap: square"/>
   </g>
   <g id="patch_5">
    <path d="M 41.15 343.03527 
L 709.2 343.03527 
" style="fill: none; stroke: #000000; stroke-width: 0.8; stroke-linejoin: miter; stroke-linecap: square"/>
   </g>
   <g id="patch_6">
    <path d="M 41.15 10.8 
L 709.2 10.8 
" style="fill: none; stroke: #000000; stroke-width: 0.8; stroke-linejoin: miter; stroke-linecap: square"/>
   </g>
   <g id="PathCollection_1">
    <defs>
     <path id="mcb7c1ecc0f" d="M 0 1.5 
C 0.397805 1.5 0.77937 1.341951 1.06066 1.06066 
C 1.341951 0.77937 1.5 0.397805 1.5 0 
C 1.5 -0.397805 1.341951 -0.77937 1.06066 -1.06066 
C 0.77937 -1.341951 0.397805 -1.5 0 -1.5 
C -0.397805 -1.5 -0.77937 -1.341951 -1.06066 -1.06066 
C -1.341951 -0.77937 -1.5 -0.397805 -1.5 0 
C -1.5 0.397805 -1.341951 0.77937 -1.06066 1.06066 
C -0.77937 1.341951 -0.397805 1.5 0 1.5 
z
" style="stroke: #434343"/>
    </defs>
    <g clip-path="url(#pdaba063736)">
     <use xlink:href="#mcb7c1ecc0f" x="107.955" y="185.229955" style="fill: #ffffff; stroke: #434343"/>
    </g>
   </g>
   <g id="PathCollection_2">
    <g clip-path="url(#pdaba063736)">
     <use xlink:href="#mcb7c1ecc0f" x="241.565" y="214.6784" style="fill: #ffffff; stroke: #434343"/>
    </g>
   </g>
   <g id="PathCollection_3">
    <g clip-path="url(#pdaba063736)">
     <use xlink:href="#mcb7c1ecc0f" x="375.175" y="207.35519" style="fill: #ffffff; stroke: #434343"/>
    </g>
   </g>
   <g id="PathCollection_4">
    <g clip-path="url(#pdaba063736)">
     <use xlink:href="#mcb7c1ecc0f" x="508.785" y="226.456173" style="fill: #ffffff; stroke: #434343"/>
    </g>
   </g>
   <g id="PathCollection_5">
    <g clip-path="url(#pdaba063736)">
     <use xlink:href="#mcb7c1ecc0f" x="642.395" y="211.603275" style="fill: #ffffff; stroke: #434343"/>
    </g>
   </g>
  </g>
 </g>
 <defs>
  <clipPath id="pdaba063736">
   <rect x="41.15" y="10.8" width="668.05" height="332.23527"/>
  </clipPath>
 </defs>
</svg>
