<?xml version="1.0" encoding="utf-8" standalone="no"?>
<!DOCTYPE svg PUBLIC "-//W3C//DTD SVG 1.1//EN"
  "http://www.w3.org/Graphics/SVG/1.1/DTD/svg11.dtd">
<svg xmlns:xlink="http://www.w3.org/1999/xlink" width="720pt" height="432pt" viewBox="0 0 720 432" xmlns="http://www.w3.org/2000/svg" version="1.1">
 <metadata>
  <rdf:RDF xmlns:dc="http://purl.org/dc/elements/1.1/" xmlns:cc="http://creativecommons.org/ns#" xmlns:rdf="http://www.w3.org/1999/02/22-rdf-syntax-ns#">
   <cc:Work>
    <dc:type rdf:resource="http://purl.org/dc/dcmitype/StillImage"/>
    <dc:date>2024-09-30T14:08:32.293539</dc:date>
    <dc:format>image/svg+xml</dc:format>
    <dc:creator>
     <cc:Agent>
      <dc:title>Matplotlib v3.7.3, https://matplotlib.org/</dc:title>
     </cc:Agent>
    </dc:creator>
   </cc:Work>
  </rdf:RDF>
 </metadata>
 <defs>
  <style type="text/css">*{stroke-linejoin: round; stroke-linecap: butt}</style>
 </defs>
 <g id="figure_1">
  <g id="patch_1">
   <path d="M 0 432 
L 720 432 
L 720 0 
L 0 0 
z
" style="fill: #ffffff"/>
  </g>
  <g id="axes_1">
   <g id="patch_2">
    <path d="M 41.15 343.03527 
L 709.2 343.03527 
L 709.2 10.8 
L 41.15 10.8 
z
" style="fill: #ffffff"/>
   </g>
   <g id="PolyCollection_1">
    <defs>
     <path id="mb2ef23e05c" d="M 108.437334 -122.812636 
L 107.472666 -122.812636 
L 107.332333 -125.039986 
L 107.16257 -127.267337 
L 106.960431 -129.494687 
L 106.723369 -131.722038 
L 106.449308 -133.949388 
L 106.136649 -136.176739 
L 105.784192 -138.40409 
L 105.390978 -140.63144 
L 104.956043 -142.858791 
L 104.478136 -145.086141 
L 103.955436 -147.313492 
L 103.385322 -149.540842 
L 102.764271 -151.768193 
L 102.087927 -153.995543 
L 101.351399 -156.222894 
L 100.549786 -158.450245 
L 99.678922 -160.677595 
L 98.736264 -162.904946 
L 97.721835 -165.132296 
L 96.639102 -167.359647 
L 95.495644 -169.586997 
L 94.303504 -171.814348 
L 93.079113 -174.041699 
L 91.842755 -176.269049 
L 90.617564 -178.4964 
L 89.428142 -180.72375 
L 88.298906 -182.951101 
L 87.252319 -185.178451 
L 86.307182 -187.405802 
L 85.477153 -189.633152 
L 84.769601 -191.860503 
L 84.184901 -194.087854 
L 83.716174 -196.315204 
L 83.349455 -198.542555 
L 83.064232 -200.769905 
L 82.834254 -202.997256 
L 82.628536 -205.224606 
L 82.412503 -207.451957 
L 82.149232 -209.679308 
L 81.800805 -211.906658 
L 81.329806 -214.134009 
L 80.700991 -216.361359 
L 79.883171 -218.58871 
L 78.851279 -220.81606 
L 77.588562 -223.043411 
L 76.088751 -225.270762 
L 74.35803 -227.498112 
L 72.416543 -229.725463 
L 70.299225 -231.952813 
L 68.055702 -234.180164 
L 65.74915 -236.407514 
L 63.454019 -238.634865 
L 61.252725 -240.862215 
L 59.231476 -243.089566 
L 57.475539 -245.316917 
L 56.064322 -247.544267 
L 55.066667 -249.771618 
L 54.536763 -251.998968 
L 54.511 -254.226319 
L 55.005999 -256.453669 
L 56.01795 -258.68102 
L 57.523234 -260.908371 
L 59.480228 -263.135721 
L 61.832069 -265.363072 
L 64.510119 -267.590422 
L 67.437837 -269.817773 
L 70.534773 -272.045123 
L 73.720426 -274.272474 
L 76.917766 -276.499824 
L 80.056263 -278.727175 
L 83.074311 -280.954526 
L 85.921004 -283.181876 
L 88.557234 -285.409227 
L 90.956127 -287.636577 
L 93.102851 -289.863928 
L 94.993857 -292.091278 
L 96.635624 -294.318629 
L 98.043021 -296.54598 
L 99.237389 -298.77333 
L 100.244474 -301.000681 
L 101.092353 -303.228031 
L 101.809479 -305.455382 
L 102.422968 -307.682732 
L 102.957225 -309.910083 
L 103.432966 -312.137433 
L 103.866664 -314.364784 
L 104.270417 -316.592135 
L 104.652168 -318.819485 
L 105.016225 -321.046836 
L 105.363968 -323.274186 
L 105.694666 -325.501537 
L 106.006287 -327.728887 
L 106.296248 -329.956238 
L 106.562028 -332.183589 
L 106.801628 -334.410939 
L 107.013848 -336.63829 
L 107.198422 -338.86564 
L 107.355995 -341.092991 
L 107.488026 -343.320341 
L 108.421974 -343.320341 
L 108.421974 -343.320341 
L 108.554005 -341.092991 
L 108.711578 -338.86564 
L 108.896152 -336.63829 
L 109.108372 -334.410939 
L 109.347972 -332.183589 
L 109.613752 -329.956238 
L 109.903713 -327.728887 
L 110.215334 -325.501537 
L 110.546032 -323.274186 
L 110.893775 -321.046836 
L 111.257832 -318.819485 
L 111.639583 -316.592135 
L 112.043336 -314.364784 
L 112.477034 -312.137433 
L 112.952775 -309.910083 
L 113.487032 -307.682732 
L 114.100521 -305.455382 
L 114.817647 -303.228031 
L 115.665526 -301.000681 
L 116.672611 -298.77333 
L 117.866979 -296.54598 
L 119.274376 -294.318629 
L 120.916143 -292.091278 
L 122.807149 -289.863928 
L 124.953873 -287.636577 
L 127.352766 -285.409227 
L 129.988996 -283.181876 
L 132.835689 -280.954526 
L 135.853737 -278.727175 
L 138.992234 -276.499824 
L 142.189574 -274.272474 
L 145.375227 -272.045123 
L 148.472163 -269.817773 
L 151.399881 -267.590422 
L 154.077931 -265.363072 
L 156.429772 -263.135721 
L 158.386766 -260.908371 
L 159.89205 -258.68102 
L 160.904001 -256.453669 
L 161.399 -254.226319 
L 161.373237 -251.998968 
L 160.843333 -249.771618 
L 159.845678 -247.544267 
L 158.434461 -245.316917 
L 156.678524 -243.089566 
L 154.657275 -240.862215 
L 152.455981 -238.634865 
L 150.16085 -236.407514 
L 147.854298 -234.180164 
L 145.610775 -231.952813 
L 143.493457 -229.725463 
L 141.55197 -227.498112 
L 139.821249 -225.270762 
L 138.321438 -223.043411 
L 137.058721 -220.81606 
L 136.026829 -218.58871 
L 135.209009 -216.361359 
L 134.580194 -214.134009 
L 134.109195 -211.906658 
L 133.760768 -209.679308 
L 133.497497 -207.451957 
L 133.281464 -205.224606 
L 133.075746 -202.997256 
L 132.845768 -200.769905 
L 132.560545 -198.542555 
L 132.193826 -196.315204 
L 131.725099 -194.087854 
L 131.140399 -191.860503 
L 130.432847 -189.633152 
L 129.602818 -187.405802 
L 128.657681 -185.178451 
L 127.611094 -182.951101 
L 126.481858 -180.72375 
L 125.292436 -178.4964 
L 124.067245 -176.269049 
L 122.830887 -174.041699 
L 121.606496 -171.814348 
L 120.414356 -169.586997 
L 119.270898 -167.359647 
L 118.188165 -165.132296 
L 117.173736 -162.904946 
L 116.231078 -160.677595 
L 115.360214 -158.450245 
L 114.558601 -156.222894 
L 113.822073 -153.995543 
L 113.145729 -151.768193 
L 112.524678 -149.540842 
L 111.954564 -147.313492 
L 111.431864 -145.086141 
L 110.953957 -142.858791 
L 110.519022 -140.63144 
L 110.125808 -138.40409 
L 109.773351 -136.176739 
L 109.460692 -133.949388 
L 109.186631 -131.722038 
L 108.949569 -129.494687 
L 108.74743 -127.267337 
L 108.577667 -125.039986 
L 108.437334 -122.812636 
z
" style="stroke: #434343; stroke-width: 1.5"/>
    </defs>
    <g clip-path="url(#p496b90aca4)">
     <use xlink:href="#mb2ef23e05c" x="0" y="432" style="fill: #e68193; stroke: #434343; stroke-width: 1.5"/>
    </g>
   </g>
   <g id="PolyCollection_2">
    <defs>
     <path id="m311e7fa885" d="M 242.351048 -116.333048 
L 240.778952 -116.333048 
L 240.573516 -118.598001 
L 240.326008 -120.862953 
L 240.030993 -123.127906 
L 239.683114 -125.392858 
L 239.277305 -127.657811 
L 238.809028 -129.922763 
L 238.274535 -132.187716 
L 237.671144 -134.452668 
L 236.997502 -136.717621 
L 236.253842 -138.982573 
L 235.442203 -141.247526 
L 234.566596 -143.512478 
L 233.633112 -145.777431 
L 232.649942 -148.042383 
L 231.62732 -150.307336 
L 230.577355 -152.572288 
L 229.51377 -154.837241 
L 228.451557 -157.102193 
L 227.406525 -159.367146 
L 226.394804 -161.632098 
L 225.432279 -163.897051 
L 224.53401 -166.162003 
L 223.713659 -168.426956 
L 222.982935 -170.691908 
L 222.351116 -172.956861 
L 221.824646 -175.221813 
L 221.406846 -177.486766 
L 221.097746 -179.751718 
L 220.894054 -182.016671 
L 220.789255 -184.281623 
L 220.773846 -186.546576 
L 220.835673 -188.811528 
L 220.960379 -191.07648 
L 221.131902 -193.341433 
L 221.33303 -195.606385 
L 221.545959 -197.871338 
L 221.752834 -200.13629 
L 221.936256 -202.401243 
L 222.079727 -204.666195 
L 222.168017 -206.931148 
L 222.187456 -209.1961 
L 222.126149 -211.461053 
L 221.974105 -213.726005 
L 221.723317 -215.990958 
L 221.367783 -218.25591 
L 220.9035 -220.520863 
L 220.328441 -222.785815 
L 219.642531 -225.050768 
L 218.847645 -227.31572 
L 217.947616 -229.580673 
L 216.948284 -231.845625 
L 215.857559 -234.110578 
L 214.685514 -236.37553 
L 213.444477 -238.640483 
L 212.149113 -240.905435 
L 210.816474 -243.170388 
L 209.46599 -245.43534 
L 208.119378 -247.700293 
L 206.800444 -249.965245 
L 205.53476 -252.230198 
L 204.349205 -254.49515 
L 203.271372 -256.760103 
L 202.328835 -259.025055 
L 201.548314 -261.290008 
L 200.954763 -263.55496 
L 200.570426 -265.819913 
L 200.413908 -268.084865 
L 200.499324 -270.349818 
L 200.835578 -272.61477 
L 201.425829 -274.879723 
L 202.267171 -277.144675 
L 203.350578 -279.409628 
L 204.661111 -281.67458 
L 206.178376 -283.939533 
L 207.877234 -286.204485 
L 209.728702 -288.469438 
L 211.700996 -290.73439 
L 213.760672 -292.999343 
L 215.873784 -295.264295 
L 218.007004 -297.529248 
L 220.128658 -299.7942 
L 222.209608 -302.059153 
L 224.223971 -304.324105 
L 226.149644 -306.589058 
L 227.968622 -308.85401 
L 229.667123 -311.118963 
L 231.235542 -313.383915 
L 232.668236 -315.648868 
L 233.9632 -317.91382 
L 235.121636 -320.178773 
L 236.147478 -322.443725 
L 237.046869 -324.708678 
L 237.827657 -326.97363 
L 238.498895 -329.238583 
L 239.07039 -331.503535 
L 239.552297 -333.768488 
L 239.954778 -336.03344 
L 240.287717 -338.298393 
L 240.560503 -340.563345 
L 242.569497 -340.563345 
L 242.569497 -340.563345 
L 242.842283 -338.298393 
L 243.175222 -336.03344 
L 243.577703 -333.768488 
L 244.05961 -331.503535 
L 244.631105 -329.238583 
L 245.302343 -326.97363 
L 246.083131 -324.708678 
L 246.982522 -322.443725 
L 248.008364 -320.178773 
L 249.1668 -317.91382 
L 250.461764 -315.648868 
L 251.894458 -313.383915 
L 253.462877 -311.118963 
L 255.161378 -308.85401 
L 256.980356 -306.589058 
L 258.906029 -304.324105 
L 260.920392 -302.059153 
L 263.001342 -299.7942 
L 265.122996 -297.529248 
L 267.256216 -295.264295 
L 269.369328 -292.999343 
L 271.429004 -290.73439 
L 273.401298 -288.469438 
L 275.252766 -286.204485 
L 276.951624 -283.939533 
L 278.468889 -281.67458 
L 279.779422 -279.409628 
L 280.862829 -277.144675 
L 281.704171 -274.879723 
L 282.294422 -272.61477 
L 282.630676 -270.349818 
L 282.716092 -268.084865 
L 282.559574 -265.819913 
L 282.175237 -263.55496 
L 281.581686 -261.290008 
L 280.801165 -259.025055 
L 279.858628 -256.760103 
L 278.780795 -254.49515 
L 277.59524 -252.230198 
L 276.329556 -249.965245 
L 275.010622 -247.700293 
L 273.66401 -245.43534 
L 272.313526 -243.170388 
L 270.980887 -240.905435 
L 269.685523 -238.640483 
L 268.444486 -236.37553 
L 267.272441 -234.110578 
L 266.181716 -231.845625 
L 265.182384 -229.580673 
L 264.282355 -227.31572 
L 263.487469 -225.050768 
L 262.801559 -222.785815 
L 262.2265 -220.520863 
L 261.762217 -218.25591 
L 261.406683 -215.990958 
L 261.155895 -213.726005 
L 261.003851 -211.461053 
L 260.942544 -209.1961 
L 260.961983 -206.931148 
L 261.050273 -204.666195 
L 261.193744 -202.401243 
L 261.377166 -200.13629 
L 261.584041 -197.871338 
L 261.79697 -195.606385 
L 261.998098 -193.341433 
L 262.169621 -191.07648 
L 262.294327 -188.811528 
L 262.356154 -186.546576 
L 262.340745 -184.281623 
L 262.235946 -182.016671 
L 262.032254 -179.751718 
L 261.723154 -177.486766 
L 261.305354 -175.221813 
L 260.778884 -172.956861 
L 260.147065 -170.691908 
L 259.416341 -168.426956 
L 258.59599 -166.162003 
L 257.697721 -163.897051 
L 256.735196 -161.632098 
L 255.723475 -159.367146 
L 254.678443 -157.102193 
L 253.61623 -154.837241 
L 252.552645 -152.572288 
L 251.50268 -150.307336 
L 250.480058 -148.042383 
L 249.496888 -145.777431 
L 248.563404 -143.512478 
L 247.687797 -141.247526 
L 246.876158 -138.982573 
L 246.132498 -136.717621 
L 245.458856 -134.452668 
L 244.855465 -132.187716 
L 244.320972 -129.922763 
L 243.852695 -127.657811 
L 243.446886 -125.392858 
L 243.099007 -123.127906 
L 242.803992 -120.862953 
L 242.556484 -118.598001 
L 242.351048 -116.333048 
z
" style="stroke: #434343; stroke-width: 1.5"/>
    </defs>
    <g clip-path="url(#p496b90aca4)">
     <use xlink:href="#m311e7fa885" x="0" y="432" style="fill: #9e9241; stroke: #434343; stroke-width: 1.5"/>
    </g>
   </g>
   <g id="PolyCollection_3">
    <defs>
     <path id="m871a34a133" d="M 376.002048 -124.660261 
L 374.347952 -124.660261 
L 374.128164 -126.652201 
L 373.862551 -128.64414 
L 373.544983 -130.63608 
L 373.169333 -132.628019 
L 372.729681 -134.619959 
L 372.220552 -136.611898 
L 371.637176 -138.603838 
L 370.97576 -140.595777 
L 370.233764 -142.587717 
L 369.410177 -144.579656 
L 368.505759 -146.571596 
L 367.523264 -148.563535 
L 366.467607 -150.555475 
L 365.34598 -152.547414 
L 364.167886 -154.539353 
L 362.945108 -156.531293 
L 361.691574 -158.523232 
L 360.423128 -160.515172 
L 359.157213 -162.507111 
L 357.912434 -164.499051 
L 356.708049 -166.49099 
L 355.56336 -168.48293 
L 354.49705 -170.474869 
L 353.526476 -172.466809 
L 352.66695 -174.458748 
L 351.931051 -176.450688 
L 351.327997 -178.442627 
L 350.86312 -180.434567 
L 350.537493 -182.426506 
L 350.347711 -184.418446 
L 350.285883 -186.410385 
L 350.339812 -188.402325 
L 350.493383 -190.394264 
L 350.727126 -192.386204 
L 351.018918 -194.378143 
L 351.344803 -196.370083 
L 351.679848 -198.362022 
L 351.999007 -200.353961 
L 352.277933 -202.345901 
L 352.493694 -204.33784 
L 352.625367 -206.32978 
L 352.65449 -208.321719 
L 352.565373 -210.313659 
L 352.345275 -212.305598 
L 351.984493 -214.297538 
L 351.476363 -216.289477 
L 350.817244 -218.281417 
L 350.0065 -220.273356 
L 349.046507 -222.265296 
L 347.942715 -224.257235 
L 346.703752 -226.249175 
L 345.341566 -228.241114 
L 343.871572 -230.233054 
L 342.312779 -232.224993 
L 340.687839 -234.216933 
L 339.022978 -236.208872 
L 337.347781 -238.200812 
L 335.694784 -240.192751 
L 334.098862 -242.184691 
L 332.596423 -244.17663 
L 331.22442 -246.168569 
L 330.019217 -248.160509 
L 329.015367 -250.152448 
L 328.244364 -252.144388 
L 327.733434 -254.136327 
L 327.504445 -256.128267 
L 327.572993 -258.120206 
L 327.947715 -260.112146 
L 328.629892 -262.104085 
L 329.613331 -264.096025 
L 330.884569 -266.087964 
L 332.423356 -268.079904 
L 334.20341 -270.071843 
L 336.193383 -272.063783 
L 338.358007 -274.055722 
L 340.659336 -276.047662 
L 343.058034 -278.039601 
L 345.514653 -280.031541 
L 347.99083 -282.02348 
L 350.450365 -284.01542 
L 352.860142 -286.007359 
L 355.19085 -287.999299 
L 357.417517 -289.991238 
L 359.519826 -291.983177 
L 361.482227 -293.975117 
L 363.293876 -295.967056 
L 364.948404 -297.958996 
L 366.443556 -299.950935 
L 367.780725 -301.942875 
L 368.964426 -303.934814 
L 370.001725 -305.926754 
L 370.901663 -307.918693 
L 371.674696 -309.910633 
L 372.33218 -311.902572 
L 372.885897 -313.894512 
L 373.347657 -315.886451 
L 373.728964 -317.878391 
L 374.040752 -319.87033 
L 374.293198 -321.86227 
L 376.056802 -321.86227 
L 376.056802 -321.86227 
L 376.309248 -319.87033 
L 376.621036 -317.878391 
L 377.002343 -315.886451 
L 377.464103 -313.894512 
L 378.01782 -311.902572 
L 378.675304 -309.910633 
L 379.448337 -307.918693 
L 380.348275 -305.926754 
L 381.385574 -303.934814 
L 382.569275 -301.942875 
L 383.906444 -299.950935 
L 385.401596 -297.958996 
L 387.056124 -295.967056 
L 388.867773 -293.975117 
L 390.830174 -291.983177 
L 392.932483 -289.991238 
L 395.15915 -287.999299 
L 397.489858 -286.007359 
L 399.899635 -284.01542 
L 402.35917 -282.02348 
L 404.835347 -280.031541 
L 407.291966 -278.039601 
L 409.690664 -276.047662 
L 411.991993 -274.055722 
L 414.156617 -272.063783 
L 416.14659 -270.071843 
L 417.926644 -268.079904 
L 419.465431 -266.087964 
L 420.736669 -264.096025 
L 421.720108 -262.104085 
L 422.402285 -260.112146 
L 422.777007 -258.120206 
L 422.845555 -256.128267 
L 422.616566 -254.136327 
L 422.105636 -252.144388 
L 421.334633 -250.152448 
L 420.330783 -248.160509 
L 419.12558 -246.168569 
L 417.753577 -244.17663 
L 416.251138 -242.184691 
L 414.655216 -240.192751 
L 413.002219 -238.200812 
L 411.327022 -236.208872 
L 409.662161 -234.216933 
L 408.037221 -232.224993 
L 406.478428 -230.233054 
L 405.008434 -228.241114 
L 403.646248 -226.249175 
L 402.407285 -224.257235 
L 401.303493 -222.265296 
L 400.3435 -220.273356 
L 399.532756 -218.281417 
L 398.873637 -216.289477 
L 398.365507 -214.297538 
L 398.004725 -212.305598 
L 397.784627 -210.313659 
L 397.69551 -208.321719 
L 397.724633 -206.32978 
L 397.856306 -204.33784 
L 398.072067 -202.345901 
L 398.350993 -200.353961 
L 398.670152 -198.362022 
L 399.005197 -196.370083 
L 399.331082 -194.378143 
L 399.622874 -192.386204 
L 399.856617 -190.394264 
L 400.010188 -188.402325 
L 400.064117 -186.410385 
L 400.002289 -184.418446 
L 399.812507 -182.426506 
L 399.48688 -180.434567 
L 399.022003 -178.442627 
L 398.418949 -176.450688 
L 397.68305 -174.458748 
L 396.823524 -172.466809 
L 395.85295 -170.474869 
L 394.78664 -168.48293 
L 393.641951 -166.49099 
L 392.437566 -164.499051 
L 391.192787 -162.507111 
L 389.926872 -160.515172 
L 388.658426 -158.523232 
L 387.404892 -156.531293 
L 386.182114 -154.539353 
L 385.00402 -152.547414 
L 383.882393 -150.555475 
L 382.826736 -148.563535 
L 381.844241 -146.571596 
L 380.939823 -144.579656 
L 380.116236 -142.587717 
L 379.37424 -140.595777 
L 378.712824 -138.603838 
L 378.129448 -136.611898 
L 377.620319 -134.619959 
L 377.180667 -132.628019 
L 376.805017 -130.63608 
L 376.487449 -128.64414 
L 376.221836 -126.652201 
L 376.002048 -124.660261 
z
" style="stroke: #434343; stroke-width: 1.5"/>
    </defs>
    <g clip-path="url(#p496b90aca4)">
     <use xlink:href="#m871a34a133" x="0" y="432" style="fill: #43a178; stroke: #434343; stroke-width: 1.5"/>
    </g>
   </g>
   <g id="PolyCollection_4">
    <defs>
     <path id="m1c5b655192" d="M 510.1052 -143.313366 
L 507.4648 -143.313366 
L 507.134227 -144.987207 
L 506.740485 -146.661047 
L 506.276736 -148.334888 
L 505.736672 -150.008729 
L 505.114848 -151.682569 
L 504.407058 -153.35641 
L 503.610694 -155.030251 
L 502.725099 -156.704092 
L 501.751876 -158.377932 
L 500.695126 -160.051773 
L 499.561598 -161.725614 
L 498.360726 -163.399454 
L 497.104539 -165.073295 
L 495.807434 -166.747136 
L 494.485818 -168.420976 
L 493.157615 -170.094817 
L 491.841674 -171.768658 
L 490.557088 -173.442498 
L 489.322477 -175.116339 
L 488.15525 -176.79018 
L 487.070919 -178.464021 
L 486.082471 -180.137861 
L 485.199866 -181.811702 
L 484.42966 -183.485543 
L 483.774801 -185.159383 
L 483.234584 -186.833224 
L 482.804768 -188.507065 
L 482.477854 -190.180905 
L 482.243475 -191.854746 
L 482.08889 -193.528587 
L 481.999538 -195.202428 
L 481.959607 -196.876268 
L 481.9526 -198.550109 
L 481.96186 -200.22395 
L 481.971029 -201.89779 
L 481.964432 -203.571631 
L 481.927382 -205.245472 
L 481.846406 -206.919312 
L 481.709402 -208.593153 
L 481.505738 -210.266994 
L 481.226318 -211.940834 
L 480.863623 -213.614675 
L 480.411742 -215.288516 
L 479.866413 -216.962357 
L 479.225062 -218.636197 
L 478.486859 -220.310038 
L 477.652774 -221.983879 
L 476.725632 -223.657719 
L 475.710162 -225.33156 
L 474.613017 -227.005401 
L 473.442775 -228.679241 
L 472.209892 -230.353082 
L 470.926636 -232.026923 
L 469.606964 -233.700764 
L 468.266384 -235.374604 
L 466.92177 -237.048445 
L 465.591174 -238.722286 
L 464.293612 -240.396126 
L 463.04884 -242.069967 
L 461.877125 -243.743808 
L 460.799002 -245.417648 
L 459.835025 -247.091489 
L 459.00548 -248.76533 
L 458.330087 -250.43917 
L 457.827649 -252.113011 
L 457.515666 -253.786852 
L 457.409903 -255.460693 
L 457.523913 -257.134533 
L 457.868545 -258.808374 
L 458.451436 -260.482215 
L 459.276529 -262.156055 
L 460.343648 -263.829896 
L 461.648151 -265.503737 
L 463.180722 -267.177577 
L 464.927309 -268.851418 
L 466.869244 -270.525259 
L 468.983557 -272.1991 
L 471.243478 -273.87294 
L 473.619121 -275.546781 
L 476.078328 -277.220622 
L 478.587614 -278.894462 
L 481.11319 -280.568303 
L 483.621995 -282.242144 
L 486.082686 -283.915984 
L 488.466539 -285.589825 
L 490.748207 -287.263666 
L 492.90631 -288.937506 
L 494.923827 -290.611347 
L 496.788285 -292.285188 
L 498.491749 -293.959029 
L 500.030628 -295.632869 
L 501.405323 -297.30671 
L 502.619754 -298.980551 
L 503.680795 -300.654391 
L 504.597675 -302.328232 
L 505.381347 -304.002073 
L 506.043897 -305.675913 
L 506.597993 -307.349754 
L 507.056397 -309.023595 
L 510.513603 -309.023595 
L 510.513603 -309.023595 
L 510.972007 -307.349754 
L 511.526103 -305.675913 
L 512.188653 -304.002073 
L 512.972325 -302.328232 
L 513.889205 -300.654391 
L 514.950246 -298.980551 
L 516.164677 -297.30671 
L 517.539372 -295.632869 
L 519.078251 -293.959029 
L 520.781715 -292.285188 
L 522.646173 -290.611347 
L 524.66369 -288.937506 
L 526.821793 -287.263666 
L 529.103461 -285.589825 
L 531.487314 -283.915984 
L 533.948005 -282.242144 
L 536.45681 -280.568303 
L 538.982386 -278.894462 
L 541.491672 -277.220622 
L 543.950879 -275.546781 
L 546.326522 -273.87294 
L 548.586443 -272.1991 
L 550.700756 -270.525259 
L 552.642691 -268.851418 
L 554.389278 -267.177577 
L 555.921849 -265.503737 
L 557.226352 -263.829896 
L 558.293471 -262.156055 
L 559.118564 -260.482215 
L 559.701455 -258.808374 
L 560.046087 -257.134533 
L 560.160097 -255.460693 
L 560.054334 -253.786852 
L 559.742351 -252.113011 
L 559.239913 -250.43917 
L 558.56452 -248.76533 
L 557.734975 -247.091489 
L 556.770998 -245.417648 
L 555.692875 -243.743808 
L 554.52116 -242.069967 
L 553.276388 -240.396126 
L 551.978826 -238.722286 
L 550.64823 -237.048445 
L 549.303616 -235.374604 
L 547.963036 -233.700764 
L 546.643364 -232.026923 
L 545.360108 -230.353082 
L 544.127225 -228.679241 
L 542.956983 -227.005401 
L 541.859838 -225.33156 
L 540.844368 -223.657719 
L 539.917226 -221.983879 
L 539.083141 -220.310038 
L 538.344938 -218.636197 
L 537.703587 -216.962357 
L 537.158258 -215.288516 
L 536.706377 -213.614675 
L 536.343682 -211.940834 
L 536.064262 -210.266994 
L 535.860598 -208.593153 
L 535.723594 -206.919312 
L 535.642618 -205.245472 
L 535.605568 -203.571631 
L 535.598971 -201.89779 
L 535.60814 -200.22395 
L 535.6174 -198.550109 
L 535.610393 -196.876268 
L 535.570462 -195.202428 
L 535.48111 -193.528587 
L 535.326525 -191.854746 
L 535.092146 -190.180905 
L 534.765232 -188.507065 
L 534.335416 -186.833224 
L 533.795199 -185.159383 
L 533.14034 -183.485543 
L 532.370134 -181.811702 
L 531.487529 -180.137861 
L 530.499081 -178.464021 
L 529.41475 -176.79018 
L 528.247523 -175.116339 
L 527.012912 -173.442498 
L 525.728326 -171.768658 
L 524.412385 -170.094817 
L 523.084182 -168.420976 
L 521.762566 -166.747136 
L 520.465461 -165.073295 
L 519.209274 -163.399454 
L 518.008402 -161.725614 
L 516.874874 -160.051773 
L 515.818124 -158.377932 
L 514.844901 -156.704092 
L 513.959306 -155.030251 
L 513.162942 -153.35641 
L 512.455152 -151.682569 
L 511.833328 -150.008729 
L 511.293264 -148.334888 
L 510.829515 -146.661047 
L 510.435773 -144.987207 
L 510.1052 -143.313366 
z
" style="stroke: #434343; stroke-width: 1.5"/>
    </defs>
    <g clip-path="url(#p496b90aca4)">
     <use xlink:href="#m1c5b655192" x="0" y="432" style="fill: #4a9eb4; stroke: #434343; stroke-width: 1.5"/>
    </g>
   </g>
   <g id="PolyCollection_5">
    <defs>
     <path id="m6c57d19d80" d="M 643.511654 -104.066334 
L 641.278346 -104.066334 
L 640.964775 -107.117163 
L 640.586316 -110.167991 
L 640.136504 -113.21882 
L 639.610131 -116.269649 
L 639.003783 -119.320478 
L 638.316359 -122.371307 
L 637.54952 -125.422136 
L 636.708014 -128.472965 
L 635.799818 -131.523794 
L 634.836069 -134.574623 
L 633.830735 -137.625452 
L 632.800035 -140.676281 
L 631.761612 -143.72711 
L 630.733526 -146.777939 
L 629.733116 -149.828767 
L 628.775838 -152.879596 
L 627.874185 -155.930425 
L 627.036786 -158.981254 
L 626.267788 -162.032083 
L 625.566586 -165.082912 
L 624.927954 -168.133741 
L 624.342566 -171.18457 
L 623.797881 -174.235399 
L 623.279307 -177.286228 
L 622.771552 -180.337057 
L 622.260033 -183.387886 
L 621.73221 -186.438714 
L 621.178747 -189.489543 
L 620.594367 -192.540372 
L 619.978374 -195.591201 
L 619.33476 -198.64203 
L 618.671948 -201.692859 
L 618.00216 -204.743688 
L 617.340515 -207.794517 
L 616.703907 -210.845346 
L 616.10979 -213.896175 
L 615.574944 -216.947004 
L 615.114335 -219.997833 
L 614.740138 -223.048662 
L 614.460997 -226.09949 
L 614.28157 -229.150319 
L 614.202368 -232.201148 
L 614.219908 -235.251977 
L 614.327143 -238.302806 
L 614.514142 -241.353635 
L 614.768953 -244.404464 
L 615.078587 -247.455293 
L 615.430038 -250.506122 
L 615.811275 -253.556951 
L 616.21211 -256.60778 
L 616.624897 -259.658609 
L 617.045 -262.709438 
L 617.470992 -265.760266 
L 617.904593 -268.811095 
L 618.350333 -271.861924 
L 618.814995 -274.912753 
L 619.306865 -277.963582 
L 619.834871 -281.014411 
L 620.407673 -284.06524 
L 621.032779 -287.116069 
L 621.715762 -290.166898 
L 622.459631 -293.217727 
L 623.264417 -296.268556 
L 624.126986 -299.319385 
L 625.041104 -302.370214 
L 625.997725 -305.421042 
L 626.985494 -308.471871 
L 627.991404 -311.5227 
L 629.001548 -314.573529 
L 630.001924 -317.624358 
L 630.979204 -320.675187 
L 631.921427 -323.726016 
L 632.818558 -326.776845 
L 633.662886 -329.827674 
L 634.449231 -332.878503 
L 635.174967 -335.929332 
L 635.839867 -338.980161 
L 636.445801 -342.030989 
L 636.996322 -345.081818 
L 637.496189 -348.132647 
L 637.95086 -351.183476 
L 638.366011 -354.234305 
L 638.747118 -357.285134 
L 639.099111 -360.335963 
L 639.426147 -363.386792 
L 639.731478 -366.437621 
L 640.017426 -369.48845 
L 640.285454 -372.539279 
L 640.536291 -375.590108 
L 640.770114 -378.640937 
L 640.986744 -381.691765 
L 641.185839 -384.742594 
L 641.367065 -387.793423 
L 641.530238 -390.844252 
L 641.675418 -393.895081 
L 641.802963 -396.94591 
L 641.91354 -399.996739 
L 642.008102 -403.047568 
L 642.087847 -406.098397 
L 642.702153 -406.098397 
L 642.702153 -406.098397 
L 642.781898 -403.047568 
L 642.87646 -399.996739 
L 642.987037 -396.94591 
L 643.114582 -393.895081 
L 643.259762 -390.844252 
L 643.422935 -387.793423 
L 643.604161 -384.742594 
L 643.803256 -381.691765 
L 644.019886 -378.640937 
L 644.253709 -375.590108 
L 644.504546 -372.539279 
L 644.772574 -369.48845 
L 645.058522 -366.437621 
L 645.363853 -363.386792 
L 645.690889 -360.335963 
L 646.042882 -357.285134 
L 646.423989 -354.234305 
L 646.83914 -351.183476 
L 647.293811 -348.132647 
L 647.793678 -345.081818 
L 648.344199 -342.030989 
L 648.950133 -338.980161 
L 649.615033 -335.929332 
L 650.340769 -332.878503 
L 651.127114 -329.827674 
L 651.971442 -326.776845 
L 652.868573 -323.726016 
L 653.810796 -320.675187 
L 654.788076 -317.624358 
L 655.788452 -314.573529 
L 656.798596 -311.5227 
L 657.804506 -308.471871 
L 658.792275 -305.421042 
L 659.748896 -302.370214 
L 660.663014 -299.319385 
L 661.525583 -296.268556 
L 662.330369 -293.217727 
L 663.074238 -290.166898 
L 663.757221 -287.116069 
L 664.382327 -284.06524 
L 664.955129 -281.014411 
L 665.483135 -277.963582 
L 665.975005 -274.912753 
L 666.439667 -271.861924 
L 666.885407 -268.811095 
L 667.319008 -265.760266 
L 667.745 -262.709438 
L 668.165103 -259.658609 
L 668.57789 -256.60778 
L 668.978725 -253.556951 
L 669.359962 -250.506122 
L 669.711413 -247.455293 
L 670.021047 -244.404464 
L 670.275858 -241.353635 
L 670.462857 -238.302806 
L 670.570092 -235.251977 
L 670.587632 -232.201148 
L 670.50843 -229.150319 
L 670.329003 -226.09949 
L 670.049862 -223.048662 
L 669.675665 -219.997833 
L 669.215056 -216.947004 
L 668.68021 -213.896175 
L 668.086093 -210.845346 
L 667.449485 -207.794517 
L 666.78784 -204.743688 
L 666.118052 -201.692859 
L 665.45524 -198.64203 
L 664.811626 -195.591201 
L 664.195633 -192.540372 
L 663.611253 -189.489543 
L 663.05779 -186.438714 
L 662.529967 -183.387886 
L 662.018448 -180.337057 
L 661.510693 -177.286228 
L 660.992119 -174.235399 
L 660.447434 -171.18457 
L 659.862046 -168.133741 
L 659.223414 -165.082912 
L 658.522212 -162.032083 
L 657.753214 -158.981254 
L 656.915815 -155.930425 
L 656.014162 -152.879596 
L 655.056884 -149.828767 
L 654.056474 -146.777939 
L 653.028388 -143.72711 
L 651.989965 -140.676281 
L 650.959265 -137.625452 
L 649.953931 -134.574623 
L 648.990182 -131.523794 
L 648.081986 -128.472965 
L 647.24048 -125.422136 
L 646.473641 -122.371307 
L 645.786217 -119.320478 
L 645.179869 -116.269649 
L 644.653496 -113.21882 
L 644.203684 -110.167991 
L 643.825225 -107.117163 
L 643.511654 -104.066334 
z
" style="stroke: #434343; stroke-width: 1.5"/>
    </defs>
    <g clip-path="url(#p496b90aca4)">
     <use xlink:href="#m6c57d19d80" x="0" y="432" style="fill: #c789e5; stroke: #434343; stroke-width: 1.5"/>
    </g>
   </g>
   <g id="matplotlib.axis_1">
    <g id="xtick_1">
     <g id="line2d_1">
      <defs>
       <path id="m46de604993" d="M 0 0 
L 0 3.5 
" style="stroke: #000000; stroke-width: 0.8"/>
      </defs>
      <g>
       <use xlink:href="#m46de604993" x="107.955" y="343.03527" style="stroke: #000000; stroke-width: 0.8"/>
      </g>
     </g>
     <g id="text_1">
      <!-- Reference -->
      <g transform="translate(92.103655 391.013212) rotate(-45) scale(0.1 -0.1)">
       <defs>
        <path id="DejaVuSans-52" d="M 2841 2188 
Q 3044 2119 3236 1894 
Q 3428 1669 3622 1275 
L 4263 0 
L 3584 0 
L 2988 1197 
Q 2756 1666 2539 1819 
Q 2322 1972 1947 1972 
L 1259 1972 
L 1259 0 
L 628 0 
L 628 4666 
L 2053 4666 
Q 2853 4666 3247 4331 
Q 3641 3997 3641 3322 
Q 3641 2881 3436 2590 
Q 3231 2300 2841 2188 
z
M 1259 4147 
L 1259 2491 
L 2053 2491 
Q 2509 2491 2742 2702 
Q 2975 2913 2975 3322 
Q 2975 3731 2742 3939 
Q 2509 4147 2053 4147 
L 1259 4147 
z
" transform="scale(0.015625)"/>
        <path id="DejaVuSans-65" d="M 3597 1894 
L 3597 1613 
L 953 1613 
Q 991 1019 1311 708 
Q 1631 397 2203 397 
Q 2534 397 2845 478 
Q 3156 559 3463 722 
L 3463 178 
Q 3153 47 2828 -22 
Q 2503 -91 2169 -91 
Q 1331 -91 842 396 
Q 353 884 353 1716 
Q 353 2575 817 3079 
Q 1281 3584 2069 3584 
Q 2775 3584 3186 3129 
Q 3597 2675 3597 1894 
z
M 3022 2063 
Q 3016 2534 2758 2815 
Q 2500 3097 2075 3097 
Q 1594 3097 1305 2825 
Q 1016 2553 972 2059 
L 3022 2063 
z
" transform="scale(0.015625)"/>
        <path id="DejaVuSans-66" d="M 2375 4863 
L 2375 4384 
L 1825 4384 
Q 1516 4384 1395 4259 
Q 1275 4134 1275 3809 
L 1275 3500 
L 2222 3500 
L 2222 3053 
L 1275 3053 
L 1275 0 
L 697 0 
L 697 3053 
L 147 3053 
L 147 3500 
L 697 3500 
L 697 3744 
Q 697 4328 969 4595 
Q 1241 4863 1831 4863 
L 2375 4863 
z
" transform="scale(0.015625)"/>
        <path id="DejaVuSans-72" d="M 2631 2963 
Q 2534 3019 2420 3045 
Q 2306 3072 2169 3072 
Q 1681 3072 1420 2755 
Q 1159 2438 1159 1844 
L 1159 0 
L 581 0 
L 581 3500 
L 1159 3500 
L 1159 2956 
Q 1341 3275 1631 3429 
Q 1922 3584 2338 3584 
Q 2397 3584 2469 3576 
Q 2541 3569 2628 3553 
L 2631 2963 
z
" transform="scale(0.015625)"/>
        <path id="DejaVuSans-6e" d="M 3513 2113 
L 3513 0 
L 2938 0 
L 2938 2094 
Q 2938 2591 2744 2837 
Q 2550 3084 2163 3084 
Q 1697 3084 1428 2787 
Q 1159 2491 1159 1978 
L 1159 0 
L 581 0 
L 581 3500 
L 1159 3500 
L 1159 2956 
Q 1366 3272 1645 3428 
Q 1925 3584 2291 3584 
Q 2894 3584 3203 3211 
Q 3513 2838 3513 2113 
z
" transform="scale(0.015625)"/>
        <path id="DejaVuSans-63" d="M 3122 3366 
L 3122 2828 
Q 2878 2963 2633 3030 
Q 2388 3097 2138 3097 
Q 1578 3097 1268 2742 
Q 959 2388 959 1747 
Q 959 1106 1268 751 
Q 1578 397 2138 397 
Q 2388 397 2633 464 
Q 2878 531 3122 666 
L 3122 134 
Q 2881 22 2623 -34 
Q 2366 -91 2075 -91 
Q 1284 -91 818 406 
Q 353 903 353 1747 
Q 353 2603 823 3093 
Q 1294 3584 2113 3584 
Q 2378 3584 2631 3529 
Q 2884 3475 3122 3366 
z
" transform="scale(0.015625)"/>
       </defs>
       <use xlink:href="#DejaVuSans-52"/>
       <use xlink:href="#DejaVuSans-65" x="64.982422"/>
       <use xlink:href="#DejaVuSans-66" x="126.505859"/>
       <use xlink:href="#DejaVuSans-65" x="161.710938"/>
       <use xlink:href="#DejaVuSans-72" x="223.234375"/>
       <use xlink:href="#DejaVuSans-65" x="262.097656"/>
       <use xlink:href="#DejaVuSans-6e" x="323.621094"/>
       <use xlink:href="#DejaVuSans-63" x="387"/>
       <use xlink:href="#DejaVuSans-65" x="441.980469"/>
      </g>
     </g>
    </g>
    <g id="xtick_2">
     <g id="line2d_2">
      <g>
       <use xlink:href="#m46de604993" x="241.565" y="343.03527" style="stroke: #000000; stroke-width: 0.8"/>
      </g>
     </g>
     <g id="text_2">
      <!-- 24h 4ºC +PBS -->
      <g transform="translate(218.442056 405.55641) rotate(-45) scale(0.1 -0.1)">
       <defs>
        <path id="DejaVuSans-32" d="M 1228 531 
L 3431 531 
L 3431 0 
L 469 0 
L 469 531 
Q 828 903 1448 1529 
Q 2069 2156 2228 2338 
Q 2531 2678 2651 2914 
Q 2772 3150 2772 3378 
Q 2772 3750 2511 3984 
Q 2250 4219 1831 4219 
Q 1534 4219 1204 4116 
Q 875 4013 500 3803 
L 500 4441 
Q 881 4594 1212 4672 
Q 1544 4750 1819 4750 
Q 2544 4750 2975 4387 
Q 3406 4025 3406 3419 
Q 3406 3131 3298 2873 
Q 3191 2616 2906 2266 
Q 2828 2175 2409 1742 
Q 1991 1309 1228 531 
z
" transform="scale(0.015625)"/>
        <path id="DejaVuSans-34" d="M 2419 4116 
L 825 1625 
L 2419 1625 
L 2419 4116 
z
M 2253 4666 
L 3047 4666 
L 3047 1625 
L 3713 1625 
L 3713 1100 
L 3047 1100 
L 3047 0 
L 2419 0 
L 2419 1100 
L 313 1100 
L 313 1709 
L 2253 4666 
z
" transform="scale(0.015625)"/>
        <path id="DejaVuSans-68" d="M 3513 2113 
L 3513 0 
L 2938 0 
L 2938 2094 
Q 2938 2591 2744 2837 
Q 2550 3084 2163 3084 
Q 1697 3084 1428 2787 
Q 1159 2491 1159 1978 
L 1159 0 
L 581 0 
L 581 4863 
L 1159 4863 
L 1159 2956 
Q 1366 3272 1645 3428 
Q 1925 3584 2291 3584 
Q 2894 3584 3203 3211 
Q 3513 2838 3513 2113 
z
" transform="scale(0.015625)"/>
        <path id="DejaVuSans-20" transform="scale(0.015625)"/>
        <path id="DejaVuSans-ba" d="M 434 1850 
L 2584 1850 
L 2584 1466 
L 434 1466 
L 434 1850 
z
M 1509 4750 
Q 2069 4750 2391 4404 
Q 2713 4059 2713 3463 
Q 2713 2866 2391 2523 
Q 2069 2181 1509 2181 
Q 950 2181 625 2525 
Q 300 2869 300 3463 
Q 300 4059 625 4404 
Q 950 4750 1509 4750 
z
M 1509 4391 
Q 1181 4391 984 4139 
Q 788 3888 788 3463 
Q 788 3047 986 2797 
Q 1184 2547 1509 2547 
Q 1838 2547 2033 2797 
Q 2228 3047 2228 3463 
Q 2228 3891 2034 4141 
Q 1841 4391 1509 4391 
z
" transform="scale(0.015625)"/>
        <path id="DejaVuSans-43" d="M 4122 4306 
L 4122 3641 
Q 3803 3938 3442 4084 
Q 3081 4231 2675 4231 
Q 1875 4231 1450 3742 
Q 1025 3253 1025 2328 
Q 1025 1406 1450 917 
Q 1875 428 2675 428 
Q 3081 428 3442 575 
Q 3803 722 4122 1019 
L 4122 359 
Q 3791 134 3420 21 
Q 3050 -91 2638 -91 
Q 1578 -91 968 557 
Q 359 1206 359 2328 
Q 359 3453 968 4101 
Q 1578 4750 2638 4750 
Q 3056 4750 3426 4639 
Q 3797 4528 4122 4306 
z
" transform="scale(0.015625)"/>
        <path id="DejaVuSans-2b" d="M 2944 4013 
L 2944 2272 
L 4684 2272 
L 4684 1741 
L 2944 1741 
L 2944 0 
L 2419 0 
L 2419 1741 
L 678 1741 
L 678 2272 
L 2419 2272 
L 2419 4013 
L 2944 4013 
z
" transform="scale(0.015625)"/>
        <path id="DejaVuSans-50" d="M 1259 4147 
L 1259 2394 
L 2053 2394 
Q 2494 2394 2734 2622 
Q 2975 2850 2975 3272 
Q 2975 3691 2734 3919 
Q 2494 4147 2053 4147 
L 1259 4147 
z
M 628 4666 
L 2053 4666 
Q 2838 4666 3239 4311 
Q 3641 3956 3641 3272 
Q 3641 2581 3239 2228 
Q 2838 1875 2053 1875 
L 1259 1875 
L 1259 0 
L 628 0 
L 628 4666 
z
" transform="scale(0.015625)"/>
        <path id="DejaVuSans-42" d="M 1259 2228 
L 1259 519 
L 2272 519 
Q 2781 519 3026 730 
Q 3272 941 3272 1375 
Q 3272 1813 3026 2020 
Q 2781 2228 2272 2228 
L 1259 2228 
z
M 1259 4147 
L 1259 2741 
L 2194 2741 
Q 2656 2741 2882 2914 
Q 3109 3088 3109 3444 
Q 3109 3797 2882 3972 
Q 2656 4147 2194 4147 
L 1259 4147 
z
M 628 4666 
L 2241 4666 
Q 2963 4666 3353 4366 
Q 3744 4066 3744 3513 
Q 3744 3084 3544 2831 
Q 3344 2578 2956 2516 
Q 3422 2416 3680 2098 
Q 3938 1781 3938 1306 
Q 3938 681 3513 340 
Q 3088 0 2303 0 
L 628 0 
L 628 4666 
z
" transform="scale(0.015625)"/>
        <path id="DejaVuSans-53" d="M 3425 4513 
L 3425 3897 
Q 3066 4069 2747 4153 
Q 2428 4238 2131 4238 
Q 1616 4238 1336 4038 
Q 1056 3838 1056 3469 
Q 1056 3159 1242 3001 
Q 1428 2844 1947 2747 
L 2328 2669 
Q 3034 2534 3370 2195 
Q 3706 1856 3706 1288 
Q 3706 609 3251 259 
Q 2797 -91 1919 -91 
Q 1588 -91 1214 -16 
Q 841 59 441 206 
L 441 856 
Q 825 641 1194 531 
Q 1563 422 1919 422 
Q 2459 422 2753 634 
Q 3047 847 3047 1241 
Q 3047 1584 2836 1778 
Q 2625 1972 2144 2069 
L 1759 2144 
Q 1053 2284 737 2584 
Q 422 2884 422 3419 
Q 422 4038 858 4394 
Q 1294 4750 2059 4750 
Q 2388 4750 2728 4690 
Q 3069 4631 3425 4513 
z
" transform="scale(0.015625)"/>
       </defs>
       <use xlink:href="#DejaVuSans-32"/>
       <use xlink:href="#DejaVuSans-34" x="63.623047"/>
       <use xlink:href="#DejaVuSans-68" x="127.246094"/>
       <use xlink:href="#DejaVuSans-20" x="190.625"/>
       <use xlink:href="#DejaVuSans-34" x="222.412109"/>
       <use xlink:href="#DejaVuSans-ba" x="286.035156"/>
       <use xlink:href="#DejaVuSans-43" x="333.154297"/>
       <use xlink:href="#DejaVuSans-20" x="402.978516"/>
       <use xlink:href="#DejaVuSans-2b" x="434.765625"/>
       <use xlink:href="#DejaVuSans-50" x="518.554688"/>
       <use xlink:href="#DejaVuSans-42" x="578.857422"/>
       <use xlink:href="#DejaVuSans-53" x="645.710938"/>
      </g>
     </g>
    </g>
    <g id="xtick_3">
     <g id="line2d_3">
      <g>
       <use xlink:href="#m46de604993" x="375.175" y="343.03527" style="stroke: #000000; stroke-width: 0.8"/>
      </g>
     </g>
     <g id="text_3">
      <!-- 72h 4ºC +PBS -->
      <g transform="translate(352.052056 405.55641) rotate(-45) scale(0.1 -0.1)">
       <defs>
        <path id="DejaVuSans-37" d="M 525 4666 
L 3525 4666 
L 3525 4397 
L 1831 0 
L 1172 0 
L 2766 4134 
L 525 4134 
L 525 4666 
z
" transform="scale(0.015625)"/>
       </defs>
       <use xlink:href="#DejaVuSans-37"/>
       <use xlink:href="#DejaVuSans-32" x="63.623047"/>
       <use xlink:href="#DejaVuSans-68" x="127.246094"/>
       <use xlink:href="#DejaVuSans-20" x="190.625"/>
       <use xlink:href="#DejaVuSans-34" x="222.412109"/>
       <use xlink:href="#DejaVuSans-ba" x="286.035156"/>
       <use xlink:href="#DejaVuSans-43" x="333.154297"/>
       <use xlink:href="#DejaVuSans-20" x="402.978516"/>
       <use xlink:href="#DejaVuSans-2b" x="434.765625"/>
       <use xlink:href="#DejaVuSans-50" x="518.554688"/>
       <use xlink:href="#DejaVuSans-42" x="578.857422"/>
       <use xlink:href="#DejaVuSans-53" x="645.710938"/>
      </g>
     </g>
    </g>
    <g id="xtick_4">
     <g id="line2d_4">
      <g>
       <use xlink:href="#m46de604993" x="508.785" y="343.03527" style="stroke: #000000; stroke-width: 0.8"/>
      </g>
     </g>
     <g id="text_4">
      <!-- 24h 4ºC -PBS -->
      <g transform="translate(487.349168 402.182185) rotate(-45) scale(0.1 -0.1)">
       <defs>
        <path id="DejaVuSans-2d" d="M 313 2009 
L 1997 2009 
L 1997 1497 
L 313 1497 
L 313 2009 
z
" transform="scale(0.015625)"/>
       </defs>
       <use xlink:href="#DejaVuSans-32"/>
       <use xlink:href="#DejaVuSans-34" x="63.623047"/>
       <use xlink:href="#DejaVuSans-68" x="127.246094"/>
       <use xlink:href="#DejaVuSans-20" x="190.625"/>
       <use xlink:href="#DejaVuSans-34" x="222.412109"/>
       <use xlink:href="#DejaVuSans-ba" x="286.035156"/>
       <use xlink:href="#DejaVuSans-43" x="333.154297"/>
       <use xlink:href="#DejaVuSans-20" x="402.978516"/>
       <use xlink:href="#DejaVuSans-2d" x="434.765625"/>
       <use xlink:href="#DejaVuSans-50" x="470.849609"/>
       <use xlink:href="#DejaVuSans-42" x="531.152344"/>
       <use xlink:href="#DejaVuSans-53" x="598.005859"/>
      </g>
     </g>
    </g>
    <g id="xtick_5">
     <g id="line2d_5">
      <g>
       <use xlink:href="#m46de604993" x="642.395" y="343.03527" style="stroke: #000000; stroke-width: 0.8"/>
      </g>
     </g>
     <g id="text_5">
      <!-- 72h 4ºC -PBS -->
      <g transform="translate(620.959168 402.182185) rotate(-45) scale(0.1 -0.1)">
       <use xlink:href="#DejaVuSans-37"/>
       <use xlink:href="#DejaVuSans-32" x="63.623047"/>
       <use xlink:href="#DejaVuSans-68" x="127.246094"/>
       <use xlink:href="#DejaVuSans-20" x="190.625"/>
       <use xlink:href="#DejaVuSans-34" x="222.412109"/>
       <use xlink:href="#DejaVuSans-ba" x="286.035156"/>
       <use xlink:href="#DejaVuSans-43" x="333.154297"/>
       <use xlink:href="#DejaVuSans-20" x="402.978516"/>
       <use xlink:href="#DejaVuSans-2d" x="434.765625"/>
       <use xlink:href="#DejaVuSans-50" x="470.849609"/>
       <use xlink:href="#DejaVuSans-42" x="531.152344"/>
       <use xlink:href="#DejaVuSans-53" x="598.005859"/>
      </g>
     </g>
    </g>
    <g id="text_6">
     <!-- Condition -->
     <g transform="translate(351.314844 418.625409) scale(0.1 -0.1)">
      <defs>
       <path id="DejaVuSans-6f" d="M 1959 3097 
Q 1497 3097 1228 2736 
Q 959 2375 959 1747 
Q 959 1119 1226 758 
Q 1494 397 1959 397 
Q 2419 397 2687 759 
Q 2956 1122 2956 1747 
Q 2956 2369 2687 2733 
Q 2419 3097 1959 3097 
z
M 1959 3584 
Q 2709 3584 3137 3096 
Q 3566 2609 3566 1747 
Q 3566 888 3137 398 
Q 2709 -91 1959 -91 
Q 1206 -91 779 398 
Q 353 888 353 1747 
Q 353 2609 779 3096 
Q 1206 3584 1959 3584 
z
" transform="scale(0.015625)"/>
       <path id="DejaVuSans-64" d="M 2906 2969 
L 2906 4863 
L 3481 4863 
L 3481 0 
L 2906 0 
L 2906 525 
Q 2725 213 2448 61 
Q 2172 -91 1784 -91 
Q 1150 -91 751 415 
Q 353 922 353 1747 
Q 353 2572 751 3078 
Q 1150 3584 1784 3584 
Q 2172 3584 2448 3432 
Q 2725 3281 2906 2969 
z
M 947 1747 
Q 947 1113 1208 752 
Q 1469 391 1925 391 
Q 2381 391 2643 752 
Q 2906 1113 2906 1747 
Q 2906 2381 2643 2742 
Q 2381 3103 1925 3103 
Q 1469 3103 1208 2742 
Q 947 2381 947 1747 
z
" transform="scale(0.015625)"/>
       <path id="DejaVuSans-69" d="M 603 3500 
L 1178 3500 
L 1178 0 
L 603 0 
L 603 3500 
z
M 603 4863 
L 1178 4863 
L 1178 4134 
L 603 4134 
L 603 4863 
z
" transform="scale(0.015625)"/>
       <path id="DejaVuSans-74" d="M 1172 4494 
L 1172 3500 
L 2356 3500 
L 2356 3053 
L 1172 3053 
L 1172 1153 
Q 1172 725 1289 603 
Q 1406 481 1766 481 
L 2356 481 
L 2356 0 
L 1766 0 
Q 1100 0 847 248 
Q 594 497 594 1153 
L 594 3053 
L 172 3053 
L 172 3500 
L 594 3500 
L 594 4494 
L 1172 4494 
z
" transform="scale(0.015625)"/>
      </defs>
      <use xlink:href="#DejaVuSans-43"/>
      <use xlink:href="#DejaVuSans-6f" x="69.824219"/>
      <use xlink:href="#DejaVuSans-6e" x="131.005859"/>
      <use xlink:href="#DejaVuSans-64" x="194.384766"/>
      <use xlink:href="#DejaVuSans-69" x="257.861328"/>
      <use xlink:href="#DejaVuSans-74" x="285.644531"/>
      <use xlink:href="#DejaVuSans-69" x="324.853516"/>
      <use xlink:href="#DejaVuSans-6f" x="352.636719"/>
      <use xlink:href="#DejaVuSans-6e" x="413.818359"/>
     </g>
    </g>
   </g>
   <g id="matplotlib.axis_2">
    <g id="ytick_1">
     <g id="line2d_6">
      <defs>
       <path id="m3f2be6d18c" d="M 0 0 
L -3.5 0 
" style="stroke: #000000; stroke-width: 0.8"/>
      </defs>
      <g>
       <use xlink:href="#m3f2be6d18c" x="41.15" y="291.867207" style="stroke: #000000; stroke-width: 0.8"/>
      </g>
     </g>
     <g id="text_7">
      <!-- 3 -->
      <g transform="translate(27.7875 295.666425) scale(0.1 -0.1)">
       <defs>
        <path id="DejaVuSans-33" d="M 2597 2516 
Q 3050 2419 3304 2112 
Q 3559 1806 3559 1356 
Q 3559 666 3084 287 
Q 2609 -91 1734 -91 
Q 1441 -91 1130 -33 
Q 819 25 488 141 
L 488 750 
Q 750 597 1062 519 
Q 1375 441 1716 441 
Q 2309 441 2620 675 
Q 2931 909 2931 1356 
Q 2931 1769 2642 2001 
Q 2353 2234 1838 2234 
L 1294 2234 
L 1294 2753 
L 1863 2753 
Q 2328 2753 2575 2939 
Q 2822 3125 2822 3475 
Q 2822 3834 2567 4026 
Q 2313 4219 1838 4219 
Q 1578 4219 1281 4162 
Q 984 4106 628 3988 
L 628 4550 
Q 988 4650 1302 4700 
Q 1616 4750 1894 4750 
Q 2613 4750 3031 4423 
Q 3450 4097 3450 3541 
Q 3450 3153 3228 2886 
Q 3006 2619 2597 2516 
z
" transform="scale(0.015625)"/>
       </defs>
       <use xlink:href="#DejaVuSans-33"/>
      </g>
     </g>
    </g>
    <g id="ytick_2">
     <g id="line2d_7">
      <g>
       <use xlink:href="#m3f2be6d18c" x="41.15" y="240.308408" style="stroke: #000000; stroke-width: 0.8"/>
      </g>
     </g>
     <g id="text_8">
      <!-- 4 -->
      <g transform="translate(27.7875 244.107626) scale(0.1 -0.1)">
       <use xlink:href="#DejaVuSans-34"/>
      </g>
     </g>
    </g>
    <g id="ytick_3">
     <g id="line2d_8">
      <g>
       <use xlink:href="#m3f2be6d18c" x="41.15" y="188.749609" style="stroke: #000000; stroke-width: 0.8"/>
      </g>
     </g>
     <g id="text_9">
      <!-- 5 -->
      <g transform="translate(27.7875 192.548828) scale(0.1 -0.1)">
       <defs>
        <path id="DejaVuSans-35" d="M 691 4666 
L 3169 4666 
L 3169 4134 
L 1269 4134 
L 1269 2991 
Q 1406 3038 1543 3061 
Q 1681 3084 1819 3084 
Q 2600 3084 3056 2656 
Q 3513 2228 3513 1497 
Q 3513 744 3044 326 
Q 2575 -91 1722 -91 
Q 1428 -91 1123 -41 
Q 819 9 494 109 
L 494 744 
Q 775 591 1075 516 
Q 1375 441 1709 441 
Q 2250 441 2565 725 
Q 2881 1009 2881 1497 
Q 2881 1984 2565 2268 
Q 2250 2553 1709 2553 
Q 1456 2553 1204 2497 
Q 953 2441 691 2322 
L 691 4666 
z
" transform="scale(0.015625)"/>
       </defs>
       <use xlink:href="#DejaVuSans-35"/>
      </g>
     </g>
    </g>
    <g id="ytick_4">
     <g id="line2d_9">
      <g>
       <use xlink:href="#m3f2be6d18c" x="41.15" y="137.19081" style="stroke: #000000; stroke-width: 0.8"/>
      </g>
     </g>
     <g id="text_10">
      <!-- 6 -->
      <g transform="translate(27.7875 140.990029) scale(0.1 -0.1)">
       <defs>
        <path id="DejaVuSans-36" d="M 2113 2584 
Q 1688 2584 1439 2293 
Q 1191 2003 1191 1497 
Q 1191 994 1439 701 
Q 1688 409 2113 409 
Q 2538 409 2786 701 
Q 3034 994 3034 1497 
Q 3034 2003 2786 2293 
Q 2538 2584 2113 2584 
z
M 3366 4563 
L 3366 3988 
Q 3128 4100 2886 4159 
Q 2644 4219 2406 4219 
Q 1781 4219 1451 3797 
Q 1122 3375 1075 2522 
Q 1259 2794 1537 2939 
Q 1816 3084 2150 3084 
Q 2853 3084 3261 2657 
Q 3669 2231 3669 1497 
Q 3669 778 3244 343 
Q 2819 -91 2113 -91 
Q 1303 -91 875 529 
Q 447 1150 447 2328 
Q 447 3434 972 4092 
Q 1497 4750 2381 4750 
Q 2619 4750 2861 4703 
Q 3103 4656 3366 4563 
z
" transform="scale(0.015625)"/>
       </defs>
       <use xlink:href="#DejaVuSans-36"/>
      </g>
     </g>
    </g>
    <g id="ytick_5">
     <g id="line2d_10">
      <g>
       <use xlink:href="#m3f2be6d18c" x="41.15" y="85.632011" style="stroke: #000000; stroke-width: 0.8"/>
      </g>
     </g>
     <g id="text_11">
      <!-- 7 -->
      <g transform="translate(27.7875 89.43123) scale(0.1 -0.1)">
       <use xlink:href="#DejaVuSans-37"/>
      </g>
     </g>
    </g>
    <g id="ytick_6">
     <g id="line2d_11">
      <g>
       <use xlink:href="#m3f2be6d18c" x="41.15" y="34.073212" style="stroke: #000000; stroke-width: 0.8"/>
      </g>
     </g>
     <g id="text_12">
      <!-- 8 -->
      <g transform="translate(27.7875 37.872431) scale(0.1 -0.1)">
       <defs>
        <path id="DejaVuSans-38" d="M 2034 2216 
Q 1584 2216 1326 1975 
Q 1069 1734 1069 1313 
Q 1069 891 1326 650 
Q 1584 409 2034 409 
Q 2484 409 2743 651 
Q 3003 894 3003 1313 
Q 3003 1734 2745 1975 
Q 2488 2216 2034 2216 
z
M 1403 2484 
Q 997 2584 770 2862 
Q 544 3141 544 3541 
Q 544 4100 942 4425 
Q 1341 4750 2034 4750 
Q 2731 4750 3128 4425 
Q 3525 4100 3525 3541 
Q 3525 3141 3298 2862 
Q 3072 2584 2669 2484 
Q 3125 2378 3379 2068 
Q 3634 1759 3634 1313 
Q 3634 634 3220 271 
Q 2806 -91 2034 -91 
Q 1263 -91 848 271 
Q 434 634 434 1313 
Q 434 1759 690 2068 
Q 947 2378 1403 2484 
z
M 1172 3481 
Q 1172 3119 1398 2916 
Q 1625 2713 2034 2713 
Q 2441 2713 2670 2916 
Q 2900 3119 2900 3481 
Q 2900 3844 2670 4047 
Q 2441 4250 2034 4250 
Q 1625 4250 1398 4047 
Q 1172 3844 1172 3481 
z
" transform="scale(0.015625)"/>
       </defs>
       <use xlink:href="#DejaVuSans-38"/>
      </g>
     </g>
    </g>
    <g id="text_13">
     <!-- $log([MMP9]/[Total Protein])$ -->
     <g transform="translate(21.6875 243.017635) rotate(-90) scale(0.1 -0.1)">
      <defs>
       <path id="DejaVuSans-Oblique-6c" d="M 1172 4863 
L 1747 4863 
L 800 0 
L 225 0 
L 1172 4863 
z
" transform="scale(0.015625)"/>
       <path id="DejaVuSans-Oblique-6f" d="M 1625 -91 
Q 1009 -91 651 289 
Q 294 669 294 1325 
Q 294 1706 417 2101 
Q 541 2497 738 2766 
Q 1047 3184 1428 3384 
Q 1809 3584 2291 3584 
Q 2888 3584 3255 3212 
Q 3622 2841 3622 2241 
Q 3622 1825 3500 1412 
Q 3378 1000 3181 728 
Q 2875 309 2494 109 
Q 2113 -91 1625 -91 
z
M 891 1344 
Q 891 869 1089 633 
Q 1288 397 1691 397 
Q 2269 397 2648 901 
Q 3028 1406 3028 2181 
Q 3028 2634 2825 2865 
Q 2622 3097 2228 3097 
Q 1903 3097 1650 2945 
Q 1397 2794 1197 2484 
Q 1050 2253 970 1956 
Q 891 1659 891 1344 
z
" transform="scale(0.015625)"/>
       <path id="DejaVuSans-Oblique-67" d="M 3816 3500 
L 3219 434 
Q 3047 -456 2561 -893 
Q 2075 -1331 1253 -1331 
Q 950 -1331 690 -1286 
Q 431 -1241 206 -1147 
L 313 -588 
Q 525 -725 762 -790 
Q 1000 -856 1269 -856 
Q 1816 -856 2167 -557 
Q 2519 -259 2631 300 
L 2681 563 
Q 2441 288 2122 144 
Q 1803 0 1434 0 
Q 903 0 598 351 
Q 294 703 294 1319 
Q 294 1803 478 2267 
Q 663 2731 997 3091 
Q 1219 3328 1514 3456 
Q 1809 3584 2131 3584 
Q 2484 3584 2746 3420 
Q 3009 3256 3138 2956 
L 3238 3500 
L 3816 3500 
z
M 2950 2216 
Q 2950 2641 2750 2872 
Q 2550 3103 2181 3103 
Q 1953 3103 1747 3012 
Q 1541 2922 1394 2759 
Q 1156 2491 1023 2127 
Q 891 1763 891 1375 
Q 891 944 1092 712 
Q 1294 481 1672 481 
Q 2219 481 2584 976 
Q 2950 1472 2950 2216 
z
" transform="scale(0.015625)"/>
       <path id="DejaVuSans-28" d="M 1984 4856 
Q 1566 4138 1362 3434 
Q 1159 2731 1159 2009 
Q 1159 1288 1364 580 
Q 1569 -128 1984 -844 
L 1484 -844 
Q 1016 -109 783 600 
Q 550 1309 550 2009 
Q 550 2706 781 3412 
Q 1013 4119 1484 4856 
L 1984 4856 
z
" transform="scale(0.015625)"/>
       <path id="DejaVuSans-5b" d="M 550 4863 
L 1875 4863 
L 1875 4416 
L 1125 4416 
L 1125 -397 
L 1875 -397 
L 1875 -844 
L 550 -844 
L 550 4863 
z
" transform="scale(0.015625)"/>
       <path id="DejaVuSans-Oblique-4d" d="M 1081 4666 
L 2028 4666 
L 2572 1522 
L 4378 4666 
L 5350 4666 
L 4441 0 
L 3828 0 
L 4622 4091 
L 2791 897 
L 2175 897 
L 1581 4103 
L 788 0 
L 172 0 
L 1081 4666 
z
" transform="scale(0.015625)"/>
       <path id="DejaVuSans-Oblique-50" d="M 1081 4666 
L 2541 4666 
Q 3178 4666 3512 4369 
Q 3847 4072 3847 3500 
Q 3847 2731 3353 2303 
Q 2859 1875 1966 1875 
L 1172 1875 
L 806 0 
L 172 0 
L 1081 4666 
z
M 1613 4147 
L 1275 2394 
L 2069 2394 
Q 2606 2394 2893 2669 
Q 3181 2944 3181 3456 
Q 3181 3784 2986 3965 
Q 2791 4147 2438 4147 
L 1613 4147 
z
" transform="scale(0.015625)"/>
       <path id="DejaVuSans-39" d="M 703 97 
L 703 672 
Q 941 559 1184 500 
Q 1428 441 1663 441 
Q 2288 441 2617 861 
Q 2947 1281 2994 2138 
Q 2813 1869 2534 1725 
Q 2256 1581 1919 1581 
Q 1219 1581 811 2004 
Q 403 2428 403 3163 
Q 403 3881 828 4315 
Q 1253 4750 1959 4750 
Q 2769 4750 3195 4129 
Q 3622 3509 3622 2328 
Q 3622 1225 3098 567 
Q 2575 -91 1691 -91 
Q 1453 -91 1209 -44 
Q 966 3 703 97 
z
M 1959 2075 
Q 2384 2075 2632 2365 
Q 2881 2656 2881 3163 
Q 2881 3666 2632 3958 
Q 2384 4250 1959 4250 
Q 1534 4250 1286 3958 
Q 1038 3666 1038 3163 
Q 1038 2656 1286 2365 
Q 1534 2075 1959 2075 
z
" transform="scale(0.015625)"/>
       <path id="DejaVuSans-5d" d="M 1947 4863 
L 1947 -844 
L 622 -844 
L 622 -397 
L 1369 -397 
L 1369 4416 
L 622 4416 
L 622 4863 
L 1947 4863 
z
" transform="scale(0.015625)"/>
       <path id="DejaVuSans-2f" d="M 1625 4666 
L 2156 4666 
L 531 -594 
L 0 -594 
L 1625 4666 
z
" transform="scale(0.015625)"/>
       <path id="DejaVuSans-Oblique-54" d="M 378 4666 
L 4325 4666 
L 4225 4134 
L 2559 4134 
L 1759 0 
L 1125 0 
L 1925 4134 
L 275 4134 
L 378 4666 
z
" transform="scale(0.015625)"/>
       <path id="DejaVuSans-Oblique-74" d="M 2706 3500 
L 2619 3053 
L 1472 3053 
L 1100 1153 
Q 1081 1047 1072 975 
Q 1063 903 1063 863 
Q 1063 663 1183 572 
Q 1303 481 1569 481 
L 2150 481 
L 2053 0 
L 1503 0 
Q 991 0 739 200 
Q 488 400 488 806 
Q 488 878 497 964 
Q 506 1050 525 1153 
L 897 3053 
L 409 3053 
L 500 3500 
L 978 3500 
L 1172 4494 
L 1747 4494 
L 1556 3500 
L 2706 3500 
z
" transform="scale(0.015625)"/>
       <path id="DejaVuSans-Oblique-61" d="M 3438 1997 
L 3047 0 
L 2472 0 
L 2578 531 
Q 2325 219 2001 64 
Q 1678 -91 1281 -91 
Q 834 -91 548 182 
Q 263 456 263 884 
Q 263 1497 752 1853 
Q 1241 2209 2100 2209 
L 2900 2209 
L 2931 2363 
Q 2938 2388 2941 2417 
Q 2944 2447 2944 2509 
Q 2944 2788 2717 2942 
Q 2491 3097 2081 3097 
Q 1800 3097 1504 3025 
Q 1209 2953 897 2809 
L 997 3341 
Q 1322 3463 1633 3523 
Q 1944 3584 2234 3584 
Q 2853 3584 3176 3315 
Q 3500 3047 3500 2534 
Q 3500 2431 3484 2292 
Q 3469 2153 3438 1997 
z
M 2816 1759 
L 2241 1759 
Q 1534 1759 1195 1570 
Q 856 1381 856 984 
Q 856 709 1029 553 
Q 1203 397 1509 397 
Q 1978 397 2328 733 
Q 2678 1069 2791 1631 
L 2816 1759 
z
" transform="scale(0.015625)"/>
       <path id="DejaVuSans-Oblique-72" d="M 2853 2969 
Q 2766 3016 2653 3041 
Q 2541 3066 2413 3066 
Q 1953 3066 1609 2717 
Q 1266 2369 1153 1784 
L 800 0 
L 225 0 
L 909 3500 
L 1484 3500 
L 1375 2956 
Q 1603 3259 1920 3421 
Q 2238 3584 2597 3584 
Q 2691 3584 2781 3573 
Q 2872 3563 2963 3538 
L 2853 2969 
z
" transform="scale(0.015625)"/>
       <path id="DejaVuSans-Oblique-65" d="M 3078 2063 
Q 3088 2113 3092 2166 
Q 3097 2219 3097 2272 
Q 3097 2653 2873 2875 
Q 2650 3097 2266 3097 
Q 1838 3097 1509 2826 
Q 1181 2556 1013 2059 
L 3078 2063 
z
M 3578 1613 
L 903 1613 
Q 884 1494 878 1425 
Q 872 1356 872 1306 
Q 872 872 1139 634 
Q 1406 397 1894 397 
Q 2269 397 2603 481 
Q 2938 566 3225 728 
L 3116 159 
Q 2806 34 2476 -28 
Q 2147 -91 1806 -91 
Q 1078 -91 686 257 
Q 294 606 294 1247 
Q 294 1794 489 2264 
Q 684 2734 1063 3103 
Q 1306 3334 1642 3459 
Q 1978 3584 2356 3584 
Q 2950 3584 3301 3228 
Q 3653 2872 3653 2272 
Q 3653 2128 3634 1964 
Q 3616 1800 3578 1613 
z
" transform="scale(0.015625)"/>
       <path id="DejaVuSans-Oblique-69" d="M 1172 4863 
L 1747 4863 
L 1606 4134 
L 1031 4134 
L 1172 4863 
z
M 909 3500 
L 1484 3500 
L 800 0 
L 225 0 
L 909 3500 
z
" transform="scale(0.015625)"/>
       <path id="DejaVuSans-Oblique-6e" d="M 3566 2113 
L 3156 0 
L 2578 0 
L 2988 2091 
Q 3016 2238 3031 2350 
Q 3047 2463 3047 2528 
Q 3047 2791 2881 2937 
Q 2716 3084 2419 3084 
Q 1956 3084 1622 2776 
Q 1288 2469 1184 1941 
L 800 0 
L 225 0 
L 903 3500 
L 1478 3500 
L 1363 2950 
Q 1603 3253 1940 3418 
Q 2278 3584 2650 3584 
Q 3113 3584 3367 3334 
Q 3622 3084 3622 2631 
Q 3622 2519 3608 2391 
Q 3594 2263 3566 2113 
z
" transform="scale(0.015625)"/>
       <path id="DejaVuSans-29" d="M 513 4856 
L 1013 4856 
Q 1481 4119 1714 3412 
Q 1947 2706 1947 2009 
Q 1947 1309 1714 600 
Q 1481 -109 1013 -844 
L 513 -844 
Q 928 -128 1133 580 
Q 1338 1288 1338 2009 
Q 1338 2731 1133 3434 
Q 928 4138 513 4856 
z
" transform="scale(0.015625)"/>
      </defs>
      <use xlink:href="#DejaVuSans-Oblique-6c" transform="translate(0 0.015625)"/>
      <use xlink:href="#DejaVuSans-Oblique-6f" transform="translate(27.783203 0.015625)"/>
      <use xlink:href="#DejaVuSans-Oblique-67" transform="translate(88.964844 0.015625)"/>
      <use xlink:href="#DejaVuSans-28" transform="translate(152.441406 0.015625)"/>
      <use xlink:href="#DejaVuSans-5b" transform="translate(191.455078 0.015625)"/>
      <use xlink:href="#DejaVuSans-Oblique-4d" transform="translate(230.46875 0.015625)"/>
      <use xlink:href="#DejaVuSans-Oblique-4d" transform="translate(316.748047 0.015625)"/>
      <use xlink:href="#DejaVuSans-Oblique-50" transform="translate(403.027344 0.015625)"/>
      <use xlink:href="#DejaVuSans-39" transform="translate(463.330078 0.015625)"/>
      <use xlink:href="#DejaVuSans-5d" transform="translate(526.953125 0.015625)"/>
      <use xlink:href="#DejaVuSans-2f" transform="translate(565.966797 0.015625)"/>
      <use xlink:href="#DejaVuSans-5b" transform="translate(599.658203 0.015625)"/>
      <use xlink:href="#DejaVuSans-Oblique-54" transform="translate(638.671875 0.015625)"/>
      <use xlink:href="#DejaVuSans-Oblique-6f" transform="translate(699.755859 0.015625)"/>
      <use xlink:href="#DejaVuSans-Oblique-74" transform="translate(760.9375 0.015625)"/>
      <use xlink:href="#DejaVuSans-Oblique-61" transform="translate(800.146484 0.015625)"/>
      <use xlink:href="#DejaVuSans-Oblique-6c" transform="translate(861.425781 0.015625)"/>
      <use xlink:href="#DejaVuSans-Oblique-50" transform="translate(889.208984 0.015625)"/>
      <use xlink:href="#DejaVuSans-Oblique-72" transform="translate(949.511719 0.015625)"/>
      <use xlink:href="#DejaVuSans-Oblique-6f" transform="translate(990.625 0.015625)"/>
      <use xlink:href="#DejaVuSans-Oblique-74" transform="translate(1051.806641 0.015625)"/>
      <use xlink:href="#DejaVuSans-Oblique-65" transform="translate(1091.015625 0.015625)"/>
      <use xlink:href="#DejaVuSans-Oblique-69" transform="translate(1152.539062 0.015625)"/>
      <use xlink:href="#DejaVuSans-Oblique-6e" transform="translate(1180.322266 0.015625)"/>
      <use xlink:href="#DejaVuSans-5d" transform="translate(1243.701172 0.015625)"/>
      <use xlink:href="#DejaVuSans-29" transform="translate(1282.714844 0.015625)"/>
     </g>
    </g>
   </g>
   <g id="line2d_12">
    <path d="M 107.955 274.187494 
L 107.955 123.679529 
" clip-path="url(#p496b90aca4)" style="fill: none; stroke: #434343; stroke-width: 1.5; stroke-linecap: square"/>
   </g>
   <g id="line2d_13">
    <path d="M 107.955 216.071211 
L 107.955 175.729804 
" clip-path="url(#p496b90aca4)" style="fill: none; stroke: #434343; stroke-width: 4.5; stroke-linecap: square"/>
   </g>
   <g id="line2d_14">
    <path d="M 241.565 272.020976 
L 241.565 135.082631 
" clip-path="url(#p496b90aca4)" style="fill: none; stroke: #434343; stroke-width: 1.5; stroke-linecap: square"/>
   </g>
   <g id="line2d_15">
    <path d="M 241.565 229.270038 
L 241.565 156.256019 
" clip-path="url(#p496b90aca4)" style="fill: none; stroke: #434343; stroke-width: 4.5; stroke-linecap: square"/>
   </g>
   <g id="line2d_16">
    <path d="M 375.175 269.81716 
L 375.175 147.660309 
" clip-path="url(#p496b90aca4)" style="fill: none; stroke: #434343; stroke-width: 1.5; stroke-linecap: square"/>
   </g>
   <g id="line2d_17">
    <path d="M 375.175 239.482212 
L 375.175 169.720333 
" clip-path="url(#p496b90aca4)" style="fill: none; stroke: #434343; stroke-width: 4.5; stroke-linecap: square"/>
   </g>
   <g id="line2d_18">
    <path d="M 508.785 256.013056 
L 508.785 155.649984 
" clip-path="url(#p496b90aca4)" style="fill: none; stroke: #434343; stroke-width: 1.5; stroke-linecap: square"/>
   </g>
   <g id="line2d_19">
    <path d="M 508.785 222.343019 
L 508.785 171.543383 
" clip-path="url(#p496b90aca4)" style="fill: none; stroke: #434343; stroke-width: 4.5; stroke-linecap: square"/>
   </g>
   <g id="line2d_20">
    <path d="M 642.395 275.128238 
L 642.395 78.707032 
" clip-path="url(#p496b90aca4)" style="fill: none; stroke: #434343; stroke-width: 1.5; stroke-linecap: square"/>
   </g>
   <g id="line2d_21">
    <path d="M 642.395 228.713066 
L 642.395 153.54418 
" clip-path="url(#p496b90aca4)" style="fill: none; stroke: #434343; stroke-width: 4.5; stroke-linecap: square"/>
   </g>
   <g id="patch_3">
    <path d="M 41.15 343.03527 
L 41.15 10.8 
" style="fill: none; stroke: #000000; stroke-width: 0.8; stroke-linejoin: miter; stroke-linecap: square"/>
   </g>
   <g id="patch_4">
    <path d="M 709.2 343.03527 
L 709.2 10.8 
" style="fill: none; stroke: #000000; stroke-width: 0.8; stroke-linejoin: miter; stroke-linecap: square"/>
   </g>
   <g id="patch_5">
    <path d="M 41.15 343.03527 
L 709.2 343.03527 
" style="fill: none; stroke: #000000; stroke-width: 0.8; stroke-linejoin: miter; stroke-linecap: square"/>
   </g>
   <g id="patch_6">
    <path d="M 41.15 10.8 
L 709.2 10.8 
" style="fill: none; stroke: #000000; stroke-width: 0.8; stroke-linejoin: miter; stroke-linecap: square"/>
   </g>
   <g id="PathCollection_1">
    <defs>
     <path id="mace5ecbc50" d="M 0 1.5 
C 0.397805 1.5 0.77937 1.341951 1.06066 1.06066 
C 1.341951 0.77937 1.5 0.397805 1.5 0 
C 1.5 -0.397805 1.341951 -0.77937 1.06066 -1.06066 
C 0.77937 -1.341951 0.397805 -1.5 0 -1.5 
C -0.397805 -1.5 -0.77937 -1.341951 -1.06066 -1.06066 
C -1.341951 -0.77937 -1.5 -0.397805 -1.5 0 
C -1.5 0.397805 -1.341951 0.77937 -1.06066 1.06066 
C -0.77937 1.341951 -0.397805 1.5 0 1.5 
z
" style="stroke: #434343"/>
    </defs>
    <g clip-path="url(#p496b90aca4)">
     <use xlink:href="#mace5ecbc50" x="107.955" y="184.195999" style="fill: #ffffff; stroke: #434343"/>
    </g>
   </g>
   <g id="PathCollection_2">
    <g clip-path="url(#p496b90aca4)">
     <use xlink:href="#mace5ecbc50" x="241.565" y="180.361015" style="fill: #ffffff; stroke: #434343"/>
    </g>
   </g>
   <g id="PathCollection_3">
    <g clip-path="url(#p496b90aca4)">
     <use xlink:href="#mace5ecbc50" x="375.175" y="183.021722" style="fill: #ffffff; stroke: #434343"/>
    </g>
   </g>
   <g id="PathCollection_4">
    <g clip-path="url(#p496b90aca4)">
     <use xlink:href="#mace5ecbc50" x="508.785" y="189.618379" style="fill: #ffffff; stroke: #434343"/>
    </g>
   </g>
   <g id="PathCollection_5">
    <g clip-path="url(#p496b90aca4)">
     <use xlink:href="#mace5ecbc50" x="642.395" y="197.687703" style="fill: #ffffff; stroke: #434343"/>
    </g>
   </g>
  </g>
 </g>
 <defs>
  <clipPath id="p496b90aca4">
   <rect x="41.15" y="10.8" width="668.05" height="332.23527"/>
  </clipPath>
 </defs>
</svg>
