<?xml version="1.0" encoding="utf-8" standalone="no"?>
<!DOCTYPE svg PUBLIC "-//W3C//DTD SVG 1.1//EN"
  "http://www.w3.org/Graphics/SVG/1.1/DTD/svg11.dtd">
<svg xmlns:xlink="http://www.w3.org/1999/xlink" width="720pt" height="432pt" viewBox="0 0 720 432" xmlns="http://www.w3.org/2000/svg" version="1.1">
 <metadata>
  <rdf:RDF xmlns:dc="http://purl.org/dc/elements/1.1/" xmlns:cc="http://creativecommons.org/ns#" xmlns:rdf="http://www.w3.org/1999/02/22-rdf-syntax-ns#">
   <cc:Work>
    <dc:type rdf:resource="http://purl.org/dc/dcmitype/StillImage"/>
    <dc:date>2024-09-30T14:00:19.255839</dc:date>
    <dc:format>image/svg+xml</dc:format>
    <dc:creator>
     <cc:Agent>
      <dc:title>Matplotlib v3.7.3, https://matplotlib.org/</dc:title>
     </cc:Agent>
    </dc:creator>
   </cc:Work>
  </rdf:RDF>
 </metadata>
 <defs>
  <style type="text/css">*{stroke-linejoin: round; stroke-linecap: butt}</style>
 </defs>
 <g id="figure_1">
  <g id="patch_1">
   <path d="M 0 432 
L 720 432 
L 720 0 
L 0 0 
z
" style="fill: #ffffff"/>
  </g>
  <g id="axes_1">
   <g id="patch_2">
    <path d="M 105.41 390.04 
L 709.2 390.04 
L 709.2 10.8 
L 105.41 10.8 
z
" style="fill: #ffffff"/>
   </g>
   <g id="PathCollection_1">
    <defs>
     <path id="C0_0_552c823c95" d="M 0 1.5 
C 0.397805 1.5 0.77937 1.341951 1.06066 1.06066 
C 1.341951 0.77937 1.5 0.397805 1.5 -0 
C 1.5 -0.397805 1.341951 -0.77937 1.06066 -1.06066 
C 0.77937 -1.341951 0.397805 -1.5 0 -1.5 
C -0.397805 -1.5 -0.77937 -1.341951 -1.06066 -1.06066 
C -1.341951 -0.77937 -1.5 -0.397805 -1.5 0 
C -1.5 0.397805 -1.341951 0.77937 -1.06066 1.06066 
C -0.77937 1.341951 -0.397805 1.5 0 1.5 
z
"/>
    </defs>
    <g clip-path="url(#p57d19f7b4b)">
     <use xlink:href="#C0_0_552c823c95" x="409.434346" y="66.695275" style="fill: #f77189"/>
    </g>
    <g clip-path="url(#p57d19f7b4b)">
     <use xlink:href="#C0_0_552c823c95" x="456.435824" y="62.231519" style="fill: #f77189"/>
    </g>
    <g clip-path="url(#p57d19f7b4b)">
     <use xlink:href="#C0_0_552c823c95" x="556.07914" y="59.458663" style="fill: #f77189"/>
    </g>
    <g clip-path="url(#p57d19f7b4b)">
     <use xlink:href="#C0_0_552c823c95" x="390.816553" y="61.097332" style="fill: #f77189"/>
    </g>
    <g clip-path="url(#p57d19f7b4b)">
     <use xlink:href="#C0_0_552c823c95" x="386.965575" y="66.658501" style="fill: #f77189"/>
    </g>
    <g clip-path="url(#p57d19f7b4b)">
     <use xlink:href="#C0_0_552c823c95" x="396.799406" y="66.928028" style="fill: #f77189"/>
    </g>
    <g clip-path="url(#p57d19f7b4b)">
     <use xlink:href="#C0_0_552c823c95" x="349.25189" y="63.895434" style="fill: #f77189"/>
    </g>
    <g clip-path="url(#p57d19f7b4b)">
     <use xlink:href="#C0_0_552c823c95" x="384.340628" y="67.580872" style="fill: #f77189"/>
    </g>
    <g clip-path="url(#p57d19f7b4b)">
     <use xlink:href="#C0_0_552c823c95" x="379.319731" y="61.871895" style="fill: #f77189"/>
    </g>
    <g clip-path="url(#p57d19f7b4b)">
     <use xlink:href="#C0_0_552c823c95" x="392.268657" y="55.122496" style="fill: #f77189"/>
    </g>
    <g clip-path="url(#p57d19f7b4b)">
     <use xlink:href="#C0_0_552c823c95" x="402.570537" y="56.104189" style="fill: #f77189"/>
    </g>
    <g clip-path="url(#p57d19f7b4b)">
     <use xlink:href="#C0_0_552c823c95" x="440.846667" y="62.31447" style="fill: #f77189"/>
    </g>
    <g clip-path="url(#p57d19f7b4b)">
     <use xlink:href="#C0_0_552c823c95" x="206.186513" y="62.547494" style="fill: #f77189"/>
    </g>
    <g clip-path="url(#p57d19f7b4b)">
     <use xlink:href="#C0_0_552c823c95" x="246.841208" y="67.639605" style="fill: #f77189"/>
    </g>
    <g clip-path="url(#p57d19f7b4b)">
     <use xlink:href="#C0_0_552c823c95" x="135.483914" y="67.822122" style="fill: #f77189"/>
    </g>
    <g clip-path="url(#p57d19f7b4b)">
     <use xlink:href="#C0_0_552c823c95" x="267.169907" y="63.913108" style="fill: #f77189"/>
    </g>
    <g clip-path="url(#p57d19f7b4b)">
     <use xlink:href="#C0_0_552c823c95" x="299.86689" y="65.471176" style="fill: #f77189"/>
    </g>
    <g clip-path="url(#p57d19f7b4b)">
     <use xlink:href="#C0_0_552c823c95" x="297.890145" y="56.635394" style="fill: #f77189"/>
    </g>
    <g clip-path="url(#p57d19f7b4b)">
     <use xlink:href="#C0_0_552c823c95" x="369.167596" y="67.192193" style="fill: #f77189"/>
    </g>
    <g clip-path="url(#p57d19f7b4b)">
     <use xlink:href="#C0_0_552c823c95" x="311.148165" y="57.462992" style="fill: #f77189"/>
    </g>
    <g clip-path="url(#p57d19f7b4b)">
     <use xlink:href="#C0_0_552c823c95" x="210.411897" y="55.73144" style="fill: #f77189"/>
    </g>
    <g clip-path="url(#p57d19f7b4b)">
     <use xlink:href="#C0_0_552c823c95" x="229.198439" y="54.51548" style="fill: #f77189"/>
    </g>
    <g clip-path="url(#p57d19f7b4b)">
     <use xlink:href="#C0_0_552c823c95" x="228.319084" y="58.429307" style="fill: #f77189"/>
    </g>
    <g clip-path="url(#p57d19f7b4b)">
     <use xlink:href="#C0_0_552c823c95" x="410.624398" y="61.22143" style="fill: #f77189"/>
    </g>
    <g clip-path="url(#p57d19f7b4b)">
     <use xlink:href="#C0_0_552c823c95" x="447.243669" y="62.730958" style="fill: #f77189"/>
    </g>
    <g clip-path="url(#p57d19f7b4b)">
     <use xlink:href="#C0_0_552c823c95" x="425.611373" y="58.701032" style="fill: #f77189"/>
    </g>
    <g clip-path="url(#p57d19f7b4b)">
     <use xlink:href="#C0_0_552c823c95" x="466.572669" y="55.798793" style="fill: #f77189"/>
    </g>
    <g clip-path="url(#p57d19f7b4b)">
     <use xlink:href="#C0_0_552c823c95" x="422.326636" y="66.516966" style="fill: #f77189"/>
    </g>
    <g clip-path="url(#p57d19f7b4b)">
     <use xlink:href="#C0_0_552c823c95" x="407.768829" y="56.298095" style="fill: #f77189"/>
    </g>
   </g>
   <g id="PathCollection_2">
    <defs>
     <path id="C1_0_67d66e4f6a" d="M 0 1.5 
C 0.397805 1.5 0.77937 1.341951 1.06066 1.06066 
C 1.341951 0.77937 1.5 0.397805 1.5 -0 
C 1.5 -0.397805 1.341951 -0.77937 1.06066 -1.06066 
C 0.77937 -1.341951 0.397805 -1.5 0 -1.5 
C -0.397805 -1.5 -0.77937 -1.341951 -1.06066 -1.06066 
C -1.341951 -0.77937 -1.5 -0.397805 -1.5 0 
C -1.5 0.397805 -1.341951 0.77937 -1.06066 1.06066 
C -0.77937 1.341951 -0.397805 1.5 0 1.5 
z
"/>
    </defs>
    <g clip-path="url(#p57d19f7b4b)">
     <use xlink:href="#C1_0_67d66e4f6a" x="467.919475" y="132.49853" style="fill: #ae9d31"/>
    </g>
    <g clip-path="url(#p57d19f7b4b)">
     <use xlink:href="#C1_0_67d66e4f6a" x="465.043983" y="129.358648" style="fill: #ae9d31"/>
    </g>
    <g clip-path="url(#p57d19f7b4b)">
     <use xlink:href="#C1_0_67d66e4f6a" x="480.238982" y="129.9618" style="fill: #ae9d31"/>
    </g>
    <g clip-path="url(#p57d19f7b4b)">
     <use xlink:href="#C1_0_67d66e4f6a" x="471.424701" y="130.82001" style="fill: #ae9d31"/>
    </g>
    <g clip-path="url(#p57d19f7b4b)">
     <use xlink:href="#C1_0_67d66e4f6a" x="387.315448" y="136.718231" style="fill: #ae9d31"/>
    </g>
    <g clip-path="url(#p57d19f7b4b)">
     <use xlink:href="#C1_0_67d66e4f6a" x="383.012699" y="129.300531" style="fill: #ae9d31"/>
    </g>
    <g clip-path="url(#p57d19f7b4b)">
     <use xlink:href="#C1_0_67d66e4f6a" x="331.617758" y="139.291612" style="fill: #ae9d31"/>
    </g>
    <g clip-path="url(#p57d19f7b4b)">
     <use xlink:href="#C1_0_67d66e4f6a" x="325.003124" y="140.920799" style="fill: #ae9d31"/>
    </g>
    <g clip-path="url(#p57d19f7b4b)">
     <use xlink:href="#C1_0_67d66e4f6a" x="371.393299" y="127.385223" style="fill: #ae9d31"/>
    </g>
    <g clip-path="url(#p57d19f7b4b)">
     <use xlink:href="#C1_0_67d66e4f6a" x="465.895482" y="138.195464" style="fill: #ae9d31"/>
    </g>
    <g clip-path="url(#p57d19f7b4b)">
     <use xlink:href="#C1_0_67d66e4f6a" x="409.924648" y="130.260676" style="fill: #ae9d31"/>
    </g>
    <g clip-path="url(#p57d19f7b4b)">
     <use xlink:href="#C1_0_67d66e4f6a" x="434.56116" y="140.548013" style="fill: #ae9d31"/>
    </g>
    <g clip-path="url(#p57d19f7b4b)">
     <use xlink:href="#C1_0_67d66e4f6a" x="157.616617" y="139.348492" style="fill: #ae9d31"/>
    </g>
    <g clip-path="url(#p57d19f7b4b)">
     <use xlink:href="#C1_0_67d66e4f6a" x="208.115568" y="133.975047" style="fill: #ae9d31"/>
    </g>
    <g clip-path="url(#p57d19f7b4b)">
     <use xlink:href="#C1_0_67d66e4f6a" x="141.538259" y="136.233037" style="fill: #ae9d31"/>
    </g>
    <g clip-path="url(#p57d19f7b4b)">
     <use xlink:href="#C1_0_67d66e4f6a" x="220.851605" y="140.102737" style="fill: #ae9d31"/>
    </g>
    <g clip-path="url(#p57d19f7b4b)">
     <use xlink:href="#C1_0_67d66e4f6a" x="261.00596" y="139.275403" style="fill: #ae9d31"/>
    </g>
    <g clip-path="url(#p57d19f7b4b)">
     <use xlink:href="#C1_0_67d66e4f6a" x="397.682456" y="136.865569" style="fill: #ae9d31"/>
    </g>
    <g clip-path="url(#p57d19f7b4b)">
     <use xlink:href="#C1_0_67d66e4f6a" x="286.527014" y="134.313963" style="fill: #ae9d31"/>
    </g>
    <g clip-path="url(#p57d19f7b4b)">
     <use xlink:href="#C1_0_67d66e4f6a" x="516.870943" y="129.312573" style="fill: #ae9d31"/>
    </g>
    <g clip-path="url(#p57d19f7b4b)">
     <use xlink:href="#C1_0_67d66e4f6a" x="179.214688" y="138.241101" style="fill: #ae9d31"/>
    </g>
    <g clip-path="url(#p57d19f7b4b)">
     <use xlink:href="#C1_0_67d66e4f6a" x="210.653593" y="137.549358" style="fill: #ae9d31"/>
    </g>
    <g clip-path="url(#p57d19f7b4b)">
     <use xlink:href="#C1_0_67d66e4f6a" x="189.03381" y="136.54085" style="fill: #ae9d31"/>
    </g>
    <g clip-path="url(#p57d19f7b4b)">
     <use xlink:href="#C1_0_67d66e4f6a" x="434.112217" y="130.181006" style="fill: #ae9d31"/>
    </g>
    <g clip-path="url(#p57d19f7b4b)">
     <use xlink:href="#C1_0_67d66e4f6a" x="459.570452" y="135.767637" style="fill: #ae9d31"/>
    </g>
    <g clip-path="url(#p57d19f7b4b)">
     <use xlink:href="#C1_0_67d66e4f6a" x="444.518564" y="139.019372" style="fill: #ae9d31"/>
    </g>
    <g clip-path="url(#p57d19f7b4b)">
     <use xlink:href="#C1_0_67d66e4f6a" x="524.213118" y="129.636351" style="fill: #ae9d31"/>
    </g>
    <g clip-path="url(#p57d19f7b4b)">
     <use xlink:href="#C1_0_67d66e4f6a" x="462.697624" y="141.151758" style="fill: #ae9d31"/>
    </g>
    <g clip-path="url(#p57d19f7b4b)">
     <use xlink:href="#C1_0_67d66e4f6a" x="469.789716" y="133.927433" style="fill: #ae9d31"/>
    </g>
   </g>
   <g id="PathCollection_3">
    <defs>
     <path id="C2_0_f25f0a49f4" d="M 0 1.5 
C 0.397805 1.5 0.77937 1.341951 1.06066 1.06066 
C 1.341951 0.77937 1.5 0.397805 1.5 -0 
C 1.5 -0.397805 1.341951 -0.77937 1.06066 -1.06066 
C 0.77937 -1.341951 0.397805 -1.5 0 -1.5 
C -0.397805 -1.5 -0.77937 -1.341951 -1.06066 -1.06066 
C -1.341951 -0.77937 -1.5 -0.397805 -1.5 0 
C -1.5 0.397805 -1.341951 0.77937 -1.06066 1.06066 
C -0.77937 1.341951 -0.397805 1.5 0 1.5 
z
"/>
    </defs>
    <g clip-path="url(#p57d19f7b4b)">
     <use xlink:href="#C2_0_f25f0a49f4" x="428.158716" y="213.302548" style="fill: #33b07a"/>
    </g>
    <g clip-path="url(#p57d19f7b4b)">
     <use xlink:href="#C2_0_f25f0a49f4" x="405.17098" y="206.183526" style="fill: #33b07a"/>
    </g>
    <g clip-path="url(#p57d19f7b4b)">
     <use xlink:href="#C2_0_f25f0a49f4" x="434.546905" y="214.187689" style="fill: #33b07a"/>
    </g>
    <g clip-path="url(#p57d19f7b4b)">
     <use xlink:href="#C2_0_f25f0a49f4" x="303.512798" y="200.852404" style="fill: #33b07a"/>
    </g>
    <g clip-path="url(#p57d19f7b4b)">
     <use xlink:href="#C2_0_f25f0a49f4" x="403.190829" y="206.940288" style="fill: #33b07a"/>
    </g>
    <g clip-path="url(#p57d19f7b4b)">
     <use xlink:href="#C2_0_f25f0a49f4" x="463.595417" y="209.864386" style="fill: #33b07a"/>
    </g>
    <g clip-path="url(#p57d19f7b4b)">
     <use xlink:href="#C2_0_f25f0a49f4" x="389.76042" y="200.372505" style="fill: #33b07a"/>
    </g>
    <g clip-path="url(#p57d19f7b4b)">
     <use xlink:href="#C2_0_f25f0a49f4" x="331.734232" y="207.76147" style="fill: #33b07a"/>
    </g>
    <g clip-path="url(#p57d19f7b4b)">
     <use xlink:href="#C2_0_f25f0a49f4" x="307.746826" y="204.732841" style="fill: #33b07a"/>
    </g>
    <g clip-path="url(#p57d19f7b4b)">
     <use xlink:href="#C2_0_f25f0a49f4" x="489.064736" y="211.818698" style="fill: #33b07a"/>
    </g>
    <g clip-path="url(#p57d19f7b4b)">
     <use xlink:href="#C2_0_f25f0a49f4" x="445.344737" y="206.63384" style="fill: #33b07a"/>
    </g>
    <g clip-path="url(#p57d19f7b4b)">
     <use xlink:href="#C2_0_f25f0a49f4" x="447.751712" y="212.380585" style="fill: #33b07a"/>
    </g>
    <g clip-path="url(#p57d19f7b4b)">
     <use xlink:href="#C2_0_f25f0a49f4" x="183.123301" y="201.689615" style="fill: #33b07a"/>
    </g>
    <g clip-path="url(#p57d19f7b4b)">
     <use xlink:href="#C2_0_f25f0a49f4" x="221.85372" y="201.091655" style="fill: #33b07a"/>
    </g>
    <g clip-path="url(#p57d19f7b4b)">
     <use xlink:href="#C2_0_f25f0a49f4" x="161.135598" y="213.975978" style="fill: #33b07a"/>
    </g>
    <g clip-path="url(#p57d19f7b4b)">
     <use xlink:href="#C2_0_f25f0a49f4" x="264.310804" y="207.840739" style="fill: #33b07a"/>
    </g>
    <g clip-path="url(#p57d19f7b4b)">
     <use xlink:href="#C2_0_f25f0a49f4" x="210.9823" y="202.640808" style="fill: #33b07a"/>
    </g>
    <g clip-path="url(#p57d19f7b4b)">
     <use xlink:href="#C2_0_f25f0a49f4" x="215.557474" y="208.859902" style="fill: #33b07a"/>
    </g>
    <g clip-path="url(#p57d19f7b4b)">
     <use xlink:href="#C2_0_f25f0a49f4" x="346.869542" y="205.210981" style="fill: #33b07a"/>
    </g>
    <g clip-path="url(#p57d19f7b4b)">
     <use xlink:href="#C2_0_f25f0a49f4" x="363.635433" y="206.006938" style="fill: #33b07a"/>
    </g>
    <g clip-path="url(#p57d19f7b4b)">
     <use xlink:href="#C2_0_f25f0a49f4" x="430.863021" y="208.388169" style="fill: #33b07a"/>
    </g>
    <g clip-path="url(#p57d19f7b4b)">
     <use xlink:href="#C2_0_f25f0a49f4" x="219.617514" y="210.557141" style="fill: #33b07a"/>
    </g>
    <g clip-path="url(#p57d19f7b4b)">
     <use xlink:href="#C2_0_f25f0a49f4" x="202.293998" y="212.364511" style="fill: #33b07a"/>
    </g>
    <g clip-path="url(#p57d19f7b4b)">
     <use xlink:href="#C2_0_f25f0a49f4" x="147.696834" y="211.363184" style="fill: #33b07a"/>
    </g>
    <g clip-path="url(#p57d19f7b4b)">
     <use xlink:href="#C2_0_f25f0a49f4" x="393.607099" y="213.309275" style="fill: #33b07a"/>
    </g>
    <g clip-path="url(#p57d19f7b4b)">
     <use xlink:href="#C2_0_f25f0a49f4" x="390.733776" y="212.033367" style="fill: #33b07a"/>
    </g>
    <g clip-path="url(#p57d19f7b4b)">
     <use xlink:href="#C2_0_f25f0a49f4" x="402.983906" y="200.518742" style="fill: #33b07a"/>
    </g>
    <g clip-path="url(#p57d19f7b4b)">
     <use xlink:href="#C2_0_f25f0a49f4" x="454.702084" y="200.053155" style="fill: #33b07a"/>
    </g>
    <g clip-path="url(#p57d19f7b4b)">
     <use xlink:href="#C2_0_f25f0a49f4" x="425.195435" y="207.750553" style="fill: #33b07a"/>
    </g>
    <g clip-path="url(#p57d19f7b4b)">
     <use xlink:href="#C2_0_f25f0a49f4" x="397.756336" y="208.76938" style="fill: #33b07a"/>
    </g>
   </g>
   <g id="PathCollection_4">
    <defs>
     <path id="C3_0_a22b891b1f" d="M 0 1.5 
C 0.397805 1.5 0.77937 1.341951 1.06066 1.06066 
C 1.341951 0.77937 1.5 0.397805 1.5 -0 
C 1.5 -0.397805 1.341951 -0.77937 1.06066 -1.06066 
C 0.77937 -1.341951 0.397805 -1.5 0 -1.5 
C -0.397805 -1.5 -0.77937 -1.341951 -1.06066 -1.06066 
C -1.341951 -0.77937 -1.5 -0.397805 -1.5 0 
C -1.5 0.397805 -1.341951 0.77937 -1.06066 1.06066 
C -0.77937 1.341951 -0.397805 1.5 0 1.5 
z
"/>
    </defs>
    <g clip-path="url(#p57d19f7b4b)">
     <use xlink:href="#C3_0_a22b891b1f" x="455.363337" y="280.878688" style="fill: #38a9c5"/>
    </g>
    <g clip-path="url(#p57d19f7b4b)">
     <use xlink:href="#C3_0_a22b891b1f" x="417.234714" y="284.774858" style="fill: #38a9c5"/>
    </g>
    <g clip-path="url(#p57d19f7b4b)">
     <use xlink:href="#C3_0_a22b891b1f" x="443.240776" y="279.587678" style="fill: #38a9c5"/>
    </g>
    <g clip-path="url(#p57d19f7b4b)">
     <use xlink:href="#C3_0_a22b891b1f" x="417.892011" y="286.87611" style="fill: #38a9c5"/>
    </g>
    <g clip-path="url(#p57d19f7b4b)">
     <use xlink:href="#C3_0_a22b891b1f" x="448.295016" y="284.857176" style="fill: #38a9c5"/>
    </g>
    <g clip-path="url(#p57d19f7b4b)">
     <use xlink:href="#C3_0_a22b891b1f" x="427.384059" y="279.036821" style="fill: #38a9c5"/>
    </g>
    <g clip-path="url(#p57d19f7b4b)">
     <use xlink:href="#C3_0_a22b891b1f" x="352.172085" y="283.896054" style="fill: #38a9c5"/>
    </g>
    <g clip-path="url(#p57d19f7b4b)">
     <use xlink:href="#C3_0_a22b891b1f" x="283.060504" y="287.553185" style="fill: #38a9c5"/>
    </g>
    <g clip-path="url(#p57d19f7b4b)">
     <use xlink:href="#C3_0_a22b891b1f" x="365.107605" y="284.537313" style="fill: #38a9c5"/>
    </g>
    <g clip-path="url(#p57d19f7b4b)">
     <use xlink:href="#C3_0_a22b891b1f" x="406.560936" y="282.125407" style="fill: #38a9c5"/>
    </g>
    <g clip-path="url(#p57d19f7b4b)">
     <use xlink:href="#C3_0_a22b891b1f" x="391.175931" y="278.271025" style="fill: #38a9c5"/>
    </g>
    <g clip-path="url(#p57d19f7b4b)">
     <use xlink:href="#C3_0_a22b891b1f" x="449.040459" y="284.097278" style="fill: #38a9c5"/>
    </g>
    <g clip-path="url(#p57d19f7b4b)">
     <use xlink:href="#C3_0_a22b891b1f" x="304.298108" y="283.195867" style="fill: #38a9c5"/>
    </g>
    <g clip-path="url(#p57d19f7b4b)">
     <use xlink:href="#C3_0_a22b891b1f" x="193.263463" y="281.665783" style="fill: #38a9c5"/>
    </g>
    <g clip-path="url(#p57d19f7b4b)">
     <use xlink:href="#C3_0_a22b891b1f" x="197.599508" y="274.8897" style="fill: #38a9c5"/>
    </g>
    <g clip-path="url(#p57d19f7b4b)">
     <use xlink:href="#C3_0_a22b891b1f" x="222.42142" y="276.207027" style="fill: #38a9c5"/>
    </g>
    <g clip-path="url(#p57d19f7b4b)">
     <use xlink:href="#C3_0_a22b891b1f" x="186.272469" y="274.769966" style="fill: #38a9c5"/>
    </g>
    <g clip-path="url(#p57d19f7b4b)">
     <use xlink:href="#C3_0_a22b891b1f" x="279.46456" y="274.62388" style="fill: #38a9c5"/>
    </g>
    <g clip-path="url(#p57d19f7b4b)">
     <use xlink:href="#C3_0_a22b891b1f" x="333.416005" y="286.390499" style="fill: #38a9c5"/>
    </g>
    <g clip-path="url(#p57d19f7b4b)">
     <use xlink:href="#C3_0_a22b891b1f" x="329.520482" y="277.192403" style="fill: #38a9c5"/>
    </g>
    <g clip-path="url(#p57d19f7b4b)">
     <use xlink:href="#C3_0_a22b891b1f" x="423.800494" y="283.59023" style="fill: #38a9c5"/>
    </g>
    <g clip-path="url(#p57d19f7b4b)">
     <use xlink:href="#C3_0_a22b891b1f" x="225.632572" y="276.762357" style="fill: #38a9c5"/>
    </g>
    <g clip-path="url(#p57d19f7b4b)">
     <use xlink:href="#C3_0_a22b891b1f" x="222.651477" y="284.182028" style="fill: #38a9c5"/>
    </g>
    <g clip-path="url(#p57d19f7b4b)">
     <use xlink:href="#C3_0_a22b891b1f" x="258.916805" y="286.99842" style="fill: #38a9c5"/>
    </g>
    <g clip-path="url(#p57d19f7b4b)">
     <use xlink:href="#C3_0_a22b891b1f" x="389.674529" y="278.620037" style="fill: #38a9c5"/>
    </g>
    <g clip-path="url(#p57d19f7b4b)">
     <use xlink:href="#C3_0_a22b891b1f" x="365.715977" y="281.41" style="fill: #38a9c5"/>
    </g>
    <g clip-path="url(#p57d19f7b4b)">
     <use xlink:href="#C3_0_a22b891b1f" x="377.909445" y="287.380468" style="fill: #38a9c5"/>
    </g>
    <g clip-path="url(#p57d19f7b4b)">
     <use xlink:href="#C3_0_a22b891b1f" x="385.955027" y="280.959248" style="fill: #38a9c5"/>
    </g>
    <g clip-path="url(#p57d19f7b4b)">
     <use xlink:href="#C3_0_a22b891b1f" x="450.315682" y="274.550238" style="fill: #38a9c5"/>
    </g>
    <g clip-path="url(#p57d19f7b4b)">
     <use xlink:href="#C3_0_a22b891b1f" x="466.737553" y="274.101978" style="fill: #38a9c5"/>
    </g>
   </g>
   <g id="PathCollection_5">
    <defs>
     <path id="C4_0_a46cfb5c42" d="M 0 1.5 
C 0.397805 1.5 0.77937 1.341951 1.06066 1.06066 
C 1.341951 0.77937 1.5 0.397805 1.5 -0 
C 1.5 -0.397805 1.341951 -0.77937 1.06066 -1.06066 
C 0.77937 -1.341951 0.397805 -1.5 0 -1.5 
C -0.397805 -1.5 -0.77937 -1.341951 -1.06066 -1.06066 
C -1.341951 -0.77937 -1.5 -0.397805 -1.5 0 
C -1.5 0.397805 -1.341951 0.77937 -1.06066 1.06066 
C -0.77937 1.341951 -0.397805 1.5 0 1.5 
z
"/>
    </defs>
    <g clip-path="url(#p57d19f7b4b)">
     <use xlink:href="#C4_0_a46cfb5c42" x="527.925761" y="353.385367" style="fill: #cc7af4"/>
    </g>
    <g clip-path="url(#p57d19f7b4b)">
     <use xlink:href="#C4_0_a46cfb5c42" x="489.601261" y="360.082737" style="fill: #cc7af4"/>
    </g>
    <g clip-path="url(#p57d19f7b4b)">
     <use xlink:href="#C4_0_a46cfb5c42" x="583.767108" y="347.696929" style="fill: #cc7af4"/>
    </g>
    <g clip-path="url(#p57d19f7b4b)">
     <use xlink:href="#C4_0_a46cfb5c42" x="348.903644" y="357.743175" style="fill: #cc7af4"/>
    </g>
    <g clip-path="url(#p57d19f7b4b)">
     <use xlink:href="#C4_0_a46cfb5c42" x="369.560391" y="356.37815" style="fill: #cc7af4"/>
    </g>
    <g clip-path="url(#p57d19f7b4b)">
     <use xlink:href="#C4_0_a46cfb5c42" x="267.452546" y="360.190383" style="fill: #cc7af4"/>
    </g>
    <g clip-path="url(#p57d19f7b4b)">
     <use xlink:href="#C4_0_a46cfb5c42" x="527.313729" y="349.887089" style="fill: #cc7af4"/>
    </g>
    <g clip-path="url(#p57d19f7b4b)">
     <use xlink:href="#C4_0_a46cfb5c42" x="410.291465" y="360.664309" style="fill: #cc7af4"/>
    </g>
    <g clip-path="url(#p57d19f7b4b)">
     <use xlink:href="#C4_0_a46cfb5c42" x="342.39588" y="353.752735" style="fill: #cc7af4"/>
    </g>
    <g clip-path="url(#p57d19f7b4b)">
     <use xlink:href="#C4_0_a46cfb5c42" x="456.700482" y="355.956246" style="fill: #cc7af4"/>
    </g>
    <g clip-path="url(#p57d19f7b4b)">
     <use xlink:href="#C4_0_a46cfb5c42" x="412.564669" y="353.309005" style="fill: #cc7af4"/>
    </g>
    <g clip-path="url(#p57d19f7b4b)">
     <use xlink:href="#C4_0_a46cfb5c42" x="433.537264" y="355.813132" style="fill: #cc7af4"/>
    </g>
    <g clip-path="url(#p57d19f7b4b)">
     <use xlink:href="#C4_0_a46cfb5c42" x="139.301845" y="347.846426" style="fill: #cc7af4"/>
    </g>
    <g clip-path="url(#p57d19f7b4b)">
     <use xlink:href="#C4_0_a46cfb5c42" x="132.855" y="355.41583" style="fill: #cc7af4"/>
    </g>
    <g clip-path="url(#p57d19f7b4b)">
     <use xlink:href="#C4_0_a46cfb5c42" x="157.828031" y="347.124717" style="fill: #cc7af4"/>
    </g>
    <g clip-path="url(#p57d19f7b4b)">
     <use xlink:href="#C4_0_a46cfb5c42" x="291.95461" y="353.777359" style="fill: #cc7af4"/>
    </g>
    <g clip-path="url(#p57d19f7b4b)">
     <use xlink:href="#C4_0_a46cfb5c42" x="256.935796" y="358.515619" style="fill: #cc7af4"/>
    </g>
    <g clip-path="url(#p57d19f7b4b)">
     <use xlink:href="#C4_0_a46cfb5c42" x="281.800065" y="347.359316" style="fill: #cc7af4"/>
    </g>
    <g clip-path="url(#p57d19f7b4b)">
     <use xlink:href="#C4_0_a46cfb5c42" x="322.387697" y="347.781259" style="fill: #cc7af4"/>
    </g>
    <g clip-path="url(#p57d19f7b4b)">
     <use xlink:href="#C4_0_a46cfb5c42" x="534.248881" y="352.769922" style="fill: #cc7af4"/>
    </g>
    <g clip-path="url(#p57d19f7b4b)">
     <use xlink:href="#C4_0_a46cfb5c42" x="260.932379" y="347.15377" style="fill: #cc7af4"/>
    </g>
    <g clip-path="url(#p57d19f7b4b)">
     <use xlink:href="#C4_0_a46cfb5c42" x="154.476958" y="350.889858" style="fill: #cc7af4"/>
    </g>
    <g clip-path="url(#p57d19f7b4b)">
     <use xlink:href="#C4_0_a46cfb5c42" x="151.232141" y="358.505077" style="fill: #cc7af4"/>
    </g>
    <g clip-path="url(#p57d19f7b4b)">
     <use xlink:href="#C4_0_a46cfb5c42" x="171.842441" y="357.365955" style="fill: #cc7af4"/>
    </g>
    <g clip-path="url(#p57d19f7b4b)">
     <use xlink:href="#C4_0_a46cfb5c42" x="349.622245" y="354.806186" style="fill: #cc7af4"/>
    </g>
    <g clip-path="url(#p57d19f7b4b)">
     <use xlink:href="#C4_0_a46cfb5c42" x="351.698187" y="350.407749" style="fill: #cc7af4"/>
    </g>
    <g clip-path="url(#p57d19f7b4b)">
     <use xlink:href="#C4_0_a46cfb5c42" x="332.573325" y="358.297092" style="fill: #cc7af4"/>
    </g>
    <g clip-path="url(#p57d19f7b4b)">
     <use xlink:href="#C4_0_a46cfb5c42" x="500.294905" y="355.488367" style="fill: #cc7af4"/>
    </g>
    <g clip-path="url(#p57d19f7b4b)">
     <use xlink:href="#C4_0_a46cfb5c42" x="477.92948" y="350.112483" style="fill: #cc7af4"/>
    </g>
    <g clip-path="url(#p57d19f7b4b)">
     <use xlink:href="#C4_0_a46cfb5c42" x="681.755" y="348.865336" style="fill: #cc7af4"/>
    </g>
   </g>
   <g id="PolyCollection_1">
    <defs>
     <path id="md4a7e87dde" d="M 135.483914 -385.560578 
L 135.483914 -387.774084 
L 139.732351 -387.724996 
L 143.980788 -387.581184 
L 148.229224 -387.367886 
L 152.477661 -387.121618 
L 156.726098 -386.884739 
L 160.974534 -386.700131 
L 165.222971 -386.607061 
L 169.471407 -386.638487 
L 173.719844 -386.819254 
L 177.968281 -387.164399 
L 182.216717 -387.677076 
L 186.465154 -388.34634 
L 190.713591 -389.145694 
L 194.962027 -390.033543 
L 199.210464 -390.956297 
L 203.4589 -391.853999 
L 207.707337 -392.667452 
L 211.955774 -393.345316 
L 216.20421 -393.84971 
L 220.452647 -394.159486 
L 224.701084 -394.271015 
L 228.94952 -394.196911 
L 233.197957 -393.963227 
L 237.446393 -393.605706 
L 241.69483 -393.165569 
L 245.943267 -392.685436 
L 250.191703 -392.205999 
L 254.44014 -391.763972 
L 258.688576 -391.391319 
L 262.937013 -391.115131 
L 267.18545 -390.956979 
L 271.433886 -390.930702 
L 275.682323 -391.038336 
L 279.93076 -391.265304 
L 284.179196 -391.577067 
L 288.427633 -391.919835 
L 292.676069 -392.226962 
L 296.924506 -392.430702 
L 301.172943 -392.476755 
L 305.421379 -392.337562 
L 309.669816 -392.020237 
L 313.918253 -391.566596 
L 318.166689 -391.045244 
L 322.415126 -390.538212 
L 326.663562 -390.126219 
L 330.911999 -389.87675 
L 335.160436 -389.837788 
L 339.408872 -390.037856 
L 343.657309 -390.490712 
L 347.905746 -391.201548 
L 352.154182 -392.171248 
L 356.402619 -393.396349 
L 360.651055 -394.864323 
L 364.899492 -396.545973 
L 369.147929 -398.388204 
L 373.396365 -400.310684 
L 377.644802 -402.208829 
L 381.893239 -403.963472 
L 386.141675 -405.455503 
L 390.390112 -406.582212 
L 394.638548 -407.271711 
L 398.886985 -407.49253 
L 403.135422 -407.256836 
L 407.383858 -406.617178 
L 411.632295 -405.657764 
L 415.880732 -404.481899 
L 420.129168 -403.197466 
L 424.377605 -401.902481 
L 428.626041 -400.67278 
L 432.874478 -399.553756 
L 437.122915 -398.557605 
L 441.371351 -397.666574 
L 445.619788 -396.841532 
L 449.868224 -396.033969 
L 454.116661 -395.198763 
L 458.365098 -394.304951 
L 462.613534 -393.342336 
L 466.861971 -392.322876 
L 471.110408 -391.277095 
L 475.358844 -390.246875 
L 479.607281 -389.276678 
L 483.855717 -388.405383 
L 488.104154 -387.660466 
L 492.352591 -387.055483 
L 496.601027 -386.590849 
L 500.849464 -386.257146 
L 505.097901 -386.039669 
L 509.346337 -385.922861 
L 513.594774 -385.893507 
L 517.84321 -385.941999 
L 522.091647 -386.061513 
L 526.340084 -386.245486 
L 530.58852 -386.484237 
L 534.836957 -386.761921 
L 539.085394 -387.055052 
L 543.33383 -387.333515 
L 547.582267 -387.564277 
L 551.830703 -387.717073 
L 556.07914 -387.770548 
L 556.07914 -385.560578 
L 556.07914 -385.560578 
L 551.830703 -385.560578 
L 547.582267 -385.560578 
L 543.33383 -385.560578 
L 539.085394 -385.560578 
L 534.836957 -385.560578 
L 530.58852 -385.560578 
L 526.340084 -385.560578 
L 522.091647 -385.560578 
L 517.84321 -385.560578 
L 513.594774 -385.560578 
L 509.346337 -385.560578 
L 505.097901 -385.560578 
L 500.849464 -385.560578 
L 496.601027 -385.560578 
L 492.352591 -385.560578 
L 488.104154 -385.560578 
L 483.855717 -385.560578 
L 479.607281 -385.560578 
L 475.358844 -385.560578 
L 471.110408 -385.560578 
L 466.861971 -385.560578 
L 462.613534 -385.560578 
L 458.365098 -385.560578 
L 454.116661 -385.560578 
L 449.868224 -385.560578 
L 445.619788 -385.560578 
L 441.371351 -385.560578 
L 437.122915 -385.560578 
L 432.874478 -385.560578 
L 428.626041 -385.560578 
L 424.377605 -385.560578 
L 420.129168 -385.560578 
L 415.880732 -385.560578 
L 411.632295 -385.560578 
L 407.383858 -385.560578 
L 403.135422 -385.560578 
L 398.886985 -385.560578 
L 394.638548 -385.560578 
L 390.390112 -385.560578 
L 386.141675 -385.560578 
L 381.893239 -385.560578 
L 377.644802 -385.560578 
L 373.396365 -385.560578 
L 369.147929 -385.560578 
L 364.899492 -385.560578 
L 360.651055 -385.560578 
L 356.402619 -385.560578 
L 352.154182 -385.560578 
L 347.905746 -385.560578 
L 343.657309 -385.560578 
L 339.408872 -385.560578 
L 335.160436 -385.560578 
L 330.911999 -385.560578 
L 326.663562 -385.560578 
L 322.415126 -385.560578 
L 318.166689 -385.560578 
L 313.918253 -385.560578 
L 309.669816 -385.560578 
L 305.421379 -385.560578 
L 301.172943 -385.560578 
L 296.924506 -385.560578 
L 292.676069 -385.560578 
L 288.427633 -385.560578 
L 284.179196 -385.560578 
L 279.93076 -385.560578 
L 275.682323 -385.560578 
L 271.433886 -385.560578 
L 267.18545 -385.560578 
L 262.937013 -385.560578 
L 258.688576 -385.560578 
L 254.44014 -385.560578 
L 250.191703 -385.560578 
L 245.943267 -385.560578 
L 241.69483 -385.560578 
L 237.446393 -385.560578 
L 233.197957 -385.560578 
L 228.94952 -385.560578 
L 224.701084 -385.560578 
L 220.452647 -385.560578 
L 216.20421 -385.560578 
L 211.955774 -385.560578 
L 207.707337 -385.560578 
L 203.4589 -385.560578 
L 199.210464 -385.560578 
L 194.962027 -385.560578 
L 190.713591 -385.560578 
L 186.465154 -385.560578 
L 182.216717 -385.560578 
L 177.968281 -385.560578 
L 173.719844 -385.560578 
L 169.471407 -385.560578 
L 165.222971 -385.560578 
L 160.974534 -385.560578 
L 156.726098 -385.560578 
L 152.477661 -385.560578 
L 148.229224 -385.560578 
L 143.980788 -385.560578 
L 139.732351 -385.560578 
L 135.483914 -385.560578 
z
" style="stroke: #434343; stroke-opacity: 0.65"/>
    </defs>
    <g clip-path="url(#p57d19f7b4b)">
     <use xlink:href="#md4a7e87dde" x="0" y="432" style="fill: #e68193; fill-opacity: 0.65; stroke: #434343; stroke-opacity: 0.65"/>
    </g>
   </g>
   <g id="PolyCollection_2">
    <defs>
     <path id="m74b3fc3b62" d="M 141.538259 -312.454072 
L 141.538259 -316.470538 
L 145.403662 -316.8591 
L 149.269065 -317.229595 
L 153.134467 -317.580326 
L 156.99987 -317.911797 
L 160.865272 -318.226082 
L 164.730675 -318.525927 
L 168.596078 -318.81371 
L 172.46148 -319.090425 
L 176.326883 -319.354845 
L 180.192285 -319.602982 
L 184.057688 -319.827943 
L 187.923091 -320.020223 
L 191.788493 -320.168454 
L 195.653896 -320.260556 
L 199.519299 -320.285196 
L 203.384701 -320.233396 
L 207.250104 -320.100086 
L 211.115506 -319.885353 
L 214.980909 -319.595174 
L 218.846312 -319.241438 
L 222.711714 -318.841182 
L 226.577117 -318.415095 
L 230.442519 -317.985469 
L 234.307922 -317.57389 
L 238.173325 -317.199021 
L 242.038727 -316.874811 
L 245.90413 -316.609398 
L 249.769532 -316.404836 
L 253.634935 -316.257647 
L 257.500338 -316.160049 
L 261.36574 -316.101629 
L 265.231143 -316.071179 
L 269.096546 -316.058413 
L 272.961948 -316.05533 
L 276.827351 -316.057061 
L 280.692753 -316.062115 
L 284.558156 -316.072026 
L 288.423559 -316.09048 
L 292.288961 -316.122082 
L 296.154364 -316.170963 
L 300.019766 -316.239495 
L 303.885169 -316.327366 
L 307.750572 -316.43122 
L 311.615974 -316.545005 
L 315.481377 -316.661018 
L 319.34678 -316.771494 
L 323.212182 -316.870452 
L 327.077585 -316.955414 
L 330.942987 -317.028619 
L 334.80839 -317.097389 
L 338.673793 -317.173507 
L 342.539195 -317.271618 
L 346.404598 -317.406899 
L 350.27 -317.592389 
L 354.135403 -317.836473 
L 358.000806 -318.140984 
L 361.866208 -318.500288 
L 365.731611 -318.901573 
L 369.597013 -319.3263 
L 373.462416 -319.752628 
L 377.327819 -320.158425 
L 381.193221 -320.524427 
L 385.058624 -320.837054 
L 388.924027 -321.0905 
L 392.789429 -321.287816 
L 396.654832 -321.440853 
L 400.520234 -321.569134 
L 404.385637 -321.697803 
L 408.25104 -321.854944 
L 412.116442 -322.068567 
L 415.981845 -322.363567 
L 419.847247 -322.758913 
L 423.71265 -323.265234 
L 427.578053 -323.882967 
L 431.443455 -324.601156 
L 435.308858 -325.397013 
L 439.174261 -326.236389 
L 443.039663 -327.075277 
L 446.905066 -327.862449 
L 450.770468 -328.543228 
L 454.635871 -329.064216 
L 458.501274 -329.378561 
L 462.366676 -329.451176 
L 466.232079 -329.263144 
L 470.097481 -328.81456 
L 473.962884 -328.125223 
L 477.828287 -327.232884 
L 481.693689 -326.189178 
L 485.559092 -325.053777 
L 489.424494 -323.887626 
L 493.289897 -322.746304 
L 497.1553 -321.674517 
L 501.020702 -320.702494 
L 504.886105 -319.844708 
L 508.751508 -319.100913 
L 512.61691 -318.459078 
L 516.482313 -317.899554 
L 520.347715 -317.399632 
L 524.213118 -316.937723 
L 524.213118 -312.454072 
L 524.213118 -312.454072 
L 520.347715 -312.454072 
L 516.482313 -312.454072 
L 512.61691 -312.454072 
L 508.751508 -312.454072 
L 504.886105 -312.454072 
L 501.020702 -312.454072 
L 497.1553 -312.454072 
L 493.289897 -312.454072 
L 489.424494 -312.454072 
L 485.559092 -312.454072 
L 481.693689 -312.454072 
L 477.828287 -312.454072 
L 473.962884 -312.454072 
L 470.097481 -312.454072 
L 466.232079 -312.454072 
L 462.366676 -312.454072 
L 458.501274 -312.454072 
L 454.635871 -312.454072 
L 450.770468 -312.454072 
L 446.905066 -312.454072 
L 443.039663 -312.454072 
L 439.174261 -312.454072 
L 435.308858 -312.454072 
L 431.443455 -312.454072 
L 427.578053 -312.454072 
L 423.71265 -312.454072 
L 419.847247 -312.454072 
L 415.981845 -312.454072 
L 412.116442 -312.454072 
L 408.25104 -312.454072 
L 404.385637 -312.454072 
L 400.520234 -312.454072 
L 396.654832 -312.454072 
L 392.789429 -312.454072 
L 388.924027 -312.454072 
L 385.058624 -312.454072 
L 381.193221 -312.454072 
L 377.327819 -312.454072 
L 373.462416 -312.454072 
L 369.597013 -312.454072 
L 365.731611 -312.454072 
L 361.866208 -312.454072 
L 358.000806 -312.454072 
L 354.135403 -312.454072 
L 350.27 -312.454072 
L 346.404598 -312.454072 
L 342.539195 -312.454072 
L 338.673793 -312.454072 
L 334.80839 -312.454072 
L 330.942987 -312.454072 
L 327.077585 -312.454072 
L 323.212182 -312.454072 
L 319.34678 -312.454072 
L 315.481377 -312.454072 
L 311.615974 -312.454072 
L 307.750572 -312.454072 
L 303.885169 -312.454072 
L 300.019766 -312.454072 
L 296.154364 -312.454072 
L 292.288961 -312.454072 
L 288.423559 -312.454072 
L 284.558156 -312.454072 
L 280.692753 -312.454072 
L 276.827351 -312.454072 
L 272.961948 -312.454072 
L 269.096546 -312.454072 
L 265.231143 -312.454072 
L 261.36574 -312.454072 
L 257.500338 -312.454072 
L 253.634935 -312.454072 
L 249.769532 -312.454072 
L 245.90413 -312.454072 
L 242.038727 -312.454072 
L 238.173325 -312.454072 
L 234.307922 -312.454072 
L 230.442519 -312.454072 
L 226.577117 -312.454072 
L 222.711714 -312.454072 
L 218.846312 -312.454072 
L 214.980909 -312.454072 
L 211.115506 -312.454072 
L 207.250104 -312.454072 
L 203.384701 -312.454072 
L 199.519299 -312.454072 
L 195.653896 -312.454072 
L 191.788493 -312.454072 
L 187.923091 -312.454072 
L 184.057688 -312.454072 
L 180.192285 -312.454072 
L 176.326883 -312.454072 
L 172.46148 -312.454072 
L 168.596078 -312.454072 
L 164.730675 -312.454072 
L 160.865272 -312.454072 
L 156.99987 -312.454072 
L 153.134467 -312.454072 
L 149.269065 -312.454072 
L 145.403662 -312.454072 
L 141.538259 -312.454072 
z
" style="stroke: #434343; stroke-opacity: 0.65"/>
    </defs>
    <g clip-path="url(#p57d19f7b4b)">
     <use xlink:href="#m74b3fc3b62" x="0" y="432" style="fill: #9e9241; fill-opacity: 0.65; stroke: #434343; stroke-opacity: 0.65"/>
    </g>
   </g>
   <g id="PolyCollection_3">
    <defs>
     <path id="md9d6dfe3e9" d="M 147.696834 -239.347566 
L 147.696834 -243.484453 
L 151.144994 -243.815091 
L 154.593155 -244.106381 
L 158.041316 -244.361038 
L 161.489476 -244.587502 
L 164.937637 -244.799188 
L 168.385797 -245.01302 
L 171.833958 -245.247381 
L 175.282119 -245.519685 
L 178.730279 -245.843793 
L 182.17844 -246.227553 
L 185.626601 -246.670743 
L 189.074761 -247.163709 
L 192.522922 -247.686972 
L 195.971082 -248.212015 
L 199.419243 -248.703361 
L 202.867404 -249.121856 
L 206.315564 -249.428874 
L 209.763725 -249.590961 
L 213.211886 -249.584249 
L 216.660046 -249.39794 
L 220.108207 -249.036243 
L 223.556367 -248.518359 
L 227.004528 -247.876437 
L 230.452689 -247.151801 
L 233.900849 -246.390033 
L 237.34901 -245.635743 
L 240.797171 -244.927859 
L 244.245331 -244.296178 
L 247.693492 -243.759623 
L 251.141652 -243.326334 
L 254.589813 -242.995337 
L 258.037974 -242.759293 
L 261.486134 -242.607641 
L 264.934295 -242.529454 
L 268.382456 -242.515459 
L 271.830616 -242.558925 
L 275.278777 -242.655387 
L 278.726938 -242.801479 
L 282.175098 -242.993325 
L 285.623259 -243.225018 
L 289.071419 -243.48767 
L 292.51958 -243.769317 
L 295.967741 -244.05575 
L 299.415901 -244.332084 
L 302.864062 -244.584672 
L 306.312223 -244.802915 
L 309.760383 -244.980555 
L 313.208544 -245.116161 
L 316.656704 -245.212785 
L 320.104865 -245.276929 
L 323.553026 -245.317166 
L 327.001186 -245.342795 
L 330.449347 -245.362893 
L 333.897508 -245.385981 
L 337.345668 -245.420344 
L 340.793829 -245.474856 
L 344.241989 -245.560015 
L 347.69015 -245.688805 
L 351.138311 -245.876995 
L 354.586471 -246.142589 
L 358.034632 -246.50427 
L 361.482793 -246.978917 
L 364.930953 -247.578492 
L 368.379114 -248.306791 
L 371.827274 -249.156723 
L 375.275435 -250.108754 
L 378.723596 -251.131088 
L 382.171756 -252.181819 
L 385.619917 -253.212968 
L 389.068078 -254.175851 
L 392.516238 -255.026921 
L 395.964399 -255.733014 
L 399.412559 -256.275002 
L 402.86072 -256.649135 
L 406.308881 -256.865805 
L 409.757041 -256.946043 
L 413.205202 -256.916487 
L 416.653363 -256.803888 
L 420.101523 -256.630247 
L 423.549684 -256.409469 
L 426.997845 -256.146046 
L 430.446005 -255.835809 
L 433.894166 -255.468366 
L 437.342326 -255.030577 
L 440.790487 -254.510283 
L 444.238648 -253.899592 
L 447.686808 -253.197174 
L 451.134969 -252.409308 
L 454.58313 -251.549614 
L 458.03129 -250.637676 
L 461.479451 -249.696838 
L 464.927611 -248.751612 
L 468.375772 -247.825091 
L 471.823933 -246.936766 
L 475.272093 -246.101037 
L 478.720254 -245.326584 
L 482.168415 -244.616612 
L 485.616575 -243.969827 
L 489.064736 -243.381894 
L 489.064736 -239.347566 
L 489.064736 -239.347566 
L 485.616575 -239.347566 
L 482.168415 -239.347566 
L 478.720254 -239.347566 
L 475.272093 -239.347566 
L 471.823933 -239.347566 
L 468.375772 -239.347566 
L 464.927611 -239.347566 
L 461.479451 -239.347566 
L 458.03129 -239.347566 
L 454.58313 -239.347566 
L 451.134969 -239.347566 
L 447.686808 -239.347566 
L 444.238648 -239.347566 
L 440.790487 -239.347566 
L 437.342326 -239.347566 
L 433.894166 -239.347566 
L 430.446005 -239.347566 
L 426.997845 -239.347566 
L 423.549684 -239.347566 
L 420.101523 -239.347566 
L 416.653363 -239.347566 
L 413.205202 -239.347566 
L 409.757041 -239.347566 
L 406.308881 -239.347566 
L 402.86072 -239.347566 
L 399.412559 -239.347566 
L 395.964399 -239.347566 
L 392.516238 -239.347566 
L 389.068078 -239.347566 
L 385.619917 -239.347566 
L 382.171756 -239.347566 
L 378.723596 -239.347566 
L 375.275435 -239.347566 
L 371.827274 -239.347566 
L 368.379114 -239.347566 
L 364.930953 -239.347566 
L 361.482793 -239.347566 
L 358.034632 -239.347566 
L 354.586471 -239.347566 
L 351.138311 -239.347566 
L 347.69015 -239.347566 
L 344.241989 -239.347566 
L 340.793829 -239.347566 
L 337.345668 -239.347566 
L 333.897508 -239.347566 
L 330.449347 -239.347566 
L 327.001186 -239.347566 
L 323.553026 -239.347566 
L 320.104865 -239.347566 
L 316.656704 -239.347566 
L 313.208544 -239.347566 
L 309.760383 -239.347566 
L 306.312223 -239.347566 
L 302.864062 -239.347566 
L 299.415901 -239.347566 
L 295.967741 -239.347566 
L 292.51958 -239.347566 
L 289.071419 -239.347566 
L 285.623259 -239.347566 
L 282.175098 -239.347566 
L 278.726938 -239.347566 
L 275.278777 -239.347566 
L 271.830616 -239.347566 
L 268.382456 -239.347566 
L 264.934295 -239.347566 
L 261.486134 -239.347566 
L 258.037974 -239.347566 
L 254.589813 -239.347566 
L 251.141652 -239.347566 
L 247.693492 -239.347566 
L 244.245331 -239.347566 
L 240.797171 -239.347566 
L 237.34901 -239.347566 
L 233.900849 -239.347566 
L 230.452689 -239.347566 
L 227.004528 -239.347566 
L 223.556367 -239.347566 
L 220.108207 -239.347566 
L 216.660046 -239.347566 
L 213.211886 -239.347566 
L 209.763725 -239.347566 
L 206.315564 -239.347566 
L 202.867404 -239.347566 
L 199.419243 -239.347566 
L 195.971082 -239.347566 
L 192.522922 -239.347566 
L 189.074761 -239.347566 
L 185.626601 -239.347566 
L 182.17844 -239.347566 
L 178.730279 -239.347566 
L 175.282119 -239.347566 
L 171.833958 -239.347566 
L 168.385797 -239.347566 
L 164.937637 -239.347566 
L 161.489476 -239.347566 
L 158.041316 -239.347566 
L 154.593155 -239.347566 
L 151.144994 -239.347566 
L 147.696834 -239.347566 
z
" style="stroke: #434343; stroke-opacity: 0.65"/>
    </defs>
    <g clip-path="url(#p57d19f7b4b)">
     <use xlink:href="#md9d6dfe3e9" x="0" y="432" style="fill: #43a178; fill-opacity: 0.65; stroke: #434343; stroke-opacity: 0.65"/>
    </g>
   </g>
   <g id="PolyCollection_4">
    <defs>
     <path id="mae7c1e80d7" d="M 186.272469 -166.24106 
L 186.272469 -173.299271 
L 189.105449 -173.840828 
L 191.93843 -174.30985 
L 194.771411 -174.702464 
L 197.604391 -175.019964 
L 200.437372 -175.267228 
L 203.270353 -175.450584 
L 206.103333 -175.575591 
L 208.936314 -175.645281 
L 211.769295 -175.65927 
L 214.602275 -175.613996 
L 217.435256 -175.504054 
L 220.268236 -175.324345 
L 223.101217 -175.072533 
L 225.934198 -174.751252 
L 228.767178 -174.369535 
L 231.600159 -173.9431 
L 234.43314 -173.493414 
L 237.26612 -173.045683 
L 240.099101 -172.626155 
L 242.932082 -172.259219 
L 245.765062 -171.964786 
L 248.598043 -171.756346 
L 251.431024 -171.639912 
L 254.264004 -171.613885 
L 257.096985 -171.669732 
L 259.929966 -171.793256 
L 262.762946 -171.966226 
L 265.595927 -172.168161 
L 268.428907 -172.378082 
L 271.261888 -172.576153 
L 274.094869 -172.745124 
L 276.927849 -172.871526 
L 279.76083 -172.946559 
L 282.593811 -172.966634 
L 285.426791 -172.93349 
L 288.259772 -172.853878 
L 291.092753 -172.738827 
L 293.925733 -172.602538 
L 296.758714 -172.461021 
L 299.591695 -172.330598 
L 302.424675 -172.226422 
L 305.257656 -172.161163 
L 308.090637 -172.143964 
L 310.923617 -172.179804 
L 313.756598 -172.269327 
L 316.589578 -172.409167 
L 319.422559 -172.59276 
L 322.25554 -172.811548 
L 325.08852 -173.056415 
L 327.921501 -173.319145 
L 330.754482 -173.593669 
L 333.587462 -173.876875 
L 336.420443 -174.168841 
L 339.253424 -174.472451 
L 342.086404 -174.792457 
L 344.919385 -175.134189 
L 347.752366 -175.502145 
L 350.585346 -175.898729 
L 353.418327 -176.323339 
L 356.251308 -176.77193 
L 359.084288 -177.237096 
L 361.917269 -177.708591 
L 364.750249 -178.174197 
L 367.58323 -178.620801 
L 370.416211 -179.035577 
L 373.249191 -179.407161 
L 376.082172 -179.726755 
L 378.915153 -179.989078 
L 381.748133 -180.193057 
L 384.581114 -180.342159 
L 387.414095 -180.444253 
L 390.247075 -180.510929 
L 393.080056 -180.556294 
L 395.913037 -180.595366 
L 398.746017 -180.642283 
L 401.578998 -180.708647 
L 404.411979 -180.802282 
L 407.244959 -180.926655 
L 410.07794 -181.081037 
L 412.91092 -181.261287 
L 415.743901 -181.461028 
L 418.576882 -181.672811 
L 421.409862 -181.888934 
L 424.242843 -182.101649 
L 427.075824 -182.302693 
L 429.908804 -182.482326 
L 432.741785 -182.628207 
L 435.574766 -182.724581 
L 438.407746 -182.752174 
L 441.240727 -182.689077 
L 444.073708 -182.512638 
L 446.906688 -182.202128 
L 449.739669 -181.741733 
L 452.57265 -181.123315 
L 455.40563 -180.348406 
L 458.238611 -179.429034 
L 461.071591 -178.387222 
L 463.904572 -177.253237 
L 466.737553 -176.062878 
L 466.737553 -166.24106 
L 466.737553 -166.24106 
L 463.904572 -166.24106 
L 461.071591 -166.24106 
L 458.238611 -166.24106 
L 455.40563 -166.24106 
L 452.57265 -166.24106 
L 449.739669 -166.24106 
L 446.906688 -166.24106 
L 444.073708 -166.24106 
L 441.240727 -166.24106 
L 438.407746 -166.24106 
L 435.574766 -166.24106 
L 432.741785 -166.24106 
L 429.908804 -166.24106 
L 427.075824 -166.24106 
L 424.242843 -166.24106 
L 421.409862 -166.24106 
L 418.576882 -166.24106 
L 415.743901 -166.24106 
L 412.91092 -166.24106 
L 410.07794 -166.24106 
L 407.244959 -166.24106 
L 404.411979 -166.24106 
L 401.578998 -166.24106 
L 398.746017 -166.24106 
L 395.913037 -166.24106 
L 393.080056 -166.24106 
L 390.247075 -166.24106 
L 387.414095 -166.24106 
L 384.581114 -166.24106 
L 381.748133 -166.24106 
L 378.915153 -166.24106 
L 376.082172 -166.24106 
L 373.249191 -166.24106 
L 370.416211 -166.24106 
L 367.58323 -166.24106 
L 364.750249 -166.24106 
L 361.917269 -166.24106 
L 359.084288 -166.24106 
L 356.251308 -166.24106 
L 353.418327 -166.24106 
L 350.585346 -166.24106 
L 347.752366 -166.24106 
L 344.919385 -166.24106 
L 342.086404 -166.24106 
L 339.253424 -166.24106 
L 336.420443 -166.24106 
L 333.587462 -166.24106 
L 330.754482 -166.24106 
L 327.921501 -166.24106 
L 325.08852 -166.24106 
L 322.25554 -166.24106 
L 319.422559 -166.24106 
L 316.589578 -166.24106 
L 313.756598 -166.24106 
L 310.923617 -166.24106 
L 308.090637 -166.24106 
L 305.257656 -166.24106 
L 302.424675 -166.24106 
L 299.591695 -166.24106 
L 296.758714 -166.24106 
L 293.925733 -166.24106 
L 291.092753 -166.24106 
L 288.259772 -166.24106 
L 285.426791 -166.24106 
L 282.593811 -166.24106 
L 279.76083 -166.24106 
L 276.927849 -166.24106 
L 274.094869 -166.24106 
L 271.261888 -166.24106 
L 268.428907 -166.24106 
L 265.595927 -166.24106 
L 262.762946 -166.24106 
L 259.929966 -166.24106 
L 257.096985 -166.24106 
L 254.264004 -166.24106 
L 251.431024 -166.24106 
L 248.598043 -166.24106 
L 245.765062 -166.24106 
L 242.932082 -166.24106 
L 240.099101 -166.24106 
L 237.26612 -166.24106 
L 234.43314 -166.24106 
L 231.600159 -166.24106 
L 228.767178 -166.24106 
L 225.934198 -166.24106 
L 223.101217 -166.24106 
L 220.268236 -166.24106 
L 217.435256 -166.24106 
L 214.602275 -166.24106 
L 211.769295 -166.24106 
L 208.936314 -166.24106 
L 206.103333 -166.24106 
L 203.270353 -166.24106 
L 200.437372 -166.24106 
L 197.604391 -166.24106 
L 194.771411 -166.24106 
L 191.93843 -166.24106 
L 189.105449 -166.24106 
L 186.272469 -166.24106 
z
" style="stroke: #434343; stroke-opacity: 0.65"/>
    </defs>
    <g clip-path="url(#p57d19f7b4b)">
     <use xlink:href="#mae7c1e80d7" x="0" y="432" style="fill: #4a9eb4; fill-opacity: 0.65; stroke: #434343; stroke-opacity: 0.65"/>
    </g>
   </g>
   <g id="PolyCollection_5">
    <defs>
     <path id="mba56e20d3b" d="M 132.855 -93.134554 
L 132.855 -99.682459 
L 138.399444 -100.259822 
L 143.943889 -100.657684 
L 149.488333 -100.842755 
L 155.032778 -100.799913 
L 160.577222 -100.534622 
L 166.121667 -100.072556 
L 171.666111 -99.45657 
L 177.210556 -98.741631 
L 182.755 -97.988705 
L 188.299444 -97.258612 
L 193.843889 -96.606727 
L 199.388333 -96.079057 
L 204.932778 -95.709782 
L 210.477222 -95.520061 
L 216.021667 -95.517716 
L 221.566111 -95.697455 
L 227.110556 -96.041488 
L 232.655 -96.520653 
L 238.199444 -97.0963 
L 243.743889 -97.723245 
L 249.288333 -98.353882 
L 254.832778 -98.943229 
L 260.377222 -99.454311 
L 265.921667 -99.863012 
L 271.466111 -100.161408 
L 277.010556 -100.358782 
L 282.555 -100.479865 
L 288.099444 -100.56036 
L 293.643889 -100.640363 
L 299.188333 -100.756721 
L 304.732778 -100.93568 
L 310.277222 -101.187194 
L 315.821667 -101.502053 
L 321.366111 -101.852534 
L 326.910556 -102.19662 
L 332.455 -102.485146 
L 337.999444 -102.670601 
L 343.543889 -102.715899 
L 349.088333 -102.601391 
L 354.632778 -102.32869 
L 360.177222 -101.920534 
L 365.721667 -101.416745 
L 371.266111 -100.867181 
L 376.810556 -100.323209 
L 382.355 -99.829485 
L 387.899444 -99.417694 
L 393.443889 -99.103359 
L 398.988333 -98.886093 
L 404.532778 -98.752856 
L 410.077222 -98.683164 
L 415.621667 -98.654869 
L 421.166111 -98.649172 
L 426.710556 -98.653876 
L 432.255 -98.664459 
L 437.799444 -98.683085 
L 443.343889 -98.71617 
L 448.888333 -98.771331 
L 454.432778 -98.854544 
L 459.977222 -98.96815 
L 465.521667 -99.109987 
L 471.066111 -99.273597 
L 476.610556 -99.44918 
L 482.155 -99.624821 
L 487.699444 -99.787581 
L 493.243889 -99.924195 
L 498.788333 -100.021415 
L 504.332778 -100.066259 
L 509.877222 -100.046511 
L 515.421667 -99.951782 
L 520.966111 -99.775115 
L 526.510556 -99.514847 
L 532.055 -99.176113 
L 537.599444 -98.771353 
L 543.143889 -98.319369 
L 548.688333 -97.842921 
L 554.232778 -97.365295 
L 559.777222 -96.906715 
L 565.321667 -96.481493 
L 570.866111 -96.09667 
L 576.410556 -95.752407 
L 581.955 -95.44389 
L 587.499444 -95.16411 
L 593.043889 -94.906685 
L 598.588333 -94.668022 
L 604.132778 -94.448358 
L 609.677222 -94.251627 
L 615.221667 -94.084371 
L 620.766111 -93.954107 
L 626.310556 -93.867549 
L 631.855 -93.829026 
L 637.399444 -93.839298 
L 642.943889 -93.894857 
L 648.488333 -93.98778 
L 654.032778 -94.106147 
L 659.577222 -94.235031 
L 665.121667 -94.358026 
L 670.666111 -94.459148 
L 676.210556 -94.524856 
L 681.755 -94.545842 
L 681.755 -93.134554 
L 681.755 -93.134554 
L 676.210556 -93.134554 
L 670.666111 -93.134554 
L 665.121667 -93.134554 
L 659.577222 -93.134554 
L 654.032778 -93.134554 
L 648.488333 -93.134554 
L 642.943889 -93.134554 
L 637.399444 -93.134554 
L 631.855 -93.134554 
L 626.310556 -93.134554 
L 620.766111 -93.134554 
L 615.221667 -93.134554 
L 609.677222 -93.134554 
L 604.132778 -93.134554 
L 598.588333 -93.134554 
L 593.043889 -93.134554 
L 587.499444 -93.134554 
L 581.955 -93.134554 
L 576.410556 -93.134554 
L 570.866111 -93.134554 
L 565.321667 -93.134554 
L 559.777222 -93.134554 
L 554.232778 -93.134554 
L 548.688333 -93.134554 
L 543.143889 -93.134554 
L 537.599444 -93.134554 
L 532.055 -93.134554 
L 526.510556 -93.134554 
L 520.966111 -93.134554 
L 515.421667 -93.134554 
L 509.877222 -93.134554 
L 504.332778 -93.134554 
L 498.788333 -93.134554 
L 493.243889 -93.134554 
L 487.699444 -93.134554 
L 482.155 -93.134554 
L 476.610556 -93.134554 
L 471.066111 -93.134554 
L 465.521667 -93.134554 
L 459.977222 -93.134554 
L 454.432778 -93.134554 
L 448.888333 -93.134554 
L 443.343889 -93.134554 
L 437.799444 -93.134554 
L 432.255 -93.134554 
L 426.710556 -93.134554 
L 421.166111 -93.134554 
L 415.621667 -93.134554 
L 410.077222 -93.134554 
L 404.532778 -93.134554 
L 398.988333 -93.134554 
L 393.443889 -93.134554 
L 387.899444 -93.134554 
L 382.355 -93.134554 
L 376.810556 -93.134554 
L 371.266111 -93.134554 
L 365.721667 -93.134554 
L 360.177222 -93.134554 
L 354.632778 -93.134554 
L 349.088333 -93.134554 
L 343.543889 -93.134554 
L 337.999444 -93.134554 
L 332.455 -93.134554 
L 326.910556 -93.134554 
L 321.366111 -93.134554 
L 315.821667 -93.134554 
L 310.277222 -93.134554 
L 304.732778 -93.134554 
L 299.188333 -93.134554 
L 293.643889 -93.134554 
L 288.099444 -93.134554 
L 282.555 -93.134554 
L 277.010556 -93.134554 
L 271.466111 -93.134554 
L 265.921667 -93.134554 
L 260.377222 -93.134554 
L 254.832778 -93.134554 
L 249.288333 -93.134554 
L 243.743889 -93.134554 
L 238.199444 -93.134554 
L 232.655 -93.134554 
L 227.110556 -93.134554 
L 221.566111 -93.134554 
L 216.021667 -93.134554 
L 210.477222 -93.134554 
L 204.932778 -93.134554 
L 199.388333 -93.134554 
L 193.843889 -93.134554 
L 188.299444 -93.134554 
L 182.755 -93.134554 
L 177.210556 -93.134554 
L 171.666111 -93.134554 
L 166.121667 -93.134554 
L 160.577222 -93.134554 
L 155.032778 -93.134554 
L 149.488333 -93.134554 
L 143.943889 -93.134554 
L 138.399444 -93.134554 
L 132.855 -93.134554 
z
" style="stroke: #434343; stroke-opacity: 0.65"/>
    </defs>
    <g clip-path="url(#p57d19f7b4b)">
     <use xlink:href="#mba56e20d3b" x="0" y="432" style="fill: #c789e5; fill-opacity: 0.65; stroke: #434343; stroke-opacity: 0.65"/>
    </g>
   </g>
   <g id="matplotlib.axis_1">
    <g id="xtick_1">
     <g id="line2d_1">
      <defs>
       <path id="m39ee1d5239" d="M 0 0 
L 0 3.5 
" style="stroke: #000000; stroke-width: 0.8"/>
      </defs>
      <g>
       <use xlink:href="#m39ee1d5239" x="158.118527" y="390.04" style="stroke: #000000; stroke-width: 0.8"/>
      </g>
     </g>
     <g id="text_1">
      <!-- 3.5 -->
      <g transform="translate(150.166965 404.638438) scale(0.1 -0.1)">
       <defs>
        <path id="DejaVuSans-33" d="M 2597 2516 
Q 3050 2419 3304 2112 
Q 3559 1806 3559 1356 
Q 3559 666 3084 287 
Q 2609 -91 1734 -91 
Q 1441 -91 1130 -33 
Q 819 25 488 141 
L 488 750 
Q 750 597 1062 519 
Q 1375 441 1716 441 
Q 2309 441 2620 675 
Q 2931 909 2931 1356 
Q 2931 1769 2642 2001 
Q 2353 2234 1838 2234 
L 1294 2234 
L 1294 2753 
L 1863 2753 
Q 2328 2753 2575 2939 
Q 2822 3125 2822 3475 
Q 2822 3834 2567 4026 
Q 2313 4219 1838 4219 
Q 1578 4219 1281 4162 
Q 984 4106 628 3988 
L 628 4550 
Q 988 4650 1302 4700 
Q 1616 4750 1894 4750 
Q 2613 4750 3031 4423 
Q 3450 4097 3450 3541 
Q 3450 3153 3228 2886 
Q 3006 2619 2597 2516 
z
" transform="scale(0.015625)"/>
        <path id="DejaVuSans-2e" d="M 684 794 
L 1344 794 
L 1344 0 
L 684 0 
L 684 794 
z
" transform="scale(0.015625)"/>
        <path id="DejaVuSans-35" d="M 691 4666 
L 3169 4666 
L 3169 4134 
L 1269 4134 
L 1269 2991 
Q 1406 3038 1543 3061 
Q 1681 3084 1819 3084 
Q 2600 3084 3056 2656 
Q 3513 2228 3513 1497 
Q 3513 744 3044 326 
Q 2575 -91 1722 -91 
Q 1428 -91 1123 -41 
Q 819 9 494 109 
L 494 744 
Q 775 591 1075 516 
Q 1375 441 1709 441 
Q 2250 441 2565 725 
Q 2881 1009 2881 1497 
Q 2881 1984 2565 2268 
Q 2250 2553 1709 2553 
Q 1456 2553 1204 2497 
Q 953 2441 691 2322 
L 691 4666 
z
" transform="scale(0.015625)"/>
       </defs>
       <use xlink:href="#DejaVuSans-33"/>
       <use xlink:href="#DejaVuSans-2e" x="63.623047"/>
       <use xlink:href="#DejaVuSans-35" x="95.410156"/>
      </g>
     </g>
    </g>
    <g id="xtick_2">
     <g id="line2d_2">
      <g>
       <use xlink:href="#m39ee1d5239" x="230.159182" y="390.04" style="stroke: #000000; stroke-width: 0.8"/>
      </g>
     </g>
     <g id="text_2">
      <!-- 4.0 -->
      <g transform="translate(222.20762 404.638438) scale(0.1 -0.1)">
       <defs>
        <path id="DejaVuSans-34" d="M 2419 4116 
L 825 1625 
L 2419 1625 
L 2419 4116 
z
M 2253 4666 
L 3047 4666 
L 3047 1625 
L 3713 1625 
L 3713 1100 
L 3047 1100 
L 3047 0 
L 2419 0 
L 2419 1100 
L 313 1100 
L 313 1709 
L 2253 4666 
z
" transform="scale(0.015625)"/>
        <path id="DejaVuSans-30" d="M 2034 4250 
Q 1547 4250 1301 3770 
Q 1056 3291 1056 2328 
Q 1056 1369 1301 889 
Q 1547 409 2034 409 
Q 2525 409 2770 889 
Q 3016 1369 3016 2328 
Q 3016 3291 2770 3770 
Q 2525 4250 2034 4250 
z
M 2034 4750 
Q 2819 4750 3233 4129 
Q 3647 3509 3647 2328 
Q 3647 1150 3233 529 
Q 2819 -91 2034 -91 
Q 1250 -91 836 529 
Q 422 1150 422 2328 
Q 422 3509 836 4129 
Q 1250 4750 2034 4750 
z
" transform="scale(0.015625)"/>
       </defs>
       <use xlink:href="#DejaVuSans-34"/>
       <use xlink:href="#DejaVuSans-2e" x="63.623047"/>
       <use xlink:href="#DejaVuSans-30" x="95.410156"/>
      </g>
     </g>
    </g>
    <g id="xtick_3">
     <g id="line2d_3">
      <g>
       <use xlink:href="#m39ee1d5239" x="302.199837" y="390.04" style="stroke: #000000; stroke-width: 0.8"/>
      </g>
     </g>
     <g id="text_3">
      <!-- 4.5 -->
      <g transform="translate(294.248275 404.638438) scale(0.1 -0.1)">
       <use xlink:href="#DejaVuSans-34"/>
       <use xlink:href="#DejaVuSans-2e" x="63.623047"/>
       <use xlink:href="#DejaVuSans-35" x="95.410156"/>
      </g>
     </g>
    </g>
    <g id="xtick_4">
     <g id="line2d_4">
      <g>
       <use xlink:href="#m39ee1d5239" x="374.240492" y="390.04" style="stroke: #000000; stroke-width: 0.8"/>
      </g>
     </g>
     <g id="text_4">
      <!-- 5.0 -->
      <g transform="translate(366.288929 404.638438) scale(0.1 -0.1)">
       <use xlink:href="#DejaVuSans-35"/>
       <use xlink:href="#DejaVuSans-2e" x="63.623047"/>
       <use xlink:href="#DejaVuSans-30" x="95.410156"/>
      </g>
     </g>
    </g>
    <g id="xtick_5">
     <g id="line2d_5">
      <g>
       <use xlink:href="#m39ee1d5239" x="446.281147" y="390.04" style="stroke: #000000; stroke-width: 0.8"/>
      </g>
     </g>
     <g id="text_5">
      <!-- 5.5 -->
      <g transform="translate(438.329584 404.638438) scale(0.1 -0.1)">
       <use xlink:href="#DejaVuSans-35"/>
       <use xlink:href="#DejaVuSans-2e" x="63.623047"/>
       <use xlink:href="#DejaVuSans-35" x="95.410156"/>
      </g>
     </g>
    </g>
    <g id="xtick_6">
     <g id="line2d_6">
      <g>
       <use xlink:href="#m39ee1d5239" x="518.321802" y="390.04" style="stroke: #000000; stroke-width: 0.8"/>
      </g>
     </g>
     <g id="text_6">
      <!-- 6.0 -->
      <g transform="translate(510.370239 404.638438) scale(0.1 -0.1)">
       <defs>
        <path id="DejaVuSans-36" d="M 2113 2584 
Q 1688 2584 1439 2293 
Q 1191 2003 1191 1497 
Q 1191 994 1439 701 
Q 1688 409 2113 409 
Q 2538 409 2786 701 
Q 3034 994 3034 1497 
Q 3034 2003 2786 2293 
Q 2538 2584 2113 2584 
z
M 3366 4563 
L 3366 3988 
Q 3128 4100 2886 4159 
Q 2644 4219 2406 4219 
Q 1781 4219 1451 3797 
Q 1122 3375 1075 2522 
Q 1259 2794 1537 2939 
Q 1816 3084 2150 3084 
Q 2853 3084 3261 2657 
Q 3669 2231 3669 1497 
Q 3669 778 3244 343 
Q 2819 -91 2113 -91 
Q 1303 -91 875 529 
Q 447 1150 447 2328 
Q 447 3434 972 4092 
Q 1497 4750 2381 4750 
Q 2619 4750 2861 4703 
Q 3103 4656 3366 4563 
z
" transform="scale(0.015625)"/>
       </defs>
       <use xlink:href="#DejaVuSans-36"/>
       <use xlink:href="#DejaVuSans-2e" x="63.623047"/>
       <use xlink:href="#DejaVuSans-30" x="95.410156"/>
      </g>
     </g>
    </g>
    <g id="xtick_7">
     <g id="line2d_7">
      <g>
       <use xlink:href="#m39ee1d5239" x="590.362456" y="390.04" style="stroke: #000000; stroke-width: 0.8"/>
      </g>
     </g>
     <g id="text_7">
      <!-- 6.5 -->
      <g transform="translate(582.410894 404.638438) scale(0.1 -0.1)">
       <use xlink:href="#DejaVuSans-36"/>
       <use xlink:href="#DejaVuSans-2e" x="63.623047"/>
       <use xlink:href="#DejaVuSans-35" x="95.410156"/>
      </g>
     </g>
    </g>
    <g id="xtick_8">
     <g id="line2d_8">
      <g>
       <use xlink:href="#m39ee1d5239" x="662.403111" y="390.04" style="stroke: #000000; stroke-width: 0.8"/>
      </g>
     </g>
     <g id="text_8">
      <!-- 7.0 -->
      <g transform="translate(654.451549 404.638438) scale(0.1 -0.1)">
       <defs>
        <path id="DejaVuSans-37" d="M 525 4666 
L 3525 4666 
L 3525 4397 
L 1831 0 
L 1172 0 
L 2766 4134 
L 525 4134 
L 525 4666 
z
" transform="scale(0.015625)"/>
       </defs>
       <use xlink:href="#DejaVuSans-37"/>
       <use xlink:href="#DejaVuSans-2e" x="63.623047"/>
       <use xlink:href="#DejaVuSans-30" x="95.410156"/>
      </g>
     </g>
    </g>
    <g id="text_9">
     <!-- Concentration -->
     <g transform="translate(371.933906 418.316562) scale(0.1 -0.1)">
      <defs>
       <path id="DejaVuSans-43" d="M 4122 4306 
L 4122 3641 
Q 3803 3938 3442 4084 
Q 3081 4231 2675 4231 
Q 1875 4231 1450 3742 
Q 1025 3253 1025 2328 
Q 1025 1406 1450 917 
Q 1875 428 2675 428 
Q 3081 428 3442 575 
Q 3803 722 4122 1019 
L 4122 359 
Q 3791 134 3420 21 
Q 3050 -91 2638 -91 
Q 1578 -91 968 557 
Q 359 1206 359 2328 
Q 359 3453 968 4101 
Q 1578 4750 2638 4750 
Q 3056 4750 3426 4639 
Q 3797 4528 4122 4306 
z
" transform="scale(0.015625)"/>
       <path id="DejaVuSans-6f" d="M 1959 3097 
Q 1497 3097 1228 2736 
Q 959 2375 959 1747 
Q 959 1119 1226 758 
Q 1494 397 1959 397 
Q 2419 397 2687 759 
Q 2956 1122 2956 1747 
Q 2956 2369 2687 2733 
Q 2419 3097 1959 3097 
z
M 1959 3584 
Q 2709 3584 3137 3096 
Q 3566 2609 3566 1747 
Q 3566 888 3137 398 
Q 2709 -91 1959 -91 
Q 1206 -91 779 398 
Q 353 888 353 1747 
Q 353 2609 779 3096 
Q 1206 3584 1959 3584 
z
" transform="scale(0.015625)"/>
       <path id="DejaVuSans-6e" d="M 3513 2113 
L 3513 0 
L 2938 0 
L 2938 2094 
Q 2938 2591 2744 2837 
Q 2550 3084 2163 3084 
Q 1697 3084 1428 2787 
Q 1159 2491 1159 1978 
L 1159 0 
L 581 0 
L 581 3500 
L 1159 3500 
L 1159 2956 
Q 1366 3272 1645 3428 
Q 1925 3584 2291 3584 
Q 2894 3584 3203 3211 
Q 3513 2838 3513 2113 
z
" transform="scale(0.015625)"/>
       <path id="DejaVuSans-63" d="M 3122 3366 
L 3122 2828 
Q 2878 2963 2633 3030 
Q 2388 3097 2138 3097 
Q 1578 3097 1268 2742 
Q 959 2388 959 1747 
Q 959 1106 1268 751 
Q 1578 397 2138 397 
Q 2388 397 2633 464 
Q 2878 531 3122 666 
L 3122 134 
Q 2881 22 2623 -34 
Q 2366 -91 2075 -91 
Q 1284 -91 818 406 
Q 353 903 353 1747 
Q 353 2603 823 3093 
Q 1294 3584 2113 3584 
Q 2378 3584 2631 3529 
Q 2884 3475 3122 3366 
z
" transform="scale(0.015625)"/>
       <path id="DejaVuSans-65" d="M 3597 1894 
L 3597 1613 
L 953 1613 
Q 991 1019 1311 708 
Q 1631 397 2203 397 
Q 2534 397 2845 478 
Q 3156 559 3463 722 
L 3463 178 
Q 3153 47 2828 -22 
Q 2503 -91 2169 -91 
Q 1331 -91 842 396 
Q 353 884 353 1716 
Q 353 2575 817 3079 
Q 1281 3584 2069 3584 
Q 2775 3584 3186 3129 
Q 3597 2675 3597 1894 
z
M 3022 2063 
Q 3016 2534 2758 2815 
Q 2500 3097 2075 3097 
Q 1594 3097 1305 2825 
Q 1016 2553 972 2059 
L 3022 2063 
z
" transform="scale(0.015625)"/>
       <path id="DejaVuSans-74" d="M 1172 4494 
L 1172 3500 
L 2356 3500 
L 2356 3053 
L 1172 3053 
L 1172 1153 
Q 1172 725 1289 603 
Q 1406 481 1766 481 
L 2356 481 
L 2356 0 
L 1766 0 
Q 1100 0 847 248 
Q 594 497 594 1153 
L 594 3053 
L 172 3053 
L 172 3500 
L 594 3500 
L 594 4494 
L 1172 4494 
z
" transform="scale(0.015625)"/>
       <path id="DejaVuSans-72" d="M 2631 2963 
Q 2534 3019 2420 3045 
Q 2306 3072 2169 3072 
Q 1681 3072 1420 2755 
Q 1159 2438 1159 1844 
L 1159 0 
L 581 0 
L 581 3500 
L 1159 3500 
L 1159 2956 
Q 1341 3275 1631 3429 
Q 1922 3584 2338 3584 
Q 2397 3584 2469 3576 
Q 2541 3569 2628 3553 
L 2631 2963 
z
" transform="scale(0.015625)"/>
       <path id="DejaVuSans-61" d="M 2194 1759 
Q 1497 1759 1228 1600 
Q 959 1441 959 1056 
Q 959 750 1161 570 
Q 1363 391 1709 391 
Q 2188 391 2477 730 
Q 2766 1069 2766 1631 
L 2766 1759 
L 2194 1759 
z
M 3341 1997 
L 3341 0 
L 2766 0 
L 2766 531 
Q 2569 213 2275 61 
Q 1981 -91 1556 -91 
Q 1019 -91 701 211 
Q 384 513 384 1019 
Q 384 1609 779 1909 
Q 1175 2209 1959 2209 
L 2766 2209 
L 2766 2266 
Q 2766 2663 2505 2880 
Q 2244 3097 1772 3097 
Q 1472 3097 1187 3025 
Q 903 2953 641 2809 
L 641 3341 
Q 956 3463 1253 3523 
Q 1550 3584 1831 3584 
Q 2591 3584 2966 3190 
Q 3341 2797 3341 1997 
z
" transform="scale(0.015625)"/>
       <path id="DejaVuSans-69" d="M 603 3500 
L 1178 3500 
L 1178 0 
L 603 0 
L 603 3500 
z
M 603 4863 
L 1178 4863 
L 1178 4134 
L 603 4134 
L 603 4863 
z
" transform="scale(0.015625)"/>
      </defs>
      <use xlink:href="#DejaVuSans-43"/>
      <use xlink:href="#DejaVuSans-6f" x="69.824219"/>
      <use xlink:href="#DejaVuSans-6e" x="131.005859"/>
      <use xlink:href="#DejaVuSans-63" x="194.384766"/>
      <use xlink:href="#DejaVuSans-65" x="249.365234"/>
      <use xlink:href="#DejaVuSans-6e" x="310.888672"/>
      <use xlink:href="#DejaVuSans-74" x="374.267578"/>
      <use xlink:href="#DejaVuSans-72" x="413.476562"/>
      <use xlink:href="#DejaVuSans-61" x="454.589844"/>
      <use xlink:href="#DejaVuSans-74" x="515.869141"/>
      <use xlink:href="#DejaVuSans-69" x="555.078125"/>
      <use xlink:href="#DejaVuSans-6f" x="582.861328"/>
      <use xlink:href="#DejaVuSans-6e" x="644.042969"/>
     </g>
    </g>
   </g>
   <g id="matplotlib.axis_2">
    <g id="ytick_1">
     <g id="line2d_9">
      <defs>
       <path id="mc8ea713cbf" d="M 0 0 
L -3.5 0 
" style="stroke: #000000; stroke-width: 0.8"/>
      </defs>
      <g>
       <use xlink:href="#mc8ea713cbf" x="105.41" y="61.060723" style="stroke: #000000; stroke-width: 0.8"/>
      </g>
     </g>
     <g id="text_10">
      <!-- Reference -->
      <g transform="translate(48.056875 64.859942) scale(0.1 -0.1)">
       <defs>
        <path id="DejaVuSans-52" d="M 2841 2188 
Q 3044 2119 3236 1894 
Q 3428 1669 3622 1275 
L 4263 0 
L 3584 0 
L 2988 1197 
Q 2756 1666 2539 1819 
Q 2322 1972 1947 1972 
L 1259 1972 
L 1259 0 
L 628 0 
L 628 4666 
L 2053 4666 
Q 2853 4666 3247 4331 
Q 3641 3997 3641 3322 
Q 3641 2881 3436 2590 
Q 3231 2300 2841 2188 
z
M 1259 4147 
L 1259 2491 
L 2053 2491 
Q 2509 2491 2742 2702 
Q 2975 2913 2975 3322 
Q 2975 3731 2742 3939 
Q 2509 4147 2053 4147 
L 1259 4147 
z
" transform="scale(0.015625)"/>
        <path id="DejaVuSans-66" d="M 2375 4863 
L 2375 4384 
L 1825 4384 
Q 1516 4384 1395 4259 
Q 1275 4134 1275 3809 
L 1275 3500 
L 2222 3500 
L 2222 3053 
L 1275 3053 
L 1275 0 
L 697 0 
L 697 3053 
L 147 3053 
L 147 3500 
L 697 3500 
L 697 3744 
Q 697 4328 969 4595 
Q 1241 4863 1831 4863 
L 2375 4863 
z
" transform="scale(0.015625)"/>
       </defs>
       <use xlink:href="#DejaVuSans-52"/>
       <use xlink:href="#DejaVuSans-65" x="64.982422"/>
       <use xlink:href="#DejaVuSans-66" x="126.505859"/>
       <use xlink:href="#DejaVuSans-65" x="161.710938"/>
       <use xlink:href="#DejaVuSans-72" x="223.234375"/>
       <use xlink:href="#DejaVuSans-65" x="262.097656"/>
       <use xlink:href="#DejaVuSans-6e" x="323.621094"/>
       <use xlink:href="#DejaVuSans-63" x="387"/>
       <use xlink:href="#DejaVuSans-65" x="441.980469"/>
      </g>
     </g>
    </g>
    <g id="ytick_2">
     <g id="line2d_10">
      <g>
       <use xlink:href="#mc8ea713cbf" x="105.41" y="134.167229" style="stroke: #000000; stroke-width: 0.8"/>
      </g>
     </g>
     <g id="text_11">
      <!-- 24h 4C +PBS -->
      <g transform="translate(27.489688 137.966448) scale(0.1 -0.1)">
       <defs>
        <path id="DejaVuSans-32" d="M 1228 531 
L 3431 531 
L 3431 0 
L 469 0 
L 469 531 
Q 828 903 1448 1529 
Q 2069 2156 2228 2338 
Q 2531 2678 2651 2914 
Q 2772 3150 2772 3378 
Q 2772 3750 2511 3984 
Q 2250 4219 1831 4219 
Q 1534 4219 1204 4116 
Q 875 4013 500 3803 
L 500 4441 
Q 881 4594 1212 4672 
Q 1544 4750 1819 4750 
Q 2544 4750 2975 4387 
Q 3406 4025 3406 3419 
Q 3406 3131 3298 2873 
Q 3191 2616 2906 2266 
Q 2828 2175 2409 1742 
Q 1991 1309 1228 531 
z
" transform="scale(0.015625)"/>
        <path id="DejaVuSans-68" d="M 3513 2113 
L 3513 0 
L 2938 0 
L 2938 2094 
Q 2938 2591 2744 2837 
Q 2550 3084 2163 3084 
Q 1697 3084 1428 2787 
Q 1159 2491 1159 1978 
L 1159 0 
L 581 0 
L 581 4863 
L 1159 4863 
L 1159 2956 
Q 1366 3272 1645 3428 
Q 1925 3584 2291 3584 
Q 2894 3584 3203 3211 
Q 3513 2838 3513 2113 
z
" transform="scale(0.015625)"/>
        <path id="DejaVuSans-20" transform="scale(0.015625)"/>
        <path id="DejaVuSans-ba" d="M 434 1850 
L 2584 1850 
L 2584 1466 
L 434 1466 
L 434 1850 
z
M 1509 4750 
Q 2069 4750 2391 4404 
Q 2713 4059 2713 3463 
Q 2713 2866 2391 2523 
Q 2069 2181 1509 2181 
Q 950 2181 625 2525 
Q 300 2869 300 3463 
Q 300 4059 625 4404 
Q 950 4750 1509 4750 
z
M 1509 4391 
Q 1181 4391 984 4139 
Q 788 3888 788 3463 
Q 788 3047 986 2797 
Q 1184 2547 1509 2547 
Q 1838 2547 2033 2797 
Q 2228 3047 2228 3463 
Q 2228 3891 2034 4141 
Q 1841 4391 1509 4391 
z
" transform="scale(0.015625)"/>
        <path id="DejaVuSans-2b" d="M 2944 4013 
L 2944 2272 
L 4684 2272 
L 4684 1741 
L 2944 1741 
L 2944 0 
L 2419 0 
L 2419 1741 
L 678 1741 
L 678 2272 
L 2419 2272 
L 2419 4013 
L 2944 4013 
z
" transform="scale(0.015625)"/>
        <path id="DejaVuSans-50" d="M 1259 4147 
L 1259 2394 
L 2053 2394 
Q 2494 2394 2734 2622 
Q 2975 2850 2975 3272 
Q 2975 3691 2734 3919 
Q 2494 4147 2053 4147 
L 1259 4147 
z
M 628 4666 
L 2053 4666 
Q 2838 4666 3239 4311 
Q 3641 3956 3641 3272 
Q 3641 2581 3239 2228 
Q 2838 1875 2053 1875 
L 1259 1875 
L 1259 0 
L 628 0 
L 628 4666 
z
" transform="scale(0.015625)"/>
        <path id="DejaVuSans-42" d="M 1259 2228 
L 1259 519 
L 2272 519 
Q 2781 519 3026 730 
Q 3272 941 3272 1375 
Q 3272 1813 3026 2020 
Q 2781 2228 2272 2228 
L 1259 2228 
z
M 1259 4147 
L 1259 2741 
L 2194 2741 
Q 2656 2741 2882 2914 
Q 3109 3088 3109 3444 
Q 3109 3797 2882 3972 
Q 2656 4147 2194 4147 
L 1259 4147 
z
M 628 4666 
L 2241 4666 
Q 2963 4666 3353 4366 
Q 3744 4066 3744 3513 
Q 3744 3084 3544 2831 
Q 3344 2578 2956 2516 
Q 3422 2416 3680 2098 
Q 3938 1781 3938 1306 
Q 3938 681 3513 340 
Q 3088 0 2303 0 
L 628 0 
L 628 4666 
z
" transform="scale(0.015625)"/>
        <path id="DejaVuSans-53" d="M 3425 4513 
L 3425 3897 
Q 3066 4069 2747 4153 
Q 2428 4238 2131 4238 
Q 1616 4238 1336 4038 
Q 1056 3838 1056 3469 
Q 1056 3159 1242 3001 
Q 1428 2844 1947 2747 
L 2328 2669 
Q 3034 2534 3370 2195 
Q 3706 1856 3706 1288 
Q 3706 609 3251 259 
Q 2797 -91 1919 -91 
Q 1588 -91 1214 -16 
Q 841 59 441 206 
L 441 856 
Q 825 641 1194 531 
Q 1563 422 1919 422 
Q 2459 422 2753 634 
Q 3047 847 3047 1241 
Q 3047 1584 2836 1778 
Q 2625 1972 2144 2069 
L 1759 2144 
Q 1053 2284 737 2584 
Q 422 2884 422 3419 
Q 422 4038 858 4394 
Q 1294 4750 2059 4750 
Q 2388 4750 2728 4690 
Q 3069 4631 3425 4513 
z
" transform="scale(0.015625)"/>
       </defs>
       <use xlink:href="#DejaVuSans-32"/>
       <use xlink:href="#DejaVuSans-34" x="63.623047"/>
       <use xlink:href="#DejaVuSans-68" x="127.246094"/>
       <use xlink:href="#DejaVuSans-20" x="190.625"/>
       <use xlink:href="#DejaVuSans-34" x="222.412109"/>
       <use xlink:href="#DejaVuSans-ba" x="286.035156"/>
       <use xlink:href="#DejaVuSans-43" x="333.154297"/>
       <use xlink:href="#DejaVuSans-20" x="402.978516"/>
       <use xlink:href="#DejaVuSans-2b" x="434.765625"/>
       <use xlink:href="#DejaVuSans-50" x="518.554688"/>
       <use xlink:href="#DejaVuSans-42" x="578.857422"/>
       <use xlink:href="#DejaVuSans-53" x="645.710938"/>
      </g>
     </g>
    </g>
    <g id="ytick_3">
     <g id="line2d_11">
      <g>
       <use xlink:href="#mc8ea713cbf" x="105.41" y="207.273735" style="stroke: #000000; stroke-width: 0.8"/>
      </g>
     </g>
     <g id="text_12">
      <!-- 72h 4C +PBS -->
      <g transform="translate(27.489688 211.072954) scale(0.1 -0.1)">
       <use xlink:href="#DejaVuSans-37"/>
       <use xlink:href="#DejaVuSans-32" x="63.623047"/>
       <use xlink:href="#DejaVuSans-68" x="127.246094"/>
       <use xlink:href="#DejaVuSans-20" x="190.625"/>
       <use xlink:href="#DejaVuSans-34" x="222.412109"/>
       <use xlink:href="#DejaVuSans-ba" x="286.035156"/>
       <use xlink:href="#DejaVuSans-43" x="333.154297"/>
       <use xlink:href="#DejaVuSans-20" x="402.978516"/>
       <use xlink:href="#DejaVuSans-2b" x="434.765625"/>
       <use xlink:href="#DejaVuSans-50" x="518.554688"/>
       <use xlink:href="#DejaVuSans-42" x="578.857422"/>
       <use xlink:href="#DejaVuSans-53" x="645.710938"/>
      </g>
     </g>
    </g>
    <g id="ytick_4">
     <g id="line2d_12">
      <g>
       <use xlink:href="#mc8ea713cbf" x="105.41" y="280.380241" style="stroke: #000000; stroke-width: 0.8"/>
      </g>
     </g>
     <g id="text_13">
      <!-- 24h 4C -PBS -->
      <g transform="translate(32.261563 284.17946) scale(0.1 -0.1)">
       <defs>
        <path id="DejaVuSans-2d" d="M 313 2009 
L 1997 2009 
L 1997 1497 
L 313 1497 
L 313 2009 
z
" transform="scale(0.015625)"/>
       </defs>
       <use xlink:href="#DejaVuSans-32"/>
       <use xlink:href="#DejaVuSans-34" x="63.623047"/>
       <use xlink:href="#DejaVuSans-68" x="127.246094"/>
       <use xlink:href="#DejaVuSans-20" x="190.625"/>
       <use xlink:href="#DejaVuSans-34" x="222.412109"/>
       <use xlink:href="#DejaVuSans-ba" x="286.035156"/>
       <use xlink:href="#DejaVuSans-43" x="333.154297"/>
       <use xlink:href="#DejaVuSans-20" x="402.978516"/>
       <use xlink:href="#DejaVuSans-2d" x="434.765625"/>
       <use xlink:href="#DejaVuSans-50" x="470.849609"/>
       <use xlink:href="#DejaVuSans-42" x="531.152344"/>
       <use xlink:href="#DejaVuSans-53" x="598.005859"/>
      </g>
     </g>
    </g>
    <g id="ytick_5">
     <g id="line2d_13">
      <g>
       <use xlink:href="#mc8ea713cbf" x="105.41" y="353.486747" style="stroke: #000000; stroke-width: 0.8"/>
      </g>
     </g>
     <g id="text_14">
      <!-- 72h 4C -PBS -->
      <g transform="translate(32.261563 357.285966) scale(0.1 -0.1)">
       <use xlink:href="#DejaVuSans-37"/>
       <use xlink:href="#DejaVuSans-32" x="63.623047"/>
       <use xlink:href="#DejaVuSans-68" x="127.246094"/>
       <use xlink:href="#DejaVuSans-20" x="190.625"/>
       <use xlink:href="#DejaVuSans-34" x="222.412109"/>
       <use xlink:href="#DejaVuSans-ba" x="286.035156"/>
       <use xlink:href="#DejaVuSans-43" x="333.154297"/>
       <use xlink:href="#DejaVuSans-20" x="402.978516"/>
       <use xlink:href="#DejaVuSans-2d" x="434.765625"/>
       <use xlink:href="#DejaVuSans-50" x="470.849609"/>
       <use xlink:href="#DejaVuSans-42" x="531.152344"/>
       <use xlink:href="#DejaVuSans-53" x="598.005859"/>
      </g>
     </g>
    </g>
    <g id="text_15">
     <!-- $log([MMP9]/[Total Protein])$ -->
     <g transform="translate(21.389688 266.52) rotate(-90) scale(0.1 -0.1)">
      <defs>
       <path id="DejaVuSans-Oblique-6c" d="M 1172 4863 
L 1747 4863 
L 800 0 
L 225 0 
L 1172 4863 
z
" transform="scale(0.015625)"/>
       <path id="DejaVuSans-Oblique-6f" d="M 1625 -91 
Q 1009 -91 651 289 
Q 294 669 294 1325 
Q 294 1706 417 2101 
Q 541 2497 738 2766 
Q 1047 3184 1428 3384 
Q 1809 3584 2291 3584 
Q 2888 3584 3255 3212 
Q 3622 2841 3622 2241 
Q 3622 1825 3500 1412 
Q 3378 1000 3181 728 
Q 2875 309 2494 109 
Q 2113 -91 1625 -91 
z
M 891 1344 
Q 891 869 1089 633 
Q 1288 397 1691 397 
Q 2269 397 2648 901 
Q 3028 1406 3028 2181 
Q 3028 2634 2825 2865 
Q 2622 3097 2228 3097 
Q 1903 3097 1650 2945 
Q 1397 2794 1197 2484 
Q 1050 2253 970 1956 
Q 891 1659 891 1344 
z
" transform="scale(0.015625)"/>
       <path id="DejaVuSans-Oblique-67" d="M 3816 3500 
L 3219 434 
Q 3047 -456 2561 -893 
Q 2075 -1331 1253 -1331 
Q 950 -1331 690 -1286 
Q 431 -1241 206 -1147 
L 313 -588 
Q 525 -725 762 -790 
Q 1000 -856 1269 -856 
Q 1816 -856 2167 -557 
Q 2519 -259 2631 300 
L 2681 563 
Q 2441 288 2122 144 
Q 1803 0 1434 0 
Q 903 0 598 351 
Q 294 703 294 1319 
Q 294 1803 478 2267 
Q 663 2731 997 3091 
Q 1219 3328 1514 3456 
Q 1809 3584 2131 3584 
Q 2484 3584 2746 3420 
Q 3009 3256 3138 2956 
L 3238 3500 
L 3816 3500 
z
M 2950 2216 
Q 2950 2641 2750 2872 
Q 2550 3103 2181 3103 
Q 1953 3103 1747 3012 
Q 1541 2922 1394 2759 
Q 1156 2491 1023 2127 
Q 891 1763 891 1375 
Q 891 944 1092 712 
Q 1294 481 1672 481 
Q 2219 481 2584 976 
Q 2950 1472 2950 2216 
z
" transform="scale(0.015625)"/>
       <path id="DejaVuSans-28" d="M 1984 4856 
Q 1566 4138 1362 3434 
Q 1159 2731 1159 2009 
Q 1159 1288 1364 580 
Q 1569 -128 1984 -844 
L 1484 -844 
Q 1016 -109 783 600 
Q 550 1309 550 2009 
Q 550 2706 781 3412 
Q 1013 4119 1484 4856 
L 1984 4856 
z
" transform="scale(0.015625)"/>
       <path id="DejaVuSans-5b" d="M 550 4863 
L 1875 4863 
L 1875 4416 
L 1125 4416 
L 1125 -397 
L 1875 -397 
L 1875 -844 
L 550 -844 
L 550 4863 
z
" transform="scale(0.015625)"/>
       <path id="DejaVuSans-Oblique-4d" d="M 1081 4666 
L 2028 4666 
L 2572 1522 
L 4378 4666 
L 5350 4666 
L 4441 0 
L 3828 0 
L 4622 4091 
L 2791 897 
L 2175 897 
L 1581 4103 
L 788 0 
L 172 0 
L 1081 4666 
z
" transform="scale(0.015625)"/>
       <path id="DejaVuSans-Oblique-50" d="M 1081 4666 
L 2541 4666 
Q 3178 4666 3512 4369 
Q 3847 4072 3847 3500 
Q 3847 2731 3353 2303 
Q 2859 1875 1966 1875 
L 1172 1875 
L 806 0 
L 172 0 
L 1081 4666 
z
M 1613 4147 
L 1275 2394 
L 2069 2394 
Q 2606 2394 2893 2669 
Q 3181 2944 3181 3456 
Q 3181 3784 2986 3965 
Q 2791 4147 2438 4147 
L 1613 4147 
z
" transform="scale(0.015625)"/>
       <path id="DejaVuSans-39" d="M 703 97 
L 703 672 
Q 941 559 1184 500 
Q 1428 441 1663 441 
Q 2288 441 2617 861 
Q 2947 1281 2994 2138 
Q 2813 1869 2534 1725 
Q 2256 1581 1919 1581 
Q 1219 1581 811 2004 
Q 403 2428 403 3163 
Q 403 3881 828 4315 
Q 1253 4750 1959 4750 
Q 2769 4750 3195 4129 
Q 3622 3509 3622 2328 
Q 3622 1225 3098 567 
Q 2575 -91 1691 -91 
Q 1453 -91 1209 -44 
Q 966 3 703 97 
z
M 1959 2075 
Q 2384 2075 2632 2365 
Q 2881 2656 2881 3163 
Q 2881 3666 2632 3958 
Q 2384 4250 1959 4250 
Q 1534 4250 1286 3958 
Q 1038 3666 1038 3163 
Q 1038 2656 1286 2365 
Q 1534 2075 1959 2075 
z
" transform="scale(0.015625)"/>
       <path id="DejaVuSans-5d" d="M 1947 4863 
L 1947 -844 
L 622 -844 
L 622 -397 
L 1369 -397 
L 1369 4416 
L 622 4416 
L 622 4863 
L 1947 4863 
z
" transform="scale(0.015625)"/>
       <path id="DejaVuSans-2f" d="M 1625 4666 
L 2156 4666 
L 531 -594 
L 0 -594 
L 1625 4666 
z
" transform="scale(0.015625)"/>
       <path id="DejaVuSans-Oblique-54" d="M 378 4666 
L 4325 4666 
L 4225 4134 
L 2559 4134 
L 1759 0 
L 1125 0 
L 1925 4134 
L 275 4134 
L 378 4666 
z
" transform="scale(0.015625)"/>
       <path id="DejaVuSans-Oblique-74" d="M 2706 3500 
L 2619 3053 
L 1472 3053 
L 1100 1153 
Q 1081 1047 1072 975 
Q 1063 903 1063 863 
Q 1063 663 1183 572 
Q 1303 481 1569 481 
L 2150 481 
L 2053 0 
L 1503 0 
Q 991 0 739 200 
Q 488 400 488 806 
Q 488 878 497 964 
Q 506 1050 525 1153 
L 897 3053 
L 409 3053 
L 500 3500 
L 978 3500 
L 1172 4494 
L 1747 4494 
L 1556 3500 
L 2706 3500 
z
" transform="scale(0.015625)"/>
       <path id="DejaVuSans-Oblique-61" d="M 3438 1997 
L 3047 0 
L 2472 0 
L 2578 531 
Q 2325 219 2001 64 
Q 1678 -91 1281 -91 
Q 834 -91 548 182 
Q 263 456 263 884 
Q 263 1497 752 1853 
Q 1241 2209 2100 2209 
L 2900 2209 
L 2931 2363 
Q 2938 2388 2941 2417 
Q 2944 2447 2944 2509 
Q 2944 2788 2717 2942 
Q 2491 3097 2081 3097 
Q 1800 3097 1504 3025 
Q 1209 2953 897 2809 
L 997 3341 
Q 1322 3463 1633 3523 
Q 1944 3584 2234 3584 
Q 2853 3584 3176 3315 
Q 3500 3047 3500 2534 
Q 3500 2431 3484 2292 
Q 3469 2153 3438 1997 
z
M 2816 1759 
L 2241 1759 
Q 1534 1759 1195 1570 
Q 856 1381 856 984 
Q 856 709 1029 553 
Q 1203 397 1509 397 
Q 1978 397 2328 733 
Q 2678 1069 2791 1631 
L 2816 1759 
z
" transform="scale(0.015625)"/>
       <path id="DejaVuSans-Oblique-72" d="M 2853 2969 
Q 2766 3016 2653 3041 
Q 2541 3066 2413 3066 
Q 1953 3066 1609 2717 
Q 1266 2369 1153 1784 
L 800 0 
L 225 0 
L 909 3500 
L 1484 3500 
L 1375 2956 
Q 1603 3259 1920 3421 
Q 2238 3584 2597 3584 
Q 2691 3584 2781 3573 
Q 2872 3563 2963 3538 
L 2853 2969 
z
" transform="scale(0.015625)"/>
       <path id="DejaVuSans-Oblique-65" d="M 3078 2063 
Q 3088 2113 3092 2166 
Q 3097 2219 3097 2272 
Q 3097 2653 2873 2875 
Q 2650 3097 2266 3097 
Q 1838 3097 1509 2826 
Q 1181 2556 1013 2059 
L 3078 2063 
z
M 3578 1613 
L 903 1613 
Q 884 1494 878 1425 
Q 872 1356 872 1306 
Q 872 872 1139 634 
Q 1406 397 1894 397 
Q 2269 397 2603 481 
Q 2938 566 3225 728 
L 3116 159 
Q 2806 34 2476 -28 
Q 2147 -91 1806 -91 
Q 1078 -91 686 257 
Q 294 606 294 1247 
Q 294 1794 489 2264 
Q 684 2734 1063 3103 
Q 1306 3334 1642 3459 
Q 1978 3584 2356 3584 
Q 2950 3584 3301 3228 
Q 3653 2872 3653 2272 
Q 3653 2128 3634 1964 
Q 3616 1800 3578 1613 
z
" transform="scale(0.015625)"/>
       <path id="DejaVuSans-Oblique-69" d="M 1172 4863 
L 1747 4863 
L 1606 4134 
L 1031 4134 
L 1172 4863 
z
M 909 3500 
L 1484 3500 
L 800 0 
L 225 0 
L 909 3500 
z
" transform="scale(0.015625)"/>
       <path id="DejaVuSans-Oblique-6e" d="M 3566 2113 
L 3156 0 
L 2578 0 
L 2988 2091 
Q 3016 2238 3031 2350 
Q 3047 2463 3047 2528 
Q 3047 2791 2881 2937 
Q 2716 3084 2419 3084 
Q 1956 3084 1622 2776 
Q 1288 2469 1184 1941 
L 800 0 
L 225 0 
L 903 3500 
L 1478 3500 
L 1363 2950 
Q 1603 3253 1940 3418 
Q 2278 3584 2650 3584 
Q 3113 3584 3367 3334 
Q 3622 3084 3622 2631 
Q 3622 2519 3608 2391 
Q 3594 2263 3566 2113 
z
" transform="scale(0.015625)"/>
       <path id="DejaVuSans-29" d="M 513 4856 
L 1013 4856 
Q 1481 4119 1714 3412 
Q 1947 2706 1947 2009 
Q 1947 1309 1714 600 
Q 1481 -109 1013 -844 
L 513 -844 
Q 928 -128 1133 580 
Q 1338 1288 1338 2009 
Q 1338 2731 1133 3434 
Q 928 4138 513 4856 
z
" transform="scale(0.015625)"/>
      </defs>
      <use xlink:href="#DejaVuSans-Oblique-6c" transform="translate(0 0.015625)"/>
      <use xlink:href="#DejaVuSans-Oblique-6f" transform="translate(27.783203 0.015625)"/>
      <use xlink:href="#DejaVuSans-Oblique-67" transform="translate(88.964844 0.015625)"/>
      <use xlink:href="#DejaVuSans-28" transform="translate(152.441406 0.015625)"/>
      <use xlink:href="#DejaVuSans-5b" transform="translate(191.455078 0.015625)"/>
      <use xlink:href="#DejaVuSans-Oblique-4d" transform="translate(230.46875 0.015625)"/>
      <use xlink:href="#DejaVuSans-Oblique-4d" transform="translate(316.748047 0.015625)"/>
      <use xlink:href="#DejaVuSans-Oblique-50" transform="translate(403.027344 0.015625)"/>
      <use xlink:href="#DejaVuSans-39" transform="translate(463.330078 0.015625)"/>
      <use xlink:href="#DejaVuSans-5d" transform="translate(526.953125 0.015625)"/>
      <use xlink:href="#DejaVuSans-2f" transform="translate(565.966797 0.015625)"/>
      <use xlink:href="#DejaVuSans-5b" transform="translate(599.658203 0.015625)"/>
      <use xlink:href="#DejaVuSans-Oblique-54" transform="translate(638.671875 0.015625)"/>
      <use xlink:href="#DejaVuSans-Oblique-6f" transform="translate(699.755859 0.015625)"/>
      <use xlink:href="#DejaVuSans-Oblique-74" transform="translate(760.9375 0.015625)"/>
      <use xlink:href="#DejaVuSans-Oblique-61" transform="translate(800.146484 0.015625)"/>
      <use xlink:href="#DejaVuSans-Oblique-6c" transform="translate(861.425781 0.015625)"/>
      <use xlink:href="#DejaVuSans-Oblique-50" transform="translate(889.208984 0.015625)"/>
      <use xlink:href="#DejaVuSans-Oblique-72" transform="translate(949.511719 0.015625)"/>
      <use xlink:href="#DejaVuSans-Oblique-6f" transform="translate(990.625 0.015625)"/>
      <use xlink:href="#DejaVuSans-Oblique-74" transform="translate(1051.806641 0.015625)"/>
      <use xlink:href="#DejaVuSans-Oblique-65" transform="translate(1091.015625 0.015625)"/>
      <use xlink:href="#DejaVuSans-Oblique-69" transform="translate(1152.539062 0.015625)"/>
      <use xlink:href="#DejaVuSans-Oblique-6e" transform="translate(1180.322266 0.015625)"/>
      <use xlink:href="#DejaVuSans-5d" transform="translate(1243.701172 0.015625)"/>
      <use xlink:href="#DejaVuSans-29" transform="translate(1282.714844 0.015625)"/>
     </g>
    </g>
   </g>
   <g id="line2d_14">
    <path d="M 135.483914 58.319229 
L 135.483914 63.802217 
" clip-path="url(#p57d19f7b4b)" style="fill: none; stroke: #434343; stroke-width: 1.5; stroke-linecap: square"/>
   </g>
   <g id="line2d_15">
    <path d="M 556.07914 58.319229 
L 556.07914 63.802217 
" clip-path="url(#p57d19f7b4b)" style="fill: none; stroke: #434343; stroke-width: 1.5; stroke-linecap: square"/>
   </g>
   <g id="line2d_16"/>
   <g id="line2d_17">
    <path d="M 141.538259 131.425735 
L 141.538259 136.908723 
" clip-path="url(#p57d19f7b4b)" style="fill: none; stroke: #434343; stroke-width: 1.5; stroke-linecap: square"/>
   </g>
   <g id="line2d_18">
    <path d="M 524.213118 131.425735 
L 524.213118 136.908723 
" clip-path="url(#p57d19f7b4b)" style="fill: none; stroke: #434343; stroke-width: 1.5; stroke-linecap: square"/>
   </g>
   <g id="line2d_19"/>
   <g id="line2d_20">
    <path d="M 147.696834 204.532241 
L 147.696834 210.015229 
" clip-path="url(#p57d19f7b4b)" style="fill: none; stroke: #434343; stroke-width: 1.5; stroke-linecap: square"/>
   </g>
   <g id="line2d_21">
    <path d="M 489.064736 204.532241 
L 489.064736 210.015229 
" clip-path="url(#p57d19f7b4b)" style="fill: none; stroke: #434343; stroke-width: 1.5; stroke-linecap: square"/>
   </g>
   <g id="line2d_22"/>
   <g id="line2d_23">
    <path d="M 186.272469 277.638747 
L 186.272469 283.121735 
" clip-path="url(#p57d19f7b4b)" style="fill: none; stroke: #434343; stroke-width: 1.5; stroke-linecap: square"/>
   </g>
   <g id="line2d_24">
    <path d="M 466.737553 277.638747 
L 466.737553 283.121735 
" clip-path="url(#p57d19f7b4b)" style="fill: none; stroke: #434343; stroke-width: 1.5; stroke-linecap: square"/>
   </g>
   <g id="line2d_25"/>
   <g id="line2d_26">
    <path d="M 132.855 350.745253 
L 132.855 356.228241 
" clip-path="url(#p57d19f7b4b)" style="fill: none; stroke: #434343; stroke-width: 1.5; stroke-linecap: square"/>
   </g>
   <g id="line2d_27">
    <path d="M 681.755 350.745253 
L 681.755 356.228241 
" clip-path="url(#p57d19f7b4b)" style="fill: none; stroke: #434343; stroke-width: 1.5; stroke-linecap: square"/>
   </g>
   <g id="line2d_28"/>
   <g id="line2d_29">
    <path d="M 386.965575 55.577735 
L 386.965575 66.543711 
" clip-path="url(#p57d19f7b4b)" style="fill: none; stroke: #434343; stroke-width: 1.5; stroke-linecap: square"/>
   </g>
   <g id="line2d_30">
    <path d="M 397.682456 128.684241 
L 397.682456 139.650217 
" clip-path="url(#p57d19f7b4b)" style="fill: none; stroke: #434343; stroke-width: 1.5; stroke-linecap: square"/>
   </g>
   <g id="line2d_31">
    <path d="M 390.247098 201.790747 
L 390.247098 212.756723 
" clip-path="url(#p57d19f7b4b)" style="fill: none; stroke: #434343; stroke-width: 1.5; stroke-linecap: square"/>
   </g>
   <g id="line2d_32">
    <path d="M 371.812711 274.897253 
L 371.812711 285.863229 
" clip-path="url(#p57d19f7b4b)" style="fill: none; stroke: #434343; stroke-width: 1.5; stroke-linecap: square"/>
   </g>
   <g id="line2d_33">
    <path d="M 349.262945 348.003759 
L 349.262945 358.969735 
" clip-path="url(#p57d19f7b4b)" style="fill: none; stroke: #434343; stroke-width: 1.5; stroke-linecap: square"/>
   </g>
   <g id="patch_3">
    <path d="M 105.41 390.04 
L 105.41 10.8 
" style="fill: none; stroke: #000000; stroke-width: 0.8; stroke-linejoin: miter; stroke-linecap: square"/>
   </g>
   <g id="patch_4">
    <path d="M 709.2 390.04 
L 709.2 10.8 
" style="fill: none; stroke: #000000; stroke-width: 0.8; stroke-linejoin: miter; stroke-linecap: square"/>
   </g>
   <g id="patch_5">
    <path d="M 105.41 390.04 
L 709.2 390.04 
" style="fill: none; stroke: #000000; stroke-width: 0.8; stroke-linejoin: miter; stroke-linecap: square"/>
   </g>
   <g id="patch_6">
    <path d="M 105.41 10.8 
L 709.2 10.8 
" style="fill: none; stroke: #000000; stroke-width: 0.8; stroke-linejoin: miter; stroke-linecap: square"/>
   </g>
   <g id="patch_7">
    <path d="M 297.890145 55.577735 
L 297.890145 66.543711 
L 410.624398 66.543711 
L 410.624398 55.577735 
L 297.890145 55.577735 
L 297.890145 55.577735 
z
" clip-path="url(#p57d19f7b4b)" style="fill: none; stroke: #434343; stroke-width: 1.5; stroke-linejoin: miter"/>
   </g>
   <g id="line2d_34">
    <path d="M 297.890145 61.060723 
L 135.483914 61.060723 
" clip-path="url(#p57d19f7b4b)" style="fill: none; stroke: #434343; stroke-width: 2; stroke-linecap: square"/>
   </g>
   <g id="line2d_35">
    <path d="M 410.624398 61.060723 
L 556.07914 61.060723 
" clip-path="url(#p57d19f7b4b)" style="fill: none; stroke: #434343; stroke-width: 2; stroke-linecap: square"/>
   </g>
   <g id="patch_8">
    <path d="M 261.00596 128.684241 
L 261.00596 139.650217 
L 465.043983 139.650217 
L 465.043983 128.684241 
L 261.00596 128.684241 
L 261.00596 128.684241 
z
" clip-path="url(#p57d19f7b4b)" style="fill: none; stroke: #434343; stroke-width: 1.5; stroke-linejoin: miter"/>
   </g>
   <g id="line2d_36">
    <path d="M 261.00596 134.167229 
L 141.538259 134.167229 
" clip-path="url(#p57d19f7b4b)" style="fill: none; stroke: #434343; stroke-width: 2; stroke-linecap: square"/>
   </g>
   <g id="line2d_37">
    <path d="M 465.043983 134.167229 
L 524.213118 134.167229 
" clip-path="url(#p57d19f7b4b)" style="fill: none; stroke: #434343; stroke-width: 2; stroke-linecap: square"/>
   </g>
   <g id="patch_9">
    <path d="M 232.467991 201.790747 
L 232.467991 212.756723 
L 427.417895 212.756723 
L 427.417895 201.790747 
L 232.467991 201.790747 
L 232.467991 201.790747 
z
" clip-path="url(#p57d19f7b4b)" style="fill: none; stroke: #434343; stroke-width: 1.5; stroke-linejoin: miter"/>
   </g>
   <g id="line2d_38">
    <path d="M 232.467991 207.273735 
L 147.696834 207.273735 
" clip-path="url(#p57d19f7b4b)" style="fill: none; stroke: #434343; stroke-width: 2; stroke-linecap: square"/>
   </g>
   <g id="line2d_39">
    <path d="M 427.417895 207.273735 
L 489.064736 207.273735 
" clip-path="url(#p57d19f7b4b)" style="fill: none; stroke: #434343; stroke-width: 2; stroke-linecap: square"/>
   </g>
   <g id="patch_10">
    <path d="M 280.363546 274.897253 
L 280.363546 285.863229 
L 422.323373 285.863229 
L 422.323373 274.897253 
L 280.363546 274.897253 
L 280.363546 274.897253 
z
" clip-path="url(#p57d19f7b4b)" style="fill: none; stroke: #434343; stroke-width: 1.5; stroke-linejoin: miter"/>
   </g>
   <g id="line2d_40">
    <path d="M 280.363546 280.380241 
L 186.272469 280.380241 
" clip-path="url(#p57d19f7b4b)" style="fill: none; stroke: #434343; stroke-width: 2; stroke-linecap: square"/>
   </g>
   <g id="line2d_41">
    <path d="M 422.323373 280.380241 
L 466.737553 280.380241 
" clip-path="url(#p57d19f7b4b)" style="fill: none; stroke: #434343; stroke-width: 2; stroke-linecap: square"/>
   </g>
   <g id="patch_11">
    <path d="M 262.562421 348.003759 
L 262.562421 358.969735 
L 472.622231 358.969735 
L 472.622231 348.003759 
L 262.562421 348.003759 
L 262.562421 348.003759 
z
" clip-path="url(#p57d19f7b4b)" style="fill: none; stroke: #434343; stroke-width: 1.5; stroke-linejoin: miter"/>
   </g>
   <g id="line2d_42">
    <path d="M 262.562421 353.486747 
L 132.855 353.486747 
" clip-path="url(#p57d19f7b4b)" style="fill: none; stroke: #434343; stroke-width: 2; stroke-linecap: square"/>
   </g>
   <g id="line2d_43">
    <path d="M 472.622231 353.486747 
L 681.755 353.486747 
" clip-path="url(#p57d19f7b4b)" style="fill: none; stroke: #434343; stroke-width: 2; stroke-linecap: square"/>
   </g>
  </g>
 </g>
 <defs>
  <clipPath id="p57d19f7b4b">
   <rect x="105.41" y="10.8" width="603.79" height="379.24"/>
  </clipPath>
 </defs>
</svg>
