<?xml version="1.0" encoding="utf-8" standalone="no"?>
<!DOCTYPE svg PUBLIC "-//W3C//DTD SVG 1.1//EN"
  "http://www.w3.org/Graphics/SVG/1.1/DTD/svg11.dtd">
<svg xmlns:xlink="http://www.w3.org/1999/xlink" width="720pt" height="432pt" viewBox="0 0 720 432" xmlns="http://www.w3.org/2000/svg" version="1.1">
 <metadata>
  <rdf:RDF xmlns:dc="http://purl.org/dc/elements/1.1/" xmlns:cc="http://creativecommons.org/ns#" xmlns:rdf="http://www.w3.org/1999/02/22-rdf-syntax-ns#">
   <cc:Work>
    <dc:type rdf:resource="http://purl.org/dc/dcmitype/StillImage"/>
    <dc:date>2024-09-30T14:08:33.161660</dc:date>
    <dc:format>image/svg+xml</dc:format>
    <dc:creator>
     <cc:Agent>
      <dc:title>Matplotlib v3.7.3, https://matplotlib.org/</dc:title>
     </cc:Agent>
    </dc:creator>
   </cc:Work>
  </rdf:RDF>
 </metadata>
 <defs>
  <style type="text/css">*{stroke-linejoin: round; stroke-linecap: butt}</style>
 </defs>
 <g id="figure_1">
  <g id="patch_1">
   <path d="M 0 432 
L 720 432 
L 720 0 
L 0 0 
z
" style="fill: #ffffff"/>
  </g>
  <g id="axes_1">
   <g id="patch_2">
    <path d="M 102.53 387.16 
L 709.2 387.16 
L 709.2 10.8 
L 102.53 10.8 
z
" style="fill: #ffffff"/>
   </g>
   <g id="PathCollection_1">
    <defs>
     <path id="C0_0_4ac3e56e0b" d="M 0 1.5 
C 0.397805 1.5 0.77937 1.341951 1.06066 1.06066 
C 1.341951 0.77937 1.5 0.397805 1.5 -0 
C 1.5 -0.397805 1.341951 -0.77937 1.06066 -1.06066 
C 0.77937 -1.341951 0.397805 -1.5 0 -1.5 
C -0.397805 -1.5 -0.77937 -1.341951 -1.06066 -1.06066 
C -1.341951 -0.77937 -1.5 -0.397805 -1.5 0 
C -1.5 0.397805 -1.341951 0.77937 -1.06066 1.06066 
C -0.77937 1.341951 -0.397805 1.5 0 1.5 
z
"/>
    </defs>
    <g clip-path="url(#pea663ba235)">
     <use xlink:href="#C0_0_4ac3e56e0b" x="408.004503" y="60.381036" style="fill: #f77189"/>
    </g>
    <g clip-path="url(#pea663ba235)">
     <use xlink:href="#C0_0_4ac3e56e0b" x="455.230172" y="55.674156" style="fill: #f77189"/>
    </g>
    <g clip-path="url(#pea663ba235)">
     <use xlink:href="#C0_0_4ac3e56e0b" x="555.348773" y="56.566047" style="fill: #f77189"/>
    </g>
    <g clip-path="url(#pea663ba235)">
     <use xlink:href="#C0_0_4ac3e56e0b" x="389.297906" y="66.149155" style="fill: #f77189"/>
    </g>
    <g clip-path="url(#pea663ba235)">
     <use xlink:href="#C0_0_4ac3e56e0b" x="385.428559" y="64.83252" style="fill: #f77189"/>
    </g>
    <g clip-path="url(#pea663ba235)">
     <use xlink:href="#C0_0_4ac3e56e0b" x="395.309296" y="57.893885" style="fill: #f77189"/>
    </g>
    <g clip-path="url(#pea663ba235)">
     <use xlink:href="#C0_0_4ac3e56e0b" x="347.534984" y="62.773471" style="fill: #f77189"/>
    </g>
    <g clip-path="url(#pea663ba235)">
     <use xlink:href="#C0_0_4ac3e56e0b" x="382.791091" y="62.445809" style="fill: #f77189"/>
    </g>
    <g clip-path="url(#pea663ba235)">
     <use xlink:href="#C0_0_4ac3e56e0b" x="377.746244" y="57.405595" style="fill: #f77189"/>
    </g>
    <g clip-path="url(#pea663ba235)">
     <use xlink:href="#C0_0_4ac3e56e0b" x="390.756935" y="60.36838" style="fill: #f77189"/>
    </g>
    <g clip-path="url(#pea663ba235)">
     <use xlink:href="#C0_0_4ac3e56e0b" x="401.107954" y="61.721828" style="fill: #f77189"/>
    </g>
    <g clip-path="url(#pea663ba235)">
     <use xlink:href="#C0_0_4ac3e56e0b" x="439.566657" y="58.913128" style="fill: #f77189"/>
    </g>
    <g clip-path="url(#pea663ba235)">
     <use xlink:href="#C0_0_4ac3e56e0b" x="203.787204" y="62.062234" style="fill: #f77189"/>
    </g>
    <g clip-path="url(#pea663ba235)">
     <use xlink:href="#C0_0_4ac3e56e0b" x="244.635817" y="63.403255" style="fill: #f77189"/>
    </g>
    <g clip-path="url(#pea663ba235)">
     <use xlink:href="#C0_0_4ac3e56e0b" x="132.747363" y="67.900021" style="fill: #f77189"/>
    </g>
    <g clip-path="url(#pea663ba235)">
     <use xlink:href="#C0_0_4ac3e56e0b" x="265.061481" y="56.833802" style="fill: #f77189"/>
    </g>
    <g clip-path="url(#pea663ba235)">
     <use xlink:href="#C0_0_4ac3e56e0b" x="297.914424" y="58.549583" style="fill: #f77189"/>
    </g>
    <g clip-path="url(#pea663ba235)">
     <use xlink:href="#C0_0_4ac3e56e0b" x="295.928251" y="63.61415" style="fill: #f77189"/>
    </g>
    <g clip-path="url(#pea663ba235)">
     <use xlink:href="#C0_0_4ac3e56e0b" x="367.545686" y="62.71445" style="fill: #f77189"/>
    </g>
    <g clip-path="url(#pea663ba235)">
     <use xlink:href="#C0_0_4ac3e56e0b" x="309.249509" y="58.01064" style="fill: #f77189"/>
    </g>
    <g clip-path="url(#pea663ba235)">
     <use xlink:href="#C0_0_4ac3e56e0b" x="208.032743" y="54.179432" style="fill: #f77189"/>
    </g>
    <g clip-path="url(#pea663ba235)">
     <use xlink:href="#C0_0_4ac3e56e0b" x="226.908894" y="66.551662" style="fill: #f77189"/>
    </g>
    <g clip-path="url(#pea663ba235)">
     <use xlink:href="#C0_0_4ac3e56e0b" x="226.025344" y="66.228563" style="fill: #f77189"/>
    </g>
    <g clip-path="url(#pea663ba235)">
     <use xlink:href="#C0_0_4ac3e56e0b" x="409.200231" y="62.997722" style="fill: #f77189"/>
    </g>
    <g clip-path="url(#pea663ba235)">
     <use xlink:href="#C0_0_4ac3e56e0b" x="445.994171" y="58.854092" style="fill: #f77189"/>
    </g>
    <g clip-path="url(#pea663ba235)">
     <use xlink:href="#C0_0_4ac3e56e0b" x="424.258692" y="58.878656" style="fill: #f77189"/>
    </g>
    <g clip-path="url(#pea663ba235)">
     <use xlink:href="#C0_0_4ac3e56e0b" x="465.415368" y="60.489115" style="fill: #f77189"/>
    </g>
    <g clip-path="url(#pea663ba235)">
     <use xlink:href="#C0_0_4ac3e56e0b" x="420.958288" y="67.853765" style="fill: #f77189"/>
    </g>
    <g clip-path="url(#pea663ba235)">
     <use xlink:href="#C0_0_4ac3e56e0b" x="406.331041" y="55.457252" style="fill: #f77189"/>
    </g>
   </g>
   <g id="PathCollection_2">
    <defs>
     <path id="C1_0_d17b24bd95" d="M 0 1.5 
C 0.397805 1.5 0.77937 1.341951 1.06066 1.06066 
C 1.341951 0.77937 1.5 0.397805 1.5 -0 
C 1.5 -0.397805 1.341951 -0.77937 1.06066 -1.06066 
C 0.77937 -1.341951 0.397805 -1.5 0 -1.5 
C -0.397805 -1.5 -0.77937 -1.341951 -1.06066 -1.06066 
C -1.341951 -0.77937 -1.5 -0.397805 -1.5 0 
C -1.5 0.397805 -1.341951 0.77937 -1.06066 1.06066 
C -0.77937 1.341951 -0.397805 1.5 0 1.5 
z
"/>
    </defs>
    <g clip-path="url(#pea663ba235)">
     <use xlink:href="#C1_0_d17b24bd95" x="466.768598" y="133.528524" style="fill: #ae9d31"/>
    </g>
    <g clip-path="url(#pea663ba235)">
     <use xlink:href="#C1_0_d17b24bd95" x="463.87939" y="129.203243" style="fill: #ae9d31"/>
    </g>
    <g clip-path="url(#pea663ba235)">
     <use xlink:href="#C1_0_d17b24bd95" x="479.146867" y="128.199153" style="fill: #ae9d31"/>
    </g>
    <g clip-path="url(#pea663ba235)">
     <use xlink:href="#C1_0_d17b24bd95" x="470.290544" y="135.805187" style="fill: #ae9d31"/>
    </g>
    <g clip-path="url(#pea663ba235)">
     <use xlink:href="#C1_0_d17b24bd95" x="385.7801" y="136.922431" style="fill: #ae9d31"/>
    </g>
    <g clip-path="url(#pea663ba235)">
     <use xlink:href="#C1_0_d17b24bd95" x="381.456828" y="128.913476" style="fill: #ae9d31"/>
    </g>
    <g clip-path="url(#pea663ba235)">
     <use xlink:href="#C1_0_d17b24bd95" x="329.81674" y="137.690231" style="fill: #ae9d31"/>
    </g>
    <g clip-path="url(#pea663ba235)">
     <use xlink:href="#C1_0_d17b24bd95" x="323.170555" y="132.424986" style="fill: #ae9d31"/>
    </g>
    <g clip-path="url(#pea663ba235)">
     <use xlink:href="#C1_0_d17b24bd95" x="369.782005" y="139.790592" style="fill: #ae9d31"/>
    </g>
    <g clip-path="url(#pea663ba235)">
     <use xlink:href="#C1_0_d17b24bd95" x="464.734951" y="133.448523" style="fill: #ae9d31"/>
    </g>
    <g clip-path="url(#pea663ba235)">
     <use xlink:href="#C1_0_d17b24bd95" x="408.497143" y="128.342091" style="fill: #ae9d31"/>
    </g>
    <g clip-path="url(#pea663ba235)">
     <use xlink:href="#C1_0_d17b24bd95" x="433.251168" y="128.625967" style="fill: #ae9d31"/>
    </g>
    <g clip-path="url(#pea663ba235)">
     <use xlink:href="#C1_0_d17b24bd95" x="154.985636" y="137.465195" style="fill: #ae9d31"/>
    </g>
    <g clip-path="url(#pea663ba235)">
     <use xlink:href="#C1_0_d17b24bd95" x="205.72546" y="138.696295" style="fill: #ae9d31"/>
    </g>
    <g clip-path="url(#pea663ba235)">
     <use xlink:href="#C1_0_d17b24bd95" x="138.830586" y="131.454671" style="fill: #ae9d31"/>
    </g>
    <g clip-path="url(#pea663ba235)">
     <use xlink:href="#C1_0_d17b24bd95" x="218.522247" y="139.530072" style="fill: #ae9d31"/>
    </g>
    <g clip-path="url(#pea663ba235)">
     <use xlink:href="#C1_0_d17b24bd95" x="258.868132" y="129.673767" style="fill: #ae9d31"/>
    </g>
    <g clip-path="url(#pea663ba235)">
     <use xlink:href="#C1_0_d17b24bd95" x="396.196558" y="129.479994" style="fill: #ae9d31"/>
    </g>
    <g clip-path="url(#pea663ba235)">
     <use xlink:href="#C1_0_d17b24bd95" x="284.510919" y="136.896327" style="fill: #ae9d31"/>
    </g>
    <g clip-path="url(#pea663ba235)">
     <use xlink:href="#C1_0_d17b24bd95" x="515.953559" y="128.598371" style="fill: #ae9d31"/>
    </g>
    <g clip-path="url(#pea663ba235)">
     <use xlink:href="#C1_0_d17b24bd95" x="176.686727" y="131.611044" style="fill: #ae9d31"/>
    </g>
    <g clip-path="url(#pea663ba235)">
     <use xlink:href="#C1_0_d17b24bd95" x="208.275591" y="131.981858" style="fill: #ae9d31"/>
    </g>
    <g clip-path="url(#pea663ba235)">
     <use xlink:href="#C1_0_d17b24bd95" x="186.552684" y="128.058846" style="fill: #ae9d31"/>
    </g>
    <g clip-path="url(#pea663ba235)">
     <use xlink:href="#C1_0_d17b24bd95" x="432.800084" y="126.047346" style="fill: #ae9d31"/>
    </g>
    <g clip-path="url(#pea663ba235)">
     <use xlink:href="#C1_0_d17b24bd95" x="458.379751" y="129.718298" style="fill: #ae9d31"/>
    </g>
    <g clip-path="url(#pea663ba235)">
     <use xlink:href="#C1_0_d17b24bd95" x="443.256067" y="132.475289" style="fill: #ae9d31"/>
    </g>
    <g clip-path="url(#pea663ba235)">
     <use xlink:href="#C1_0_d17b24bd95" x="523.330755" y="135.75506" style="fill: #ae9d31"/>
    </g>
    <g clip-path="url(#pea663ba235)">
     <use xlink:href="#C1_0_d17b24bd95" x="461.52184" y="139.120353" style="fill: #ae9d31"/>
    </g>
    <g clip-path="url(#pea663ba235)">
     <use xlink:href="#C1_0_d17b24bd95" x="468.64776" y="132.915964" style="fill: #ae9d31"/>
    </g>
   </g>
   <g id="PathCollection_3">
    <defs>
     <path id="C2_0_f0553e6e72" d="M 0 1.5 
C 0.397805 1.5 0.77937 1.341951 1.06066 1.06066 
C 1.341951 0.77937 1.5 0.397805 1.5 -0 
C 1.5 -0.397805 1.341951 -0.77937 1.06066 -1.06066 
C 0.77937 -1.341951 0.397805 -1.5 0 -1.5 
C -0.397805 -1.5 -0.77937 -1.341951 -1.06066 -1.06066 
C -1.341951 -0.77937 -1.5 -0.397805 -1.5 0 
C -1.5 0.397805 -1.341951 0.77937 -1.06066 1.06066 
C -0.77937 1.341951 -0.397805 1.5 0 1.5 
z
"/>
    </defs>
    <g clip-path="url(#pea663ba235)">
     <use xlink:href="#C2_0_f0553e6e72" x="426.818185" y="205.981828" style="fill: #33b07a"/>
    </g>
    <g clip-path="url(#pea663ba235)">
     <use xlink:href="#C2_0_f0553e6e72" x="403.720801" y="204.433734" style="fill: #33b07a"/>
    </g>
    <g clip-path="url(#pea663ba235)">
     <use xlink:href="#C2_0_f0553e6e72" x="433.236846" y="204.121394" style="fill: #33b07a"/>
    </g>
    <g clip-path="url(#pea663ba235)">
     <use xlink:href="#C2_0_f0553e6e72" x="301.577723" y="198.80485" style="fill: #33b07a"/>
    </g>
    <g clip-path="url(#pea663ba235)">
     <use xlink:href="#C2_0_f0553e6e72" x="401.731205" y="207.287249" style="fill: #33b07a"/>
    </g>
    <g clip-path="url(#pea663ba235)">
     <use xlink:href="#C2_0_f0553e6e72" x="462.423915" y="211.68087" style="fill: #33b07a"/>
    </g>
    <g clip-path="url(#pea663ba235)">
     <use xlink:href="#C2_0_f0553e6e72" x="388.236734" y="203.86604" style="fill: #33b07a"/>
    </g>
    <g clip-path="url(#pea663ba235)">
     <use xlink:href="#C2_0_f0553e6e72" x="329.933769" y="200.969741" style="fill: #33b07a"/>
    </g>
    <g clip-path="url(#pea663ba235)">
     <use xlink:href="#C2_0_f0553e6e72" x="305.831947" y="212.57997" style="fill: #33b07a"/>
    </g>
    <g clip-path="url(#pea663ba235)">
     <use xlink:href="#C2_0_f0553e6e72" x="488.014719" y="203.519481" style="fill: #33b07a"/>
    </g>
    <g clip-path="url(#pea663ba235)">
     <use xlink:href="#C2_0_f0553e6e72" x="444.086182" y="199.258528" style="fill: #33b07a"/>
    </g>
    <g clip-path="url(#pea663ba235)">
     <use xlink:href="#C2_0_f0553e6e72" x="446.504638" y="198.59575" style="fill: #33b07a"/>
    </g>
    <g clip-path="url(#pea663ba235)">
     <use xlink:href="#C2_0_f0553e6e72" x="180.613983" y="208.987656" style="fill: #33b07a"/>
    </g>
    <g clip-path="url(#pea663ba235)">
     <use xlink:href="#C2_0_f0553e6e72" x="219.529141" y="210.157482" style="fill: #33b07a"/>
    </g>
    <g clip-path="url(#pea663ba235)">
     <use xlink:href="#C2_0_f0553e6e72" x="158.521401" y="202.426096" style="fill: #33b07a"/>
    </g>
    <g clip-path="url(#pea663ba235)">
     <use xlink:href="#C2_0_f0553e6e72" x="262.18874" y="201.186722" style="fill: #33b07a"/>
    </g>
    <g clip-path="url(#pea663ba235)">
     <use xlink:href="#C2_0_f0553e6e72" x="208.605866" y="205.054935" style="fill: #33b07a"/>
    </g>
    <g clip-path="url(#pea663ba235)">
     <use xlink:href="#C2_0_f0553e6e72" x="213.202863" y="207.42199" style="fill: #33b07a"/>
    </g>
    <g clip-path="url(#pea663ba235)">
     <use xlink:href="#C2_0_f0553e6e72" x="345.141273" y="202.773234" style="fill: #33b07a"/>
    </g>
    <g clip-path="url(#pea663ba235)">
     <use xlink:href="#C2_0_f0553e6e72" x="361.987134" y="199.358961" style="fill: #33b07a"/>
    </g>
    <g clip-path="url(#pea663ba235)">
     <use xlink:href="#C2_0_f0553e6e72" x="429.53539" y="211.393343" style="fill: #33b07a"/>
    </g>
    <g clip-path="url(#pea663ba235)">
     <use xlink:href="#C2_0_f0553e6e72" x="217.282269" y="209.652585" style="fill: #33b07a"/>
    </g>
    <g clip-path="url(#pea663ba235)">
     <use xlink:href="#C2_0_f0553e6e72" x="199.876122" y="201.828474" style="fill: #33b07a"/>
    </g>
    <g clip-path="url(#pea663ba235)">
     <use xlink:href="#C2_0_f0553e6e72" x="145.018536" y="201.93067" style="fill: #33b07a"/>
    </g>
    <g clip-path="url(#pea663ba235)">
     <use xlink:href="#C2_0_f0553e6e72" x="392.101762" y="207.147751" style="fill: #33b07a"/>
    </g>
    <g clip-path="url(#pea663ba235)">
     <use xlink:href="#C2_0_f0553e6e72" x="389.214733" y="208.440693" style="fill: #33b07a"/>
    </g>
    <g clip-path="url(#pea663ba235)">
     <use xlink:href="#C2_0_f0553e6e72" x="401.523295" y="202.684145" style="fill: #33b07a"/>
    </g>
    <g clip-path="url(#pea663ba235)">
     <use xlink:href="#C2_0_f0553e6e72" x="453.488162" y="205.417279" style="fill: #33b07a"/>
    </g>
    <g clip-path="url(#pea663ba235)">
     <use xlink:href="#C2_0_f0553e6e72" x="423.84077" y="208.554682" style="fill: #33b07a"/>
    </g>
    <g clip-path="url(#pea663ba235)">
     <use xlink:href="#C2_0_f0553e6e72" x="396.27079" y="199.055331" style="fill: #33b07a"/>
    </g>
   </g>
   <g id="PathCollection_4">
    <defs>
     <path id="C3_0_245e2bbae1" d="M 0 1.5 
C 0.397805 1.5 0.77937 1.341951 1.06066 1.06066 
C 1.341951 0.77937 1.5 0.397805 1.5 -0 
C 1.5 -0.397805 1.341951 -0.77937 1.06066 -1.06066 
C 0.77937 -1.341951 0.397805 -1.5 0 -1.5 
C -0.397805 -1.5 -0.77937 -1.341951 -1.06066 -1.06066 
C -1.341951 -0.77937 -1.5 -0.397805 -1.5 0 
C -1.5 0.397805 -1.341951 0.77937 -1.06066 1.06066 
C -0.77937 1.341951 -0.397805 1.5 0 1.5 
z
"/>
    </defs>
    <g clip-path="url(#pea663ba235)">
     <use xlink:href="#C3_0_245e2bbae1" x="454.152569" y="282.36859" style="fill: #38a9c5"/>
    </g>
    <g clip-path="url(#pea663ba235)">
     <use xlink:href="#C3_0_245e2bbae1" x="415.842077" y="275.192558" style="fill: #38a9c5"/>
    </g>
    <g clip-path="url(#pea663ba235)">
     <use xlink:href="#C3_0_245e2bbae1" x="441.972184" y="284.321197" style="fill: #38a9c5"/>
    </g>
    <g clip-path="url(#pea663ba235)">
     <use xlink:href="#C3_0_245e2bbae1" x="416.50251" y="279.342408" style="fill: #38a9c5"/>
    </g>
    <g clip-path="url(#pea663ba235)">
     <use xlink:href="#C3_0_245e2bbae1" x="447.050533" y="281.328102" style="fill: #38a9c5"/>
    </g>
    <g clip-path="url(#pea663ba235)">
     <use xlink:href="#C3_0_245e2bbae1" x="426.039834" y="272.915071" style="fill: #38a9c5"/>
    </g>
    <g clip-path="url(#pea663ba235)">
     <use xlink:href="#C3_0_245e2bbae1" x="350.469109" y="282.991282" style="fill: #38a9c5"/>
    </g>
    <g clip-path="url(#pea663ba235)">
     <use xlink:href="#C3_0_245e2bbae1" x="281.027874" y="276.853374" style="fill: #38a9c5"/>
    </g>
    <g clip-path="url(#pea663ba235)">
     <use xlink:href="#C3_0_245e2bbae1" x="363.466329" y="284.403745" style="fill: #38a9c5"/>
    </g>
    <g clip-path="url(#pea663ba235)">
     <use xlink:href="#C3_0_245e2bbae1" x="405.117387" y="279.53053" style="fill: #38a9c5"/>
    </g>
    <g clip-path="url(#pea663ba235)">
     <use xlink:href="#C3_0_245e2bbae1" x="389.658997" y="276.999955" style="fill: #38a9c5"/>
    </g>
    <g clip-path="url(#pea663ba235)">
     <use xlink:href="#C3_0_245e2bbae1" x="447.799531" y="281.540673" style="fill: #38a9c5"/>
    </g>
    <g clip-path="url(#pea663ba235)">
     <use xlink:href="#C3_0_245e2bbae1" x="302.366779" y="275.984113" style="fill: #38a9c5"/>
    </g>
    <g clip-path="url(#pea663ba235)">
     <use xlink:href="#C3_0_245e2bbae1" x="190.802512" y="272.727007" style="fill: #38a9c5"/>
    </g>
    <g clip-path="url(#pea663ba235)">
     <use xlink:href="#C3_0_245e2bbae1" x="195.15924" y="283.807457" style="fill: #38a9c5"/>
    </g>
    <g clip-path="url(#pea663ba235)">
     <use xlink:href="#C3_0_245e2bbae1" x="220.099549" y="273.404619" style="fill: #38a9c5"/>
    </g>
    <g clip-path="url(#pea663ba235)">
     <use xlink:href="#C3_0_245e2bbae1" x="183.778172" y="284.211808" style="fill: #38a9c5"/>
    </g>
    <g clip-path="url(#pea663ba235)">
     <use xlink:href="#C3_0_245e2bbae1" x="277.414778" y="285.101844" style="fill: #38a9c5"/>
    </g>
    <g clip-path="url(#pea663ba235)">
     <use xlink:href="#C3_0_245e2bbae1" x="331.623564" y="283.039305" style="fill: #38a9c5"/>
    </g>
    <g clip-path="url(#pea663ba235)">
     <use xlink:href="#C3_0_245e2bbae1" x="327.70946" y="276.397411" style="fill: #38a9c5"/>
    </g>
    <g clip-path="url(#pea663ba235)">
     <use xlink:href="#C3_0_245e2bbae1" x="422.439175" y="277.204279" style="fill: #38a9c5"/>
    </g>
    <g clip-path="url(#pea663ba235)">
     <use xlink:href="#C3_0_245e2bbae1" x="223.326018" y="284.531948" style="fill: #38a9c5"/>
    </g>
    <g clip-path="url(#pea663ba235)">
     <use xlink:href="#C3_0_245e2bbae1" x="220.330703" y="275.423507" style="fill: #38a9c5"/>
    </g>
    <g clip-path="url(#pea663ba235)">
     <use xlink:href="#C3_0_245e2bbae1" x="256.769012" y="282.368801" style="fill: #38a9c5"/>
    </g>
    <g clip-path="url(#pea663ba235)">
     <use xlink:href="#C3_0_245e2bbae1" x="388.150434" y="273.236964" style="fill: #38a9c5"/>
    </g>
    <g clip-path="url(#pea663ba235)">
     <use xlink:href="#C3_0_245e2bbae1" x="364.077602" y="280.044498" style="fill: #38a9c5"/>
    </g>
    <g clip-path="url(#pea663ba235)">
     <use xlink:href="#C3_0_245e2bbae1" x="376.329232" y="273.456997" style="fill: #38a9c5"/>
    </g>
    <g clip-path="url(#pea663ba235)">
     <use xlink:href="#C3_0_245e2bbae1" x="384.41319" y="283.448864" style="fill: #38a9c5"/>
    </g>
    <g clip-path="url(#pea663ba235)">
     <use xlink:href="#C3_0_245e2bbae1" x="449.080838" y="275.016613" style="fill: #38a9c5"/>
    </g>
    <g clip-path="url(#pea663ba235)">
     <use xlink:href="#C3_0_245e2bbae1" x="465.581038" y="284.91953" style="fill: #38a9c5"/>
    </g>
   </g>
   <g id="PathCollection_5">
    <defs>
     <path id="C4_0_418add8610" d="M 0 1.5 
C 0.397805 1.5 0.77937 1.341951 1.06066 1.06066 
C 1.341951 0.77937 1.5 0.397805 1.5 -0 
C 1.5 -0.397805 1.341951 -0.77937 1.06066 -1.06066 
C 0.77937 -1.341951 0.397805 -1.5 0 -1.5 
C -0.397805 -1.5 -0.77937 -1.341951 -1.06066 -1.06066 
C -1.341951 -0.77937 -1.5 -0.397805 -1.5 0 
C -1.5 0.397805 -1.341951 0.77937 -1.06066 1.06066 
C -0.77937 1.341951 -0.397805 1.5 0 1.5 
z
"/>
    </defs>
    <g clip-path="url(#pea663ba235)">
     <use xlink:href="#C4_0_418add8610" x="527.061106" y="355.805691" style="fill: #cc7af4"/>
    </g>
    <g clip-path="url(#pea663ba235)">
     <use xlink:href="#C4_0_418add8610" x="488.553803" y="348.416411" style="fill: #cc7af4"/>
    </g>
    <g clip-path="url(#pea663ba235)">
     <use xlink:href="#C4_0_418add8610" x="583.16881" y="349.663539" style="fill: #cc7af4"/>
    </g>
    <g clip-path="url(#pea663ba235)">
     <use xlink:href="#C4_0_418add8610" x="347.185077" y="343.674116" style="fill: #cc7af4"/>
    </g>
    <g clip-path="url(#pea663ba235)">
     <use xlink:href="#C4_0_418add8610" x="367.940354" y="357.834471" style="fill: #cc7af4"/>
    </g>
    <g clip-path="url(#pea663ba235)">
     <use xlink:href="#C4_0_418add8610" x="265.345468" y="352.730041" style="fill: #cc7af4"/>
    </g>
    <g clip-path="url(#pea663ba235)">
     <use xlink:href="#C4_0_418add8610" x="526.446155" y="350.559025" style="fill: #cc7af4"/>
    </g>
    <g clip-path="url(#pea663ba235)">
     <use xlink:href="#C4_0_418add8610" x="408.86571" y="355.545306" style="fill: #cc7af4"/>
    </g>
    <g clip-path="url(#pea663ba235)">
     <use xlink:href="#C4_0_418add8610" x="340.646272" y="353.013124" style="fill: #cc7af4"/>
    </g>
    <g clip-path="url(#pea663ba235)">
     <use xlink:href="#C4_0_418add8610" x="455.496092" y="356.508268" style="fill: #cc7af4"/>
    </g>
    <g clip-path="url(#pea663ba235)">
     <use xlink:href="#C4_0_418add8610" x="411.149756" y="351.198966" style="fill: #cc7af4"/>
    </g>
    <g clip-path="url(#pea663ba235)">
     <use xlink:href="#C4_0_418add8610" x="432.222388" y="350.793698" style="fill: #cc7af4"/>
    </g>
    <g clip-path="url(#pea663ba235)">
     <use xlink:href="#C4_0_418add8610" x="136.583505" y="356.327586" style="fill: #cc7af4"/>
    </g>
    <g clip-path="url(#pea663ba235)">
     <use xlink:href="#C4_0_418add8610" x="130.105909" y="352.194832" style="fill: #cc7af4"/>
    </g>
    <g clip-path="url(#pea663ba235)">
     <use xlink:href="#C4_0_418add8610" x="155.198058" y="352.644632" style="fill: #cc7af4"/>
    </g>
    <g clip-path="url(#pea663ba235)">
     <use xlink:href="#C4_0_418add8610" x="289.964403" y="347.744845" style="fill: #cc7af4"/>
    </g>
    <g clip-path="url(#pea663ba235)">
     <use xlink:href="#C4_0_418add8610" x="254.778554" y="350.230921" style="fill: #cc7af4"/>
    </g>
    <g clip-path="url(#pea663ba235)">
     <use xlink:href="#C4_0_418add8610" x="279.761422" y="346.719548" style="fill: #cc7af4"/>
    </g>
    <g clip-path="url(#pea663ba235)">
     <use xlink:href="#C4_0_418add8610" x="320.542652" y="348.20341" style="fill: #cc7af4"/>
    </g>
    <g clip-path="url(#pea663ba235)">
     <use xlink:href="#C4_0_418add8610" x="533.414387" y="350.945205" style="fill: #cc7af4"/>
    </g>
    <g clip-path="url(#pea663ba235)">
     <use xlink:href="#C4_0_418add8610" x="258.7942" y="344.824106" style="fill: #cc7af4"/>
    </g>
    <g clip-path="url(#pea663ba235)">
     <use xlink:href="#C4_0_418add8610" x="151.831001" y="356.386845" style="fill: #cc7af4"/>
    </g>
    <g clip-path="url(#pea663ba235)">
     <use xlink:href="#C4_0_418add8610" x="148.570707" y="344.238941" style="fill: #cc7af4"/>
    </g>
    <g clip-path="url(#pea663ba235)">
     <use xlink:href="#C4_0_418add8610" x="169.279315" y="343.742018" style="fill: #cc7af4"/>
    </g>
    <g clip-path="url(#pea663ba235)">
     <use xlink:href="#C4_0_418add8610" x="347.907106" y="346.334443" style="fill: #cc7af4"/>
    </g>
    <g clip-path="url(#pea663ba235)">
     <use xlink:href="#C4_0_418add8610" x="349.99295" y="345.880367" style="fill: #cc7af4"/>
    </g>
    <g clip-path="url(#pea663ba235)">
     <use xlink:href="#C4_0_418add8610" x="330.776864" y="344.128752" style="fill: #cc7af4"/>
    </g>
    <g clip-path="url(#pea663ba235)">
     <use xlink:href="#C4_0_418add8610" x="499.298455" y="352.223472" style="fill: #cc7af4"/>
    </g>
    <g clip-path="url(#pea663ba235)">
     <use xlink:href="#C4_0_418add8610" x="476.82635" y="347.774963" style="fill: #cc7af4"/>
    </g>
    <g clip-path="url(#pea663ba235)">
     <use xlink:href="#C4_0_418add8610" x="681.624091" y="344.123904" style="fill: #cc7af4"/>
    </g>
   </g>
   <g id="PolyCollection_1">
    <defs>
     <path id="m1815425105" d="M 132.747363 -385.831229 
L 132.747363 -388.027925 
L 137.016064 -387.97921 
L 141.284765 -387.83649 
L 145.553466 -387.624812 
L 149.822168 -387.380413 
L 154.090869 -387.145334 
L 158.35957 -386.962127 
L 162.628271 -386.869764 
L 166.896972 -386.900951 
L 171.165673 -387.080346 
L 175.434374 -387.42287 
L 179.703075 -387.931654 
L 183.971776 -388.595836 
L 188.240478 -389.389119 
L 192.509179 -390.270225 
L 196.77788 -391.185972 
L 201.046581 -392.076856 
L 205.315282 -392.884132 
L 209.583983 -393.556848 
L 213.852684 -394.057412 
L 218.121385 -394.364835 
L 222.390087 -394.475518 
L 226.658788 -394.401976 
L 230.927489 -394.170067 
L 235.19619 -393.815261 
L 239.464891 -393.378466 
L 243.733592 -392.901979 
L 248.002293 -392.426183 
L 252.270994 -391.987513 
L 256.539695 -391.617691 
L 260.808397 -391.343599 
L 265.077098 -391.186649 
L 269.345799 -391.160571 
L 273.6145 -391.267388 
L 277.883201 -391.492632 
L 282.151902 -391.802027 
L 286.420603 -392.142192 
L 290.689304 -392.446987 
L 294.958005 -392.64918 
L 299.226707 -392.694884 
L 303.495408 -392.556748 
L 307.764109 -392.241832 
L 312.03281 -391.791636 
L 316.301511 -391.274244 
L 320.570212 -390.771062 
L 324.838913 -390.362198 
L 329.107614 -390.114623 
L 333.376315 -390.075957 
L 337.645017 -390.274505 
L 341.913718 -390.723923 
L 346.182419 -391.42936 
L 350.45112 -392.391696 
L 354.719821 -393.607493 
L 358.988522 -395.06432 
L 363.257223 -396.7332 
L 367.525924 -398.561439 
L 371.794626 -400.469321 
L 376.063327 -402.35305 
L 380.332028 -404.094368 
L 384.600729 -405.575069 
L 388.86943 -406.693221 
L 393.138131 -407.377484 
L 397.406832 -407.596627 
L 401.675533 -407.362723 
L 405.944234 -406.727922 
L 410.212936 -405.775794 
L 414.481637 -404.608858 
L 418.750338 -403.334179 
L 423.019039 -402.049029 
L 427.28774 -400.828666 
L 431.556441 -399.71814 
L 435.825142 -398.729554 
L 440.093843 -397.84529 
L 444.362544 -397.026514 
L 448.631246 -396.225083 
L 452.899947 -395.39622 
L 457.168648 -394.509196 
L 461.437349 -393.55389 
L 465.70605 -392.542173 
L 469.974751 -391.504334 
L 474.243452 -390.481937 
L 478.512153 -389.519108 
L 482.780854 -388.65443 
L 487.049556 -387.91517 
L 491.318257 -387.314781 
L 495.586958 -386.853675 
L 499.855659 -386.522507 
L 504.12436 -386.306681 
L 508.393061 -386.19076 
L 512.661762 -386.161629 
L 516.930463 -386.209753 
L 521.199164 -386.328359 
L 525.467866 -386.510936 
L 529.736567 -386.747874 
L 534.005268 -387.023448 
L 538.273969 -387.314353 
L 542.54267 -387.590702 
L 546.811371 -387.819711 
L 551.080072 -387.971347 
L 555.348773 -388.024416 
L 555.348773 -385.831229 
L 555.348773 -385.831229 
L 551.080072 -385.831229 
L 546.811371 -385.831229 
L 542.54267 -385.831229 
L 538.273969 -385.831229 
L 534.005268 -385.831229 
L 529.736567 -385.831229 
L 525.467866 -385.831229 
L 521.199164 -385.831229 
L 516.930463 -385.831229 
L 512.661762 -385.831229 
L 508.393061 -385.831229 
L 504.12436 -385.831229 
L 499.855659 -385.831229 
L 495.586958 -385.831229 
L 491.318257 -385.831229 
L 487.049556 -385.831229 
L 482.780854 -385.831229 
L 478.512153 -385.831229 
L 474.243452 -385.831229 
L 469.974751 -385.831229 
L 465.70605 -385.831229 
L 461.437349 -385.831229 
L 457.168648 -385.831229 
L 452.899947 -385.831229 
L 448.631246 -385.831229 
L 444.362544 -385.831229 
L 440.093843 -385.831229 
L 435.825142 -385.831229 
L 431.556441 -385.831229 
L 427.28774 -385.831229 
L 423.019039 -385.831229 
L 418.750338 -385.831229 
L 414.481637 -385.831229 
L 410.212936 -385.831229 
L 405.944234 -385.831229 
L 401.675533 -385.831229 
L 397.406832 -385.831229 
L 393.138131 -385.831229 
L 388.86943 -385.831229 
L 384.600729 -385.831229 
L 380.332028 -385.831229 
L 376.063327 -385.831229 
L 371.794626 -385.831229 
L 367.525924 -385.831229 
L 363.257223 -385.831229 
L 358.988522 -385.831229 
L 354.719821 -385.831229 
L 350.45112 -385.831229 
L 346.182419 -385.831229 
L 341.913718 -385.831229 
L 337.645017 -385.831229 
L 333.376315 -385.831229 
L 329.107614 -385.831229 
L 324.838913 -385.831229 
L 320.570212 -385.831229 
L 316.301511 -385.831229 
L 312.03281 -385.831229 
L 307.764109 -385.831229 
L 303.495408 -385.831229 
L 299.226707 -385.831229 
L 294.958005 -385.831229 
L 290.689304 -385.831229 
L 286.420603 -385.831229 
L 282.151902 -385.831229 
L 277.883201 -385.831229 
L 273.6145 -385.831229 
L 269.345799 -385.831229 
L 265.077098 -385.831229 
L 260.808397 -385.831229 
L 256.539695 -385.831229 
L 252.270994 -385.831229 
L 248.002293 -385.831229 
L 243.733592 -385.831229 
L 239.464891 -385.831229 
L 235.19619 -385.831229 
L 230.927489 -385.831229 
L 226.658788 -385.831229 
L 222.390087 -385.831229 
L 218.121385 -385.831229 
L 213.852684 -385.831229 
L 209.583983 -385.831229 
L 205.315282 -385.831229 
L 201.046581 -385.831229 
L 196.77788 -385.831229 
L 192.509179 -385.831229 
L 188.240478 -385.831229 
L 183.971776 -385.831229 
L 179.703075 -385.831229 
L 175.434374 -385.831229 
L 171.165673 -385.831229 
L 166.896972 -385.831229 
L 162.628271 -385.831229 
L 158.35957 -385.831229 
L 154.090869 -385.831229 
L 149.822168 -385.831229 
L 145.553466 -385.831229 
L 141.284765 -385.831229 
L 137.016064 -385.831229 
L 132.747363 -385.831229 
z
" style="stroke: #434343; stroke-opacity: 0.65"/>
    </defs>
    <g clip-path="url(#pea663ba235)">
     <use xlink:href="#m1815425105" x="0" y="432" style="fill: #e68193; fill-opacity: 0.65; stroke: #434343; stroke-opacity: 0.65"/>
    </g>
   </g>
   <g id="PolyCollection_2">
    <defs>
     <path id="mbd1b111523" d="M 138.830586 -313.279904 
L 138.830586 -317.265867 
L 142.714427 -317.651479 
L 146.598267 -318.01916 
L 150.482107 -318.367228 
L 154.365947 -318.696181 
L 158.249787 -319.00808 
L 162.133627 -319.305648 
L 166.017467 -319.591245 
L 169.901307 -319.865859 
L 173.785147 -320.12827 
L 177.668987 -320.374524 
L 181.552827 -320.597776 
L 185.436667 -320.788596 
L 189.320508 -320.935701 
L 193.204348 -321.027104 
L 197.088188 -321.051557 
L 200.972028 -321.000151 
L 204.855868 -320.867852 
L 208.739708 -320.65475 
L 212.623548 -320.366775 
L 216.507388 -320.015725 
L 220.391228 -319.618509 
L 224.275068 -319.195658 
L 228.158908 -318.769294 
L 232.042748 -318.360841 
L 235.926588 -317.988819 
L 239.810429 -317.66707 
L 243.694269 -317.403673 
L 247.578109 -317.200665 
L 251.461949 -317.054594 
L 255.345789 -316.957737 
L 259.229629 -316.89976 
L 263.113469 -316.869542 
L 266.997309 -316.856872 
L 270.881149 -316.853813 
L 274.764989 -316.85553 
L 278.648829 -316.860546 
L 282.532669 -316.870382 
L 286.41651 -316.888696 
L 290.30035 -316.920058 
L 294.18419 -316.968567 
L 298.06803 -317.036579 
L 301.95187 -317.123783 
L 305.83571 -317.226848 
L 309.71955 -317.339769 
L 313.60339 -317.454901 
L 317.48723 -317.564538 
L 321.37107 -317.662744 
L 325.25491 -317.747062 
L 329.13875 -317.819711 
L 333.022591 -317.887959 
L 336.906431 -317.963499 
L 340.790271 -318.060865 
L 344.674111 -318.195117 
L 348.557951 -318.379199 
L 352.441791 -318.62143 
L 356.325631 -318.923628 
L 360.209471 -319.280203 
L 364.093311 -319.678441 
L 367.977151 -320.099943 
L 371.860991 -320.523033 
L 375.744831 -320.925748 
L 379.628672 -321.288971 
L 383.512512 -321.599224 
L 387.396352 -321.850746 
L 391.280192 -322.046562 
L 395.164032 -322.198437 
L 399.047872 -322.325744 
L 402.931712 -322.453436 
L 406.815552 -322.609384 
L 410.699392 -322.821384 
L 414.583232 -323.114145 
L 418.467072 -323.506488 
L 422.350912 -324.008964 
L 426.234753 -324.622006 
L 430.118593 -325.334741 
L 434.002433 -326.124554 
L 437.886273 -326.957556 
L 441.770113 -327.790073 
L 445.653953 -328.571267 
L 449.537793 -329.246877 
L 453.421633 -329.763907 
L 457.305473 -330.075865 
L 461.189313 -330.147929 
L 465.073153 -329.961325 
L 468.956993 -329.516148 
L 472.840833 -328.832046 
L 476.724674 -327.946483 
L 480.608514 -326.910703 
L 484.492354 -325.783924 
L 488.376194 -324.626629 
L 492.260034 -323.493975 
L 496.143874 -322.430327 
L 500.027714 -321.465686 
L 503.911554 -320.614414 
L 507.795394 -319.876267 
L 511.679234 -319.239306 
L 515.563074 -318.684032 
L 519.446914 -318.187906 
L 523.330755 -317.729505 
L 523.330755 -313.279904 
L 523.330755 -313.279904 
L 519.446914 -313.279904 
L 515.563074 -313.279904 
L 511.679234 -313.279904 
L 507.795394 -313.279904 
L 503.911554 -313.279904 
L 500.027714 -313.279904 
L 496.143874 -313.279904 
L 492.260034 -313.279904 
L 488.376194 -313.279904 
L 484.492354 -313.279904 
L 480.608514 -313.279904 
L 476.724674 -313.279904 
L 472.840833 -313.279904 
L 468.956993 -313.279904 
L 465.073153 -313.279904 
L 461.189313 -313.279904 
L 457.305473 -313.279904 
L 453.421633 -313.279904 
L 449.537793 -313.279904 
L 445.653953 -313.279904 
L 441.770113 -313.279904 
L 437.886273 -313.279904 
L 434.002433 -313.279904 
L 430.118593 -313.279904 
L 426.234753 -313.279904 
L 422.350912 -313.279904 
L 418.467072 -313.279904 
L 414.583232 -313.279904 
L 410.699392 -313.279904 
L 406.815552 -313.279904 
L 402.931712 -313.279904 
L 399.047872 -313.279904 
L 395.164032 -313.279904 
L 391.280192 -313.279904 
L 387.396352 -313.279904 
L 383.512512 -313.279904 
L 379.628672 -313.279904 
L 375.744831 -313.279904 
L 371.860991 -313.279904 
L 367.977151 -313.279904 
L 364.093311 -313.279904 
L 360.209471 -313.279904 
L 356.325631 -313.279904 
L 352.441791 -313.279904 
L 348.557951 -313.279904 
L 344.674111 -313.279904 
L 340.790271 -313.279904 
L 336.906431 -313.279904 
L 333.022591 -313.279904 
L 329.13875 -313.279904 
L 325.25491 -313.279904 
L 321.37107 -313.279904 
L 317.48723 -313.279904 
L 313.60339 -313.279904 
L 309.71955 -313.279904 
L 305.83571 -313.279904 
L 301.95187 -313.279904 
L 298.06803 -313.279904 
L 294.18419 -313.279904 
L 290.30035 -313.279904 
L 286.41651 -313.279904 
L 282.532669 -313.279904 
L 278.648829 -313.279904 
L 274.764989 -313.279904 
L 270.881149 -313.279904 
L 266.997309 -313.279904 
L 263.113469 -313.279904 
L 259.229629 -313.279904 
L 255.345789 -313.279904 
L 251.461949 -313.279904 
L 247.578109 -313.279904 
L 243.694269 -313.279904 
L 239.810429 -313.279904 
L 235.926588 -313.279904 
L 232.042748 -313.279904 
L 228.158908 -313.279904 
L 224.275068 -313.279904 
L 220.391228 -313.279904 
L 216.507388 -313.279904 
L 212.623548 -313.279904 
L 208.739708 -313.279904 
L 204.855868 -313.279904 
L 200.972028 -313.279904 
L 197.088188 -313.279904 
L 193.204348 -313.279904 
L 189.320508 -313.279904 
L 185.436667 -313.279904 
L 181.552827 -313.279904 
L 177.668987 -313.279904 
L 173.785147 -313.279904 
L 169.901307 -313.279904 
L 166.017467 -313.279904 
L 162.133627 -313.279904 
L 158.249787 -313.279904 
L 154.365947 -313.279904 
L 150.482107 -313.279904 
L 146.598267 -313.279904 
L 142.714427 -313.279904 
L 138.830586 -313.279904 
z
" style="stroke: #434343; stroke-opacity: 0.65"/>
    </defs>
    <g clip-path="url(#pea663ba235)">
     <use xlink:href="#mbd1b111523" x="0" y="432" style="fill: #9e9241; fill-opacity: 0.65; stroke: #434343; stroke-opacity: 0.65"/>
    </g>
   </g>
   <g id="PolyCollection_3">
    <defs>
     <path id="m9dcaaeb1bc" d="M 145.018536 -240.728578 
L 145.018536 -244.834049 
L 148.483144 -245.162176 
L 151.947752 -245.451254 
L 155.41236 -245.703977 
L 158.876968 -245.928721 
L 162.341576 -246.1388 
L 165.806184 -246.351008 
L 169.270792 -246.58359 
L 172.7354 -246.853826 
L 176.200008 -247.175472 
L 179.664615 -247.556317 
L 183.129223 -247.996141 
L 186.593831 -248.485364 
L 190.058439 -249.004653 
L 193.523047 -249.525709 
L 196.987655 -250.013324 
L 200.452263 -250.428641 
L 203.916871 -250.733327 
L 207.381479 -250.894183 
L 210.846087 -250.887522 
L 214.310695 -250.702628 
L 217.775302 -250.343678 
L 221.23991 -249.829727 
L 224.704518 -249.19268 
L 228.169126 -248.473547 
L 231.633734 -247.717564 
L 235.098342 -246.969002 
L 238.56295 -246.266494 
L 242.027558 -245.639609 
L 245.492166 -245.10713 
L 248.956774 -244.677131 
L 252.421381 -244.348647 
L 255.885989 -244.114396 
L 259.350597 -243.963896 
L 262.815205 -243.886302 
L 266.279813 -243.872414 
L 269.744421 -243.91555 
L 273.209029 -244.011279 
L 276.673637 -244.156262 
L 280.138245 -244.34665 
L 283.602853 -244.576584 
L 287.067461 -244.837242 
L 290.532068 -245.11675 
L 293.996676 -245.401008 
L 297.461284 -245.675243 
L 300.925892 -245.925912 
L 304.3905 -246.142499 
L 307.855108 -246.318789 
L 311.319716 -246.453366 
L 314.784324 -246.549256 
L 318.248932 -246.612913 
L 321.71354 -246.652844 
L 325.178148 -246.678278 
L 328.642755 -246.698224 
L 332.107363 -246.721137 
L 335.571971 -246.755239 
L 339.036579 -246.809336 
L 342.501187 -246.893849 
L 345.965795 -247.02166 
L 349.430403 -247.208422 
L 352.895011 -247.471999 
L 356.359619 -247.830933 
L 359.824227 -248.301976 
L 363.288835 -248.896997 
L 366.753442 -249.619766 
L 370.21805 -250.463243 
L 373.682658 -251.408045 
L 377.147266 -252.422614 
L 380.611874 -253.465366 
L 384.076482 -254.488684 
L 387.54109 -255.444255 
L 391.005698 -256.288862 
L 394.470306 -256.989592 
L 397.934914 -257.527465 
L 401.399521 -257.898756 
L 404.864129 -258.113781 
L 408.328737 -258.19341 
L 411.793345 -258.164078 
L 415.257953 -258.052334 
L 418.722561 -257.880012 
L 422.187169 -257.66091 
L 425.651777 -257.399488 
L 429.116385 -257.091607 
L 432.580993 -256.726954 
L 436.045601 -256.29249 
L 439.510208 -255.776148 
L 442.974816 -255.170094 
L 446.439424 -254.473011 
L 449.904032 -253.691127 
L 453.36864 -252.837962 
L 456.833248 -251.932949 
L 460.297856 -250.999256 
L 463.762464 -250.061209 
L 467.227072 -249.141724 
L 470.69168 -248.260144 
L 474.156288 -247.430762 
L 477.620895 -246.662191 
L 481.085503 -245.95761 
L 484.550111 -245.315737 
L 488.014719 -244.732268 
L 488.014719 -240.728578 
L 488.014719 -240.728578 
L 484.550111 -240.728578 
L 481.085503 -240.728578 
L 477.620895 -240.728578 
L 474.156288 -240.728578 
L 470.69168 -240.728578 
L 467.227072 -240.728578 
L 463.762464 -240.728578 
L 460.297856 -240.728578 
L 456.833248 -240.728578 
L 453.36864 -240.728578 
L 449.904032 -240.728578 
L 446.439424 -240.728578 
L 442.974816 -240.728578 
L 439.510208 -240.728578 
L 436.045601 -240.728578 
L 432.580993 -240.728578 
L 429.116385 -240.728578 
L 425.651777 -240.728578 
L 422.187169 -240.728578 
L 418.722561 -240.728578 
L 415.257953 -240.728578 
L 411.793345 -240.728578 
L 408.328737 -240.728578 
L 404.864129 -240.728578 
L 401.399521 -240.728578 
L 397.934914 -240.728578 
L 394.470306 -240.728578 
L 391.005698 -240.728578 
L 387.54109 -240.728578 
L 384.076482 -240.728578 
L 380.611874 -240.728578 
L 377.147266 -240.728578 
L 373.682658 -240.728578 
L 370.21805 -240.728578 
L 366.753442 -240.728578 
L 363.288835 -240.728578 
L 359.824227 -240.728578 
L 356.359619 -240.728578 
L 352.895011 -240.728578 
L 349.430403 -240.728578 
L 345.965795 -240.728578 
L 342.501187 -240.728578 
L 339.036579 -240.728578 
L 335.571971 -240.728578 
L 332.107363 -240.728578 
L 328.642755 -240.728578 
L 325.178148 -240.728578 
L 321.71354 -240.728578 
L 318.248932 -240.728578 
L 314.784324 -240.728578 
L 311.319716 -240.728578 
L 307.855108 -240.728578 
L 304.3905 -240.728578 
L 300.925892 -240.728578 
L 297.461284 -240.728578 
L 293.996676 -240.728578 
L 290.532068 -240.728578 
L 287.067461 -240.728578 
L 283.602853 -240.728578 
L 280.138245 -240.728578 
L 276.673637 -240.728578 
L 273.209029 -240.728578 
L 269.744421 -240.728578 
L 266.279813 -240.728578 
L 262.815205 -240.728578 
L 259.350597 -240.728578 
L 255.885989 -240.728578 
L 252.421381 -240.728578 
L 248.956774 -240.728578 
L 245.492166 -240.728578 
L 242.027558 -240.728578 
L 238.56295 -240.728578 
L 235.098342 -240.728578 
L 231.633734 -240.728578 
L 228.169126 -240.728578 
L 224.704518 -240.728578 
L 221.23991 -240.728578 
L 217.775302 -240.728578 
L 214.310695 -240.728578 
L 210.846087 -240.728578 
L 207.381479 -240.728578 
L 203.916871 -240.728578 
L 200.452263 -240.728578 
L 196.987655 -240.728578 
L 193.523047 -240.728578 
L 190.058439 -240.728578 
L 186.593831 -240.728578 
L 183.129223 -240.728578 
L 179.664615 -240.728578 
L 176.200008 -240.728578 
L 172.7354 -240.728578 
L 169.270792 -240.728578 
L 165.806184 -240.728578 
L 162.341576 -240.728578 
L 158.876968 -240.728578 
L 155.41236 -240.728578 
L 151.947752 -240.728578 
L 148.483144 -240.728578 
L 145.018536 -240.728578 
z
" style="stroke: #434343; stroke-opacity: 0.65"/>
    </defs>
    <g clip-path="url(#pea663ba235)">
     <use xlink:href="#m9dcaaeb1bc" x="0" y="432" style="fill: #43a178; fill-opacity: 0.65; stroke: #434343; stroke-opacity: 0.65"/>
    </g>
   </g>
   <g id="PolyCollection_4">
    <defs>
     <path id="m135675919f" d="M 183.778172 -168.177253 
L 183.778172 -175.181863 
L 186.624666 -175.719307 
L 189.471159 -176.184767 
L 192.317653 -176.5744 
L 195.164147 -176.889488 
L 198.01064 -177.134875 
L 200.857134 -177.316838 
L 203.703627 -177.440896 
L 206.550121 -177.510057 
L 209.396615 -177.52394 
L 212.243108 -177.479009 
L 215.089602 -177.369903 
L 217.936095 -177.191558 
L 220.782589 -176.941658 
L 223.629083 -176.622817 
L 226.475576 -176.243999 
L 229.32207 -175.820803 
L 232.168563 -175.374531 
L 235.015057 -174.9302 
L 237.861551 -174.513859 
L 240.708044 -174.149709 
L 243.554538 -173.857512 
L 246.401031 -173.650655 
L 249.247525 -173.535105 
L 252.094019 -173.509276 
L 254.940512 -173.564699 
L 257.787006 -173.687284 
L 260.633499 -173.858941 
L 263.479993 -174.059342 
L 266.326487 -174.267669 
L 269.17298 -174.464236 
L 272.019474 -174.631925 
L 274.865967 -174.757366 
L 277.712461 -174.831829 
L 280.558955 -174.851752 
L 283.405448 -174.818859 
L 286.251942 -174.739852 
L 289.098435 -174.625675 
L 291.944929 -174.490421 
L 294.791422 -174.349979 
L 297.637916 -174.220546 
L 300.48441 -174.117162 
L 303.330903 -174.052398 
L 306.177397 -174.035329 
L 309.02389 -174.070898 
L 311.870384 -174.159741 
L 314.716878 -174.298518 
L 317.563371 -174.480717 
L 320.409865 -174.697844 
L 323.256358 -174.940851 
L 326.102852 -175.201586 
L 328.949346 -175.474025 
L 331.795839 -175.75508 
L 334.642333 -176.044829 
L 337.488826 -176.346133 
L 340.33532 -176.663709 
L 343.181814 -177.002846 
L 346.028307 -177.368008 
L 348.874801 -177.76158 
L 351.721294 -178.182965 
L 354.567788 -178.62815 
L 357.414282 -179.089783 
L 360.260775 -179.557698 
L 363.107269 -180.019768 
L 365.953762 -180.462981 
L 368.800256 -180.874607 
L 371.64675 -181.243368 
L 374.493243 -181.560536 
L 377.339737 -181.820866 
L 380.18623 -182.023296 
L 383.032724 -182.171266 
L 385.879218 -182.272585 
L 388.725711 -182.338754 
L 391.572205 -182.383775 
L 394.418698 -182.42255 
L 397.265192 -182.469111 
L 400.111686 -182.534971 
L 402.958179 -182.627894 
L 405.804673 -182.751324 
L 408.651166 -182.904533 
L 411.49766 -183.083414 
L 414.344154 -183.281638 
L 417.190647 -183.491813 
L 420.037141 -183.706295 
L 422.883634 -183.917394 
L 425.730128 -184.116912 
L 428.576622 -184.29518 
L 431.423115 -184.439954 
L 434.269609 -184.535596 
L 437.116102 -184.562979 
L 439.962596 -184.500362 
L 442.80909 -184.325262 
L 445.655583 -184.01711 
L 448.502077 -183.560211 
L 451.34857 -182.94649 
L 454.195064 -182.177466 
L 457.041558 -181.265075 
L 459.888051 -180.231176 
L 462.734545 -179.105802 
L 465.581038 -177.924482 
L 465.581038 -168.177253 
L 465.581038 -168.177253 
L 462.734545 -168.177253 
L 459.888051 -168.177253 
L 457.041558 -168.177253 
L 454.195064 -168.177253 
L 451.34857 -168.177253 
L 448.502077 -168.177253 
L 445.655583 -168.177253 
L 442.80909 -168.177253 
L 439.962596 -168.177253 
L 437.116102 -168.177253 
L 434.269609 -168.177253 
L 431.423115 -168.177253 
L 428.576622 -168.177253 
L 425.730128 -168.177253 
L 422.883634 -168.177253 
L 420.037141 -168.177253 
L 417.190647 -168.177253 
L 414.344154 -168.177253 
L 411.49766 -168.177253 
L 408.651166 -168.177253 
L 405.804673 -168.177253 
L 402.958179 -168.177253 
L 400.111686 -168.177253 
L 397.265192 -168.177253 
L 394.418698 -168.177253 
L 391.572205 -168.177253 
L 388.725711 -168.177253 
L 385.879218 -168.177253 
L 383.032724 -168.177253 
L 380.18623 -168.177253 
L 377.339737 -168.177253 
L 374.493243 -168.177253 
L 371.64675 -168.177253 
L 368.800256 -168.177253 
L 365.953762 -168.177253 
L 363.107269 -168.177253 
L 360.260775 -168.177253 
L 357.414282 -168.177253 
L 354.567788 -168.177253 
L 351.721294 -168.177253 
L 348.874801 -168.177253 
L 346.028307 -168.177253 
L 343.181814 -168.177253 
L 340.33532 -168.177253 
L 337.488826 -168.177253 
L 334.642333 -168.177253 
L 331.795839 -168.177253 
L 328.949346 -168.177253 
L 326.102852 -168.177253 
L 323.256358 -168.177253 
L 320.409865 -168.177253 
L 317.563371 -168.177253 
L 314.716878 -168.177253 
L 311.870384 -168.177253 
L 309.02389 -168.177253 
L 306.177397 -168.177253 
L 303.330903 -168.177253 
L 300.48441 -168.177253 
L 297.637916 -168.177253 
L 294.791422 -168.177253 
L 291.944929 -168.177253 
L 289.098435 -168.177253 
L 286.251942 -168.177253 
L 283.405448 -168.177253 
L 280.558955 -168.177253 
L 277.712461 -168.177253 
L 274.865967 -168.177253 
L 272.019474 -168.177253 
L 269.17298 -168.177253 
L 266.326487 -168.177253 
L 263.479993 -168.177253 
L 260.633499 -168.177253 
L 257.787006 -168.177253 
L 254.940512 -168.177253 
L 252.094019 -168.177253 
L 249.247525 -168.177253 
L 246.401031 -168.177253 
L 243.554538 -168.177253 
L 240.708044 -168.177253 
L 237.861551 -168.177253 
L 235.015057 -168.177253 
L 232.168563 -168.177253 
L 229.32207 -168.177253 
L 226.475576 -168.177253 
L 223.629083 -168.177253 
L 220.782589 -168.177253 
L 217.936095 -168.177253 
L 215.089602 -168.177253 
L 212.243108 -168.177253 
L 209.396615 -168.177253 
L 206.550121 -168.177253 
L 203.703627 -168.177253 
L 200.857134 -168.177253 
L 198.01064 -168.177253 
L 195.164147 -168.177253 
L 192.317653 -168.177253 
L 189.471159 -168.177253 
L 186.624666 -168.177253 
L 183.778172 -168.177253 
z
" style="stroke: #434343; stroke-opacity: 0.65"/>
    </defs>
    <g clip-path="url(#pea663ba235)">
     <use xlink:href="#m135675919f" x="0" y="432" style="fill: #4a9eb4; fill-opacity: 0.65; stroke: #434343; stroke-opacity: 0.65"/>
    </g>
   </g>
   <g id="PolyCollection_5">
    <defs>
     <path id="m8fb07d479e" d="M 130.105909 -95.625928 
L 130.105909 -102.124107 
L 135.6768 -102.697085 
L 141.247691 -103.091926 
L 146.818581 -103.275591 
L 152.389472 -103.233075 
L 157.960363 -102.969798 
L 163.531253 -102.511242 
L 169.102144 -101.899933 
L 174.673035 -101.190423 
L 180.243926 -100.443216 
L 185.814816 -99.718667 
L 191.385707 -99.071733 
L 196.956598 -98.54807 
L 202.527489 -98.181598 
L 208.098379 -97.993318 
L 213.66927 -97.990992 
L 219.240161 -98.169365 
L 224.811051 -98.510786 
L 230.381942 -98.986312 
L 235.952833 -99.557587 
L 241.523724 -100.179771 
L 247.094614 -100.80562 
L 252.665505 -101.39049 
L 258.236396 -101.897692 
L 263.807287 -102.303289 
L 269.378177 -102.599418 
L 274.949068 -102.795294 
L 280.519959 -102.915457 
L 286.090849 -102.995341 
L 291.66174 -103.074736 
L 297.232631 -103.190211 
L 302.803522 -103.367811 
L 308.374412 -103.617415 
L 313.945303 -103.929883 
L 319.516194 -104.277702 
L 325.087084 -104.619175 
L 330.657975 -104.90551 
L 336.228866 -105.089557 
L 341.799757 -105.134511 
L 347.370647 -105.020872 
L 352.941538 -104.750242 
L 358.512429 -104.345186 
L 364.08332 -103.845223 
L 369.65421 -103.299832 
L 375.225101 -102.759991 
L 380.795992 -102.270017 
L 386.366882 -101.861353 
L 391.937773 -101.549405 
L 397.508664 -101.333789 
L 403.079555 -101.201563 
L 408.650445 -101.1324 
L 414.221336 -101.10432 
L 419.792227 -101.098666 
L 425.363118 -101.103335 
L 430.934008 -101.113838 
L 436.504899 -101.132322 
L 442.07579 -101.165156 
L 447.64668 -101.219898 
L 453.217571 -101.302479 
L 458.788462 -101.415222 
L 464.359353 -101.555982 
L 469.930243 -101.71835 
L 475.501134 -101.892599 
L 481.072025 -102.066907 
L 486.642916 -102.228431 
L 492.213806 -102.364007 
L 497.784697 -102.460489 
L 503.355588 -102.504992 
L 508.926478 -102.485395 
L 514.497369 -102.391384 
L 520.06826 -102.216059 
L 525.639151 -101.957768 
L 531.210041 -101.621606 
L 536.780932 -101.219919 
L 542.351823 -100.771369 
L 547.922713 -100.298538 
L 553.493604 -99.82454 
L 559.064495 -99.369442 
L 564.635386 -98.947449 
L 570.206276 -98.565549 
L 575.777167 -98.2239 
L 581.348058 -97.917727 
L 586.918949 -97.64007 
L 592.489839 -97.384601 
L 598.06073 -97.14775 
L 603.631621 -96.929755 
L 609.202511 -96.734517 
L 614.773402 -96.568532 
L 620.344293 -96.439257 
L 625.915184 -96.353356 
L 631.486074 -96.315126 
L 637.056965 -96.325319 
L 642.627856 -96.380457 
L 648.198747 -96.472674 
L 653.769637 -96.590142 
L 659.340528 -96.718047 
L 664.911419 -96.840108 
L 670.482309 -96.940463 
L 676.0532 -97.005672 
L 681.624091 -97.026498 
L 681.624091 -95.625928 
L 681.624091 -95.625928 
L 676.0532 -95.625928 
L 670.482309 -95.625928 
L 664.911419 -95.625928 
L 659.340528 -95.625928 
L 653.769637 -95.625928 
L 648.198747 -95.625928 
L 642.627856 -95.625928 
L 637.056965 -95.625928 
L 631.486074 -95.625928 
L 625.915184 -95.625928 
L 620.344293 -95.625928 
L 614.773402 -95.625928 
L 609.202511 -95.625928 
L 603.631621 -95.625928 
L 598.06073 -95.625928 
L 592.489839 -95.625928 
L 586.918949 -95.625928 
L 581.348058 -95.625928 
L 575.777167 -95.625928 
L 570.206276 -95.625928 
L 564.635386 -95.625928 
L 559.064495 -95.625928 
L 553.493604 -95.625928 
L 547.922713 -95.625928 
L 542.351823 -95.625928 
L 536.780932 -95.625928 
L 531.210041 -95.625928 
L 525.639151 -95.625928 
L 520.06826 -95.625928 
L 514.497369 -95.625928 
L 508.926478 -95.625928 
L 503.355588 -95.625928 
L 497.784697 -95.625928 
L 492.213806 -95.625928 
L 486.642916 -95.625928 
L 481.072025 -95.625928 
L 475.501134 -95.625928 
L 469.930243 -95.625928 
L 464.359353 -95.625928 
L 458.788462 -95.625928 
L 453.217571 -95.625928 
L 447.64668 -95.625928 
L 442.07579 -95.625928 
L 436.504899 -95.625928 
L 430.934008 -95.625928 
L 425.363118 -95.625928 
L 419.792227 -95.625928 
L 414.221336 -95.625928 
L 408.650445 -95.625928 
L 403.079555 -95.625928 
L 397.508664 -95.625928 
L 391.937773 -95.625928 
L 386.366882 -95.625928 
L 380.795992 -95.625928 
L 375.225101 -95.625928 
L 369.65421 -95.625928 
L 364.08332 -95.625928 
L 358.512429 -95.625928 
L 352.941538 -95.625928 
L 347.370647 -95.625928 
L 341.799757 -95.625928 
L 336.228866 -95.625928 
L 330.657975 -95.625928 
L 325.087084 -95.625928 
L 319.516194 -95.625928 
L 313.945303 -95.625928 
L 308.374412 -95.625928 
L 302.803522 -95.625928 
L 297.232631 -95.625928 
L 291.66174 -95.625928 
L 286.090849 -95.625928 
L 280.519959 -95.625928 
L 274.949068 -95.625928 
L 269.378177 -95.625928 
L 263.807287 -95.625928 
L 258.236396 -95.625928 
L 252.665505 -95.625928 
L 247.094614 -95.625928 
L 241.523724 -95.625928 
L 235.952833 -95.625928 
L 230.381942 -95.625928 
L 224.811051 -95.625928 
L 219.240161 -95.625928 
L 213.66927 -95.625928 
L 208.098379 -95.625928 
L 202.527489 -95.625928 
L 196.956598 -95.625928 
L 191.385707 -95.625928 
L 185.814816 -95.625928 
L 180.243926 -95.625928 
L 174.673035 -95.625928 
L 169.102144 -95.625928 
L 163.531253 -95.625928 
L 157.960363 -95.625928 
L 152.389472 -95.625928 
L 146.818581 -95.625928 
L 141.247691 -95.625928 
L 135.6768 -95.625928 
L 130.105909 -95.625928 
z
" style="stroke: #434343; stroke-opacity: 0.65"/>
    </defs>
    <g clip-path="url(#pea663ba235)">
     <use xlink:href="#m8fb07d479e" x="0" y="432" style="fill: #c789e5; fill-opacity: 0.65; stroke: #434343; stroke-opacity: 0.65"/>
    </g>
   </g>
   <g id="matplotlib.axis_1">
    <g id="xtick_1">
     <g id="line2d_1">
      <defs>
       <path id="m1e2e8c0e5e" d="M 0 0 
L 0 3.5 
" style="stroke: #000000; stroke-width: 0.8"/>
      </defs>
      <g>
       <use xlink:href="#m1e2e8c0e5e" x="155.48994" y="387.16" style="stroke: #000000; stroke-width: 0.8"/>
      </g>
     </g>
     <g id="text_1">
      <!-- 3.5 -->
      <g transform="translate(147.538378 401.758438) scale(0.1 -0.1)">
       <defs>
        <path id="DejaVuSans-33" d="M 2597 2516 
Q 3050 2419 3304 2112 
Q 3559 1806 3559 1356 
Q 3559 666 3084 287 
Q 2609 -91 1734 -91 
Q 1441 -91 1130 -33 
Q 819 25 488 141 
L 488 750 
Q 750 597 1062 519 
Q 1375 441 1716 441 
Q 2309 441 2620 675 
Q 2931 909 2931 1356 
Q 2931 1769 2642 2001 
Q 2353 2234 1838 2234 
L 1294 2234 
L 1294 2753 
L 1863 2753 
Q 2328 2753 2575 2939 
Q 2822 3125 2822 3475 
Q 2822 3834 2567 4026 
Q 2313 4219 1838 4219 
Q 1578 4219 1281 4162 
Q 984 4106 628 3988 
L 628 4550 
Q 988 4650 1302 4700 
Q 1616 4750 1894 4750 
Q 2613 4750 3031 4423 
Q 3450 4097 3450 3541 
Q 3450 3153 3228 2886 
Q 3006 2619 2597 2516 
z
" transform="scale(0.015625)"/>
        <path id="DejaVuSans-2e" d="M 684 794 
L 1344 794 
L 1344 0 
L 684 0 
L 684 794 
z
" transform="scale(0.015625)"/>
        <path id="DejaVuSans-35" d="M 691 4666 
L 3169 4666 
L 3169 4134 
L 1269 4134 
L 1269 2991 
Q 1406 3038 1543 3061 
Q 1681 3084 1819 3084 
Q 2600 3084 3056 2656 
Q 3513 2228 3513 1497 
Q 3513 744 3044 326 
Q 2575 -91 1722 -91 
Q 1428 -91 1123 -41 
Q 819 9 494 109 
L 494 744 
Q 775 591 1075 516 
Q 1375 441 1709 441 
Q 2250 441 2565 725 
Q 2881 1009 2881 1497 
Q 2881 1984 2565 2268 
Q 2250 2553 1709 2553 
Q 1456 2553 1204 2497 
Q 953 2441 691 2322 
L 691 4666 
z
" transform="scale(0.015625)"/>
       </defs>
       <use xlink:href="#DejaVuSans-33"/>
       <use xlink:href="#DejaVuSans-2e" x="63.623047"/>
       <use xlink:href="#DejaVuSans-35" x="95.410156"/>
      </g>
     </g>
    </g>
    <g id="xtick_2">
     <g id="line2d_2">
      <g>
       <use xlink:href="#m1e2e8c0e5e" x="227.87422" y="387.16" style="stroke: #000000; stroke-width: 0.8"/>
      </g>
     </g>
     <g id="text_2">
      <!-- 4.0 -->
      <g transform="translate(219.922657 401.758438) scale(0.1 -0.1)">
       <defs>
        <path id="DejaVuSans-34" d="M 2419 4116 
L 825 1625 
L 2419 1625 
L 2419 4116 
z
M 2253 4666 
L 3047 4666 
L 3047 1625 
L 3713 1625 
L 3713 1100 
L 3047 1100 
L 3047 0 
L 2419 0 
L 2419 1100 
L 313 1100 
L 313 1709 
L 2253 4666 
z
" transform="scale(0.015625)"/>
        <path id="DejaVuSans-30" d="M 2034 4250 
Q 1547 4250 1301 3770 
Q 1056 3291 1056 2328 
Q 1056 1369 1301 889 
Q 1547 409 2034 409 
Q 2525 409 2770 889 
Q 3016 1369 3016 2328 
Q 3016 3291 2770 3770 
Q 2525 4250 2034 4250 
z
M 2034 4750 
Q 2819 4750 3233 4129 
Q 3647 3509 3647 2328 
Q 3647 1150 3233 529 
Q 2819 -91 2034 -91 
Q 1250 -91 836 529 
Q 422 1150 422 2328 
Q 422 3509 836 4129 
Q 1250 4750 2034 4750 
z
" transform="scale(0.015625)"/>
       </defs>
       <use xlink:href="#DejaVuSans-34"/>
       <use xlink:href="#DejaVuSans-2e" x="63.623047"/>
       <use xlink:href="#DejaVuSans-30" x="95.410156"/>
      </g>
     </g>
    </g>
    <g id="xtick_3">
     <g id="line2d_3">
      <g>
       <use xlink:href="#m1e2e8c0e5e" x="300.258499" y="387.16" style="stroke: #000000; stroke-width: 0.8"/>
      </g>
     </g>
     <g id="text_3">
      <!-- 4.5 -->
      <g transform="translate(292.306937 401.758438) scale(0.1 -0.1)">
       <use xlink:href="#DejaVuSans-34"/>
       <use xlink:href="#DejaVuSans-2e" x="63.623047"/>
       <use xlink:href="#DejaVuSans-35" x="95.410156"/>
      </g>
     </g>
    </g>
    <g id="xtick_4">
     <g id="line2d_4">
      <g>
       <use xlink:href="#m1e2e8c0e5e" x="372.642778" y="387.16" style="stroke: #000000; stroke-width: 0.8"/>
      </g>
     </g>
     <g id="text_4">
      <!-- 5.0 -->
      <g transform="translate(364.691216 401.758438) scale(0.1 -0.1)">
       <use xlink:href="#DejaVuSans-35"/>
       <use xlink:href="#DejaVuSans-2e" x="63.623047"/>
       <use xlink:href="#DejaVuSans-30" x="95.410156"/>
      </g>
     </g>
    </g>
    <g id="xtick_5">
     <g id="line2d_5">
      <g>
       <use xlink:href="#m1e2e8c0e5e" x="445.027058" y="387.16" style="stroke: #000000; stroke-width: 0.8"/>
      </g>
     </g>
     <g id="text_5">
      <!-- 5.5 -->
      <g transform="translate(437.075495 401.758438) scale(0.1 -0.1)">
       <use xlink:href="#DejaVuSans-35"/>
       <use xlink:href="#DejaVuSans-2e" x="63.623047"/>
       <use xlink:href="#DejaVuSans-35" x="95.410156"/>
      </g>
     </g>
    </g>
    <g id="xtick_6">
     <g id="line2d_6">
      <g>
       <use xlink:href="#m1e2e8c0e5e" x="517.411337" y="387.16" style="stroke: #000000; stroke-width: 0.8"/>
      </g>
     </g>
     <g id="text_6">
      <!-- 6.0 -->
      <g transform="translate(509.459775 401.758438) scale(0.1 -0.1)">
       <defs>
        <path id="DejaVuSans-36" d="M 2113 2584 
Q 1688 2584 1439 2293 
Q 1191 2003 1191 1497 
Q 1191 994 1439 701 
Q 1688 409 2113 409 
Q 2538 409 2786 701 
Q 3034 994 3034 1497 
Q 3034 2003 2786 2293 
Q 2538 2584 2113 2584 
z
M 3366 4563 
L 3366 3988 
Q 3128 4100 2886 4159 
Q 2644 4219 2406 4219 
Q 1781 4219 1451 3797 
Q 1122 3375 1075 2522 
Q 1259 2794 1537 2939 
Q 1816 3084 2150 3084 
Q 2853 3084 3261 2657 
Q 3669 2231 3669 1497 
Q 3669 778 3244 343 
Q 2819 -91 2113 -91 
Q 1303 -91 875 529 
Q 447 1150 447 2328 
Q 447 3434 972 4092 
Q 1497 4750 2381 4750 
Q 2619 4750 2861 4703 
Q 3103 4656 3366 4563 
z
" transform="scale(0.015625)"/>
       </defs>
       <use xlink:href="#DejaVuSans-36"/>
       <use xlink:href="#DejaVuSans-2e" x="63.623047"/>
       <use xlink:href="#DejaVuSans-30" x="95.410156"/>
      </g>
     </g>
    </g>
    <g id="xtick_7">
     <g id="line2d_7">
      <g>
       <use xlink:href="#m1e2e8c0e5e" x="589.795617" y="387.16" style="stroke: #000000; stroke-width: 0.8"/>
      </g>
     </g>
     <g id="text_7">
      <!-- 6.5 -->
      <g transform="translate(581.844054 401.758438) scale(0.1 -0.1)">
       <use xlink:href="#DejaVuSans-36"/>
       <use xlink:href="#DejaVuSans-2e" x="63.623047"/>
       <use xlink:href="#DejaVuSans-35" x="95.410156"/>
      </g>
     </g>
    </g>
    <g id="xtick_8">
     <g id="line2d_8">
      <g>
       <use xlink:href="#m1e2e8c0e5e" x="662.179896" y="387.16" style="stroke: #000000; stroke-width: 0.8"/>
      </g>
     </g>
     <g id="text_8">
      <!-- 7.0 -->
      <g transform="translate(654.228334 401.758438) scale(0.1 -0.1)">
       <defs>
        <path id="DejaVuSans-37" d="M 525 4666 
L 3525 4666 
L 3525 4397 
L 1831 0 
L 1172 0 
L 2766 4134 
L 525 4134 
L 525 4666 
z
" transform="scale(0.015625)"/>
       </defs>
       <use xlink:href="#DejaVuSans-37"/>
       <use xlink:href="#DejaVuSans-2e" x="63.623047"/>
       <use xlink:href="#DejaVuSans-30" x="95.410156"/>
      </g>
     </g>
    </g>
    <g id="text_9">
     <!-- $log([MMP9]/[Total Protein])$ -->
     <g transform="translate(339.765 415.438125) scale(0.1 -0.1)">
      <defs>
       <path id="DejaVuSans-Oblique-6c" d="M 1172 4863 
L 1747 4863 
L 800 0 
L 225 0 
L 1172 4863 
z
" transform="scale(0.015625)"/>
       <path id="DejaVuSans-Oblique-6f" d="M 1625 -91 
Q 1009 -91 651 289 
Q 294 669 294 1325 
Q 294 1706 417 2101 
Q 541 2497 738 2766 
Q 1047 3184 1428 3384 
Q 1809 3584 2291 3584 
Q 2888 3584 3255 3212 
Q 3622 2841 3622 2241 
Q 3622 1825 3500 1412 
Q 3378 1000 3181 728 
Q 2875 309 2494 109 
Q 2113 -91 1625 -91 
z
M 891 1344 
Q 891 869 1089 633 
Q 1288 397 1691 397 
Q 2269 397 2648 901 
Q 3028 1406 3028 2181 
Q 3028 2634 2825 2865 
Q 2622 3097 2228 3097 
Q 1903 3097 1650 2945 
Q 1397 2794 1197 2484 
Q 1050 2253 970 1956 
Q 891 1659 891 1344 
z
" transform="scale(0.015625)"/>
       <path id="DejaVuSans-Oblique-67" d="M 3816 3500 
L 3219 434 
Q 3047 -456 2561 -893 
Q 2075 -1331 1253 -1331 
Q 950 -1331 690 -1286 
Q 431 -1241 206 -1147 
L 313 -588 
Q 525 -725 762 -790 
Q 1000 -856 1269 -856 
Q 1816 -856 2167 -557 
Q 2519 -259 2631 300 
L 2681 563 
Q 2441 288 2122 144 
Q 1803 0 1434 0 
Q 903 0 598 351 
Q 294 703 294 1319 
Q 294 1803 478 2267 
Q 663 2731 997 3091 
Q 1219 3328 1514 3456 
Q 1809 3584 2131 3584 
Q 2484 3584 2746 3420 
Q 3009 3256 3138 2956 
L 3238 3500 
L 3816 3500 
z
M 2950 2216 
Q 2950 2641 2750 2872 
Q 2550 3103 2181 3103 
Q 1953 3103 1747 3012 
Q 1541 2922 1394 2759 
Q 1156 2491 1023 2127 
Q 891 1763 891 1375 
Q 891 944 1092 712 
Q 1294 481 1672 481 
Q 2219 481 2584 976 
Q 2950 1472 2950 2216 
z
" transform="scale(0.015625)"/>
       <path id="DejaVuSans-28" d="M 1984 4856 
Q 1566 4138 1362 3434 
Q 1159 2731 1159 2009 
Q 1159 1288 1364 580 
Q 1569 -128 1984 -844 
L 1484 -844 
Q 1016 -109 783 600 
Q 550 1309 550 2009 
Q 550 2706 781 3412 
Q 1013 4119 1484 4856 
L 1984 4856 
z
" transform="scale(0.015625)"/>
       <path id="DejaVuSans-5b" d="M 550 4863 
L 1875 4863 
L 1875 4416 
L 1125 4416 
L 1125 -397 
L 1875 -397 
L 1875 -844 
L 550 -844 
L 550 4863 
z
" transform="scale(0.015625)"/>
       <path id="DejaVuSans-Oblique-4d" d="M 1081 4666 
L 2028 4666 
L 2572 1522 
L 4378 4666 
L 5350 4666 
L 4441 0 
L 3828 0 
L 4622 4091 
L 2791 897 
L 2175 897 
L 1581 4103 
L 788 0 
L 172 0 
L 1081 4666 
z
" transform="scale(0.015625)"/>
       <path id="DejaVuSans-Oblique-50" d="M 1081 4666 
L 2541 4666 
Q 3178 4666 3512 4369 
Q 3847 4072 3847 3500 
Q 3847 2731 3353 2303 
Q 2859 1875 1966 1875 
L 1172 1875 
L 806 0 
L 172 0 
L 1081 4666 
z
M 1613 4147 
L 1275 2394 
L 2069 2394 
Q 2606 2394 2893 2669 
Q 3181 2944 3181 3456 
Q 3181 3784 2986 3965 
Q 2791 4147 2438 4147 
L 1613 4147 
z
" transform="scale(0.015625)"/>
       <path id="DejaVuSans-39" d="M 703 97 
L 703 672 
Q 941 559 1184 500 
Q 1428 441 1663 441 
Q 2288 441 2617 861 
Q 2947 1281 2994 2138 
Q 2813 1869 2534 1725 
Q 2256 1581 1919 1581 
Q 1219 1581 811 2004 
Q 403 2428 403 3163 
Q 403 3881 828 4315 
Q 1253 4750 1959 4750 
Q 2769 4750 3195 4129 
Q 3622 3509 3622 2328 
Q 3622 1225 3098 567 
Q 2575 -91 1691 -91 
Q 1453 -91 1209 -44 
Q 966 3 703 97 
z
M 1959 2075 
Q 2384 2075 2632 2365 
Q 2881 2656 2881 3163 
Q 2881 3666 2632 3958 
Q 2384 4250 1959 4250 
Q 1534 4250 1286 3958 
Q 1038 3666 1038 3163 
Q 1038 2656 1286 2365 
Q 1534 2075 1959 2075 
z
" transform="scale(0.015625)"/>
       <path id="DejaVuSans-5d" d="M 1947 4863 
L 1947 -844 
L 622 -844 
L 622 -397 
L 1369 -397 
L 1369 4416 
L 622 4416 
L 622 4863 
L 1947 4863 
z
" transform="scale(0.015625)"/>
       <path id="DejaVuSans-2f" d="M 1625 4666 
L 2156 4666 
L 531 -594 
L 0 -594 
L 1625 4666 
z
" transform="scale(0.015625)"/>
       <path id="DejaVuSans-Oblique-54" d="M 378 4666 
L 4325 4666 
L 4225 4134 
L 2559 4134 
L 1759 0 
L 1125 0 
L 1925 4134 
L 275 4134 
L 378 4666 
z
" transform="scale(0.015625)"/>
       <path id="DejaVuSans-Oblique-74" d="M 2706 3500 
L 2619 3053 
L 1472 3053 
L 1100 1153 
Q 1081 1047 1072 975 
Q 1063 903 1063 863 
Q 1063 663 1183 572 
Q 1303 481 1569 481 
L 2150 481 
L 2053 0 
L 1503 0 
Q 991 0 739 200 
Q 488 400 488 806 
Q 488 878 497 964 
Q 506 1050 525 1153 
L 897 3053 
L 409 3053 
L 500 3500 
L 978 3500 
L 1172 4494 
L 1747 4494 
L 1556 3500 
L 2706 3500 
z
" transform="scale(0.015625)"/>
       <path id="DejaVuSans-Oblique-61" d="M 3438 1997 
L 3047 0 
L 2472 0 
L 2578 531 
Q 2325 219 2001 64 
Q 1678 -91 1281 -91 
Q 834 -91 548 182 
Q 263 456 263 884 
Q 263 1497 752 1853 
Q 1241 2209 2100 2209 
L 2900 2209 
L 2931 2363 
Q 2938 2388 2941 2417 
Q 2944 2447 2944 2509 
Q 2944 2788 2717 2942 
Q 2491 3097 2081 3097 
Q 1800 3097 1504 3025 
Q 1209 2953 897 2809 
L 997 3341 
Q 1322 3463 1633 3523 
Q 1944 3584 2234 3584 
Q 2853 3584 3176 3315 
Q 3500 3047 3500 2534 
Q 3500 2431 3484 2292 
Q 3469 2153 3438 1997 
z
M 2816 1759 
L 2241 1759 
Q 1534 1759 1195 1570 
Q 856 1381 856 984 
Q 856 709 1029 553 
Q 1203 397 1509 397 
Q 1978 397 2328 733 
Q 2678 1069 2791 1631 
L 2816 1759 
z
" transform="scale(0.015625)"/>
       <path id="DejaVuSans-Oblique-72" d="M 2853 2969 
Q 2766 3016 2653 3041 
Q 2541 3066 2413 3066 
Q 1953 3066 1609 2717 
Q 1266 2369 1153 1784 
L 800 0 
L 225 0 
L 909 3500 
L 1484 3500 
L 1375 2956 
Q 1603 3259 1920 3421 
Q 2238 3584 2597 3584 
Q 2691 3584 2781 3573 
Q 2872 3563 2963 3538 
L 2853 2969 
z
" transform="scale(0.015625)"/>
       <path id="DejaVuSans-Oblique-65" d="M 3078 2063 
Q 3088 2113 3092 2166 
Q 3097 2219 3097 2272 
Q 3097 2653 2873 2875 
Q 2650 3097 2266 3097 
Q 1838 3097 1509 2826 
Q 1181 2556 1013 2059 
L 3078 2063 
z
M 3578 1613 
L 903 1613 
Q 884 1494 878 1425 
Q 872 1356 872 1306 
Q 872 872 1139 634 
Q 1406 397 1894 397 
Q 2269 397 2603 481 
Q 2938 566 3225 728 
L 3116 159 
Q 2806 34 2476 -28 
Q 2147 -91 1806 -91 
Q 1078 -91 686 257 
Q 294 606 294 1247 
Q 294 1794 489 2264 
Q 684 2734 1063 3103 
Q 1306 3334 1642 3459 
Q 1978 3584 2356 3584 
Q 2950 3584 3301 3228 
Q 3653 2872 3653 2272 
Q 3653 2128 3634 1964 
Q 3616 1800 3578 1613 
z
" transform="scale(0.015625)"/>
       <path id="DejaVuSans-Oblique-69" d="M 1172 4863 
L 1747 4863 
L 1606 4134 
L 1031 4134 
L 1172 4863 
z
M 909 3500 
L 1484 3500 
L 800 0 
L 225 0 
L 909 3500 
z
" transform="scale(0.015625)"/>
       <path id="DejaVuSans-Oblique-6e" d="M 3566 2113 
L 3156 0 
L 2578 0 
L 2988 2091 
Q 3016 2238 3031 2350 
Q 3047 2463 3047 2528 
Q 3047 2791 2881 2937 
Q 2716 3084 2419 3084 
Q 1956 3084 1622 2776 
Q 1288 2469 1184 1941 
L 800 0 
L 225 0 
L 903 3500 
L 1478 3500 
L 1363 2950 
Q 1603 3253 1940 3418 
Q 2278 3584 2650 3584 
Q 3113 3584 3367 3334 
Q 3622 3084 3622 2631 
Q 3622 2519 3608 2391 
Q 3594 2263 3566 2113 
z
" transform="scale(0.015625)"/>
       <path id="DejaVuSans-29" d="M 513 4856 
L 1013 4856 
Q 1481 4119 1714 3412 
Q 1947 2706 1947 2009 
Q 1947 1309 1714 600 
Q 1481 -109 1013 -844 
L 513 -844 
Q 928 -128 1133 580 
Q 1338 1288 1338 2009 
Q 1338 2731 1133 3434 
Q 928 4138 513 4856 
z
" transform="scale(0.015625)"/>
      </defs>
      <use xlink:href="#DejaVuSans-Oblique-6c" transform="translate(0 0.015625)"/>
      <use xlink:href="#DejaVuSans-Oblique-6f" transform="translate(27.783203 0.015625)"/>
      <use xlink:href="#DejaVuSans-Oblique-67" transform="translate(88.964844 0.015625)"/>
      <use xlink:href="#DejaVuSans-28" transform="translate(152.441406 0.015625)"/>
      <use xlink:href="#DejaVuSans-5b" transform="translate(191.455078 0.015625)"/>
      <use xlink:href="#DejaVuSans-Oblique-4d" transform="translate(230.46875 0.015625)"/>
      <use xlink:href="#DejaVuSans-Oblique-4d" transform="translate(316.748047 0.015625)"/>
      <use xlink:href="#DejaVuSans-Oblique-50" transform="translate(403.027344 0.015625)"/>
      <use xlink:href="#DejaVuSans-39" transform="translate(463.330078 0.015625)"/>
      <use xlink:href="#DejaVuSans-5d" transform="translate(526.953125 0.015625)"/>
      <use xlink:href="#DejaVuSans-2f" transform="translate(565.966797 0.015625)"/>
      <use xlink:href="#DejaVuSans-5b" transform="translate(599.658203 0.015625)"/>
      <use xlink:href="#DejaVuSans-Oblique-54" transform="translate(638.671875 0.015625)"/>
      <use xlink:href="#DejaVuSans-Oblique-6f" transform="translate(699.755859 0.015625)"/>
      <use xlink:href="#DejaVuSans-Oblique-74" transform="translate(760.9375 0.015625)"/>
      <use xlink:href="#DejaVuSans-Oblique-61" transform="translate(800.146484 0.015625)"/>
      <use xlink:href="#DejaVuSans-Oblique-6c" transform="translate(861.425781 0.015625)"/>
      <use xlink:href="#DejaVuSans-Oblique-50" transform="translate(889.208984 0.015625)"/>
      <use xlink:href="#DejaVuSans-Oblique-72" transform="translate(949.511719 0.015625)"/>
      <use xlink:href="#DejaVuSans-Oblique-6f" transform="translate(990.625 0.015625)"/>
      <use xlink:href="#DejaVuSans-Oblique-74" transform="translate(1051.806641 0.015625)"/>
      <use xlink:href="#DejaVuSans-Oblique-65" transform="translate(1091.015625 0.015625)"/>
      <use xlink:href="#DejaVuSans-Oblique-69" transform="translate(1152.539062 0.015625)"/>
      <use xlink:href="#DejaVuSans-Oblique-6e" transform="translate(1180.322266 0.015625)"/>
      <use xlink:href="#DejaVuSans-5d" transform="translate(1243.701172 0.015625)"/>
      <use xlink:href="#DejaVuSans-29" transform="translate(1282.714844 0.015625)"/>
     </g>
    </g>
   </g>
   <g id="matplotlib.axis_2">
    <g id="ytick_1">
     <g id="line2d_9">
      <defs>
       <path id="mcf752d5fac" d="M 0 0 
L -3.5 0 
" style="stroke: #000000; stroke-width: 0.8"/>
      </defs>
      <g>
       <use xlink:href="#mcf752d5fac" x="102.53" y="60.679036" style="stroke: #000000; stroke-width: 0.8"/>
      </g>
     </g>
     <g id="text_10">
      <!-- Reference -->
      <g transform="translate(45.176875 64.478255) scale(0.1 -0.1)">
       <defs>
        <path id="DejaVuSans-52" d="M 2841 2188 
Q 3044 2119 3236 1894 
Q 3428 1669 3622 1275 
L 4263 0 
L 3584 0 
L 2988 1197 
Q 2756 1666 2539 1819 
Q 2322 1972 1947 1972 
L 1259 1972 
L 1259 0 
L 628 0 
L 628 4666 
L 2053 4666 
Q 2853 4666 3247 4331 
Q 3641 3997 3641 3322 
Q 3641 2881 3436 2590 
Q 3231 2300 2841 2188 
z
M 1259 4147 
L 1259 2491 
L 2053 2491 
Q 2509 2491 2742 2702 
Q 2975 2913 2975 3322 
Q 2975 3731 2742 3939 
Q 2509 4147 2053 4147 
L 1259 4147 
z
" transform="scale(0.015625)"/>
        <path id="DejaVuSans-65" d="M 3597 1894 
L 3597 1613 
L 953 1613 
Q 991 1019 1311 708 
Q 1631 397 2203 397 
Q 2534 397 2845 478 
Q 3156 559 3463 722 
L 3463 178 
Q 3153 47 2828 -22 
Q 2503 -91 2169 -91 
Q 1331 -91 842 396 
Q 353 884 353 1716 
Q 353 2575 817 3079 
Q 1281 3584 2069 3584 
Q 2775 3584 3186 3129 
Q 3597 2675 3597 1894 
z
M 3022 2063 
Q 3016 2534 2758 2815 
Q 2500 3097 2075 3097 
Q 1594 3097 1305 2825 
Q 1016 2553 972 2059 
L 3022 2063 
z
" transform="scale(0.015625)"/>
        <path id="DejaVuSans-66" d="M 2375 4863 
L 2375 4384 
L 1825 4384 
Q 1516 4384 1395 4259 
Q 1275 4134 1275 3809 
L 1275 3500 
L 2222 3500 
L 2222 3053 
L 1275 3053 
L 1275 0 
L 697 0 
L 697 3053 
L 147 3053 
L 147 3500 
L 697 3500 
L 697 3744 
Q 697 4328 969 4595 
Q 1241 4863 1831 4863 
L 2375 4863 
z
" transform="scale(0.015625)"/>
        <path id="DejaVuSans-72" d="M 2631 2963 
Q 2534 3019 2420 3045 
Q 2306 3072 2169 3072 
Q 1681 3072 1420 2755 
Q 1159 2438 1159 1844 
L 1159 0 
L 581 0 
L 581 3500 
L 1159 3500 
L 1159 2956 
Q 1341 3275 1631 3429 
Q 1922 3584 2338 3584 
Q 2397 3584 2469 3576 
Q 2541 3569 2628 3553 
L 2631 2963 
z
" transform="scale(0.015625)"/>
        <path id="DejaVuSans-6e" d="M 3513 2113 
L 3513 0 
L 2938 0 
L 2938 2094 
Q 2938 2591 2744 2837 
Q 2550 3084 2163 3084 
Q 1697 3084 1428 2787 
Q 1159 2491 1159 1978 
L 1159 0 
L 581 0 
L 581 3500 
L 1159 3500 
L 1159 2956 
Q 1366 3272 1645 3428 
Q 1925 3584 2291 3584 
Q 2894 3584 3203 3211 
Q 3513 2838 3513 2113 
z
" transform="scale(0.015625)"/>
        <path id="DejaVuSans-63" d="M 3122 3366 
L 3122 2828 
Q 2878 2963 2633 3030 
Q 2388 3097 2138 3097 
Q 1578 3097 1268 2742 
Q 959 2388 959 1747 
Q 959 1106 1268 751 
Q 1578 397 2138 397 
Q 2388 397 2633 464 
Q 2878 531 3122 666 
L 3122 134 
Q 2881 22 2623 -34 
Q 2366 -91 2075 -91 
Q 1284 -91 818 406 
Q 353 903 353 1747 
Q 353 2603 823 3093 
Q 1294 3584 2113 3584 
Q 2378 3584 2631 3529 
Q 2884 3475 3122 3366 
z
" transform="scale(0.015625)"/>
       </defs>
       <use xlink:href="#DejaVuSans-52"/>
       <use xlink:href="#DejaVuSans-65" x="64.982422"/>
       <use xlink:href="#DejaVuSans-66" x="126.505859"/>
       <use xlink:href="#DejaVuSans-65" x="161.710938"/>
       <use xlink:href="#DejaVuSans-72" x="223.234375"/>
       <use xlink:href="#DejaVuSans-65" x="262.097656"/>
       <use xlink:href="#DejaVuSans-6e" x="323.621094"/>
       <use xlink:href="#DejaVuSans-63" x="387"/>
       <use xlink:href="#DejaVuSans-65" x="441.980469"/>
      </g>
     </g>
    </g>
    <g id="ytick_2">
     <g id="line2d_10">
      <g>
       <use xlink:href="#mcf752d5fac" x="102.53" y="133.230361" style="stroke: #000000; stroke-width: 0.8"/>
      </g>
     </g>
     <g id="text_11">
      <!-- 24h 4C +PBS -->
      <g transform="translate(24.609688 137.02958) scale(0.1 -0.1)">
       <defs>
        <path id="DejaVuSans-32" d="M 1228 531 
L 3431 531 
L 3431 0 
L 469 0 
L 469 531 
Q 828 903 1448 1529 
Q 2069 2156 2228 2338 
Q 2531 2678 2651 2914 
Q 2772 3150 2772 3378 
Q 2772 3750 2511 3984 
Q 2250 4219 1831 4219 
Q 1534 4219 1204 4116 
Q 875 4013 500 3803 
L 500 4441 
Q 881 4594 1212 4672 
Q 1544 4750 1819 4750 
Q 2544 4750 2975 4387 
Q 3406 4025 3406 3419 
Q 3406 3131 3298 2873 
Q 3191 2616 2906 2266 
Q 2828 2175 2409 1742 
Q 1991 1309 1228 531 
z
" transform="scale(0.015625)"/>
        <path id="DejaVuSans-68" d="M 3513 2113 
L 3513 0 
L 2938 0 
L 2938 2094 
Q 2938 2591 2744 2837 
Q 2550 3084 2163 3084 
Q 1697 3084 1428 2787 
Q 1159 2491 1159 1978 
L 1159 0 
L 581 0 
L 581 4863 
L 1159 4863 
L 1159 2956 
Q 1366 3272 1645 3428 
Q 1925 3584 2291 3584 
Q 2894 3584 3203 3211 
Q 3513 2838 3513 2113 
z
" transform="scale(0.015625)"/>
        <path id="DejaVuSans-20" transform="scale(0.015625)"/>
        <path id="DejaVuSans-ba" d="M 434 1850 
L 2584 1850 
L 2584 1466 
L 434 1466 
L 434 1850 
z
M 1509 4750 
Q 2069 4750 2391 4404 
Q 2713 4059 2713 3463 
Q 2713 2866 2391 2523 
Q 2069 2181 1509 2181 
Q 950 2181 625 2525 
Q 300 2869 300 3463 
Q 300 4059 625 4404 
Q 950 4750 1509 4750 
z
M 1509 4391 
Q 1181 4391 984 4139 
Q 788 3888 788 3463 
Q 788 3047 986 2797 
Q 1184 2547 1509 2547 
Q 1838 2547 2033 2797 
Q 2228 3047 2228 3463 
Q 2228 3891 2034 4141 
Q 1841 4391 1509 4391 
z
" transform="scale(0.015625)"/>
        <path id="DejaVuSans-43" d="M 4122 4306 
L 4122 3641 
Q 3803 3938 3442 4084 
Q 3081 4231 2675 4231 
Q 1875 4231 1450 3742 
Q 1025 3253 1025 2328 
Q 1025 1406 1450 917 
Q 1875 428 2675 428 
Q 3081 428 3442 575 
Q 3803 722 4122 1019 
L 4122 359 
Q 3791 134 3420 21 
Q 3050 -91 2638 -91 
Q 1578 -91 968 557 
Q 359 1206 359 2328 
Q 359 3453 968 4101 
Q 1578 4750 2638 4750 
Q 3056 4750 3426 4639 
Q 3797 4528 4122 4306 
z
" transform="scale(0.015625)"/>
        <path id="DejaVuSans-2b" d="M 2944 4013 
L 2944 2272 
L 4684 2272 
L 4684 1741 
L 2944 1741 
L 2944 0 
L 2419 0 
L 2419 1741 
L 678 1741 
L 678 2272 
L 2419 2272 
L 2419 4013 
L 2944 4013 
z
" transform="scale(0.015625)"/>
        <path id="DejaVuSans-50" d="M 1259 4147 
L 1259 2394 
L 2053 2394 
Q 2494 2394 2734 2622 
Q 2975 2850 2975 3272 
Q 2975 3691 2734 3919 
Q 2494 4147 2053 4147 
L 1259 4147 
z
M 628 4666 
L 2053 4666 
Q 2838 4666 3239 4311 
Q 3641 3956 3641 3272 
Q 3641 2581 3239 2228 
Q 2838 1875 2053 1875 
L 1259 1875 
L 1259 0 
L 628 0 
L 628 4666 
z
" transform="scale(0.015625)"/>
        <path id="DejaVuSans-42" d="M 1259 2228 
L 1259 519 
L 2272 519 
Q 2781 519 3026 730 
Q 3272 941 3272 1375 
Q 3272 1813 3026 2020 
Q 2781 2228 2272 2228 
L 1259 2228 
z
M 1259 4147 
L 1259 2741 
L 2194 2741 
Q 2656 2741 2882 2914 
Q 3109 3088 3109 3444 
Q 3109 3797 2882 3972 
Q 2656 4147 2194 4147 
L 1259 4147 
z
M 628 4666 
L 2241 4666 
Q 2963 4666 3353 4366 
Q 3744 4066 3744 3513 
Q 3744 3084 3544 2831 
Q 3344 2578 2956 2516 
Q 3422 2416 3680 2098 
Q 3938 1781 3938 1306 
Q 3938 681 3513 340 
Q 3088 0 2303 0 
L 628 0 
L 628 4666 
z
" transform="scale(0.015625)"/>
        <path id="DejaVuSans-53" d="M 3425 4513 
L 3425 3897 
Q 3066 4069 2747 4153 
Q 2428 4238 2131 4238 
Q 1616 4238 1336 4038 
Q 1056 3838 1056 3469 
Q 1056 3159 1242 3001 
Q 1428 2844 1947 2747 
L 2328 2669 
Q 3034 2534 3370 2195 
Q 3706 1856 3706 1288 
Q 3706 609 3251 259 
Q 2797 -91 1919 -91 
Q 1588 -91 1214 -16 
Q 841 59 441 206 
L 441 856 
Q 825 641 1194 531 
Q 1563 422 1919 422 
Q 2459 422 2753 634 
Q 3047 847 3047 1241 
Q 3047 1584 2836 1778 
Q 2625 1972 2144 2069 
L 1759 2144 
Q 1053 2284 737 2584 
Q 422 2884 422 3419 
Q 422 4038 858 4394 
Q 1294 4750 2059 4750 
Q 2388 4750 2728 4690 
Q 3069 4631 3425 4513 
z
" transform="scale(0.015625)"/>
       </defs>
       <use xlink:href="#DejaVuSans-32"/>
       <use xlink:href="#DejaVuSans-34" x="63.623047"/>
       <use xlink:href="#DejaVuSans-68" x="127.246094"/>
       <use xlink:href="#DejaVuSans-20" x="190.625"/>
       <use xlink:href="#DejaVuSans-34" x="222.412109"/>
       <use xlink:href="#DejaVuSans-ba" x="286.035156"/>
       <use xlink:href="#DejaVuSans-43" x="333.154297"/>
       <use xlink:href="#DejaVuSans-20" x="402.978516"/>
       <use xlink:href="#DejaVuSans-2b" x="434.765625"/>
       <use xlink:href="#DejaVuSans-50" x="518.554688"/>
       <use xlink:href="#DejaVuSans-42" x="578.857422"/>
       <use xlink:href="#DejaVuSans-53" x="645.710938"/>
      </g>
     </g>
    </g>
    <g id="ytick_3">
     <g id="line2d_11">
      <g>
       <use xlink:href="#mcf752d5fac" x="102.53" y="205.781687" style="stroke: #000000; stroke-width: 0.8"/>
      </g>
     </g>
     <g id="text_12">
      <!-- 72h 4C +PBS -->
      <g transform="translate(24.609688 209.580905) scale(0.1 -0.1)">
       <use xlink:href="#DejaVuSans-37"/>
       <use xlink:href="#DejaVuSans-32" x="63.623047"/>
       <use xlink:href="#DejaVuSans-68" x="127.246094"/>
       <use xlink:href="#DejaVuSans-20" x="190.625"/>
       <use xlink:href="#DejaVuSans-34" x="222.412109"/>
       <use xlink:href="#DejaVuSans-ba" x="286.035156"/>
       <use xlink:href="#DejaVuSans-43" x="333.154297"/>
       <use xlink:href="#DejaVuSans-20" x="402.978516"/>
       <use xlink:href="#DejaVuSans-2b" x="434.765625"/>
       <use xlink:href="#DejaVuSans-50" x="518.554688"/>
       <use xlink:href="#DejaVuSans-42" x="578.857422"/>
       <use xlink:href="#DejaVuSans-53" x="645.710938"/>
      </g>
     </g>
    </g>
    <g id="ytick_4">
     <g id="line2d_12">
      <g>
       <use xlink:href="#mcf752d5fac" x="102.53" y="278.333012" style="stroke: #000000; stroke-width: 0.8"/>
      </g>
     </g>
     <g id="text_13">
      <!-- 24h 4C -PBS -->
      <g transform="translate(29.381563 282.132231) scale(0.1 -0.1)">
       <defs>
        <path id="DejaVuSans-2d" d="M 313 2009 
L 1997 2009 
L 1997 1497 
L 313 1497 
L 313 2009 
z
" transform="scale(0.015625)"/>
       </defs>
       <use xlink:href="#DejaVuSans-32"/>
       <use xlink:href="#DejaVuSans-34" x="63.623047"/>
       <use xlink:href="#DejaVuSans-68" x="127.246094"/>
       <use xlink:href="#DejaVuSans-20" x="190.625"/>
       <use xlink:href="#DejaVuSans-34" x="222.412109"/>
       <use xlink:href="#DejaVuSans-ba" x="286.035156"/>
       <use xlink:href="#DejaVuSans-43" x="333.154297"/>
       <use xlink:href="#DejaVuSans-20" x="402.978516"/>
       <use xlink:href="#DejaVuSans-2d" x="434.765625"/>
       <use xlink:href="#DejaVuSans-50" x="470.849609"/>
       <use xlink:href="#DejaVuSans-42" x="531.152344"/>
       <use xlink:href="#DejaVuSans-53" x="598.005859"/>
      </g>
     </g>
    </g>
    <g id="ytick_5">
     <g id="line2d_13">
      <g>
       <use xlink:href="#mcf752d5fac" x="102.53" y="350.884337" style="stroke: #000000; stroke-width: 0.8"/>
      </g>
     </g>
     <g id="text_14">
      <!-- 72h 4C -PBS -->
      <g transform="translate(29.381563 354.683556) scale(0.1 -0.1)">
       <use xlink:href="#DejaVuSans-37"/>
       <use xlink:href="#DejaVuSans-32" x="63.623047"/>
       <use xlink:href="#DejaVuSans-68" x="127.246094"/>
       <use xlink:href="#DejaVuSans-20" x="190.625"/>
       <use xlink:href="#DejaVuSans-34" x="222.412109"/>
       <use xlink:href="#DejaVuSans-ba" x="286.035156"/>
       <use xlink:href="#DejaVuSans-43" x="333.154297"/>
       <use xlink:href="#DejaVuSans-20" x="402.978516"/>
       <use xlink:href="#DejaVuSans-2d" x="434.765625"/>
       <use xlink:href="#DejaVuSans-50" x="470.849609"/>
       <use xlink:href="#DejaVuSans-42" x="531.152344"/>
       <use xlink:href="#DejaVuSans-53" x="598.005859"/>
      </g>
     </g>
    </g>
    <g id="text_15">
     <!-- Condition -->
     <g transform="translate(18.53 222.840156) rotate(-90) scale(0.1 -0.1)">
      <defs>
       <path id="DejaVuSans-6f" d="M 1959 3097 
Q 1497 3097 1228 2736 
Q 959 2375 959 1747 
Q 959 1119 1226 758 
Q 1494 397 1959 397 
Q 2419 397 2687 759 
Q 2956 1122 2956 1747 
Q 2956 2369 2687 2733 
Q 2419 3097 1959 3097 
z
M 1959 3584 
Q 2709 3584 3137 3096 
Q 3566 2609 3566 1747 
Q 3566 888 3137 398 
Q 2709 -91 1959 -91 
Q 1206 -91 779 398 
Q 353 888 353 1747 
Q 353 2609 779 3096 
Q 1206 3584 1959 3584 
z
" transform="scale(0.015625)"/>
       <path id="DejaVuSans-64" d="M 2906 2969 
L 2906 4863 
L 3481 4863 
L 3481 0 
L 2906 0 
L 2906 525 
Q 2725 213 2448 61 
Q 2172 -91 1784 -91 
Q 1150 -91 751 415 
Q 353 922 353 1747 
Q 353 2572 751 3078 
Q 1150 3584 1784 3584 
Q 2172 3584 2448 3432 
Q 2725 3281 2906 2969 
z
M 947 1747 
Q 947 1113 1208 752 
Q 1469 391 1925 391 
Q 2381 391 2643 752 
Q 2906 1113 2906 1747 
Q 2906 2381 2643 2742 
Q 2381 3103 1925 3103 
Q 1469 3103 1208 2742 
Q 947 2381 947 1747 
z
" transform="scale(0.015625)"/>
       <path id="DejaVuSans-69" d="M 603 3500 
L 1178 3500 
L 1178 0 
L 603 0 
L 603 3500 
z
M 603 4863 
L 1178 4863 
L 1178 4134 
L 603 4134 
L 603 4863 
z
" transform="scale(0.015625)"/>
       <path id="DejaVuSans-74" d="M 1172 4494 
L 1172 3500 
L 2356 3500 
L 2356 3053 
L 1172 3053 
L 1172 1153 
Q 1172 725 1289 603 
Q 1406 481 1766 481 
L 2356 481 
L 2356 0 
L 1766 0 
Q 1100 0 847 248 
Q 594 497 594 1153 
L 594 3053 
L 172 3053 
L 172 3500 
L 594 3500 
L 594 4494 
L 1172 4494 
z
" transform="scale(0.015625)"/>
      </defs>
      <use xlink:href="#DejaVuSans-43"/>
      <use xlink:href="#DejaVuSans-6f" x="69.824219"/>
      <use xlink:href="#DejaVuSans-6e" x="131.005859"/>
      <use xlink:href="#DejaVuSans-64" x="194.384766"/>
      <use xlink:href="#DejaVuSans-69" x="257.861328"/>
      <use xlink:href="#DejaVuSans-74" x="285.644531"/>
      <use xlink:href="#DejaVuSans-69" x="324.853516"/>
      <use xlink:href="#DejaVuSans-6f" x="352.636719"/>
      <use xlink:href="#DejaVuSans-6e" x="413.818359"/>
     </g>
    </g>
   </g>
   <g id="line2d_14">
    <path d="M 132.747363 57.958361 
L 132.747363 63.399711 
" clip-path="url(#pea663ba235)" style="fill: none; stroke: #434343; stroke-width: 1.5; stroke-linecap: square"/>
   </g>
   <g id="line2d_15">
    <path d="M 555.348773 57.958361 
L 555.348773 63.399711 
" clip-path="url(#pea663ba235)" style="fill: none; stroke: #434343; stroke-width: 1.5; stroke-linecap: square"/>
   </g>
   <g id="line2d_16"/>
   <g id="line2d_17">
    <path d="M 138.830586 130.509687 
L 138.830586 135.951036 
" clip-path="url(#pea663ba235)" style="fill: none; stroke: #434343; stroke-width: 1.5; stroke-linecap: square"/>
   </g>
   <g id="line2d_18">
    <path d="M 523.330755 130.509687 
L 523.330755 135.951036 
" clip-path="url(#pea663ba235)" style="fill: none; stroke: #434343; stroke-width: 1.5; stroke-linecap: square"/>
   </g>
   <g id="line2d_19"/>
   <g id="line2d_20">
    <path d="M 145.018536 203.061012 
L 145.018536 208.502361 
" clip-path="url(#pea663ba235)" style="fill: none; stroke: #434343; stroke-width: 1.5; stroke-linecap: square"/>
   </g>
   <g id="line2d_21">
    <path d="M 488.014719 203.061012 
L 488.014719 208.502361 
" clip-path="url(#pea663ba235)" style="fill: none; stroke: #434343; stroke-width: 1.5; stroke-linecap: square"/>
   </g>
   <g id="line2d_22"/>
   <g id="line2d_23">
    <path d="M 183.778172 275.612337 
L 183.778172 281.053687 
" clip-path="url(#pea663ba235)" style="fill: none; stroke: #434343; stroke-width: 1.5; stroke-linecap: square"/>
   </g>
   <g id="line2d_24">
    <path d="M 465.581038 275.612337 
L 465.581038 281.053687 
" clip-path="url(#pea663ba235)" style="fill: none; stroke: #434343; stroke-width: 1.5; stroke-linecap: square"/>
   </g>
   <g id="line2d_25"/>
   <g id="line2d_26">
    <path d="M 130.105909 348.163663 
L 130.105909 353.605012 
" clip-path="url(#pea663ba235)" style="fill: none; stroke: #434343; stroke-width: 1.5; stroke-linecap: square"/>
   </g>
   <g id="line2d_27">
    <path d="M 681.624091 348.163663 
L 681.624091 353.605012 
" clip-path="url(#pea663ba235)" style="fill: none; stroke: #434343; stroke-width: 1.5; stroke-linecap: square"/>
   </g>
   <g id="line2d_28"/>
   <g id="line2d_29">
    <path d="M 385.428559 55.237687 
L 385.428559 66.120386 
" clip-path="url(#pea663ba235)" style="fill: none; stroke: #434343; stroke-width: 1.5; stroke-linecap: square"/>
   </g>
   <g id="line2d_30">
    <path d="M 396.196558 127.789012 
L 396.196558 138.671711 
" clip-path="url(#pea663ba235)" style="fill: none; stroke: #434343; stroke-width: 1.5; stroke-linecap: square"/>
   </g>
   <g id="line2d_31">
    <path d="M 388.725734 200.340337 
L 388.725734 211.223036 
" clip-path="url(#pea663ba235)" style="fill: none; stroke: #434343; stroke-width: 1.5; stroke-linecap: square"/>
   </g>
   <g id="line2d_32">
    <path d="M 370.203417 272.891663 
L 370.203417 283.774361 
" clip-path="url(#pea663ba235)" style="fill: none; stroke: #434343; stroke-width: 1.5; stroke-linecap: square"/>
   </g>
   <g id="line2d_33">
    <path d="M 347.546092 345.442988 
L 347.546092 356.325687 
" clip-path="url(#pea663ba235)" style="fill: none; stroke: #434343; stroke-width: 1.5; stroke-linecap: square"/>
   </g>
   <g id="patch_3">
    <path d="M 102.53 387.16 
L 102.53 10.8 
" style="fill: none; stroke: #000000; stroke-width: 0.8; stroke-linejoin: miter; stroke-linecap: square"/>
   </g>
   <g id="patch_4">
    <path d="M 709.2 387.16 
L 709.2 10.8 
" style="fill: none; stroke: #000000; stroke-width: 0.8; stroke-linejoin: miter; stroke-linecap: square"/>
   </g>
   <g id="patch_5">
    <path d="M 102.53 387.16 
L 709.2 387.16 
" style="fill: none; stroke: #000000; stroke-width: 0.8; stroke-linejoin: miter; stroke-linecap: square"/>
   </g>
   <g id="patch_6">
    <path d="M 102.53 10.8 
L 709.2 10.8 
" style="fill: none; stroke: #000000; stroke-width: 0.8; stroke-linejoin: miter; stroke-linecap: square"/>
   </g>
   <g id="patch_7">
    <path d="M 295.928251 55.237687 
L 295.928251 66.120386 
L 409.200231 66.120386 
L 409.200231 55.237687 
L 295.928251 55.237687 
L 295.928251 55.237687 
z
" clip-path="url(#pea663ba235)" style="fill: none; stroke: #434343; stroke-width: 1.5; stroke-linejoin: miter"/>
   </g>
   <g id="line2d_34">
    <path d="M 295.928251 60.679036 
L 132.747363 60.679036 
" clip-path="url(#pea663ba235)" style="fill: none; stroke: #434343; stroke-width: 2; stroke-linecap: square"/>
   </g>
   <g id="line2d_35">
    <path d="M 409.200231 60.679036 
L 555.348773 60.679036 
" clip-path="url(#pea663ba235)" style="fill: none; stroke: #434343; stroke-width: 2; stroke-linecap: square"/>
   </g>
   <g id="patch_8">
    <path d="M 258.868132 127.789012 
L 258.868132 138.671711 
L 463.87939 138.671711 
L 463.87939 127.789012 
L 258.868132 127.789012 
L 258.868132 127.789012 
z
" clip-path="url(#pea663ba235)" style="fill: none; stroke: #434343; stroke-width: 1.5; stroke-linejoin: miter"/>
   </g>
   <g id="line2d_36">
    <path d="M 258.868132 133.230361 
L 138.830586 133.230361 
" clip-path="url(#pea663ba235)" style="fill: none; stroke: #434343; stroke-width: 2; stroke-linecap: square"/>
   </g>
   <g id="line2d_37">
    <path d="M 463.87939 133.230361 
L 523.330755 133.230361 
" clip-path="url(#pea663ba235)" style="fill: none; stroke: #434343; stroke-width: 2; stroke-linecap: square"/>
   </g>
   <g id="patch_9">
    <path d="M 230.194041 200.340337 
L 230.194041 211.223036 
L 426.073831 211.223036 
L 426.073831 200.340337 
L 230.194041 200.340337 
L 230.194041 200.340337 
z
" clip-path="url(#pea663ba235)" style="fill: none; stroke: #434343; stroke-width: 1.5; stroke-linejoin: miter"/>
   </g>
   <g id="line2d_38">
    <path d="M 230.194041 205.781687 
L 145.018536 205.781687 
" clip-path="url(#pea663ba235)" style="fill: none; stroke: #434343; stroke-width: 2; stroke-linecap: square"/>
   </g>
   <g id="line2d_39">
    <path d="M 426.073831 205.781687 
L 488.014719 205.781687 
" clip-path="url(#pea663ba235)" style="fill: none; stroke: #434343; stroke-width: 2; stroke-linecap: square"/>
   </g>
   <g id="patch_10">
    <path d="M 278.318052 272.891663 
L 278.318052 283.774361 
L 420.955009 283.774361 
L 420.955009 272.891663 
L 278.318052 272.891663 
L 278.318052 272.891663 
z
" clip-path="url(#pea663ba235)" style="fill: none; stroke: #434343; stroke-width: 1.5; stroke-linejoin: miter"/>
   </g>
   <g id="line2d_40">
    <path d="M 278.318052 278.333012 
L 183.778172 278.333012 
" clip-path="url(#pea663ba235)" style="fill: none; stroke: #434343; stroke-width: 2; stroke-linecap: square"/>
   </g>
   <g id="line2d_41">
    <path d="M 420.955009 278.333012 
L 465.581038 278.333012 
" clip-path="url(#pea663ba235)" style="fill: none; stroke: #434343; stroke-width: 2; stroke-linecap: square"/>
   </g>
   <g id="patch_11">
    <path d="M 260.432017 345.442988 
L 260.432017 356.325687 
L 471.493785 356.325687 
L 471.493785 345.442988 
L 260.432017 345.442988 
L 260.432017 345.442988 
z
" clip-path="url(#pea663ba235)" style="fill: none; stroke: #434343; stroke-width: 1.5; stroke-linejoin: miter"/>
   </g>
   <g id="line2d_42">
    <path d="M 260.432017 350.884337 
L 130.105909 350.884337 
" clip-path="url(#pea663ba235)" style="fill: none; stroke: #434343; stroke-width: 2; stroke-linecap: square"/>
   </g>
   <g id="line2d_43">
    <path d="M 471.493785 350.884337 
L 681.624091 350.884337 
" clip-path="url(#pea663ba235)" style="fill: none; stroke: #434343; stroke-width: 2; stroke-linecap: square"/>
   </g>
  </g>
 </g>
 <defs>
  <clipPath id="pea663ba235">
   <rect x="102.53" y="10.8" width="606.67" height="376.36"/>
  </clipPath>
 </defs>
</svg>
