<?xml version="1.0" encoding="utf-8" standalone="no"?>
<!DOCTYPE svg PUBLIC "-//W3C//DTD SVG 1.1//EN"
  "http://www.w3.org/Graphics/SVG/1.1/DTD/svg11.dtd">
<svg xmlns:xlink="http://www.w3.org/1999/xlink" width="720pt" height="432pt" viewBox="0 0 720 432" xmlns="http://www.w3.org/2000/svg" version="1.1">
 <metadata>
  <rdf:RDF xmlns:dc="http://purl.org/dc/elements/1.1/" xmlns:cc="http://creativecommons.org/ns#" xmlns:rdf="http://www.w3.org/1999/02/22-rdf-syntax-ns#">
   <cc:Work>
    <dc:type rdf:resource="http://purl.org/dc/dcmitype/StillImage"/>
    <dc:date>2024-09-30T14:08:33.802723</dc:date>
    <dc:format>image/svg+xml</dc:format>
    <dc:creator>
     <cc:Agent>
      <dc:title>Matplotlib v3.7.3, https://matplotlib.org/</dc:title>
     </cc:Agent>
    </dc:creator>
   </cc:Work>
  </rdf:RDF>
 </metadata>
 <defs>
  <style type="text/css">*{stroke-linejoin: round; stroke-linecap: butt}</style>
 </defs>
 <g id="figure_1">
  <g id="patch_1">
   <path d="M 0 432 
L 720 432 
L 720 0 
L 0 0 
z
" style="fill: #ffffff"/>
  </g>
  <g id="axes_1">
   <g id="patch_2">
    <path d="M 41.15 343.03527 
L 709.2 343.03527 
L 709.2 10.8 
L 41.15 10.8 
z
" style="fill: #ffffff"/>
   </g>
   <g id="PolyCollection_1">
    <defs>
     <path id="mdce75fd13a" d="M 108.328354 -104.066334 
L 107.581646 -104.066334 
L 107.457282 -107.051352 
L 107.306125 -110.036371 
L 107.127715 -113.02139 
L 106.923511 -116.006409 
L 106.697262 -118.991427 
L 106.455208 -121.976446 
L 106.206007 -124.961465 
L 105.960377 -127.946484 
L 105.730414 -130.931502 
L 105.528649 -133.916521 
L 105.366943 -136.90154 
L 105.255333 -139.886559 
L 105.201006 -142.871577 
L 105.207531 -145.856596 
L 105.274467 -148.841615 
L 105.397407 -151.826634 
L 105.568453 -154.811652 
L 105.777032 -157.796671 
L 106.010956 -160.78169 
L 106.257541 -163.766709 
L 106.50466 -166.751727 
L 106.741571 -169.736746 
L 106.95945 -172.721765 
L 107.151569 -175.706784 
L 107.313148 -178.691802 
L 107.440915 -181.676821 
L 107.53245 -184.66184 
L 107.585416 -187.646859 
L 107.596756 -190.631877 
L 107.561947 -193.616896 
L 107.474396 -196.601915 
L 107.325031 -199.586934 
L 107.102165 -202.571952 
L 106.791655 -205.556971 
L 106.377398 -208.54199 
L 105.842155 -211.527009 
L 105.168657 -214.512027 
L 104.340925 -217.497046 
L 103.345653 -220.482065 
L 102.173499 -223.467084 
L 100.820091 -226.452102 
L 99.28657 -229.437121 
L 97.579537 -232.42214 
L 95.710356 -235.407159 
L 93.693892 -238.392177 
L 91.546865 -241.377196 
L 89.286153 -244.362215 
L 86.927417 -247.347234 
L 84.484456 -250.332252 
L 81.969609 -253.317271 
L 79.395364 -256.30229 
L 76.777073 -259.287309 
L 74.13644 -262.272327 
L 71.505157 -265.257346 
L 68.927926 -268.242365 
L 66.464045 -271.227384 
L 64.186878 -274.212402 
L 62.180819 -277.197421 
L 60.535761 -280.18244 
L 59.339549 -283.167459 
L 58.669303 -286.152477 
L 58.582783 -289.137496 
L 59.111026 -292.122515 
L 60.253384 -295.107534 
L 61.975694 -298.092552 
L 64.211897 -301.077571 
L 66.868883 -304.06259 
L 69.833896 -307.047609 
L 72.983562 -310.032627 
L 76.193417 -313.017646 
L 79.346919 -316.002665 
L 82.343059 -318.987684 
L 85.102004 -321.972702 
L 87.568466 -324.957721 
L 89.712768 -327.94274 
L 91.529792 -330.927759 
L 93.036146 -333.912777 
L 94.26596 -336.897796 
L 95.265796 -339.882815 
L 96.08915 -342.867834 
L 96.791021 -345.852852 
L 97.423003 -348.837871 
L 98.029262 -351.82289 
L 98.643689 -354.807909 
L 99.288387 -357.792927 
L 99.973506 -360.777946 
L 100.698283 -363.762965 
L 101.453061 -366.747984 
L 102.221907 -369.733002 
L 102.985488 -372.718021 
L 103.723821 -375.70304 
L 104.418613 -378.688059 
L 105.054987 -381.673077 
L 105.622505 -384.658096 
L 106.115517 -387.643115 
L 106.532917 -390.628134 
L 106.877475 -393.613152 
L 107.154917 -396.598171 
L 107.372907 -399.58319 
L 108.537093 -399.58319 
L 108.537093 -399.58319 
L 108.755083 -396.598171 
L 109.032525 -393.613152 
L 109.377083 -390.628134 
L 109.794483 -387.643115 
L 110.287495 -384.658096 
L 110.855013 -381.673077 
L 111.491387 -378.688059 
L 112.186179 -375.70304 
L 112.924512 -372.718021 
L 113.688093 -369.733002 
L 114.456939 -366.747984 
L 115.211717 -363.762965 
L 115.936494 -360.777946 
L 116.621613 -357.792927 
L 117.266311 -354.807909 
L 117.880738 -351.82289 
L 118.486997 -348.837871 
L 119.118979 -345.852852 
L 119.82085 -342.867834 
L 120.644204 -339.882815 
L 121.64404 -336.897796 
L 122.873854 -333.912777 
L 124.380208 -330.927759 
L 126.197232 -327.94274 
L 128.341534 -324.957721 
L 130.807996 -321.972702 
L 133.566941 -318.987684 
L 136.563081 -316.002665 
L 139.716583 -313.017646 
L 142.926438 -310.032627 
L 146.076104 -307.047609 
L 149.041117 -304.06259 
L 151.698103 -301.077571 
L 153.934306 -298.092552 
L 155.656616 -295.107534 
L 156.798974 -292.122515 
L 157.327217 -289.137496 
L 157.240697 -286.152477 
L 156.570451 -283.167459 
L 155.374239 -280.18244 
L 153.729181 -277.197421 
L 151.723122 -274.212402 
L 149.445955 -271.227384 
L 146.982074 -268.242365 
L 144.404843 -265.257346 
L 141.77356 -262.272327 
L 139.132927 -259.287309 
L 136.514636 -256.30229 
L 133.940391 -253.317271 
L 131.425544 -250.332252 
L 128.982583 -247.347234 
L 126.623847 -244.362215 
L 124.363135 -241.377196 
L 122.216108 -238.392177 
L 120.199644 -235.407159 
L 118.330463 -232.42214 
L 116.62343 -229.437121 
L 115.089909 -226.452102 
L 113.736501 -223.467084 
L 112.564347 -220.482065 
L 111.569075 -217.497046 
L 110.741343 -214.512027 
L 110.067845 -211.527009 
L 109.532602 -208.54199 
L 109.118345 -205.556971 
L 108.807835 -202.571952 
L 108.584969 -199.586934 
L 108.435604 -196.601915 
L 108.348053 -193.616896 
L 108.313244 -190.631877 
L 108.324584 -187.646859 
L 108.37755 -184.66184 
L 108.469085 -181.676821 
L 108.596852 -178.691802 
L 108.758431 -175.706784 
L 108.95055 -172.721765 
L 109.168429 -169.736746 
L 109.40534 -166.751727 
L 109.652459 -163.766709 
L 109.899044 -160.78169 
L 110.132968 -157.796671 
L 110.341547 -154.811652 
L 110.512593 -151.826634 
L 110.635533 -148.841615 
L 110.702469 -145.856596 
L 110.708994 -142.871577 
L 110.654667 -139.886559 
L 110.543057 -136.90154 
L 110.381351 -133.916521 
L 110.179586 -130.931502 
L 109.949623 -127.946484 
L 109.703993 -124.961465 
L 109.454792 -121.976446 
L 109.212738 -118.991427 
L 108.986489 -116.006409 
L 108.782285 -113.02139 
L 108.603875 -110.036371 
L 108.452718 -107.051352 
L 108.328354 -104.066334 
z
" style="stroke: #434343; stroke-width: 1.5"/>
    </defs>
    <g clip-path="url(#pfaab63390f)">
     <use xlink:href="#mdce75fd13a" x="0" y="432" style="fill: #e68193; stroke: #434343; stroke-width: 1.5"/>
    </g>
   </g>
   <g id="PolyCollection_2">
    <defs>
     <path id="m0459284423" d="M 242.009524 -150.436745 
L 241.120476 -150.436745 
L 240.979498 -153.019185 
L 240.806673 -155.601626 
L 240.599092 -158.184067 
L 240.354881 -160.766508 
L 240.073583 -163.348949 
L 239.756496 -165.93139 
L 239.40693 -168.513831 
L 239.030329 -171.096272 
L 238.634235 -173.678713 
L 238.228053 -176.261154 
L 237.822621 -178.843595 
L 237.429577 -181.426036 
L 237.060583 -184.008477 
L 236.726436 -186.590918 
L 236.436149 -189.173359 
L 236.196077 -191.755799 
L 236.009181 -194.33824 
L 235.874494 -196.920681 
L 235.78687 -199.503122 
L 235.737053 -202.085563 
L 235.712082 -204.668004 
L 235.696025 -207.250445 
L 235.670988 -209.832886 
L 235.61833 -212.415327 
L 235.519977 -214.997768 
L 235.359715 -217.580209 
L 235.124342 -220.16265 
L 234.804551 -222.745091 
L 234.395438 -225.327532 
L 233.896571 -227.909973 
L 233.311575 -230.492413 
L 232.647252 -233.074854 
L 231.912288 -235.657295 
L 231.115662 -238.239736 
L 230.264901 -240.822177 
L 229.364376 -243.404618 
L 228.413816 -245.987059 
L 227.407266 -248.5695 
L 226.332661 -251.151941 
L 225.172152 -253.734382 
L 223.903279 -256.316823 
L 222.500979 -258.899264 
L 220.940356 -261.481705 
L 219.199997 -264.064146 
L 217.26558 -266.646587 
L 215.13341 -269.229027 
L 212.813475 -271.811468 
L 210.331641 -274.393909 
L 207.730629 -276.97635 
L 205.069506 -279.558791 
L 202.421605 -282.141232 
L 199.870905 -284.723673 
L 197.507141 -287.306114 
L 195.420025 -289.888555 
L 193.693146 -292.470996 
L 192.398114 -295.053437 
L 191.589572 -297.635878 
L 191.301557 -300.218319 
L 191.545562 -302.80076 
L 192.310439 -305.3832 
L 193.564069 -307.965641 
L 195.256535 -310.548082 
L 197.324345 -313.130523 
L 199.695216 -315.712964 
L 202.292894 -318.295405 
L 205.04154 -320.877846 
L 207.869359 -323.460287 
L 210.711289 -326.042728 
L 213.510696 -328.625169 
L 216.220188 -331.20761 
L 218.801721 -333.790051 
L 221.226214 -336.372492 
L 223.472902 -338.954933 
L 225.528579 -341.537374 
L 227.386852 -344.119814 
L 229.04744 -346.702255 
L 230.515504 -349.284696 
L 231.800956 -351.867137 
L 232.917691 -354.449578 
L 233.88271 -357.032019 
L 234.715106 -359.61446 
L 235.434963 -362.196901 
L 236.062217 -364.779342 
L 236.615583 -367.361783 
L 237.111634 -369.944224 
L 237.564114 -372.526665 
L 237.983554 -375.109106 
L 238.377203 -377.691547 
L 238.749253 -380.273988 
L 239.101311 -382.856428 
L 239.43303 -385.438869 
L 239.742816 -388.02131 
L 240.02852 -390.603751 
L 240.288033 -393.186192 
L 240.519752 -395.768633 
L 240.72287 -398.351074 
L 240.897512 -400.933515 
L 241.044715 -403.515956 
L 241.166309 -406.098397 
L 241.963691 -406.098397 
L 241.963691 -406.098397 
L 242.085285 -403.515956 
L 242.232488 -400.933515 
L 242.40713 -398.351074 
L 242.610248 -395.768633 
L 242.841967 -393.186192 
L 243.10148 -390.603751 
L 243.387184 -388.02131 
L 243.69697 -385.438869 
L 244.028689 -382.856428 
L 244.380747 -380.273988 
L 244.752797 -377.691547 
L 245.146446 -375.109106 
L 245.565886 -372.526665 
L 246.018366 -369.944224 
L 246.514417 -367.361783 
L 247.067783 -364.779342 
L 247.695037 -362.196901 
L 248.414894 -359.61446 
L 249.24729 -357.032019 
L 250.212309 -354.449578 
L 251.329044 -351.867137 
L 252.614496 -349.284696 
L 254.08256 -346.702255 
L 255.743148 -344.119814 
L 257.601421 -341.537374 
L 259.657098 -338.954933 
L 261.903786 -336.372492 
L 264.328279 -333.790051 
L 266.909812 -331.20761 
L 269.619304 -328.625169 
L 272.418711 -326.042728 
L 275.260641 -323.460287 
L 278.08846 -320.877846 
L 280.837106 -318.295405 
L 283.434784 -315.712964 
L 285.805655 -313.130523 
L 287.873465 -310.548082 
L 289.565931 -307.965641 
L 290.819561 -305.3832 
L 291.584438 -302.80076 
L 291.828443 -300.218319 
L 291.540428 -297.635878 
L 290.731886 -295.053437 
L 289.436854 -292.470996 
L 287.709975 -289.888555 
L 285.622859 -287.306114 
L 283.259095 -284.723673 
L 280.708395 -282.141232 
L 278.060494 -279.558791 
L 275.399371 -276.97635 
L 272.798359 -274.393909 
L 270.316525 -271.811468 
L 267.99659 -269.229027 
L 265.86442 -266.646587 
L 263.930003 -264.064146 
L 262.189644 -261.481705 
L 260.629021 -258.899264 
L 259.226721 -256.316823 
L 257.957848 -253.734382 
L 256.797339 -251.151941 
L 255.722734 -248.5695 
L 254.716184 -245.987059 
L 253.765624 -243.404618 
L 252.865099 -240.822177 
L 252.014338 -238.239736 
L 251.217712 -235.657295 
L 250.482748 -233.074854 
L 249.818425 -230.492413 
L 249.233429 -227.909973 
L 248.734562 -225.327532 
L 248.325449 -222.745091 
L 248.005658 -220.16265 
L 247.770285 -217.580209 
L 247.610023 -214.997768 
L 247.51167 -212.415327 
L 247.459012 -209.832886 
L 247.433975 -207.250445 
L 247.417918 -204.668004 
L 247.392947 -202.085563 
L 247.34313 -199.503122 
L 247.255506 -196.920681 
L 247.120819 -194.33824 
L 246.933923 -191.755799 
L 246.693851 -189.173359 
L 246.403564 -186.590918 
L 246.069417 -184.008477 
L 245.700423 -181.426036 
L 245.307379 -178.843595 
L 244.901947 -176.261154 
L 244.495765 -173.678713 
L 244.099671 -171.096272 
L 243.72307 -168.513831 
L 243.373504 -165.93139 
L 243.056417 -163.348949 
L 242.775119 -160.766508 
L 242.530908 -158.184067 
L 242.323327 -155.601626 
L 242.150502 -153.019185 
L 242.009524 -150.436745 
z
" style="stroke: #434343; stroke-width: 1.5"/>
    </defs>
    <g clip-path="url(#pfaab63390f)">
     <use xlink:href="#m0459284423" x="0" y="432" style="fill: #9e9241; stroke: #434343; stroke-width: 1.5"/>
    </g>
   </g>
   <g id="PolyCollection_3">
    <defs>
     <path id="mb2be7c5eb7" d="M 376.111442 -199.05507 
L 374.238558 -199.05507 
L 373.972298 -200.796729 
L 373.650107 -202.538389 
L 373.266228 -204.280049 
L 372.815971 -206.021708 
L 372.296196 -207.763368 
L 371.705794 -209.505028 
L 371.046122 -211.246687 
L 370.321345 -212.988347 
L 369.538633 -214.730007 
L 368.708174 -216.471666 
L 367.842969 -218.213326 
L 366.958385 -219.954986 
L 366.07148 -221.696645 
L 365.200102 -223.438305 
L 364.361818 -225.179965 
L 363.572737 -226.921624 
L 362.846292 -228.663284 
L 362.192083 -230.404944 
L 361.614855 -232.146603 
L 361.113716 -233.888263 
L 360.681649 -235.629923 
L 360.305374 -237.371582 
L 359.965604 -239.113242 
L 359.637686 -240.854902 
L 359.292605 -242.596561 
L 358.898314 -244.338221 
L 358.421314 -246.079881 
L 357.82841 -247.82154 
L 357.088529 -249.5632 
L 356.174522 -251.30486 
L 355.06484 -253.046519 
L 353.744993 -254.788179 
L 352.208711 -256.529839 
L 350.458746 -258.271498 
L 348.507274 -260.013158 
L 346.375851 -261.754817 
L 344.094933 -263.496477 
L 341.702979 -265.238137 
L 339.245139 -266.979796 
L 336.771613 -268.721456 
L 334.335723 -270.463116 
L 331.991789 -272.204775 
L 329.792907 -273.946435 
L 327.788727 -275.688095 
L 326.023353 -277.429754 
L 324.533475 -279.171414 
L 323.346846 -280.913074 
L 322.481207 -282.654733 
L 321.943725 -284.396393 
L 321.731 -286.138053 
L 321.829639 -287.879712 
L 322.217371 -289.621372 
L 322.864622 -291.363032 
L 323.736432 -293.104691 
L 324.794573 -294.846351 
L 325.999719 -296.588011 
L 327.313487 -298.32967 
L 328.700237 -300.07133 
L 330.128492 -301.81299 
L 331.571925 -303.554649 
L 333.009883 -305.296309 
L 334.427463 -307.037969 
L 335.815203 -308.779628 
L 337.168486 -310.521288 
L 338.486737 -312.262948 
L 339.772541 -314.004607 
L 341.030753 -315.746267 
L 342.267683 -317.487927 
L 343.490405 -319.229586 
L 344.706182 -320.971246 
L 345.922034 -322.712905 
L 347.1444 -324.454565 
L 348.378875 -326.196225 
L 349.629988 -327.937884 
L 350.901002 -329.679544 
L 352.19372 -331.421204 
L 353.508296 -333.162863 
L 354.843087 -334.904523 
L 356.194544 -336.646183 
L 357.557184 -338.387842 
L 358.92367 -340.129502 
L 360.285001 -341.871162 
L 361.630832 -343.612821 
L 362.94989 -345.354481 
L 364.23049 -347.096141 
L 365.461087 -348.8378 
L 366.630838 -350.57946 
L 367.730125 -352.32112 
L 368.750998 -354.062779 
L 369.687504 -355.804439 
L 370.53589 -357.546099 
L 371.294659 -359.287758 
L 371.964495 -361.029418 
L 372.548071 -362.771078 
L 373.049767 -364.512737 
L 373.475315 -366.254397 
L 373.831426 -367.996057 
L 374.125409 -369.737716 
L 374.364815 -371.479376 
L 375.985185 -371.479376 
L 375.985185 -371.479376 
L 376.224591 -369.737716 
L 376.518574 -367.996057 
L 376.874685 -366.254397 
L 377.300233 -364.512737 
L 377.801929 -362.771078 
L 378.385505 -361.029418 
L 379.055341 -359.287758 
L 379.81411 -357.546099 
L 380.662496 -355.804439 
L 381.599002 -354.062779 
L 382.619875 -352.32112 
L 383.719162 -350.57946 
L 384.888913 -348.8378 
L 386.11951 -347.096141 
L 387.40011 -345.354481 
L 388.719168 -343.612821 
L 390.064999 -341.871162 
L 391.42633 -340.129502 
L 392.792816 -338.387842 
L 394.155456 -336.646183 
L 395.506913 -334.904523 
L 396.841704 -333.162863 
L 398.15628 -331.421204 
L 399.448998 -329.679544 
L 400.720012 -327.937884 
L 401.971125 -326.196225 
L 403.2056 -324.454565 
L 404.427966 -322.712905 
L 405.643818 -320.971246 
L 406.859595 -319.229586 
L 408.082317 -317.487927 
L 409.319247 -315.746267 
L 410.577459 -314.004607 
L 411.863263 -312.262948 
L 413.181514 -310.521288 
L 414.534797 -308.779628 
L 415.922537 -307.037969 
L 417.340117 -305.296309 
L 418.778075 -303.554649 
L 420.221508 -301.81299 
L 421.649763 -300.07133 
L 423.036513 -298.32967 
L 424.350281 -296.588011 
L 425.555427 -294.846351 
L 426.613568 -293.104691 
L 427.485378 -291.363032 
L 428.132629 -289.621372 
L 428.520361 -287.879712 
L 428.619 -286.138053 
L 428.406275 -284.396393 
L 427.868793 -282.654733 
L 427.003154 -280.913074 
L 425.816525 -279.171414 
L 424.326647 -277.429754 
L 422.561273 -275.688095 
L 420.557093 -273.946435 
L 418.358211 -272.204775 
L 416.014277 -270.463116 
L 413.578387 -268.721456 
L 411.104861 -266.979796 
L 408.647021 -265.238137 
L 406.255067 -263.496477 
L 403.974149 -261.754817 
L 401.842726 -260.013158 
L 399.891254 -258.271498 
L 398.141289 -256.529839 
L 396.605007 -254.788179 
L 395.28516 -253.046519 
L 394.175478 -251.30486 
L 393.261471 -249.5632 
L 392.52159 -247.82154 
L 391.928686 -246.079881 
L 391.451686 -244.338221 
L 391.057395 -242.596561 
L 390.712314 -240.854902 
L 390.384396 -239.113242 
L 390.044626 -237.371582 
L 389.668351 -235.629923 
L 389.236284 -233.888263 
L 388.735145 -232.146603 
L 388.157917 -230.404944 
L 387.503708 -228.663284 
L 386.777263 -226.921624 
L 385.988182 -225.179965 
L 385.149898 -223.438305 
L 384.27852 -221.696645 
L 383.391615 -219.954986 
L 382.507031 -218.213326 
L 381.641826 -216.471666 
L 380.811367 -214.730007 
L 380.028655 -212.988347 
L 379.303878 -211.246687 
L 378.644206 -209.505028 
L 378.053804 -207.763368 
L 377.534029 -206.021708 
L 377.083772 -204.280049 
L 376.699893 -202.538389 
L 376.377702 -200.796729 
L 376.111442 -199.05507 
z
" style="stroke: #434343; stroke-width: 1.5"/>
    </defs>
    <g clip-path="url(#pfaab63390f)">
     <use xlink:href="#mb2be7c5eb7" x="0" y="432" style="fill: #43a178; stroke: #434343; stroke-width: 1.5"/>
    </g>
   </g>
   <g id="PolyCollection_4">
    <defs>
     <path id="m84929f2f67" d="M 509.199176 -147.299421 
L 508.370824 -147.299421 
L 508.239114 -149.793537 
L 508.080117 -152.287653 
L 507.893277 -154.781769 
L 507.679797 -157.275885 
L 507.442992 -159.770001 
L 507.18849 -162.264117 
L 506.924213 -164.758232 
L 506.660105 -167.252348 
L 506.407576 -169.746464 
L 506.178701 -172.24058 
L 505.985225 -174.734696 
L 505.83748 -177.228812 
L 505.74333 -179.722928 
L 505.707265 -182.217044 
L 505.729769 -184.71116 
L 505.807009 -187.205276 
L 505.93091 -189.699391 
L 506.089566 -192.193507 
L 506.267949 -194.687623 
L 506.448819 -197.181739 
L 506.613731 -199.675855 
L 506.744037 -202.169971 
L 506.82182 -204.664087 
L 506.830682 -207.158203 
L 506.756359 -209.652319 
L 506.587147 -212.146435 
L 506.314119 -214.64055 
L 505.931111 -217.134666 
L 505.434477 -219.628782 
L 504.822575 -222.122898 
L 504.095002 -224.617014 
L 503.251619 -227.11113 
L 502.291433 -229.605246 
L 501.211498 -232.099362 
L 500.006011 -234.593478 
L 498.665826 -237.087594 
L 497.178584 -239.581709 
L 495.529615 -242.075825 
L 493.703668 -244.569941 
L 491.687382 -247.064057 
L 489.472306 -249.558173 
L 487.058117 -252.052289 
L 484.455611 -254.546405 
L 481.689039 -257.040521 
L 478.797357 -259.534637 
L 475.834104 -262.028753 
L 472.865775 -264.522868 
L 469.968718 -267.016984 
L 467.224806 -269.5111 
L 464.716283 -272.005216 
L 462.520268 -274.499332 
L 460.703516 -276.993448 
L 459.317925 -279.487564 
L 458.397278 -281.98168 
L 457.955502 -284.475796 
L 457.986587 -286.969911 
L 458.466109 -289.464027 
L 459.354122 -291.958143 
L 460.599038 -294.452259 
L 462.142027 -296.946375 
L 463.92145 -299.440491 
L 465.876839 -301.934607 
L 467.952087 -304.428723 
L 470.097614 -306.922839 
L 472.271447 -309.416955 
L 474.439319 -311.91107 
L 476.573999 -314.405186 
L 478.654165 -316.899302 
L 480.663126 -319.393418 
L 482.587693 -321.887534 
L 484.417377 -324.38165 
L 486.144029 -326.875766 
L 487.761875 -329.369882 
L 489.267848 -331.863998 
L 490.662028 -334.358114 
L 491.947995 -336.852229 
L 493.132931 -339.346345 
L 494.22734 -341.840461 
L 495.244369 -344.334577 
L 496.198755 -346.828693 
L 497.10554 -349.322809 
L 497.978689 -351.816925 
L 498.829822 -354.311041 
L 499.667203 -356.805157 
L 500.495136 -359.299273 
L 501.313813 -361.793388 
L 502.119635 -364.287504 
L 502.90593 -366.78162 
L 503.663965 -369.275736 
L 504.384093 -371.769852 
L 505.056904 -374.263968 
L 505.674238 -376.758084 
L 506.229942 -379.2522 
L 506.720349 -381.746316 
L 507.144424 -384.240431 
L 507.503644 -386.734547 
L 507.801642 -389.228663 
L 508.043711 -391.722779 
L 508.236243 -394.216895 
L 509.333757 -394.216895 
L 509.333757 -394.216895 
L 509.526289 -391.722779 
L 509.768358 -389.228663 
L 510.066356 -386.734547 
L 510.425576 -384.240431 
L 510.849651 -381.746316 
L 511.340058 -379.2522 
L 511.895762 -376.758084 
L 512.513096 -374.263968 
L 513.185907 -371.769852 
L 513.906035 -369.275736 
L 514.66407 -366.78162 
L 515.450365 -364.287504 
L 516.256187 -361.793388 
L 517.074864 -359.299273 
L 517.902797 -356.805157 
L 518.740178 -354.311041 
L 519.591311 -351.816925 
L 520.46446 -349.322809 
L 521.371245 -346.828693 
L 522.325631 -344.334577 
L 523.34266 -341.840461 
L 524.437069 -339.346345 
L 525.622005 -336.852229 
L 526.907972 -334.358114 
L 528.302152 -331.863998 
L 529.808125 -329.369882 
L 531.425971 -326.875766 
L 533.152623 -324.38165 
L 534.982307 -321.887534 
L 536.906874 -319.393418 
L 538.915835 -316.899302 
L 540.996001 -314.405186 
L 543.130681 -311.91107 
L 545.298553 -309.416955 
L 547.472386 -306.922839 
L 549.617913 -304.428723 
L 551.693161 -301.934607 
L 553.64855 -299.440491 
L 555.427973 -296.946375 
L 556.970962 -294.452259 
L 558.215878 -291.958143 
L 559.103891 -289.464027 
L 559.583413 -286.969911 
L 559.614498 -284.475796 
L 559.172722 -281.98168 
L 558.252075 -279.487564 
L 556.866484 -276.993448 
L 555.049732 -274.499332 
L 552.853717 -272.005216 
L 550.345194 -269.5111 
L 547.601282 -267.016984 
L 544.704225 -264.522868 
L 541.735896 -262.028753 
L 538.772643 -259.534637 
L 535.880961 -257.040521 
L 533.114389 -254.546405 
L 530.511883 -252.052289 
L 528.097694 -249.558173 
L 525.882618 -247.064057 
L 523.866332 -244.569941 
L 522.040385 -242.075825 
L 520.391416 -239.581709 
L 518.904174 -237.087594 
L 517.563989 -234.593478 
L 516.358502 -232.099362 
L 515.278567 -229.605246 
L 514.318381 -227.11113 
L 513.474998 -224.617014 
L 512.747425 -222.122898 
L 512.135523 -219.628782 
L 511.638889 -217.134666 
L 511.255881 -214.64055 
L 510.982853 -212.146435 
L 510.813641 -209.652319 
L 510.739318 -207.158203 
L 510.74818 -204.664087 
L 510.825963 -202.169971 
L 510.956269 -199.675855 
L 511.121181 -197.181739 
L 511.302051 -194.687623 
L 511.480434 -192.193507 
L 511.63909 -189.699391 
L 511.762991 -187.205276 
L 511.840231 -184.71116 
L 511.862735 -182.217044 
L 511.82667 -179.722928 
L 511.73252 -177.228812 
L 511.584775 -174.734696 
L 511.391299 -172.24058 
L 511.162424 -169.746464 
L 510.909895 -167.252348 
L 510.645787 -164.758232 
L 510.38151 -162.264117 
L 510.127008 -159.770001 
L 509.890203 -157.275885 
L 509.676723 -154.781769 
L 509.489883 -152.287653 
L 509.330886 -149.793537 
L 509.199176 -147.299421 
z
" style="stroke: #434343; stroke-width: 1.5"/>
    </defs>
    <g clip-path="url(#pfaab63390f)">
     <use xlink:href="#m84929f2f67" x="0" y="432" style="fill: #4a9eb4; stroke: #434343; stroke-width: 1.5"/>
    </g>
   </g>
   <g id="PolyCollection_5">
    <defs>
     <path id="mcca1ce28fe" d="M 642.93222 -191.73589 
L 641.85778 -191.73589 
L 641.695426 -193.838793 
L 641.495127 -195.941696 
L 641.251314 -198.0446 
L 640.958421 -200.147503 
L 640.611085 -202.250406 
L 640.204358 -204.35331 
L 639.733937 -206.456213 
L 639.196382 -208.559116 
L 638.589327 -210.66202 
L 637.911664 -212.764923 
L 637.163709 -214.867826 
L 636.347317 -216.970729 
L 635.465966 -219.073633 
L 634.524775 -221.176536 
L 633.530473 -223.279439 
L 632.49128 -225.382343 
L 631.416706 -227.485246 
L 630.317251 -229.588149 
L 629.203984 -231.691053 
L 628.088018 -233.793956 
L 626.979884 -235.896859 
L 625.888819 -237.999763 
L 624.822028 -240.102666 
L 623.783974 -242.205569 
L 622.775765 -244.308472 
L 621.794729 -246.411376 
L 620.834252 -248.514279 
L 619.88395 -250.617182 
L 618.930213 -252.720086 
L 617.957139 -254.822989 
L 616.947806 -256.925892 
L 615.885825 -259.028796 
L 614.757042 -261.131699 
L 613.551238 -263.234602 
L 612.263676 -265.337506 
L 610.896319 -267.440409 
L 609.458589 -269.543312 
L 607.967558 -271.646215 
L 606.447536 -273.749119 
L 604.929061 -275.852022 
L 603.44737 -277.954925 
L 602.04048 -280.057829 
L 600.747032 -282.160732 
L 599.604102 -284.263635 
L 598.645136 -286.366539 
L 597.898189 -288.469442 
L 597.384582 -290.572345 
L 597.118063 -292.675249 
L 597.104486 -294.778152 
L 597.342003 -296.881055 
L 597.821697 -298.983958 
L 598.528558 -301.086862 
L 599.442706 -303.189765 
L 600.540719 -305.292668 
L 601.796976 -307.395572 
L 603.184909 -309.498475 
L 604.678081 -311.601378 
L 606.251051 -313.704282 
L 607.879991 -315.807185 
L 609.543064 -317.910088 
L 611.220583 -320.012992 
L 612.894991 -322.115895 
L 614.550724 -324.218798 
L 616.17401 -326.321701 
L 617.752662 -328.424605 
L 619.275935 -330.527508 
L 620.734451 -332.630411 
L 622.12025 -334.733315 
L 623.426928 -336.836218 
L 624.649864 -338.939121 
L 625.786477 -341.042025 
L 626.836472 -343.144928 
L 627.802008 -345.247831 
L 628.687729 -347.350735 
L 629.500639 -349.453638 
L 630.249773 -351.556541 
L 630.945693 -353.659444 
L 631.599823 -355.762348 
L 632.223687 -357.865251 
L 632.828117 -359.968154 
L 633.422506 -362.071058 
L 634.014186 -364.173961 
L 634.607983 -366.276864 
L 635.206009 -368.379768 
L 635.807679 -370.482671 
L 636.409972 -372.585574 
L 637.007877 -374.688478 
L 637.594978 -376.791381 
L 638.164118 -378.894284 
L 638.708055 -380.997188 
L 639.220075 -383.100091 
L 639.694482 -385.202994 
L 640.126956 -387.305897 
L 640.514754 -389.408801 
L 640.856753 -391.511704 
L 641.153372 -393.614607 
L 641.406374 -395.717511 
L 641.618607 -397.820414 
L 641.79371 -399.923317 
L 642.99629 -399.923317 
L 642.99629 -399.923317 
L 643.171393 -397.820414 
L 643.383626 -395.717511 
L 643.636628 -393.614607 
L 643.933247 -391.511704 
L 644.275246 -389.408801 
L 644.663044 -387.305897 
L 645.095518 -385.202994 
L 645.569925 -383.100091 
L 646.081945 -380.997188 
L 646.625882 -378.894284 
L 647.195022 -376.791381 
L 647.782123 -374.688478 
L 648.380028 -372.585574 
L 648.982321 -370.482671 
L 649.583991 -368.379768 
L 650.182017 -366.276864 
L 650.775814 -364.173961 
L 651.367494 -362.071058 
L 651.961883 -359.968154 
L 652.566313 -357.865251 
L 653.190177 -355.762348 
L 653.844307 -353.659444 
L 654.540227 -351.556541 
L 655.289361 -349.453638 
L 656.102271 -347.350735 
L 656.987992 -345.247831 
L 657.953528 -343.144928 
L 659.003523 -341.042025 
L 660.140136 -338.939121 
L 661.363072 -336.836218 
L 662.66975 -334.733315 
L 664.055549 -332.630411 
L 665.514065 -330.527508 
L 667.037338 -328.424605 
L 668.61599 -326.321701 
L 670.239276 -324.218798 
L 671.895009 -322.115895 
L 673.569417 -320.012992 
L 675.246936 -317.910088 
L 676.910009 -315.807185 
L 678.538949 -313.704282 
L 680.111919 -311.601378 
L 681.605091 -309.498475 
L 682.993024 -307.395572 
L 684.249281 -305.292668 
L 685.347294 -303.189765 
L 686.261442 -301.086862 
L 686.968303 -298.983958 
L 687.447997 -296.881055 
L 687.685514 -294.778152 
L 687.671937 -292.675249 
L 687.405418 -290.572345 
L 686.891811 -288.469442 
L 686.144864 -286.366539 
L 685.185898 -284.263635 
L 684.042968 -282.160732 
L 682.74952 -280.057829 
L 681.34263 -277.954925 
L 679.860939 -275.852022 
L 678.342464 -273.749119 
L 676.822442 -271.646215 
L 675.331411 -269.543312 
L 673.893681 -267.440409 
L 672.526324 -265.337506 
L 671.238762 -263.234602 
L 670.032958 -261.131699 
L 668.904175 -259.028796 
L 667.842194 -256.925892 
L 666.832861 -254.822989 
L 665.859787 -252.720086 
L 664.90605 -250.617182 
L 663.955748 -248.514279 
L 662.995271 -246.411376 
L 662.014235 -244.308472 
L 661.006026 -242.205569 
L 659.967972 -240.102666 
L 658.901181 -237.999763 
L 657.810116 -235.896859 
L 656.701982 -233.793956 
L 655.586016 -231.691053 
L 654.472749 -229.588149 
L 653.373294 -227.485246 
L 652.29872 -225.382343 
L 651.259527 -223.279439 
L 650.265225 -221.176536 
L 649.324034 -219.073633 
L 648.442683 -216.970729 
L 647.626291 -214.867826 
L 646.878336 -212.764923 
L 646.200673 -210.66202 
L 645.593618 -208.559116 
L 645.056063 -206.456213 
L 644.585642 -204.35331 
L 644.178915 -202.250406 
L 643.831579 -200.147503 
L 643.538686 -198.0446 
L 643.294873 -195.941696 
L 643.094574 -193.838793 
L 642.93222 -191.73589 
z
" style="stroke: #434343; stroke-width: 1.5"/>
    </defs>
    <g clip-path="url(#pfaab63390f)">
     <use xlink:href="#mcca1ce28fe" x="0" y="432" style="fill: #c789e5; stroke: #434343; stroke-width: 1.5"/>
    </g>
   </g>
   <g id="matplotlib.axis_1">
    <g id="xtick_1">
     <g id="line2d_1">
      <defs>
       <path id="mc3b6d40b79" d="M 0 0 
L 0 3.5 
" style="stroke: #000000; stroke-width: 0.8"/>
      </defs>
      <g>
       <use xlink:href="#mc3b6d40b79" x="107.955" y="343.03527" style="stroke: #000000; stroke-width: 0.8"/>
      </g>
     </g>
     <g id="text_1">
      <!-- Reference -->
      <g transform="translate(92.103655 391.013212) rotate(-45) scale(0.1 -0.1)">
       <defs>
        <path id="DejaVuSans-52" d="M 2841 2188 
Q 3044 2119 3236 1894 
Q 3428 1669 3622 1275 
L 4263 0 
L 3584 0 
L 2988 1197 
Q 2756 1666 2539 1819 
Q 2322 1972 1947 1972 
L 1259 1972 
L 1259 0 
L 628 0 
L 628 4666 
L 2053 4666 
Q 2853 4666 3247 4331 
Q 3641 3997 3641 3322 
Q 3641 2881 3436 2590 
Q 3231 2300 2841 2188 
z
M 1259 4147 
L 1259 2491 
L 2053 2491 
Q 2509 2491 2742 2702 
Q 2975 2913 2975 3322 
Q 2975 3731 2742 3939 
Q 2509 4147 2053 4147 
L 1259 4147 
z
" transform="scale(0.015625)"/>
        <path id="DejaVuSans-65" d="M 3597 1894 
L 3597 1613 
L 953 1613 
Q 991 1019 1311 708 
Q 1631 397 2203 397 
Q 2534 397 2845 478 
Q 3156 559 3463 722 
L 3463 178 
Q 3153 47 2828 -22 
Q 2503 -91 2169 -91 
Q 1331 -91 842 396 
Q 353 884 353 1716 
Q 353 2575 817 3079 
Q 1281 3584 2069 3584 
Q 2775 3584 3186 3129 
Q 3597 2675 3597 1894 
z
M 3022 2063 
Q 3016 2534 2758 2815 
Q 2500 3097 2075 3097 
Q 1594 3097 1305 2825 
Q 1016 2553 972 2059 
L 3022 2063 
z
" transform="scale(0.015625)"/>
        <path id="DejaVuSans-66" d="M 2375 4863 
L 2375 4384 
L 1825 4384 
Q 1516 4384 1395 4259 
Q 1275 4134 1275 3809 
L 1275 3500 
L 2222 3500 
L 2222 3053 
L 1275 3053 
L 1275 0 
L 697 0 
L 697 3053 
L 147 3053 
L 147 3500 
L 697 3500 
L 697 3744 
Q 697 4328 969 4595 
Q 1241 4863 1831 4863 
L 2375 4863 
z
" transform="scale(0.015625)"/>
        <path id="DejaVuSans-72" d="M 2631 2963 
Q 2534 3019 2420 3045 
Q 2306 3072 2169 3072 
Q 1681 3072 1420 2755 
Q 1159 2438 1159 1844 
L 1159 0 
L 581 0 
L 581 3500 
L 1159 3500 
L 1159 2956 
Q 1341 3275 1631 3429 
Q 1922 3584 2338 3584 
Q 2397 3584 2469 3576 
Q 2541 3569 2628 3553 
L 2631 2963 
z
" transform="scale(0.015625)"/>
        <path id="DejaVuSans-6e" d="M 3513 2113 
L 3513 0 
L 2938 0 
L 2938 2094 
Q 2938 2591 2744 2837 
Q 2550 3084 2163 3084 
Q 1697 3084 1428 2787 
Q 1159 2491 1159 1978 
L 1159 0 
L 581 0 
L 581 3500 
L 1159 3500 
L 1159 2956 
Q 1366 3272 1645 3428 
Q 1925 3584 2291 3584 
Q 2894 3584 3203 3211 
Q 3513 2838 3513 2113 
z
" transform="scale(0.015625)"/>
        <path id="DejaVuSans-63" d="M 3122 3366 
L 3122 2828 
Q 2878 2963 2633 3030 
Q 2388 3097 2138 3097 
Q 1578 3097 1268 2742 
Q 959 2388 959 1747 
Q 959 1106 1268 751 
Q 1578 397 2138 397 
Q 2388 397 2633 464 
Q 2878 531 3122 666 
L 3122 134 
Q 2881 22 2623 -34 
Q 2366 -91 2075 -91 
Q 1284 -91 818 406 
Q 353 903 353 1747 
Q 353 2603 823 3093 
Q 1294 3584 2113 3584 
Q 2378 3584 2631 3529 
Q 2884 3475 3122 3366 
z
" transform="scale(0.015625)"/>
       </defs>
       <use xlink:href="#DejaVuSans-52"/>
       <use xlink:href="#DejaVuSans-65" x="64.982422"/>
       <use xlink:href="#DejaVuSans-66" x="126.505859"/>
       <use xlink:href="#DejaVuSans-65" x="161.710938"/>
       <use xlink:href="#DejaVuSans-72" x="223.234375"/>
       <use xlink:href="#DejaVuSans-65" x="262.097656"/>
       <use xlink:href="#DejaVuSans-6e" x="323.621094"/>
       <use xlink:href="#DejaVuSans-63" x="387"/>
       <use xlink:href="#DejaVuSans-65" x="441.980469"/>
      </g>
     </g>
    </g>
    <g id="xtick_2">
     <g id="line2d_2">
      <g>
       <use xlink:href="#mc3b6d40b79" x="241.565" y="343.03527" style="stroke: #000000; stroke-width: 0.8"/>
      </g>
     </g>
     <g id="text_2">
      <!-- 24h 4ºC +PBS -->
      <g transform="translate(218.442056 405.55641) rotate(-45) scale(0.1 -0.1)">
       <defs>
        <path id="DejaVuSans-32" d="M 1228 531 
L 3431 531 
L 3431 0 
L 469 0 
L 469 531 
Q 828 903 1448 1529 
Q 2069 2156 2228 2338 
Q 2531 2678 2651 2914 
Q 2772 3150 2772 3378 
Q 2772 3750 2511 3984 
Q 2250 4219 1831 4219 
Q 1534 4219 1204 4116 
Q 875 4013 500 3803 
L 500 4441 
Q 881 4594 1212 4672 
Q 1544 4750 1819 4750 
Q 2544 4750 2975 4387 
Q 3406 4025 3406 3419 
Q 3406 3131 3298 2873 
Q 3191 2616 2906 2266 
Q 2828 2175 2409 1742 
Q 1991 1309 1228 531 
z
" transform="scale(0.015625)"/>
        <path id="DejaVuSans-34" d="M 2419 4116 
L 825 1625 
L 2419 1625 
L 2419 4116 
z
M 2253 4666 
L 3047 4666 
L 3047 1625 
L 3713 1625 
L 3713 1100 
L 3047 1100 
L 3047 0 
L 2419 0 
L 2419 1100 
L 313 1100 
L 313 1709 
L 2253 4666 
z
" transform="scale(0.015625)"/>
        <path id="DejaVuSans-68" d="M 3513 2113 
L 3513 0 
L 2938 0 
L 2938 2094 
Q 2938 2591 2744 2837 
Q 2550 3084 2163 3084 
Q 1697 3084 1428 2787 
Q 1159 2491 1159 1978 
L 1159 0 
L 581 0 
L 581 4863 
L 1159 4863 
L 1159 2956 
Q 1366 3272 1645 3428 
Q 1925 3584 2291 3584 
Q 2894 3584 3203 3211 
Q 3513 2838 3513 2113 
z
" transform="scale(0.015625)"/>
        <path id="DejaVuSans-20" transform="scale(0.015625)"/>
        <path id="DejaVuSans-ba" d="M 434 1850 
L 2584 1850 
L 2584 1466 
L 434 1466 
L 434 1850 
z
M 1509 4750 
Q 2069 4750 2391 4404 
Q 2713 4059 2713 3463 
Q 2713 2866 2391 2523 
Q 2069 2181 1509 2181 
Q 950 2181 625 2525 
Q 300 2869 300 3463 
Q 300 4059 625 4404 
Q 950 4750 1509 4750 
z
M 1509 4391 
Q 1181 4391 984 4139 
Q 788 3888 788 3463 
Q 788 3047 986 2797 
Q 1184 2547 1509 2547 
Q 1838 2547 2033 2797 
Q 2228 3047 2228 3463 
Q 2228 3891 2034 4141 
Q 1841 4391 1509 4391 
z
" transform="scale(0.015625)"/>
        <path id="DejaVuSans-43" d="M 4122 4306 
L 4122 3641 
Q 3803 3938 3442 4084 
Q 3081 4231 2675 4231 
Q 1875 4231 1450 3742 
Q 1025 3253 1025 2328 
Q 1025 1406 1450 917 
Q 1875 428 2675 428 
Q 3081 428 3442 575 
Q 3803 722 4122 1019 
L 4122 359 
Q 3791 134 3420 21 
Q 3050 -91 2638 -91 
Q 1578 -91 968 557 
Q 359 1206 359 2328 
Q 359 3453 968 4101 
Q 1578 4750 2638 4750 
Q 3056 4750 3426 4639 
Q 3797 4528 4122 4306 
z
" transform="scale(0.015625)"/>
        <path id="DejaVuSans-2b" d="M 2944 4013 
L 2944 2272 
L 4684 2272 
L 4684 1741 
L 2944 1741 
L 2944 0 
L 2419 0 
L 2419 1741 
L 678 1741 
L 678 2272 
L 2419 2272 
L 2419 4013 
L 2944 4013 
z
" transform="scale(0.015625)"/>
        <path id="DejaVuSans-50" d="M 1259 4147 
L 1259 2394 
L 2053 2394 
Q 2494 2394 2734 2622 
Q 2975 2850 2975 3272 
Q 2975 3691 2734 3919 
Q 2494 4147 2053 4147 
L 1259 4147 
z
M 628 4666 
L 2053 4666 
Q 2838 4666 3239 4311 
Q 3641 3956 3641 3272 
Q 3641 2581 3239 2228 
Q 2838 1875 2053 1875 
L 1259 1875 
L 1259 0 
L 628 0 
L 628 4666 
z
" transform="scale(0.015625)"/>
        <path id="DejaVuSans-42" d="M 1259 2228 
L 1259 519 
L 2272 519 
Q 2781 519 3026 730 
Q 3272 941 3272 1375 
Q 3272 1813 3026 2020 
Q 2781 2228 2272 2228 
L 1259 2228 
z
M 1259 4147 
L 1259 2741 
L 2194 2741 
Q 2656 2741 2882 2914 
Q 3109 3088 3109 3444 
Q 3109 3797 2882 3972 
Q 2656 4147 2194 4147 
L 1259 4147 
z
M 628 4666 
L 2241 4666 
Q 2963 4666 3353 4366 
Q 3744 4066 3744 3513 
Q 3744 3084 3544 2831 
Q 3344 2578 2956 2516 
Q 3422 2416 3680 2098 
Q 3938 1781 3938 1306 
Q 3938 681 3513 340 
Q 3088 0 2303 0 
L 628 0 
L 628 4666 
z
" transform="scale(0.015625)"/>
        <path id="DejaVuSans-53" d="M 3425 4513 
L 3425 3897 
Q 3066 4069 2747 4153 
Q 2428 4238 2131 4238 
Q 1616 4238 1336 4038 
Q 1056 3838 1056 3469 
Q 1056 3159 1242 3001 
Q 1428 2844 1947 2747 
L 2328 2669 
Q 3034 2534 3370 2195 
Q 3706 1856 3706 1288 
Q 3706 609 3251 259 
Q 2797 -91 1919 -91 
Q 1588 -91 1214 -16 
Q 841 59 441 206 
L 441 856 
Q 825 641 1194 531 
Q 1563 422 1919 422 
Q 2459 422 2753 634 
Q 3047 847 3047 1241 
Q 3047 1584 2836 1778 
Q 2625 1972 2144 2069 
L 1759 2144 
Q 1053 2284 737 2584 
Q 422 2884 422 3419 
Q 422 4038 858 4394 
Q 1294 4750 2059 4750 
Q 2388 4750 2728 4690 
Q 3069 4631 3425 4513 
z
" transform="scale(0.015625)"/>
       </defs>
       <use xlink:href="#DejaVuSans-32"/>
       <use xlink:href="#DejaVuSans-34" x="63.623047"/>
       <use xlink:href="#DejaVuSans-68" x="127.246094"/>
       <use xlink:href="#DejaVuSans-20" x="190.625"/>
       <use xlink:href="#DejaVuSans-34" x="222.412109"/>
       <use xlink:href="#DejaVuSans-ba" x="286.035156"/>
       <use xlink:href="#DejaVuSans-43" x="333.154297"/>
       <use xlink:href="#DejaVuSans-20" x="402.978516"/>
       <use xlink:href="#DejaVuSans-2b" x="434.765625"/>
       <use xlink:href="#DejaVuSans-50" x="518.554688"/>
       <use xlink:href="#DejaVuSans-42" x="578.857422"/>
       <use xlink:href="#DejaVuSans-53" x="645.710938"/>
      </g>
     </g>
    </g>
    <g id="xtick_3">
     <g id="line2d_3">
      <g>
       <use xlink:href="#mc3b6d40b79" x="375.175" y="343.03527" style="stroke: #000000; stroke-width: 0.8"/>
      </g>
     </g>
     <g id="text_3">
      <!-- 72h 4ºC +PBS -->
      <g transform="translate(352.052056 405.55641) rotate(-45) scale(0.1 -0.1)">
       <defs>
        <path id="DejaVuSans-37" d="M 525 4666 
L 3525 4666 
L 3525 4397 
L 1831 0 
L 1172 0 
L 2766 4134 
L 525 4134 
L 525 4666 
z
" transform="scale(0.015625)"/>
       </defs>
       <use xlink:href="#DejaVuSans-37"/>
       <use xlink:href="#DejaVuSans-32" x="63.623047"/>
       <use xlink:href="#DejaVuSans-68" x="127.246094"/>
       <use xlink:href="#DejaVuSans-20" x="190.625"/>
       <use xlink:href="#DejaVuSans-34" x="222.412109"/>
       <use xlink:href="#DejaVuSans-ba" x="286.035156"/>
       <use xlink:href="#DejaVuSans-43" x="333.154297"/>
       <use xlink:href="#DejaVuSans-20" x="402.978516"/>
       <use xlink:href="#DejaVuSans-2b" x="434.765625"/>
       <use xlink:href="#DejaVuSans-50" x="518.554688"/>
       <use xlink:href="#DejaVuSans-42" x="578.857422"/>
       <use xlink:href="#DejaVuSans-53" x="645.710938"/>
      </g>
     </g>
    </g>
    <g id="xtick_4">
     <g id="line2d_4">
      <g>
       <use xlink:href="#mc3b6d40b79" x="508.785" y="343.03527" style="stroke: #000000; stroke-width: 0.8"/>
      </g>
     </g>
     <g id="text_4">
      <!-- 24h 4ºC -PBS -->
      <g transform="translate(487.349168 402.182185) rotate(-45) scale(0.1 -0.1)">
       <defs>
        <path id="DejaVuSans-2d" d="M 313 2009 
L 1997 2009 
L 1997 1497 
L 313 1497 
L 313 2009 
z
" transform="scale(0.015625)"/>
       </defs>
       <use xlink:href="#DejaVuSans-32"/>
       <use xlink:href="#DejaVuSans-34" x="63.623047"/>
       <use xlink:href="#DejaVuSans-68" x="127.246094"/>
       <use xlink:href="#DejaVuSans-20" x="190.625"/>
       <use xlink:href="#DejaVuSans-34" x="222.412109"/>
       <use xlink:href="#DejaVuSans-ba" x="286.035156"/>
       <use xlink:href="#DejaVuSans-43" x="333.154297"/>
       <use xlink:href="#DejaVuSans-20" x="402.978516"/>
       <use xlink:href="#DejaVuSans-2d" x="434.765625"/>
       <use xlink:href="#DejaVuSans-50" x="470.849609"/>
       <use xlink:href="#DejaVuSans-42" x="531.152344"/>
       <use xlink:href="#DejaVuSans-53" x="598.005859"/>
      </g>
     </g>
    </g>
    <g id="xtick_5">
     <g id="line2d_5">
      <g>
       <use xlink:href="#mc3b6d40b79" x="642.395" y="343.03527" style="stroke: #000000; stroke-width: 0.8"/>
      </g>
     </g>
     <g id="text_5">
      <!-- 72h 4ºC -PBS -->
      <g transform="translate(620.959168 402.182185) rotate(-45) scale(0.1 -0.1)">
       <use xlink:href="#DejaVuSans-37"/>
       <use xlink:href="#DejaVuSans-32" x="63.623047"/>
       <use xlink:href="#DejaVuSans-68" x="127.246094"/>
       <use xlink:href="#DejaVuSans-20" x="190.625"/>
       <use xlink:href="#DejaVuSans-34" x="222.412109"/>
       <use xlink:href="#DejaVuSans-ba" x="286.035156"/>
       <use xlink:href="#DejaVuSans-43" x="333.154297"/>
       <use xlink:href="#DejaVuSans-20" x="402.978516"/>
       <use xlink:href="#DejaVuSans-2d" x="434.765625"/>
       <use xlink:href="#DejaVuSans-50" x="470.849609"/>
       <use xlink:href="#DejaVuSans-42" x="531.152344"/>
       <use xlink:href="#DejaVuSans-53" x="598.005859"/>
      </g>
     </g>
    </g>
    <g id="text_6">
     <!-- Condition -->
     <g transform="translate(351.314844 418.625409) scale(0.1 -0.1)">
      <defs>
       <path id="DejaVuSans-6f" d="M 1959 3097 
Q 1497 3097 1228 2736 
Q 959 2375 959 1747 
Q 959 1119 1226 758 
Q 1494 397 1959 397 
Q 2419 397 2687 759 
Q 2956 1122 2956 1747 
Q 2956 2369 2687 2733 
Q 2419 3097 1959 3097 
z
M 1959 3584 
Q 2709 3584 3137 3096 
Q 3566 2609 3566 1747 
Q 3566 888 3137 398 
Q 2709 -91 1959 -91 
Q 1206 -91 779 398 
Q 353 888 353 1747 
Q 353 2609 779 3096 
Q 1206 3584 1959 3584 
z
" transform="scale(0.015625)"/>
       <path id="DejaVuSans-64" d="M 2906 2969 
L 2906 4863 
L 3481 4863 
L 3481 0 
L 2906 0 
L 2906 525 
Q 2725 213 2448 61 
Q 2172 -91 1784 -91 
Q 1150 -91 751 415 
Q 353 922 353 1747 
Q 353 2572 751 3078 
Q 1150 3584 1784 3584 
Q 2172 3584 2448 3432 
Q 2725 3281 2906 2969 
z
M 947 1747 
Q 947 1113 1208 752 
Q 1469 391 1925 391 
Q 2381 391 2643 752 
Q 2906 1113 2906 1747 
Q 2906 2381 2643 2742 
Q 2381 3103 1925 3103 
Q 1469 3103 1208 2742 
Q 947 2381 947 1747 
z
" transform="scale(0.015625)"/>
       <path id="DejaVuSans-69" d="M 603 3500 
L 1178 3500 
L 1178 0 
L 603 0 
L 603 3500 
z
M 603 4863 
L 1178 4863 
L 1178 4134 
L 603 4134 
L 603 4863 
z
" transform="scale(0.015625)"/>
       <path id="DejaVuSans-74" d="M 1172 4494 
L 1172 3500 
L 2356 3500 
L 2356 3053 
L 1172 3053 
L 1172 1153 
Q 1172 725 1289 603 
Q 1406 481 1766 481 
L 2356 481 
L 2356 0 
L 1766 0 
Q 1100 0 847 248 
Q 594 497 594 1153 
L 594 3053 
L 172 3053 
L 172 3500 
L 594 3500 
L 594 4494 
L 1172 4494 
z
" transform="scale(0.015625)"/>
      </defs>
      <use xlink:href="#DejaVuSans-43"/>
      <use xlink:href="#DejaVuSans-6f" x="69.824219"/>
      <use xlink:href="#DejaVuSans-6e" x="131.005859"/>
      <use xlink:href="#DejaVuSans-64" x="194.384766"/>
      <use xlink:href="#DejaVuSans-69" x="257.861328"/>
      <use xlink:href="#DejaVuSans-74" x="285.644531"/>
      <use xlink:href="#DejaVuSans-69" x="324.853516"/>
      <use xlink:href="#DejaVuSans-6f" x="352.636719"/>
      <use xlink:href="#DejaVuSans-6e" x="413.818359"/>
     </g>
    </g>
   </g>
   <g id="matplotlib.axis_2">
    <g id="ytick_1">
     <g id="line2d_6">
      <defs>
       <path id="m45bc53ea61" d="M 0 0 
L -3.5 0 
" style="stroke: #000000; stroke-width: 0.8"/>
      </defs>
      <g>
       <use xlink:href="#m45bc53ea61" x="41.15" y="284.095479" style="stroke: #000000; stroke-width: 0.8"/>
      </g>
     </g>
     <g id="text_7">
      <!-- 0 -->
      <g transform="translate(27.7875 287.894698) scale(0.1 -0.1)">
       <defs>
        <path id="DejaVuSans-30" d="M 2034 4250 
Q 1547 4250 1301 3770 
Q 1056 3291 1056 2328 
Q 1056 1369 1301 889 
Q 1547 409 2034 409 
Q 2525 409 2770 889 
Q 3016 1369 3016 2328 
Q 3016 3291 2770 3770 
Q 2525 4250 2034 4250 
z
M 2034 4750 
Q 2819 4750 3233 4129 
Q 3647 3509 3647 2328 
Q 3647 1150 3233 529 
Q 2819 -91 2034 -91 
Q 1250 -91 836 529 
Q 422 1150 422 2328 
Q 422 3509 836 4129 
Q 1250 4750 2034 4750 
z
" transform="scale(0.015625)"/>
       </defs>
       <use xlink:href="#DejaVuSans-30"/>
      </g>
     </g>
    </g>
    <g id="ytick_2">
     <g id="line2d_7">
      <g>
       <use xlink:href="#m45bc53ea61" x="41.15" y="221.254316" style="stroke: #000000; stroke-width: 0.8"/>
      </g>
     </g>
     <g id="text_8">
      <!-- 2 -->
      <g transform="translate(27.7875 225.053535) scale(0.1 -0.1)">
       <use xlink:href="#DejaVuSans-32"/>
      </g>
     </g>
    </g>
    <g id="ytick_3">
     <g id="line2d_8">
      <g>
       <use xlink:href="#m45bc53ea61" x="41.15" y="158.413154" style="stroke: #000000; stroke-width: 0.8"/>
      </g>
     </g>
     <g id="text_9">
      <!-- 4 -->
      <g transform="translate(27.7875 162.212372) scale(0.1 -0.1)">
       <use xlink:href="#DejaVuSans-34"/>
      </g>
     </g>
    </g>
    <g id="ytick_4">
     <g id="line2d_9">
      <g>
       <use xlink:href="#m45bc53ea61" x="41.15" y="95.571991" style="stroke: #000000; stroke-width: 0.8"/>
      </g>
     </g>
     <g id="text_10">
      <!-- 6 -->
      <g transform="translate(27.7875 99.37121) scale(0.1 -0.1)">
       <defs>
        <path id="DejaVuSans-36" d="M 2113 2584 
Q 1688 2584 1439 2293 
Q 1191 2003 1191 1497 
Q 1191 994 1439 701 
Q 1688 409 2113 409 
Q 2538 409 2786 701 
Q 3034 994 3034 1497 
Q 3034 2003 2786 2293 
Q 2538 2584 2113 2584 
z
M 3366 4563 
L 3366 3988 
Q 3128 4100 2886 4159 
Q 2644 4219 2406 4219 
Q 1781 4219 1451 3797 
Q 1122 3375 1075 2522 
Q 1259 2794 1537 2939 
Q 1816 3084 2150 3084 
Q 2853 3084 3261 2657 
Q 3669 2231 3669 1497 
Q 3669 778 3244 343 
Q 2819 -91 2113 -91 
Q 1303 -91 875 529 
Q 447 1150 447 2328 
Q 447 3434 972 4092 
Q 1497 4750 2381 4750 
Q 2619 4750 2861 4703 
Q 3103 4656 3366 4563 
z
" transform="scale(0.015625)"/>
       </defs>
       <use xlink:href="#DejaVuSans-36"/>
      </g>
     </g>
    </g>
    <g id="ytick_5">
     <g id="line2d_10">
      <g>
       <use xlink:href="#m45bc53ea61" x="41.15" y="32.730829" style="stroke: #000000; stroke-width: 0.8"/>
      </g>
     </g>
     <g id="text_11">
      <!-- 8 -->
      <g transform="translate(27.7875 36.530047) scale(0.1 -0.1)">
       <defs>
        <path id="DejaVuSans-38" d="M 2034 2216 
Q 1584 2216 1326 1975 
Q 1069 1734 1069 1313 
Q 1069 891 1326 650 
Q 1584 409 2034 409 
Q 2484 409 2743 651 
Q 3003 894 3003 1313 
Q 3003 1734 2745 1975 
Q 2488 2216 2034 2216 
z
M 1403 2484 
Q 997 2584 770 2862 
Q 544 3141 544 3541 
Q 544 4100 942 4425 
Q 1341 4750 2034 4750 
Q 2731 4750 3128 4425 
Q 3525 4100 3525 3541 
Q 3525 3141 3298 2862 
Q 3072 2584 2669 2484 
Q 3125 2378 3379 2068 
Q 3634 1759 3634 1313 
Q 3634 634 3220 271 
Q 2806 -91 2034 -91 
Q 1263 -91 848 271 
Q 434 634 434 1313 
Q 434 1759 690 2068 
Q 947 2378 1403 2484 
z
M 1172 3481 
Q 1172 3119 1398 2916 
Q 1625 2713 2034 2713 
Q 2441 2713 2670 2916 
Q 2900 3119 2900 3481 
Q 2900 3844 2670 4047 
Q 2441 4250 2034 4250 
Q 1625 4250 1398 4047 
Q 1172 3844 1172 3481 
z
" transform="scale(0.015625)"/>
       </defs>
       <use xlink:href="#DejaVuSans-38"/>
      </g>
     </g>
    </g>
    <g id="text_12">
     <!-- $log([PERM]/[Total Protein])$ -->
     <g transform="translate(21.6875 242.167635) rotate(-90) scale(0.1 -0.1)">
      <defs>
       <path id="DejaVuSans-Oblique-6c" d="M 1172 4863 
L 1747 4863 
L 800 0 
L 225 0 
L 1172 4863 
z
" transform="scale(0.015625)"/>
       <path id="DejaVuSans-Oblique-6f" d="M 1625 -91 
Q 1009 -91 651 289 
Q 294 669 294 1325 
Q 294 1706 417 2101 
Q 541 2497 738 2766 
Q 1047 3184 1428 3384 
Q 1809 3584 2291 3584 
Q 2888 3584 3255 3212 
Q 3622 2841 3622 2241 
Q 3622 1825 3500 1412 
Q 3378 1000 3181 728 
Q 2875 309 2494 109 
Q 2113 -91 1625 -91 
z
M 891 1344 
Q 891 869 1089 633 
Q 1288 397 1691 397 
Q 2269 397 2648 901 
Q 3028 1406 3028 2181 
Q 3028 2634 2825 2865 
Q 2622 3097 2228 3097 
Q 1903 3097 1650 2945 
Q 1397 2794 1197 2484 
Q 1050 2253 970 1956 
Q 891 1659 891 1344 
z
" transform="scale(0.015625)"/>
       <path id="DejaVuSans-Oblique-67" d="M 3816 3500 
L 3219 434 
Q 3047 -456 2561 -893 
Q 2075 -1331 1253 -1331 
Q 950 -1331 690 -1286 
Q 431 -1241 206 -1147 
L 313 -588 
Q 525 -725 762 -790 
Q 1000 -856 1269 -856 
Q 1816 -856 2167 -557 
Q 2519 -259 2631 300 
L 2681 563 
Q 2441 288 2122 144 
Q 1803 0 1434 0 
Q 903 0 598 351 
Q 294 703 294 1319 
Q 294 1803 478 2267 
Q 663 2731 997 3091 
Q 1219 3328 1514 3456 
Q 1809 3584 2131 3584 
Q 2484 3584 2746 3420 
Q 3009 3256 3138 2956 
L 3238 3500 
L 3816 3500 
z
M 2950 2216 
Q 2950 2641 2750 2872 
Q 2550 3103 2181 3103 
Q 1953 3103 1747 3012 
Q 1541 2922 1394 2759 
Q 1156 2491 1023 2127 
Q 891 1763 891 1375 
Q 891 944 1092 712 
Q 1294 481 1672 481 
Q 2219 481 2584 976 
Q 2950 1472 2950 2216 
z
" transform="scale(0.015625)"/>
       <path id="DejaVuSans-28" d="M 1984 4856 
Q 1566 4138 1362 3434 
Q 1159 2731 1159 2009 
Q 1159 1288 1364 580 
Q 1569 -128 1984 -844 
L 1484 -844 
Q 1016 -109 783 600 
Q 550 1309 550 2009 
Q 550 2706 781 3412 
Q 1013 4119 1484 4856 
L 1984 4856 
z
" transform="scale(0.015625)"/>
       <path id="DejaVuSans-5b" d="M 550 4863 
L 1875 4863 
L 1875 4416 
L 1125 4416 
L 1125 -397 
L 1875 -397 
L 1875 -844 
L 550 -844 
L 550 4863 
z
" transform="scale(0.015625)"/>
       <path id="DejaVuSans-Oblique-50" d="M 1081 4666 
L 2541 4666 
Q 3178 4666 3512 4369 
Q 3847 4072 3847 3500 
Q 3847 2731 3353 2303 
Q 2859 1875 1966 1875 
L 1172 1875 
L 806 0 
L 172 0 
L 1081 4666 
z
M 1613 4147 
L 1275 2394 
L 2069 2394 
Q 2606 2394 2893 2669 
Q 3181 2944 3181 3456 
Q 3181 3784 2986 3965 
Q 2791 4147 2438 4147 
L 1613 4147 
z
" transform="scale(0.015625)"/>
       <path id="DejaVuSans-Oblique-45" d="M 1081 4666 
L 4031 4666 
L 3928 4134 
L 1606 4134 
L 1338 2753 
L 3566 2753 
L 3463 2222 
L 1234 2222 
L 909 531 
L 3284 531 
L 3181 0 
L 172 0 
L 1081 4666 
z
" transform="scale(0.015625)"/>
       <path id="DejaVuSans-Oblique-52" d="M 1613 4147 
L 1294 2491 
L 2106 2491 
Q 2584 2491 2879 2755 
Q 3175 3019 3175 3444 
Q 3175 3784 2976 3965 
Q 2778 4147 2406 4147 
L 1613 4147 
z
M 2772 2241 
Q 2972 2194 3105 2009 
Q 3238 1825 3413 1275 
L 3809 0 
L 3144 0 
L 2778 1197 
Q 2638 1659 2453 1815 
Q 2269 1972 1888 1972 
L 1191 1972 
L 806 0 
L 172 0 
L 1081 4666 
L 2503 4666 
Q 3150 4666 3495 4373 
Q 3841 4081 3841 3531 
Q 3841 3044 3547 2687 
Q 3253 2331 2772 2241 
z
" transform="scale(0.015625)"/>
       <path id="DejaVuSans-Oblique-4d" d="M 1081 4666 
L 2028 4666 
L 2572 1522 
L 4378 4666 
L 5350 4666 
L 4441 0 
L 3828 0 
L 4622 4091 
L 2791 897 
L 2175 897 
L 1581 4103 
L 788 0 
L 172 0 
L 1081 4666 
z
" transform="scale(0.015625)"/>
       <path id="DejaVuSans-5d" d="M 1947 4863 
L 1947 -844 
L 622 -844 
L 622 -397 
L 1369 -397 
L 1369 4416 
L 622 4416 
L 622 4863 
L 1947 4863 
z
" transform="scale(0.015625)"/>
       <path id="DejaVuSans-2f" d="M 1625 4666 
L 2156 4666 
L 531 -594 
L 0 -594 
L 1625 4666 
z
" transform="scale(0.015625)"/>
       <path id="DejaVuSans-Oblique-54" d="M 378 4666 
L 4325 4666 
L 4225 4134 
L 2559 4134 
L 1759 0 
L 1125 0 
L 1925 4134 
L 275 4134 
L 378 4666 
z
" transform="scale(0.015625)"/>
       <path id="DejaVuSans-Oblique-74" d="M 2706 3500 
L 2619 3053 
L 1472 3053 
L 1100 1153 
Q 1081 1047 1072 975 
Q 1063 903 1063 863 
Q 1063 663 1183 572 
Q 1303 481 1569 481 
L 2150 481 
L 2053 0 
L 1503 0 
Q 991 0 739 200 
Q 488 400 488 806 
Q 488 878 497 964 
Q 506 1050 525 1153 
L 897 3053 
L 409 3053 
L 500 3500 
L 978 3500 
L 1172 4494 
L 1747 4494 
L 1556 3500 
L 2706 3500 
z
" transform="scale(0.015625)"/>
       <path id="DejaVuSans-Oblique-61" d="M 3438 1997 
L 3047 0 
L 2472 0 
L 2578 531 
Q 2325 219 2001 64 
Q 1678 -91 1281 -91 
Q 834 -91 548 182 
Q 263 456 263 884 
Q 263 1497 752 1853 
Q 1241 2209 2100 2209 
L 2900 2209 
L 2931 2363 
Q 2938 2388 2941 2417 
Q 2944 2447 2944 2509 
Q 2944 2788 2717 2942 
Q 2491 3097 2081 3097 
Q 1800 3097 1504 3025 
Q 1209 2953 897 2809 
L 997 3341 
Q 1322 3463 1633 3523 
Q 1944 3584 2234 3584 
Q 2853 3584 3176 3315 
Q 3500 3047 3500 2534 
Q 3500 2431 3484 2292 
Q 3469 2153 3438 1997 
z
M 2816 1759 
L 2241 1759 
Q 1534 1759 1195 1570 
Q 856 1381 856 984 
Q 856 709 1029 553 
Q 1203 397 1509 397 
Q 1978 397 2328 733 
Q 2678 1069 2791 1631 
L 2816 1759 
z
" transform="scale(0.015625)"/>
       <path id="DejaVuSans-Oblique-72" d="M 2853 2969 
Q 2766 3016 2653 3041 
Q 2541 3066 2413 3066 
Q 1953 3066 1609 2717 
Q 1266 2369 1153 1784 
L 800 0 
L 225 0 
L 909 3500 
L 1484 3500 
L 1375 2956 
Q 1603 3259 1920 3421 
Q 2238 3584 2597 3584 
Q 2691 3584 2781 3573 
Q 2872 3563 2963 3538 
L 2853 2969 
z
" transform="scale(0.015625)"/>
       <path id="DejaVuSans-Oblique-65" d="M 3078 2063 
Q 3088 2113 3092 2166 
Q 3097 2219 3097 2272 
Q 3097 2653 2873 2875 
Q 2650 3097 2266 3097 
Q 1838 3097 1509 2826 
Q 1181 2556 1013 2059 
L 3078 2063 
z
M 3578 1613 
L 903 1613 
Q 884 1494 878 1425 
Q 872 1356 872 1306 
Q 872 872 1139 634 
Q 1406 397 1894 397 
Q 2269 397 2603 481 
Q 2938 566 3225 728 
L 3116 159 
Q 2806 34 2476 -28 
Q 2147 -91 1806 -91 
Q 1078 -91 686 257 
Q 294 606 294 1247 
Q 294 1794 489 2264 
Q 684 2734 1063 3103 
Q 1306 3334 1642 3459 
Q 1978 3584 2356 3584 
Q 2950 3584 3301 3228 
Q 3653 2872 3653 2272 
Q 3653 2128 3634 1964 
Q 3616 1800 3578 1613 
z
" transform="scale(0.015625)"/>
       <path id="DejaVuSans-Oblique-69" d="M 1172 4863 
L 1747 4863 
L 1606 4134 
L 1031 4134 
L 1172 4863 
z
M 909 3500 
L 1484 3500 
L 800 0 
L 225 0 
L 909 3500 
z
" transform="scale(0.015625)"/>
       <path id="DejaVuSans-Oblique-6e" d="M 3566 2113 
L 3156 0 
L 2578 0 
L 2988 2091 
Q 3016 2238 3031 2350 
Q 3047 2463 3047 2528 
Q 3047 2791 2881 2937 
Q 2716 3084 2419 3084 
Q 1956 3084 1622 2776 
Q 1288 2469 1184 1941 
L 800 0 
L 225 0 
L 903 3500 
L 1478 3500 
L 1363 2950 
Q 1603 3253 1940 3418 
Q 2278 3584 2650 3584 
Q 3113 3584 3367 3334 
Q 3622 3084 3622 2631 
Q 3622 2519 3608 2391 
Q 3594 2263 3566 2113 
z
" transform="scale(0.015625)"/>
       <path id="DejaVuSans-29" d="M 513 4856 
L 1013 4856 
Q 1481 4119 1714 3412 
Q 1947 2706 1947 2009 
Q 1947 1309 1714 600 
Q 1481 -109 1013 -844 
L 513 -844 
Q 928 -128 1133 580 
Q 1338 1288 1338 2009 
Q 1338 2731 1133 3434 
Q 928 4138 513 4856 
z
" transform="scale(0.015625)"/>
      </defs>
      <use xlink:href="#DejaVuSans-Oblique-6c" transform="translate(0 0.015625)"/>
      <use xlink:href="#DejaVuSans-Oblique-6f" transform="translate(27.783203 0.015625)"/>
      <use xlink:href="#DejaVuSans-Oblique-67" transform="translate(88.964844 0.015625)"/>
      <use xlink:href="#DejaVuSans-28" transform="translate(152.441406 0.015625)"/>
      <use xlink:href="#DejaVuSans-5b" transform="translate(191.455078 0.015625)"/>
      <use xlink:href="#DejaVuSans-Oblique-50" transform="translate(230.46875 0.015625)"/>
      <use xlink:href="#DejaVuSans-Oblique-45" transform="translate(290.771484 0.015625)"/>
      <use xlink:href="#DejaVuSans-Oblique-52" transform="translate(353.955078 0.015625)"/>
      <use xlink:href="#DejaVuSans-Oblique-4d" transform="translate(423.4375 0.015625)"/>
      <use xlink:href="#DejaVuSans-5d" transform="translate(509.716797 0.015625)"/>
      <use xlink:href="#DejaVuSans-2f" transform="translate(548.730469 0.015625)"/>
      <use xlink:href="#DejaVuSans-5b" transform="translate(582.421875 0.015625)"/>
      <use xlink:href="#DejaVuSans-Oblique-54" transform="translate(621.435547 0.015625)"/>
      <use xlink:href="#DejaVuSans-Oblique-6f" transform="translate(682.519531 0.015625)"/>
      <use xlink:href="#DejaVuSans-Oblique-74" transform="translate(743.701172 0.015625)"/>
      <use xlink:href="#DejaVuSans-Oblique-61" transform="translate(782.910156 0.015625)"/>
      <use xlink:href="#DejaVuSans-Oblique-6c" transform="translate(844.189453 0.015625)"/>
      <use xlink:href="#DejaVuSans-Oblique-50" transform="translate(871.972656 0.015625)"/>
      <use xlink:href="#DejaVuSans-Oblique-72" transform="translate(932.275391 0.015625)"/>
      <use xlink:href="#DejaVuSans-Oblique-6f" transform="translate(973.388672 0.015625)"/>
      <use xlink:href="#DejaVuSans-Oblique-74" transform="translate(1034.570312 0.015625)"/>
      <use xlink:href="#DejaVuSans-Oblique-65" transform="translate(1073.779297 0.015625)"/>
      <use xlink:href="#DejaVuSans-Oblique-69" transform="translate(1135.302734 0.015625)"/>
      <use xlink:href="#DejaVuSans-Oblique-6e" transform="translate(1163.085938 0.015625)"/>
      <use xlink:href="#DejaVuSans-5d" transform="translate(1226.464844 0.015625)"/>
      <use xlink:href="#DejaVuSans-29" transform="translate(1265.478516 0.015625)"/>
     </g>
    </g>
   </g>
   <g id="line2d_11">
    <path d="M 107.955 189.515922 
L 107.955 86.220149 
" clip-path="url(#pfaab63390f)" style="fill: none; stroke: #434343; stroke-width: 1.5; stroke-linecap: square"/>
   </g>
   <g id="line2d_12">
    <path d="M 107.955 163.498318 
L 107.955 131.819107 
" clip-path="url(#pfaab63390f)" style="fill: none; stroke: #434343; stroke-width: 4.5; stroke-linecap: square"/>
   </g>
   <g id="line2d_13">
    <path d="M 241.565 193.771222 
L 241.565 92.684333 
" clip-path="url(#pfaab63390f)" style="fill: none; stroke: #434343; stroke-width: 1.5; stroke-linecap: square"/>
   </g>
   <g id="line2d_14">
    <path d="M 241.565 153.399863 
L 241.565 124.360849 
" clip-path="url(#pfaab63390f)" style="fill: none; stroke: #434343; stroke-width: 4.5; stroke-linecap: square"/>
   </g>
   <g id="line2d_15">
    <path d="M 375.175 203.345305 
L 375.175 90.120249 
" clip-path="url(#pfaab63390f)" style="fill: none; stroke: #434343; stroke-width: 1.5; stroke-linecap: square"/>
   </g>
   <g id="line2d_16">
    <path d="M 375.175 159.263433 
L 375.175 123.389505 
" clip-path="url(#pfaab63390f)" style="fill: none; stroke: #434343; stroke-width: 4.5; stroke-linecap: square"/>
   </g>
   <g id="line2d_17">
    <path d="M 508.785 191.780777 
L 508.785 72.621069 
" clip-path="url(#pfaab63390f)" style="fill: none; stroke: #434343; stroke-width: 1.5; stroke-linecap: square"/>
   </g>
   <g id="line2d_18">
    <path d="M 508.785 158.476474 
L 508.785 123.704584 
" clip-path="url(#pfaab63390f)" style="fill: none; stroke: #434343; stroke-width: 4.5; stroke-linecap: square"/>
   </g>
   <g id="line2d_19">
    <path d="M 642.395 205.979096 
L 642.395 73.357905 
" clip-path="url(#pfaab63390f)" style="fill: none; stroke: #434343; stroke-width: 1.5; stroke-linecap: square"/>
   </g>
   <g id="line2d_20">
    <path d="M 642.395 155.157154 
L 642.395 119.812837 
" clip-path="url(#pfaab63390f)" style="fill: none; stroke: #434343; stroke-width: 4.5; stroke-linecap: square"/>
   </g>
   <g id="patch_3">
    <path d="M 41.15 343.03527 
L 41.15 10.8 
" style="fill: none; stroke: #000000; stroke-width: 0.8; stroke-linejoin: miter; stroke-linecap: square"/>
   </g>
   <g id="patch_4">
    <path d="M 709.2 343.03527 
L 709.2 10.8 
" style="fill: none; stroke: #000000; stroke-width: 0.8; stroke-linejoin: miter; stroke-linecap: square"/>
   </g>
   <g id="patch_5">
    <path d="M 41.15 343.03527 
L 709.2 343.03527 
" style="fill: none; stroke: #000000; stroke-width: 0.8; stroke-linejoin: miter; stroke-linecap: square"/>
   </g>
   <g id="patch_6">
    <path d="M 41.15 10.8 
L 709.2 10.8 
" style="fill: none; stroke: #000000; stroke-width: 0.8; stroke-linejoin: miter; stroke-linecap: square"/>
   </g>
   <g id="PathCollection_1">
    <defs>
     <path id="m6ee518514d" d="M 0 1.5 
C 0.397805 1.5 0.77937 1.341951 1.06066 1.06066 
C 1.341951 0.77937 1.5 0.397805 1.5 0 
C 1.5 -0.397805 1.341951 -0.77937 1.06066 -1.06066 
C 0.77937 -1.341951 0.397805 -1.5 0 -1.5 
C -0.397805 -1.5 -0.77937 -1.341951 -1.06066 -1.06066 
C -1.341951 -0.77937 -1.5 -0.397805 -1.5 0 
C -1.5 0.397805 -1.341951 0.77937 -1.06066 1.06066 
C -0.77937 1.341951 -0.397805 1.5 0 1.5 
z
" style="stroke: #434343"/>
    </defs>
    <g clip-path="url(#pfaab63390f)">
     <use xlink:href="#m6ee518514d" x="107.955" y="143.217616" style="fill: #ffffff; stroke: #434343"/>
    </g>
   </g>
   <g id="PathCollection_2">
    <g clip-path="url(#pfaab63390f)">
     <use xlink:href="#m6ee518514d" x="241.565" y="133.587988" style="fill: #ffffff; stroke: #434343"/>
    </g>
   </g>
   <g id="PathCollection_3">
    <g clip-path="url(#pfaab63390f)">
     <use xlink:href="#m6ee518514d" x="375.175" y="145.127939" style="fill: #ffffff; stroke: #434343"/>
    </g>
   </g>
   <g id="PathCollection_4">
    <g clip-path="url(#pfaab63390f)">
     <use xlink:href="#m6ee518514d" x="508.785" y="144.84631" style="fill: #ffffff; stroke: #434343"/>
    </g>
   </g>
   <g id="PathCollection_5">
    <g clip-path="url(#pfaab63390f)">
     <use xlink:href="#m6ee518514d" x="642.395" y="138.719859" style="fill: #ffffff; stroke: #434343"/>
    </g>
   </g>
  </g>
 </g>
 <defs>
  <clipPath id="pfaab63390f">
   <rect x="41.15" y="10.8" width="668.05" height="332.23527"/>
  </clipPath>
 </defs>
</svg>
