<?xml version="1.0" encoding="utf-8" standalone="no"?>
<!DOCTYPE svg PUBLIC "-//W3C//DTD SVG 1.1//EN"
  "http://www.w3.org/Graphics/SVG/1.1/DTD/svg11.dtd">
<svg xmlns:xlink="http://www.w3.org/1999/xlink" width="720pt" height="432pt" viewBox="0 0 720 432" xmlns="http://www.w3.org/2000/svg" version="1.1">
 <metadata>
  <rdf:RDF xmlns:dc="http://purl.org/dc/elements/1.1/" xmlns:cc="http://creativecommons.org/ns#" xmlns:rdf="http://www.w3.org/1999/02/22-rdf-syntax-ns#">
   <cc:Work>
    <dc:type rdf:resource="http://purl.org/dc/dcmitype/StillImage"/>
    <dc:date>2024-09-30T14:08:34.553493</dc:date>
    <dc:format>image/svg+xml</dc:format>
    <dc:creator>
     <cc:Agent>
      <dc:title>Matplotlib v3.7.3, https://matplotlib.org/</dc:title>
     </cc:Agent>
    </dc:creator>
   </cc:Work>
  </rdf:RDF>
 </metadata>
 <defs>
  <style type="text/css">*{stroke-linejoin: round; stroke-linecap: butt}</style>
 </defs>
 <g id="figure_1">
  <g id="patch_1">
   <path d="M 0 432 
L 720 432 
L 720 0 
L 0 0 
z
" style="fill: #ffffff"/>
  </g>
  <g id="axes_1">
   <g id="patch_2">
    <path d="M 102.53 387.16 
L 709.2 387.16 
L 709.2 10.8 
L 102.53 10.8 
z
" style="fill: #ffffff"/>
   </g>
   <g id="PathCollection_1">
    <defs>
     <path id="C0_0_06fc0f8371" d="M 0 1.5 
C 0.397805 1.5 0.77937 1.341951 1.06066 1.06066 
C 1.341951 0.77937 1.5 0.397805 1.5 -0 
C 1.5 -0.397805 1.341951 -0.77937 1.06066 -1.06066 
C 0.77937 -1.341951 0.397805 -1.5 0 -1.5 
C -0.397805 -1.5 -0.77937 -1.341951 -1.06066 -1.06066 
C -1.341951 -0.77937 -1.5 -0.397805 -1.5 0 
C -1.5 0.397805 -1.341951 0.77937 -1.06066 1.06066 
C -0.77937 1.341951 -0.397805 1.5 0 1.5 
z
"/>
    </defs>
    <g clip-path="url(#pbd032ac538)">
     <use xlink:href="#C0_0_06fc0f8371" x="538.778011" y="66.569127" style="fill: #f77189"/>
    </g>
    <g clip-path="url(#pbd032ac538)">
     <use xlink:href="#C0_0_06fc0f8371" x="566.083088" y="57.551543" style="fill: #f77189"/>
    </g>
    <g clip-path="url(#pbd032ac538)">
     <use xlink:href="#C0_0_06fc0f8371" x="638.484139" y="61.758088" style="fill: #f77189"/>
    </g>
    <g clip-path="url(#pbd032ac538)">
     <use xlink:href="#C0_0_06fc0f8371" x="400.793286" y="61.645476" style="fill: #f77189"/>
    </g>
    <g clip-path="url(#pbd032ac538)">
     <use xlink:href="#C0_0_06fc0f8371" x="422.43477" y="61.695094" style="fill: #f77189"/>
    </g>
    <g clip-path="url(#pbd032ac538)">
     <use xlink:href="#C0_0_06fc0f8371" x="442.118362" y="61.488992" style="fill: #f77189"/>
    </g>
    <g clip-path="url(#pbd032ac538)">
     <use xlink:href="#C0_0_06fc0f8371" x="496.948777" y="62.586597" style="fill: #f77189"/>
    </g>
    <g clip-path="url(#pbd032ac538)">
     <use xlink:href="#C0_0_06fc0f8371" x="490.081501" y="55.487048" style="fill: #f77189"/>
    </g>
    <g clip-path="url(#pbd032ac538)">
     <use xlink:href="#C0_0_06fc0f8371" x="486.702216" y="62.26113" style="fill: #f77189"/>
    </g>
    <g clip-path="url(#pbd032ac538)">
     <use xlink:href="#C0_0_06fc0f8371" x="524.136423" y="53.950792" style="fill: #f77189"/>
    </g>
    <g clip-path="url(#pbd032ac538)">
     <use xlink:href="#C0_0_06fc0f8371" x="514.78541" y="65.517555" style="fill: #f77189"/>
    </g>
    <g clip-path="url(#pbd032ac538)">
     <use xlink:href="#C0_0_06fc0f8371" x="485.977765" y="62.137631" style="fill: #f77189"/>
    </g>
    <g clip-path="url(#pbd032ac538)">
     <use xlink:href="#C0_0_06fc0f8371" x="481.334628" y="61.036889" style="fill: #f77189"/>
    </g>
    <g clip-path="url(#pbd032ac538)">
     <use xlink:href="#C0_0_06fc0f8371" x="500.881601" y="65.802541" style="fill: #f77189"/>
    </g>
    <g clip-path="url(#pbd032ac538)">
     <use xlink:href="#C0_0_06fc0f8371" x="436.024108" y="61.739606" style="fill: #f77189"/>
    </g>
    <g clip-path="url(#pbd032ac538)">
     <use xlink:href="#C0_0_06fc0f8371" x="627.130315" y="64.145982" style="fill: #f77189"/>
    </g>
    <g clip-path="url(#pbd032ac538)">
     <use xlink:href="#C0_0_06fc0f8371" x="661.189078" y="65.092784" style="fill: #f77189"/>
    </g>
    <g clip-path="url(#pbd032ac538)">
     <use xlink:href="#C0_0_06fc0f8371" x="130.105909" y="61.316822" style="fill: #f77189"/>
    </g>
    <g clip-path="url(#pbd032ac538)">
     <use xlink:href="#C0_0_06fc0f8371" x="481.573775" y="63.302333" style="fill: #f77189"/>
    </g>
    <g clip-path="url(#pbd032ac538)">
     <use xlink:href="#C0_0_06fc0f8371" x="436.735428" y="57.953231" style="fill: #f77189"/>
    </g>
    <g clip-path="url(#pbd032ac538)">
     <use xlink:href="#C0_0_06fc0f8371" x="388.401281" y="55.825973" style="fill: #f77189"/>
    </g>
    <g clip-path="url(#pbd032ac538)">
     <use xlink:href="#C0_0_06fc0f8371" x="404.683059" y="54.956015" style="fill: #f77189"/>
    </g>
    <g clip-path="url(#pbd032ac538)">
     <use xlink:href="#C0_0_06fc0f8371" x="372.634287" y="60.865815" style="fill: #f77189"/>
    </g>
    <g clip-path="url(#pbd032ac538)">
     <use xlink:href="#C0_0_06fc0f8371" x="538.267882" y="60.315707" style="fill: #f77189"/>
    </g>
    <g clip-path="url(#pbd032ac538)">
     <use xlink:href="#C0_0_06fc0f8371" x="492.52973" y="63.535048" style="fill: #f77189"/>
    </g>
    <g clip-path="url(#pbd032ac538)">
     <use xlink:href="#C0_0_06fc0f8371" x="492.326486" y="60.253641" style="fill: #f77189"/>
    </g>
    <g clip-path="url(#pbd032ac538)">
     <use xlink:href="#C0_0_06fc0f8371" x="483.777736" y="67.236248" style="fill: #f77189"/>
    </g>
    <g clip-path="url(#pbd032ac538)">
     <use xlink:href="#C0_0_06fc0f8371" x="489.007418" y="58.429758" style="fill: #f77189"/>
    </g>
    <g clip-path="url(#pbd032ac538)">
     <use xlink:href="#C0_0_06fc0f8371" x="482.779111" y="64.765875" style="fill: #f77189"/>
    </g>
   </g>
   <g id="PathCollection_2">
    <defs>
     <path id="C1_0_0ce7d6fb70" d="M 0 1.5 
C 0.397805 1.5 0.77937 1.341951 1.06066 1.06066 
C 1.341951 0.77937 1.5 0.397805 1.5 -0 
C 1.5 -0.397805 1.341951 -0.77937 1.06066 -1.06066 
C 0.77937 -1.341951 0.397805 -1.5 0 -1.5 
C -0.397805 -1.5 -0.77937 -1.341951 -1.06066 -1.06066 
C -1.341951 -0.77937 -1.5 -0.397805 -1.5 0 
C -1.5 0.397805 -1.341951 0.77937 -1.06066 1.06066 
C -0.77937 1.341951 -0.397805 1.5 0 1.5 
z
"/>
    </defs>
    <g clip-path="url(#pbd032ac538)">
     <use xlink:href="#C1_0_0ce7d6fb70" x="584.325614" y="133.699077" style="fill: #ae9d31"/>
    </g>
    <g clip-path="url(#pbd032ac538)">
     <use xlink:href="#C1_0_0ce7d6fb70" x="580.258742" y="135.53249" style="fill: #ae9d31"/>
    </g>
    <g clip-path="url(#pbd032ac538)">
     <use xlink:href="#C1_0_0ce7d6fb70" x="556.510312" y="136.584948" style="fill: #ae9d31"/>
    </g>
    <g clip-path="url(#pbd032ac538)">
     <use xlink:href="#C1_0_0ce7d6fb70" x="406.847442" y="138.075772" style="fill: #ae9d31"/>
    </g>
    <g clip-path="url(#pbd032ac538)">
     <use xlink:href="#C1_0_0ce7d6fb70" x="417.377774" y="127.063051" style="fill: #ae9d31"/>
    </g>
    <g clip-path="url(#pbd032ac538)">
     <use xlink:href="#C1_0_0ce7d6fb70" x="388.048117" y="127.140377" style="fill: #ae9d31"/>
    </g>
    <g clip-path="url(#pbd032ac538)">
     <use xlink:href="#C1_0_0ce7d6fb70" x="512.109951" y="129.160605" style="fill: #ae9d31"/>
    </g>
    <g clip-path="url(#pbd032ac538)">
     <use xlink:href="#C1_0_0ce7d6fb70" x="461.615602" y="127.327464" style="fill: #ae9d31"/>
    </g>
    <g clip-path="url(#pbd032ac538)">
     <use xlink:href="#C1_0_0ce7d6fb70" x="530.689199" y="129.926771" style="fill: #ae9d31"/>
    </g>
    <g clip-path="url(#pbd032ac538)">
     <use xlink:href="#C1_0_0ce7d6fb70" x="533.160772" y="133.46045" style="fill: #ae9d31"/>
    </g>
    <g clip-path="url(#pbd032ac538)">
     <use xlink:href="#C1_0_0ce7d6fb70" x="523.484295" y="137.342976" style="fill: #ae9d31"/>
    </g>
    <g clip-path="url(#pbd032ac538)">
     <use xlink:href="#C1_0_0ce7d6fb70" x="546.137452" y="137.331677" style="fill: #ae9d31"/>
    </g>
    <g clip-path="url(#pbd032ac538)">
     <use xlink:href="#C1_0_0ce7d6fb70" x="517.617119" y="130.296486" style="fill: #ae9d31"/>
    </g>
    <g clip-path="url(#pbd032ac538)">
     <use xlink:href="#C1_0_0ce7d6fb70" x="510.427311" y="135.564298" style="fill: #ae9d31"/>
    </g>
    <g clip-path="url(#pbd032ac538)">
     <use xlink:href="#C1_0_0ce7d6fb70" x="502.705543" y="138.852973" style="fill: #ae9d31"/>
    </g>
    <g clip-path="url(#pbd032ac538)">
     <use xlink:href="#C1_0_0ce7d6fb70" x="611.204113" y="130.584421" style="fill: #ae9d31"/>
    </g>
    <g clip-path="url(#pbd032ac538)">
     <use xlink:href="#C1_0_0ce7d6fb70" x="681.624091" y="137.859142" style="fill: #ae9d31"/>
    </g>
    <g clip-path="url(#pbd032ac538)">
     <use xlink:href="#C1_0_0ce7d6fb70" x="490.028427" y="128.805227" style="fill: #ae9d31"/>
    </g>
    <g clip-path="url(#pbd032ac538)">
     <use xlink:href="#C1_0_0ce7d6fb70" x="458.014483" y="132.712135" style="fill: #ae9d31"/>
    </g>
    <g clip-path="url(#pbd032ac538)">
     <use xlink:href="#C1_0_0ce7d6fb70" x="512.950937" y="129.775553" style="fill: #ae9d31"/>
    </g>
    <g clip-path="url(#pbd032ac538)">
     <use xlink:href="#C1_0_0ce7d6fb70" x="239.968383" y="134.373113" style="fill: #ae9d31"/>
    </g>
    <g clip-path="url(#pbd032ac538)">
     <use xlink:href="#C1_0_0ce7d6fb70" x="278.696147" y="133.839895" style="fill: #ae9d31"/>
    </g>
    <g clip-path="url(#pbd032ac538)">
     <use xlink:href="#C1_0_0ce7d6fb70" x="362.150247" y="140.326783" style="fill: #ae9d31"/>
    </g>
    <g clip-path="url(#pbd032ac538)">
     <use xlink:href="#C1_0_0ce7d6fb70" x="514.816084" y="125.998066" style="fill: #ae9d31"/>
    </g>
    <g clip-path="url(#pbd032ac538)">
     <use xlink:href="#C1_0_0ce7d6fb70" x="505.426328" y="128.947892" style="fill: #ae9d31"/>
    </g>
    <g clip-path="url(#pbd032ac538)">
     <use xlink:href="#C1_0_0ce7d6fb70" x="508.410654" y="127.535814" style="fill: #ae9d31"/>
    </g>
    <g clip-path="url(#pbd032ac538)">
     <use xlink:href="#C1_0_0ce7d6fb70" x="484.99516" y="138.58334" style="fill: #ae9d31"/>
    </g>
    <g clip-path="url(#pbd032ac538)">
     <use xlink:href="#C1_0_0ce7d6fb70" x="570.342161" y="135.387115" style="fill: #ae9d31"/>
    </g>
    <g clip-path="url(#pbd032ac538)">
     <use xlink:href="#C1_0_0ce7d6fb70" x="491.925671" y="139.579045" style="fill: #ae9d31"/>
    </g>
   </g>
   <g id="PathCollection_3">
    <defs>
     <path id="C2_0_7ec4d42517" d="M 0 1.5 
C 0.397805 1.5 0.77937 1.341951 1.06066 1.06066 
C 1.341951 0.77937 1.5 0.397805 1.5 -0 
C 1.5 -0.397805 1.341951 -0.77937 1.06066 -1.06066 
C 0.77937 -1.341951 0.397805 -1.5 0 -1.5 
C -0.397805 -1.5 -0.77937 -1.341951 -1.06066 -1.06066 
C -1.341951 -0.77937 -1.5 -0.397805 -1.5 0 
C -1.5 0.397805 -1.341951 0.77937 -1.06066 1.06066 
C -0.77937 1.341951 -0.397805 1.5 0 1.5 
z
"/>
    </defs>
    <g clip-path="url(#pbd032ac538)">
     <use xlink:href="#C2_0_7ec4d42517" x="575.444266" y="206.327734" style="fill: #33b07a"/>
    </g>
    <g clip-path="url(#pbd032ac538)">
     <use xlink:href="#C2_0_7ec4d42517" x="527.567183" y="201.398029" style="fill: #33b07a"/>
    </g>
    <g clip-path="url(#pbd032ac538)">
     <use xlink:href="#C2_0_7ec4d42517" x="551.999313" y="204.204867" style="fill: #33b07a"/>
    </g>
    <g clip-path="url(#pbd032ac538)">
     <use xlink:href="#C2_0_7ec4d42517" x="382.71667" y="200.848564" style="fill: #33b07a"/>
    </g>
    <g clip-path="url(#pbd032ac538)">
     <use xlink:href="#C2_0_7ec4d42517" x="443.916391" y="206.195314" style="fill: #33b07a"/>
    </g>
    <g clip-path="url(#pbd032ac538)">
     <use xlink:href="#C2_0_7ec4d42517" x="426.15036" y="203.174385" style="fill: #33b07a"/>
    </g>
    <g clip-path="url(#pbd032ac538)">
     <use xlink:href="#C2_0_7ec4d42517" x="538.216179" y="201.425538" style="fill: #33b07a"/>
    </g>
    <g clip-path="url(#pbd032ac538)">
     <use xlink:href="#C2_0_7ec4d42517" x="489.463289" y="203.795976" style="fill: #33b07a"/>
    </g>
    <g clip-path="url(#pbd032ac538)">
     <use xlink:href="#C2_0_7ec4d42517" x="495.236291" y="211.357515" style="fill: #33b07a"/>
    </g>
    <g clip-path="url(#pbd032ac538)">
     <use xlink:href="#C2_0_7ec4d42517" x="564.020354" y="203.337324" style="fill: #33b07a"/>
    </g>
    <g clip-path="url(#pbd032ac538)">
     <use xlink:href="#C2_0_7ec4d42517" x="546.370241" y="209.397269" style="fill: #33b07a"/>
    </g>
    <g clip-path="url(#pbd032ac538)">
     <use xlink:href="#C2_0_7ec4d42517" x="525.916766" y="201.014552" style="fill: #33b07a"/>
    </g>
    <g clip-path="url(#pbd032ac538)">
     <use xlink:href="#C2_0_7ec4d42517" x="438.855429" y="200.254554" style="fill: #33b07a"/>
    </g>
    <g clip-path="url(#pbd032ac538)">
     <use xlink:href="#C2_0_7ec4d42517" x="478.315211" y="211.37255" style="fill: #33b07a"/>
    </g>
    <g clip-path="url(#pbd032ac538)">
     <use xlink:href="#C2_0_7ec4d42517" x="474.632614" y="200.654278" style="fill: #33b07a"/>
    </g>
    <g clip-path="url(#pbd032ac538)">
     <use xlink:href="#C2_0_7ec4d42517" x="617.521403" y="202.639266" style="fill: #33b07a"/>
    </g>
    <g clip-path="url(#pbd032ac538)">
     <use xlink:href="#C2_0_7ec4d42517" x="600.184307" y="206.625835" style="fill: #33b07a"/>
    </g>
    <g clip-path="url(#pbd032ac538)">
     <use xlink:href="#C2_0_7ec4d42517" x="594.829657" y="212.071957" style="fill: #33b07a"/>
    </g>
    <g clip-path="url(#pbd032ac538)">
     <use xlink:href="#C2_0_7ec4d42517" x="494.562349" y="208.180573" style="fill: #33b07a"/>
    </g>
    <g clip-path="url(#pbd032ac538)">
     <use xlink:href="#C2_0_7ec4d42517" x="470.68281" y="199.66555" style="fill: #33b07a"/>
    </g>
    <g clip-path="url(#pbd032ac538)">
     <use xlink:href="#C2_0_7ec4d42517" x="445.139799" y="212.040855" style="fill: #33b07a"/>
    </g>
    <g clip-path="url(#pbd032ac538)">
     <use xlink:href="#C2_0_7ec4d42517" x="338.562002" y="201.734939" style="fill: #33b07a"/>
    </g>
    <g clip-path="url(#pbd032ac538)">
     <use xlink:href="#C2_0_7ec4d42517" x="359.776541" y="201.08645" style="fill: #33b07a"/>
    </g>
    <g clip-path="url(#pbd032ac538)">
     <use xlink:href="#C2_0_7ec4d42517" x="346.969722" y="212.450864" style="fill: #33b07a"/>
    </g>
    <g clip-path="url(#pbd032ac538)">
     <use xlink:href="#C2_0_7ec4d42517" x="485.676066" y="207.496656" style="fill: #33b07a"/>
    </g>
    <g clip-path="url(#pbd032ac538)">
     <use xlink:href="#C2_0_7ec4d42517" x="511.751489" y="199.448929" style="fill: #33b07a"/>
    </g>
    <g clip-path="url(#pbd032ac538)">
     <use xlink:href="#C2_0_7ec4d42517" x="475.352629" y="210.934644" style="fill: #33b07a"/>
    </g>
    <g clip-path="url(#pbd032ac538)">
     <use xlink:href="#C2_0_7ec4d42517" x="453.257285" y="198.591412" style="fill: #33b07a"/>
    </g>
    <g clip-path="url(#pbd032ac538)">
     <use xlink:href="#C2_0_7ec4d42517" x="463.551959" y="201.740106" style="fill: #33b07a"/>
    </g>
    <g clip-path="url(#pbd032ac538)">
     <use xlink:href="#C2_0_7ec4d42517" x="474.63356" y="212.534718" style="fill: #33b07a"/>
    </g>
   </g>
   <g id="PathCollection_4">
    <defs>
     <path id="C3_0_8ffd362c97" d="M 0 1.5 
C 0.397805 1.5 0.77937 1.341951 1.06066 1.06066 
C 1.341951 0.77937 1.5 0.397805 1.5 -0 
C 1.5 -0.397805 1.341951 -0.77937 1.06066 -1.06066 
C 0.77937 -1.341951 0.397805 -1.5 0 -1.5 
C -0.397805 -1.5 -0.77937 -1.341951 -1.06066 -1.06066 
C -1.341951 -0.77937 -1.5 -0.397805 -1.5 0 
C -1.5 0.397805 -1.341951 0.77937 -1.06066 1.06066 
C -0.77937 1.341951 -0.397805 1.5 0 1.5 
z
"/>
    </defs>
    <g clip-path="url(#pbd032ac538)">
     <use xlink:href="#C3_0_8ffd362c97" x="554.718958" y="276.168297" style="fill: #38a9c5"/>
    </g>
    <g clip-path="url(#pbd032ac538)">
     <use xlink:href="#C3_0_8ffd362c97" x="535.723407" y="278.318065" style="fill: #38a9c5"/>
    </g>
    <g clip-path="url(#pbd032ac538)">
     <use xlink:href="#C3_0_8ffd362c97" x="562.567909" y="272.555824" style="fill: #38a9c5"/>
    </g>
    <g clip-path="url(#pbd032ac538)">
     <use xlink:href="#C3_0_8ffd362c97" x="444.296097" y="279.168432" style="fill: #38a9c5"/>
    </g>
    <g clip-path="url(#pbd032ac538)">
     <use xlink:href="#C3_0_8ffd362c97" x="438.79537" y="284.313522" style="fill: #38a9c5"/>
    </g>
    <g clip-path="url(#pbd032ac538)">
     <use xlink:href="#C3_0_8ffd362c97" x="428.276739" y="281.205986" style="fill: #38a9c5"/>
    </g>
    <g clip-path="url(#pbd032ac538)">
     <use xlink:href="#C3_0_8ffd362c97" x="470.619512" y="279.047862" style="fill: #38a9c5"/>
    </g>
    <g clip-path="url(#pbd032ac538)">
     <use xlink:href="#C3_0_8ffd362c97" x="463.543894" y="281.095993" style="fill: #38a9c5"/>
    </g>
    <g clip-path="url(#pbd032ac538)">
     <use xlink:href="#C3_0_8ffd362c97" x="511.264801" y="281.136331" style="fill: #38a9c5"/>
    </g>
    <g clip-path="url(#pbd032ac538)">
     <use xlink:href="#C3_0_8ffd362c97" x="502.265096" y="280.546688" style="fill: #38a9c5"/>
    </g>
    <g clip-path="url(#pbd032ac538)">
     <use xlink:href="#C3_0_8ffd362c97" x="531.940383" y="282.906966" style="fill: #38a9c5"/>
    </g>
    <g clip-path="url(#pbd032ac538)">
     <use xlink:href="#C3_0_8ffd362c97" x="581.088687" y="283.54399" style="fill: #38a9c5"/>
    </g>
    <g clip-path="url(#pbd032ac538)">
     <use xlink:href="#C3_0_8ffd362c97" x="508.388008" y="285.000772" style="fill: #38a9c5"/>
    </g>
    <g clip-path="url(#pbd032ac538)">
     <use xlink:href="#C3_0_8ffd362c97" x="464.987053" y="285.358328" style="fill: #38a9c5"/>
    </g>
    <g clip-path="url(#pbd032ac538)">
     <use xlink:href="#C3_0_8ffd362c97" x="481.850321" y="274.655626" style="fill: #38a9c5"/>
    </g>
    <g clip-path="url(#pbd032ac538)">
     <use xlink:href="#C3_0_8ffd362c97" x="636.563939" y="276.267153" style="fill: #38a9c5"/>
    </g>
    <g clip-path="url(#pbd032ac538)">
     <use xlink:href="#C3_0_8ffd362c97" x="608.08554" y="278.200394" style="fill: #38a9c5"/>
    </g>
    <g clip-path="url(#pbd032ac538)">
     <use xlink:href="#C3_0_8ffd362c97" x="660.635188" y="284.389612" style="fill: #38a9c5"/>
    </g>
    <g clip-path="url(#pbd032ac538)">
     <use xlink:href="#C3_0_8ffd362c97" x="464.209802" y="276.401474" style="fill: #38a9c5"/>
    </g>
    <g clip-path="url(#pbd032ac538)">
     <use xlink:href="#C3_0_8ffd362c97" x="425.754577" y="285.583061" style="fill: #38a9c5"/>
    </g>
    <g clip-path="url(#pbd032ac538)">
     <use xlink:href="#C3_0_8ffd362c97" x="471.328585" y="281.815501" style="fill: #38a9c5"/>
    </g>
    <g clip-path="url(#pbd032ac538)">
     <use xlink:href="#C3_0_8ffd362c97" x="377.120664" y="273.910568" style="fill: #38a9c5"/>
    </g>
    <g clip-path="url(#pbd032ac538)">
     <use xlink:href="#C3_0_8ffd362c97" x="367.054227" y="282.379048" style="fill: #38a9c5"/>
    </g>
    <g clip-path="url(#pbd032ac538)">
     <use xlink:href="#C3_0_8ffd362c97" x="223.954501" y="276.772561" style="fill: #38a9c5"/>
    </g>
    <g clip-path="url(#pbd032ac538)">
     <use xlink:href="#C3_0_8ffd362c97" x="439.443954" y="272.608333" style="fill: #38a9c5"/>
    </g>
    <g clip-path="url(#pbd032ac538)">
     <use xlink:href="#C3_0_8ffd362c97" x="464.516252" y="280.546093" style="fill: #38a9c5"/>
    </g>
    <g clip-path="url(#pbd032ac538)">
     <use xlink:href="#C3_0_8ffd362c97" x="483.528689" y="278.522379" style="fill: #38a9c5"/>
    </g>
    <g clip-path="url(#pbd032ac538)">
     <use xlink:href="#C3_0_8ffd362c97" x="500.109274" y="276.605687" style="fill: #38a9c5"/>
    </g>
    <g clip-path="url(#pbd032ac538)">
     <use xlink:href="#C3_0_8ffd362c97" x="489.471213" y="284.051326" style="fill: #38a9c5"/>
    </g>
    <g clip-path="url(#pbd032ac538)">
     <use xlink:href="#C3_0_8ffd362c97" x="551.715411" y="271.561228" style="fill: #38a9c5"/>
    </g>
   </g>
   <g id="PathCollection_5">
    <defs>
     <path id="C4_0_06bc4a4f10" d="M 0 1.5 
C 0.397805 1.5 0.77937 1.341951 1.06066 1.06066 
C 1.341951 0.77937 1.5 0.397805 1.5 -0 
C 1.5 -0.397805 1.341951 -0.77937 1.06066 -1.06066 
C 0.77937 -1.341951 0.397805 -1.5 0 -1.5 
C -0.397805 -1.5 -0.77937 -1.341951 -1.06066 -1.06066 
C -1.341951 -0.77937 -1.5 -0.397805 -1.5 0 
C -1.5 0.397805 -1.341951 0.77937 -1.06066 1.06066 
C -0.77937 1.341951 -0.397805 1.5 0 1.5 
z
"/>
    </defs>
    <g clip-path="url(#pbd032ac538)">
     <use xlink:href="#C4_0_06bc4a4f10" x="584.551611" y="348.763083" style="fill: #cc7af4"/>
    </g>
    <g clip-path="url(#pbd032ac538)">
     <use xlink:href="#C4_0_06bc4a4f10" x="567.799959" y="357.677997" style="fill: #cc7af4"/>
    </g>
    <g clip-path="url(#pbd032ac538)">
     <use xlink:href="#C4_0_06bc4a4f10" x="590.777376" y="350.875407" style="fill: #cc7af4"/>
    </g>
    <g clip-path="url(#pbd032ac538)">
     <use xlink:href="#C4_0_06bc4a4f10" x="423.945448" y="344.586124" style="fill: #cc7af4"/>
    </g>
    <g clip-path="url(#pbd032ac538)">
     <use xlink:href="#C4_0_06bc4a4f10" x="467.553528" y="347.822788" style="fill: #cc7af4"/>
    </g>
    <g clip-path="url(#pbd032ac538)">
     <use xlink:href="#C4_0_06bc4a4f10" x="388.709185" y="343.997288" style="fill: #cc7af4"/>
    </g>
    <g clip-path="url(#pbd032ac538)">
     <use xlink:href="#C4_0_06bc4a4f10" x="501.692722" y="343.770504" style="fill: #cc7af4"/>
    </g>
    <g clip-path="url(#pbd032ac538)">
     <use xlink:href="#C4_0_06bc4a4f10" x="477.270423" y="356.718683" style="fill: #cc7af4"/>
    </g>
    <g clip-path="url(#pbd032ac538)">
     <use xlink:href="#C4_0_06bc4a4f10" x="466.364797" y="348.005974" style="fill: #cc7af4"/>
    </g>
    <g clip-path="url(#pbd032ac538)">
     <use xlink:href="#C4_0_06bc4a4f10" x="539.368499" y="356.162287" style="fill: #cc7af4"/>
    </g>
    <g clip-path="url(#pbd032ac538)">
     <use xlink:href="#C4_0_06bc4a4f10" x="546.031812" y="349.390093" style="fill: #cc7af4"/>
    </g>
    <g clip-path="url(#pbd032ac538)">
     <use xlink:href="#C4_0_06bc4a4f10" x="556.579709" y="348.307056" style="fill: #cc7af4"/>
    </g>
    <g clip-path="url(#pbd032ac538)">
     <use xlink:href="#C4_0_06bc4a4f10" x="409.709681" y="357.578487" style="fill: #cc7af4"/>
    </g>
    <g clip-path="url(#pbd032ac538)">
     <use xlink:href="#C4_0_06bc4a4f10" x="454.25981" y="344.655139" style="fill: #cc7af4"/>
    </g>
    <g clip-path="url(#pbd032ac538)">
     <use xlink:href="#C4_0_06bc4a4f10" x="469.135229" y="343.786049" style="fill: #cc7af4"/>
    </g>
    <g clip-path="url(#pbd032ac538)">
     <use xlink:href="#C4_0_06bc4a4f10" x="676.05678" y="355.805955" style="fill: #cc7af4"/>
    </g>
    <g clip-path="url(#pbd032ac538)">
     <use xlink:href="#C4_0_06bc4a4f10" x="614.082133" y="345.705923" style="fill: #cc7af4"/>
    </g>
    <g clip-path="url(#pbd032ac538)">
     <use xlink:href="#C4_0_06bc4a4f10" x="658.819801" y="355.046223" style="fill: #cc7af4"/>
    </g>
    <g clip-path="url(#pbd032ac538)">
     <use xlink:href="#C4_0_06bc4a4f10" x="486.908904" y="351.800466" style="fill: #cc7af4"/>
    </g>
    <g clip-path="url(#pbd032ac538)">
     <use xlink:href="#C4_0_06bc4a4f10" x="516.138989" y="346.162287" style="fill: #cc7af4"/>
    </g>
    <g clip-path="url(#pbd032ac538)">
     <use xlink:href="#C4_0_06bc4a4f10" x="402.424176" y="352.515841" style="fill: #cc7af4"/>
    </g>
    <g clip-path="url(#pbd032ac538)">
     <use xlink:href="#C4_0_06bc4a4f10" x="332.072973" y="350.745814" style="fill: #cc7af4"/>
    </g>
    <g clip-path="url(#pbd032ac538)">
     <use xlink:href="#C4_0_06bc4a4f10" x="363.583661" y="357.659366" style="fill: #cc7af4"/>
    </g>
    <g clip-path="url(#pbd032ac538)">
     <use xlink:href="#C4_0_06bc4a4f10" x="377.869399" y="355.99678" style="fill: #cc7af4"/>
    </g>
    <g clip-path="url(#pbd032ac538)">
     <use xlink:href="#C4_0_06bc4a4f10" x="500.609839" y="345.756128" style="fill: #cc7af4"/>
    </g>
    <g clip-path="url(#pbd032ac538)">
     <use xlink:href="#C4_0_06bc4a4f10" x="517.701409" y="350.033781" style="fill: #cc7af4"/>
    </g>
    <g clip-path="url(#pbd032ac538)">
     <use xlink:href="#C4_0_06bc4a4f10" x="476.37273" y="349.075052" style="fill: #cc7af4"/>
    </g>
    <g clip-path="url(#pbd032ac538)">
     <use xlink:href="#C4_0_06bc4a4f10" x="531.077434" y="345.596209" style="fill: #cc7af4"/>
    </g>
    <g clip-path="url(#pbd032ac538)">
     <use xlink:href="#C4_0_06bc4a4f10" x="515.148896" y="344.365279" style="fill: #cc7af4"/>
    </g>
    <g clip-path="url(#pbd032ac538)">
     <use xlink:href="#C4_0_06bc4a4f10" x="494.957384" y="347.319222" style="fill: #cc7af4"/>
    </g>
   </g>
   <g id="PolyCollection_1">
    <defs>
     <path id="mdc188a16d7" d="M 130.105909 -385.831229 
L 130.105909 -387.607477 
L 135.470386 -387.54028 
L 140.834862 -387.35356 
L 146.199338 -387.086582 
L 151.563815 -386.789582 
L 156.928291 -386.508539 
L 162.292768 -386.274381 
L 167.657244 -386.099652 
L 173.021721 -385.981748 
L 178.386197 -385.909367 
L 183.750674 -385.868782 
L 189.11515 -385.847937 
L 194.479627 -385.838111 
L 199.844103 -385.833853 
L 205.208579 -385.832155 
L 210.573056 -385.831532 
L 215.937532 -385.831321 
L 221.302009 -385.831255 
L 226.666485 -385.831236 
L 232.030962 -385.831231 
L 237.395438 -385.831229 
L 242.759915 -385.831229 
L 248.124391 -385.831229 
L 253.488868 -385.831229 
L 258.853344 -385.831229 
L 264.21782 -385.831229 
L 269.582297 -385.83123 
L 274.946773 -385.831234 
L 280.31125 -385.831249 
L 285.675726 -385.831301 
L 291.040203 -385.831472 
L 296.404679 -385.831988 
L 301.769156 -385.833432 
L 307.133632 -385.837159 
L 312.498109 -385.846045 
L 317.862585 -385.865618 
L 323.227061 -385.905446 
L 328.591538 -385.980346 
L 333.956014 -386.110597 
L 339.320491 -386.320233 
L 344.684967 -386.632927 
L 350.049444 -387.065996 
L 355.41392 -387.624273 
L 360.778397 -388.296157 
L 366.142873 -389.05347 
L 371.507349 -389.855158 
L 376.871826 -390.653478 
L 382.236302 -391.401151 
L 387.600779 -392.058803 
L 392.965255 -392.602288 
L 398.329732 -393.028194 
L 403.694208 -393.353869 
L 409.058685 -393.608567 
L 414.423161 -393.816842 
L 419.787638 -393.982404 
L 425.152114 -394.085061 
L 430.51659 -394.09981 
L 435.881067 -394.03501 
L 441.245543 -393.97188 
L 446.61002 -394.079488 
L 451.974496 -394.584931 
L 457.338973 -395.697293 
L 462.703449 -397.508699 
L 468.067926 -399.914096 
L 473.432402 -402.592392 
L 478.796879 -405.070755 
L 484.161355 -406.857795 
L 489.525831 -407.596627 
L 494.890308 -407.174969 
L 500.254784 -405.746582 
L 505.619261 -403.658959 
L 510.983737 -401.324279 
L 516.348214 -399.091441 
L 521.71269 -397.167697 
L 527.077167 -395.608133 
L 532.441643 -394.358861 
L 537.80612 -393.321411 
L 543.170596 -392.406531 
L 548.535072 -391.560179 
L 553.899549 -390.762593 
L 559.264025 -390.013437 
L 564.628502 -389.317916 
L 569.992978 -388.682084 
L 575.357455 -388.116376 
L 580.721931 -387.640824 
L 586.086408 -387.285768 
L 591.450884 -387.085953 
L 596.815361 -387.069991 
L 602.179837 -387.24888 
L 607.544313 -387.607131 
L 612.90879 -388.099449 
L 618.273266 -388.655087 
L 623.637743 -389.190259 
L 629.002219 -389.625816 
L 634.366696 -389.90421 
L 639.731172 -389.999169 
L 645.095649 -389.914734 
L 650.460125 -389.675846 
L 655.824602 -389.316709 
L 661.189078 -388.872959 
L 661.189078 -385.831229 
L 661.189078 -385.831229 
L 655.824602 -385.831229 
L 650.460125 -385.831229 
L 645.095649 -385.831229 
L 639.731172 -385.831229 
L 634.366696 -385.831229 
L 629.002219 -385.831229 
L 623.637743 -385.831229 
L 618.273266 -385.831229 
L 612.90879 -385.831229 
L 607.544313 -385.831229 
L 602.179837 -385.831229 
L 596.815361 -385.831229 
L 591.450884 -385.831229 
L 586.086408 -385.831229 
L 580.721931 -385.831229 
L 575.357455 -385.831229 
L 569.992978 -385.831229 
L 564.628502 -385.831229 
L 559.264025 -385.831229 
L 553.899549 -385.831229 
L 548.535072 -385.831229 
L 543.170596 -385.831229 
L 537.80612 -385.831229 
L 532.441643 -385.831229 
L 527.077167 -385.831229 
L 521.71269 -385.831229 
L 516.348214 -385.831229 
L 510.983737 -385.831229 
L 505.619261 -385.831229 
L 500.254784 -385.831229 
L 494.890308 -385.831229 
L 489.525831 -385.831229 
L 484.161355 -385.831229 
L 478.796879 -385.831229 
L 473.432402 -385.831229 
L 468.067926 -385.831229 
L 462.703449 -385.831229 
L 457.338973 -385.831229 
L 451.974496 -385.831229 
L 446.61002 -385.831229 
L 441.245543 -385.831229 
L 435.881067 -385.831229 
L 430.51659 -385.831229 
L 425.152114 -385.831229 
L 419.787638 -385.831229 
L 414.423161 -385.831229 
L 409.058685 -385.831229 
L 403.694208 -385.831229 
L 398.329732 -385.831229 
L 392.965255 -385.831229 
L 387.600779 -385.831229 
L 382.236302 -385.831229 
L 376.871826 -385.831229 
L 371.507349 -385.831229 
L 366.142873 -385.831229 
L 360.778397 -385.831229 
L 355.41392 -385.831229 
L 350.049444 -385.831229 
L 344.684967 -385.831229 
L 339.320491 -385.831229 
L 333.956014 -385.831229 
L 328.591538 -385.831229 
L 323.227061 -385.831229 
L 317.862585 -385.831229 
L 312.498109 -385.831229 
L 307.133632 -385.831229 
L 301.769156 -385.831229 
L 296.404679 -385.831229 
L 291.040203 -385.831229 
L 285.675726 -385.831229 
L 280.31125 -385.831229 
L 274.946773 -385.831229 
L 269.582297 -385.831229 
L 264.21782 -385.831229 
L 258.853344 -385.831229 
L 253.488868 -385.831229 
L 248.124391 -385.831229 
L 242.759915 -385.831229 
L 237.395438 -385.831229 
L 232.030962 -385.831229 
L 226.666485 -385.831229 
L 221.302009 -385.831229 
L 215.937532 -385.831229 
L 210.573056 -385.831229 
L 205.208579 -385.831229 
L 199.844103 -385.831229 
L 194.479627 -385.831229 
L 189.11515 -385.831229 
L 183.750674 -385.831229 
L 178.386197 -385.831229 
L 173.021721 -385.831229 
L 167.657244 -385.831229 
L 162.292768 -385.831229 
L 156.928291 -385.831229 
L 151.563815 -385.831229 
L 146.199338 -385.831229 
L 140.834862 -385.831229 
L 135.470386 -385.831229 
L 130.105909 -385.831229 
z
" style="stroke: #434343; stroke-opacity: 0.65"/>
    </defs>
    <g clip-path="url(#pbd032ac538)">
     <use xlink:href="#mdc188a16d7" x="0" y="432" style="fill: #e68193; fill-opacity: 0.65; stroke: #434343; stroke-opacity: 0.65"/>
    </g>
   </g>
   <g id="PolyCollection_2">
    <defs>
     <path id="m2c49f95eaa" d="M 239.968383 -313.279904 
L 239.968383 -315.34454 
L 244.429552 -315.417057 
L 248.89072 -315.43848 
L 253.351889 -315.433199 
L 257.813058 -315.424875 
L 262.274227 -315.426762 
L 266.735395 -315.436217 
L 271.196564 -315.435808 
L 275.657733 -315.400502 
L 280.118902 -315.307885 
L 284.580071 -315.147169 
L 289.041239 -314.923578 
L 293.502408 -314.656919 
L 297.963577 -314.375656 
L 302.424746 -314.109375 
L 306.885914 -313.882649 
L 311.347083 -313.71211 
L 315.808252 -313.606861 
L 320.269421 -313.570961 
L 324.730589 -313.606132 
L 329.191758 -313.71316 
L 333.652927 -313.891316 
L 338.114096 -314.136302 
L 342.575265 -314.43801 
L 347.036433 -314.779736 
L 351.497602 -315.139921 
L 355.958771 -315.496371 
L 360.41994 -315.831564 
L 364.881108 -316.136902 
L 369.342277 -316.413952 
L 373.803446 -316.671956 
L 378.264615 -316.922424 
L 382.725783 -317.172775 
L 387.186952 -317.421187 
L 391.648121 -317.654303 
L 396.10929 -317.848497 
L 400.570459 -317.974675 
L 405.031627 -318.005874 
L 409.492796 -317.92626 
L 413.953965 -317.739264 
L 418.415134 -317.472158 
L 422.876302 -317.174643 
L 427.337471 -316.910626 
L 431.79864 -316.74471 
L 436.259809 -316.727377 
L 440.720977 -316.883996 
L 445.182146 -317.212073 
L 449.643315 -317.688349 
L 454.104484 -318.283559 
L 458.565652 -318.979271 
L 463.026821 -319.779931 
L 467.48799 -320.714747 
L 471.949159 -321.827823 
L 476.410328 -323.159356 
L 480.871496 -324.723793 
L 485.332665 -326.491662 
L 489.793834 -328.380473 
L 494.255003 -330.257738 
L 498.716171 -331.956557 
L 503.17734 -333.301706 
L 507.638509 -334.141479 
L 512.099678 -334.37824 
L 516.560846 -333.989696 
L 521.022015 -333.034555 
L 525.483184 -331.640547 
L 529.944353 -329.978272 
L 534.405522 -328.228592 
L 538.86669 -326.552421 
L 543.327859 -325.069548 
L 547.789028 -323.849064 
L 552.250197 -322.910058 
L 556.711365 -322.229258 
L 561.172534 -321.752308 
L 565.633703 -321.406658 
L 570.094872 -321.115108 
L 574.55604 -320.809115 
L 579.017209 -320.440123 
L 583.478378 -319.986353 
L 587.939547 -319.452863 
L 592.400716 -318.864588 
L 596.861884 -318.254793 
L 601.323053 -317.65333 
L 605.784222 -317.079083 
L 610.245391 -316.538874 
L 614.706559 -316.031958 
L 619.167728 -315.556873 
L 623.628897 -315.116961 
L 628.090066 -314.722296 
L 632.551234 -314.387959 
L 637.012403 -314.130269 
L 641.473572 -313.962867 
L 645.934741 -313.893819 
L 650.39591 -313.923753 
L 654.857078 -314.044553 
L 659.318247 -314.238326 
L 663.779416 -314.477179 
L 668.240585 -314.724859 
L 672.701753 -314.941105 
L 677.162922 -315.088493 
L 681.624091 -315.140158 
L 681.624091 -313.279904 
L 681.624091 -313.279904 
L 677.162922 -313.279904 
L 672.701753 -313.279904 
L 668.240585 -313.279904 
L 663.779416 -313.279904 
L 659.318247 -313.279904 
L 654.857078 -313.279904 
L 650.39591 -313.279904 
L 645.934741 -313.279904 
L 641.473572 -313.279904 
L 637.012403 -313.279904 
L 632.551234 -313.279904 
L 628.090066 -313.279904 
L 623.628897 -313.279904 
L 619.167728 -313.279904 
L 614.706559 -313.279904 
L 610.245391 -313.279904 
L 605.784222 -313.279904 
L 601.323053 -313.279904 
L 596.861884 -313.279904 
L 592.400716 -313.279904 
L 587.939547 -313.279904 
L 583.478378 -313.279904 
L 579.017209 -313.279904 
L 574.55604 -313.279904 
L 570.094872 -313.279904 
L 565.633703 -313.279904 
L 561.172534 -313.279904 
L 556.711365 -313.279904 
L 552.250197 -313.279904 
L 547.789028 -313.279904 
L 543.327859 -313.279904 
L 538.86669 -313.279904 
L 534.405522 -313.279904 
L 529.944353 -313.279904 
L 525.483184 -313.279904 
L 521.022015 -313.279904 
L 516.560846 -313.279904 
L 512.099678 -313.279904 
L 507.638509 -313.279904 
L 503.17734 -313.279904 
L 498.716171 -313.279904 
L 494.255003 -313.279904 
L 489.793834 -313.279904 
L 485.332665 -313.279904 
L 480.871496 -313.279904 
L 476.410328 -313.279904 
L 471.949159 -313.279904 
L 467.48799 -313.279904 
L 463.026821 -313.279904 
L 458.565652 -313.279904 
L 454.104484 -313.279904 
L 449.643315 -313.279904 
L 445.182146 -313.279904 
L 440.720977 -313.279904 
L 436.259809 -313.279904 
L 431.79864 -313.279904 
L 427.337471 -313.279904 
L 422.876302 -313.279904 
L 418.415134 -313.279904 
L 413.953965 -313.279904 
L 409.492796 -313.279904 
L 405.031627 -313.279904 
L 400.570459 -313.279904 
L 396.10929 -313.279904 
L 391.648121 -313.279904 
L 387.186952 -313.279904 
L 382.725783 -313.279904 
L 378.264615 -313.279904 
L 373.803446 -313.279904 
L 369.342277 -313.279904 
L 364.881108 -313.279904 
L 360.41994 -313.279904 
L 355.958771 -313.279904 
L 351.497602 -313.279904 
L 347.036433 -313.279904 
L 342.575265 -313.279904 
L 338.114096 -313.279904 
L 333.652927 -313.279904 
L 329.191758 -313.279904 
L 324.730589 -313.279904 
L 320.269421 -313.279904 
L 315.808252 -313.279904 
L 311.347083 -313.279904 
L 306.885914 -313.279904 
L 302.424746 -313.279904 
L 297.963577 -313.279904 
L 293.502408 -313.279904 
L 289.041239 -313.279904 
L 284.580071 -313.279904 
L 280.118902 -313.279904 
L 275.657733 -313.279904 
L 271.196564 -313.279904 
L 266.735395 -313.279904 
L 262.274227 -313.279904 
L 257.813058 -313.279904 
L 253.351889 -313.279904 
L 248.89072 -313.279904 
L 244.429552 -313.279904 
L 239.968383 -313.279904 
z
" style="stroke: #434343; stroke-opacity: 0.65"/>
    </defs>
    <g clip-path="url(#pbd032ac538)">
     <use xlink:href="#m2c49f95eaa" x="0" y="432" style="fill: #9e9241; fill-opacity: 0.65; stroke: #434343; stroke-opacity: 0.65"/>
    </g>
   </g>
   <g id="PolyCollection_3">
    <defs>
     <path id="m5552cc2c28" d="M 338.562002 -240.728578 
L 338.562002 -245.77337 
L 341.379773 -246.180335 
L 344.197545 -246.470516 
L 347.015317 -246.632644 
L 349.833088 -246.667046 
L 352.65086 -246.585036 
L 355.468632 -246.406856 
L 358.286404 -246.158521 
L 361.104175 -245.868036 
L 363.921947 -245.561502 
L 366.739719 -245.259667 
L 369.557491 -244.975491 
L 372.375262 -244.713186 
L 375.193034 -244.469022 
L 378.010806 -244.233806 
L 380.828577 -243.99658 
L 383.646349 -243.74871 
L 386.464121 -243.487458 
L 389.281893 -243.218192 
L 392.099664 -242.954816 
L 394.917436 -242.718428 
L 397.735208 -242.534647 
L 400.55298 -242.430294 
L 403.370751 -242.430143 
L 406.188523 -242.554252 
L 409.006295 -242.816156 
L 411.824066 -243.221916 
L 414.641838 -243.76984 
L 417.45961 -244.45063 
L 420.277382 -245.24775 
L 423.095153 -246.137976 
L 425.912925 -247.092248 
L 428.730697 -248.077141 
L 431.548469 -249.057286 
L 434.36624 -249.998935 
L 437.184012 -250.874471 
L 440.001784 -251.667193 
L 442.819555 -252.375194 
L 445.637327 -253.012973 
L 448.455099 -253.609658 
L 451.272871 -254.203435 
L 454.090642 -254.832841 
L 456.908414 -255.526626 
L 459.726186 -256.294589 
L 462.543958 -257.121799 
L 465.361729 -257.967902 
L 468.179501 -258.771942 
L 470.997273 -259.461668 
L 473.815045 -259.965217 
L 476.632816 -260.222579 
L 479.450588 -260.194543 
L 482.26836 -259.867765 
L 485.086131 -259.255649 
L 487.903903 -258.395716 
L 490.721675 -257.34457 
L 493.539447 -256.171596 
L 496.357218 -254.952226 
L 499.17499 -253.761271 
L 501.992762 -252.666593 
L 504.810534 -251.723487 
L 507.628305 -250.97022 
L 510.446077 -250.425318 
L 513.263849 -250.087086 
L 516.08162 -249.935553 
L 518.899392 -249.936568 
L 521.717164 -250.047352 
L 524.534936 -250.222463 
L 527.352707 -250.41916 
L 530.170479 -250.601324 
L 532.988251 -250.741551 
L 535.806023 -250.821518 
L 538.623794 -250.831084 
L 541.441566 -250.766766 
L 544.259338 -250.630173 
L 547.077109 -250.426737 
L 549.894881 -250.164798 
L 552.712653 -249.854927 
L 555.530425 -249.509334 
L 558.348196 -249.141275 
L 561.165968 -248.764513 
L 563.98374 -248.392918 
L 566.801512 -248.040216 
L 569.619283 -247.71977 
L 572.437055 -247.444104 
L 575.254827 -247.223904 
L 578.072598 -247.066436 
L 580.89037 -246.9736 
L 583.708142 -246.940211 
L 586.525914 -246.953202 
L 589.343685 -246.992329 
L 592.161457 -247.032507 
L 594.979229 -247.047392 
L 597.797001 -247.01333 
L 600.614772 -246.912688 
L 603.432544 -246.735745 
L 606.250316 -246.48088 
L 609.068088 -246.153317 
L 611.885859 -245.763112 
L 614.703631 -245.323152 
L 617.521403 -244.847692 
L 617.521403 -240.728578 
L 617.521403 -240.728578 
L 614.703631 -240.728578 
L 611.885859 -240.728578 
L 609.068088 -240.728578 
L 606.250316 -240.728578 
L 603.432544 -240.728578 
L 600.614772 -240.728578 
L 597.797001 -240.728578 
L 594.979229 -240.728578 
L 592.161457 -240.728578 
L 589.343685 -240.728578 
L 586.525914 -240.728578 
L 583.708142 -240.728578 
L 580.89037 -240.728578 
L 578.072598 -240.728578 
L 575.254827 -240.728578 
L 572.437055 -240.728578 
L 569.619283 -240.728578 
L 566.801512 -240.728578 
L 563.98374 -240.728578 
L 561.165968 -240.728578 
L 558.348196 -240.728578 
L 555.530425 -240.728578 
L 552.712653 -240.728578 
L 549.894881 -240.728578 
L 547.077109 -240.728578 
L 544.259338 -240.728578 
L 541.441566 -240.728578 
L 538.623794 -240.728578 
L 535.806023 -240.728578 
L 532.988251 -240.728578 
L 530.170479 -240.728578 
L 527.352707 -240.728578 
L 524.534936 -240.728578 
L 521.717164 -240.728578 
L 518.899392 -240.728578 
L 516.08162 -240.728578 
L 513.263849 -240.728578 
L 510.446077 -240.728578 
L 507.628305 -240.728578 
L 504.810534 -240.728578 
L 501.992762 -240.728578 
L 499.17499 -240.728578 
L 496.357218 -240.728578 
L 493.539447 -240.728578 
L 490.721675 -240.728578 
L 487.903903 -240.728578 
L 485.086131 -240.728578 
L 482.26836 -240.728578 
L 479.450588 -240.728578 
L 476.632816 -240.728578 
L 473.815045 -240.728578 
L 470.997273 -240.728578 
L 468.179501 -240.728578 
L 465.361729 -240.728578 
L 462.543958 -240.728578 
L 459.726186 -240.728578 
L 456.908414 -240.728578 
L 454.090642 -240.728578 
L 451.272871 -240.728578 
L 448.455099 -240.728578 
L 445.637327 -240.728578 
L 442.819555 -240.728578 
L 440.001784 -240.728578 
L 437.184012 -240.728578 
L 434.36624 -240.728578 
L 431.548469 -240.728578 
L 428.730697 -240.728578 
L 425.912925 -240.728578 
L 423.095153 -240.728578 
L 420.277382 -240.728578 
L 417.45961 -240.728578 
L 414.641838 -240.728578 
L 411.824066 -240.728578 
L 409.006295 -240.728578 
L 406.188523 -240.728578 
L 403.370751 -240.728578 
L 400.55298 -240.728578 
L 397.735208 -240.728578 
L 394.917436 -240.728578 
L 392.099664 -240.728578 
L 389.281893 -240.728578 
L 386.464121 -240.728578 
L 383.646349 -240.728578 
L 380.828577 -240.728578 
L 378.010806 -240.728578 
L 375.193034 -240.728578 
L 372.375262 -240.728578 
L 369.557491 -240.728578 
L 366.739719 -240.728578 
L 363.921947 -240.728578 
L 361.104175 -240.728578 
L 358.286404 -240.728578 
L 355.468632 -240.728578 
L 352.65086 -240.728578 
L 349.833088 -240.728578 
L 347.015317 -240.728578 
L 344.197545 -240.728578 
L 341.379773 -240.728578 
L 338.562002 -240.728578 
z
" style="stroke: #434343; stroke-opacity: 0.65"/>
    </defs>
    <g clip-path="url(#pbd032ac538)">
     <use xlink:href="#m5552cc2c28" x="0" y="432" style="fill: #43a178; fill-opacity: 0.65; stroke: #434343; stroke-opacity: 0.65"/>
    </g>
   </g>
   <g id="PolyCollection_4">
    <defs>
     <path id="m2f05b55713" d="M 223.954501 -168.177253 
L 223.954501 -170.134383 
L 228.365417 -170.069196 
L 232.776333 -169.886375 
L 237.187249 -169.620082 
L 241.598165 -169.315492 
L 246.009081 -169.016382 
L 250.419997 -168.75535 
L 254.830913 -168.54943 
L 259.241829 -168.401164 
L 263.652745 -168.303139 
L 268.063661 -168.243392 
L 272.474577 -168.209726 
L 276.885493 -168.192153 
L 281.296409 -168.183646 
L 285.707325 -168.179833 
L 290.118241 -168.17828 
L 294.529157 -168.177808 
L 298.940073 -168.178017 
L 303.350989 -168.179108 
L 307.761905 -168.182012 
L 312.172821 -168.188851 
L 316.583737 -168.203771 
L 320.994653 -168.234069 
L 325.405569 -168.291347 
L 329.816485 -168.39206 
L 334.227401 -168.556547 
L 338.638317 -168.805605 
L 343.049233 -169.154227 
L 347.46015 -169.603421 
L 351.871066 -170.132572 
L 356.281982 -170.695949 
L 360.692898 -171.226629 
L 365.103814 -171.648949 
L 369.51473 -171.897175 
L 373.925646 -171.93498 
L 378.336562 -171.769263 
L 382.747478 -171.453513 
L 387.158394 -171.079694 
L 391.56931 -170.761365 
L 395.980226 -170.612879 
L 400.391142 -170.72922 
L 404.802058 -171.169582 
L 409.212974 -171.946508 
L 413.62389 -173.022328 
L 418.034806 -174.314985 
L 422.445722 -175.714628 
L 426.856638 -177.109372 
L 431.267554 -178.413885 
L 435.67847 -179.590605 
L 440.089386 -180.65341 
L 444.500302 -181.649458 
L 448.911218 -182.624935 
L 453.322134 -183.589761 
L 457.73305 -184.498995 
L 462.143966 -185.261654 
L 466.554882 -185.77393 
L 470.965798 -185.96072 
L 475.376715 -185.805014 
L 479.787631 -185.3515 
L 484.198547 -184.684668 
L 488.609463 -183.894439 
L 493.020379 -183.047168 
L 497.431295 -182.174979 
L 501.842211 -181.285514 
L 506.253127 -180.383484 
L 510.664043 -179.490326 
L 515.074959 -178.65082 
L 519.485875 -177.923603 
L 523.896791 -177.361276 
L 528.307707 -176.990428 
L 532.718623 -176.800465 
L 537.129539 -176.744663 
L 541.540455 -176.751291 
L 545.951371 -176.739978 
L 550.362287 -176.638684 
L 554.773203 -176.397881 
L 559.184119 -175.999426 
L 563.595035 -175.458214 
L 568.005951 -174.816177 
L 572.416867 -174.130559 
L 576.827783 -173.46036 
L 581.238699 -172.854977 
L 585.649615 -172.347293 
L 590.060531 -171.95134 
L 594.471447 -171.663645 
L 598.882363 -171.467503 
L 603.29328 -171.339619 
L 607.704196 -171.257755 
L 612.115112 -171.206849 
L 616.526028 -171.18098 
L 620.936944 -171.180372 
L 625.34786 -171.205417 
L 629.758776 -171.25137 
L 634.169692 -171.306466 
L 638.580608 -171.353655 
L 642.991524 -171.373888 
L 647.40244 -171.348802 
L 651.813356 -171.262329 
L 656.224272 -171.102429 
L 660.635188 -170.864056 
L 660.635188 -168.177253 
L 660.635188 -168.177253 
L 656.224272 -168.177253 
L 651.813356 -168.177253 
L 647.40244 -168.177253 
L 642.991524 -168.177253 
L 638.580608 -168.177253 
L 634.169692 -168.177253 
L 629.758776 -168.177253 
L 625.34786 -168.177253 
L 620.936944 -168.177253 
L 616.526028 -168.177253 
L 612.115112 -168.177253 
L 607.704196 -168.177253 
L 603.29328 -168.177253 
L 598.882363 -168.177253 
L 594.471447 -168.177253 
L 590.060531 -168.177253 
L 585.649615 -168.177253 
L 581.238699 -168.177253 
L 576.827783 -168.177253 
L 572.416867 -168.177253 
L 568.005951 -168.177253 
L 563.595035 -168.177253 
L 559.184119 -168.177253 
L 554.773203 -168.177253 
L 550.362287 -168.177253 
L 545.951371 -168.177253 
L 541.540455 -168.177253 
L 537.129539 -168.177253 
L 532.718623 -168.177253 
L 528.307707 -168.177253 
L 523.896791 -168.177253 
L 519.485875 -168.177253 
L 515.074959 -168.177253 
L 510.664043 -168.177253 
L 506.253127 -168.177253 
L 501.842211 -168.177253 
L 497.431295 -168.177253 
L 493.020379 -168.177253 
L 488.609463 -168.177253 
L 484.198547 -168.177253 
L 479.787631 -168.177253 
L 475.376715 -168.177253 
L 470.965798 -168.177253 
L 466.554882 -168.177253 
L 462.143966 -168.177253 
L 457.73305 -168.177253 
L 453.322134 -168.177253 
L 448.911218 -168.177253 
L 444.500302 -168.177253 
L 440.089386 -168.177253 
L 435.67847 -168.177253 
L 431.267554 -168.177253 
L 426.856638 -168.177253 
L 422.445722 -168.177253 
L 418.034806 -168.177253 
L 413.62389 -168.177253 
L 409.212974 -168.177253 
L 404.802058 -168.177253 
L 400.391142 -168.177253 
L 395.980226 -168.177253 
L 391.56931 -168.177253 
L 387.158394 -168.177253 
L 382.747478 -168.177253 
L 378.336562 -168.177253 
L 373.925646 -168.177253 
L 369.51473 -168.177253 
L 365.103814 -168.177253 
L 360.692898 -168.177253 
L 356.281982 -168.177253 
L 351.871066 -168.177253 
L 347.46015 -168.177253 
L 343.049233 -168.177253 
L 338.638317 -168.177253 
L 334.227401 -168.177253 
L 329.816485 -168.177253 
L 325.405569 -168.177253 
L 320.994653 -168.177253 
L 316.583737 -168.177253 
L 312.172821 -168.177253 
L 307.761905 -168.177253 
L 303.350989 -168.177253 
L 298.940073 -168.177253 
L 294.529157 -168.177253 
L 290.118241 -168.177253 
L 285.707325 -168.177253 
L 281.296409 -168.177253 
L 276.885493 -168.177253 
L 272.474577 -168.177253 
L 268.063661 -168.177253 
L 263.652745 -168.177253 
L 259.241829 -168.177253 
L 254.830913 -168.177253 
L 250.419997 -168.177253 
L 246.009081 -168.177253 
L 241.598165 -168.177253 
L 237.187249 -168.177253 
L 232.776333 -168.177253 
L 228.365417 -168.177253 
L 223.954501 -168.177253 
z
" style="stroke: #434343; stroke-opacity: 0.65"/>
    </defs>
    <g clip-path="url(#pbd032ac538)">
     <use xlink:href="#m2f05b55713" x="0" y="432" style="fill: #4a9eb4; fill-opacity: 0.65; stroke: #434343; stroke-opacity: 0.65"/>
    </g>
   </g>
   <g id="PolyCollection_5">
    <defs>
     <path id="m3da04101b2" d="M 332.072973 -95.625928 
L 332.072973 -98.000695 
L 335.547557 -98.148555 
L 339.022141 -98.278724 
L 342.496725 -98.412166 
L 345.971309 -98.571542 
L 349.445892 -98.77591 
L 352.920476 -99.036376 
L 356.39506 -99.353826 
L 359.869644 -99.719185 
L 363.344228 -100.115897 
L 366.818812 -100.523683 
L 370.293396 -100.922458 
L 373.76798 -101.295398 
L 377.242564 -101.630556 
L 380.717148 -101.920884 
L 384.191732 -102.162974 
L 387.666315 -102.355062 
L 391.140899 -102.494998 
L 394.615483 -102.578831 
L 398.090067 -102.600481 
L 401.564651 -102.552704 
L 405.039235 -102.429212 
L 408.513819 -102.227553 
L 411.988403 -101.952133 
L 415.462987 -101.616769 
L 418.937571 -101.246194 
L 422.412155 -100.876113 
L 425.886738 -100.551531 
L 429.361322 -100.323297 
L 432.835906 -100.242973 
L 436.31049 -100.356446 
L 439.785074 -100.697004 
L 443.259658 -101.278902 
L 446.734242 -102.092632 
L 450.208826 -103.10309 
L 453.68341 -104.251551 
L 457.157994 -105.461709 
L 460.632578 -106.649274 
L 464.107161 -107.73364 
L 467.581745 -108.649476 
L 471.056329 -109.355762 
L 474.530913 -109.840235 
L 478.005497 -110.118173 
L 481.480081 -110.225914 
L 484.954665 -110.210824 
L 488.429249 -110.120307 
L 491.903833 -109.992502 
L 495.378417 -109.850622 
L 498.853001 -109.70174 
L 502.327584 -109.539584 
L 505.802168 -109.350038 
L 509.276752 -109.117581 
L 512.751336 -108.830987 
L 516.22592 -108.486995 
L 519.700504 -108.091323 
L 523.175088 -107.657076 
L 526.649672 -107.201301 
L 530.124256 -106.740854 
L 533.59884 -106.288881 
L 537.073424 -105.852897 
L 540.548007 -105.434886 
L 544.022591 -105.033127 
L 547.497175 -104.644912 
L 550.971759 -104.269138 
L 554.446343 -103.907833 
L 557.920927 -103.566165 
L 561.395511 -103.250927 
L 564.870095 -102.968005 
L 568.344679 -102.719642 
L 571.819263 -102.502407 
L 575.293847 -102.306641 
L 578.76843 -102.117745 
L 582.243014 -101.919073 
L 585.717598 -101.695635 
L 589.192182 -101.437422 
L 592.666766 -101.141269 
L 596.14135 -100.810662 
L 599.615934 -100.453711 
L 603.090518 -100.08026 
L 606.565102 -99.699385 
L 610.039686 -99.318335 
L 613.51427 -98.943241 
L 616.988853 -98.581077 
L 620.463437 -98.241797 
L 623.938021 -97.939462 
L 627.412605 -97.691591 
L 630.887189 -97.516654 
L 634.361773 -97.430349 
L 637.836357 -97.441672 
L 641.310941 -97.549891 
L 644.785525 -97.743197 
L 648.260109 -97.999364 
L 651.734693 -98.288233 
L 655.209276 -98.575453 
L 658.68386 -98.826732 
L 662.158444 -99.01188 
L 665.633028 -99.108074 
L 669.107612 -99.102033 
L 672.582196 -98.990975 
L 676.05678 -98.782366 
L 676.05678 -95.625928 
L 676.05678 -95.625928 
L 672.582196 -95.625928 
L 669.107612 -95.625928 
L 665.633028 -95.625928 
L 662.158444 -95.625928 
L 658.68386 -95.625928 
L 655.209276 -95.625928 
L 651.734693 -95.625928 
L 648.260109 -95.625928 
L 644.785525 -95.625928 
L 641.310941 -95.625928 
L 637.836357 -95.625928 
L 634.361773 -95.625928 
L 630.887189 -95.625928 
L 627.412605 -95.625928 
L 623.938021 -95.625928 
L 620.463437 -95.625928 
L 616.988853 -95.625928 
L 613.51427 -95.625928 
L 610.039686 -95.625928 
L 606.565102 -95.625928 
L 603.090518 -95.625928 
L 599.615934 -95.625928 
L 596.14135 -95.625928 
L 592.666766 -95.625928 
L 589.192182 -95.625928 
L 585.717598 -95.625928 
L 582.243014 -95.625928 
L 578.76843 -95.625928 
L 575.293847 -95.625928 
L 571.819263 -95.625928 
L 568.344679 -95.625928 
L 564.870095 -95.625928 
L 561.395511 -95.625928 
L 557.920927 -95.625928 
L 554.446343 -95.625928 
L 550.971759 -95.625928 
L 547.497175 -95.625928 
L 544.022591 -95.625928 
L 540.548007 -95.625928 
L 537.073424 -95.625928 
L 533.59884 -95.625928 
L 530.124256 -95.625928 
L 526.649672 -95.625928 
L 523.175088 -95.625928 
L 519.700504 -95.625928 
L 516.22592 -95.625928 
L 512.751336 -95.625928 
L 509.276752 -95.625928 
L 505.802168 -95.625928 
L 502.327584 -95.625928 
L 498.853001 -95.625928 
L 495.378417 -95.625928 
L 491.903833 -95.625928 
L 488.429249 -95.625928 
L 484.954665 -95.625928 
L 481.480081 -95.625928 
L 478.005497 -95.625928 
L 474.530913 -95.625928 
L 471.056329 -95.625928 
L 467.581745 -95.625928 
L 464.107161 -95.625928 
L 460.632578 -95.625928 
L 457.157994 -95.625928 
L 453.68341 -95.625928 
L 450.208826 -95.625928 
L 446.734242 -95.625928 
L 443.259658 -95.625928 
L 439.785074 -95.625928 
L 436.31049 -95.625928 
L 432.835906 -95.625928 
L 429.361322 -95.625928 
L 425.886738 -95.625928 
L 422.412155 -95.625928 
L 418.937571 -95.625928 
L 415.462987 -95.625928 
L 411.988403 -95.625928 
L 408.513819 -95.625928 
L 405.039235 -95.625928 
L 401.564651 -95.625928 
L 398.090067 -95.625928 
L 394.615483 -95.625928 
L 391.140899 -95.625928 
L 387.666315 -95.625928 
L 384.191732 -95.625928 
L 380.717148 -95.625928 
L 377.242564 -95.625928 
L 373.76798 -95.625928 
L 370.293396 -95.625928 
L 366.818812 -95.625928 
L 363.344228 -95.625928 
L 359.869644 -95.625928 
L 356.39506 -95.625928 
L 352.920476 -95.625928 
L 349.445892 -95.625928 
L 345.971309 -95.625928 
L 342.496725 -95.625928 
L 339.022141 -95.625928 
L 335.547557 -95.625928 
L 332.072973 -95.625928 
z
" style="stroke: #434343; stroke-opacity: 0.65"/>
    </defs>
    <g clip-path="url(#pbd032ac538)">
     <use xlink:href="#m3da04101b2" x="0" y="432" style="fill: #c789e5; fill-opacity: 0.65; stroke: #434343; stroke-opacity: 0.65"/>
    </g>
   </g>
   <g id="matplotlib.axis_1">
    <g id="xtick_1">
     <g id="line2d_1">
      <defs>
       <path id="mbddbceeb7c" d="M 0 0 
L 0 3.5 
" style="stroke: #000000; stroke-width: 0.8"/>
      </defs>
      <g>
       <use xlink:href="#mbddbceeb7c" x="139.612929" y="387.16" style="stroke: #000000; stroke-width: 0.8"/>
      </g>
     </g>
     <g id="text_1">
      <!-- 0 -->
      <g transform="translate(136.431679 401.758438) scale(0.1 -0.1)">
       <defs>
        <path id="DejaVuSans-30" d="M 2034 4250 
Q 1547 4250 1301 3770 
Q 1056 3291 1056 2328 
Q 1056 1369 1301 889 
Q 1547 409 2034 409 
Q 2525 409 2770 889 
Q 3016 1369 3016 2328 
Q 3016 3291 2770 3770 
Q 2525 4250 2034 4250 
z
M 2034 4750 
Q 2819 4750 3233 4129 
Q 3647 3509 3647 2328 
Q 3647 1150 3233 529 
Q 2819 -91 2034 -91 
Q 1250 -91 836 529 
Q 422 1150 422 2328 
Q 422 3509 836 4129 
Q 1250 4750 2034 4750 
z
" transform="scale(0.015625)"/>
       </defs>
       <use xlink:href="#DejaVuSans-30"/>
      </g>
     </g>
    </g>
    <g id="xtick_2">
     <g id="line2d_2">
      <g>
       <use xlink:href="#mbddbceeb7c" x="217.02571" y="387.16" style="stroke: #000000; stroke-width: 0.8"/>
      </g>
     </g>
     <g id="text_2">
      <!-- 1 -->
      <g transform="translate(213.84446 401.758438) scale(0.1 -0.1)">
       <defs>
        <path id="DejaVuSans-31" d="M 794 531 
L 1825 531 
L 1825 4091 
L 703 3866 
L 703 4441 
L 1819 4666 
L 2450 4666 
L 2450 531 
L 3481 531 
L 3481 0 
L 794 0 
L 794 531 
z
" transform="scale(0.015625)"/>
       </defs>
       <use xlink:href="#DejaVuSans-31"/>
      </g>
     </g>
    </g>
    <g id="xtick_3">
     <g id="line2d_3">
      <g>
       <use xlink:href="#mbddbceeb7c" x="294.438491" y="387.16" style="stroke: #000000; stroke-width: 0.8"/>
      </g>
     </g>
     <g id="text_3">
      <!-- 2 -->
      <g transform="translate(291.257241 401.758438) scale(0.1 -0.1)">
       <defs>
        <path id="DejaVuSans-32" d="M 1228 531 
L 3431 531 
L 3431 0 
L 469 0 
L 469 531 
Q 828 903 1448 1529 
Q 2069 2156 2228 2338 
Q 2531 2678 2651 2914 
Q 2772 3150 2772 3378 
Q 2772 3750 2511 3984 
Q 2250 4219 1831 4219 
Q 1534 4219 1204 4116 
Q 875 4013 500 3803 
L 500 4441 
Q 881 4594 1212 4672 
Q 1544 4750 1819 4750 
Q 2544 4750 2975 4387 
Q 3406 4025 3406 3419 
Q 3406 3131 3298 2873 
Q 3191 2616 2906 2266 
Q 2828 2175 2409 1742 
Q 1991 1309 1228 531 
z
" transform="scale(0.015625)"/>
       </defs>
       <use xlink:href="#DejaVuSans-32"/>
      </g>
     </g>
    </g>
    <g id="xtick_4">
     <g id="line2d_4">
      <g>
       <use xlink:href="#mbddbceeb7c" x="371.851273" y="387.16" style="stroke: #000000; stroke-width: 0.8"/>
      </g>
     </g>
     <g id="text_4">
      <!-- 3 -->
      <g transform="translate(368.670023 401.758438) scale(0.1 -0.1)">
       <defs>
        <path id="DejaVuSans-33" d="M 2597 2516 
Q 3050 2419 3304 2112 
Q 3559 1806 3559 1356 
Q 3559 666 3084 287 
Q 2609 -91 1734 -91 
Q 1441 -91 1130 -33 
Q 819 25 488 141 
L 488 750 
Q 750 597 1062 519 
Q 1375 441 1716 441 
Q 2309 441 2620 675 
Q 2931 909 2931 1356 
Q 2931 1769 2642 2001 
Q 2353 2234 1838 2234 
L 1294 2234 
L 1294 2753 
L 1863 2753 
Q 2328 2753 2575 2939 
Q 2822 3125 2822 3475 
Q 2822 3834 2567 4026 
Q 2313 4219 1838 4219 
Q 1578 4219 1281 4162 
Q 984 4106 628 3988 
L 628 4550 
Q 988 4650 1302 4700 
Q 1616 4750 1894 4750 
Q 2613 4750 3031 4423 
Q 3450 4097 3450 3541 
Q 3450 3153 3228 2886 
Q 3006 2619 2597 2516 
z
" transform="scale(0.015625)"/>
       </defs>
       <use xlink:href="#DejaVuSans-33"/>
      </g>
     </g>
    </g>
    <g id="xtick_5">
     <g id="line2d_5">
      <g>
       <use xlink:href="#mbddbceeb7c" x="449.264054" y="387.16" style="stroke: #000000; stroke-width: 0.8"/>
      </g>
     </g>
     <g id="text_5">
      <!-- 4 -->
      <g transform="translate(446.082804 401.758438) scale(0.1 -0.1)">
       <defs>
        <path id="DejaVuSans-34" d="M 2419 4116 
L 825 1625 
L 2419 1625 
L 2419 4116 
z
M 2253 4666 
L 3047 4666 
L 3047 1625 
L 3713 1625 
L 3713 1100 
L 3047 1100 
L 3047 0 
L 2419 0 
L 2419 1100 
L 313 1100 
L 313 1709 
L 2253 4666 
z
" transform="scale(0.015625)"/>
       </defs>
       <use xlink:href="#DejaVuSans-34"/>
      </g>
     </g>
    </g>
    <g id="xtick_6">
     <g id="line2d_6">
      <g>
       <use xlink:href="#mbddbceeb7c" x="526.676835" y="387.16" style="stroke: #000000; stroke-width: 0.8"/>
      </g>
     </g>
     <g id="text_6">
      <!-- 5 -->
      <g transform="translate(523.495585 401.758438) scale(0.1 -0.1)">
       <defs>
        <path id="DejaVuSans-35" d="M 691 4666 
L 3169 4666 
L 3169 4134 
L 1269 4134 
L 1269 2991 
Q 1406 3038 1543 3061 
Q 1681 3084 1819 3084 
Q 2600 3084 3056 2656 
Q 3513 2228 3513 1497 
Q 3513 744 3044 326 
Q 2575 -91 1722 -91 
Q 1428 -91 1123 -41 
Q 819 9 494 109 
L 494 744 
Q 775 591 1075 516 
Q 1375 441 1709 441 
Q 2250 441 2565 725 
Q 2881 1009 2881 1497 
Q 2881 1984 2565 2268 
Q 2250 2553 1709 2553 
Q 1456 2553 1204 2497 
Q 953 2441 691 2322 
L 691 4666 
z
" transform="scale(0.015625)"/>
       </defs>
       <use xlink:href="#DejaVuSans-35"/>
      </g>
     </g>
    </g>
    <g id="xtick_7">
     <g id="line2d_7">
      <g>
       <use xlink:href="#mbddbceeb7c" x="604.089616" y="387.16" style="stroke: #000000; stroke-width: 0.8"/>
      </g>
     </g>
     <g id="text_7">
      <!-- 6 -->
      <g transform="translate(600.908366 401.758438) scale(0.1 -0.1)">
       <defs>
        <path id="DejaVuSans-36" d="M 2113 2584 
Q 1688 2584 1439 2293 
Q 1191 2003 1191 1497 
Q 1191 994 1439 701 
Q 1688 409 2113 409 
Q 2538 409 2786 701 
Q 3034 994 3034 1497 
Q 3034 2003 2786 2293 
Q 2538 2584 2113 2584 
z
M 3366 4563 
L 3366 3988 
Q 3128 4100 2886 4159 
Q 2644 4219 2406 4219 
Q 1781 4219 1451 3797 
Q 1122 3375 1075 2522 
Q 1259 2794 1537 2939 
Q 1816 3084 2150 3084 
Q 2853 3084 3261 2657 
Q 3669 2231 3669 1497 
Q 3669 778 3244 343 
Q 2819 -91 2113 -91 
Q 1303 -91 875 529 
Q 447 1150 447 2328 
Q 447 3434 972 4092 
Q 1497 4750 2381 4750 
Q 2619 4750 2861 4703 
Q 3103 4656 3366 4563 
z
" transform="scale(0.015625)"/>
       </defs>
       <use xlink:href="#DejaVuSans-36"/>
      </g>
     </g>
    </g>
    <g id="xtick_8">
     <g id="line2d_8">
      <g>
       <use xlink:href="#mbddbceeb7c" x="681.502397" y="387.16" style="stroke: #000000; stroke-width: 0.8"/>
      </g>
     </g>
     <g id="text_8">
      <!-- 7 -->
      <g transform="translate(678.321147 401.758438) scale(0.1 -0.1)">
       <defs>
        <path id="DejaVuSans-37" d="M 525 4666 
L 3525 4666 
L 3525 4397 
L 1831 0 
L 1172 0 
L 2766 4134 
L 525 4134 
L 525 4666 
z
" transform="scale(0.015625)"/>
       </defs>
       <use xlink:href="#DejaVuSans-37"/>
      </g>
     </g>
    </g>
    <g id="text_9">
     <!-- $log([PERM]/[Total Protein])$ -->
     <g transform="translate(340.615 415.438125) scale(0.1 -0.1)">
      <defs>
       <path id="DejaVuSans-Oblique-6c" d="M 1172 4863 
L 1747 4863 
L 800 0 
L 225 0 
L 1172 4863 
z
" transform="scale(0.015625)"/>
       <path id="DejaVuSans-Oblique-6f" d="M 1625 -91 
Q 1009 -91 651 289 
Q 294 669 294 1325 
Q 294 1706 417 2101 
Q 541 2497 738 2766 
Q 1047 3184 1428 3384 
Q 1809 3584 2291 3584 
Q 2888 3584 3255 3212 
Q 3622 2841 3622 2241 
Q 3622 1825 3500 1412 
Q 3378 1000 3181 728 
Q 2875 309 2494 109 
Q 2113 -91 1625 -91 
z
M 891 1344 
Q 891 869 1089 633 
Q 1288 397 1691 397 
Q 2269 397 2648 901 
Q 3028 1406 3028 2181 
Q 3028 2634 2825 2865 
Q 2622 3097 2228 3097 
Q 1903 3097 1650 2945 
Q 1397 2794 1197 2484 
Q 1050 2253 970 1956 
Q 891 1659 891 1344 
z
" transform="scale(0.015625)"/>
       <path id="DejaVuSans-Oblique-67" d="M 3816 3500 
L 3219 434 
Q 3047 -456 2561 -893 
Q 2075 -1331 1253 -1331 
Q 950 -1331 690 -1286 
Q 431 -1241 206 -1147 
L 313 -588 
Q 525 -725 762 -790 
Q 1000 -856 1269 -856 
Q 1816 -856 2167 -557 
Q 2519 -259 2631 300 
L 2681 563 
Q 2441 288 2122 144 
Q 1803 0 1434 0 
Q 903 0 598 351 
Q 294 703 294 1319 
Q 294 1803 478 2267 
Q 663 2731 997 3091 
Q 1219 3328 1514 3456 
Q 1809 3584 2131 3584 
Q 2484 3584 2746 3420 
Q 3009 3256 3138 2956 
L 3238 3500 
L 3816 3500 
z
M 2950 2216 
Q 2950 2641 2750 2872 
Q 2550 3103 2181 3103 
Q 1953 3103 1747 3012 
Q 1541 2922 1394 2759 
Q 1156 2491 1023 2127 
Q 891 1763 891 1375 
Q 891 944 1092 712 
Q 1294 481 1672 481 
Q 2219 481 2584 976 
Q 2950 1472 2950 2216 
z
" transform="scale(0.015625)"/>
       <path id="DejaVuSans-28" d="M 1984 4856 
Q 1566 4138 1362 3434 
Q 1159 2731 1159 2009 
Q 1159 1288 1364 580 
Q 1569 -128 1984 -844 
L 1484 -844 
Q 1016 -109 783 600 
Q 550 1309 550 2009 
Q 550 2706 781 3412 
Q 1013 4119 1484 4856 
L 1984 4856 
z
" transform="scale(0.015625)"/>
       <path id="DejaVuSans-5b" d="M 550 4863 
L 1875 4863 
L 1875 4416 
L 1125 4416 
L 1125 -397 
L 1875 -397 
L 1875 -844 
L 550 -844 
L 550 4863 
z
" transform="scale(0.015625)"/>
       <path id="DejaVuSans-Oblique-50" d="M 1081 4666 
L 2541 4666 
Q 3178 4666 3512 4369 
Q 3847 4072 3847 3500 
Q 3847 2731 3353 2303 
Q 2859 1875 1966 1875 
L 1172 1875 
L 806 0 
L 172 0 
L 1081 4666 
z
M 1613 4147 
L 1275 2394 
L 2069 2394 
Q 2606 2394 2893 2669 
Q 3181 2944 3181 3456 
Q 3181 3784 2986 3965 
Q 2791 4147 2438 4147 
L 1613 4147 
z
" transform="scale(0.015625)"/>
       <path id="DejaVuSans-Oblique-45" d="M 1081 4666 
L 4031 4666 
L 3928 4134 
L 1606 4134 
L 1338 2753 
L 3566 2753 
L 3463 2222 
L 1234 2222 
L 909 531 
L 3284 531 
L 3181 0 
L 172 0 
L 1081 4666 
z
" transform="scale(0.015625)"/>
       <path id="DejaVuSans-Oblique-52" d="M 1613 4147 
L 1294 2491 
L 2106 2491 
Q 2584 2491 2879 2755 
Q 3175 3019 3175 3444 
Q 3175 3784 2976 3965 
Q 2778 4147 2406 4147 
L 1613 4147 
z
M 2772 2241 
Q 2972 2194 3105 2009 
Q 3238 1825 3413 1275 
L 3809 0 
L 3144 0 
L 2778 1197 
Q 2638 1659 2453 1815 
Q 2269 1972 1888 1972 
L 1191 1972 
L 806 0 
L 172 0 
L 1081 4666 
L 2503 4666 
Q 3150 4666 3495 4373 
Q 3841 4081 3841 3531 
Q 3841 3044 3547 2687 
Q 3253 2331 2772 2241 
z
" transform="scale(0.015625)"/>
       <path id="DejaVuSans-Oblique-4d" d="M 1081 4666 
L 2028 4666 
L 2572 1522 
L 4378 4666 
L 5350 4666 
L 4441 0 
L 3828 0 
L 4622 4091 
L 2791 897 
L 2175 897 
L 1581 4103 
L 788 0 
L 172 0 
L 1081 4666 
z
" transform="scale(0.015625)"/>
       <path id="DejaVuSans-5d" d="M 1947 4863 
L 1947 -844 
L 622 -844 
L 622 -397 
L 1369 -397 
L 1369 4416 
L 622 4416 
L 622 4863 
L 1947 4863 
z
" transform="scale(0.015625)"/>
       <path id="DejaVuSans-2f" d="M 1625 4666 
L 2156 4666 
L 531 -594 
L 0 -594 
L 1625 4666 
z
" transform="scale(0.015625)"/>
       <path id="DejaVuSans-Oblique-54" d="M 378 4666 
L 4325 4666 
L 4225 4134 
L 2559 4134 
L 1759 0 
L 1125 0 
L 1925 4134 
L 275 4134 
L 378 4666 
z
" transform="scale(0.015625)"/>
       <path id="DejaVuSans-Oblique-74" d="M 2706 3500 
L 2619 3053 
L 1472 3053 
L 1100 1153 
Q 1081 1047 1072 975 
Q 1063 903 1063 863 
Q 1063 663 1183 572 
Q 1303 481 1569 481 
L 2150 481 
L 2053 0 
L 1503 0 
Q 991 0 739 200 
Q 488 400 488 806 
Q 488 878 497 964 
Q 506 1050 525 1153 
L 897 3053 
L 409 3053 
L 500 3500 
L 978 3500 
L 1172 4494 
L 1747 4494 
L 1556 3500 
L 2706 3500 
z
" transform="scale(0.015625)"/>
       <path id="DejaVuSans-Oblique-61" d="M 3438 1997 
L 3047 0 
L 2472 0 
L 2578 531 
Q 2325 219 2001 64 
Q 1678 -91 1281 -91 
Q 834 -91 548 182 
Q 263 456 263 884 
Q 263 1497 752 1853 
Q 1241 2209 2100 2209 
L 2900 2209 
L 2931 2363 
Q 2938 2388 2941 2417 
Q 2944 2447 2944 2509 
Q 2944 2788 2717 2942 
Q 2491 3097 2081 3097 
Q 1800 3097 1504 3025 
Q 1209 2953 897 2809 
L 997 3341 
Q 1322 3463 1633 3523 
Q 1944 3584 2234 3584 
Q 2853 3584 3176 3315 
Q 3500 3047 3500 2534 
Q 3500 2431 3484 2292 
Q 3469 2153 3438 1997 
z
M 2816 1759 
L 2241 1759 
Q 1534 1759 1195 1570 
Q 856 1381 856 984 
Q 856 709 1029 553 
Q 1203 397 1509 397 
Q 1978 397 2328 733 
Q 2678 1069 2791 1631 
L 2816 1759 
z
" transform="scale(0.015625)"/>
       <path id="DejaVuSans-Oblique-72" d="M 2853 2969 
Q 2766 3016 2653 3041 
Q 2541 3066 2413 3066 
Q 1953 3066 1609 2717 
Q 1266 2369 1153 1784 
L 800 0 
L 225 0 
L 909 3500 
L 1484 3500 
L 1375 2956 
Q 1603 3259 1920 3421 
Q 2238 3584 2597 3584 
Q 2691 3584 2781 3573 
Q 2872 3563 2963 3538 
L 2853 2969 
z
" transform="scale(0.015625)"/>
       <path id="DejaVuSans-Oblique-65" d="M 3078 2063 
Q 3088 2113 3092 2166 
Q 3097 2219 3097 2272 
Q 3097 2653 2873 2875 
Q 2650 3097 2266 3097 
Q 1838 3097 1509 2826 
Q 1181 2556 1013 2059 
L 3078 2063 
z
M 3578 1613 
L 903 1613 
Q 884 1494 878 1425 
Q 872 1356 872 1306 
Q 872 872 1139 634 
Q 1406 397 1894 397 
Q 2269 397 2603 481 
Q 2938 566 3225 728 
L 3116 159 
Q 2806 34 2476 -28 
Q 2147 -91 1806 -91 
Q 1078 -91 686 257 
Q 294 606 294 1247 
Q 294 1794 489 2264 
Q 684 2734 1063 3103 
Q 1306 3334 1642 3459 
Q 1978 3584 2356 3584 
Q 2950 3584 3301 3228 
Q 3653 2872 3653 2272 
Q 3653 2128 3634 1964 
Q 3616 1800 3578 1613 
z
" transform="scale(0.015625)"/>
       <path id="DejaVuSans-Oblique-69" d="M 1172 4863 
L 1747 4863 
L 1606 4134 
L 1031 4134 
L 1172 4863 
z
M 909 3500 
L 1484 3500 
L 800 0 
L 225 0 
L 909 3500 
z
" transform="scale(0.015625)"/>
       <path id="DejaVuSans-Oblique-6e" d="M 3566 2113 
L 3156 0 
L 2578 0 
L 2988 2091 
Q 3016 2238 3031 2350 
Q 3047 2463 3047 2528 
Q 3047 2791 2881 2937 
Q 2716 3084 2419 3084 
Q 1956 3084 1622 2776 
Q 1288 2469 1184 1941 
L 800 0 
L 225 0 
L 903 3500 
L 1478 3500 
L 1363 2950 
Q 1603 3253 1940 3418 
Q 2278 3584 2650 3584 
Q 3113 3584 3367 3334 
Q 3622 3084 3622 2631 
Q 3622 2519 3608 2391 
Q 3594 2263 3566 2113 
z
" transform="scale(0.015625)"/>
       <path id="DejaVuSans-29" d="M 513 4856 
L 1013 4856 
Q 1481 4119 1714 3412 
Q 1947 2706 1947 2009 
Q 1947 1309 1714 600 
Q 1481 -109 1013 -844 
L 513 -844 
Q 928 -128 1133 580 
Q 1338 1288 1338 2009 
Q 1338 2731 1133 3434 
Q 928 4138 513 4856 
z
" transform="scale(0.015625)"/>
      </defs>
      <use xlink:href="#DejaVuSans-Oblique-6c" transform="translate(0 0.015625)"/>
      <use xlink:href="#DejaVuSans-Oblique-6f" transform="translate(27.783203 0.015625)"/>
      <use xlink:href="#DejaVuSans-Oblique-67" transform="translate(88.964844 0.015625)"/>
      <use xlink:href="#DejaVuSans-28" transform="translate(152.441406 0.015625)"/>
      <use xlink:href="#DejaVuSans-5b" transform="translate(191.455078 0.015625)"/>
      <use xlink:href="#DejaVuSans-Oblique-50" transform="translate(230.46875 0.015625)"/>
      <use xlink:href="#DejaVuSans-Oblique-45" transform="translate(290.771484 0.015625)"/>
      <use xlink:href="#DejaVuSans-Oblique-52" transform="translate(353.955078 0.015625)"/>
      <use xlink:href="#DejaVuSans-Oblique-4d" transform="translate(423.4375 0.015625)"/>
      <use xlink:href="#DejaVuSans-5d" transform="translate(509.716797 0.015625)"/>
      <use xlink:href="#DejaVuSans-2f" transform="translate(548.730469 0.015625)"/>
      <use xlink:href="#DejaVuSans-5b" transform="translate(582.421875 0.015625)"/>
      <use xlink:href="#DejaVuSans-Oblique-54" transform="translate(621.435547 0.015625)"/>
      <use xlink:href="#DejaVuSans-Oblique-6f" transform="translate(682.519531 0.015625)"/>
      <use xlink:href="#DejaVuSans-Oblique-74" transform="translate(743.701172 0.015625)"/>
      <use xlink:href="#DejaVuSans-Oblique-61" transform="translate(782.910156 0.015625)"/>
      <use xlink:href="#DejaVuSans-Oblique-6c" transform="translate(844.189453 0.015625)"/>
      <use xlink:href="#DejaVuSans-Oblique-50" transform="translate(871.972656 0.015625)"/>
      <use xlink:href="#DejaVuSans-Oblique-72" transform="translate(932.275391 0.015625)"/>
      <use xlink:href="#DejaVuSans-Oblique-6f" transform="translate(973.388672 0.015625)"/>
      <use xlink:href="#DejaVuSans-Oblique-74" transform="translate(1034.570312 0.015625)"/>
      <use xlink:href="#DejaVuSans-Oblique-65" transform="translate(1073.779297 0.015625)"/>
      <use xlink:href="#DejaVuSans-Oblique-69" transform="translate(1135.302734 0.015625)"/>
      <use xlink:href="#DejaVuSans-Oblique-6e" transform="translate(1163.085938 0.015625)"/>
      <use xlink:href="#DejaVuSans-5d" transform="translate(1226.464844 0.015625)"/>
      <use xlink:href="#DejaVuSans-29" transform="translate(1265.478516 0.015625)"/>
     </g>
    </g>
   </g>
   <g id="matplotlib.axis_2">
    <g id="ytick_1">
     <g id="line2d_9">
      <defs>
       <path id="m375d510310" d="M 0 0 
L -3.5 0 
" style="stroke: #000000; stroke-width: 0.8"/>
      </defs>
      <g>
       <use xlink:href="#m375d510310" x="102.53" y="60.679036" style="stroke: #000000; stroke-width: 0.8"/>
      </g>
     </g>
     <g id="text_10">
      <!-- Reference -->
      <g transform="translate(45.176875 64.478255) scale(0.1 -0.1)">
       <defs>
        <path id="DejaVuSans-52" d="M 2841 2188 
Q 3044 2119 3236 1894 
Q 3428 1669 3622 1275 
L 4263 0 
L 3584 0 
L 2988 1197 
Q 2756 1666 2539 1819 
Q 2322 1972 1947 1972 
L 1259 1972 
L 1259 0 
L 628 0 
L 628 4666 
L 2053 4666 
Q 2853 4666 3247 4331 
Q 3641 3997 3641 3322 
Q 3641 2881 3436 2590 
Q 3231 2300 2841 2188 
z
M 1259 4147 
L 1259 2491 
L 2053 2491 
Q 2509 2491 2742 2702 
Q 2975 2913 2975 3322 
Q 2975 3731 2742 3939 
Q 2509 4147 2053 4147 
L 1259 4147 
z
" transform="scale(0.015625)"/>
        <path id="DejaVuSans-65" d="M 3597 1894 
L 3597 1613 
L 953 1613 
Q 991 1019 1311 708 
Q 1631 397 2203 397 
Q 2534 397 2845 478 
Q 3156 559 3463 722 
L 3463 178 
Q 3153 47 2828 -22 
Q 2503 -91 2169 -91 
Q 1331 -91 842 396 
Q 353 884 353 1716 
Q 353 2575 817 3079 
Q 1281 3584 2069 3584 
Q 2775 3584 3186 3129 
Q 3597 2675 3597 1894 
z
M 3022 2063 
Q 3016 2534 2758 2815 
Q 2500 3097 2075 3097 
Q 1594 3097 1305 2825 
Q 1016 2553 972 2059 
L 3022 2063 
z
" transform="scale(0.015625)"/>
        <path id="DejaVuSans-66" d="M 2375 4863 
L 2375 4384 
L 1825 4384 
Q 1516 4384 1395 4259 
Q 1275 4134 1275 3809 
L 1275 3500 
L 2222 3500 
L 2222 3053 
L 1275 3053 
L 1275 0 
L 697 0 
L 697 3053 
L 147 3053 
L 147 3500 
L 697 3500 
L 697 3744 
Q 697 4328 969 4595 
Q 1241 4863 1831 4863 
L 2375 4863 
z
" transform="scale(0.015625)"/>
        <path id="DejaVuSans-72" d="M 2631 2963 
Q 2534 3019 2420 3045 
Q 2306 3072 2169 3072 
Q 1681 3072 1420 2755 
Q 1159 2438 1159 1844 
L 1159 0 
L 581 0 
L 581 3500 
L 1159 3500 
L 1159 2956 
Q 1341 3275 1631 3429 
Q 1922 3584 2338 3584 
Q 2397 3584 2469 3576 
Q 2541 3569 2628 3553 
L 2631 2963 
z
" transform="scale(0.015625)"/>
        <path id="DejaVuSans-6e" d="M 3513 2113 
L 3513 0 
L 2938 0 
L 2938 2094 
Q 2938 2591 2744 2837 
Q 2550 3084 2163 3084 
Q 1697 3084 1428 2787 
Q 1159 2491 1159 1978 
L 1159 0 
L 581 0 
L 581 3500 
L 1159 3500 
L 1159 2956 
Q 1366 3272 1645 3428 
Q 1925 3584 2291 3584 
Q 2894 3584 3203 3211 
Q 3513 2838 3513 2113 
z
" transform="scale(0.015625)"/>
        <path id="DejaVuSans-63" d="M 3122 3366 
L 3122 2828 
Q 2878 2963 2633 3030 
Q 2388 3097 2138 3097 
Q 1578 3097 1268 2742 
Q 959 2388 959 1747 
Q 959 1106 1268 751 
Q 1578 397 2138 397 
Q 2388 397 2633 464 
Q 2878 531 3122 666 
L 3122 134 
Q 2881 22 2623 -34 
Q 2366 -91 2075 -91 
Q 1284 -91 818 406 
Q 353 903 353 1747 
Q 353 2603 823 3093 
Q 1294 3584 2113 3584 
Q 2378 3584 2631 3529 
Q 2884 3475 3122 3366 
z
" transform="scale(0.015625)"/>
       </defs>
       <use xlink:href="#DejaVuSans-52"/>
       <use xlink:href="#DejaVuSans-65" x="64.982422"/>
       <use xlink:href="#DejaVuSans-66" x="126.505859"/>
       <use xlink:href="#DejaVuSans-65" x="161.710938"/>
       <use xlink:href="#DejaVuSans-72" x="223.234375"/>
       <use xlink:href="#DejaVuSans-65" x="262.097656"/>
       <use xlink:href="#DejaVuSans-6e" x="323.621094"/>
       <use xlink:href="#DejaVuSans-63" x="387"/>
       <use xlink:href="#DejaVuSans-65" x="441.980469"/>
      </g>
     </g>
    </g>
    <g id="ytick_2">
     <g id="line2d_10">
      <g>
       <use xlink:href="#m375d510310" x="102.53" y="133.230361" style="stroke: #000000; stroke-width: 0.8"/>
      </g>
     </g>
     <g id="text_11">
      <!-- 24h 4C +PBS -->
      <g transform="translate(24.609688 137.02958) scale(0.1 -0.1)">
       <defs>
        <path id="DejaVuSans-68" d="M 3513 2113 
L 3513 0 
L 2938 0 
L 2938 2094 
Q 2938 2591 2744 2837 
Q 2550 3084 2163 3084 
Q 1697 3084 1428 2787 
Q 1159 2491 1159 1978 
L 1159 0 
L 581 0 
L 581 4863 
L 1159 4863 
L 1159 2956 
Q 1366 3272 1645 3428 
Q 1925 3584 2291 3584 
Q 2894 3584 3203 3211 
Q 3513 2838 3513 2113 
z
" transform="scale(0.015625)"/>
        <path id="DejaVuSans-20" transform="scale(0.015625)"/>
        <path id="DejaVuSans-ba" d="M 434 1850 
L 2584 1850 
L 2584 1466 
L 434 1466 
L 434 1850 
z
M 1509 4750 
Q 2069 4750 2391 4404 
Q 2713 4059 2713 3463 
Q 2713 2866 2391 2523 
Q 2069 2181 1509 2181 
Q 950 2181 625 2525 
Q 300 2869 300 3463 
Q 300 4059 625 4404 
Q 950 4750 1509 4750 
z
M 1509 4391 
Q 1181 4391 984 4139 
Q 788 3888 788 3463 
Q 788 3047 986 2797 
Q 1184 2547 1509 2547 
Q 1838 2547 2033 2797 
Q 2228 3047 2228 3463 
Q 2228 3891 2034 4141 
Q 1841 4391 1509 4391 
z
" transform="scale(0.015625)"/>
        <path id="DejaVuSans-43" d="M 4122 4306 
L 4122 3641 
Q 3803 3938 3442 4084 
Q 3081 4231 2675 4231 
Q 1875 4231 1450 3742 
Q 1025 3253 1025 2328 
Q 1025 1406 1450 917 
Q 1875 428 2675 428 
Q 3081 428 3442 575 
Q 3803 722 4122 1019 
L 4122 359 
Q 3791 134 3420 21 
Q 3050 -91 2638 -91 
Q 1578 -91 968 557 
Q 359 1206 359 2328 
Q 359 3453 968 4101 
Q 1578 4750 2638 4750 
Q 3056 4750 3426 4639 
Q 3797 4528 4122 4306 
z
" transform="scale(0.015625)"/>
        <path id="DejaVuSans-2b" d="M 2944 4013 
L 2944 2272 
L 4684 2272 
L 4684 1741 
L 2944 1741 
L 2944 0 
L 2419 0 
L 2419 1741 
L 678 1741 
L 678 2272 
L 2419 2272 
L 2419 4013 
L 2944 4013 
z
" transform="scale(0.015625)"/>
        <path id="DejaVuSans-50" d="M 1259 4147 
L 1259 2394 
L 2053 2394 
Q 2494 2394 2734 2622 
Q 2975 2850 2975 3272 
Q 2975 3691 2734 3919 
Q 2494 4147 2053 4147 
L 1259 4147 
z
M 628 4666 
L 2053 4666 
Q 2838 4666 3239 4311 
Q 3641 3956 3641 3272 
Q 3641 2581 3239 2228 
Q 2838 1875 2053 1875 
L 1259 1875 
L 1259 0 
L 628 0 
L 628 4666 
z
" transform="scale(0.015625)"/>
        <path id="DejaVuSans-42" d="M 1259 2228 
L 1259 519 
L 2272 519 
Q 2781 519 3026 730 
Q 3272 941 3272 1375 
Q 3272 1813 3026 2020 
Q 2781 2228 2272 2228 
L 1259 2228 
z
M 1259 4147 
L 1259 2741 
L 2194 2741 
Q 2656 2741 2882 2914 
Q 3109 3088 3109 3444 
Q 3109 3797 2882 3972 
Q 2656 4147 2194 4147 
L 1259 4147 
z
M 628 4666 
L 2241 4666 
Q 2963 4666 3353 4366 
Q 3744 4066 3744 3513 
Q 3744 3084 3544 2831 
Q 3344 2578 2956 2516 
Q 3422 2416 3680 2098 
Q 3938 1781 3938 1306 
Q 3938 681 3513 340 
Q 3088 0 2303 0 
L 628 0 
L 628 4666 
z
" transform="scale(0.015625)"/>
        <path id="DejaVuSans-53" d="M 3425 4513 
L 3425 3897 
Q 3066 4069 2747 4153 
Q 2428 4238 2131 4238 
Q 1616 4238 1336 4038 
Q 1056 3838 1056 3469 
Q 1056 3159 1242 3001 
Q 1428 2844 1947 2747 
L 2328 2669 
Q 3034 2534 3370 2195 
Q 3706 1856 3706 1288 
Q 3706 609 3251 259 
Q 2797 -91 1919 -91 
Q 1588 -91 1214 -16 
Q 841 59 441 206 
L 441 856 
Q 825 641 1194 531 
Q 1563 422 1919 422 
Q 2459 422 2753 634 
Q 3047 847 3047 1241 
Q 3047 1584 2836 1778 
Q 2625 1972 2144 2069 
L 1759 2144 
Q 1053 2284 737 2584 
Q 422 2884 422 3419 
Q 422 4038 858 4394 
Q 1294 4750 2059 4750 
Q 2388 4750 2728 4690 
Q 3069 4631 3425 4513 
z
" transform="scale(0.015625)"/>
       </defs>
       <use xlink:href="#DejaVuSans-32"/>
       <use xlink:href="#DejaVuSans-34" x="63.623047"/>
       <use xlink:href="#DejaVuSans-68" x="127.246094"/>
       <use xlink:href="#DejaVuSans-20" x="190.625"/>
       <use xlink:href="#DejaVuSans-34" x="222.412109"/>
       <use xlink:href="#DejaVuSans-ba" x="286.035156"/>
       <use xlink:href="#DejaVuSans-43" x="333.154297"/>
       <use xlink:href="#DejaVuSans-20" x="402.978516"/>
       <use xlink:href="#DejaVuSans-2b" x="434.765625"/>
       <use xlink:href="#DejaVuSans-50" x="518.554688"/>
       <use xlink:href="#DejaVuSans-42" x="578.857422"/>
       <use xlink:href="#DejaVuSans-53" x="645.710938"/>
      </g>
     </g>
    </g>
    <g id="ytick_3">
     <g id="line2d_11">
      <g>
       <use xlink:href="#m375d510310" x="102.53" y="205.781687" style="stroke: #000000; stroke-width: 0.8"/>
      </g>
     </g>
     <g id="text_12">
      <!-- 72h 4C +PBS -->
      <g transform="translate(24.609688 209.580905) scale(0.1 -0.1)">
       <use xlink:href="#DejaVuSans-37"/>
       <use xlink:href="#DejaVuSans-32" x="63.623047"/>
       <use xlink:href="#DejaVuSans-68" x="127.246094"/>
       <use xlink:href="#DejaVuSans-20" x="190.625"/>
       <use xlink:href="#DejaVuSans-34" x="222.412109"/>
       <use xlink:href="#DejaVuSans-ba" x="286.035156"/>
       <use xlink:href="#DejaVuSans-43" x="333.154297"/>
       <use xlink:href="#DejaVuSans-20" x="402.978516"/>
       <use xlink:href="#DejaVuSans-2b" x="434.765625"/>
       <use xlink:href="#DejaVuSans-50" x="518.554688"/>
       <use xlink:href="#DejaVuSans-42" x="578.857422"/>
       <use xlink:href="#DejaVuSans-53" x="645.710938"/>
      </g>
     </g>
    </g>
    <g id="ytick_4">
     <g id="line2d_12">
      <g>
       <use xlink:href="#m375d510310" x="102.53" y="278.333012" style="stroke: #000000; stroke-width: 0.8"/>
      </g>
     </g>
     <g id="text_13">
      <!-- 24h 4C -PBS -->
      <g transform="translate(29.381563 282.132231) scale(0.1 -0.1)">
       <defs>
        <path id="DejaVuSans-2d" d="M 313 2009 
L 1997 2009 
L 1997 1497 
L 313 1497 
L 313 2009 
z
" transform="scale(0.015625)"/>
       </defs>
       <use xlink:href="#DejaVuSans-32"/>
       <use xlink:href="#DejaVuSans-34" x="63.623047"/>
       <use xlink:href="#DejaVuSans-68" x="127.246094"/>
       <use xlink:href="#DejaVuSans-20" x="190.625"/>
       <use xlink:href="#DejaVuSans-34" x="222.412109"/>
       <use xlink:href="#DejaVuSans-ba" x="286.035156"/>
       <use xlink:href="#DejaVuSans-43" x="333.154297"/>
       <use xlink:href="#DejaVuSans-20" x="402.978516"/>
       <use xlink:href="#DejaVuSans-2d" x="434.765625"/>
       <use xlink:href="#DejaVuSans-50" x="470.849609"/>
       <use xlink:href="#DejaVuSans-42" x="531.152344"/>
       <use xlink:href="#DejaVuSans-53" x="598.005859"/>
      </g>
     </g>
    </g>
    <g id="ytick_5">
     <g id="line2d_13">
      <g>
       <use xlink:href="#m375d510310" x="102.53" y="350.884337" style="stroke: #000000; stroke-width: 0.8"/>
      </g>
     </g>
     <g id="text_14">
      <!-- 72h 4C -PBS -->
      <g transform="translate(29.381563 354.683556) scale(0.1 -0.1)">
       <use xlink:href="#DejaVuSans-37"/>
       <use xlink:href="#DejaVuSans-32" x="63.623047"/>
       <use xlink:href="#DejaVuSans-68" x="127.246094"/>
       <use xlink:href="#DejaVuSans-20" x="190.625"/>
       <use xlink:href="#DejaVuSans-34" x="222.412109"/>
       <use xlink:href="#DejaVuSans-ba" x="286.035156"/>
       <use xlink:href="#DejaVuSans-43" x="333.154297"/>
       <use xlink:href="#DejaVuSans-20" x="402.978516"/>
       <use xlink:href="#DejaVuSans-2d" x="434.765625"/>
       <use xlink:href="#DejaVuSans-50" x="470.849609"/>
       <use xlink:href="#DejaVuSans-42" x="531.152344"/>
       <use xlink:href="#DejaVuSans-53" x="598.005859"/>
      </g>
     </g>
    </g>
    <g id="text_15">
     <!-- Condition -->
     <g transform="translate(18.53 222.840156) rotate(-90) scale(0.1 -0.1)">
      <defs>
       <path id="DejaVuSans-6f" d="M 1959 3097 
Q 1497 3097 1228 2736 
Q 959 2375 959 1747 
Q 959 1119 1226 758 
Q 1494 397 1959 397 
Q 2419 397 2687 759 
Q 2956 1122 2956 1747 
Q 2956 2369 2687 2733 
Q 2419 3097 1959 3097 
z
M 1959 3584 
Q 2709 3584 3137 3096 
Q 3566 2609 3566 1747 
Q 3566 888 3137 398 
Q 2709 -91 1959 -91 
Q 1206 -91 779 398 
Q 353 888 353 1747 
Q 353 2609 779 3096 
Q 1206 3584 1959 3584 
z
" transform="scale(0.015625)"/>
       <path id="DejaVuSans-64" d="M 2906 2969 
L 2906 4863 
L 3481 4863 
L 3481 0 
L 2906 0 
L 2906 525 
Q 2725 213 2448 61 
Q 2172 -91 1784 -91 
Q 1150 -91 751 415 
Q 353 922 353 1747 
Q 353 2572 751 3078 
Q 1150 3584 1784 3584 
Q 2172 3584 2448 3432 
Q 2725 3281 2906 2969 
z
M 947 1747 
Q 947 1113 1208 752 
Q 1469 391 1925 391 
Q 2381 391 2643 752 
Q 2906 1113 2906 1747 
Q 2906 2381 2643 2742 
Q 2381 3103 1925 3103 
Q 1469 3103 1208 2742 
Q 947 2381 947 1747 
z
" transform="scale(0.015625)"/>
       <path id="DejaVuSans-69" d="M 603 3500 
L 1178 3500 
L 1178 0 
L 603 0 
L 603 3500 
z
M 603 4863 
L 1178 4863 
L 1178 4134 
L 603 4134 
L 603 4863 
z
" transform="scale(0.015625)"/>
       <path id="DejaVuSans-74" d="M 1172 4494 
L 1172 3500 
L 2356 3500 
L 2356 3053 
L 1172 3053 
L 1172 1153 
Q 1172 725 1289 603 
Q 1406 481 1766 481 
L 2356 481 
L 2356 0 
L 1766 0 
Q 1100 0 847 248 
Q 594 497 594 1153 
L 594 3053 
L 172 3053 
L 172 3500 
L 594 3500 
L 594 4494 
L 1172 4494 
z
" transform="scale(0.015625)"/>
      </defs>
      <use xlink:href="#DejaVuSans-43"/>
      <use xlink:href="#DejaVuSans-6f" x="69.824219"/>
      <use xlink:href="#DejaVuSans-6e" x="131.005859"/>
      <use xlink:href="#DejaVuSans-64" x="194.384766"/>
      <use xlink:href="#DejaVuSans-69" x="257.861328"/>
      <use xlink:href="#DejaVuSans-74" x="285.644531"/>
      <use xlink:href="#DejaVuSans-69" x="324.853516"/>
      <use xlink:href="#DejaVuSans-6f" x="352.636719"/>
      <use xlink:href="#DejaVuSans-6e" x="413.818359"/>
     </g>
    </g>
   </g>
   <g id="line2d_14">
    <path d="M 372.634287 57.958361 
L 372.634287 63.399711 
" clip-path="url(#pbd032ac538)" style="fill: none; stroke: #434343; stroke-width: 1.5; stroke-linecap: square"/>
   </g>
   <g id="line2d_15">
    <path d="M 627.130315 57.958361 
L 627.130315 63.399711 
" clip-path="url(#pbd032ac538)" style="fill: none; stroke: #434343; stroke-width: 1.5; stroke-linecap: square"/>
   </g>
   <g id="line2d_16">
    <defs>
     <path id="m8bb585ee31" d="M -0 3.535534 
L 2.12132 0 
L -0 -3.535534 
L -2.12132 -0 
z
" style="stroke: #434343; stroke-linejoin: miter"/>
    </defs>
    <g clip-path="url(#pbd032ac538)">
     <use xlink:href="#m8bb585ee31" x="130.105909" y="60.679036" style="fill: #434343; stroke: #434343; stroke-linejoin: miter"/>
     <use xlink:href="#m8bb585ee31" x="638.484139" y="60.679036" style="fill: #434343; stroke: #434343; stroke-linejoin: miter"/>
     <use xlink:href="#m8bb585ee31" x="661.189078" y="60.679036" style="fill: #434343; stroke: #434343; stroke-linejoin: miter"/>
    </g>
   </g>
   <g id="line2d_17">
    <path d="M 362.150247 130.509687 
L 362.150247 135.951036 
" clip-path="url(#pbd032ac538)" style="fill: none; stroke: #434343; stroke-width: 1.5; stroke-linecap: square"/>
   </g>
   <g id="line2d_18">
    <path d="M 611.204113 130.509687 
L 611.204113 135.951036 
" clip-path="url(#pbd032ac538)" style="fill: none; stroke: #434343; stroke-width: 1.5; stroke-linecap: square"/>
   </g>
   <g id="line2d_19">
    <g clip-path="url(#pbd032ac538)">
     <use xlink:href="#m8bb585ee31" x="239.968383" y="133.230361" style="fill: #434343; stroke: #434343; stroke-linejoin: miter"/>
     <use xlink:href="#m8bb585ee31" x="278.696147" y="133.230361" style="fill: #434343; stroke: #434343; stroke-linejoin: miter"/>
     <use xlink:href="#m8bb585ee31" x="681.624091" y="133.230361" style="fill: #434343; stroke: #434343; stroke-linejoin: miter"/>
    </g>
   </g>
   <g id="line2d_20">
    <path d="M 338.562002 203.061012 
L 338.562002 208.502361 
" clip-path="url(#pbd032ac538)" style="fill: none; stroke: #434343; stroke-width: 1.5; stroke-linecap: square"/>
   </g>
   <g id="line2d_21">
    <path d="M 617.521403 203.061012 
L 617.521403 208.502361 
" clip-path="url(#pbd032ac538)" style="fill: none; stroke: #434343; stroke-width: 1.5; stroke-linecap: square"/>
   </g>
   <g id="line2d_22"/>
   <g id="line2d_23">
    <path d="M 367.054227 275.612337 
L 367.054227 281.053687 
" clip-path="url(#pbd032ac538)" style="fill: none; stroke: #434343; stroke-width: 1.5; stroke-linecap: square"/>
   </g>
   <g id="line2d_24">
    <path d="M 660.635188 275.612337 
L 660.635188 281.053687 
" clip-path="url(#pbd032ac538)" style="fill: none; stroke: #434343; stroke-width: 1.5; stroke-linecap: square"/>
   </g>
   <g id="line2d_25">
    <g clip-path="url(#pbd032ac538)">
     <use xlink:href="#m8bb585ee31" x="223.954501" y="278.333012" style="fill: #434343; stroke: #434343; stroke-linejoin: miter"/>
    </g>
   </g>
   <g id="line2d_26">
    <path d="M 332.072973 348.163663 
L 332.072973 353.605012 
" clip-path="url(#pbd032ac538)" style="fill: none; stroke: #434343; stroke-width: 1.5; stroke-linecap: square"/>
   </g>
   <g id="line2d_27">
    <path d="M 658.819801 348.163663 
L 658.819801 353.605012 
" clip-path="url(#pbd032ac538)" style="fill: none; stroke: #434343; stroke-width: 1.5; stroke-linecap: square"/>
   </g>
   <g id="line2d_28">
    <g clip-path="url(#pbd032ac538)">
     <use xlink:href="#m8bb585ee31" x="676.05678" y="350.884337" style="fill: #434343; stroke: #434343; stroke-linejoin: miter"/>
    </g>
   </g>
   <g id="line2d_29">
    <path d="M 486.702216 55.237687 
L 486.702216 66.120386 
" clip-path="url(#pbd032ac538)" style="fill: none; stroke: #434343; stroke-width: 1.5; stroke-linecap: square"/>
   </g>
   <g id="line2d_30">
    <path d="M 510.427311 127.789012 
L 510.427311 138.671711 
" clip-path="url(#pbd032ac538)" style="fill: none; stroke: #434343; stroke-width: 1.5; stroke-linecap: square"/>
   </g>
   <g id="line2d_31">
    <path d="M 481.995638 200.340337 
L 481.995638 211.223036 
" clip-path="url(#pbd032ac538)" style="fill: none; stroke: #434343; stroke-width: 1.5; stroke-linecap: square"/>
   </g>
   <g id="line2d_32">
    <path d="M 482.689505 272.891663 
L 482.689505 283.774361 
" clip-path="url(#pbd032ac538)" style="fill: none; stroke: #434343; stroke-width: 1.5; stroke-linecap: square"/>
   </g>
   <g id="line2d_33">
    <path d="M 497.783612 345.442988 
L 497.783612 356.325687 
" clip-path="url(#pbd032ac538)" style="fill: none; stroke: #434343; stroke-width: 1.5; stroke-linecap: square"/>
   </g>
   <g id="patch_3">
    <path d="M 102.53 387.16 
L 102.53 10.8 
" style="fill: none; stroke: #000000; stroke-width: 0.8; stroke-linejoin: miter; stroke-linecap: square"/>
   </g>
   <g id="patch_4">
    <path d="M 709.2 387.16 
L 709.2 10.8 
" style="fill: none; stroke: #000000; stroke-width: 0.8; stroke-linejoin: miter; stroke-linecap: square"/>
   </g>
   <g id="patch_5">
    <path d="M 102.53 387.16 
L 709.2 387.16 
" style="fill: none; stroke: #000000; stroke-width: 0.8; stroke-linejoin: miter; stroke-linecap: square"/>
   </g>
   <g id="patch_6">
    <path d="M 102.53 10.8 
L 709.2 10.8 
" style="fill: none; stroke: #000000; stroke-width: 0.8; stroke-linejoin: miter; stroke-linecap: square"/>
   </g>
   <g id="patch_7">
    <path d="M 436.735428 55.237687 
L 436.735428 66.120386 
L 514.78541 66.120386 
L 514.78541 55.237687 
L 436.735428 55.237687 
L 436.735428 55.237687 
z
" clip-path="url(#pbd032ac538)" style="fill: none; stroke: #434343; stroke-width: 1.5; stroke-linejoin: miter"/>
   </g>
   <g id="line2d_34">
    <path d="M 436.735428 60.679036 
L 372.634287 60.679036 
" clip-path="url(#pbd032ac538)" style="fill: none; stroke: #434343; stroke-width: 2; stroke-linecap: square"/>
   </g>
   <g id="line2d_35">
    <path d="M 514.78541 60.679036 
L 627.130315 60.679036 
" clip-path="url(#pbd032ac538)" style="fill: none; stroke: #434343; stroke-width: 2; stroke-linecap: square"/>
   </g>
   <g id="patch_8">
    <path d="M 461.615602 127.789012 
L 461.615602 138.671711 
L 533.160772 138.671711 
L 533.160772 127.789012 
L 461.615602 127.789012 
L 461.615602 127.789012 
z
" clip-path="url(#pbd032ac538)" style="fill: none; stroke: #434343; stroke-width: 1.5; stroke-linejoin: miter"/>
   </g>
   <g id="line2d_36">
    <path d="M 461.615602 133.230361 
L 362.150247 133.230361 
" clip-path="url(#pbd032ac538)" style="fill: none; stroke: #434343; stroke-width: 2; stroke-linecap: square"/>
   </g>
   <g id="line2d_37">
    <path d="M 533.160772 133.230361 
L 611.204113 133.230361 
" clip-path="url(#pbd032ac538)" style="fill: none; stroke: #434343; stroke-width: 2; stroke-linecap: square"/>
   </g>
   <g id="patch_9">
    <path d="M 447.16917 200.340337 
L 447.16917 211.223036 
L 535.55393 211.223036 
L 535.55393 200.340337 
L 447.16917 200.340337 
L 447.16917 200.340337 
z
" clip-path="url(#pbd032ac538)" style="fill: none; stroke: #434343; stroke-width: 1.5; stroke-linejoin: miter"/>
   </g>
   <g id="line2d_38">
    <path d="M 447.16917 205.781687 
L 338.562002 205.781687 
" clip-path="url(#pbd032ac538)" style="fill: none; stroke: #434343; stroke-width: 2; stroke-linecap: square"/>
   </g>
   <g id="line2d_39">
    <path d="M 535.55393 205.781687 
L 617.521403 205.781687 
" clip-path="url(#pbd032ac538)" style="fill: none; stroke: #434343; stroke-width: 2; stroke-linecap: square"/>
   </g>
   <g id="patch_10">
    <path d="M 449.108047 272.891663 
L 449.108047 283.774361 
L 534.777651 283.774361 
L 534.777651 272.891663 
L 449.108047 272.891663 
L 449.108047 272.891663 
z
" clip-path="url(#pbd032ac538)" style="fill: none; stroke: #434343; stroke-width: 1.5; stroke-linejoin: miter"/>
   </g>
   <g id="line2d_40">
    <path d="M 449.108047 278.333012 
L 367.054227 278.333012 
" clip-path="url(#pbd032ac538)" style="fill: none; stroke: #434343; stroke-width: 2; stroke-linecap: square"/>
   </g>
   <g id="line2d_41">
    <path d="M 534.777651 278.333012 
L 660.635188 278.333012 
" clip-path="url(#pbd032ac538)" style="fill: none; stroke: #434343; stroke-width: 2; stroke-linecap: square"/>
   </g>
   <g id="patch_11">
    <path d="M 457.286057 345.442988 
L 457.286057 356.325687 
L 544.365984 356.325687 
L 544.365984 345.442988 
L 457.286057 345.442988 
L 457.286057 345.442988 
z
" clip-path="url(#pbd032ac538)" style="fill: none; stroke: #434343; stroke-width: 1.5; stroke-linejoin: miter"/>
   </g>
   <g id="line2d_42">
    <path d="M 457.286057 350.884337 
L 332.072973 350.884337 
" clip-path="url(#pbd032ac538)" style="fill: none; stroke: #434343; stroke-width: 2; stroke-linecap: square"/>
   </g>
   <g id="line2d_43">
    <path d="M 544.365984 350.884337 
L 658.819801 350.884337 
" clip-path="url(#pbd032ac538)" style="fill: none; stroke: #434343; stroke-width: 2; stroke-linecap: square"/>
   </g>
  </g>
 </g>
 <defs>
  <clipPath id="pbd032ac538">
   <rect x="102.53" y="10.8" width="606.67" height="376.36"/>
  </clipPath>
 </defs>
</svg>
