<?xml version="1.0" encoding="utf-8" standalone="no"?>
<!DOCTYPE svg PUBLIC "-//W3C//DTD SVG 1.1//EN"
  "http://www.w3.org/Graphics/SVG/1.1/DTD/svg11.dtd">
<svg xmlns:xlink="http://www.w3.org/1999/xlink" width="720pt" height="432pt" viewBox="0 0 720 432" xmlns="http://www.w3.org/2000/svg" version="1.1">
 <metadata>
  <rdf:RDF xmlns:dc="http://purl.org/dc/elements/1.1/" xmlns:cc="http://creativecommons.org/ns#" xmlns:rdf="http://www.w3.org/1999/02/22-rdf-syntax-ns#">
   <cc:Work>
    <dc:type rdf:resource="http://purl.org/dc/dcmitype/StillImage"/>
    <dc:date>2024-09-30T14:00:20.477946</dc:date>
    <dc:format>image/svg+xml</dc:format>
    <dc:creator>
     <cc:Agent>
      <dc:title>Matplotlib v3.7.3, https://matplotlib.org/</dc:title>
     </cc:Agent>
    </dc:creator>
   </cc:Work>
  </rdf:RDF>
 </metadata>
 <defs>
  <style type="text/css">*{stroke-linejoin: round; stroke-linecap: butt}</style>
 </defs>
 <g id="figure_1">
  <g id="patch_1">
   <path d="M 0 432 
L 720 432 
L 720 0 
L 0 0 
z
" style="fill: #ffffff"/>
  </g>
  <g id="axes_1">
   <g id="patch_2">
    <path d="M 105.41 390.04 
L 709.2 390.04 
L 709.2 10.8 
L 105.41 10.8 
z
" style="fill: #ffffff"/>
   </g>
   <g id="PathCollection_1">
    <defs>
     <path id="C0_0_f95351e7cb" d="M 0 1.5 
C 0.397805 1.5 0.77937 1.341951 1.06066 1.06066 
C 1.341951 0.77937 1.5 0.397805 1.5 -0 
C 1.5 -0.397805 1.341951 -0.77937 1.06066 -1.06066 
C 0.77937 -1.341951 0.397805 -1.5 0 -1.5 
C -0.397805 -1.5 -0.77937 -1.341951 -1.06066 -1.06066 
C -1.341951 -0.77937 -1.5 -0.397805 -1.5 0 
C -1.5 0.397805 -1.341951 0.77937 -1.06066 1.06066 
C -0.77937 1.341951 -0.397805 1.5 0 1.5 
z
"/>
    </defs>
    <g clip-path="url(#p367a229939)">
     <use xlink:href="#C0_0_f95351e7cb" x="539.587043" y="56.493624" style="fill: #f77189"/>
    </g>
    <g clip-path="url(#p367a229939)">
     <use xlink:href="#C0_0_f95351e7cb" x="566.762496" y="57.606841" style="fill: #f77189"/>
    </g>
    <g clip-path="url(#p367a229939)">
     <use xlink:href="#C0_0_f95351e7cb" x="638.819844" y="63.648553" style="fill: #f77189"/>
    </g>
    <g clip-path="url(#p367a229939)">
     <use xlink:href="#C0_0_f95351e7cb" x="402.257362" y="67.392631" style="fill: #f77189"/>
    </g>
    <g clip-path="url(#p367a229939)">
     <use xlink:href="#C0_0_f95351e7cb" x="423.79611" y="67.029828" style="fill: #f77189"/>
    </g>
    <g clip-path="url(#p367a229939)">
     <use xlink:href="#C0_0_f95351e7cb" x="443.386259" y="66.836533" style="fill: #f77189"/>
    </g>
    <g clip-path="url(#p367a229939)">
     <use xlink:href="#C0_0_f95351e7cb" x="497.956382" y="53.938704" style="fill: #f77189"/>
    </g>
    <g clip-path="url(#p367a229939)">
     <use xlink:href="#C0_0_f95351e7cb" x="491.121706" y="53.886251" style="fill: #f77189"/>
    </g>
    <g clip-path="url(#p367a229939)">
     <use xlink:href="#C0_0_f95351e7cb" x="487.758463" y="60.876584" style="fill: #f77189"/>
    </g>
    <g clip-path="url(#p367a229939)">
     <use xlink:href="#C0_0_f95351e7cb" x="525.014962" y="55.172766" style="fill: #f77189"/>
    </g>
    <g clip-path="url(#p367a229939)">
     <use xlink:href="#C0_0_f95351e7cb" x="515.70834" y="58.763575" style="fill: #f77189"/>
    </g>
    <g clip-path="url(#p367a229939)">
     <use xlink:href="#C0_0_f95351e7cb" x="487.037452" y="63.103956" style="fill: #f77189"/>
    </g>
    <g clip-path="url(#p367a229939)">
     <use xlink:href="#C0_0_f95351e7cb" x="482.416357" y="67.915017" style="fill: #f77189"/>
    </g>
    <g clip-path="url(#p367a229939)">
     <use xlink:href="#C0_0_f95351e7cb" x="501.870535" y="58.765111" style="fill: #f77189"/>
    </g>
    <g clip-path="url(#p367a229939)">
     <use xlink:href="#C0_0_f95351e7cb" x="437.320936" y="59.257304" style="fill: #f77189"/>
    </g>
    <g clip-path="url(#p367a229939)">
     <use xlink:href="#C0_0_f95351e7cb" x="627.519918" y="59.249683" style="fill: #f77189"/>
    </g>
    <g clip-path="url(#p367a229939)">
     <use xlink:href="#C0_0_f95351e7cb" x="661.416997" y="58.650327" style="fill: #f77189"/>
    </g>
    <g clip-path="url(#p367a229939)">
     <use xlink:href="#C0_0_f95351e7cb" x="132.855" y="60.118019" style="fill: #f77189"/>
    </g>
    <g clip-path="url(#p367a229939)">
     <use xlink:href="#C0_0_f95351e7cb" x="482.654368" y="67.405062" style="fill: #f77189"/>
    </g>
    <g clip-path="url(#p367a229939)">
     <use xlink:href="#C0_0_f95351e7cb" x="438.02888" y="56.593743" style="fill: #f77189"/>
    </g>
    <g clip-path="url(#p367a229939)">
     <use xlink:href="#C0_0_f95351e7cb" x="389.924185" y="59.580807" style="fill: #f77189"/>
    </g>
    <g clip-path="url(#p367a229939)">
     <use xlink:href="#C0_0_f95351e7cb" x="406.12867" y="61.371591" style="fill: #f77189"/>
    </g>
    <g clip-path="url(#p367a229939)">
     <use xlink:href="#C0_0_f95351e7cb" x="374.232041" y="63.600892" style="fill: #f77189"/>
    </g>
    <g clip-path="url(#p367a229939)">
     <use xlink:href="#C0_0_f95351e7cb" x="539.079336" y="57.114304" style="fill: #f77189"/>
    </g>
    <g clip-path="url(#p367a229939)">
     <use xlink:href="#C0_0_f95351e7cb" x="493.558313" y="64.566114" style="fill: #f77189"/>
    </g>
    <g clip-path="url(#p367a229939)">
     <use xlink:href="#C0_0_f95351e7cb" x="493.356034" y="59.527619" style="fill: #f77189"/>
    </g>
    <g clip-path="url(#p367a229939)">
     <use xlink:href="#C0_0_f95351e7cb" x="484.847866" y="55.00259" style="fill: #f77189"/>
    </g>
    <g clip-path="url(#p367a229939)">
     <use xlink:href="#C0_0_f95351e7cb" x="490.052722" y="65.570022" style="fill: #f77189"/>
    </g>
    <g clip-path="url(#p367a229939)">
     <use xlink:href="#C0_0_f95351e7cb" x="483.853982" y="56.499373" style="fill: #f77189"/>
    </g>
   </g>
   <g id="PathCollection_2">
    <defs>
     <path id="C1_0_c96bfb05cf" d="M 0 1.5 
C 0.397805 1.5 0.77937 1.341951 1.06066 1.06066 
C 1.341951 0.77937 1.5 0.397805 1.5 -0 
C 1.5 -0.397805 1.341951 -0.77937 1.06066 -1.06066 
C 0.77937 -1.341951 0.397805 -1.5 0 -1.5 
C -0.397805 -1.5 -0.77937 -1.341951 -1.06066 -1.06066 
C -1.341951 -0.77937 -1.5 -0.397805 -1.5 0 
C -1.5 0.397805 -1.341951 0.77937 -1.06066 1.06066 
C -0.77937 1.341951 -0.397805 1.5 0 1.5 
z
"/>
    </defs>
    <g clip-path="url(#p367a229939)">
     <use xlink:href="#C1_0_c96bfb05cf" x="584.918421" y="134.137265" style="fill: #ae9d31"/>
    </g>
    <g clip-path="url(#p367a229939)">
     <use xlink:href="#C1_0_c96bfb05cf" x="580.870855" y="134.241059" style="fill: #ae9d31"/>
    </g>
    <g clip-path="url(#p367a229939)">
     <use xlink:href="#C1_0_c96bfb05cf" x="557.235165" y="133.559499" style="fill: #ae9d31"/>
    </g>
    <g clip-path="url(#p367a229939)">
     <use xlink:href="#C1_0_c96bfb05cf" x="408.282779" y="127.917784" style="fill: #ae9d31"/>
    </g>
    <g clip-path="url(#p367a229939)">
     <use xlink:href="#C1_0_c96bfb05cf" x="418.763121" y="133.7258" style="fill: #ae9d31"/>
    </g>
    <g clip-path="url(#p367a229939)">
     <use xlink:href="#C1_0_c96bfb05cf" x="389.572698" y="139.934159" style="fill: #ae9d31"/>
    </g>
    <g clip-path="url(#p367a229939)">
     <use xlink:href="#C1_0_c96bfb05cf" x="513.045582" y="128.330077" style="fill: #ae9d31"/>
    </g>
    <g clip-path="url(#p367a229939)">
     <use xlink:href="#C1_0_c96bfb05cf" x="462.790941" y="134.302826" style="fill: #ae9d31"/>
    </g>
    <g clip-path="url(#p367a229939)">
     <use xlink:href="#C1_0_c96bfb05cf" x="531.53663" y="129.153604" style="fill: #ae9d31"/>
    </g>
    <g clip-path="url(#p367a229939)">
     <use xlink:href="#C1_0_c96bfb05cf" x="533.99647" y="128.434175" style="fill: #ae9d31"/>
    </g>
    <g clip-path="url(#p367a229939)">
     <use xlink:href="#C1_0_c96bfb05cf" x="524.36593" y="130.634682" style="fill: #ae9d31"/>
    </g>
    <g clip-path="url(#p367a229939)">
     <use xlink:href="#C1_0_c96bfb05cf" x="546.911546" y="132.273171" style="fill: #ae9d31"/>
    </g>
    <g clip-path="url(#p367a229939)">
     <use xlink:href="#C1_0_c96bfb05cf" x="518.526607" y="140.235295" style="fill: #ae9d31"/>
    </g>
    <g clip-path="url(#p367a229939)">
     <use xlink:href="#C1_0_c96bfb05cf" x="511.37093" y="140.398675" style="fill: #ae9d31"/>
    </g>
    <g clip-path="url(#p367a229939)">
     <use xlink:href="#C1_0_c96bfb05cf" x="503.685819" y="135.664523" style="fill: #ae9d31"/>
    </g>
    <g clip-path="url(#p367a229939)">
     <use xlink:href="#C1_0_c96bfb05cf" x="611.669322" y="133.885962" style="fill: #ae9d31"/>
    </g>
    <g clip-path="url(#p367a229939)">
     <use xlink:href="#C1_0_c96bfb05cf" x="681.755" y="132.610954" style="fill: #ae9d31"/>
    </g>
    <g clip-path="url(#p367a229939)">
     <use xlink:href="#C1_0_c96bfb05cf" x="491.068884" y="128.1687" style="fill: #ae9d31"/>
    </g>
    <g clip-path="url(#p367a229939)">
     <use xlink:href="#C1_0_c96bfb05cf" x="459.206918" y="136.225051" style="fill: #ae9d31"/>
    </g>
    <g clip-path="url(#p367a229939)">
     <use xlink:href="#C1_0_c96bfb05cf" x="513.882576" y="139.39521" style="fill: #ae9d31"/>
    </g>
    <g clip-path="url(#p367a229939)">
     <use xlink:href="#C1_0_c96bfb05cf" x="242.195932" y="137.140936" style="fill: #ae9d31"/>
    </g>
    <g clip-path="url(#p367a229939)">
     <use xlink:href="#C1_0_c96bfb05cf" x="280.739846" y="136.231315" style="fill: #ae9d31"/>
    </g>
    <g clip-path="url(#p367a229939)">
     <use xlink:href="#C1_0_c96bfb05cf" x="363.797771" y="140.754298" style="fill: #ae9d31"/>
    </g>
    <g clip-path="url(#p367a229939)">
     <use xlink:href="#C1_0_c96bfb05cf" x="515.738869" y="134.612808" style="fill: #ae9d31"/>
    </g>
    <g clip-path="url(#p367a229939)">
     <use xlink:href="#C1_0_c96bfb05cf" x="506.393688" y="127.805393" style="fill: #ae9d31"/>
    </g>
    <g clip-path="url(#p367a229939)">
     <use xlink:href="#C1_0_c96bfb05cf" x="509.363846" y="132.719891" style="fill: #ae9d31"/>
    </g>
    <g clip-path="url(#p367a229939)">
     <use xlink:href="#C1_0_c96bfb05cf" x="486.059512" y="131.283881" style="fill: #ae9d31"/>
    </g>
    <g clip-path="url(#p367a229939)">
     <use xlink:href="#C1_0_c96bfb05cf" x="571.001351" y="130.573242" style="fill: #ae9d31"/>
    </g>
    <g clip-path="url(#p367a229939)">
     <use xlink:href="#C1_0_c96bfb05cf" x="492.957122" y="128.485343" style="fill: #ae9d31"/>
    </g>
   </g>
   <g id="PathCollection_3">
    <defs>
     <path id="C2_0_65a2abae38" d="M 0 1.5 
C 0.397805 1.5 0.77937 1.341951 1.06066 1.06066 
C 1.341951 0.77937 1.5 0.397805 1.5 -0 
C 1.5 -0.397805 1.341951 -0.77937 1.06066 -1.06066 
C 0.77937 -1.341951 0.397805 -1.5 0 -1.5 
C -0.397805 -1.5 -0.77937 -1.341951 -1.06066 -1.06066 
C -1.341951 -0.77937 -1.5 -0.397805 -1.5 0 
C -1.5 0.397805 -1.341951 0.77937 -1.06066 1.06066 
C -0.77937 1.341951 -0.397805 1.5 0 1.5 
z
"/>
    </defs>
    <g clip-path="url(#p367a229939)">
     <use xlink:href="#C2_0_65a2abae38" x="576.079235" y="207.601198" style="fill: #33b07a"/>
    </g>
    <g clip-path="url(#p367a229939)">
     <use xlink:href="#C2_0_65a2abae38" x="528.429435" y="200.34307" style="fill: #33b07a"/>
    </g>
    <g clip-path="url(#p367a229939)">
     <use xlink:href="#C2_0_65a2abae38" x="552.74558" y="200.122454" style="fill: #33b07a"/>
    </g>
    <g clip-path="url(#p367a229939)">
     <use xlink:href="#C2_0_65a2abae38" x="384.26656" y="207.609861" style="fill: #33b07a"/>
    </g>
    <g clip-path="url(#p367a229939)">
     <use xlink:href="#C2_0_65a2abae38" x="445.175753" y="201.359672" style="fill: #33b07a"/>
    </g>
    <g clip-path="url(#p367a229939)">
     <use xlink:href="#C2_0_65a2abae38" x="427.494061" y="205.818534" style="fill: #33b07a"/>
    </g>
    <g clip-path="url(#p367a229939)">
     <use xlink:href="#C2_0_65a2abae38" x="539.027878" y="207.940329" style="fill: #33b07a"/>
    </g>
    <g clip-path="url(#p367a229939)">
     <use xlink:href="#C2_0_65a2abae38" x="490.506429" y="207.506227" style="fill: #33b07a"/>
    </g>
    <g clip-path="url(#p367a229939)">
     <use xlink:href="#C2_0_65a2abae38" x="496.252025" y="205.42905" style="fill: #33b07a"/>
    </g>
    <g clip-path="url(#p367a229939)">
     <use xlink:href="#C2_0_65a2abae38" x="564.709555" y="205.563721" style="fill: #33b07a"/>
    </g>
    <g clip-path="url(#p367a229939)">
     <use xlink:href="#C2_0_65a2abae38" x="547.143231" y="205.242984" style="fill: #33b07a"/>
    </g>
    <g clip-path="url(#p367a229939)">
     <use xlink:href="#C2_0_65a2abae38" x="526.786853" y="213.289859" style="fill: #33b07a"/>
    </g>
    <g clip-path="url(#p367a229939)">
     <use xlink:href="#C2_0_65a2abae38" x="440.138816" y="214.065683" style="fill: #33b07a"/>
    </g>
    <g clip-path="url(#p367a229939)">
     <use xlink:href="#C2_0_65a2abae38" x="479.411273" y="214.18706" style="fill: #33b07a"/>
    </g>
    <g clip-path="url(#p367a229939)">
     <use xlink:href="#C2_0_65a2abae38" x="475.746159" y="210.498859" style="fill: #33b07a"/>
    </g>
    <g clip-path="url(#p367a229939)">
     <use xlink:href="#C2_0_65a2abae38" x="617.956622" y="204.335604" style="fill: #33b07a"/>
    </g>
    <g clip-path="url(#p367a229939)">
     <use xlink:href="#C2_0_65a2abae38" x="600.701829" y="208.601479" style="fill: #33b07a"/>
    </g>
    <g clip-path="url(#p367a229939)">
     <use xlink:href="#C2_0_65a2abae38" x="595.372599" y="208.9379" style="fill: #33b07a"/>
    </g>
    <g clip-path="url(#p367a229939)">
     <use xlink:href="#C2_0_65a2abae38" x="495.581282" y="203.895253" style="fill: #33b07a"/>
    </g>
    <g clip-path="url(#p367a229939)">
     <use xlink:href="#C2_0_65a2abae38" x="471.815105" y="208.216334" style="fill: #33b07a"/>
    </g>
    <g clip-path="url(#p367a229939)">
     <use xlink:href="#C2_0_65a2abae38" x="446.393352" y="202.22384" style="fill: #33b07a"/>
    </g>
    <g clip-path="url(#p367a229939)">
     <use xlink:href="#C2_0_65a2abae38" x="340.321504" y="200.533715" style="fill: #33b07a"/>
    </g>
    <g clip-path="url(#p367a229939)">
     <use xlink:href="#C2_0_65a2abae38" x="361.435333" y="214.542721" style="fill: #33b07a"/>
    </g>
    <g clip-path="url(#p367a229939)">
     <use xlink:href="#C2_0_65a2abae38" x="348.689311" y="212.209051" style="fill: #33b07a"/>
    </g>
    <g clip-path="url(#p367a229939)">
     <use xlink:href="#C2_0_65a2abae38" x="486.737184" y="213.51339" style="fill: #33b07a"/>
    </g>
    <g clip-path="url(#p367a229939)">
     <use xlink:href="#C2_0_65a2abae38" x="512.688821" y="210.415622" style="fill: #33b07a"/>
    </g>
    <g clip-path="url(#p367a229939)">
     <use xlink:href="#C2_0_65a2abae38" x="476.462756" y="214.265231" style="fill: #33b07a"/>
    </g>
    <g clip-path="url(#p367a229939)">
     <use xlink:href="#C2_0_65a2abae38" x="454.472303" y="202.530002" style="fill: #33b07a"/>
    </g>
    <g clip-path="url(#p367a229939)">
     <use xlink:href="#C2_0_65a2abae38" x="464.718106" y="201.846674" style="fill: #33b07a"/>
    </g>
    <g clip-path="url(#p367a229939)">
     <use xlink:href="#C2_0_65a2abae38" x="475.7471" y="212.823872" style="fill: #33b07a"/>
    </g>
   </g>
   <g id="PathCollection_4">
    <defs>
     <path id="C3_0_70610af474" d="M 0 1.5 
C 0.397805 1.5 0.77937 1.341951 1.06066 1.06066 
C 1.341951 0.77937 1.5 0.397805 1.5 -0 
C 1.5 -0.397805 1.341951 -0.77937 1.06066 -1.06066 
C 0.77937 -1.341951 0.397805 -1.5 0 -1.5 
C -0.397805 -1.5 -0.77937 -1.341951 -1.06066 -1.06066 
C -1.341951 -0.77937 -1.5 -0.397805 -1.5 0 
C -1.5 0.397805 -1.341951 0.77937 -1.06066 1.06066 
C -0.77937 1.341951 -0.397805 1.5 0 1.5 
z
"/>
    </defs>
    <g clip-path="url(#p367a229939)">
     <use xlink:href="#C3_0_70610af474" x="555.452314" y="276.269019" style="fill: #38a9c5"/>
    </g>
    <g clip-path="url(#p367a229939)">
     <use xlink:href="#C3_0_70610af474" x="536.54694" y="280.448072" style="fill: #38a9c5"/>
    </g>
    <g clip-path="url(#p367a229939)">
     <use xlink:href="#C3_0_70610af474" x="563.264005" y="285.89446" style="fill: #38a9c5"/>
    </g>
    <g clip-path="url(#p367a229939)">
     <use xlink:href="#C3_0_70610af474" x="445.553656" y="286.730598" style="fill: #38a9c5"/>
    </g>
    <g clip-path="url(#p367a229939)">
     <use xlink:href="#C3_0_70610af474" x="440.079042" y="285.465967" style="fill: #38a9c5"/>
    </g>
    <g clip-path="url(#p367a229939)">
     <use xlink:href="#C3_0_70610af474" x="429.610345" y="273.177134" style="fill: #38a9c5"/>
    </g>
    <g clip-path="url(#p367a229939)">
     <use xlink:href="#C3_0_70610af474" x="471.752108" y="275.63981" style="fill: #38a9c5"/>
    </g>
    <g clip-path="url(#p367a229939)">
     <use xlink:href="#C3_0_70610af474" x="464.710079" y="276.714265" style="fill: #38a9c5"/>
    </g>
    <g clip-path="url(#p367a229939)">
     <use xlink:href="#C3_0_70610af474" x="512.204444" y="285.351817" style="fill: #38a9c5"/>
    </g>
    <g clip-path="url(#p367a229939)">
     <use xlink:href="#C3_0_70610af474" x="503.247462" y="285.439599" style="fill: #38a9c5"/>
    </g>
    <g clip-path="url(#p367a229939)">
     <use xlink:href="#C3_0_70610af474" x="532.781875" y="276.454327" style="fill: #38a9c5"/>
    </g>
    <g clip-path="url(#p367a229939)">
     <use xlink:href="#C3_0_70610af474" x="581.696861" y="277.606149" style="fill: #38a9c5"/>
    </g>
    <g clip-path="url(#p367a229939)">
     <use xlink:href="#C3_0_70610af474" x="509.341308" y="276.889411" style="fill: #38a9c5"/>
    </g>
    <g clip-path="url(#p367a229939)">
     <use xlink:href="#C3_0_70610af474" x="466.146387" y="282.785429" style="fill: #38a9c5"/>
    </g>
    <g clip-path="url(#p367a229939)">
     <use xlink:href="#C3_0_70610af474" x="482.929601" y="273.898176" style="fill: #38a9c5"/>
    </g>
    <g clip-path="url(#p367a229939)">
     <use xlink:href="#C3_0_70610af474" x="636.908758" y="276.010975" style="fill: #38a9c5"/>
    </g>
    <g clip-path="url(#p367a229939)">
     <use xlink:href="#C3_0_70610af474" x="608.565553" y="279.554803" style="fill: #38a9c5"/>
    </g>
    <g clip-path="url(#p367a229939)">
     <use xlink:href="#C3_0_70610af474" x="660.865736" y="281.591058" style="fill: #38a9c5"/>
    </g>
    <g clip-path="url(#p367a229939)">
     <use xlink:href="#C3_0_70610af474" x="465.372826" y="280.73267" style="fill: #38a9c5"/>
    </g>
    <g clip-path="url(#p367a229939)">
     <use xlink:href="#C3_0_70610af474" x="427.100157" y="281.832107" style="fill: #38a9c5"/>
    </g>
    <g clip-path="url(#p367a229939)">
     <use xlink:href="#C3_0_70610af474" x="472.457814" y="280.14909" style="fill: #38a9c5"/>
    </g>
    <g clip-path="url(#p367a229939)">
     <use xlink:href="#C3_0_70610af474" x="378.69712" y="277.800477" style="fill: #38a9c5"/>
    </g>
    <g clip-path="url(#p367a229939)">
     <use xlink:href="#C3_0_70610af474" x="368.67847" y="278.79196" style="fill: #38a9c5"/>
    </g>
    <g clip-path="url(#p367a229939)">
     <use xlink:href="#C3_0_70610af474" x="226.258071" y="282.863308" style="fill: #38a9c5"/>
    </g>
    <g clip-path="url(#p367a229939)">
     <use xlink:href="#C3_0_70610af474" x="440.724547" y="281.961739" style="fill: #38a9c5"/>
    </g>
    <g clip-path="url(#p367a229939)">
     <use xlink:href="#C3_0_70610af474" x="465.677821" y="283.168049" style="fill: #38a9c5"/>
    </g>
    <g clip-path="url(#p367a229939)">
     <use xlink:href="#C3_0_70610af474" x="484.600002" y="282.025054" style="fill: #38a9c5"/>
    </g>
    <g clip-path="url(#p367a229939)">
     <use xlink:href="#C3_0_70610af474" x="501.101875" y="276.601054" style="fill: #38a9c5"/>
    </g>
    <g clip-path="url(#p367a229939)">
     <use xlink:href="#C3_0_70610af474" x="490.514315" y="273.706351" style="fill: #38a9c5"/>
    </g>
    <g clip-path="url(#p367a229939)">
     <use xlink:href="#C3_0_70610af474" x="552.463026" y="278.12533" style="fill: #38a9c5"/>
    </g>
   </g>
   <g id="PathCollection_5">
    <defs>
     <path id="C4_0_5dbc3af0fd" d="M 0 1.5 
C 0.397805 1.5 0.77937 1.341951 1.06066 1.06066 
C 1.341951 0.77937 1.5 0.397805 1.5 -0 
C 1.5 -0.397805 1.341951 -0.77937 1.06066 -1.06066 
C 0.77937 -1.341951 0.397805 -1.5 0 -1.5 
C -0.397805 -1.5 -0.77937 -1.341951 -1.06066 -1.06066 
C -1.341951 -0.77937 -1.5 -0.397805 -1.5 0 
C -1.5 0.397805 -1.341951 0.77937 -1.06066 1.06066 
C -0.77937 1.341951 -0.397805 1.5 0 1.5 
z
"/>
    </defs>
    <g clip-path="url(#p367a229939)">
     <use xlink:href="#C4_0_5dbc3af0fd" x="585.143345" y="359.486829" style="fill: #cc7af4"/>
    </g>
    <g clip-path="url(#p367a229939)">
     <use xlink:href="#C4_0_5dbc3af0fd" x="568.471217" y="354.340625" style="fill: #cc7af4"/>
    </g>
    <g clip-path="url(#p367a229939)">
     <use xlink:href="#C4_0_5dbc3af0fd" x="591.339555" y="357.675171" style="fill: #cc7af4"/>
    </g>
    <g clip-path="url(#p367a229939)">
     <use xlink:href="#C4_0_5dbc3af0fd" x="425.299616" y="360.127589" style="fill: #cc7af4"/>
    </g>
    <g clip-path="url(#p367a229939)">
     <use xlink:href="#C4_0_5dbc3af0fd" x="468.700678" y="348.211326" style="fill: #cc7af4"/>
    </g>
    <g clip-path="url(#p367a229939)">
     <use xlink:href="#C4_0_5dbc3af0fd" x="390.230627" y="348.512309" style="fill: #cc7af4"/>
    </g>
    <g clip-path="url(#p367a229939)">
     <use xlink:href="#C4_0_5dbc3af0fd" x="502.677806" y="356.94363" style="fill: #cc7af4"/>
    </g>
    <g clip-path="url(#p367a229939)">
     <use xlink:href="#C4_0_5dbc3af0fd" x="478.371446" y="347.942458" style="fill: #cc7af4"/>
    </g>
    <g clip-path="url(#p367a229939)">
     <use xlink:href="#C4_0_5dbc3af0fd" x="467.51759" y="355.49085" style="fill: #cc7af4"/>
    </g>
    <g clip-path="url(#p367a229939)">
     <use xlink:href="#C4_0_5dbc3af0fd" x="540.174727" y="348.838872" style="fill: #cc7af4"/>
    </g>
    <g clip-path="url(#p367a229939)">
     <use xlink:href="#C4_0_5dbc3af0fd" x="546.806408" y="359.797942" style="fill: #cc7af4"/>
    </g>
    <g clip-path="url(#p367a229939)">
     <use xlink:href="#C4_0_5dbc3af0fd" x="557.304232" y="349.641394" style="fill: #cc7af4"/>
    </g>
    <g clip-path="url(#p367a229939)">
     <use xlink:href="#C4_0_5dbc3af0fd" x="411.13143" y="351.013646" style="fill: #cc7af4"/>
    </g>
    <g clip-path="url(#p367a229939)">
     <use xlink:href="#C4_0_5dbc3af0fd" x="455.470069" y="356.533525" style="fill: #cc7af4"/>
    </g>
    <g clip-path="url(#p367a229939)">
     <use xlink:href="#C4_0_5dbc3af0fd" x="470.274871" y="347.543369" style="fill: #cc7af4"/>
    </g>
    <g clip-path="url(#p367a229939)">
     <use xlink:href="#C4_0_5dbc3af0fd" x="676.214118" y="350.740404" style="fill: #cc7af4"/>
    </g>
    <g clip-path="url(#p367a229939)">
     <use xlink:href="#C4_0_5dbc3af0fd" x="614.533679" y="355.604436" style="fill: #cc7af4"/>
    </g>
    <g clip-path="url(#p367a229939)">
     <use xlink:href="#C4_0_5dbc3af0fd" x="659.058968" y="352.630082" style="fill: #cc7af4"/>
    </g>
    <g clip-path="url(#p367a229939)">
     <use xlink:href="#C4_0_5dbc3af0fd" x="487.96417" y="348.265965" style="fill: #cc7af4"/>
    </g>
    <g clip-path="url(#p367a229939)">
     <use xlink:href="#C4_0_5dbc3af0fd" x="517.055493" y="348.226899" style="fill: #cc7af4"/>
    </g>
    <g clip-path="url(#p367a229939)">
     <use xlink:href="#C4_0_5dbc3af0fd" x="403.88051" y="348.206159" style="fill: #cc7af4"/>
    </g>
    <g clip-path="url(#p367a229939)">
     <use xlink:href="#C4_0_5dbc3af0fd" x="333.86328" y="350.560814" style="fill: #cc7af4"/>
    </g>
    <g clip-path="url(#p367a229939)">
     <use xlink:href="#C4_0_5dbc3af0fd" x="365.22438" y="350.203296" style="fill: #cc7af4"/>
    </g>
    <g clip-path="url(#p367a229939)">
     <use xlink:href="#C4_0_5dbc3af0fd" x="379.4423" y="349.493674" style="fill: #cc7af4"/>
    </g>
    <g clip-path="url(#p367a229939)">
     <use xlink:href="#C4_0_5dbc3af0fd" x="501.600064" y="352.137899" style="fill: #cc7af4"/>
    </g>
    <g clip-path="url(#p367a229939)">
     <use xlink:href="#C4_0_5dbc3af0fd" x="518.610496" y="348.991635" style="fill: #cc7af4"/>
    </g>
    <g clip-path="url(#p367a229939)">
     <use xlink:href="#C4_0_5dbc3af0fd" x="477.478014" y="359.498343" style="fill: #cc7af4"/>
    </g>
    <g clip-path="url(#p367a229939)">
     <use xlink:href="#C4_0_5dbc3af0fd" x="531.923022" y="348.87458" style="fill: #cc7af4"/>
    </g>
    <g clip-path="url(#p367a229939)">
     <use xlink:href="#C4_0_5dbc3af0fd" x="516.0701" y="349.794028" style="fill: #cc7af4"/>
    </g>
    <g clip-path="url(#p367a229939)">
     <use xlink:href="#C4_0_5dbc3af0fd" x="495.974443" y="357.225571" style="fill: #cc7af4"/>
    </g>
   </g>
   <g id="PolyCollection_1">
    <defs>
     <path id="m9b130cde14" d="M 132.855 -385.560578 
L 132.855 -387.350419 
L 138.19401 -387.282707 
L 143.53302 -387.094558 
L 148.87203 -386.825538 
L 154.21104 -386.526265 
L 159.55005 -386.243072 
L 164.88906 -386.007121 
L 170.22807 -385.831056 
L 175.567081 -385.712249 
L 180.906091 -385.639315 
L 186.245101 -385.598418 
L 191.584111 -385.577414 
L 196.923121 -385.567513 
L 202.262131 -385.563223 
L 207.601141 -385.561512 
L 212.940151 -385.560883 
L 218.279161 -385.560671 
L 223.618171 -385.560604 
L 228.957181 -385.560585 
L 234.296191 -385.56058 
L 239.635201 -385.560579 
L 244.974211 -385.560578 
L 250.313221 -385.560578 
L 255.652232 -385.560578 
L 260.991242 -385.560578 
L 266.330252 -385.560579 
L 271.669262 -385.56058 
L 277.008272 -385.560583 
L 282.347282 -385.560598 
L 287.686292 -385.560651 
L 293.025302 -385.560823 
L 298.364312 -385.561343 
L 303.703322 -385.562798 
L 309.042332 -385.566553 
L 314.381342 -385.575508 
L 319.720352 -385.59523 
L 325.059362 -385.635363 
L 330.398373 -385.710837 
L 335.737383 -385.842085 
L 341.076393 -386.053325 
L 346.415403 -386.368411 
L 351.754413 -386.804794 
L 357.093423 -387.367343 
L 362.432433 -388.044369 
L 367.771443 -388.807477 
L 373.110453 -389.6153 
L 378.449463 -390.419728 
L 383.788473 -391.173123 
L 389.127483 -391.835807 
L 394.466493 -392.383451 
L 399.805503 -392.812617 
L 405.144513 -393.140783 
L 410.483524 -393.39743 
L 415.822534 -393.607299 
L 421.161544 -393.774128 
L 426.500554 -393.877571 
L 431.839564 -393.892433 
L 437.178574 -393.827137 
L 442.517584 -393.763523 
L 447.856594 -393.871955 
L 453.195604 -394.381266 
L 458.534614 -395.50214 
L 463.873624 -397.327407 
L 469.212634 -399.751211 
L 474.551644 -402.450002 
L 479.890654 -404.94733 
L 485.229664 -406.748045 
L 490.568675 -407.49253 
L 495.907685 -407.067646 
L 501.246695 -405.628329 
L 506.585705 -403.52473 
L 511.924715 -401.172185 
L 517.263725 -398.922261 
L 522.602735 -396.983796 
L 527.941745 -395.412297 
L 533.280755 -394.153466 
L 538.619765 -393.108078 
L 543.958775 -392.186196 
L 549.297785 -391.333367 
L 554.636795 -390.529679 
L 559.975805 -389.77479 
L 565.314815 -389.073946 
L 570.653826 -388.433249 
L 575.992836 -387.863212 
L 581.331846 -387.384021 
L 586.670856 -387.026248 
L 592.009866 -386.824904 
L 597.348876 -386.80882 
L 602.687886 -386.989077 
L 608.026896 -387.35007 
L 613.365906 -387.846156 
L 618.704916 -388.406045 
L 624.043926 -388.945313 
L 629.382936 -389.384203 
L 634.721946 -389.664727 
L 640.060956 -389.760412 
L 645.399967 -389.675331 
L 650.738977 -389.434615 
L 656.077987 -389.07273 
L 661.416997 -388.625585 
L 661.416997 -385.560578 
L 661.416997 -385.560578 
L 656.077987 -385.560578 
L 650.738977 -385.560578 
L 645.399967 -385.560578 
L 640.060956 -385.560578 
L 634.721946 -385.560578 
L 629.382936 -385.560578 
L 624.043926 -385.560578 
L 618.704916 -385.560578 
L 613.365906 -385.560578 
L 608.026896 -385.560578 
L 602.687886 -385.560578 
L 597.348876 -385.560578 
L 592.009866 -385.560578 
L 586.670856 -385.560578 
L 581.331846 -385.560578 
L 575.992836 -385.560578 
L 570.653826 -385.560578 
L 565.314815 -385.560578 
L 559.975805 -385.560578 
L 554.636795 -385.560578 
L 549.297785 -385.560578 
L 543.958775 -385.560578 
L 538.619765 -385.560578 
L 533.280755 -385.560578 
L 527.941745 -385.560578 
L 522.602735 -385.560578 
L 517.263725 -385.560578 
L 511.924715 -385.560578 
L 506.585705 -385.560578 
L 501.246695 -385.560578 
L 495.907685 -385.560578 
L 490.568675 -385.560578 
L 485.229664 -385.560578 
L 479.890654 -385.560578 
L 474.551644 -385.560578 
L 469.212634 -385.560578 
L 463.873624 -385.560578 
L 458.534614 -385.560578 
L 453.195604 -385.560578 
L 447.856594 -385.560578 
L 442.517584 -385.560578 
L 437.178574 -385.560578 
L 431.839564 -385.560578 
L 426.500554 -385.560578 
L 421.161544 -385.560578 
L 415.822534 -385.560578 
L 410.483524 -385.560578 
L 405.144513 -385.560578 
L 399.805503 -385.560578 
L 394.466493 -385.560578 
L 389.127483 -385.560578 
L 383.788473 -385.560578 
L 378.449463 -385.560578 
L 373.110453 -385.560578 
L 367.771443 -385.560578 
L 362.432433 -385.560578 
L 357.093423 -385.560578 
L 351.754413 -385.560578 
L 346.415403 -385.560578 
L 341.076393 -385.560578 
L 335.737383 -385.560578 
L 330.398373 -385.560578 
L 325.059362 -385.560578 
L 319.720352 -385.560578 
L 314.381342 -385.560578 
L 309.042332 -385.560578 
L 303.703322 -385.560578 
L 298.364312 -385.560578 
L 293.025302 -385.560578 
L 287.686292 -385.560578 
L 282.347282 -385.560578 
L 277.008272 -385.560578 
L 271.669262 -385.560578 
L 266.330252 -385.560578 
L 260.991242 -385.560578 
L 255.652232 -385.560578 
L 250.313221 -385.560578 
L 244.974211 -385.560578 
L 239.635201 -385.560578 
L 234.296191 -385.560578 
L 228.957181 -385.560578 
L 223.618171 -385.560578 
L 218.279161 -385.560578 
L 212.940151 -385.560578 
L 207.601141 -385.560578 
L 202.262131 -385.560578 
L 196.923121 -385.560578 
L 191.584111 -385.560578 
L 186.245101 -385.560578 
L 180.906091 -385.560578 
L 175.567081 -385.560578 
L 170.22807 -385.560578 
L 164.88906 -385.560578 
L 159.55005 -385.560578 
L 154.21104 -385.560578 
L 148.87203 -385.560578 
L 143.53302 -385.560578 
L 138.19401 -385.560578 
L 132.855 -385.560578 
z
" style="stroke: #434343; stroke-opacity: 0.65"/>
    </defs>
    <g clip-path="url(#p367a229939)">
     <use xlink:href="#m9b130cde14" x="0" y="432" style="fill: #e68193; fill-opacity: 0.65; stroke: #434343; stroke-opacity: 0.65"/>
    </g>
   </g>
   <g id="PolyCollection_2">
    <defs>
     <path id="me9ff299b3a" d="M 242.195932 -312.454072 
L 242.195932 -314.534508 
L 246.635922 -314.60758 
L 251.075913 -314.629167 
L 255.515903 -314.623845 
L 259.955894 -314.615458 
L 264.395885 -314.617358 
L 268.835875 -314.626886 
L 273.275866 -314.626474 
L 277.715856 -314.590898 
L 282.155847 -314.497572 
L 286.595838 -314.335626 
L 291.035828 -314.110324 
L 295.475819 -313.841625 
L 299.915809 -313.558209 
L 304.3558 -313.289891 
L 308.795791 -313.06143 
L 313.235781 -312.889586 
L 317.675772 -312.783532 
L 322.115762 -312.747356 
L 326.555753 -312.782798 
L 330.995743 -312.890644 
L 335.435734 -313.070164 
L 339.875725 -313.317024 
L 344.315715 -313.621041 
L 348.755706 -313.965381 
L 353.195696 -314.328323 
L 357.635687 -314.6875 
L 362.075678 -315.025259 
L 366.515668 -315.332933 
L 370.955659 -315.612103 
L 375.395649 -315.872081 
L 379.83564 -316.124466 
L 384.275631 -316.376732 
L 388.715621 -316.627046 
L 393.155612 -316.861946 
L 397.595602 -317.057626 
L 402.035593 -317.184769 
L 406.475583 -317.216207 
L 410.915574 -317.135984 
L 415.355565 -316.947557 
L 419.795555 -316.678406 
L 424.235546 -316.378615 
L 428.675536 -316.112578 
L 433.115527 -315.945392 
L 437.555518 -315.927926 
L 441.995508 -316.085744 
L 446.435499 -316.416332 
L 450.875489 -316.896252 
L 455.31548 -317.496016 
L 459.755471 -318.197052 
L 464.195461 -319.003839 
L 468.635452 -319.945808 
L 473.075442 -321.067402 
L 477.515433 -322.409125 
L 481.955423 -323.985533 
L 486.395414 -325.76693 
L 490.835405 -327.670195 
L 495.275395 -329.561825 
L 499.715386 -331.273644 
L 504.155376 -332.629087 
L 508.595367 -333.475285 
L 513.035358 -333.713858 
L 517.475348 -333.322341 
L 521.915339 -332.359891 
L 526.355329 -330.955216 
L 530.79532 -329.28022 
L 535.235311 -327.517152 
L 539.675301 -325.828154 
L 544.115292 -324.333934 
L 548.555282 -323.10411 
L 552.995273 -322.157919 
L 557.435264 -321.471909 
L 561.875254 -320.991309 
L 566.315245 -320.643015 
L 570.755235 -320.349234 
L 575.195226 -320.040899 
L 579.635216 -319.669083 
L 584.075207 -319.211842 
L 588.515198 -318.674269 
L 592.955188 -318.081492 
L 597.395179 -317.467031 
L 601.835169 -316.860965 
L 606.27516 -316.282324 
L 610.715151 -315.737981 
L 615.155141 -315.227186 
L 619.595132 -314.748466 
L 624.035122 -314.305188 
L 628.475113 -313.907502 
L 632.915104 -313.570607 
L 637.355094 -313.310945 
L 641.795085 -313.142262 
L 646.235075 -313.072685 
L 650.675066 -313.102849 
L 655.115056 -313.224573 
L 659.555047 -313.419828 
L 663.995038 -313.660509 
L 668.435028 -313.910085 
L 672.875019 -314.127985 
L 677.315009 -314.276502 
L 681.755 -314.328562 
L 681.755 -312.454072 
L 681.755 -312.454072 
L 677.315009 -312.454072 
L 672.875019 -312.454072 
L 668.435028 -312.454072 
L 663.995038 -312.454072 
L 659.555047 -312.454072 
L 655.115056 -312.454072 
L 650.675066 -312.454072 
L 646.235075 -312.454072 
L 641.795085 -312.454072 
L 637.355094 -312.454072 
L 632.915104 -312.454072 
L 628.475113 -312.454072 
L 624.035122 -312.454072 
L 619.595132 -312.454072 
L 615.155141 -312.454072 
L 610.715151 -312.454072 
L 606.27516 -312.454072 
L 601.835169 -312.454072 
L 597.395179 -312.454072 
L 592.955188 -312.454072 
L 588.515198 -312.454072 
L 584.075207 -312.454072 
L 579.635216 -312.454072 
L 575.195226 -312.454072 
L 570.755235 -312.454072 
L 566.315245 -312.454072 
L 561.875254 -312.454072 
L 557.435264 -312.454072 
L 552.995273 -312.454072 
L 548.555282 -312.454072 
L 544.115292 -312.454072 
L 539.675301 -312.454072 
L 535.235311 -312.454072 
L 530.79532 -312.454072 
L 526.355329 -312.454072 
L 521.915339 -312.454072 
L 517.475348 -312.454072 
L 513.035358 -312.454072 
L 508.595367 -312.454072 
L 504.155376 -312.454072 
L 499.715386 -312.454072 
L 495.275395 -312.454072 
L 490.835405 -312.454072 
L 486.395414 -312.454072 
L 481.955423 -312.454072 
L 477.515433 -312.454072 
L 473.075442 -312.454072 
L 468.635452 -312.454072 
L 464.195461 -312.454072 
L 459.755471 -312.454072 
L 455.31548 -312.454072 
L 450.875489 -312.454072 
L 446.435499 -312.454072 
L 441.995508 -312.454072 
L 437.555518 -312.454072 
L 433.115527 -312.454072 
L 428.675536 -312.454072 
L 424.235546 -312.454072 
L 419.795555 -312.454072 
L 415.355565 -312.454072 
L 410.915574 -312.454072 
L 406.475583 -312.454072 
L 402.035593 -312.454072 
L 397.595602 -312.454072 
L 393.155612 -312.454072 
L 388.715621 -312.454072 
L 384.275631 -312.454072 
L 379.83564 -312.454072 
L 375.395649 -312.454072 
L 370.955659 -312.454072 
L 366.515668 -312.454072 
L 362.075678 -312.454072 
L 357.635687 -312.454072 
L 353.195696 -312.454072 
L 348.755706 -312.454072 
L 344.315715 -312.454072 
L 339.875725 -312.454072 
L 335.435734 -312.454072 
L 330.995743 -312.454072 
L 326.555753 -312.454072 
L 322.115762 -312.454072 
L 317.675772 -312.454072 
L 313.235781 -312.454072 
L 308.795791 -312.454072 
L 304.3558 -312.454072 
L 299.915809 -312.454072 
L 295.475819 -312.454072 
L 291.035828 -312.454072 
L 286.595838 -312.454072 
L 282.155847 -312.454072 
L 277.715856 -312.454072 
L 273.275866 -312.454072 
L 268.835875 -312.454072 
L 264.395885 -312.454072 
L 259.955894 -312.454072 
L 255.515903 -312.454072 
L 251.075913 -312.454072 
L 246.635922 -312.454072 
L 242.195932 -312.454072 
z
" style="stroke: #434343; stroke-opacity: 0.65"/>
    </defs>
    <g clip-path="url(#p367a229939)">
     <use xlink:href="#me9ff299b3a" x="0" y="432" style="fill: #9e9241; fill-opacity: 0.65; stroke: #434343; stroke-opacity: 0.65"/>
    </g>
   </g>
   <g id="PolyCollection_3">
    <defs>
     <path id="mb8c38a2b64" d="M 340.321504 -239.347566 
L 340.321504 -244.430962 
L 343.125899 -244.841042 
L 345.930294 -245.133443 
L 348.734689 -245.296811 
L 351.539085 -245.331477 
L 354.34348 -245.248839 
L 357.147875 -245.069296 
L 359.95227 -244.81906 
L 362.756665 -244.526353 
L 365.56106 -244.217473 
L 368.365455 -243.913328 
L 371.169851 -243.626978 
L 373.974246 -243.362666 
L 376.778641 -243.116633 
L 379.583036 -242.879617 
L 382.387431 -242.640575 
L 385.191826 -242.390809 
L 387.996221 -242.127557 
L 390.800616 -241.856231 
L 393.605012 -241.59084 
L 396.409407 -241.352643 
L 399.213802 -241.167455 
L 402.018197 -241.062304 
L 404.822592 -241.062152 
L 407.626987 -241.187211 
L 410.431382 -241.451119 
L 413.235777 -241.859984 
L 416.040173 -242.412101 
L 418.844568 -243.0981 
L 421.648963 -243.90132 
L 424.453358 -244.798358 
L 427.257753 -245.759932 
L 430.062148 -246.752362 
L 432.866543 -247.740008 
L 435.670938 -248.688862 
L 438.475334 -249.571098 
L 441.279729 -250.369886 
L 444.084124 -251.083305 
L 446.888519 -251.725964 
L 449.692914 -252.327215 
L 452.497309 -252.925536 
L 455.301704 -253.559758 
L 458.106099 -254.258853 
L 460.910495 -255.032692 
L 463.71489 -255.866232 
L 466.519285 -256.71881 
L 469.32368 -257.529002 
L 472.128075 -258.224006 
L 474.93247 -258.731409 
L 477.736865 -258.99074 
L 480.54126 -258.96249 
L 483.345656 -258.63321 
L 486.150051 -258.01641 
L 488.954446 -257.149898 
L 491.758841 -256.090708 
L 494.563236 -254.908757 
L 497.367631 -253.680057 
L 500.172026 -252.479988 
L 502.976422 -251.376933 
L 505.780817 -250.42661 
L 508.585212 -249.66758 
L 511.389607 -249.118508 
L 514.194002 -248.777688 
L 516.998397 -248.624995 
L 519.802792 -248.626018 
L 522.607187 -248.737649 
L 525.411583 -248.914101 
L 528.215978 -249.112303 
L 531.020373 -249.29586 
L 533.824768 -249.43716 
L 536.629163 -249.51774 
L 539.433558 -249.527379 
L 542.237953 -249.462568 
L 545.042348 -249.32493 
L 547.846744 -249.119938 
L 550.651139 -248.855994 
L 553.455534 -248.543752 
L 556.259929 -248.195514 
L 559.064324 -247.824639 
L 561.868719 -247.444994 
L 564.673114 -247.070555 
L 567.477509 -246.715154 
L 570.281905 -246.392257 
L 573.0863 -246.114481 
L 575.890695 -245.892596 
L 578.69509 -245.733923 
L 581.499485 -245.640376 
L 584.30388 -245.606732 
L 587.108275 -245.619823 
L 589.91267 -245.659249 
L 592.717066 -245.699735 
L 595.521461 -245.714733 
L 598.325856 -245.680411 
L 601.130251 -245.578998 
L 603.934646 -245.400701 
L 606.739041 -245.143886 
L 609.543436 -244.813816 
L 612.347832 -244.420625 
L 615.152227 -243.977299 
L 617.956622 -243.4982 
L 617.956622 -239.347566 
L 617.956622 -239.347566 
L 615.152227 -239.347566 
L 612.347832 -239.347566 
L 609.543436 -239.347566 
L 606.739041 -239.347566 
L 603.934646 -239.347566 
L 601.130251 -239.347566 
L 598.325856 -239.347566 
L 595.521461 -239.347566 
L 592.717066 -239.347566 
L 589.91267 -239.347566 
L 587.108275 -239.347566 
L 584.30388 -239.347566 
L 581.499485 -239.347566 
L 578.69509 -239.347566 
L 575.890695 -239.347566 
L 573.0863 -239.347566 
L 570.281905 -239.347566 
L 567.477509 -239.347566 
L 564.673114 -239.347566 
L 561.868719 -239.347566 
L 559.064324 -239.347566 
L 556.259929 -239.347566 
L 553.455534 -239.347566 
L 550.651139 -239.347566 
L 547.846744 -239.347566 
L 545.042348 -239.347566 
L 542.237953 -239.347566 
L 539.433558 -239.347566 
L 536.629163 -239.347566 
L 533.824768 -239.347566 
L 531.020373 -239.347566 
L 528.215978 -239.347566 
L 525.411583 -239.347566 
L 522.607187 -239.347566 
L 519.802792 -239.347566 
L 516.998397 -239.347566 
L 514.194002 -239.347566 
L 511.389607 -239.347566 
L 508.585212 -239.347566 
L 505.780817 -239.347566 
L 502.976422 -239.347566 
L 500.172026 -239.347566 
L 497.367631 -239.347566 
L 494.563236 -239.347566 
L 491.758841 -239.347566 
L 488.954446 -239.347566 
L 486.150051 -239.347566 
L 483.345656 -239.347566 
L 480.54126 -239.347566 
L 477.736865 -239.347566 
L 474.93247 -239.347566 
L 472.128075 -239.347566 
L 469.32368 -239.347566 
L 466.519285 -239.347566 
L 463.71489 -239.347566 
L 460.910495 -239.347566 
L 458.106099 -239.347566 
L 455.301704 -239.347566 
L 452.497309 -239.347566 
L 449.692914 -239.347566 
L 446.888519 -239.347566 
L 444.084124 -239.347566 
L 441.279729 -239.347566 
L 438.475334 -239.347566 
L 435.670938 -239.347566 
L 432.866543 -239.347566 
L 430.062148 -239.347566 
L 427.257753 -239.347566 
L 424.453358 -239.347566 
L 421.648963 -239.347566 
L 418.844568 -239.347566 
L 416.040173 -239.347566 
L 413.235777 -239.347566 
L 410.431382 -239.347566 
L 407.626987 -239.347566 
L 404.822592 -239.347566 
L 402.018197 -239.347566 
L 399.213802 -239.347566 
L 396.409407 -239.347566 
L 393.605012 -239.347566 
L 390.800616 -239.347566 
L 387.996221 -239.347566 
L 385.191826 -239.347566 
L 382.387431 -239.347566 
L 379.583036 -239.347566 
L 376.778641 -239.347566 
L 373.974246 -239.347566 
L 371.169851 -239.347566 
L 368.365455 -239.347566 
L 365.56106 -239.347566 
L 362.756665 -239.347566 
L 359.95227 -239.347566 
L 357.147875 -239.347566 
L 354.34348 -239.347566 
L 351.539085 -239.347566 
L 348.734689 -239.347566 
L 345.930294 -239.347566 
L 343.125899 -239.347566 
L 340.321504 -239.347566 
z
" style="stroke: #434343; stroke-opacity: 0.65"/>
    </defs>
    <g clip-path="url(#p367a229939)">
     <use xlink:href="#mb8c38a2b64" x="0" y="432" style="fill: #43a178; fill-opacity: 0.65; stroke: #434343; stroke-opacity: 0.65"/>
    </g>
   </g>
   <g id="PolyCollection_4">
    <defs>
     <path id="m891ba41309" d="M 226.258071 -166.24106 
L 226.258071 -168.213167 
L 230.648047 -168.147481 
L 235.038024 -167.963261 
L 239.428 -167.69493 
L 243.817977 -167.388009 
L 248.207953 -167.086611 
L 252.597929 -166.823581 
L 256.987906 -166.616085 
L 261.377882 -166.466684 
L 265.767859 -166.36791 
L 270.157835 -166.307705 
L 274.547811 -166.273781 
L 278.937788 -166.256074 
L 283.327764 -166.247503 
L 287.717741 -166.24366 
L 292.107717 -166.242096 
L 296.497694 -166.24162 
L 300.88767 -166.24183 
L 305.277646 -166.24293 
L 309.667623 -166.245856 
L 314.057599 -166.252747 
L 318.447576 -166.267781 
L 322.837552 -166.298311 
L 327.227528 -166.356028 
L 331.617505 -166.457511 
L 336.007481 -166.623257 
L 340.397458 -166.87422 
L 344.787434 -167.22551 
L 349.177411 -167.678142 
L 353.567387 -168.211342 
L 357.957363 -168.77903 
L 362.34734 -169.313771 
L 366.737316 -169.739323 
L 371.127293 -169.989448 
L 375.517269 -170.027542 
L 379.907245 -169.860557 
L 384.297222 -169.542391 
L 388.687198 -169.165711 
L 393.077175 -168.844947 
L 397.467151 -168.695324 
L 401.857128 -168.812556 
L 406.247104 -169.256287 
L 410.63708 -170.039158 
L 415.027057 -171.123211 
L 419.417033 -172.425759 
L 423.80701 -173.836113 
L 428.196986 -175.24153 
L 432.586962 -176.556026 
L 436.976939 -177.74175 
L 441.366915 -178.812687 
L 445.756892 -179.816358 
L 450.146868 -180.799299 
L 454.536845 -181.771509 
L 458.926821 -182.6877 
L 463.316797 -183.456195 
L 467.706774 -183.972391 
L 472.09675 -184.160611 
L 476.486727 -184.003713 
L 480.876703 -183.546729 
L 485.266679 -182.874794 
L 489.656656 -182.078518 
L 494.046632 -181.224764 
L 498.436609 -180.345901 
L 502.826585 -179.449629 
L 507.216562 -178.540696 
L 511.606538 -177.640703 
L 515.996514 -176.794774 
L 520.386491 -176.061992 
L 524.776467 -175.495362 
L 529.166444 -175.121676 
L 533.55642 -174.93026 
L 537.946396 -174.87403 
L 542.336373 -174.880709 
L 546.726349 -174.869309 
L 551.116326 -174.76724 
L 555.506302 -174.524594 
L 559.896279 -174.12309 
L 564.286255 -173.577737 
L 568.676231 -172.930787 
L 573.066208 -172.239922 
L 577.456184 -171.564595 
L 581.846161 -170.95458 
L 586.236137 -170.44301 
L 590.626113 -170.044027 
L 595.01609 -169.754131 
L 599.406066 -169.556488 
L 603.796043 -169.427626 
L 608.186019 -169.345135 
L 612.575996 -169.293839 
L 616.965972 -169.267773 
L 621.355948 -169.267159 
L 625.745925 -169.292397 
L 630.135901 -169.338701 
L 634.525878 -169.394219 
L 638.915854 -169.441768 
L 643.30583 -169.462157 
L 647.695807 -169.436879 
L 652.085783 -169.349744 
L 656.47576 -169.18862 
L 660.865736 -168.948423 
L 660.865736 -166.24106 
L 660.865736 -166.24106 
L 656.47576 -166.24106 
L 652.085783 -166.24106 
L 647.695807 -166.24106 
L 643.30583 -166.24106 
L 638.915854 -166.24106 
L 634.525878 -166.24106 
L 630.135901 -166.24106 
L 625.745925 -166.24106 
L 621.355948 -166.24106 
L 616.965972 -166.24106 
L 612.575996 -166.24106 
L 608.186019 -166.24106 
L 603.796043 -166.24106 
L 599.406066 -166.24106 
L 595.01609 -166.24106 
L 590.626113 -166.24106 
L 586.236137 -166.24106 
L 581.846161 -166.24106 
L 577.456184 -166.24106 
L 573.066208 -166.24106 
L 568.676231 -166.24106 
L 564.286255 -166.24106 
L 559.896279 -166.24106 
L 555.506302 -166.24106 
L 551.116326 -166.24106 
L 546.726349 -166.24106 
L 542.336373 -166.24106 
L 537.946396 -166.24106 
L 533.55642 -166.24106 
L 529.166444 -166.24106 
L 524.776467 -166.24106 
L 520.386491 -166.24106 
L 515.996514 -166.24106 
L 511.606538 -166.24106 
L 507.216562 -166.24106 
L 502.826585 -166.24106 
L 498.436609 -166.24106 
L 494.046632 -166.24106 
L 489.656656 -166.24106 
L 485.266679 -166.24106 
L 480.876703 -166.24106 
L 476.486727 -166.24106 
L 472.09675 -166.24106 
L 467.706774 -166.24106 
L 463.316797 -166.24106 
L 458.926821 -166.24106 
L 454.536845 -166.24106 
L 450.146868 -166.24106 
L 445.756892 -166.24106 
L 441.366915 -166.24106 
L 436.976939 -166.24106 
L 432.586962 -166.24106 
L 428.196986 -166.24106 
L 423.80701 -166.24106 
L 419.417033 -166.24106 
L 415.027057 -166.24106 
L 410.63708 -166.24106 
L 406.247104 -166.24106 
L 401.857128 -166.24106 
L 397.467151 -166.24106 
L 393.077175 -166.24106 
L 388.687198 -166.24106 
L 384.297222 -166.24106 
L 379.907245 -166.24106 
L 375.517269 -166.24106 
L 371.127293 -166.24106 
L 366.737316 -166.24106 
L 362.34734 -166.24106 
L 357.957363 -166.24106 
L 353.567387 -166.24106 
L 349.177411 -166.24106 
L 344.787434 -166.24106 
L 340.397458 -166.24106 
L 336.007481 -166.24106 
L 331.617505 -166.24106 
L 327.227528 -166.24106 
L 322.837552 -166.24106 
L 318.447576 -166.24106 
L 314.057599 -166.24106 
L 309.667623 -166.24106 
L 305.277646 -166.24106 
L 300.88767 -166.24106 
L 296.497694 -166.24106 
L 292.107717 -166.24106 
L 287.717741 -166.24106 
L 283.327764 -166.24106 
L 278.937788 -166.24106 
L 274.547811 -166.24106 
L 270.157835 -166.24106 
L 265.767859 -166.24106 
L 261.377882 -166.24106 
L 256.987906 -166.24106 
L 252.597929 -166.24106 
L 248.207953 -166.24106 
L 243.817977 -166.24106 
L 239.428 -166.24106 
L 235.038024 -166.24106 
L 230.648047 -166.24106 
L 226.258071 -166.24106 
z
" style="stroke: #434343; stroke-opacity: 0.65"/>
    </defs>
    <g clip-path="url(#p367a229939)">
     <use xlink:href="#m891ba41309" x="0" y="432" style="fill: #4a9eb4; fill-opacity: 0.65; stroke: #434343; stroke-opacity: 0.65"/>
    </g>
   </g>
   <g id="PolyCollection_5">
    <defs>
     <path id="mc6cba3b5eb" d="M 333.86328 -93.134554 
L 333.86328 -95.527494 
L 337.32137 -95.676485 
L 340.779459 -95.80765 
L 344.237548 -95.942113 
L 347.695637 -96.102709 
L 351.153727 -96.30864 
L 354.611816 -96.5711 
L 358.069905 -96.890979 
L 361.527995 -97.259134 
L 364.986084 -97.658882 
L 368.444173 -98.069788 
L 371.902262 -98.471615 
L 375.360352 -98.847409 
L 378.818441 -99.185132 
L 382.27653 -99.477681 
L 385.734619 -99.721624 
L 389.192709 -99.915182 
L 392.650798 -100.056188 
L 396.108887 -100.140663 
L 399.566977 -100.162479 
L 403.025066 -100.114336 
L 406.483155 -99.989899 
L 409.941244 -99.786697 
L 413.399334 -99.509169 
L 416.857423 -99.171238 
L 420.315512 -98.797828 
L 423.773601 -98.424915 
L 427.231691 -98.097849 
L 430.68978 -97.867869 
L 434.147869 -97.78693 
L 437.605959 -97.901271 
L 441.064048 -98.244436 
L 444.522137 -98.830787 
L 447.980226 -99.650743 
L 451.438316 -100.668934 
L 454.896405 -101.826183 
L 458.354494 -103.045602 
L 461.812583 -104.242254 
L 465.270673 -105.334918 
L 468.728762 -106.257762 
L 472.186851 -106.969453 
L 475.644941 -107.457633 
L 479.10303 -107.737698 
L 482.561119 -107.846263 
L 486.019208 -107.831057 
L 489.477298 -107.739848 
L 492.935387 -107.611065 
L 496.393476 -107.4681 
L 499.851565 -107.318078 
L 503.309655 -107.154681 
L 506.767744 -106.963685 
L 510.225833 -106.729449 
L 513.683922 -106.440662 
L 517.142012 -106.094038 
L 520.600101 -105.695338 
L 524.05819 -105.257768 
L 527.51628 -104.798505 
L 530.974369 -104.334535 
L 534.432458 -103.879103 
L 537.890547 -103.439783 
L 541.348637 -103.018574 
L 544.806726 -102.613739 
L 548.264815 -102.222554 
L 551.722904 -101.843904 
L 555.180994 -101.479835 
L 558.639083 -101.135552 
L 562.097172 -100.817902 
L 565.555262 -100.532815 
L 569.013351 -100.282551 
L 572.47144 -100.063654 
L 575.929529 -99.86639 
L 579.387619 -99.676049 
L 582.845708 -99.475857 
L 586.303797 -99.250708 
L 589.761886 -98.990519 
L 593.219976 -98.6921 
L 596.678065 -98.358963 
L 600.136154 -97.999281 
L 603.594244 -97.622972 
L 607.052333 -97.239183 
L 610.510422 -96.855217 
L 613.968511 -96.477253 
L 617.426601 -96.112317 
L 620.88469 -95.77044 
L 624.342779 -95.465793 
L 627.800868 -95.216024 
L 631.258958 -95.039749 
L 634.717047 -94.952783 
L 638.175136 -94.964194 
L 641.633226 -95.073241 
L 645.091315 -95.268026 
L 648.549404 -95.526153 
L 652.007493 -95.817233 
L 655.465583 -96.10665 
L 658.923672 -96.359852 
L 662.381761 -96.546417 
L 665.83985 -96.643346 
L 669.29794 -96.63726 
L 672.756029 -96.525351 
L 676.214118 -96.315146 
L 676.214118 -93.134554 
L 676.214118 -93.134554 
L 672.756029 -93.134554 
L 669.29794 -93.134554 
L 665.83985 -93.134554 
L 662.381761 -93.134554 
L 658.923672 -93.134554 
L 655.465583 -93.134554 
L 652.007493 -93.134554 
L 648.549404 -93.134554 
L 645.091315 -93.134554 
L 641.633226 -93.134554 
L 638.175136 -93.134554 
L 634.717047 -93.134554 
L 631.258958 -93.134554 
L 627.800868 -93.134554 
L 624.342779 -93.134554 
L 620.88469 -93.134554 
L 617.426601 -93.134554 
L 613.968511 -93.134554 
L 610.510422 -93.134554 
L 607.052333 -93.134554 
L 603.594244 -93.134554 
L 600.136154 -93.134554 
L 596.678065 -93.134554 
L 593.219976 -93.134554 
L 589.761886 -93.134554 
L 586.303797 -93.134554 
L 582.845708 -93.134554 
L 579.387619 -93.134554 
L 575.929529 -93.134554 
L 572.47144 -93.134554 
L 569.013351 -93.134554 
L 565.555262 -93.134554 
L 562.097172 -93.134554 
L 558.639083 -93.134554 
L 555.180994 -93.134554 
L 551.722904 -93.134554 
L 548.264815 -93.134554 
L 544.806726 -93.134554 
L 541.348637 -93.134554 
L 537.890547 -93.134554 
L 534.432458 -93.134554 
L 530.974369 -93.134554 
L 527.51628 -93.134554 
L 524.05819 -93.134554 
L 520.600101 -93.134554 
L 517.142012 -93.134554 
L 513.683922 -93.134554 
L 510.225833 -93.134554 
L 506.767744 -93.134554 
L 503.309655 -93.134554 
L 499.851565 -93.134554 
L 496.393476 -93.134554 
L 492.935387 -93.134554 
L 489.477298 -93.134554 
L 486.019208 -93.134554 
L 482.561119 -93.134554 
L 479.10303 -93.134554 
L 475.644941 -93.134554 
L 472.186851 -93.134554 
L 468.728762 -93.134554 
L 465.270673 -93.134554 
L 461.812583 -93.134554 
L 458.354494 -93.134554 
L 454.896405 -93.134554 
L 451.438316 -93.134554 
L 447.980226 -93.134554 
L 444.522137 -93.134554 
L 441.064048 -93.134554 
L 437.605959 -93.134554 
L 434.147869 -93.134554 
L 430.68978 -93.134554 
L 427.231691 -93.134554 
L 423.773601 -93.134554 
L 420.315512 -93.134554 
L 416.857423 -93.134554 
L 413.399334 -93.134554 
L 409.941244 -93.134554 
L 406.483155 -93.134554 
L 403.025066 -93.134554 
L 399.566977 -93.134554 
L 396.108887 -93.134554 
L 392.650798 -93.134554 
L 389.192709 -93.134554 
L 385.734619 -93.134554 
L 382.27653 -93.134554 
L 378.818441 -93.134554 
L 375.360352 -93.134554 
L 371.902262 -93.134554 
L 368.444173 -93.134554 
L 364.986084 -93.134554 
L 361.527995 -93.134554 
L 358.069905 -93.134554 
L 354.611816 -93.134554 
L 351.153727 -93.134554 
L 347.695637 -93.134554 
L 344.237548 -93.134554 
L 340.779459 -93.134554 
L 337.32137 -93.134554 
L 333.86328 -93.134554 
z
" style="stroke: #434343; stroke-opacity: 0.65"/>
    </defs>
    <g clip-path="url(#p367a229939)">
     <use xlink:href="#mc6cba3b5eb" x="0" y="432" style="fill: #c789e5; fill-opacity: 0.65; stroke: #434343; stroke-opacity: 0.65"/>
    </g>
   </g>
   <g id="matplotlib.axis_1">
    <g id="xtick_1">
     <g id="line2d_1">
      <defs>
       <path id="m91228b1d4e" d="M 0 0 
L 0 3.5 
" style="stroke: #000000; stroke-width: 0.8"/>
      </defs>
      <g>
       <use xlink:href="#m91228b1d4e" x="142.316888" y="390.04" style="stroke: #000000; stroke-width: 0.8"/>
      </g>
     </g>
     <g id="text_1">
      <!-- 0 -->
      <g transform="translate(139.135638 404.638438) scale(0.1 -0.1)">
       <defs>
        <path id="DejaVuSans-30" d="M 2034 4250 
Q 1547 4250 1301 3770 
Q 1056 3291 1056 2328 
Q 1056 1369 1301 889 
Q 1547 409 2034 409 
Q 2525 409 2770 889 
Q 3016 1369 3016 2328 
Q 3016 3291 2770 3770 
Q 2525 4250 2034 4250 
z
M 2034 4750 
Q 2819 4750 3233 4129 
Q 3647 3509 3647 2328 
Q 3647 1150 3233 529 
Q 2819 -91 2034 -91 
Q 1250 -91 836 529 
Q 422 1150 422 2328 
Q 422 3509 836 4129 
Q 1250 4750 2034 4750 
z
" transform="scale(0.015625)"/>
       </defs>
       <use xlink:href="#DejaVuSans-30"/>
      </g>
     </g>
    </g>
    <g id="xtick_2">
     <g id="line2d_2">
      <g>
       <use xlink:href="#m91228b1d4e" x="219.362173" y="390.04" style="stroke: #000000; stroke-width: 0.8"/>
      </g>
     </g>
     <g id="text_2">
      <!-- 1 -->
      <g transform="translate(216.180923 404.638438) scale(0.1 -0.1)">
       <defs>
        <path id="DejaVuSans-31" d="M 794 531 
L 1825 531 
L 1825 4091 
L 703 3866 
L 703 4441 
L 1819 4666 
L 2450 4666 
L 2450 531 
L 3481 531 
L 3481 0 
L 794 0 
L 794 531 
z
" transform="scale(0.015625)"/>
       </defs>
       <use xlink:href="#DejaVuSans-31"/>
      </g>
     </g>
    </g>
    <g id="xtick_3">
     <g id="line2d_3">
      <g>
       <use xlink:href="#m91228b1d4e" x="296.407458" y="390.04" style="stroke: #000000; stroke-width: 0.8"/>
      </g>
     </g>
     <g id="text_3">
      <!-- 2 -->
      <g transform="translate(293.226208 404.638438) scale(0.1 -0.1)">
       <defs>
        <path id="DejaVuSans-32" d="M 1228 531 
L 3431 531 
L 3431 0 
L 469 0 
L 469 531 
Q 828 903 1448 1529 
Q 2069 2156 2228 2338 
Q 2531 2678 2651 2914 
Q 2772 3150 2772 3378 
Q 2772 3750 2511 3984 
Q 2250 4219 1831 4219 
Q 1534 4219 1204 4116 
Q 875 4013 500 3803 
L 500 4441 
Q 881 4594 1212 4672 
Q 1544 4750 1819 4750 
Q 2544 4750 2975 4387 
Q 3406 4025 3406 3419 
Q 3406 3131 3298 2873 
Q 3191 2616 2906 2266 
Q 2828 2175 2409 1742 
Q 1991 1309 1228 531 
z
" transform="scale(0.015625)"/>
       </defs>
       <use xlink:href="#DejaVuSans-32"/>
      </g>
     </g>
    </g>
    <g id="xtick_4">
     <g id="line2d_4">
      <g>
       <use xlink:href="#m91228b1d4e" x="373.452743" y="390.04" style="stroke: #000000; stroke-width: 0.8"/>
      </g>
     </g>
     <g id="text_4">
      <!-- 3 -->
      <g transform="translate(370.271493 404.638438) scale(0.1 -0.1)">
       <defs>
        <path id="DejaVuSans-33" d="M 2597 2516 
Q 3050 2419 3304 2112 
Q 3559 1806 3559 1356 
Q 3559 666 3084 287 
Q 2609 -91 1734 -91 
Q 1441 -91 1130 -33 
Q 819 25 488 141 
L 488 750 
Q 750 597 1062 519 
Q 1375 441 1716 441 
Q 2309 441 2620 675 
Q 2931 909 2931 1356 
Q 2931 1769 2642 2001 
Q 2353 2234 1838 2234 
L 1294 2234 
L 1294 2753 
L 1863 2753 
Q 2328 2753 2575 2939 
Q 2822 3125 2822 3475 
Q 2822 3834 2567 4026 
Q 2313 4219 1838 4219 
Q 1578 4219 1281 4162 
Q 984 4106 628 3988 
L 628 4550 
Q 988 4650 1302 4700 
Q 1616 4750 1894 4750 
Q 2613 4750 3031 4423 
Q 3450 4097 3450 3541 
Q 3450 3153 3228 2886 
Q 3006 2619 2597 2516 
z
" transform="scale(0.015625)"/>
       </defs>
       <use xlink:href="#DejaVuSans-33"/>
      </g>
     </g>
    </g>
    <g id="xtick_5">
     <g id="line2d_5">
      <g>
       <use xlink:href="#m91228b1d4e" x="450.498029" y="390.04" style="stroke: #000000; stroke-width: 0.8"/>
      </g>
     </g>
     <g id="text_5">
      <!-- 4 -->
      <g transform="translate(447.316779 404.638438) scale(0.1 -0.1)">
       <defs>
        <path id="DejaVuSans-34" d="M 2419 4116 
L 825 1625 
L 2419 1625 
L 2419 4116 
z
M 2253 4666 
L 3047 4666 
L 3047 1625 
L 3713 1625 
L 3713 1100 
L 3047 1100 
L 3047 0 
L 2419 0 
L 2419 1100 
L 313 1100 
L 313 1709 
L 2253 4666 
z
" transform="scale(0.015625)"/>
       </defs>
       <use xlink:href="#DejaVuSans-34"/>
      </g>
     </g>
    </g>
    <g id="xtick_6">
     <g id="line2d_6">
      <g>
       <use xlink:href="#m91228b1d4e" x="527.543314" y="390.04" style="stroke: #000000; stroke-width: 0.8"/>
      </g>
     </g>
     <g id="text_6">
      <!-- 5 -->
      <g transform="translate(524.362064 404.638438) scale(0.1 -0.1)">
       <defs>
        <path id="DejaVuSans-35" d="M 691 4666 
L 3169 4666 
L 3169 4134 
L 1269 4134 
L 1269 2991 
Q 1406 3038 1543 3061 
Q 1681 3084 1819 3084 
Q 2600 3084 3056 2656 
Q 3513 2228 3513 1497 
Q 3513 744 3044 326 
Q 2575 -91 1722 -91 
Q 1428 -91 1123 -41 
Q 819 9 494 109 
L 494 744 
Q 775 591 1075 516 
Q 1375 441 1709 441 
Q 2250 441 2565 725 
Q 2881 1009 2881 1497 
Q 2881 1984 2565 2268 
Q 2250 2553 1709 2553 
Q 1456 2553 1204 2497 
Q 953 2441 691 2322 
L 691 4666 
z
" transform="scale(0.015625)"/>
       </defs>
       <use xlink:href="#DejaVuSans-35"/>
      </g>
     </g>
    </g>
    <g id="xtick_7">
     <g id="line2d_7">
      <g>
       <use xlink:href="#m91228b1d4e" x="604.588599" y="390.04" style="stroke: #000000; stroke-width: 0.8"/>
      </g>
     </g>
     <g id="text_7">
      <!-- 6 -->
      <g transform="translate(601.407349 404.638438) scale(0.1 -0.1)">
       <defs>
        <path id="DejaVuSans-36" d="M 2113 2584 
Q 1688 2584 1439 2293 
Q 1191 2003 1191 1497 
Q 1191 994 1439 701 
Q 1688 409 2113 409 
Q 2538 409 2786 701 
Q 3034 994 3034 1497 
Q 3034 2003 2786 2293 
Q 2538 2584 2113 2584 
z
M 3366 4563 
L 3366 3988 
Q 3128 4100 2886 4159 
Q 2644 4219 2406 4219 
Q 1781 4219 1451 3797 
Q 1122 3375 1075 2522 
Q 1259 2794 1537 2939 
Q 1816 3084 2150 3084 
Q 2853 3084 3261 2657 
Q 3669 2231 3669 1497 
Q 3669 778 3244 343 
Q 2819 -91 2113 -91 
Q 1303 -91 875 529 
Q 447 1150 447 2328 
Q 447 3434 972 4092 
Q 1497 4750 2381 4750 
Q 2619 4750 2861 4703 
Q 3103 4656 3366 4563 
z
" transform="scale(0.015625)"/>
       </defs>
       <use xlink:href="#DejaVuSans-36"/>
      </g>
     </g>
    </g>
    <g id="xtick_8">
     <g id="line2d_8">
      <g>
       <use xlink:href="#m91228b1d4e" x="681.633884" y="390.04" style="stroke: #000000; stroke-width: 0.8"/>
      </g>
     </g>
     <g id="text_8">
      <!-- 7 -->
      <g transform="translate(678.452634 404.638438) scale(0.1 -0.1)">
       <defs>
        <path id="DejaVuSans-37" d="M 525 4666 
L 3525 4666 
L 3525 4397 
L 1831 0 
L 1172 0 
L 2766 4134 
L 525 4134 
L 525 4666 
z
" transform="scale(0.015625)"/>
       </defs>
       <use xlink:href="#DejaVuSans-37"/>
      </g>
     </g>
    </g>
    <g id="text_9">
     <!-- Concentration -->
     <g transform="translate(371.933906 418.316562) scale(0.1 -0.1)">
      <defs>
       <path id="DejaVuSans-43" d="M 4122 4306 
L 4122 3641 
Q 3803 3938 3442 4084 
Q 3081 4231 2675 4231 
Q 1875 4231 1450 3742 
Q 1025 3253 1025 2328 
Q 1025 1406 1450 917 
Q 1875 428 2675 428 
Q 3081 428 3442 575 
Q 3803 722 4122 1019 
L 4122 359 
Q 3791 134 3420 21 
Q 3050 -91 2638 -91 
Q 1578 -91 968 557 
Q 359 1206 359 2328 
Q 359 3453 968 4101 
Q 1578 4750 2638 4750 
Q 3056 4750 3426 4639 
Q 3797 4528 4122 4306 
z
" transform="scale(0.015625)"/>
       <path id="DejaVuSans-6f" d="M 1959 3097 
Q 1497 3097 1228 2736 
Q 959 2375 959 1747 
Q 959 1119 1226 758 
Q 1494 397 1959 397 
Q 2419 397 2687 759 
Q 2956 1122 2956 1747 
Q 2956 2369 2687 2733 
Q 2419 3097 1959 3097 
z
M 1959 3584 
Q 2709 3584 3137 3096 
Q 3566 2609 3566 1747 
Q 3566 888 3137 398 
Q 2709 -91 1959 -91 
Q 1206 -91 779 398 
Q 353 888 353 1747 
Q 353 2609 779 3096 
Q 1206 3584 1959 3584 
z
" transform="scale(0.015625)"/>
       <path id="DejaVuSans-6e" d="M 3513 2113 
L 3513 0 
L 2938 0 
L 2938 2094 
Q 2938 2591 2744 2837 
Q 2550 3084 2163 3084 
Q 1697 3084 1428 2787 
Q 1159 2491 1159 1978 
L 1159 0 
L 581 0 
L 581 3500 
L 1159 3500 
L 1159 2956 
Q 1366 3272 1645 3428 
Q 1925 3584 2291 3584 
Q 2894 3584 3203 3211 
Q 3513 2838 3513 2113 
z
" transform="scale(0.015625)"/>
       <path id="DejaVuSans-63" d="M 3122 3366 
L 3122 2828 
Q 2878 2963 2633 3030 
Q 2388 3097 2138 3097 
Q 1578 3097 1268 2742 
Q 959 2388 959 1747 
Q 959 1106 1268 751 
Q 1578 397 2138 397 
Q 2388 397 2633 464 
Q 2878 531 3122 666 
L 3122 134 
Q 2881 22 2623 -34 
Q 2366 -91 2075 -91 
Q 1284 -91 818 406 
Q 353 903 353 1747 
Q 353 2603 823 3093 
Q 1294 3584 2113 3584 
Q 2378 3584 2631 3529 
Q 2884 3475 3122 3366 
z
" transform="scale(0.015625)"/>
       <path id="DejaVuSans-65" d="M 3597 1894 
L 3597 1613 
L 953 1613 
Q 991 1019 1311 708 
Q 1631 397 2203 397 
Q 2534 397 2845 478 
Q 3156 559 3463 722 
L 3463 178 
Q 3153 47 2828 -22 
Q 2503 -91 2169 -91 
Q 1331 -91 842 396 
Q 353 884 353 1716 
Q 353 2575 817 3079 
Q 1281 3584 2069 3584 
Q 2775 3584 3186 3129 
Q 3597 2675 3597 1894 
z
M 3022 2063 
Q 3016 2534 2758 2815 
Q 2500 3097 2075 3097 
Q 1594 3097 1305 2825 
Q 1016 2553 972 2059 
L 3022 2063 
z
" transform="scale(0.015625)"/>
       <path id="DejaVuSans-74" d="M 1172 4494 
L 1172 3500 
L 2356 3500 
L 2356 3053 
L 1172 3053 
L 1172 1153 
Q 1172 725 1289 603 
Q 1406 481 1766 481 
L 2356 481 
L 2356 0 
L 1766 0 
Q 1100 0 847 248 
Q 594 497 594 1153 
L 594 3053 
L 172 3053 
L 172 3500 
L 594 3500 
L 594 4494 
L 1172 4494 
z
" transform="scale(0.015625)"/>
       <path id="DejaVuSans-72" d="M 2631 2963 
Q 2534 3019 2420 3045 
Q 2306 3072 2169 3072 
Q 1681 3072 1420 2755 
Q 1159 2438 1159 1844 
L 1159 0 
L 581 0 
L 581 3500 
L 1159 3500 
L 1159 2956 
Q 1341 3275 1631 3429 
Q 1922 3584 2338 3584 
Q 2397 3584 2469 3576 
Q 2541 3569 2628 3553 
L 2631 2963 
z
" transform="scale(0.015625)"/>
       <path id="DejaVuSans-61" d="M 2194 1759 
Q 1497 1759 1228 1600 
Q 959 1441 959 1056 
Q 959 750 1161 570 
Q 1363 391 1709 391 
Q 2188 391 2477 730 
Q 2766 1069 2766 1631 
L 2766 1759 
L 2194 1759 
z
M 3341 1997 
L 3341 0 
L 2766 0 
L 2766 531 
Q 2569 213 2275 61 
Q 1981 -91 1556 -91 
Q 1019 -91 701 211 
Q 384 513 384 1019 
Q 384 1609 779 1909 
Q 1175 2209 1959 2209 
L 2766 2209 
L 2766 2266 
Q 2766 2663 2505 2880 
Q 2244 3097 1772 3097 
Q 1472 3097 1187 3025 
Q 903 2953 641 2809 
L 641 3341 
Q 956 3463 1253 3523 
Q 1550 3584 1831 3584 
Q 2591 3584 2966 3190 
Q 3341 2797 3341 1997 
z
" transform="scale(0.015625)"/>
       <path id="DejaVuSans-69" d="M 603 3500 
L 1178 3500 
L 1178 0 
L 603 0 
L 603 3500 
z
M 603 4863 
L 1178 4863 
L 1178 4134 
L 603 4134 
L 603 4863 
z
" transform="scale(0.015625)"/>
      </defs>
      <use xlink:href="#DejaVuSans-43"/>
      <use xlink:href="#DejaVuSans-6f" x="69.824219"/>
      <use xlink:href="#DejaVuSans-6e" x="131.005859"/>
      <use xlink:href="#DejaVuSans-63" x="194.384766"/>
      <use xlink:href="#DejaVuSans-65" x="249.365234"/>
      <use xlink:href="#DejaVuSans-6e" x="310.888672"/>
      <use xlink:href="#DejaVuSans-74" x="374.267578"/>
      <use xlink:href="#DejaVuSans-72" x="413.476562"/>
      <use xlink:href="#DejaVuSans-61" x="454.589844"/>
      <use xlink:href="#DejaVuSans-74" x="515.869141"/>
      <use xlink:href="#DejaVuSans-69" x="555.078125"/>
      <use xlink:href="#DejaVuSans-6f" x="582.861328"/>
      <use xlink:href="#DejaVuSans-6e" x="644.042969"/>
     </g>
    </g>
   </g>
   <g id="matplotlib.axis_2">
    <g id="ytick_1">
     <g id="line2d_9">
      <defs>
       <path id="mf30c942c8f" d="M 0 0 
L -3.5 0 
" style="stroke: #000000; stroke-width: 0.8"/>
      </defs>
      <g>
       <use xlink:href="#mf30c942c8f" x="105.41" y="61.060723" style="stroke: #000000; stroke-width: 0.8"/>
      </g>
     </g>
     <g id="text_10">
      <!-- Reference -->
      <g transform="translate(48.056875 64.859942) scale(0.1 -0.1)">
       <defs>
        <path id="DejaVuSans-52" d="M 2841 2188 
Q 3044 2119 3236 1894 
Q 3428 1669 3622 1275 
L 4263 0 
L 3584 0 
L 2988 1197 
Q 2756 1666 2539 1819 
Q 2322 1972 1947 1972 
L 1259 1972 
L 1259 0 
L 628 0 
L 628 4666 
L 2053 4666 
Q 2853 4666 3247 4331 
Q 3641 3997 3641 3322 
Q 3641 2881 3436 2590 
Q 3231 2300 2841 2188 
z
M 1259 4147 
L 1259 2491 
L 2053 2491 
Q 2509 2491 2742 2702 
Q 2975 2913 2975 3322 
Q 2975 3731 2742 3939 
Q 2509 4147 2053 4147 
L 1259 4147 
z
" transform="scale(0.015625)"/>
        <path id="DejaVuSans-66" d="M 2375 4863 
L 2375 4384 
L 1825 4384 
Q 1516 4384 1395 4259 
Q 1275 4134 1275 3809 
L 1275 3500 
L 2222 3500 
L 2222 3053 
L 1275 3053 
L 1275 0 
L 697 0 
L 697 3053 
L 147 3053 
L 147 3500 
L 697 3500 
L 697 3744 
Q 697 4328 969 4595 
Q 1241 4863 1831 4863 
L 2375 4863 
z
" transform="scale(0.015625)"/>
       </defs>
       <use xlink:href="#DejaVuSans-52"/>
       <use xlink:href="#DejaVuSans-65" x="64.982422"/>
       <use xlink:href="#DejaVuSans-66" x="126.505859"/>
       <use xlink:href="#DejaVuSans-65" x="161.710938"/>
       <use xlink:href="#DejaVuSans-72" x="223.234375"/>
       <use xlink:href="#DejaVuSans-65" x="262.097656"/>
       <use xlink:href="#DejaVuSans-6e" x="323.621094"/>
       <use xlink:href="#DejaVuSans-63" x="387"/>
       <use xlink:href="#DejaVuSans-65" x="441.980469"/>
      </g>
     </g>
    </g>
    <g id="ytick_2">
     <g id="line2d_10">
      <g>
       <use xlink:href="#mf30c942c8f" x="105.41" y="134.167229" style="stroke: #000000; stroke-width: 0.8"/>
      </g>
     </g>
     <g id="text_11">
      <!-- 24h 4C +PBS -->
      <g transform="translate(27.489688 137.966448) scale(0.1 -0.1)">
       <defs>
        <path id="DejaVuSans-68" d="M 3513 2113 
L 3513 0 
L 2938 0 
L 2938 2094 
Q 2938 2591 2744 2837 
Q 2550 3084 2163 3084 
Q 1697 3084 1428 2787 
Q 1159 2491 1159 1978 
L 1159 0 
L 581 0 
L 581 4863 
L 1159 4863 
L 1159 2956 
Q 1366 3272 1645 3428 
Q 1925 3584 2291 3584 
Q 2894 3584 3203 3211 
Q 3513 2838 3513 2113 
z
" transform="scale(0.015625)"/>
        <path id="DejaVuSans-20" transform="scale(0.015625)"/>
        <path id="DejaVuSans-ba" d="M 434 1850 
L 2584 1850 
L 2584 1466 
L 434 1466 
L 434 1850 
z
M 1509 4750 
Q 2069 4750 2391 4404 
Q 2713 4059 2713 3463 
Q 2713 2866 2391 2523 
Q 2069 2181 1509 2181 
Q 950 2181 625 2525 
Q 300 2869 300 3463 
Q 300 4059 625 4404 
Q 950 4750 1509 4750 
z
M 1509 4391 
Q 1181 4391 984 4139 
Q 788 3888 788 3463 
Q 788 3047 986 2797 
Q 1184 2547 1509 2547 
Q 1838 2547 2033 2797 
Q 2228 3047 2228 3463 
Q 2228 3891 2034 4141 
Q 1841 4391 1509 4391 
z
" transform="scale(0.015625)"/>
        <path id="DejaVuSans-2b" d="M 2944 4013 
L 2944 2272 
L 4684 2272 
L 4684 1741 
L 2944 1741 
L 2944 0 
L 2419 0 
L 2419 1741 
L 678 1741 
L 678 2272 
L 2419 2272 
L 2419 4013 
L 2944 4013 
z
" transform="scale(0.015625)"/>
        <path id="DejaVuSans-50" d="M 1259 4147 
L 1259 2394 
L 2053 2394 
Q 2494 2394 2734 2622 
Q 2975 2850 2975 3272 
Q 2975 3691 2734 3919 
Q 2494 4147 2053 4147 
L 1259 4147 
z
M 628 4666 
L 2053 4666 
Q 2838 4666 3239 4311 
Q 3641 3956 3641 3272 
Q 3641 2581 3239 2228 
Q 2838 1875 2053 1875 
L 1259 1875 
L 1259 0 
L 628 0 
L 628 4666 
z
" transform="scale(0.015625)"/>
        <path id="DejaVuSans-42" d="M 1259 2228 
L 1259 519 
L 2272 519 
Q 2781 519 3026 730 
Q 3272 941 3272 1375 
Q 3272 1813 3026 2020 
Q 2781 2228 2272 2228 
L 1259 2228 
z
M 1259 4147 
L 1259 2741 
L 2194 2741 
Q 2656 2741 2882 2914 
Q 3109 3088 3109 3444 
Q 3109 3797 2882 3972 
Q 2656 4147 2194 4147 
L 1259 4147 
z
M 628 4666 
L 2241 4666 
Q 2963 4666 3353 4366 
Q 3744 4066 3744 3513 
Q 3744 3084 3544 2831 
Q 3344 2578 2956 2516 
Q 3422 2416 3680 2098 
Q 3938 1781 3938 1306 
Q 3938 681 3513 340 
Q 3088 0 2303 0 
L 628 0 
L 628 4666 
z
" transform="scale(0.015625)"/>
        <path id="DejaVuSans-53" d="M 3425 4513 
L 3425 3897 
Q 3066 4069 2747 4153 
Q 2428 4238 2131 4238 
Q 1616 4238 1336 4038 
Q 1056 3838 1056 3469 
Q 1056 3159 1242 3001 
Q 1428 2844 1947 2747 
L 2328 2669 
Q 3034 2534 3370 2195 
Q 3706 1856 3706 1288 
Q 3706 609 3251 259 
Q 2797 -91 1919 -91 
Q 1588 -91 1214 -16 
Q 841 59 441 206 
L 441 856 
Q 825 641 1194 531 
Q 1563 422 1919 422 
Q 2459 422 2753 634 
Q 3047 847 3047 1241 
Q 3047 1584 2836 1778 
Q 2625 1972 2144 2069 
L 1759 2144 
Q 1053 2284 737 2584 
Q 422 2884 422 3419 
Q 422 4038 858 4394 
Q 1294 4750 2059 4750 
Q 2388 4750 2728 4690 
Q 3069 4631 3425 4513 
z
" transform="scale(0.015625)"/>
       </defs>
       <use xlink:href="#DejaVuSans-32"/>
       <use xlink:href="#DejaVuSans-34" x="63.623047"/>
       <use xlink:href="#DejaVuSans-68" x="127.246094"/>
       <use xlink:href="#DejaVuSans-20" x="190.625"/>
       <use xlink:href="#DejaVuSans-34" x="222.412109"/>
       <use xlink:href="#DejaVuSans-ba" x="286.035156"/>
       <use xlink:href="#DejaVuSans-43" x="333.154297"/>
       <use xlink:href="#DejaVuSans-20" x="402.978516"/>
       <use xlink:href="#DejaVuSans-2b" x="434.765625"/>
       <use xlink:href="#DejaVuSans-50" x="518.554688"/>
       <use xlink:href="#DejaVuSans-42" x="578.857422"/>
       <use xlink:href="#DejaVuSans-53" x="645.710938"/>
      </g>
     </g>
    </g>
    <g id="ytick_3">
     <g id="line2d_11">
      <g>
       <use xlink:href="#mf30c942c8f" x="105.41" y="207.273735" style="stroke: #000000; stroke-width: 0.8"/>
      </g>
     </g>
     <g id="text_12">
      <!-- 72h 4C +PBS -->
      <g transform="translate(27.489688 211.072954) scale(0.1 -0.1)">
       <use xlink:href="#DejaVuSans-37"/>
       <use xlink:href="#DejaVuSans-32" x="63.623047"/>
       <use xlink:href="#DejaVuSans-68" x="127.246094"/>
       <use xlink:href="#DejaVuSans-20" x="190.625"/>
       <use xlink:href="#DejaVuSans-34" x="222.412109"/>
       <use xlink:href="#DejaVuSans-ba" x="286.035156"/>
       <use xlink:href="#DejaVuSans-43" x="333.154297"/>
       <use xlink:href="#DejaVuSans-20" x="402.978516"/>
       <use xlink:href="#DejaVuSans-2b" x="434.765625"/>
       <use xlink:href="#DejaVuSans-50" x="518.554688"/>
       <use xlink:href="#DejaVuSans-42" x="578.857422"/>
       <use xlink:href="#DejaVuSans-53" x="645.710938"/>
      </g>
     </g>
    </g>
    <g id="ytick_4">
     <g id="line2d_12">
      <g>
       <use xlink:href="#mf30c942c8f" x="105.41" y="280.380241" style="stroke: #000000; stroke-width: 0.8"/>
      </g>
     </g>
     <g id="text_13">
      <!-- 24h 4C -PBS -->
      <g transform="translate(32.261563 284.17946) scale(0.1 -0.1)">
       <defs>
        <path id="DejaVuSans-2d" d="M 313 2009 
L 1997 2009 
L 1997 1497 
L 313 1497 
L 313 2009 
z
" transform="scale(0.015625)"/>
       </defs>
       <use xlink:href="#DejaVuSans-32"/>
       <use xlink:href="#DejaVuSans-34" x="63.623047"/>
       <use xlink:href="#DejaVuSans-68" x="127.246094"/>
       <use xlink:href="#DejaVuSans-20" x="190.625"/>
       <use xlink:href="#DejaVuSans-34" x="222.412109"/>
       <use xlink:href="#DejaVuSans-ba" x="286.035156"/>
       <use xlink:href="#DejaVuSans-43" x="333.154297"/>
       <use xlink:href="#DejaVuSans-20" x="402.978516"/>
       <use xlink:href="#DejaVuSans-2d" x="434.765625"/>
       <use xlink:href="#DejaVuSans-50" x="470.849609"/>
       <use xlink:href="#DejaVuSans-42" x="531.152344"/>
       <use xlink:href="#DejaVuSans-53" x="598.005859"/>
      </g>
     </g>
    </g>
    <g id="ytick_5">
     <g id="line2d_13">
      <g>
       <use xlink:href="#mf30c942c8f" x="105.41" y="353.486747" style="stroke: #000000; stroke-width: 0.8"/>
      </g>
     </g>
     <g id="text_14">
      <!-- 72h 4C -PBS -->
      <g transform="translate(32.261563 357.285966) scale(0.1 -0.1)">
       <use xlink:href="#DejaVuSans-37"/>
       <use xlink:href="#DejaVuSans-32" x="63.623047"/>
       <use xlink:href="#DejaVuSans-68" x="127.246094"/>
       <use xlink:href="#DejaVuSans-20" x="190.625"/>
       <use xlink:href="#DejaVuSans-34" x="222.412109"/>
       <use xlink:href="#DejaVuSans-ba" x="286.035156"/>
       <use xlink:href="#DejaVuSans-43" x="333.154297"/>
       <use xlink:href="#DejaVuSans-20" x="402.978516"/>
       <use xlink:href="#DejaVuSans-2d" x="434.765625"/>
       <use xlink:href="#DejaVuSans-50" x="470.849609"/>
       <use xlink:href="#DejaVuSans-42" x="531.152344"/>
       <use xlink:href="#DejaVuSans-53" x="598.005859"/>
      </g>
     </g>
    </g>
    <g id="text_15">
     <!-- $log([PERM]/[Total Protein])$ -->
     <g transform="translate(21.389688 265.67) rotate(-90) scale(0.1 -0.1)">
      <defs>
       <path id="DejaVuSans-Oblique-6c" d="M 1172 4863 
L 1747 4863 
L 800 0 
L 225 0 
L 1172 4863 
z
" transform="scale(0.015625)"/>
       <path id="DejaVuSans-Oblique-6f" d="M 1625 -91 
Q 1009 -91 651 289 
Q 294 669 294 1325 
Q 294 1706 417 2101 
Q 541 2497 738 2766 
Q 1047 3184 1428 3384 
Q 1809 3584 2291 3584 
Q 2888 3584 3255 3212 
Q 3622 2841 3622 2241 
Q 3622 1825 3500 1412 
Q 3378 1000 3181 728 
Q 2875 309 2494 109 
Q 2113 -91 1625 -91 
z
M 891 1344 
Q 891 869 1089 633 
Q 1288 397 1691 397 
Q 2269 397 2648 901 
Q 3028 1406 3028 2181 
Q 3028 2634 2825 2865 
Q 2622 3097 2228 3097 
Q 1903 3097 1650 2945 
Q 1397 2794 1197 2484 
Q 1050 2253 970 1956 
Q 891 1659 891 1344 
z
" transform="scale(0.015625)"/>
       <path id="DejaVuSans-Oblique-67" d="M 3816 3500 
L 3219 434 
Q 3047 -456 2561 -893 
Q 2075 -1331 1253 -1331 
Q 950 -1331 690 -1286 
Q 431 -1241 206 -1147 
L 313 -588 
Q 525 -725 762 -790 
Q 1000 -856 1269 -856 
Q 1816 -856 2167 -557 
Q 2519 -259 2631 300 
L 2681 563 
Q 2441 288 2122 144 
Q 1803 0 1434 0 
Q 903 0 598 351 
Q 294 703 294 1319 
Q 294 1803 478 2267 
Q 663 2731 997 3091 
Q 1219 3328 1514 3456 
Q 1809 3584 2131 3584 
Q 2484 3584 2746 3420 
Q 3009 3256 3138 2956 
L 3238 3500 
L 3816 3500 
z
M 2950 2216 
Q 2950 2641 2750 2872 
Q 2550 3103 2181 3103 
Q 1953 3103 1747 3012 
Q 1541 2922 1394 2759 
Q 1156 2491 1023 2127 
Q 891 1763 891 1375 
Q 891 944 1092 712 
Q 1294 481 1672 481 
Q 2219 481 2584 976 
Q 2950 1472 2950 2216 
z
" transform="scale(0.015625)"/>
       <path id="DejaVuSans-28" d="M 1984 4856 
Q 1566 4138 1362 3434 
Q 1159 2731 1159 2009 
Q 1159 1288 1364 580 
Q 1569 -128 1984 -844 
L 1484 -844 
Q 1016 -109 783 600 
Q 550 1309 550 2009 
Q 550 2706 781 3412 
Q 1013 4119 1484 4856 
L 1984 4856 
z
" transform="scale(0.015625)"/>
       <path id="DejaVuSans-5b" d="M 550 4863 
L 1875 4863 
L 1875 4416 
L 1125 4416 
L 1125 -397 
L 1875 -397 
L 1875 -844 
L 550 -844 
L 550 4863 
z
" transform="scale(0.015625)"/>
       <path id="DejaVuSans-Oblique-50" d="M 1081 4666 
L 2541 4666 
Q 3178 4666 3512 4369 
Q 3847 4072 3847 3500 
Q 3847 2731 3353 2303 
Q 2859 1875 1966 1875 
L 1172 1875 
L 806 0 
L 172 0 
L 1081 4666 
z
M 1613 4147 
L 1275 2394 
L 2069 2394 
Q 2606 2394 2893 2669 
Q 3181 2944 3181 3456 
Q 3181 3784 2986 3965 
Q 2791 4147 2438 4147 
L 1613 4147 
z
" transform="scale(0.015625)"/>
       <path id="DejaVuSans-Oblique-45" d="M 1081 4666 
L 4031 4666 
L 3928 4134 
L 1606 4134 
L 1338 2753 
L 3566 2753 
L 3463 2222 
L 1234 2222 
L 909 531 
L 3284 531 
L 3181 0 
L 172 0 
L 1081 4666 
z
" transform="scale(0.015625)"/>
       <path id="DejaVuSans-Oblique-52" d="M 1613 4147 
L 1294 2491 
L 2106 2491 
Q 2584 2491 2879 2755 
Q 3175 3019 3175 3444 
Q 3175 3784 2976 3965 
Q 2778 4147 2406 4147 
L 1613 4147 
z
M 2772 2241 
Q 2972 2194 3105 2009 
Q 3238 1825 3413 1275 
L 3809 0 
L 3144 0 
L 2778 1197 
Q 2638 1659 2453 1815 
Q 2269 1972 1888 1972 
L 1191 1972 
L 806 0 
L 172 0 
L 1081 4666 
L 2503 4666 
Q 3150 4666 3495 4373 
Q 3841 4081 3841 3531 
Q 3841 3044 3547 2687 
Q 3253 2331 2772 2241 
z
" transform="scale(0.015625)"/>
       <path id="DejaVuSans-Oblique-4d" d="M 1081 4666 
L 2028 4666 
L 2572 1522 
L 4378 4666 
L 5350 4666 
L 4441 0 
L 3828 0 
L 4622 4091 
L 2791 897 
L 2175 897 
L 1581 4103 
L 788 0 
L 172 0 
L 1081 4666 
z
" transform="scale(0.015625)"/>
       <path id="DejaVuSans-5d" d="M 1947 4863 
L 1947 -844 
L 622 -844 
L 622 -397 
L 1369 -397 
L 1369 4416 
L 622 4416 
L 622 4863 
L 1947 4863 
z
" transform="scale(0.015625)"/>
       <path id="DejaVuSans-2f" d="M 1625 4666 
L 2156 4666 
L 531 -594 
L 0 -594 
L 1625 4666 
z
" transform="scale(0.015625)"/>
       <path id="DejaVuSans-Oblique-54" d="M 378 4666 
L 4325 4666 
L 4225 4134 
L 2559 4134 
L 1759 0 
L 1125 0 
L 1925 4134 
L 275 4134 
L 378 4666 
z
" transform="scale(0.015625)"/>
       <path id="DejaVuSans-Oblique-74" d="M 2706 3500 
L 2619 3053 
L 1472 3053 
L 1100 1153 
Q 1081 1047 1072 975 
Q 1063 903 1063 863 
Q 1063 663 1183 572 
Q 1303 481 1569 481 
L 2150 481 
L 2053 0 
L 1503 0 
Q 991 0 739 200 
Q 488 400 488 806 
Q 488 878 497 964 
Q 506 1050 525 1153 
L 897 3053 
L 409 3053 
L 500 3500 
L 978 3500 
L 1172 4494 
L 1747 4494 
L 1556 3500 
L 2706 3500 
z
" transform="scale(0.015625)"/>
       <path id="DejaVuSans-Oblique-61" d="M 3438 1997 
L 3047 0 
L 2472 0 
L 2578 531 
Q 2325 219 2001 64 
Q 1678 -91 1281 -91 
Q 834 -91 548 182 
Q 263 456 263 884 
Q 263 1497 752 1853 
Q 1241 2209 2100 2209 
L 2900 2209 
L 2931 2363 
Q 2938 2388 2941 2417 
Q 2944 2447 2944 2509 
Q 2944 2788 2717 2942 
Q 2491 3097 2081 3097 
Q 1800 3097 1504 3025 
Q 1209 2953 897 2809 
L 997 3341 
Q 1322 3463 1633 3523 
Q 1944 3584 2234 3584 
Q 2853 3584 3176 3315 
Q 3500 3047 3500 2534 
Q 3500 2431 3484 2292 
Q 3469 2153 3438 1997 
z
M 2816 1759 
L 2241 1759 
Q 1534 1759 1195 1570 
Q 856 1381 856 984 
Q 856 709 1029 553 
Q 1203 397 1509 397 
Q 1978 397 2328 733 
Q 2678 1069 2791 1631 
L 2816 1759 
z
" transform="scale(0.015625)"/>
       <path id="DejaVuSans-Oblique-72" d="M 2853 2969 
Q 2766 3016 2653 3041 
Q 2541 3066 2413 3066 
Q 1953 3066 1609 2717 
Q 1266 2369 1153 1784 
L 800 0 
L 225 0 
L 909 3500 
L 1484 3500 
L 1375 2956 
Q 1603 3259 1920 3421 
Q 2238 3584 2597 3584 
Q 2691 3584 2781 3573 
Q 2872 3563 2963 3538 
L 2853 2969 
z
" transform="scale(0.015625)"/>
       <path id="DejaVuSans-Oblique-65" d="M 3078 2063 
Q 3088 2113 3092 2166 
Q 3097 2219 3097 2272 
Q 3097 2653 2873 2875 
Q 2650 3097 2266 3097 
Q 1838 3097 1509 2826 
Q 1181 2556 1013 2059 
L 3078 2063 
z
M 3578 1613 
L 903 1613 
Q 884 1494 878 1425 
Q 872 1356 872 1306 
Q 872 872 1139 634 
Q 1406 397 1894 397 
Q 2269 397 2603 481 
Q 2938 566 3225 728 
L 3116 159 
Q 2806 34 2476 -28 
Q 2147 -91 1806 -91 
Q 1078 -91 686 257 
Q 294 606 294 1247 
Q 294 1794 489 2264 
Q 684 2734 1063 3103 
Q 1306 3334 1642 3459 
Q 1978 3584 2356 3584 
Q 2950 3584 3301 3228 
Q 3653 2872 3653 2272 
Q 3653 2128 3634 1964 
Q 3616 1800 3578 1613 
z
" transform="scale(0.015625)"/>
       <path id="DejaVuSans-Oblique-69" d="M 1172 4863 
L 1747 4863 
L 1606 4134 
L 1031 4134 
L 1172 4863 
z
M 909 3500 
L 1484 3500 
L 800 0 
L 225 0 
L 909 3500 
z
" transform="scale(0.015625)"/>
       <path id="DejaVuSans-Oblique-6e" d="M 3566 2113 
L 3156 0 
L 2578 0 
L 2988 2091 
Q 3016 2238 3031 2350 
Q 3047 2463 3047 2528 
Q 3047 2791 2881 2937 
Q 2716 3084 2419 3084 
Q 1956 3084 1622 2776 
Q 1288 2469 1184 1941 
L 800 0 
L 225 0 
L 903 3500 
L 1478 3500 
L 1363 2950 
Q 1603 3253 1940 3418 
Q 2278 3584 2650 3584 
Q 3113 3584 3367 3334 
Q 3622 3084 3622 2631 
Q 3622 2519 3608 2391 
Q 3594 2263 3566 2113 
z
" transform="scale(0.015625)"/>
       <path id="DejaVuSans-29" d="M 513 4856 
L 1013 4856 
Q 1481 4119 1714 3412 
Q 1947 2706 1947 2009 
Q 1947 1309 1714 600 
Q 1481 -109 1013 -844 
L 513 -844 
Q 928 -128 1133 580 
Q 1338 1288 1338 2009 
Q 1338 2731 1133 3434 
Q 928 4138 513 4856 
z
" transform="scale(0.015625)"/>
      </defs>
      <use xlink:href="#DejaVuSans-Oblique-6c" transform="translate(0 0.015625)"/>
      <use xlink:href="#DejaVuSans-Oblique-6f" transform="translate(27.783203 0.015625)"/>
      <use xlink:href="#DejaVuSans-Oblique-67" transform="translate(88.964844 0.015625)"/>
      <use xlink:href="#DejaVuSans-28" transform="translate(152.441406 0.015625)"/>
      <use xlink:href="#DejaVuSans-5b" transform="translate(191.455078 0.015625)"/>
      <use xlink:href="#DejaVuSans-Oblique-50" transform="translate(230.46875 0.015625)"/>
      <use xlink:href="#DejaVuSans-Oblique-45" transform="translate(290.771484 0.015625)"/>
      <use xlink:href="#DejaVuSans-Oblique-52" transform="translate(353.955078 0.015625)"/>
      <use xlink:href="#DejaVuSans-Oblique-4d" transform="translate(423.4375 0.015625)"/>
      <use xlink:href="#DejaVuSans-5d" transform="translate(509.716797 0.015625)"/>
      <use xlink:href="#DejaVuSans-2f" transform="translate(548.730469 0.015625)"/>
      <use xlink:href="#DejaVuSans-5b" transform="translate(582.421875 0.015625)"/>
      <use xlink:href="#DejaVuSans-Oblique-54" transform="translate(621.435547 0.015625)"/>
      <use xlink:href="#DejaVuSans-Oblique-6f" transform="translate(682.519531 0.015625)"/>
      <use xlink:href="#DejaVuSans-Oblique-74" transform="translate(743.701172 0.015625)"/>
      <use xlink:href="#DejaVuSans-Oblique-61" transform="translate(782.910156 0.015625)"/>
      <use xlink:href="#DejaVuSans-Oblique-6c" transform="translate(844.189453 0.015625)"/>
      <use xlink:href="#DejaVuSans-Oblique-50" transform="translate(871.972656 0.015625)"/>
      <use xlink:href="#DejaVuSans-Oblique-72" transform="translate(932.275391 0.015625)"/>
      <use xlink:href="#DejaVuSans-Oblique-6f" transform="translate(973.388672 0.015625)"/>
      <use xlink:href="#DejaVuSans-Oblique-74" transform="translate(1034.570312 0.015625)"/>
      <use xlink:href="#DejaVuSans-Oblique-65" transform="translate(1073.779297 0.015625)"/>
      <use xlink:href="#DejaVuSans-Oblique-69" transform="translate(1135.302734 0.015625)"/>
      <use xlink:href="#DejaVuSans-Oblique-6e" transform="translate(1163.085938 0.015625)"/>
      <use xlink:href="#DejaVuSans-5d" transform="translate(1226.464844 0.015625)"/>
      <use xlink:href="#DejaVuSans-29" transform="translate(1265.478516 0.015625)"/>
     </g>
    </g>
   </g>
   <g id="line2d_14">
    <path d="M 374.232041 58.319229 
L 374.232041 63.802217 
" clip-path="url(#p367a229939)" style="fill: none; stroke: #434343; stroke-width: 1.5; stroke-linecap: square"/>
   </g>
   <g id="line2d_15">
    <path d="M 627.519918 58.319229 
L 627.519918 63.802217 
" clip-path="url(#p367a229939)" style="fill: none; stroke: #434343; stroke-width: 1.5; stroke-linecap: square"/>
   </g>
   <g id="line2d_16">
    <defs>
     <path id="m5df285e71d" d="M -0 3.535534 
L 2.12132 0 
L -0 -3.535534 
L -2.12132 -0 
z
" style="stroke: #434343; stroke-linejoin: miter"/>
    </defs>
    <g clip-path="url(#p367a229939)">
     <use xlink:href="#m5df285e71d" x="132.855" y="61.060723" style="fill: #434343; stroke: #434343; stroke-linejoin: miter"/>
     <use xlink:href="#m5df285e71d" x="638.819844" y="61.060723" style="fill: #434343; stroke: #434343; stroke-linejoin: miter"/>
     <use xlink:href="#m5df285e71d" x="661.416997" y="61.060723" style="fill: #434343; stroke: #434343; stroke-linejoin: miter"/>
    </g>
   </g>
   <g id="line2d_17">
    <path d="M 363.797771 131.425735 
L 363.797771 136.908723 
" clip-path="url(#p367a229939)" style="fill: none; stroke: #434343; stroke-width: 1.5; stroke-linecap: square"/>
   </g>
   <g id="line2d_18">
    <path d="M 611.669322 131.425735 
L 611.669322 136.908723 
" clip-path="url(#p367a229939)" style="fill: none; stroke: #434343; stroke-width: 1.5; stroke-linecap: square"/>
   </g>
   <g id="line2d_19">
    <g clip-path="url(#p367a229939)">
     <use xlink:href="#m5df285e71d" x="242.195932" y="134.167229" style="fill: #434343; stroke: #434343; stroke-linejoin: miter"/>
     <use xlink:href="#m5df285e71d" x="280.739846" y="134.167229" style="fill: #434343; stroke: #434343; stroke-linejoin: miter"/>
     <use xlink:href="#m5df285e71d" x="681.755" y="134.167229" style="fill: #434343; stroke: #434343; stroke-linejoin: miter"/>
    </g>
   </g>
   <g id="line2d_20">
    <path d="M 340.321504 204.532241 
L 340.321504 210.015229 
" clip-path="url(#p367a229939)" style="fill: none; stroke: #434343; stroke-width: 1.5; stroke-linecap: square"/>
   </g>
   <g id="line2d_21">
    <path d="M 617.956622 204.532241 
L 617.956622 210.015229 
" clip-path="url(#p367a229939)" style="fill: none; stroke: #434343; stroke-width: 1.5; stroke-linecap: square"/>
   </g>
   <g id="line2d_22"/>
   <g id="line2d_23">
    <path d="M 368.67847 277.638747 
L 368.67847 283.121735 
" clip-path="url(#p367a229939)" style="fill: none; stroke: #434343; stroke-width: 1.5; stroke-linecap: square"/>
   </g>
   <g id="line2d_24">
    <path d="M 660.865736 277.638747 
L 660.865736 283.121735 
" clip-path="url(#p367a229939)" style="fill: none; stroke: #434343; stroke-width: 1.5; stroke-linecap: square"/>
   </g>
   <g id="line2d_25">
    <g clip-path="url(#p367a229939)">
     <use xlink:href="#m5df285e71d" x="226.258071" y="280.380241" style="fill: #434343; stroke: #434343; stroke-linejoin: miter"/>
    </g>
   </g>
   <g id="line2d_26">
    <path d="M 333.86328 350.745253 
L 333.86328 356.228241 
" clip-path="url(#p367a229939)" style="fill: none; stroke: #434343; stroke-width: 1.5; stroke-linecap: square"/>
   </g>
   <g id="line2d_27">
    <path d="M 659.058968 350.745253 
L 659.058968 356.228241 
" clip-path="url(#p367a229939)" style="fill: none; stroke: #434343; stroke-width: 1.5; stroke-linecap: square"/>
   </g>
   <g id="line2d_28">
    <g clip-path="url(#p367a229939)">
     <use xlink:href="#m5df285e71d" x="676.214118" y="353.486747" style="fill: #434343; stroke: #434343; stroke-linejoin: miter"/>
    </g>
   </g>
   <g id="line2d_29">
    <path d="M 487.758463 55.577735 
L 487.758463 66.543711 
" clip-path="url(#p367a229939)" style="fill: none; stroke: #434343; stroke-width: 1.5; stroke-linecap: square"/>
   </g>
   <g id="line2d_30">
    <path d="M 511.37093 128.684241 
L 511.37093 139.650217 
" clip-path="url(#p367a229939)" style="fill: none; stroke: #434343; stroke-width: 1.5; stroke-linecap: square"/>
   </g>
   <g id="line2d_31">
    <path d="M 483.074229 201.790747 
L 483.074229 212.756723 
" clip-path="url(#p367a229939)" style="fill: none; stroke: #434343; stroke-width: 1.5; stroke-linecap: square"/>
   </g>
   <g id="line2d_32">
    <path d="M 483.764802 274.897253 
L 483.764802 285.863229 
" clip-path="url(#p367a229939)" style="fill: none; stroke: #434343; stroke-width: 1.5; stroke-linecap: square"/>
   </g>
   <g id="line2d_33">
    <path d="M 498.787253 348.003759 
L 498.787253 358.969735 
" clip-path="url(#p367a229939)" style="fill: none; stroke: #434343; stroke-width: 1.5; stroke-linecap: square"/>
   </g>
   <g id="patch_3">
    <path d="M 105.41 390.04 
L 105.41 10.8 
" style="fill: none; stroke: #000000; stroke-width: 0.8; stroke-linejoin: miter; stroke-linecap: square"/>
   </g>
   <g id="patch_4">
    <path d="M 709.2 390.04 
L 709.2 10.8 
" style="fill: none; stroke: #000000; stroke-width: 0.8; stroke-linejoin: miter; stroke-linecap: square"/>
   </g>
   <g id="patch_5">
    <path d="M 105.41 390.04 
L 709.2 390.04 
" style="fill: none; stroke: #000000; stroke-width: 0.8; stroke-linejoin: miter; stroke-linecap: square"/>
   </g>
   <g id="patch_6">
    <path d="M 105.41 10.8 
L 709.2 10.8 
" style="fill: none; stroke: #000000; stroke-width: 0.8; stroke-linejoin: miter; stroke-linecap: square"/>
   </g>
   <g id="patch_7">
    <path d="M 438.02888 55.577735 
L 438.02888 66.543711 
L 515.70834 66.543711 
L 515.70834 55.577735 
L 438.02888 55.577735 
L 438.02888 55.577735 
z
" clip-path="url(#p367a229939)" style="fill: none; stroke: #434343; stroke-width: 1.5; stroke-linejoin: miter"/>
   </g>
   <g id="line2d_34">
    <path d="M 438.02888 61.060723 
L 374.232041 61.060723 
" clip-path="url(#p367a229939)" style="fill: none; stroke: #434343; stroke-width: 2; stroke-linecap: square"/>
   </g>
   <g id="line2d_35">
    <path d="M 515.70834 61.060723 
L 627.519918 61.060723 
" clip-path="url(#p367a229939)" style="fill: none; stroke: #434343; stroke-width: 2; stroke-linecap: square"/>
   </g>
   <g id="patch_8">
    <path d="M 462.790941 128.684241 
L 462.790941 139.650217 
L 533.99647 139.650217 
L 533.99647 128.684241 
L 462.790941 128.684241 
L 462.790941 128.684241 
z
" clip-path="url(#p367a229939)" style="fill: none; stroke: #434343; stroke-width: 1.5; stroke-linejoin: miter"/>
   </g>
   <g id="line2d_36">
    <path d="M 462.790941 134.167229 
L 363.797771 134.167229 
" clip-path="url(#p367a229939)" style="fill: none; stroke: #434343; stroke-width: 2; stroke-linecap: square"/>
   </g>
   <g id="line2d_37">
    <path d="M 533.99647 134.167229 
L 611.669322 134.167229 
" clip-path="url(#p367a229939)" style="fill: none; stroke: #434343; stroke-width: 2; stroke-linecap: square"/>
   </g>
   <g id="patch_9">
    <path d="M 448.41309 201.790747 
L 448.41309 212.756723 
L 536.378267 212.756723 
L 536.378267 201.790747 
L 448.41309 201.790747 
L 448.41309 201.790747 
z
" clip-path="url(#p367a229939)" style="fill: none; stroke: #434343; stroke-width: 1.5; stroke-linejoin: miter"/>
   </g>
   <g id="line2d_38">
    <path d="M 448.41309 207.273735 
L 340.321504 207.273735 
" clip-path="url(#p367a229939)" style="fill: none; stroke: #434343; stroke-width: 2; stroke-linecap: square"/>
   </g>
   <g id="line2d_39">
    <path d="M 536.378267 207.273735 
L 617.956622 207.273735 
" clip-path="url(#p367a229939)" style="fill: none; stroke: #434343; stroke-width: 2; stroke-linecap: square"/>
   </g>
   <g id="patch_10">
    <path d="M 450.342762 274.897253 
L 450.342762 285.863229 
L 535.605674 285.863229 
L 535.605674 274.897253 
L 450.342762 274.897253 
L 450.342762 274.897253 
z
" clip-path="url(#p367a229939)" style="fill: none; stroke: #434343; stroke-width: 1.5; stroke-linejoin: miter"/>
   </g>
   <g id="line2d_40">
    <path d="M 450.342762 280.380241 
L 368.67847 280.380241 
" clip-path="url(#p367a229939)" style="fill: none; stroke: #434343; stroke-width: 2; stroke-linecap: square"/>
   </g>
   <g id="line2d_41">
    <path d="M 535.605674 280.380241 
L 660.865736 280.380241 
" clip-path="url(#p367a229939)" style="fill: none; stroke: #434343; stroke-width: 2; stroke-linecap: square"/>
   </g>
   <g id="patch_11">
    <path d="M 458.481949 348.003759 
L 458.481949 358.969735 
L 545.148488 358.969735 
L 545.148488 348.003759 
L 458.481949 348.003759 
L 458.481949 348.003759 
z
" clip-path="url(#p367a229939)" style="fill: none; stroke: #434343; stroke-width: 1.5; stroke-linejoin: miter"/>
   </g>
   <g id="line2d_42">
    <path d="M 458.481949 353.486747 
L 333.86328 353.486747 
" clip-path="url(#p367a229939)" style="fill: none; stroke: #434343; stroke-width: 2; stroke-linecap: square"/>
   </g>
   <g id="line2d_43">
    <path d="M 545.148488 353.486747 
L 659.058968 353.486747 
" clip-path="url(#p367a229939)" style="fill: none; stroke: #434343; stroke-width: 2; stroke-linecap: square"/>
   </g>
  </g>
 </g>
 <defs>
  <clipPath id="p367a229939">
   <rect x="105.41" y="10.8" width="603.79" height="379.24"/>
  </clipPath>
 </defs>
</svg>
