<?xml version="1.0" encoding="utf-8" standalone="no"?>
<!DOCTYPE svg PUBLIC "-//W3C//DTD SVG 1.1//EN"
  "http://www.w3.org/Graphics/SVG/1.1/DTD/svg11.dtd">
<svg xmlns:xlink="http://www.w3.org/1999/xlink" width="720pt" height="432pt" viewBox="0 0 720 432" xmlns="http://www.w3.org/2000/svg" version="1.1">
 <metadata>
  <rdf:RDF xmlns:dc="http://purl.org/dc/elements/1.1/" xmlns:cc="http://creativecommons.org/ns#" xmlns:rdf="http://www.w3.org/1999/02/22-rdf-syntax-ns#">
   <cc:Work>
    <dc:type rdf:resource="http://purl.org/dc/dcmitype/StillImage"/>
    <dc:date>2024-09-30T14:00:14.074698</dc:date>
    <dc:format>image/svg+xml</dc:format>
    <dc:creator>
     <cc:Agent>
      <dc:title>Matplotlib v3.7.3, https://matplotlib.org/</dc:title>
     </cc:Agent>
    </dc:creator>
   </cc:Work>
  </rdf:RDF>
 </metadata>
 <defs>
  <style type="text/css">*{stroke-linejoin: round; stroke-linecap: butt}</style>
 </defs>
 <g id="figure_1">
  <g id="patch_1">
   <path d="M 0 432 
L 720 432 
L 720 0 
L 0 0 
z
" style="fill: #ffffff"/>
  </g>
  <g id="axes_1">
   <g id="patch_2">
    <path d="M 105.41 390.04 
L 709.2 390.04 
L 709.2 10.8 
L 105.41 10.8 
z
" style="fill: #ffffff"/>
   </g>
   <g id="PathCollection_1">
    <defs>
     <path id="C0_0_11eacb89f9" d="M 0 1.5 
C 0.397805 1.5 0.77937 1.341951 1.06066 1.06066 
C 1.341951 0.77937 1.5 0.397805 1.5 -0 
C 1.5 -0.397805 1.341951 -0.77937 1.06066 -1.06066 
C 0.77937 -1.341951 0.397805 -1.5 0 -1.5 
C -0.397805 -1.5 -0.77937 -1.341951 -1.06066 -1.06066 
C -1.341951 -0.77937 -1.5 -0.397805 -1.5 0 
C -1.5 0.397805 -1.341951 0.77937 -1.06066 1.06066 
C -0.77937 1.341951 -0.397805 1.5 0 1.5 
z
"/>
    </defs>
    <g clip-path="url(#pe1d793bd87)">
     <use xlink:href="#C0_0_11eacb89f9" x="166.879302" y="60.994169" style="fill: #f77189"/>
    </g>
    <g clip-path="url(#pe1d793bd87)">
     <use xlink:href="#C0_0_11eacb89f9" x="155.436282" y="60.026995" style="fill: #f77189"/>
    </g>
    <g clip-path="url(#pe1d793bd87)">
     <use xlink:href="#C0_0_11eacb89f9" x="147.723687" y="68.133046" style="fill: #f77189"/>
    </g>
    <g clip-path="url(#pe1d793bd87)">
     <use xlink:href="#C0_0_11eacb89f9" x="152.200667" y="67.855894" style="fill: #f77189"/>
    </g>
    <g clip-path="url(#pe1d793bd87)">
     <use xlink:href="#C0_0_11eacb89f9" x="162.392044" y="55.410483" style="fill: #f77189"/>
    </g>
    <g clip-path="url(#pe1d793bd87)">
     <use xlink:href="#C0_0_11eacb89f9" x="152.597273" y="62.529988" style="fill: #f77189"/>
    </g>
    <g clip-path="url(#pe1d793bd87)">
     <use xlink:href="#C0_0_11eacb89f9" x="183.238936" y="57.713767" style="fill: #f77189"/>
    </g>
    <g clip-path="url(#pe1d793bd87)">
     <use xlink:href="#C0_0_11eacb89f9" x="174.390362" y="56.677981" style="fill: #f77189"/>
    </g>
    <g clip-path="url(#pe1d793bd87)">
     <use xlink:href="#C0_0_11eacb89f9" x="180.370238" y="56.975896" style="fill: #f77189"/>
    </g>
    <g clip-path="url(#pe1d793bd87)">
     <use xlink:href="#C0_0_11eacb89f9" x="159.372986" y="55.7962" style="fill: #f77189"/>
    </g>
    <g clip-path="url(#pe1d793bd87)">
     <use xlink:href="#C0_0_11eacb89f9" x="199.619291" y="55.814824" style="fill: #f77189"/>
    </g>
    <g clip-path="url(#pe1d793bd87)">
     <use xlink:href="#C0_0_11eacb89f9" x="216.83406" y="67.339182" style="fill: #f77189"/>
    </g>
    <g clip-path="url(#pe1d793bd87)">
     <use xlink:href="#C0_0_11eacb89f9" x="519.125901" y="57.853814" style="fill: #f77189"/>
    </g>
    <g clip-path="url(#pe1d793bd87)">
     <use xlink:href="#C0_0_11eacb89f9" x="279.296611" y="62.457909" style="fill: #f77189"/>
    </g>
    <g clip-path="url(#pe1d793bd87)">
     <use xlink:href="#C0_0_11eacb89f9" x="413.782992" y="67.683782" style="fill: #f77189"/>
    </g>
    <g clip-path="url(#pe1d793bd87)">
     <use xlink:href="#C0_0_11eacb89f9" x="431.500602" y="64.150942" style="fill: #f77189"/>
    </g>
    <g clip-path="url(#pe1d793bd87)">
     <use xlink:href="#C0_0_11eacb89f9" x="348.721124" y="56.671854" style="fill: #f77189"/>
    </g>
    <g clip-path="url(#pe1d793bd87)">
     <use xlink:href="#C0_0_11eacb89f9" x="154.505603" y="56.446736" style="fill: #f77189"/>
    </g>
    <g clip-path="url(#pe1d793bd87)">
     <use xlink:href="#C0_0_11eacb89f9" x="165.257015" y="54.660387" style="fill: #f77189"/>
    </g>
    <g clip-path="url(#pe1d793bd87)">
     <use xlink:href="#C0_0_11eacb89f9" x="166.865375" y="64.927563" style="fill: #f77189"/>
    </g>
    <g clip-path="url(#pe1d793bd87)">
     <use xlink:href="#C0_0_11eacb89f9" x="144.497735" y="53.983133" style="fill: #f77189"/>
    </g>
    <g clip-path="url(#pe1d793bd87)">
     <use xlink:href="#C0_0_11eacb89f9" x="151.40476" y="62.489567" style="fill: #f77189"/>
    </g>
    <g clip-path="url(#pe1d793bd87)">
     <use xlink:href="#C0_0_11eacb89f9" x="185.399394" y="58.513702" style="fill: #f77189"/>
    </g>
    <g clip-path="url(#pe1d793bd87)">
     <use xlink:href="#C0_0_11eacb89f9" x="197.813572" y="56.006022" style="fill: #f77189"/>
    </g>
    <g clip-path="url(#pe1d793bd87)">
     <use xlink:href="#C0_0_11eacb89f9" x="205.076403" y="61.977363" style="fill: #f77189"/>
    </g>
    <g clip-path="url(#pe1d793bd87)">
     <use xlink:href="#C0_0_11eacb89f9" x="150.030833" y="59.819644" style="fill: #f77189"/>
    </g>
    <g clip-path="url(#pe1d793bd87)">
     <use xlink:href="#C0_0_11eacb89f9" x="139.728286" y="63.800799" style="fill: #f77189"/>
    </g>
    <g clip-path="url(#pe1d793bd87)">
     <use xlink:href="#C0_0_11eacb89f9" x="140.018258" y="65.982121" style="fill: #f77189"/>
    </g>
   </g>
   <g id="PathCollection_2">
    <defs>
     <path id="C1_0_02cd1cb261" d="M 0 1.5 
C 0.397805 1.5 0.77937 1.341951 1.06066 1.06066 
C 1.341951 0.77937 1.5 0.397805 1.5 -0 
C 1.5 -0.397805 1.341951 -0.77937 1.06066 -1.06066 
C 0.77937 -1.341951 0.397805 -1.5 0 -1.5 
C -0.397805 -1.5 -0.77937 -1.341951 -1.06066 -1.06066 
C -1.341951 -0.77937 -1.5 -0.397805 -1.5 0 
C -1.5 0.397805 -1.341951 0.77937 -1.06066 1.06066 
C -0.77937 1.341951 -0.397805 1.5 0 1.5 
z
"/>
    </defs>
    <g clip-path="url(#pe1d793bd87)">
     <use xlink:href="#C1_0_02cd1cb261" x="137.483029" y="135.698306" style="fill: #ae9d31"/>
    </g>
    <g clip-path="url(#pe1d793bd87)">
     <use xlink:href="#C1_0_02cd1cb261" x="136.876693" y="130.049715" style="fill: #ae9d31"/>
    </g>
    <g clip-path="url(#pe1d793bd87)">
     <use xlink:href="#C1_0_02cd1cb261" x="138.475787" y="128.316172" style="fill: #ae9d31"/>
    </g>
    <g clip-path="url(#pe1d793bd87)">
     <use xlink:href="#C1_0_02cd1cb261" x="141.748363" y="130.016406" style="fill: #ae9d31"/>
    </g>
    <g clip-path="url(#pe1d793bd87)">
     <use xlink:href="#C1_0_02cd1cb261" x="142.066169" y="140.827458" style="fill: #ae9d31"/>
    </g>
    <g clip-path="url(#pe1d793bd87)">
     <use xlink:href="#C1_0_02cd1cb261" x="145.457454" y="129.299143" style="fill: #ae9d31"/>
    </g>
    <g clip-path="url(#pe1d793bd87)">
     <use xlink:href="#C1_0_02cd1cb261" x="154.510729" y="141.420207" style="fill: #ae9d31"/>
    </g>
    <g clip-path="url(#pe1d793bd87)">
     <use xlink:href="#C1_0_02cd1cb261" x="148.734494" y="134.242483" style="fill: #ae9d31"/>
    </g>
    <g clip-path="url(#pe1d793bd87)">
     <use xlink:href="#C1_0_02cd1cb261" x="147.253217" y="140.541486" style="fill: #ae9d31"/>
    </g>
    <g clip-path="url(#pe1d793bd87)">
     <use xlink:href="#C1_0_02cd1cb261" x="207.676189" y="132.125757" style="fill: #ae9d31"/>
    </g>
    <g clip-path="url(#pe1d793bd87)">
     <use xlink:href="#C1_0_02cd1cb261" x="191.051025" y="127.951567" style="fill: #ae9d31"/>
    </g>
    <g clip-path="url(#pe1d793bd87)">
     <use xlink:href="#C1_0_02cd1cb261" x="199.152425" y="127.722912" style="fill: #ae9d31"/>
    </g>
    <g clip-path="url(#pe1d793bd87)">
     <use xlink:href="#C1_0_02cd1cb261" x="239.764617" y="137.6352" style="fill: #ae9d31"/>
    </g>
    <g clip-path="url(#pe1d793bd87)">
     <use xlink:href="#C1_0_02cd1cb261" x="358.248231" y="140.660595" style="fill: #ae9d31"/>
    </g>
    <g clip-path="url(#pe1d793bd87)">
     <use xlink:href="#C1_0_02cd1cb261" x="236.8061" y="138.886955" style="fill: #ae9d31"/>
    </g>
    <g clip-path="url(#pe1d793bd87)">
     <use xlink:href="#C1_0_02cd1cb261" x="274.831252" y="137.510655" style="fill: #ae9d31"/>
    </g>
    <g clip-path="url(#pe1d793bd87)">
     <use xlink:href="#C1_0_02cd1cb261" x="295.138444" y="128.991509" style="fill: #ae9d31"/>
    </g>
    <g clip-path="url(#pe1d793bd87)">
     <use xlink:href="#C1_0_02cd1cb261" x="135.103292" y="140.831536" style="fill: #ae9d31"/>
    </g>
    <g clip-path="url(#pe1d793bd87)">
     <use xlink:href="#C1_0_02cd1cb261" x="133.335687" y="135.956464" style="fill: #ae9d31"/>
    </g>
    <g clip-path="url(#pe1d793bd87)">
     <use xlink:href="#C1_0_02cd1cb261" x="143.433645" y="128.012683" style="fill: #ae9d31"/>
    </g>
    <g clip-path="url(#pe1d793bd87)">
     <use xlink:href="#C1_0_02cd1cb261" x="139.126551" y="132.67941" style="fill: #ae9d31"/>
    </g>
    <g clip-path="url(#pe1d793bd87)">
     <use xlink:href="#C1_0_02cd1cb261" x="139.383894" y="136.174587" style="fill: #ae9d31"/>
    </g>
    <g clip-path="url(#pe1d793bd87)">
     <use xlink:href="#C1_0_02cd1cb261" x="142.452703" y="132.591702" style="fill: #ae9d31"/>
    </g>
    <g clip-path="url(#pe1d793bd87)">
     <use xlink:href="#C1_0_02cd1cb261" x="150.32633" y="133.001947" style="fill: #ae9d31"/>
    </g>
    <g clip-path="url(#pe1d793bd87)">
     <use xlink:href="#C1_0_02cd1cb261" x="147.178388" y="136.090469" style="fill: #ae9d31"/>
    </g>
    <g clip-path="url(#pe1d793bd87)">
     <use xlink:href="#C1_0_02cd1cb261" x="147.443914" y="130.168905" style="fill: #ae9d31"/>
    </g>
    <g clip-path="url(#pe1d793bd87)">
     <use xlink:href="#C1_0_02cd1cb261" x="194.409927" y="136.379149" style="fill: #ae9d31"/>
    </g>
    <g clip-path="url(#pe1d793bd87)">
     <use xlink:href="#C1_0_02cd1cb261" x="192.415113" y="138.471692" style="fill: #ae9d31"/>
    </g>
    <g clip-path="url(#pe1d793bd87)">
     <use xlink:href="#C1_0_02cd1cb261" x="184.79072" y="132.143777" style="fill: #ae9d31"/>
    </g>
   </g>
   <g id="PathCollection_3">
    <defs>
     <path id="C2_0_21144a06aa" d="M 0 1.5 
C 0.397805 1.5 0.77937 1.341951 1.06066 1.06066 
C 1.341951 0.77937 1.5 0.397805 1.5 -0 
C 1.5 -0.397805 1.341951 -0.77937 1.06066 -1.06066 
C 0.77937 -1.341951 0.397805 -1.5 0 -1.5 
C -0.397805 -1.5 -0.77937 -1.341951 -1.06066 -1.06066 
C -1.341951 -0.77937 -1.5 -0.397805 -1.5 0 
C -1.5 0.397805 -1.341951 0.77937 -1.06066 1.06066 
C -0.77937 1.341951 -0.397805 1.5 0 1.5 
z
"/>
    </defs>
    <g clip-path="url(#pe1d793bd87)">
     <use xlink:href="#C2_0_21144a06aa" x="235.827405" y="209.608151" style="fill: #33b07a"/>
    </g>
    <g clip-path="url(#pe1d793bd87)">
     <use xlink:href="#C2_0_21144a06aa" x="138.460385" y="204.18181" style="fill: #33b07a"/>
    </g>
    <g clip-path="url(#pe1d793bd87)">
     <use xlink:href="#C2_0_21144a06aa" x="134.345062" y="201.523464" style="fill: #33b07a"/>
    </g>
    <g clip-path="url(#pe1d793bd87)">
     <use xlink:href="#C2_0_21144a06aa" x="141.817208" y="204.512615" style="fill: #33b07a"/>
    </g>
    <g clip-path="url(#pe1d793bd87)">
     <use xlink:href="#C2_0_21144a06aa" x="144.839689" y="202.590803" style="fill: #33b07a"/>
    </g>
    <g clip-path="url(#pe1d793bd87)">
     <use xlink:href="#C2_0_21144a06aa" x="139.554703" y="207.910014" style="fill: #33b07a"/>
    </g>
    <g clip-path="url(#pe1d793bd87)">
     <use xlink:href="#C2_0_21144a06aa" x="142.158705" y="211.752555" style="fill: #33b07a"/>
    </g>
    <g clip-path="url(#pe1d793bd87)">
     <use xlink:href="#C2_0_21144a06aa" x="150.937152" y="210.756555" style="fill: #33b07a"/>
    </g>
    <g clip-path="url(#pe1d793bd87)">
     <use xlink:href="#C2_0_21144a06aa" x="151.217797" y="210.614267" style="fill: #33b07a"/>
    </g>
    <g clip-path="url(#pe1d793bd87)">
     <use xlink:href="#C2_0_21144a06aa" x="196.85583" y="211.241162" style="fill: #33b07a"/>
    </g>
    <g clip-path="url(#pe1d793bd87)">
     <use xlink:href="#C2_0_21144a06aa" x="188.689143" y="206.481915" style="fill: #33b07a"/>
    </g>
    <g clip-path="url(#pe1d793bd87)">
     <use xlink:href="#C2_0_21144a06aa" x="185.414466" y="208.563759" style="fill: #33b07a"/>
    </g>
    <g clip-path="url(#pe1d793bd87)">
     <use xlink:href="#C2_0_21144a06aa" x="247.664637" y="212.435429" style="fill: #33b07a"/>
    </g>
    <g clip-path="url(#pe1d793bd87)">
     <use xlink:href="#C2_0_21144a06aa" x="681.755" y="201.856678" style="fill: #33b07a"/>
    </g>
    <g clip-path="url(#pe1d793bd87)">
     <use xlink:href="#C2_0_21144a06aa" x="193.811518" y="201.095039" style="fill: #33b07a"/>
    </g>
    <g clip-path="url(#pe1d793bd87)">
     <use xlink:href="#C2_0_21144a06aa" x="286.746466" y="204.795291" style="fill: #33b07a"/>
    </g>
    <g clip-path="url(#pe1d793bd87)">
     <use xlink:href="#C2_0_21144a06aa" x="226.289601" y="200.316104" style="fill: #33b07a"/>
    </g>
    <g clip-path="url(#pe1d793bd87)">
     <use xlink:href="#C2_0_21144a06aa" x="223.138365" y="207.846055" style="fill: #33b07a"/>
    </g>
    <g clip-path="url(#pe1d793bd87)">
     <use xlink:href="#C2_0_21144a06aa" x="135.536457" y="202.763694" style="fill: #33b07a"/>
    </g>
    <g clip-path="url(#pe1d793bd87)">
     <use xlink:href="#C2_0_21144a06aa" x="135.511615" y="204.199065" style="fill: #33b07a"/>
    </g>
    <g clip-path="url(#pe1d793bd87)">
     <use xlink:href="#C2_0_21144a06aa" x="136.724439" y="210.443816" style="fill: #33b07a"/>
    </g>
    <g clip-path="url(#pe1d793bd87)">
     <use xlink:href="#C2_0_21144a06aa" x="141.162527" y="207.638186" style="fill: #33b07a"/>
    </g>
    <g clip-path="url(#pe1d793bd87)">
     <use xlink:href="#C2_0_21144a06aa" x="141.431058" y="208.283357" style="fill: #33b07a"/>
    </g>
    <g clip-path="url(#pe1d793bd87)">
     <use xlink:href="#C2_0_21144a06aa" x="136.404632" y="213.05776" style="fill: #33b07a"/>
    </g>
    <g clip-path="url(#pe1d793bd87)">
     <use xlink:href="#C2_0_21144a06aa" x="142.359239" y="200.999012" style="fill: #33b07a"/>
    </g>
    <g clip-path="url(#pe1d793bd87)">
     <use xlink:href="#C2_0_21144a06aa" x="148.457264" y="208.137504" style="fill: #33b07a"/>
    </g>
    <g clip-path="url(#pe1d793bd87)">
     <use xlink:href="#C2_0_21144a06aa" x="154.865656" y="206.395701" style="fill: #33b07a"/>
    </g>
    <g clip-path="url(#pe1d793bd87)">
     <use xlink:href="#C2_0_21144a06aa" x="178.690234" y="205.527301" style="fill: #33b07a"/>
    </g>
    <g clip-path="url(#pe1d793bd87)">
     <use xlink:href="#C2_0_21144a06aa" x="187.561101" y="210.617662" style="fill: #33b07a"/>
    </g>
    <g clip-path="url(#pe1d793bd87)">
     <use xlink:href="#C2_0_21144a06aa" x="194.813209" y="211.204332" style="fill: #33b07a"/>
    </g>
   </g>
   <g id="PathCollection_4">
    <defs>
     <path id="C3_0_cbcc33c608" d="M 0 1.5 
C 0.397805 1.5 0.77937 1.341951 1.06066 1.06066 
C 1.341951 0.77937 1.5 0.397805 1.5 -0 
C 1.5 -0.397805 1.341951 -0.77937 1.06066 -1.06066 
C 0.77937 -1.341951 0.397805 -1.5 0 -1.5 
C -0.397805 -1.5 -0.77937 -1.341951 -1.06066 -1.06066 
C -1.341951 -0.77937 -1.5 -0.397805 -1.5 0 
C -1.5 0.397805 -1.341951 0.77937 -1.06066 1.06066 
C -0.77937 1.341951 -0.397805 1.5 0 1.5 
z
"/>
    </defs>
    <g clip-path="url(#pe1d793bd87)">
     <use xlink:href="#C3_0_cbcc33c608" x="136.653786" y="283.431891" style="fill: #38a9c5"/>
    </g>
    <g clip-path="url(#pe1d793bd87)">
     <use xlink:href="#C3_0_cbcc33c608" x="132.855" y="277.237797" style="fill: #38a9c5"/>
    </g>
    <g clip-path="url(#pe1d793bd87)">
     <use xlink:href="#C3_0_cbcc33c608" x="135.819162" y="286.787957" style="fill: #38a9c5"/>
    </g>
    <g clip-path="url(#pe1d793bd87)">
     <use xlink:href="#C3_0_cbcc33c608" x="139.045982" y="274.023898" style="fill: #38a9c5"/>
    </g>
    <g clip-path="url(#pe1d793bd87)">
     <use xlink:href="#C3_0_cbcc33c608" x="136.040929" y="282.770152" style="fill: #38a9c5"/>
    </g>
    <g clip-path="url(#pe1d793bd87)">
     <use xlink:href="#C3_0_cbcc33c608" x="137.798144" y="283.479305" style="fill: #38a9c5"/>
    </g>
    <g clip-path="url(#pe1d793bd87)">
     <use xlink:href="#C3_0_cbcc33c608" x="149.577075" y="282.061358" style="fill: #38a9c5"/>
    </g>
    <g clip-path="url(#pe1d793bd87)">
     <use xlink:href="#C3_0_cbcc33c608" x="143.988459" y="282.777035" style="fill: #38a9c5"/>
    </g>
    <g clip-path="url(#pe1d793bd87)">
     <use xlink:href="#C3_0_cbcc33c608" x="162.10728" y="283.020018" style="fill: #38a9c5"/>
    </g>
    <g clip-path="url(#pe1d793bd87)">
     <use xlink:href="#C3_0_cbcc33c608" x="168.376219" y="282.353736" style="fill: #38a9c5"/>
    </g>
    <g clip-path="url(#pe1d793bd87)">
     <use xlink:href="#C3_0_cbcc33c608" x="188.45974" y="276.879899" style="fill: #38a9c5"/>
    </g>
    <g clip-path="url(#pe1d793bd87)">
     <use xlink:href="#C3_0_cbcc33c608" x="210.247682" y="278.05979" style="fill: #38a9c5"/>
    </g>
    <g clip-path="url(#pe1d793bd87)">
     <use xlink:href="#C3_0_cbcc33c608" x="510.555386" y="282.418342" style="fill: #38a9c5"/>
    </g>
    <g clip-path="url(#pe1d793bd87)">
     <use xlink:href="#C3_0_cbcc33c608" x="219.984835" y="285.578702" style="fill: #38a9c5"/>
    </g>
    <g clip-path="url(#pe1d793bd87)">
     <use xlink:href="#C3_0_cbcc33c608" x="424.585103" y="284.142308" style="fill: #38a9c5"/>
    </g>
    <g clip-path="url(#pe1d793bd87)">
     <use xlink:href="#C3_0_cbcc33c608" x="230.308397" y="285.982356" style="fill: #38a9c5"/>
    </g>
    <g clip-path="url(#pe1d793bd87)">
     <use xlink:href="#C3_0_cbcc33c608" x="210.170106" y="276.518454" style="fill: #38a9c5"/>
    </g>
    <g clip-path="url(#pe1d793bd87)">
     <use xlink:href="#C3_0_cbcc33c608" x="253.408643" y="287.186676" style="fill: #38a9c5"/>
    </g>
    <g clip-path="url(#pe1d793bd87)">
     <use xlink:href="#C3_0_cbcc33c608" x="136.924029" y="276.147608" style="fill: #38a9c5"/>
    </g>
    <g clip-path="url(#pe1d793bd87)">
     <use xlink:href="#C3_0_cbcc33c608" x="133.489249" y="280.618719" style="fill: #38a9c5"/>
    </g>
    <g clip-path="url(#pe1d793bd87)">
     <use xlink:href="#C3_0_cbcc33c608" x="141.681982" y="277.570941" style="fill: #38a9c5"/>
    </g>
    <g clip-path="url(#pe1d793bd87)">
     <use xlink:href="#C3_0_cbcc33c608" x="138.956933" y="276.161728" style="fill: #38a9c5"/>
    </g>
    <g clip-path="url(#pe1d793bd87)">
     <use xlink:href="#C3_0_cbcc33c608" x="133.435324" y="274.748217" style="fill: #38a9c5"/>
    </g>
    <g clip-path="url(#pe1d793bd87)">
     <use xlink:href="#C3_0_cbcc33c608" x="137.473563" y="278.314038" style="fill: #38a9c5"/>
    </g>
    <g clip-path="url(#pe1d793bd87)">
     <use xlink:href="#C3_0_cbcc33c608" x="145.09645" y="273.939916" style="fill: #38a9c5"/>
    </g>
    <g clip-path="url(#pe1d793bd87)">
     <use xlink:href="#C3_0_cbcc33c608" x="154.13682" y="287.266444" style="fill: #38a9c5"/>
    </g>
    <g clip-path="url(#pe1d793bd87)">
     <use xlink:href="#C3_0_cbcc33c608" x="156.661749" y="281.91137" style="fill: #38a9c5"/>
    </g>
    <g clip-path="url(#pe1d793bd87)">
     <use xlink:href="#C3_0_cbcc33c608" x="137.799764" y="278.403379" style="fill: #38a9c5"/>
    </g>
    <g clip-path="url(#pe1d793bd87)">
     <use xlink:href="#C3_0_cbcc33c608" x="139.260816" y="287.631187" style="fill: #38a9c5"/>
    </g>
    <g clip-path="url(#pe1d793bd87)">
     <use xlink:href="#C3_0_cbcc33c608" x="140.991003" y="287.657034" style="fill: #38a9c5"/>
    </g>
   </g>
   <g id="PathCollection_5">
    <defs>
     <path id="C4_0_940d22d913" d="M 0 1.5 
C 0.397805 1.5 0.77937 1.341951 1.06066 1.06066 
C 1.341951 0.77937 1.5 0.397805 1.5 -0 
C 1.5 -0.397805 1.341951 -0.77937 1.06066 -1.06066 
C 0.77937 -1.341951 0.397805 -1.5 0 -1.5 
C -0.397805 -1.5 -0.77937 -1.341951 -1.06066 -1.06066 
C -1.341951 -0.77937 -1.5 -0.397805 -1.5 0 
C -1.5 0.397805 -1.341951 0.77937 -1.06066 1.06066 
C -0.77937 1.341951 -0.397805 1.5 0 1.5 
z
"/>
    </defs>
    <g clip-path="url(#pe1d793bd87)">
     <use xlink:href="#C4_0_940d22d913" x="225.47439" y="353.868784" style="fill: #cc7af4"/>
    </g>
    <g clip-path="url(#pe1d793bd87)">
     <use xlink:href="#C4_0_940d22d913" x="139.91486" y="352.570069" style="fill: #cc7af4"/>
    </g>
    <g clip-path="url(#pe1d793bd87)">
     <use xlink:href="#C4_0_940d22d913" x="133.216544" y="349.523512" style="fill: #cc7af4"/>
    </g>
    <g clip-path="url(#pe1d793bd87)">
     <use xlink:href="#C4_0_940d22d913" x="136.729969" y="354.91443" style="fill: #cc7af4"/>
    </g>
    <g clip-path="url(#pe1d793bd87)">
     <use xlink:href="#C4_0_940d22d913" x="140.325197" y="352.370731" style="fill: #cc7af4"/>
    </g>
    <g clip-path="url(#pe1d793bd87)">
     <use xlink:href="#C4_0_940d22d913" x="136.65908" y="357.542907" style="fill: #cc7af4"/>
    </g>
    <g clip-path="url(#pe1d793bd87)">
     <use xlink:href="#C4_0_940d22d913" x="153.296814" y="349.529568" style="fill: #cc7af4"/>
    </g>
    <g clip-path="url(#pe1d793bd87)">
     <use xlink:href="#C4_0_940d22d913" x="146.982486" y="359.83201" style="fill: #cc7af4"/>
    </g>
    <g clip-path="url(#pe1d793bd87)">
     <use xlink:href="#C4_0_940d22d913" x="145.156187" y="350.144569" style="fill: #cc7af4"/>
    </g>
    <g clip-path="url(#pe1d793bd87)">
     <use xlink:href="#C4_0_940d22d913" x="176.292576" y="352.019963" style="fill: #cc7af4"/>
    </g>
    <g clip-path="url(#pe1d793bd87)">
     <use xlink:href="#C4_0_940d22d913" x="159.57026" y="356.565495" style="fill: #cc7af4"/>
    </g>
    <g clip-path="url(#pe1d793bd87)">
     <use xlink:href="#C4_0_940d22d913" x="160.126007" y="359.549266" style="fill: #cc7af4"/>
    </g>
    <g clip-path="url(#pe1d793bd87)">
     <use xlink:href="#C4_0_940d22d913" x="214.890631" y="355.642441" style="fill: #cc7af4"/>
    </g>
    <g clip-path="url(#pe1d793bd87)">
     <use xlink:href="#C4_0_940d22d913" x="249.471899" y="349.870301" style="fill: #cc7af4"/>
    </g>
    <g clip-path="url(#pe1d793bd87)">
     <use xlink:href="#C4_0_940d22d913" x="237.57032" y="357.049412" style="fill: #cc7af4"/>
    </g>
    <g clip-path="url(#pe1d793bd87)">
     <use xlink:href="#C4_0_940d22d913" x="201.264729" y="349.363206" style="fill: #cc7af4"/>
    </g>
    <g clip-path="url(#pe1d793bd87)">
     <use xlink:href="#C4_0_940d22d913" x="220.350321" y="346.252391" style="fill: #cc7af4"/>
    </g>
    <g clip-path="url(#pe1d793bd87)">
     <use xlink:href="#C4_0_940d22d913" x="240.531127" y="355.41852" style="fill: #cc7af4"/>
    </g>
    <g clip-path="url(#pe1d793bd87)">
     <use xlink:href="#C4_0_940d22d913" x="175.734735" y="346.972571" style="fill: #cc7af4"/>
    </g>
    <g clip-path="url(#pe1d793bd87)">
     <use xlink:href="#C4_0_940d22d913" x="188.416216" y="348.583496" style="fill: #cc7af4"/>
    </g>
    <g clip-path="url(#pe1d793bd87)">
     <use xlink:href="#C4_0_940d22d913" x="149.129684" y="353.254631" style="fill: #cc7af4"/>
    </g>
    <g clip-path="url(#pe1d793bd87)">
     <use xlink:href="#C4_0_940d22d913" x="141.271619" y="348.076241" style="fill: #cc7af4"/>
    </g>
    <g clip-path="url(#pe1d793bd87)">
     <use xlink:href="#C4_0_940d22d913" x="135.179835" y="354.24802" style="fill: #cc7af4"/>
    </g>
    <g clip-path="url(#pe1d793bd87)">
     <use xlink:href="#C4_0_940d22d913" x="136.748961" y="354.166624" style="fill: #cc7af4"/>
    </g>
    <g clip-path="url(#pe1d793bd87)">
     <use xlink:href="#C4_0_940d22d913" x="148.65732" y="349.421312" style="fill: #cc7af4"/>
    </g>
    <g clip-path="url(#pe1d793bd87)">
     <use xlink:href="#C4_0_940d22d913" x="147.497117" y="353.404796" style="fill: #cc7af4"/>
    </g>
    <g clip-path="url(#pe1d793bd87)">
     <use xlink:href="#C4_0_940d22d913" x="152.536688" y="358.352125" style="fill: #cc7af4"/>
    </g>
    <g clip-path="url(#pe1d793bd87)">
     <use xlink:href="#C4_0_940d22d913" x="139.056534" y="350.272992" style="fill: #cc7af4"/>
    </g>
    <g clip-path="url(#pe1d793bd87)">
     <use xlink:href="#C4_0_940d22d913" x="138.317047" y="347.338174" style="fill: #cc7af4"/>
    </g>
    <g clip-path="url(#pe1d793bd87)">
     <use xlink:href="#C4_0_940d22d913" x="137.647365" y="346.775193" style="fill: #cc7af4"/>
    </g>
   </g>
   <g id="PolyCollection_1">
    <defs>
     <path id="m2a423bd82f" d="M 139.728286 -385.560578 
L 139.728286 -393.024083 
L 143.560585 -393.931483 
L 147.392884 -394.697312 
L 151.225183 -395.277077 
L 155.057483 -395.642167 
L 158.889782 -395.782888 
L 162.722081 -395.708531 
L 166.55438 -395.444591 
L 170.386679 -395.027832 
L 174.218978 -394.50028 
L 178.051277 -393.903321 
L 181.883577 -393.272947 
L 185.715876 -392.63677 
L 189.548175 -392.013013 
L 193.380474 -391.411271 
L 197.212773 -390.834526 
L 201.045072 -390.281782 
L 204.877371 -389.7507 
L 208.709671 -389.239718 
L 212.54197 -388.749385 
L 216.374269 -388.282803 
L 220.206568 -387.845304 
L 224.038867 -387.443581 
L 227.871166 -387.084564 
L 231.703465 -386.774331 
L 235.535765 -386.517222 
L 239.368064 -386.315281 
L 243.200363 -386.168001 
L 247.032662 -386.072333 
L 250.864961 -386.022862 
L 254.69726 -386.012105 
L 258.529559 -386.030914 
L 262.361859 -386.069007 
L 266.194158 -386.115664 
L 270.026457 -386.160582 
L 273.858756 -386.194821 
L 277.691055 -386.211708 
L 281.523354 -386.207531 
L 285.355653 -386.18186 
L 289.187953 -386.137425 
L 293.020252 -386.079538 
L 296.852551 -386.01521 
L 300.68485 -385.952107 
L 304.517149 -385.89755 
L 308.349448 -385.857684 
L 312.181747 -385.836881 
L 316.014047 -385.837383 
L 319.846346 -385.859133 
L 323.678645 -385.899783 
L 327.510944 -385.954862 
L 331.343243 -386.018139 
L 335.175542 -386.082232 
L 339.007841 -386.139428 
L 342.840141 -386.18268 
L 346.67244 -386.206615 
L 350.504739 -386.208375 
L 354.337038 -386.188112 
L 358.169337 -386.149028 
L 362.001636 -386.096943 
L 365.833935 -386.039491 
L 369.666235 -385.98511 
L 373.498534 -385.942006 
L 377.330833 -385.917247 
L 381.163132 -385.916063 
L 384.995431 -385.941392 
L 388.82773 -385.993626 
L 392.660029 -386.070563 
L 396.492329 -386.167532 
L 400.324628 -386.277703 
L 404.156927 -386.392609 
L 407.989226 -386.502867 
L 411.821525 -386.599048 
L 415.653824 -386.672632 
L 419.486123 -386.716911 
L 423.318423 -386.72772 
L 427.150722 -386.703881 
L 430.983021 -386.647286 
L 434.81532 -386.562599 
L 438.647619 -386.456627 
L 442.479918 -386.337452 
L 446.312217 -386.213467 
L 450.144517 -386.092477 
L 453.976816 -385.981001 
L 457.809115 -385.883868 
L 461.641414 -385.804144 
L 465.473713 -385.743344 
L 469.306012 -385.701831 
L 473.138311 -385.679278 
L 476.970611 -385.675037 
L 480.80291 -385.688345 
L 484.635209 -385.718285 
L 488.467508 -385.763544 
L 492.299807 -385.822045 
L 496.132106 -385.890587 
L 499.964405 -385.964651 
L 503.796705 -386.03849 
L 507.629004 -386.105577 
L 511.461303 -386.159357 
L 515.293602 -386.194187 
L 519.125901 -386.206232 
L 519.125901 -385.560578 
L 519.125901 -385.560578 
L 515.293602 -385.560578 
L 511.461303 -385.560578 
L 507.629004 -385.560578 
L 503.796705 -385.560578 
L 499.964405 -385.560578 
L 496.132106 -385.560578 
L 492.299807 -385.560578 
L 488.467508 -385.560578 
L 484.635209 -385.560578 
L 480.80291 -385.560578 
L 476.970611 -385.560578 
L 473.138311 -385.560578 
L 469.306012 -385.560578 
L 465.473713 -385.560578 
L 461.641414 -385.560578 
L 457.809115 -385.560578 
L 453.976816 -385.560578 
L 450.144517 -385.560578 
L 446.312217 -385.560578 
L 442.479918 -385.560578 
L 438.647619 -385.560578 
L 434.81532 -385.560578 
L 430.983021 -385.560578 
L 427.150722 -385.560578 
L 423.318423 -385.560578 
L 419.486123 -385.560578 
L 415.653824 -385.560578 
L 411.821525 -385.560578 
L 407.989226 -385.560578 
L 404.156927 -385.560578 
L 400.324628 -385.560578 
L 396.492329 -385.560578 
L 392.660029 -385.560578 
L 388.82773 -385.560578 
L 384.995431 -385.560578 
L 381.163132 -385.560578 
L 377.330833 -385.560578 
L 373.498534 -385.560578 
L 369.666235 -385.560578 
L 365.833935 -385.560578 
L 362.001636 -385.560578 
L 358.169337 -385.560578 
L 354.337038 -385.560578 
L 350.504739 -385.560578 
L 346.67244 -385.560578 
L 342.840141 -385.560578 
L 339.007841 -385.560578 
L 335.175542 -385.560578 
L 331.343243 -385.560578 
L 327.510944 -385.560578 
L 323.678645 -385.560578 
L 319.846346 -385.560578 
L 316.014047 -385.560578 
L 312.181747 -385.560578 
L 308.349448 -385.560578 
L 304.517149 -385.560578 
L 300.68485 -385.560578 
L 296.852551 -385.560578 
L 293.020252 -385.560578 
L 289.187953 -385.560578 
L 285.355653 -385.560578 
L 281.523354 -385.560578 
L 277.691055 -385.560578 
L 273.858756 -385.560578 
L 270.026457 -385.560578 
L 266.194158 -385.560578 
L 262.361859 -385.560578 
L 258.529559 -385.560578 
L 254.69726 -385.560578 
L 250.864961 -385.560578 
L 247.032662 -385.560578 
L 243.200363 -385.560578 
L 239.368064 -385.560578 
L 235.535765 -385.560578 
L 231.703465 -385.560578 
L 227.871166 -385.560578 
L 224.038867 -385.560578 
L 220.206568 -385.560578 
L 216.374269 -385.560578 
L 212.54197 -385.560578 
L 208.709671 -385.560578 
L 204.877371 -385.560578 
L 201.045072 -385.560578 
L 197.212773 -385.560578 
L 193.380474 -385.560578 
L 189.548175 -385.560578 
L 185.715876 -385.560578 
L 181.883577 -385.560578 
L 178.051277 -385.560578 
L 174.218978 -385.560578 
L 170.386679 -385.560578 
L 166.55438 -385.560578 
L 162.722081 -385.560578 
L 158.889782 -385.560578 
L 155.057483 -385.560578 
L 151.225183 -385.560578 
L 147.392884 -385.560578 
L 143.560585 -385.560578 
L 139.728286 -385.560578 
z
" style="stroke: #434343; stroke-opacity: 0.65"/>
    </defs>
    <g clip-path="url(#pe1d793bd87)">
     <use xlink:href="#m2a423bd82f" x="0" y="432" style="fill: #e68193; fill-opacity: 0.65; stroke: #434343; stroke-opacity: 0.65"/>
    </g>
   </g>
   <g id="PolyCollection_2">
    <defs>
     <path id="mdd7563e31c" d="M 133.335687 -312.454072 
L 133.335687 -325.836799 
L 135.607531 -327.518015 
L 137.879375 -328.856777 
L 140.151219 -329.736178 
L 142.423063 -330.077473 
L 144.694907 -329.85162 
L 146.96675 -329.083373 
L 149.238594 -327.847264 
L 151.510438 -326.256472 
L 153.782282 -324.446971 
L 156.054126 -322.560101 
L 158.32597 -320.726685 
L 160.597814 -319.055091 
L 162.869658 -317.624472 
L 165.141501 -316.483158 
L 167.413345 -315.65112 
L 169.685189 -315.124843 
L 171.957033 -314.882903 
L 174.228877 -314.890952 
L 176.500721 -315.105475 
L 178.772565 -315.476407 
L 181.044409 -315.949158 
L 183.316252 -316.466798 
L 185.588096 -316.972938 
L 187.85994 -317.415441 
L 190.131784 -317.750578 
L 192.403628 -317.946877 
L 194.675472 -317.987796 
L 196.947316 -317.872576 
L 199.21916 -317.615062 
L 201.491003 -317.240776 
L 203.762847 -316.78295 
L 206.034691 -316.278357 
L 208.306535 -315.763641 
L 210.578379 -315.272547 
L 212.850223 -314.834065 
L 215.122067 -314.47123 
L 217.393911 -314.200229 
L 219.665754 -314.029567 
L 221.937598 -313.959271 
L 224.209442 -313.980365 
L 226.481286 -314.075025 
L 228.75313 -314.217807 
L 231.024974 -314.378195 
L 233.296818 -314.524325 
L 235.568662 -314.627389 
L 237.840505 -314.665908 
L 240.112349 -314.628947 
L 242.384193 -314.517546 
L 244.656037 -314.344029 
L 246.927881 -314.129389 
L 249.199725 -313.899374 
L 251.471569 -313.680147 
L 253.743413 -313.494379 
L 256.015256 -313.35839 
L 258.2871 -313.280616 
L 260.558944 -313.261408 
L 262.830788 -313.293969 
L 265.102632 -313.366131 
L 267.374476 -313.462703 
L 269.64632 -313.568044 
L 271.918164 -313.668484 
L 274.190007 -313.754183 
L 276.461851 -313.820046 
L 278.733695 -313.865481 
L 281.005539 -313.893077 
L 283.277383 -313.906588 
L 285.549227 -313.908868 
L 287.821071 -313.900409 
L 290.092914 -313.878961 
L 292.364758 -313.840314 
L 294.636602 -313.779946 
L 296.908446 -313.694922 
L 299.18029 -313.58538 
L 301.452134 -313.455129 
L 303.723978 -313.311208 
L 305.995822 -313.162597 
L 308.267665 -313.018544 
L 310.539509 -312.886993 
L 312.811353 -312.773514 
L 315.083197 -312.680906 
L 317.355041 -312.609452 
L 319.626885 -312.557611 
L 321.898729 -312.522912 
L 324.170573 -312.502833 
L 326.442416 -312.495497 
L 328.71426 -312.500119 
L 330.986104 -312.51717 
L 333.257948 -312.548259 
L 335.529792 -312.595711 
L 337.801636 -312.661879 
L 340.07348 -312.748233 
L 342.345324 -312.85436 
L 344.617167 -312.977087 
L 346.889011 -313.109986 
L 349.160855 -313.243512 
L 351.432699 -313.365901 
L 353.704543 -313.464779 
L 355.976387 -313.529181 
L 358.248231 -313.551548 
L 358.248231 -312.454072 
L 358.248231 -312.454072 
L 355.976387 -312.454072 
L 353.704543 -312.454072 
L 351.432699 -312.454072 
L 349.160855 -312.454072 
L 346.889011 -312.454072 
L 344.617167 -312.454072 
L 342.345324 -312.454072 
L 340.07348 -312.454072 
L 337.801636 -312.454072 
L 335.529792 -312.454072 
L 333.257948 -312.454072 
L 330.986104 -312.454072 
L 328.71426 -312.454072 
L 326.442416 -312.454072 
L 324.170573 -312.454072 
L 321.898729 -312.454072 
L 319.626885 -312.454072 
L 317.355041 -312.454072 
L 315.083197 -312.454072 
L 312.811353 -312.454072 
L 310.539509 -312.454072 
L 308.267665 -312.454072 
L 305.995822 -312.454072 
L 303.723978 -312.454072 
L 301.452134 -312.454072 
L 299.18029 -312.454072 
L 296.908446 -312.454072 
L 294.636602 -312.454072 
L 292.364758 -312.454072 
L 290.092914 -312.454072 
L 287.821071 -312.454072 
L 285.549227 -312.454072 
L 283.277383 -312.454072 
L 281.005539 -312.454072 
L 278.733695 -312.454072 
L 276.461851 -312.454072 
L 274.190007 -312.454072 
L 271.918164 -312.454072 
L 269.64632 -312.454072 
L 267.374476 -312.454072 
L 265.102632 -312.454072 
L 262.830788 -312.454072 
L 260.558944 -312.454072 
L 258.2871 -312.454072 
L 256.015256 -312.454072 
L 253.743413 -312.454072 
L 251.471569 -312.454072 
L 249.199725 -312.454072 
L 246.927881 -312.454072 
L 244.656037 -312.454072 
L 242.384193 -312.454072 
L 240.112349 -312.454072 
L 237.840505 -312.454072 
L 235.568662 -312.454072 
L 233.296818 -312.454072 
L 231.024974 -312.454072 
L 228.75313 -312.454072 
L 226.481286 -312.454072 
L 224.209442 -312.454072 
L 221.937598 -312.454072 
L 219.665754 -312.454072 
L 217.393911 -312.454072 
L 215.122067 -312.454072 
L 212.850223 -312.454072 
L 210.578379 -312.454072 
L 208.306535 -312.454072 
L 206.034691 -312.454072 
L 203.762847 -312.454072 
L 201.491003 -312.454072 
L 199.21916 -312.454072 
L 196.947316 -312.454072 
L 194.675472 -312.454072 
L 192.403628 -312.454072 
L 190.131784 -312.454072 
L 187.85994 -312.454072 
L 185.588096 -312.454072 
L 183.316252 -312.454072 
L 181.044409 -312.454072 
L 178.772565 -312.454072 
L 176.500721 -312.454072 
L 174.228877 -312.454072 
L 171.957033 -312.454072 
L 169.685189 -312.454072 
L 167.413345 -312.454072 
L 165.141501 -312.454072 
L 162.869658 -312.454072 
L 160.597814 -312.454072 
L 158.32597 -312.454072 
L 156.054126 -312.454072 
L 153.782282 -312.454072 
L 151.510438 -312.454072 
L 149.238594 -312.454072 
L 146.96675 -312.454072 
L 144.694907 -312.454072 
L 142.423063 -312.454072 
L 140.151219 -312.454072 
L 137.879375 -312.454072 
L 135.607531 -312.454072 
L 133.335687 -312.454072 
z
" style="stroke: #434343; stroke-opacity: 0.65"/>
    </defs>
    <g clip-path="url(#pe1d793bd87)">
     <use xlink:href="#mdd7563e31c" x="0" y="432" style="fill: #9e9241; fill-opacity: 0.65; stroke: #434343; stroke-opacity: 0.65"/>
    </g>
   </g>
   <g id="PolyCollection_3">
    <defs>
     <path id="m1064d2a4df" d="M 134.345062 -239.347566 
L 134.345062 -248.42712 
L 139.874455 -249.097616 
L 145.403849 -249.213681 
L 150.933242 -248.818834 
L 156.462635 -248.064364 
L 161.992029 -247.156002 
L 167.521422 -246.285246 
L 173.050815 -245.573978 
L 178.580209 -245.053063 
L 184.109602 -244.678675 
L 189.638995 -244.373108 
L 195.168389 -244.068177 
L 200.697782 -243.732025 
L 206.227175 -243.371419 
L 211.756568 -243.014698 
L 217.285962 -242.688651 
L 222.815355 -242.402512 
L 228.344748 -242.145569 
L 233.874142 -241.89645 
L 239.403535 -241.636726 
L 244.932928 -241.36108 
L 250.462322 -241.079697 
L 255.991715 -240.81306 
L 261.521108 -240.582583 
L 267.050502 -240.4016 
L 272.579895 -240.270391 
L 278.109288 -240.176838 
L 283.638682 -240.101905 
L 289.168075 -240.027202 
L 294.697468 -239.941299 
L 300.226861 -239.842366 
L 305.756255 -239.736668 
L 311.285648 -239.634362 
L 316.815041 -239.544912 
L 322.344435 -239.474047 
L 327.873828 -239.422968 
L 333.403221 -239.389347 
L 338.932615 -239.369074 
L 344.462008 -239.35785 
L 349.991401 -239.352133 
L 355.520795 -239.349449 
L 361.050188 -239.348287 
L 366.579581 -239.347823 
L 372.108975 -239.347651 
L 377.638368 -239.347592 
L 383.167761 -239.347574 
L 388.697154 -239.347568 
L 394.226548 -239.347567 
L 399.755941 -239.347566 
L 405.285334 -239.347566 
L 410.814728 -239.347566 
L 416.344121 -239.347566 
L 421.873514 -239.347566 
L 427.402908 -239.347566 
L 432.932301 -239.347566 
L 438.461694 -239.347566 
L 443.991088 -239.347566 
L 449.520481 -239.347566 
L 455.049874 -239.347566 
L 460.579268 -239.347566 
L 466.108661 -239.347566 
L 471.638054 -239.347566 
L 477.167447 -239.347566 
L 482.696841 -239.347566 
L 488.226234 -239.347566 
L 493.755627 -239.347566 
L 499.285021 -239.347566 
L 504.814414 -239.347566 
L 510.343807 -239.347566 
L 515.873201 -239.347566 
L 521.402594 -239.347566 
L 526.931987 -239.347566 
L 532.461381 -239.347566 
L 537.990774 -239.347566 
L 543.520167 -239.347566 
L 549.049561 -239.347566 
L 554.578954 -239.347566 
L 560.108347 -239.347566 
L 565.63774 -239.347566 
L 571.167134 -239.347566 
L 576.696527 -239.347567 
L 582.22592 -239.34757 
L 587.755314 -239.347579 
L 593.284707 -239.34761 
L 598.8141 -239.347705 
L 604.343494 -239.347973 
L 609.872887 -239.348674 
L 615.40228 -239.350366 
L 620.931674 -239.354139 
L 626.461067 -239.36189 
L 631.99046 -239.376552 
L 637.519854 -239.402027 
L 643.049247 -239.442572 
L 648.57864 -239.501452 
L 654.108033 -239.578998 
L 659.637427 -239.670732 
L 665.16682 -239.766558 
L 670.696213 -239.851951 
L 676.225607 -239.911329 
L 681.755 -239.932636 
L 681.755 -239.347566 
L 681.755 -239.347566 
L 676.225607 -239.347566 
L 670.696213 -239.347566 
L 665.16682 -239.347566 
L 659.637427 -239.347566 
L 654.108033 -239.347566 
L 648.57864 -239.347566 
L 643.049247 -239.347566 
L 637.519854 -239.347566 
L 631.99046 -239.347566 
L 626.461067 -239.347566 
L 620.931674 -239.347566 
L 615.40228 -239.347566 
L 609.872887 -239.347566 
L 604.343494 -239.347566 
L 598.8141 -239.347566 
L 593.284707 -239.347566 
L 587.755314 -239.347566 
L 582.22592 -239.347566 
L 576.696527 -239.347566 
L 571.167134 -239.347566 
L 565.63774 -239.347566 
L 560.108347 -239.347566 
L 554.578954 -239.347566 
L 549.049561 -239.347566 
L 543.520167 -239.347566 
L 537.990774 -239.347566 
L 532.461381 -239.347566 
L 526.931987 -239.347566 
L 521.402594 -239.347566 
L 515.873201 -239.347566 
L 510.343807 -239.347566 
L 504.814414 -239.347566 
L 499.285021 -239.347566 
L 493.755627 -239.347566 
L 488.226234 -239.347566 
L 482.696841 -239.347566 
L 477.167447 -239.347566 
L 471.638054 -239.347566 
L 466.108661 -239.347566 
L 460.579268 -239.347566 
L 455.049874 -239.347566 
L 449.520481 -239.347566 
L 443.991088 -239.347566 
L 438.461694 -239.347566 
L 432.932301 -239.347566 
L 427.402908 -239.347566 
L 421.873514 -239.347566 
L 416.344121 -239.347566 
L 410.814728 -239.347566 
L 405.285334 -239.347566 
L 399.755941 -239.347566 
L 394.226548 -239.347566 
L 388.697154 -239.347566 
L 383.167761 -239.347566 
L 377.638368 -239.347566 
L 372.108975 -239.347566 
L 366.579581 -239.347566 
L 361.050188 -239.347566 
L 355.520795 -239.347566 
L 349.991401 -239.347566 
L 344.462008 -239.347566 
L 338.932615 -239.347566 
L 333.403221 -239.347566 
L 327.873828 -239.347566 
L 322.344435 -239.347566 
L 316.815041 -239.347566 
L 311.285648 -239.347566 
L 305.756255 -239.347566 
L 300.226861 -239.347566 
L 294.697468 -239.347566 
L 289.168075 -239.347566 
L 283.638682 -239.347566 
L 278.109288 -239.347566 
L 272.579895 -239.347566 
L 267.050502 -239.347566 
L 261.521108 -239.347566 
L 255.991715 -239.347566 
L 250.462322 -239.347566 
L 244.932928 -239.347566 
L 239.403535 -239.347566 
L 233.874142 -239.347566 
L 228.344748 -239.347566 
L 222.815355 -239.347566 
L 217.285962 -239.347566 
L 211.756568 -239.347566 
L 206.227175 -239.347566 
L 200.697782 -239.347566 
L 195.168389 -239.347566 
L 189.638995 -239.347566 
L 184.109602 -239.347566 
L 178.580209 -239.347566 
L 173.050815 -239.347566 
L 167.521422 -239.347566 
L 161.992029 -239.347566 
L 156.462635 -239.347566 
L 150.933242 -239.347566 
L 145.403849 -239.347566 
L 139.874455 -239.347566 
L 134.345062 -239.347566 
z
" style="stroke: #434343; stroke-opacity: 0.65"/>
    </defs>
    <g clip-path="url(#pe1d793bd87)">
     <use xlink:href="#m1064d2a4df" x="0" y="432" style="fill: #43a178; fill-opacity: 0.65; stroke: #434343; stroke-opacity: 0.65"/>
    </g>
   </g>
   <g id="PolyCollection_4">
    <defs>
     <path id="m45b502f0d5" d="M 132.855 -166.24106 
L 132.855 -178.557534 
L 136.670155 -179.407853 
L 140.485311 -179.745665 
L 144.300466 -179.550811 
L 148.115622 -178.870378 
L 151.930777 -177.806012 
L 155.745932 -176.491539 
L 159.561088 -175.067641 
L 163.376243 -173.660154 
L 167.191399 -172.366156 
L 171.006554 -171.248872 
L 174.82171 -170.339796 
L 178.636865 -169.645038 
L 182.45202 -169.152882 
L 186.267176 -168.840444 
L 190.082331 -168.678423 
L 193.897487 -168.634017 
L 197.712642 -168.672647 
L 201.527797 -168.759339 
L 205.342953 -168.86046 
L 209.158108 -168.946026 
L 212.973264 -168.99235 
L 216.788419 -168.984362 
L 220.603574 -168.916853 
L 224.41873 -168.794097 
L 228.233885 -168.62777 
L 232.049041 -168.433606 
L 235.864196 -168.227625 
L 239.679351 -168.022894 
L 243.494507 -167.827599 
L 247.309662 -167.644766 
L 251.124818 -167.473484 
L 254.939973 -167.310994 
L 258.755129 -167.154846 
L 262.570284 -167.004393 
L 266.385439 -166.861239 
L 270.200595 -166.728685 
L 274.01575 -166.610573 
L 277.830906 -166.51005 
L 281.646061 -166.428701 
L 285.461216 -166.366259 
L 289.276372 -166.320853 
L 293.091527 -166.289586 
L 296.906683 -166.269201 
L 300.721838 -166.256613 
L 304.536993 -166.249249 
L 308.352149 -166.245166 
L 312.167304 -166.243021 
L 315.98246 -166.241952 
L 319.797615 -166.241446 
L 323.612771 -166.241219 
L 327.427926 -166.241123 
L 331.243081 -166.241084 
L 335.058237 -166.241069 
L 338.873392 -166.241066 
L 342.688548 -166.241069 
L 346.503703 -166.241082 
L 350.318858 -166.241119 
L 354.134014 -166.24121 
L 357.949169 -166.241424 
L 361.764325 -166.241903 
L 365.57948 -166.242919 
L 369.394635 -166.244959 
L 373.209791 -166.248843 
L 377.024946 -166.255849 
L 380.840102 -166.267802 
L 384.655257 -166.287082 
L 388.470413 -166.316436 
L 392.285568 -166.358551 
L 396.100723 -166.415352 
L 399.915879 -166.487124 
L 403.731034 -166.571672 
L 407.54619 -166.663816 
L 411.361345 -166.755531 
L 415.1765 -166.836904 
L 418.991656 -166.897816 
L 422.806811 -166.929991 
L 426.621967 -166.928839 
L 430.437122 -166.894531 
L 434.252277 -166.831961 
L 438.067433 -166.749616 
L 441.882588 -166.657709 
L 445.697744 -166.566168 
L 449.512899 -166.483041 
L 453.328054 -166.413661 
L 457.14321 -166.360662 
L 460.958365 -166.324634 
L 464.773521 -166.3051 
L 468.588676 -166.301445 
L 472.403832 -166.31352 
L 476.218987 -166.341773 
L 480.034142 -166.386846 
L 483.849298 -166.448774 
L 487.664453 -166.525984 
L 491.479609 -166.614448 
L 495.294764 -166.707335 
L 499.109919 -166.795435 
L 502.925075 -166.868431 
L 506.74023 -166.916777 
L 510.555386 -166.933707 
L 510.555386 -166.24106 
L 510.555386 -166.24106 
L 506.74023 -166.24106 
L 502.925075 -166.24106 
L 499.109919 -166.24106 
L 495.294764 -166.24106 
L 491.479609 -166.24106 
L 487.664453 -166.24106 
L 483.849298 -166.24106 
L 480.034142 -166.24106 
L 476.218987 -166.24106 
L 472.403832 -166.24106 
L 468.588676 -166.24106 
L 464.773521 -166.24106 
L 460.958365 -166.24106 
L 457.14321 -166.24106 
L 453.328054 -166.24106 
L 449.512899 -166.24106 
L 445.697744 -166.24106 
L 441.882588 -166.24106 
L 438.067433 -166.24106 
L 434.252277 -166.24106 
L 430.437122 -166.24106 
L 426.621967 -166.24106 
L 422.806811 -166.24106 
L 418.991656 -166.24106 
L 415.1765 -166.24106 
L 411.361345 -166.24106 
L 407.54619 -166.24106 
L 403.731034 -166.24106 
L 399.915879 -166.24106 
L 396.100723 -166.24106 
L 392.285568 -166.24106 
L 388.470413 -166.24106 
L 384.655257 -166.24106 
L 380.840102 -166.24106 
L 377.024946 -166.24106 
L 373.209791 -166.24106 
L 369.394635 -166.24106 
L 365.57948 -166.24106 
L 361.764325 -166.24106 
L 357.949169 -166.24106 
L 354.134014 -166.24106 
L 350.318858 -166.24106 
L 346.503703 -166.24106 
L 342.688548 -166.24106 
L 338.873392 -166.24106 
L 335.058237 -166.24106 
L 331.243081 -166.24106 
L 327.427926 -166.24106 
L 323.612771 -166.24106 
L 319.797615 -166.24106 
L 315.98246 -166.24106 
L 312.167304 -166.24106 
L 308.352149 -166.24106 
L 304.536993 -166.24106 
L 300.721838 -166.24106 
L 296.906683 -166.24106 
L 293.091527 -166.24106 
L 289.276372 -166.24106 
L 285.461216 -166.24106 
L 281.646061 -166.24106 
L 277.830906 -166.24106 
L 274.01575 -166.24106 
L 270.200595 -166.24106 
L 266.385439 -166.24106 
L 262.570284 -166.24106 
L 258.755129 -166.24106 
L 254.939973 -166.24106 
L 251.124818 -166.24106 
L 247.309662 -166.24106 
L 243.494507 -166.24106 
L 239.679351 -166.24106 
L 235.864196 -166.24106 
L 232.049041 -166.24106 
L 228.233885 -166.24106 
L 224.41873 -166.24106 
L 220.603574 -166.24106 
L 216.788419 -166.24106 
L 212.973264 -166.24106 
L 209.158108 -166.24106 
L 205.342953 -166.24106 
L 201.527797 -166.24106 
L 197.712642 -166.24106 
L 193.897487 -166.24106 
L 190.082331 -166.24106 
L 186.267176 -166.24106 
L 182.45202 -166.24106 
L 178.636865 -166.24106 
L 174.82171 -166.24106 
L 171.006554 -166.24106 
L 167.191399 -166.24106 
L 163.376243 -166.24106 
L 159.561088 -166.24106 
L 155.745932 -166.24106 
L 151.930777 -166.24106 
L 148.115622 -166.24106 
L 144.300466 -166.24106 
L 140.485311 -166.24106 
L 136.670155 -166.24106 
L 132.855 -166.24106 
z
" style="stroke: #434343; stroke-opacity: 0.65"/>
    </defs>
    <g clip-path="url(#pe1d793bd87)">
     <use xlink:href="#m45b502f0d5" x="0" y="432" style="fill: #4a9eb4; fill-opacity: 0.65; stroke: #434343; stroke-opacity: 0.65"/>
    </g>
   </g>
   <g id="PolyCollection_5">
    <defs>
     <path id="m26e388998c" d="M 133.216544 -93.134554 
L 133.216544 -108.768116 
L 134.39084 -110.398848 
L 135.565137 -111.850294 
L 136.739433 -113.068364 
L 137.91373 -114.01322 
L 139.088026 -114.661991 
L 140.262323 -115.009425 
L 141.436619 -115.066506 
L 142.610916 -114.85743 
L 143.785212 -114.415562 
L 144.959509 -113.779106 
L 146.133805 -112.987178 
L 147.308102 -112.076748 
L 148.482398 -111.080704 
L 149.656695 -110.027014 
L 150.830991 -108.938766 
L 152.005288 -107.834795 
L 153.179585 -106.730588 
L 154.353881 -105.639221 
L 155.528178 -104.572211 
L 156.702474 -103.540199 
L 157.876771 -102.553465 
L 159.051067 -101.622263 
L 160.225364 -100.756933 
L 161.39966 -99.967753 
L 162.573957 -99.264473 
L 163.748253 -98.65554 
L 164.92255 -98.147072 
L 166.096846 -97.741742 
L 167.271143 -97.437798 
L 168.445439 -97.228442 
L 169.619736 -97.10181 
L 170.794032 -97.041636 
L 171.968329 -97.028593 
L 173.142625 -97.042148 
L 174.316922 -97.062642 
L 175.491218 -97.073252 
L 176.665515 -97.061511 
L 177.839811 -97.020141 
L 179.014108 -96.947101 
L 180.188404 -96.844894 
L 181.362701 -96.719361 
L 182.536997 -96.5782 
L 183.711294 -96.42956 
L 184.885591 -96.280901 
L 186.059887 -96.138301 
L 187.234184 -96.006194 
L 188.40848 -95.887468 
L 189.582777 -95.783751 
L 190.757073 -95.695739 
L 191.93137 -95.62344 
L 193.105666 -95.566299 
L 194.279963 -95.523232 
L 195.454259 -95.492654 
L 196.628556 -95.472599 
L 197.802852 -95.460997 
L 198.977149 -95.456095 
L 200.151445 -95.456965 
L 201.325742 -95.463965 
L 202.500038 -95.479015 
L 203.674335 -95.505564 
L 204.848631 -95.548196 
L 206.022928 -95.611905 
L 207.197224 -95.701145 
L 208.371521 -95.818824 
L 209.545817 -95.965433 
L 210.720114 -96.138472 
L 211.89441 -96.332299 
L 213.068707 -96.538424 
L 214.243004 -96.746227 
L 215.4173 -96.943982 
L 216.591597 -97.12007 
L 217.765893 -97.264212 
L 218.94019 -97.36859 
L 220.114486 -97.428726 
L 221.288783 -97.444033 
L 222.463079 -97.417971 
L 223.637376 -97.357781 
L 224.811672 -97.273785 
L 225.985969 -97.17832 
L 227.160265 -97.084381 
L 228.334562 -97.004121 
L 229.508858 -96.94739 
L 230.683155 -96.920515 
L 231.857451 -96.925504 
L 233.031748 -96.959802 
L 234.206044 -97.016671 
L 235.380341 -97.086114 
L 236.554637 -97.156217 
L 237.728934 -97.214667 
L 238.90323 -97.250211 
L 240.077527 -97.25382 
L 241.251823 -97.219404 
L 242.42612 -97.144042 
L 243.600417 -97.027746 
L 244.774713 -96.872932 
L 245.94901 -96.68373 
L 247.123306 -96.465324 
L 248.297603 -96.223437 
L 249.471899 -95.96399 
L 249.471899 -93.134554 
L 249.471899 -93.134554 
L 248.297603 -93.134554 
L 247.123306 -93.134554 
L 245.94901 -93.134554 
L 244.774713 -93.134554 
L 243.600417 -93.134554 
L 242.42612 -93.134554 
L 241.251823 -93.134554 
L 240.077527 -93.134554 
L 238.90323 -93.134554 
L 237.728934 -93.134554 
L 236.554637 -93.134554 
L 235.380341 -93.134554 
L 234.206044 -93.134554 
L 233.031748 -93.134554 
L 231.857451 -93.134554 
L 230.683155 -93.134554 
L 229.508858 -93.134554 
L 228.334562 -93.134554 
L 227.160265 -93.134554 
L 225.985969 -93.134554 
L 224.811672 -93.134554 
L 223.637376 -93.134554 
L 222.463079 -93.134554 
L 221.288783 -93.134554 
L 220.114486 -93.134554 
L 218.94019 -93.134554 
L 217.765893 -93.134554 
L 216.591597 -93.134554 
L 215.4173 -93.134554 
L 214.243004 -93.134554 
L 213.068707 -93.134554 
L 211.89441 -93.134554 
L 210.720114 -93.134554 
L 209.545817 -93.134554 
L 208.371521 -93.134554 
L 207.197224 -93.134554 
L 206.022928 -93.134554 
L 204.848631 -93.134554 
L 203.674335 -93.134554 
L 202.500038 -93.134554 
L 201.325742 -93.134554 
L 200.151445 -93.134554 
L 198.977149 -93.134554 
L 197.802852 -93.134554 
L 196.628556 -93.134554 
L 195.454259 -93.134554 
L 194.279963 -93.134554 
L 193.105666 -93.134554 
L 191.93137 -93.134554 
L 190.757073 -93.134554 
L 189.582777 -93.134554 
L 188.40848 -93.134554 
L 187.234184 -93.134554 
L 186.059887 -93.134554 
L 184.885591 -93.134554 
L 183.711294 -93.134554 
L 182.536997 -93.134554 
L 181.362701 -93.134554 
L 180.188404 -93.134554 
L 179.014108 -93.134554 
L 177.839811 -93.134554 
L 176.665515 -93.134554 
L 175.491218 -93.134554 
L 174.316922 -93.134554 
L 173.142625 -93.134554 
L 171.968329 -93.134554 
L 170.794032 -93.134554 
L 169.619736 -93.134554 
L 168.445439 -93.134554 
L 167.271143 -93.134554 
L 166.096846 -93.134554 
L 164.92255 -93.134554 
L 163.748253 -93.134554 
L 162.573957 -93.134554 
L 161.39966 -93.134554 
L 160.225364 -93.134554 
L 159.051067 -93.134554 
L 157.876771 -93.134554 
L 156.702474 -93.134554 
L 155.528178 -93.134554 
L 154.353881 -93.134554 
L 153.179585 -93.134554 
L 152.005288 -93.134554 
L 150.830991 -93.134554 
L 149.656695 -93.134554 
L 148.482398 -93.134554 
L 147.308102 -93.134554 
L 146.133805 -93.134554 
L 144.959509 -93.134554 
L 143.785212 -93.134554 
L 142.610916 -93.134554 
L 141.436619 -93.134554 
L 140.262323 -93.134554 
L 139.088026 -93.134554 
L 137.91373 -93.134554 
L 136.739433 -93.134554 
L 135.565137 -93.134554 
L 134.39084 -93.134554 
L 133.216544 -93.134554 
z
" style="stroke: #434343; stroke-opacity: 0.65"/>
    </defs>
    <g clip-path="url(#pe1d793bd87)">
     <use xlink:href="#m26e388998c" x="0" y="432" style="fill: #c789e5; fill-opacity: 0.65; stroke: #434343; stroke-opacity: 0.65"/>
    </g>
   </g>
   <g id="matplotlib.axis_1">
    <g id="xtick_1">
     <g id="line2d_1">
      <defs>
       <path id="m9665a47c50" d="M 0 0 
L 0 3.5 
" style="stroke: #000000; stroke-width: 0.8"/>
      </defs>
      <g>
       <use xlink:href="#m9665a47c50" x="128.543384" y="390.04" style="stroke: #000000; stroke-width: 0.8"/>
      </g>
     </g>
     <g id="text_1">
      <!-- 0 -->
      <g transform="translate(125.362134 404.638438) scale(0.1 -0.1)">
       <defs>
        <path id="DejaVuSans-30" d="M 2034 4250 
Q 1547 4250 1301 3770 
Q 1056 3291 1056 2328 
Q 1056 1369 1301 889 
Q 1547 409 2034 409 
Q 2525 409 2770 889 
Q 3016 1369 3016 2328 
Q 3016 3291 2770 3770 
Q 2525 4250 2034 4250 
z
M 2034 4750 
Q 2819 4750 3233 4129 
Q 3647 3509 3647 2328 
Q 3647 1150 3233 529 
Q 2819 -91 2034 -91 
Q 1250 -91 836 529 
Q 422 1150 422 2328 
Q 422 3509 836 4129 
Q 1250 4750 2034 4750 
z
" transform="scale(0.015625)"/>
       </defs>
       <use xlink:href="#DejaVuSans-30"/>
      </g>
     </g>
    </g>
    <g id="xtick_2">
     <g id="line2d_2">
      <g>
       <use xlink:href="#m9665a47c50" x="259.843511" y="390.04" style="stroke: #000000; stroke-width: 0.8"/>
      </g>
     </g>
     <g id="text_2">
      <!-- 100 -->
      <g transform="translate(250.299761 404.638438) scale(0.1 -0.1)">
       <defs>
        <path id="DejaVuSans-31" d="M 794 531 
L 1825 531 
L 1825 4091 
L 703 3866 
L 703 4441 
L 1819 4666 
L 2450 4666 
L 2450 531 
L 3481 531 
L 3481 0 
L 794 0 
L 794 531 
z
" transform="scale(0.015625)"/>
       </defs>
       <use xlink:href="#DejaVuSans-31"/>
       <use xlink:href="#DejaVuSans-30" x="63.623047"/>
       <use xlink:href="#DejaVuSans-30" x="127.246094"/>
      </g>
     </g>
    </g>
    <g id="xtick_3">
     <g id="line2d_3">
      <g>
       <use xlink:href="#m9665a47c50" x="391.143638" y="390.04" style="stroke: #000000; stroke-width: 0.8"/>
      </g>
     </g>
     <g id="text_3">
      <!-- 200 -->
      <g transform="translate(381.599888 404.638438) scale(0.1 -0.1)">
       <defs>
        <path id="DejaVuSans-32" d="M 1228 531 
L 3431 531 
L 3431 0 
L 469 0 
L 469 531 
Q 828 903 1448 1529 
Q 2069 2156 2228 2338 
Q 2531 2678 2651 2914 
Q 2772 3150 2772 3378 
Q 2772 3750 2511 3984 
Q 2250 4219 1831 4219 
Q 1534 4219 1204 4116 
Q 875 4013 500 3803 
L 500 4441 
Q 881 4594 1212 4672 
Q 1544 4750 1819 4750 
Q 2544 4750 2975 4387 
Q 3406 4025 3406 3419 
Q 3406 3131 3298 2873 
Q 3191 2616 2906 2266 
Q 2828 2175 2409 1742 
Q 1991 1309 1228 531 
z
" transform="scale(0.015625)"/>
       </defs>
       <use xlink:href="#DejaVuSans-32"/>
       <use xlink:href="#DejaVuSans-30" x="63.623047"/>
       <use xlink:href="#DejaVuSans-30" x="127.246094"/>
      </g>
     </g>
    </g>
    <g id="xtick_4">
     <g id="line2d_4">
      <g>
       <use xlink:href="#m9665a47c50" x="522.443765" y="390.04" style="stroke: #000000; stroke-width: 0.8"/>
      </g>
     </g>
     <g id="text_4">
      <!-- 300 -->
      <g transform="translate(512.900015 404.638438) scale(0.1 -0.1)">
       <defs>
        <path id="DejaVuSans-33" d="M 2597 2516 
Q 3050 2419 3304 2112 
Q 3559 1806 3559 1356 
Q 3559 666 3084 287 
Q 2609 -91 1734 -91 
Q 1441 -91 1130 -33 
Q 819 25 488 141 
L 488 750 
Q 750 597 1062 519 
Q 1375 441 1716 441 
Q 2309 441 2620 675 
Q 2931 909 2931 1356 
Q 2931 1769 2642 2001 
Q 2353 2234 1838 2234 
L 1294 2234 
L 1294 2753 
L 1863 2753 
Q 2328 2753 2575 2939 
Q 2822 3125 2822 3475 
Q 2822 3834 2567 4026 
Q 2313 4219 1838 4219 
Q 1578 4219 1281 4162 
Q 984 4106 628 3988 
L 628 4550 
Q 988 4650 1302 4700 
Q 1616 4750 1894 4750 
Q 2613 4750 3031 4423 
Q 3450 4097 3450 3541 
Q 3450 3153 3228 2886 
Q 3006 2619 2597 2516 
z
" transform="scale(0.015625)"/>
       </defs>
       <use xlink:href="#DejaVuSans-33"/>
       <use xlink:href="#DejaVuSans-30" x="63.623047"/>
       <use xlink:href="#DejaVuSans-30" x="127.246094"/>
      </g>
     </g>
    </g>
    <g id="xtick_5">
     <g id="line2d_5">
      <g>
       <use xlink:href="#m9665a47c50" x="653.743892" y="390.04" style="stroke: #000000; stroke-width: 0.8"/>
      </g>
     </g>
     <g id="text_5">
      <!-- 400 -->
      <g transform="translate(644.200142 404.638438) scale(0.1 -0.1)">
       <defs>
        <path id="DejaVuSans-34" d="M 2419 4116 
L 825 1625 
L 2419 1625 
L 2419 4116 
z
M 2253 4666 
L 3047 4666 
L 3047 1625 
L 3713 1625 
L 3713 1100 
L 3047 1100 
L 3047 0 
L 2419 0 
L 2419 1100 
L 313 1100 
L 313 1709 
L 2253 4666 
z
" transform="scale(0.015625)"/>
       </defs>
       <use xlink:href="#DejaVuSans-34"/>
       <use xlink:href="#DejaVuSans-30" x="63.623047"/>
       <use xlink:href="#DejaVuSans-30" x="127.246094"/>
      </g>
     </g>
    </g>
    <g id="text_6">
     <!-- Concentration -->
     <g transform="translate(371.933906 418.316562) scale(0.1 -0.1)">
      <defs>
       <path id="DejaVuSans-43" d="M 4122 4306 
L 4122 3641 
Q 3803 3938 3442 4084 
Q 3081 4231 2675 4231 
Q 1875 4231 1450 3742 
Q 1025 3253 1025 2328 
Q 1025 1406 1450 917 
Q 1875 428 2675 428 
Q 3081 428 3442 575 
Q 3803 722 4122 1019 
L 4122 359 
Q 3791 134 3420 21 
Q 3050 -91 2638 -91 
Q 1578 -91 968 557 
Q 359 1206 359 2328 
Q 359 3453 968 4101 
Q 1578 4750 2638 4750 
Q 3056 4750 3426 4639 
Q 3797 4528 4122 4306 
z
" transform="scale(0.015625)"/>
       <path id="DejaVuSans-6f" d="M 1959 3097 
Q 1497 3097 1228 2736 
Q 959 2375 959 1747 
Q 959 1119 1226 758 
Q 1494 397 1959 397 
Q 2419 397 2687 759 
Q 2956 1122 2956 1747 
Q 2956 2369 2687 2733 
Q 2419 3097 1959 3097 
z
M 1959 3584 
Q 2709 3584 3137 3096 
Q 3566 2609 3566 1747 
Q 3566 888 3137 398 
Q 2709 -91 1959 -91 
Q 1206 -91 779 398 
Q 353 888 353 1747 
Q 353 2609 779 3096 
Q 1206 3584 1959 3584 
z
" transform="scale(0.015625)"/>
       <path id="DejaVuSans-6e" d="M 3513 2113 
L 3513 0 
L 2938 0 
L 2938 2094 
Q 2938 2591 2744 2837 
Q 2550 3084 2163 3084 
Q 1697 3084 1428 2787 
Q 1159 2491 1159 1978 
L 1159 0 
L 581 0 
L 581 3500 
L 1159 3500 
L 1159 2956 
Q 1366 3272 1645 3428 
Q 1925 3584 2291 3584 
Q 2894 3584 3203 3211 
Q 3513 2838 3513 2113 
z
" transform="scale(0.015625)"/>
       <path id="DejaVuSans-63" d="M 3122 3366 
L 3122 2828 
Q 2878 2963 2633 3030 
Q 2388 3097 2138 3097 
Q 1578 3097 1268 2742 
Q 959 2388 959 1747 
Q 959 1106 1268 751 
Q 1578 397 2138 397 
Q 2388 397 2633 464 
Q 2878 531 3122 666 
L 3122 134 
Q 2881 22 2623 -34 
Q 2366 -91 2075 -91 
Q 1284 -91 818 406 
Q 353 903 353 1747 
Q 353 2603 823 3093 
Q 1294 3584 2113 3584 
Q 2378 3584 2631 3529 
Q 2884 3475 3122 3366 
z
" transform="scale(0.015625)"/>
       <path id="DejaVuSans-65" d="M 3597 1894 
L 3597 1613 
L 953 1613 
Q 991 1019 1311 708 
Q 1631 397 2203 397 
Q 2534 397 2845 478 
Q 3156 559 3463 722 
L 3463 178 
Q 3153 47 2828 -22 
Q 2503 -91 2169 -91 
Q 1331 -91 842 396 
Q 353 884 353 1716 
Q 353 2575 817 3079 
Q 1281 3584 2069 3584 
Q 2775 3584 3186 3129 
Q 3597 2675 3597 1894 
z
M 3022 2063 
Q 3016 2534 2758 2815 
Q 2500 3097 2075 3097 
Q 1594 3097 1305 2825 
Q 1016 2553 972 2059 
L 3022 2063 
z
" transform="scale(0.015625)"/>
       <path id="DejaVuSans-74" d="M 1172 4494 
L 1172 3500 
L 2356 3500 
L 2356 3053 
L 1172 3053 
L 1172 1153 
Q 1172 725 1289 603 
Q 1406 481 1766 481 
L 2356 481 
L 2356 0 
L 1766 0 
Q 1100 0 847 248 
Q 594 497 594 1153 
L 594 3053 
L 172 3053 
L 172 3500 
L 594 3500 
L 594 4494 
L 1172 4494 
z
" transform="scale(0.015625)"/>
       <path id="DejaVuSans-72" d="M 2631 2963 
Q 2534 3019 2420 3045 
Q 2306 3072 2169 3072 
Q 1681 3072 1420 2755 
Q 1159 2438 1159 1844 
L 1159 0 
L 581 0 
L 581 3500 
L 1159 3500 
L 1159 2956 
Q 1341 3275 1631 3429 
Q 1922 3584 2338 3584 
Q 2397 3584 2469 3576 
Q 2541 3569 2628 3553 
L 2631 2963 
z
" transform="scale(0.015625)"/>
       <path id="DejaVuSans-61" d="M 2194 1759 
Q 1497 1759 1228 1600 
Q 959 1441 959 1056 
Q 959 750 1161 570 
Q 1363 391 1709 391 
Q 2188 391 2477 730 
Q 2766 1069 2766 1631 
L 2766 1759 
L 2194 1759 
z
M 3341 1997 
L 3341 0 
L 2766 0 
L 2766 531 
Q 2569 213 2275 61 
Q 1981 -91 1556 -91 
Q 1019 -91 701 211 
Q 384 513 384 1019 
Q 384 1609 779 1909 
Q 1175 2209 1959 2209 
L 2766 2209 
L 2766 2266 
Q 2766 2663 2505 2880 
Q 2244 3097 1772 3097 
Q 1472 3097 1187 3025 
Q 903 2953 641 2809 
L 641 3341 
Q 956 3463 1253 3523 
Q 1550 3584 1831 3584 
Q 2591 3584 2966 3190 
Q 3341 2797 3341 1997 
z
" transform="scale(0.015625)"/>
       <path id="DejaVuSans-69" d="M 603 3500 
L 1178 3500 
L 1178 0 
L 603 0 
L 603 3500 
z
M 603 4863 
L 1178 4863 
L 1178 4134 
L 603 4134 
L 603 4863 
z
" transform="scale(0.015625)"/>
      </defs>
      <use xlink:href="#DejaVuSans-43"/>
      <use xlink:href="#DejaVuSans-6f" x="69.824219"/>
      <use xlink:href="#DejaVuSans-6e" x="131.005859"/>
      <use xlink:href="#DejaVuSans-63" x="194.384766"/>
      <use xlink:href="#DejaVuSans-65" x="249.365234"/>
      <use xlink:href="#DejaVuSans-6e" x="310.888672"/>
      <use xlink:href="#DejaVuSans-74" x="374.267578"/>
      <use xlink:href="#DejaVuSans-72" x="413.476562"/>
      <use xlink:href="#DejaVuSans-61" x="454.589844"/>
      <use xlink:href="#DejaVuSans-74" x="515.869141"/>
      <use xlink:href="#DejaVuSans-69" x="555.078125"/>
      <use xlink:href="#DejaVuSans-6f" x="582.861328"/>
      <use xlink:href="#DejaVuSans-6e" x="644.042969"/>
     </g>
    </g>
   </g>
   <g id="matplotlib.axis_2">
    <g id="ytick_1">
     <g id="line2d_6">
      <defs>
       <path id="me9007497fd" d="M 0 0 
L -3.5 0 
" style="stroke: #000000; stroke-width: 0.8"/>
      </defs>
      <g>
       <use xlink:href="#me9007497fd" x="105.41" y="61.060723" style="stroke: #000000; stroke-width: 0.8"/>
      </g>
     </g>
     <g id="text_7">
      <!-- Reference -->
      <g transform="translate(48.056875 64.859942) scale(0.1 -0.1)">
       <defs>
        <path id="DejaVuSans-52" d="M 2841 2188 
Q 3044 2119 3236 1894 
Q 3428 1669 3622 1275 
L 4263 0 
L 3584 0 
L 2988 1197 
Q 2756 1666 2539 1819 
Q 2322 1972 1947 1972 
L 1259 1972 
L 1259 0 
L 628 0 
L 628 4666 
L 2053 4666 
Q 2853 4666 3247 4331 
Q 3641 3997 3641 3322 
Q 3641 2881 3436 2590 
Q 3231 2300 2841 2188 
z
M 1259 4147 
L 1259 2491 
L 2053 2491 
Q 2509 2491 2742 2702 
Q 2975 2913 2975 3322 
Q 2975 3731 2742 3939 
Q 2509 4147 2053 4147 
L 1259 4147 
z
" transform="scale(0.015625)"/>
        <path id="DejaVuSans-66" d="M 2375 4863 
L 2375 4384 
L 1825 4384 
Q 1516 4384 1395 4259 
Q 1275 4134 1275 3809 
L 1275 3500 
L 2222 3500 
L 2222 3053 
L 1275 3053 
L 1275 0 
L 697 0 
L 697 3053 
L 147 3053 
L 147 3500 
L 697 3500 
L 697 3744 
Q 697 4328 969 4595 
Q 1241 4863 1831 4863 
L 2375 4863 
z
" transform="scale(0.015625)"/>
       </defs>
       <use xlink:href="#DejaVuSans-52"/>
       <use xlink:href="#DejaVuSans-65" x="64.982422"/>
       <use xlink:href="#DejaVuSans-66" x="126.505859"/>
       <use xlink:href="#DejaVuSans-65" x="161.710938"/>
       <use xlink:href="#DejaVuSans-72" x="223.234375"/>
       <use xlink:href="#DejaVuSans-65" x="262.097656"/>
       <use xlink:href="#DejaVuSans-6e" x="323.621094"/>
       <use xlink:href="#DejaVuSans-63" x="387"/>
       <use xlink:href="#DejaVuSans-65" x="441.980469"/>
      </g>
     </g>
    </g>
    <g id="ytick_2">
     <g id="line2d_7">
      <g>
       <use xlink:href="#me9007497fd" x="105.41" y="134.167229" style="stroke: #000000; stroke-width: 0.8"/>
      </g>
     </g>
     <g id="text_8">
      <!-- 24h 4C +PBS -->
      <g transform="translate(27.489688 137.966448) scale(0.1 -0.1)">
       <defs>
        <path id="DejaVuSans-68" d="M 3513 2113 
L 3513 0 
L 2938 0 
L 2938 2094 
Q 2938 2591 2744 2837 
Q 2550 3084 2163 3084 
Q 1697 3084 1428 2787 
Q 1159 2491 1159 1978 
L 1159 0 
L 581 0 
L 581 4863 
L 1159 4863 
L 1159 2956 
Q 1366 3272 1645 3428 
Q 1925 3584 2291 3584 
Q 2894 3584 3203 3211 
Q 3513 2838 3513 2113 
z
" transform="scale(0.015625)"/>
        <path id="DejaVuSans-20" transform="scale(0.015625)"/>
        <path id="DejaVuSans-ba" d="M 434 1850 
L 2584 1850 
L 2584 1466 
L 434 1466 
L 434 1850 
z
M 1509 4750 
Q 2069 4750 2391 4404 
Q 2713 4059 2713 3463 
Q 2713 2866 2391 2523 
Q 2069 2181 1509 2181 
Q 950 2181 625 2525 
Q 300 2869 300 3463 
Q 300 4059 625 4404 
Q 950 4750 1509 4750 
z
M 1509 4391 
Q 1181 4391 984 4139 
Q 788 3888 788 3463 
Q 788 3047 986 2797 
Q 1184 2547 1509 2547 
Q 1838 2547 2033 2797 
Q 2228 3047 2228 3463 
Q 2228 3891 2034 4141 
Q 1841 4391 1509 4391 
z
" transform="scale(0.015625)"/>
        <path id="DejaVuSans-2b" d="M 2944 4013 
L 2944 2272 
L 4684 2272 
L 4684 1741 
L 2944 1741 
L 2944 0 
L 2419 0 
L 2419 1741 
L 678 1741 
L 678 2272 
L 2419 2272 
L 2419 4013 
L 2944 4013 
z
" transform="scale(0.015625)"/>
        <path id="DejaVuSans-50" d="M 1259 4147 
L 1259 2394 
L 2053 2394 
Q 2494 2394 2734 2622 
Q 2975 2850 2975 3272 
Q 2975 3691 2734 3919 
Q 2494 4147 2053 4147 
L 1259 4147 
z
M 628 4666 
L 2053 4666 
Q 2838 4666 3239 4311 
Q 3641 3956 3641 3272 
Q 3641 2581 3239 2228 
Q 2838 1875 2053 1875 
L 1259 1875 
L 1259 0 
L 628 0 
L 628 4666 
z
" transform="scale(0.015625)"/>
        <path id="DejaVuSans-42" d="M 1259 2228 
L 1259 519 
L 2272 519 
Q 2781 519 3026 730 
Q 3272 941 3272 1375 
Q 3272 1813 3026 2020 
Q 2781 2228 2272 2228 
L 1259 2228 
z
M 1259 4147 
L 1259 2741 
L 2194 2741 
Q 2656 2741 2882 2914 
Q 3109 3088 3109 3444 
Q 3109 3797 2882 3972 
Q 2656 4147 2194 4147 
L 1259 4147 
z
M 628 4666 
L 2241 4666 
Q 2963 4666 3353 4366 
Q 3744 4066 3744 3513 
Q 3744 3084 3544 2831 
Q 3344 2578 2956 2516 
Q 3422 2416 3680 2098 
Q 3938 1781 3938 1306 
Q 3938 681 3513 340 
Q 3088 0 2303 0 
L 628 0 
L 628 4666 
z
" transform="scale(0.015625)"/>
        <path id="DejaVuSans-53" d="M 3425 4513 
L 3425 3897 
Q 3066 4069 2747 4153 
Q 2428 4238 2131 4238 
Q 1616 4238 1336 4038 
Q 1056 3838 1056 3469 
Q 1056 3159 1242 3001 
Q 1428 2844 1947 2747 
L 2328 2669 
Q 3034 2534 3370 2195 
Q 3706 1856 3706 1288 
Q 3706 609 3251 259 
Q 2797 -91 1919 -91 
Q 1588 -91 1214 -16 
Q 841 59 441 206 
L 441 856 
Q 825 641 1194 531 
Q 1563 422 1919 422 
Q 2459 422 2753 634 
Q 3047 847 3047 1241 
Q 3047 1584 2836 1778 
Q 2625 1972 2144 2069 
L 1759 2144 
Q 1053 2284 737 2584 
Q 422 2884 422 3419 
Q 422 4038 858 4394 
Q 1294 4750 2059 4750 
Q 2388 4750 2728 4690 
Q 3069 4631 3425 4513 
z
" transform="scale(0.015625)"/>
       </defs>
       <use xlink:href="#DejaVuSans-32"/>
       <use xlink:href="#DejaVuSans-34" x="63.623047"/>
       <use xlink:href="#DejaVuSans-68" x="127.246094"/>
       <use xlink:href="#DejaVuSans-20" x="190.625"/>
       <use xlink:href="#DejaVuSans-34" x="222.412109"/>
       <use xlink:href="#DejaVuSans-ba" x="286.035156"/>
       <use xlink:href="#DejaVuSans-43" x="333.154297"/>
       <use xlink:href="#DejaVuSans-20" x="402.978516"/>
       <use xlink:href="#DejaVuSans-2b" x="434.765625"/>
       <use xlink:href="#DejaVuSans-50" x="518.554688"/>
       <use xlink:href="#DejaVuSans-42" x="578.857422"/>
       <use xlink:href="#DejaVuSans-53" x="645.710938"/>
      </g>
     </g>
    </g>
    <g id="ytick_3">
     <g id="line2d_8">
      <g>
       <use xlink:href="#me9007497fd" x="105.41" y="207.273735" style="stroke: #000000; stroke-width: 0.8"/>
      </g>
     </g>
     <g id="text_9">
      <!-- 72h 4C +PBS -->
      <g transform="translate(27.489688 211.072954) scale(0.1 -0.1)">
       <defs>
        <path id="DejaVuSans-37" d="M 525 4666 
L 3525 4666 
L 3525 4397 
L 1831 0 
L 1172 0 
L 2766 4134 
L 525 4134 
L 525 4666 
z
" transform="scale(0.015625)"/>
       </defs>
       <use xlink:href="#DejaVuSans-37"/>
       <use xlink:href="#DejaVuSans-32" x="63.623047"/>
       <use xlink:href="#DejaVuSans-68" x="127.246094"/>
       <use xlink:href="#DejaVuSans-20" x="190.625"/>
       <use xlink:href="#DejaVuSans-34" x="222.412109"/>
       <use xlink:href="#DejaVuSans-ba" x="286.035156"/>
       <use xlink:href="#DejaVuSans-43" x="333.154297"/>
       <use xlink:href="#DejaVuSans-20" x="402.978516"/>
       <use xlink:href="#DejaVuSans-2b" x="434.765625"/>
       <use xlink:href="#DejaVuSans-50" x="518.554688"/>
       <use xlink:href="#DejaVuSans-42" x="578.857422"/>
       <use xlink:href="#DejaVuSans-53" x="645.710938"/>
      </g>
     </g>
    </g>
    <g id="ytick_4">
     <g id="line2d_9">
      <g>
       <use xlink:href="#me9007497fd" x="105.41" y="280.380241" style="stroke: #000000; stroke-width: 0.8"/>
      </g>
     </g>
     <g id="text_10">
      <!-- 24h 4C -PBS -->
      <g transform="translate(32.261563 284.17946) scale(0.1 -0.1)">
       <defs>
        <path id="DejaVuSans-2d" d="M 313 2009 
L 1997 2009 
L 1997 1497 
L 313 1497 
L 313 2009 
z
" transform="scale(0.015625)"/>
       </defs>
       <use xlink:href="#DejaVuSans-32"/>
       <use xlink:href="#DejaVuSans-34" x="63.623047"/>
       <use xlink:href="#DejaVuSans-68" x="127.246094"/>
       <use xlink:href="#DejaVuSans-20" x="190.625"/>
       <use xlink:href="#DejaVuSans-34" x="222.412109"/>
       <use xlink:href="#DejaVuSans-ba" x="286.035156"/>
       <use xlink:href="#DejaVuSans-43" x="333.154297"/>
       <use xlink:href="#DejaVuSans-20" x="402.978516"/>
       <use xlink:href="#DejaVuSans-2d" x="434.765625"/>
       <use xlink:href="#DejaVuSans-50" x="470.849609"/>
       <use xlink:href="#DejaVuSans-42" x="531.152344"/>
       <use xlink:href="#DejaVuSans-53" x="598.005859"/>
      </g>
     </g>
    </g>
    <g id="ytick_5">
     <g id="line2d_10">
      <g>
       <use xlink:href="#me9007497fd" x="105.41" y="353.486747" style="stroke: #000000; stroke-width: 0.8"/>
      </g>
     </g>
     <g id="text_11">
      <!-- 72h 4C -PBS -->
      <g transform="translate(32.261563 357.285966) scale(0.1 -0.1)">
       <use xlink:href="#DejaVuSans-37"/>
       <use xlink:href="#DejaVuSans-32" x="63.623047"/>
       <use xlink:href="#DejaVuSans-68" x="127.246094"/>
       <use xlink:href="#DejaVuSans-20" x="190.625"/>
       <use xlink:href="#DejaVuSans-34" x="222.412109"/>
       <use xlink:href="#DejaVuSans-ba" x="286.035156"/>
       <use xlink:href="#DejaVuSans-43" x="333.154297"/>
       <use xlink:href="#DejaVuSans-20" x="402.978516"/>
       <use xlink:href="#DejaVuSans-2d" x="434.765625"/>
       <use xlink:href="#DejaVuSans-50" x="470.849609"/>
       <use xlink:href="#DejaVuSans-42" x="531.152344"/>
       <use xlink:href="#DejaVuSans-53" x="598.005859"/>
      </g>
     </g>
    </g>
    <g id="text_12">
     <!-- $log([HSPB1]/[Total Protein])$ -->
     <g transform="translate(21.389688 268.12) rotate(-90) scale(0.1 -0.1)">
      <defs>
       <path id="DejaVuSans-Oblique-6c" d="M 1172 4863 
L 1747 4863 
L 800 0 
L 225 0 
L 1172 4863 
z
" transform="scale(0.015625)"/>
       <path id="DejaVuSans-Oblique-6f" d="M 1625 -91 
Q 1009 -91 651 289 
Q 294 669 294 1325 
Q 294 1706 417 2101 
Q 541 2497 738 2766 
Q 1047 3184 1428 3384 
Q 1809 3584 2291 3584 
Q 2888 3584 3255 3212 
Q 3622 2841 3622 2241 
Q 3622 1825 3500 1412 
Q 3378 1000 3181 728 
Q 2875 309 2494 109 
Q 2113 -91 1625 -91 
z
M 891 1344 
Q 891 869 1089 633 
Q 1288 397 1691 397 
Q 2269 397 2648 901 
Q 3028 1406 3028 2181 
Q 3028 2634 2825 2865 
Q 2622 3097 2228 3097 
Q 1903 3097 1650 2945 
Q 1397 2794 1197 2484 
Q 1050 2253 970 1956 
Q 891 1659 891 1344 
z
" transform="scale(0.015625)"/>
       <path id="DejaVuSans-Oblique-67" d="M 3816 3500 
L 3219 434 
Q 3047 -456 2561 -893 
Q 2075 -1331 1253 -1331 
Q 950 -1331 690 -1286 
Q 431 -1241 206 -1147 
L 313 -588 
Q 525 -725 762 -790 
Q 1000 -856 1269 -856 
Q 1816 -856 2167 -557 
Q 2519 -259 2631 300 
L 2681 563 
Q 2441 288 2122 144 
Q 1803 0 1434 0 
Q 903 0 598 351 
Q 294 703 294 1319 
Q 294 1803 478 2267 
Q 663 2731 997 3091 
Q 1219 3328 1514 3456 
Q 1809 3584 2131 3584 
Q 2484 3584 2746 3420 
Q 3009 3256 3138 2956 
L 3238 3500 
L 3816 3500 
z
M 2950 2216 
Q 2950 2641 2750 2872 
Q 2550 3103 2181 3103 
Q 1953 3103 1747 3012 
Q 1541 2922 1394 2759 
Q 1156 2491 1023 2127 
Q 891 1763 891 1375 
Q 891 944 1092 712 
Q 1294 481 1672 481 
Q 2219 481 2584 976 
Q 2950 1472 2950 2216 
z
" transform="scale(0.015625)"/>
       <path id="DejaVuSans-28" d="M 1984 4856 
Q 1566 4138 1362 3434 
Q 1159 2731 1159 2009 
Q 1159 1288 1364 580 
Q 1569 -128 1984 -844 
L 1484 -844 
Q 1016 -109 783 600 
Q 550 1309 550 2009 
Q 550 2706 781 3412 
Q 1013 4119 1484 4856 
L 1984 4856 
z
" transform="scale(0.015625)"/>
       <path id="DejaVuSans-5b" d="M 550 4863 
L 1875 4863 
L 1875 4416 
L 1125 4416 
L 1125 -397 
L 1875 -397 
L 1875 -844 
L 550 -844 
L 550 4863 
z
" transform="scale(0.015625)"/>
       <path id="DejaVuSans-Oblique-48" d="M 1081 4666 
L 1716 4666 
L 1344 2753 
L 3634 2753 
L 4006 4666 
L 4641 4666 
L 3731 0 
L 3097 0 
L 3531 2222 
L 1241 2222 
L 806 0 
L 172 0 
L 1081 4666 
z
" transform="scale(0.015625)"/>
       <path id="DejaVuSans-Oblique-53" d="M 3859 4513 
L 3738 3897 
Q 3422 4066 3111 4152 
Q 2800 4238 2509 4238 
Q 1944 4238 1609 3991 
Q 1275 3744 1275 3334 
Q 1275 3109 1398 2989 
Q 1522 2869 2034 2731 
L 2413 2638 
Q 3053 2472 3303 2217 
Q 3553 1963 3553 1503 
Q 3553 797 2998 353 
Q 2444 -91 1538 -91 
Q 1166 -91 791 -17 
Q 416 56 38 206 
L 166 856 
Q 513 641 861 531 
Q 1209 422 1556 422 
Q 2147 422 2503 684 
Q 2859 947 2859 1369 
Q 2859 1650 2717 1795 
Q 2575 1941 2106 2059 
L 1728 2156 
Q 1081 2325 845 2545 
Q 609 2766 609 3163 
Q 609 3859 1145 4304 
Q 1681 4750 2541 4750 
Q 2875 4750 3203 4690 
Q 3531 4631 3859 4513 
z
" transform="scale(0.015625)"/>
       <path id="DejaVuSans-Oblique-50" d="M 1081 4666 
L 2541 4666 
Q 3178 4666 3512 4369 
Q 3847 4072 3847 3500 
Q 3847 2731 3353 2303 
Q 2859 1875 1966 1875 
L 1172 1875 
L 806 0 
L 172 0 
L 1081 4666 
z
M 1613 4147 
L 1275 2394 
L 2069 2394 
Q 2606 2394 2893 2669 
Q 3181 2944 3181 3456 
Q 3181 3784 2986 3965 
Q 2791 4147 2438 4147 
L 1613 4147 
z
" transform="scale(0.015625)"/>
       <path id="DejaVuSans-Oblique-42" d="M 1081 4666 
L 2694 4666 
Q 3350 4666 3675 4422 
Q 4000 4178 4000 3688 
Q 4000 3238 3720 2911 
Q 3441 2584 2988 2516 
Q 3375 2428 3569 2181 
Q 3763 1934 3763 1522 
Q 3763 819 3242 409 
Q 2722 0 1819 0 
L 172 0 
L 1081 4666 
z
M 1234 2228 
L 903 519 
L 1919 519 
Q 2491 519 2800 781 
Q 3109 1044 3109 1522 
Q 3109 1891 2904 2059 
Q 2700 2228 2247 2228 
L 1234 2228 
z
M 1606 4147 
L 1331 2741 
L 2272 2741 
Q 2775 2741 3058 2959 
Q 3341 3178 3341 3566 
Q 3341 3869 3150 4008 
Q 2959 4147 2541 4147 
L 1606 4147 
z
" transform="scale(0.015625)"/>
       <path id="DejaVuSans-5d" d="M 1947 4863 
L 1947 -844 
L 622 -844 
L 622 -397 
L 1369 -397 
L 1369 4416 
L 622 4416 
L 622 4863 
L 1947 4863 
z
" transform="scale(0.015625)"/>
       <path id="DejaVuSans-2f" d="M 1625 4666 
L 2156 4666 
L 531 -594 
L 0 -594 
L 1625 4666 
z
" transform="scale(0.015625)"/>
       <path id="DejaVuSans-Oblique-54" d="M 378 4666 
L 4325 4666 
L 4225 4134 
L 2559 4134 
L 1759 0 
L 1125 0 
L 1925 4134 
L 275 4134 
L 378 4666 
z
" transform="scale(0.015625)"/>
       <path id="DejaVuSans-Oblique-74" d="M 2706 3500 
L 2619 3053 
L 1472 3053 
L 1100 1153 
Q 1081 1047 1072 975 
Q 1063 903 1063 863 
Q 1063 663 1183 572 
Q 1303 481 1569 481 
L 2150 481 
L 2053 0 
L 1503 0 
Q 991 0 739 200 
Q 488 400 488 806 
Q 488 878 497 964 
Q 506 1050 525 1153 
L 897 3053 
L 409 3053 
L 500 3500 
L 978 3500 
L 1172 4494 
L 1747 4494 
L 1556 3500 
L 2706 3500 
z
" transform="scale(0.015625)"/>
       <path id="DejaVuSans-Oblique-61" d="M 3438 1997 
L 3047 0 
L 2472 0 
L 2578 531 
Q 2325 219 2001 64 
Q 1678 -91 1281 -91 
Q 834 -91 548 182 
Q 263 456 263 884 
Q 263 1497 752 1853 
Q 1241 2209 2100 2209 
L 2900 2209 
L 2931 2363 
Q 2938 2388 2941 2417 
Q 2944 2447 2944 2509 
Q 2944 2788 2717 2942 
Q 2491 3097 2081 3097 
Q 1800 3097 1504 3025 
Q 1209 2953 897 2809 
L 997 3341 
Q 1322 3463 1633 3523 
Q 1944 3584 2234 3584 
Q 2853 3584 3176 3315 
Q 3500 3047 3500 2534 
Q 3500 2431 3484 2292 
Q 3469 2153 3438 1997 
z
M 2816 1759 
L 2241 1759 
Q 1534 1759 1195 1570 
Q 856 1381 856 984 
Q 856 709 1029 553 
Q 1203 397 1509 397 
Q 1978 397 2328 733 
Q 2678 1069 2791 1631 
L 2816 1759 
z
" transform="scale(0.015625)"/>
       <path id="DejaVuSans-Oblique-72" d="M 2853 2969 
Q 2766 3016 2653 3041 
Q 2541 3066 2413 3066 
Q 1953 3066 1609 2717 
Q 1266 2369 1153 1784 
L 800 0 
L 225 0 
L 909 3500 
L 1484 3500 
L 1375 2956 
Q 1603 3259 1920 3421 
Q 2238 3584 2597 3584 
Q 2691 3584 2781 3573 
Q 2872 3563 2963 3538 
L 2853 2969 
z
" transform="scale(0.015625)"/>
       <path id="DejaVuSans-Oblique-65" d="M 3078 2063 
Q 3088 2113 3092 2166 
Q 3097 2219 3097 2272 
Q 3097 2653 2873 2875 
Q 2650 3097 2266 3097 
Q 1838 3097 1509 2826 
Q 1181 2556 1013 2059 
L 3078 2063 
z
M 3578 1613 
L 903 1613 
Q 884 1494 878 1425 
Q 872 1356 872 1306 
Q 872 872 1139 634 
Q 1406 397 1894 397 
Q 2269 397 2603 481 
Q 2938 566 3225 728 
L 3116 159 
Q 2806 34 2476 -28 
Q 2147 -91 1806 -91 
Q 1078 -91 686 257 
Q 294 606 294 1247 
Q 294 1794 489 2264 
Q 684 2734 1063 3103 
Q 1306 3334 1642 3459 
Q 1978 3584 2356 3584 
Q 2950 3584 3301 3228 
Q 3653 2872 3653 2272 
Q 3653 2128 3634 1964 
Q 3616 1800 3578 1613 
z
" transform="scale(0.015625)"/>
       <path id="DejaVuSans-Oblique-69" d="M 1172 4863 
L 1747 4863 
L 1606 4134 
L 1031 4134 
L 1172 4863 
z
M 909 3500 
L 1484 3500 
L 800 0 
L 225 0 
L 909 3500 
z
" transform="scale(0.015625)"/>
       <path id="DejaVuSans-Oblique-6e" d="M 3566 2113 
L 3156 0 
L 2578 0 
L 2988 2091 
Q 3016 2238 3031 2350 
Q 3047 2463 3047 2528 
Q 3047 2791 2881 2937 
Q 2716 3084 2419 3084 
Q 1956 3084 1622 2776 
Q 1288 2469 1184 1941 
L 800 0 
L 225 0 
L 903 3500 
L 1478 3500 
L 1363 2950 
Q 1603 3253 1940 3418 
Q 2278 3584 2650 3584 
Q 3113 3584 3367 3334 
Q 3622 3084 3622 2631 
Q 3622 2519 3608 2391 
Q 3594 2263 3566 2113 
z
" transform="scale(0.015625)"/>
       <path id="DejaVuSans-29" d="M 513 4856 
L 1013 4856 
Q 1481 4119 1714 3412 
Q 1947 2706 1947 2009 
Q 1947 1309 1714 600 
Q 1481 -109 1013 -844 
L 513 -844 
Q 928 -128 1133 580 
Q 1338 1288 1338 2009 
Q 1338 2731 1133 3434 
Q 928 4138 513 4856 
z
" transform="scale(0.015625)"/>
      </defs>
      <use xlink:href="#DejaVuSans-Oblique-6c" transform="translate(0 0.015625)"/>
      <use xlink:href="#DejaVuSans-Oblique-6f" transform="translate(27.783203 0.015625)"/>
      <use xlink:href="#DejaVuSans-Oblique-67" transform="translate(88.964844 0.015625)"/>
      <use xlink:href="#DejaVuSans-28" transform="translate(152.441406 0.015625)"/>
      <use xlink:href="#DejaVuSans-5b" transform="translate(191.455078 0.015625)"/>
      <use xlink:href="#DejaVuSans-Oblique-48" transform="translate(227.34375 0.015625)"/>
      <use xlink:href="#DejaVuSans-Oblique-53" transform="translate(302.539062 0.015625)"/>
      <use xlink:href="#DejaVuSans-Oblique-50" transform="translate(366.015625 0.015625)"/>
      <use xlink:href="#DejaVuSans-Oblique-42" transform="translate(426.318359 0.015625)"/>
      <use xlink:href="#DejaVuSans-31" transform="translate(494.921875 0.015625)"/>
      <use xlink:href="#DejaVuSans-5d" transform="translate(558.544922 0.015625)"/>
      <use xlink:href="#DejaVuSans-2f" transform="translate(597.558594 0.015625)"/>
      <use xlink:href="#DejaVuSans-5b" transform="translate(631.25 0.015625)"/>
      <use xlink:href="#DejaVuSans-Oblique-54" transform="translate(670.263672 0.015625)"/>
      <use xlink:href="#DejaVuSans-Oblique-6f" transform="translate(731.347656 0.015625)"/>
      <use xlink:href="#DejaVuSans-Oblique-74" transform="translate(792.529297 0.015625)"/>
      <use xlink:href="#DejaVuSans-Oblique-61" transform="translate(831.738281 0.015625)"/>
      <use xlink:href="#DejaVuSans-Oblique-6c" transform="translate(893.017578 0.015625)"/>
      <use xlink:href="#DejaVuSans-Oblique-50" transform="translate(920.800781 0.015625)"/>
      <use xlink:href="#DejaVuSans-Oblique-72" transform="translate(981.103516 0.015625)"/>
      <use xlink:href="#DejaVuSans-Oblique-6f" transform="translate(1022.216797 0.015625)"/>
      <use xlink:href="#DejaVuSans-Oblique-74" transform="translate(1083.398438 0.015625)"/>
      <use xlink:href="#DejaVuSans-Oblique-65" transform="translate(1122.607422 0.015625)"/>
      <use xlink:href="#DejaVuSans-Oblique-69" transform="translate(1184.130859 0.015625)"/>
      <use xlink:href="#DejaVuSans-Oblique-6e" transform="translate(1211.914062 0.015625)"/>
      <use xlink:href="#DejaVuSans-5d" transform="translate(1275.292969 0.015625)"/>
      <use xlink:href="#DejaVuSans-29" transform="translate(1314.306641 0.015625)"/>
     </g>
    </g>
   </g>
   <g id="line2d_11">
    <path d="M 139.728286 58.319229 
L 139.728286 63.802217 
" clip-path="url(#pe1d793bd87)" style="fill: none; stroke: #434343; stroke-width: 1.5; stroke-linecap: square"/>
   </g>
   <g id="line2d_12">
    <path d="M 216.83406 58.319229 
L 216.83406 63.802217 
" clip-path="url(#pe1d793bd87)" style="fill: none; stroke: #434343; stroke-width: 1.5; stroke-linecap: square"/>
   </g>
   <g id="line2d_13">
    <defs>
     <path id="m51ff217a42" d="M -0 3.535534 
L 2.12132 0 
L -0 -3.535534 
L -2.12132 -0 
z
" style="stroke: #434343; stroke-linejoin: miter"/>
    </defs>
    <g clip-path="url(#pe1d793bd87)">
     <use xlink:href="#m51ff217a42" x="519.125901" y="61.060723" style="fill: #434343; stroke: #434343; stroke-linejoin: miter"/>
     <use xlink:href="#m51ff217a42" x="279.296611" y="61.060723" style="fill: #434343; stroke: #434343; stroke-linejoin: miter"/>
     <use xlink:href="#m51ff217a42" x="413.782992" y="61.060723" style="fill: #434343; stroke: #434343; stroke-linejoin: miter"/>
     <use xlink:href="#m51ff217a42" x="431.500602" y="61.060723" style="fill: #434343; stroke: #434343; stroke-linejoin: miter"/>
     <use xlink:href="#m51ff217a42" x="348.721124" y="61.060723" style="fill: #434343; stroke: #434343; stroke-linejoin: miter"/>
    </g>
   </g>
   <g id="line2d_14">
    <path d="M 133.335687 131.425735 
L 133.335687 136.908723 
" clip-path="url(#pe1d793bd87)" style="fill: none; stroke: #434343; stroke-width: 1.5; stroke-linecap: square"/>
   </g>
   <g id="line2d_15">
    <path d="M 239.764617 131.425735 
L 239.764617 136.908723 
" clip-path="url(#pe1d793bd87)" style="fill: none; stroke: #434343; stroke-width: 1.5; stroke-linecap: square"/>
   </g>
   <g id="line2d_16">
    <g clip-path="url(#pe1d793bd87)">
     <use xlink:href="#m51ff217a42" x="358.248231" y="134.167229" style="fill: #434343; stroke: #434343; stroke-linejoin: miter"/>
     <use xlink:href="#m51ff217a42" x="274.831252" y="134.167229" style="fill: #434343; stroke: #434343; stroke-linejoin: miter"/>
     <use xlink:href="#m51ff217a42" x="295.138444" y="134.167229" style="fill: #434343; stroke: #434343; stroke-linejoin: miter"/>
    </g>
   </g>
   <g id="line2d_17">
    <path d="M 134.345062 204.532241 
L 134.345062 210.015229 
" clip-path="url(#pe1d793bd87)" style="fill: none; stroke: #434343; stroke-width: 1.5; stroke-linecap: square"/>
   </g>
   <g id="line2d_18">
    <path d="M 247.664637 204.532241 
L 247.664637 210.015229 
" clip-path="url(#pe1d793bd87)" style="fill: none; stroke: #434343; stroke-width: 1.5; stroke-linecap: square"/>
   </g>
   <g id="line2d_19">
    <g clip-path="url(#pe1d793bd87)">
     <use xlink:href="#m51ff217a42" x="681.755" y="207.273735" style="fill: #434343; stroke: #434343; stroke-linejoin: miter"/>
     <use xlink:href="#m51ff217a42" x="286.746466" y="207.273735" style="fill: #434343; stroke: #434343; stroke-linejoin: miter"/>
    </g>
   </g>
   <g id="line2d_20">
    <path d="M 132.855 277.638747 
L 132.855 283.121735 
" clip-path="url(#pe1d793bd87)" style="fill: none; stroke: #434343; stroke-width: 1.5; stroke-linecap: square"/>
   </g>
   <g id="line2d_21">
    <path d="M 230.308397 277.638747 
L 230.308397 283.121735 
" clip-path="url(#pe1d793bd87)" style="fill: none; stroke: #434343; stroke-width: 1.5; stroke-linecap: square"/>
   </g>
   <g id="line2d_22">
    <g clip-path="url(#pe1d793bd87)">
     <use xlink:href="#m51ff217a42" x="510.555386" y="280.380241" style="fill: #434343; stroke: #434343; stroke-linejoin: miter"/>
     <use xlink:href="#m51ff217a42" x="424.585103" y="280.380241" style="fill: #434343; stroke: #434343; stroke-linejoin: miter"/>
     <use xlink:href="#m51ff217a42" x="253.408643" y="280.380241" style="fill: #434343; stroke: #434343; stroke-linejoin: miter"/>
    </g>
   </g>
   <g id="line2d_23">
    <path d="M 133.216544 350.745253 
L 133.216544 356.228241 
" clip-path="url(#pe1d793bd87)" style="fill: none; stroke: #434343; stroke-width: 1.5; stroke-linecap: square"/>
   </g>
   <g id="line2d_24">
    <path d="M 249.471899 350.745253 
L 249.471899 356.228241 
" clip-path="url(#pe1d793bd87)" style="fill: none; stroke: #434343; stroke-width: 1.5; stroke-linecap: square"/>
   </g>
   <g id="line2d_25"/>
   <g id="line2d_26">
    <path d="M 166.872339 55.577735 
L 166.872339 66.543711 
" clip-path="url(#pe1d793bd87)" style="fill: none; stroke: #434343; stroke-width: 1.5; stroke-linecap: square"/>
   </g>
   <g id="line2d_27">
    <path d="M 147.443914 128.684241 
L 147.443914 139.650217 
" clip-path="url(#pe1d793bd87)" style="fill: none; stroke: #434343; stroke-width: 1.5; stroke-linecap: square"/>
   </g>
   <g id="line2d_28">
    <path d="M 151.077475 201.790747 
L 151.077475 212.756723 
" clip-path="url(#pe1d793bd87)" style="fill: none; stroke: #434343; stroke-width: 1.5; stroke-linecap: square"/>
   </g>
   <g id="line2d_29">
    <path d="M 142.835221 274.897253 
L 142.835221 285.863229 
" clip-path="url(#pe1d793bd87)" style="fill: none; stroke: #434343; stroke-width: 1.5; stroke-linecap: square"/>
   </g>
   <g id="line2d_30">
    <path d="M 148.893502 348.003759 
L 148.893502 358.969735 
" clip-path="url(#pe1d793bd87)" style="fill: none; stroke: #434343; stroke-width: 1.5; stroke-linecap: square"/>
   </g>
   <g id="patch_3">
    <path d="M 105.41 390.04 
L 105.41 10.8 
" style="fill: none; stroke: #000000; stroke-width: 0.8; stroke-linejoin: miter; stroke-linecap: square"/>
   </g>
   <g id="patch_4">
    <path d="M 709.2 390.04 
L 709.2 10.8 
" style="fill: none; stroke: #000000; stroke-width: 0.8; stroke-linejoin: miter; stroke-linecap: square"/>
   </g>
   <g id="patch_5">
    <path d="M 105.41 390.04 
L 709.2 390.04 
" style="fill: none; stroke: #000000; stroke-width: 0.8; stroke-linejoin: miter; stroke-linecap: square"/>
   </g>
   <g id="patch_6">
    <path d="M 105.41 10.8 
L 709.2 10.8 
" style="fill: none; stroke: #000000; stroke-width: 0.8; stroke-linejoin: miter; stroke-linecap: square"/>
   </g>
   <g id="patch_7">
    <path d="M 152.498121 55.577735 
L 152.498121 66.543711 
L 200.983569 66.543711 
L 200.983569 55.577735 
L 152.498121 55.577735 
L 152.498121 55.577735 
z
" clip-path="url(#pe1d793bd87)" style="fill: none; stroke: #434343; stroke-width: 1.5; stroke-linejoin: miter"/>
   </g>
   <g id="line2d_31">
    <path d="M 152.498121 61.060723 
L 139.728286 61.060723 
" clip-path="url(#pe1d793bd87)" style="fill: none; stroke: #434343; stroke-width: 2; stroke-linecap: square"/>
   </g>
   <g id="line2d_32">
    <path d="M 200.983569 61.060723 
L 216.83406 61.060723 
" clip-path="url(#pe1d793bd87)" style="fill: none; stroke: #434343; stroke-width: 2; stroke-linecap: square"/>
   </g>
   <g id="patch_8">
    <path d="M 141.748363 128.684241 
L 141.748363 139.650217 
L 194.409927 139.650217 
L 194.409927 128.684241 
L 141.748363 128.684241 
L 141.748363 128.684241 
z
" clip-path="url(#pe1d793bd87)" style="fill: none; stroke: #434343; stroke-width: 1.5; stroke-linejoin: miter"/>
   </g>
   <g id="line2d_33">
    <path d="M 141.748363 134.167229 
L 133.335687 134.167229 
" clip-path="url(#pe1d793bd87)" style="fill: none; stroke: #434343; stroke-width: 2; stroke-linecap: square"/>
   </g>
   <g id="line2d_34">
    <path d="M 194.409927 134.167229 
L 239.764617 134.167229 
" clip-path="url(#pe1d793bd87)" style="fill: none; stroke: #434343; stroke-width: 2; stroke-linecap: square"/>
   </g>
   <g id="patch_9">
    <path d="M 141.22966 201.790747 
L 141.22966 212.756723 
L 194.562786 212.756723 
L 194.562786 201.790747 
L 141.22966 201.790747 
L 141.22966 201.790747 
z
" clip-path="url(#pe1d793bd87)" style="fill: none; stroke: #434343; stroke-width: 1.5; stroke-linejoin: miter"/>
   </g>
   <g id="line2d_35">
    <path d="M 141.22966 207.273735 
L 134.345062 207.273735 
" clip-path="url(#pe1d793bd87)" style="fill: none; stroke: #434343; stroke-width: 2; stroke-linecap: square"/>
   </g>
   <g id="line2d_36">
    <path d="M 194.562786 207.273735 
L 247.664637 207.273735 
" clip-path="url(#pe1d793bd87)" style="fill: none; stroke: #434343; stroke-width: 2; stroke-linecap: square"/>
   </g>
   <g id="patch_10">
    <path d="M 137.554708 274.897253 
L 137.554708 285.863229 
L 183.43886 285.863229 
L 183.43886 274.897253 
L 137.554708 274.897253 
L 137.554708 274.897253 
z
" clip-path="url(#pe1d793bd87)" style="fill: none; stroke: #434343; stroke-width: 1.5; stroke-linejoin: miter"/>
   </g>
   <g id="line2d_37">
    <path d="M 137.554708 280.380241 
L 132.855 280.380241 
" clip-path="url(#pe1d793bd87)" style="fill: none; stroke: #434343; stroke-width: 2; stroke-linecap: square"/>
   </g>
   <g id="line2d_38">
    <path d="M 183.43886 280.380241 
L 230.308397 280.380241 
" clip-path="url(#pe1d793bd87)" style="fill: none; stroke: #434343; stroke-width: 2; stroke-linecap: square"/>
   </g>
   <g id="patch_11">
    <path d="M 139.271116 348.003759 
L 139.271116 358.969735 
L 185.385306 358.969735 
L 185.385306 348.003759 
L 139.271116 348.003759 
L 139.271116 348.003759 
z
" clip-path="url(#pe1d793bd87)" style="fill: none; stroke: #434343; stroke-width: 1.5; stroke-linejoin: miter"/>
   </g>
   <g id="line2d_39">
    <path d="M 139.271116 353.486747 
L 133.216544 353.486747 
" clip-path="url(#pe1d793bd87)" style="fill: none; stroke: #434343; stroke-width: 2; stroke-linecap: square"/>
   </g>
   <g id="line2d_40">
    <path d="M 185.385306 353.486747 
L 249.471899 353.486747 
" clip-path="url(#pe1d793bd87)" style="fill: none; stroke: #434343; stroke-width: 2; stroke-linecap: square"/>
   </g>
  </g>
 </g>
 <defs>
  <clipPath id="pe1d793bd87">
   <rect x="105.41" y="10.8" width="603.79" height="379.24"/>
  </clipPath>
 </defs>
</svg>
