<?xml version="1.0" encoding="utf-8" standalone="no"?>
<!DOCTYPE svg PUBLIC "-//W3C//DTD SVG 1.1//EN"
  "http://www.w3.org/Graphics/SVG/1.1/DTD/svg11.dtd">
<svg xmlns:xlink="http://www.w3.org/1999/xlink" width="720pt" height="432pt" viewBox="0 0 720 432" xmlns="http://www.w3.org/2000/svg" version="1.1">
 <metadata>
  <rdf:RDF xmlns:dc="http://purl.org/dc/elements/1.1/" xmlns:cc="http://creativecommons.org/ns#" xmlns:rdf="http://www.w3.org/1999/02/22-rdf-syntax-ns#">
   <cc:Work>
    <dc:type rdf:resource="http://purl.org/dc/dcmitype/StillImage"/>
    <dc:date>2024-09-30T14:08:27.069283</dc:date>
    <dc:format>image/svg+xml</dc:format>
    <dc:creator>
     <cc:Agent>
      <dc:title>Matplotlib v3.7.3, https://matplotlib.org/</dc:title>
     </cc:Agent>
    </dc:creator>
   </cc:Work>
  </rdf:RDF>
 </metadata>
 <defs>
  <style type="text/css">*{stroke-linejoin: round; stroke-linecap: butt}</style>
 </defs>
 <g id="figure_1">
  <g id="patch_1">
   <path d="M 0 432 
L 720 432 
L 720 0 
L 0 0 
z
" style="fill: #ffffff"/>
  </g>
  <g id="axes_1">
   <g id="patch_2">
    <path d="M 62.12 343.03527 
L 709.2 343.03527 
L 709.2 10.8 
L 62.12 10.8 
z
" style="fill: #ffffff"/>
   </g>
   <g id="PolyCollection_1">
    <defs>
     <path id="m973d7b3463" d="M 128.210812 -106.867385 
L 125.445188 -106.867385 
L 125.039952 -109.224572 
L 124.545031 -111.581759 
L 123.949665 -113.938946 
L 123.244392 -116.296133 
L 122.421885 -118.65332 
L 121.477844 -121.010506 
L 120.411872 -123.367693 
L 119.228285 -125.72488 
L 117.936759 -128.082067 
L 116.55274 -130.439254 
L 115.09755 -132.796441 
L 113.598131 -135.153628 
L 112.086397 -137.510815 
L 110.598195 -139.868002 
L 109.171919 -142.225188 
L 107.846835 -144.582375 
L 106.661226 -146.939562 
L 105.650483 -149.296749 
L 104.84527 -151.653936 
L 104.269901 -154.011123 
L 103.941052 -156.36831 
L 103.866901 -158.725497 
L 104.04676 -161.082684 
L 104.471219 -163.43987 
L 105.122783 -165.797057 
L 105.976944 -168.154244 
L 107.003597 -170.511431 
L 108.168691 -172.868618 
L 109.435987 -175.225805 
L 110.768807 -177.582992 
L 112.131655 -179.940179 
L 113.491625 -182.297366 
L 114.819518 -184.654552 
L 116.090642 -187.011739 
L 117.285272 -189.368926 
L 118.388787 -191.726113 
L 119.391526 -194.0833 
L 120.288403 -196.440487 
L 121.078355 -198.797674 
L 121.76367 -201.154861 
L 122.349266 -203.512048 
L 122.841975 -205.869234 
L 123.249872 -208.226421 
L 123.581681 -210.583608 
L 123.846278 -212.940795 
L 124.052312 -215.297982 
L 124.207927 -217.655169 
L 124.320588 -220.012356 
L 124.396999 -222.369543 
L 124.443094 -224.726729 
L 124.464089 -227.083916 
L 124.464568 -229.441103 
L 124.4486 -231.79829 
L 124.419858 -234.155477 
L 124.381732 -236.512664 
L 124.337429 -238.869851 
L 124.290033 -241.227038 
L 124.242542 -243.584225 
L 124.197855 -245.941411 
L 124.15873 -248.298598 
L 124.127707 -250.655785 
L 124.107004 -253.012972 
L 124.098414 -255.370159 
L 124.103199 -257.727346 
L 124.12201 -260.084533 
L 124.154844 -262.44172 
L 124.201042 -264.798907 
L 124.259347 -267.156093 
L 124.328 -269.51328 
L 124.40489 -271.870467 
L 124.48773 -274.227654 
L 124.57424 -276.584841 
L 124.662334 -278.942028 
L 124.750274 -281.299215 
L 124.836784 -283.656402 
L 124.921113 -286.013589 
L 125.003043 -288.370775 
L 125.082834 -290.727962 
L 125.16113 -293.085149 
L 125.238827 -295.442336 
L 125.316921 -297.799523 
L 125.396357 -300.15671 
L 125.477897 -302.513897 
L 125.562015 -304.871084 
L 125.648829 -307.228271 
L 125.738077 -309.585457 
L 125.829138 -311.942644 
L 125.921085 -314.299831 
L 126.012767 -316.657018 
L 126.102905 -319.014205 
L 126.190194 -321.371392 
L 126.273401 -323.728579 
L 126.351445 -326.085766 
L 126.42346 -328.442953 
L 126.488827 -330.800139 
L 126.547195 -333.157326 
L 126.598469 -335.514513 
L 126.642787 -337.8717 
L 126.68048 -340.228887 
L 126.97552 -340.228887 
L 126.97552 -340.228887 
L 127.013213 -337.8717 
L 127.057531 -335.514513 
L 127.108805 -333.157326 
L 127.167173 -330.800139 
L 127.23254 -328.442953 
L 127.304555 -326.085766 
L 127.382599 -323.728579 
L 127.465806 -321.371392 
L 127.553095 -319.014205 
L 127.643233 -316.657018 
L 127.734915 -314.299831 
L 127.826862 -311.942644 
L 127.917923 -309.585457 
L 128.007171 -307.228271 
L 128.093985 -304.871084 
L 128.178103 -302.513897 
L 128.259643 -300.15671 
L 128.339079 -297.799523 
L 128.417173 -295.442336 
L 128.49487 -293.085149 
L 128.573166 -290.727962 
L 128.652957 -288.370775 
L 128.734887 -286.013589 
L 128.819216 -283.656402 
L 128.905726 -281.299215 
L 128.993666 -278.942028 
L 129.08176 -276.584841 
L 129.16827 -274.227654 
L 129.25111 -271.870467 
L 129.328 -269.51328 
L 129.396653 -267.156093 
L 129.454958 -264.798907 
L 129.501156 -262.44172 
L 129.53399 -260.084533 
L 129.552801 -257.727346 
L 129.557586 -255.370159 
L 129.548996 -253.012972 
L 129.528293 -250.655785 
L 129.49727 -248.298598 
L 129.458145 -245.941411 
L 129.413458 -243.584225 
L 129.365967 -241.227038 
L 129.318571 -238.869851 
L 129.274268 -236.512664 
L 129.236142 -234.155477 
L 129.2074 -231.79829 
L 129.191432 -229.441103 
L 129.191911 -227.083916 
L 129.212906 -224.726729 
L 129.259001 -222.369543 
L 129.335412 -220.012356 
L 129.448073 -217.655169 
L 129.603688 -215.297982 
L 129.809722 -212.940795 
L 130.074319 -210.583608 
L 130.406128 -208.226421 
L 130.814025 -205.869234 
L 131.306734 -203.512048 
L 131.89233 -201.154861 
L 132.577645 -198.797674 
L 133.367597 -196.440487 
L 134.264474 -194.0833 
L 135.267213 -191.726113 
L 136.370728 -189.368926 
L 137.565358 -187.011739 
L 138.836482 -184.654552 
L 140.164375 -182.297366 
L 141.524345 -179.940179 
L 142.887193 -177.582992 
L 144.220013 -175.225805 
L 145.487309 -172.868618 
L 146.652403 -170.511431 
L 147.679056 -168.154244 
L 148.533217 -165.797057 
L 149.184781 -163.43987 
L 149.60924 -161.082684 
L 149.789099 -158.725497 
L 149.714948 -156.36831 
L 149.386099 -154.011123 
L 148.81073 -151.653936 
L 148.005517 -149.296749 
L 146.994774 -146.939562 
L 145.809165 -144.582375 
L 144.484081 -142.225188 
L 143.057805 -139.868002 
L 141.569603 -137.510815 
L 140.057869 -135.153628 
L 138.55845 -132.796441 
L 137.10326 -130.439254 
L 135.719241 -128.082067 
L 134.427715 -125.72488 
L 133.244128 -123.367693 
L 132.178156 -121.010506 
L 131.234115 -118.65332 
L 130.411608 -116.296133 
L 129.706335 -113.938946 
L 129.110969 -111.581759 
L 128.616048 -109.224572 
L 128.210812 -106.867385 
z
" style="stroke: #434343; stroke-width: 1.5"/>
    </defs>
    <g clip-path="url(#pd48f3a7876)">
     <use xlink:href="#m973d7b3463" x="0" y="432" style="fill: #e68193; stroke: #434343; stroke-width: 1.5"/>
    </g>
   </g>
   <g id="PolyCollection_2">
    <defs>
     <path id="maa0032936f" d="M 258.625516 -122.002496 
L 253.862484 -122.002496 
L 253.144874 -123.376256 
L 252.266624 -124.750015 
L 251.209751 -126.123775 
L 249.959605 -127.497535 
L 248.506604 -128.871295 
L 246.847999 -130.245055 
L 244.989536 -131.618814 
L 242.946799 -132.992574 
L 240.746084 -134.366334 
L 238.424603 -135.740094 
L 236.029906 -137.113854 
L 233.618441 -138.487613 
L 231.253257 -139.861373 
L 229.000958 -141.235133 
L 226.928099 -142.608893 
L 225.097286 -143.982653 
L 223.563317 -145.356412 
L 222.369712 -146.730172 
L 221.545947 -148.103932 
L 221.105686 -149.477692 
L 221.046169 -150.851452 
L 221.348837 -152.225211 
L 221.981112 -153.598971 
L 222.89916 -154.972731 
L 224.051344 -156.346491 
L 225.382029 -157.720251 
L 226.835359 -159.09401 
L 228.358679 -160.46777 
L 229.905308 -161.84153 
L 231.436471 -163.21529 
L 232.922318 -164.58905 
L 234.342051 -165.962809 
L 235.683273 -167.336569 
L 236.940747 -168.710329 
L 238.114797 -170.084089 
L 239.20958 -171.457849 
L 240.231422 -172.831608 
L 241.187399 -174.205368 
L 242.084249 -175.579128 
L 242.92766 -176.952888 
L 243.721919 -178.326648 
L 244.469879 -179.700407 
L 245.173139 -181.074167 
L 245.832371 -182.447927 
L 246.447706 -183.821687 
L 247.019105 -185.195447 
L 247.546684 -186.569206 
L 248.030951 -187.942966 
L 248.47298 -189.316726 
L 248.874491 -190.690486 
L 249.23788 -192.064246 
L 249.566203 -193.438005 
L 249.863113 -194.811765 
L 250.132765 -196.185525 
L 250.3797 -197.559285 
L 250.608679 -198.933045 
L 250.824499 -200.306804 
L 251.031768 -201.680564 
L 251.234676 -203.054324 
L 251.43675 -204.428084 
L 251.640638 -205.801844 
L 251.847927 -207.175603 
L 252.059033 -208.549363 
L 252.273171 -209.923123 
L 252.488418 -211.296883 
L 252.701879 -212.670643 
L 252.909939 -214.044402 
L 253.108586 -215.418162 
L 253.29378 -216.791922 
L 253.461835 -218.165682 
L 253.609778 -219.539442 
L 253.735651 -220.913201 
L 253.838732 -222.286961 
L 253.919645 -223.660721 
L 253.980357 -225.034481 
L 254.02406 -226.40824 
L 254.054941 -227.782 
L 254.077875 -229.15576 
L 254.098055 -230.52952 
L 254.120611 -231.90328 
L 254.150231 -233.277039 
L 254.190839 -234.650799 
L 254.24534 -236.024559 
L 254.31546 -237.398319 
L 254.401693 -238.772079 
L 254.503338 -240.145838 
L 254.618639 -241.519598 
L 254.744987 -242.893358 
L 254.879174 -244.267118 
L 255.017668 -245.640878 
L 255.156882 -247.014637 
L 255.293416 -248.388397 
L 255.424256 -249.762157 
L 255.546913 -251.135917 
L 255.659514 -252.509677 
L 255.760819 -253.883436 
L 255.850207 -255.257196 
L 255.927603 -256.630956 
L 255.993396 -258.004716 
L 256.494604 -258.004716 
L 256.494604 -258.004716 
L 256.560397 -256.630956 
L 256.637793 -255.257196 
L 256.727181 -253.883436 
L 256.828486 -252.509677 
L 256.941087 -251.135917 
L 257.063744 -249.762157 
L 257.194584 -248.388397 
L 257.331118 -247.014637 
L 257.470332 -245.640878 
L 257.608826 -244.267118 
L 257.743013 -242.893358 
L 257.869361 -241.519598 
L 257.984662 -240.145838 
L 258.086307 -238.772079 
L 258.17254 -237.398319 
L 258.24266 -236.024559 
L 258.297161 -234.650799 
L 258.337769 -233.277039 
L 258.367389 -231.90328 
L 258.389945 -230.52952 
L 258.410125 -229.15576 
L 258.433059 -227.782 
L 258.46394 -226.40824 
L 258.507643 -225.034481 
L 258.568355 -223.660721 
L 258.649268 -222.286961 
L 258.752349 -220.913201 
L 258.878222 -219.539442 
L 259.026165 -218.165682 
L 259.19422 -216.791922 
L 259.379414 -215.418162 
L 259.578061 -214.044402 
L 259.786121 -212.670643 
L 259.999582 -211.296883 
L 260.214829 -209.923123 
L 260.428967 -208.549363 
L 260.640073 -207.175603 
L 260.847362 -205.801844 
L 261.05125 -204.428084 
L 261.253324 -203.054324 
L 261.456232 -201.680564 
L 261.663501 -200.306804 
L 261.879321 -198.933045 
L 262.1083 -197.559285 
L 262.355235 -196.185525 
L 262.624887 -194.811765 
L 262.921797 -193.438005 
L 263.25012 -192.064246 
L 263.613509 -190.690486 
L 264.01502 -189.316726 
L 264.457049 -187.942966 
L 264.941316 -186.569206 
L 265.468895 -185.195447 
L 266.040294 -183.821687 
L 266.655629 -182.447927 
L 267.314861 -181.074167 
L 268.018121 -179.700407 
L 268.766081 -178.326648 
L 269.56034 -176.952888 
L 270.403751 -175.579128 
L 271.300601 -174.205368 
L 272.256578 -172.831608 
L 273.27842 -171.457849 
L 274.373203 -170.084089 
L 275.547253 -168.710329 
L 276.804727 -167.336569 
L 278.145949 -165.962809 
L 279.565682 -164.58905 
L 281.051529 -163.21529 
L 282.582692 -161.84153 
L 284.129321 -160.46777 
L 285.652641 -159.09401 
L 287.105971 -157.720251 
L 288.436656 -156.346491 
L 289.58884 -154.972731 
L 290.506888 -153.598971 
L 291.139163 -152.225211 
L 291.441831 -150.851452 
L 291.382314 -149.477692 
L 290.942053 -148.103932 
L 290.118288 -146.730172 
L 288.924683 -145.356412 
L 287.390714 -143.982653 
L 285.559901 -142.608893 
L 283.487042 -141.235133 
L 281.234743 -139.861373 
L 278.869559 -138.487613 
L 276.458094 -137.113854 
L 274.063397 -135.740094 
L 271.741916 -134.366334 
L 269.541201 -132.992574 
L 267.498464 -131.618814 
L 265.640001 -130.245055 
L 263.981396 -128.871295 
L 262.528395 -127.497535 
L 261.278249 -126.123775 
L 260.221376 -124.750015 
L 259.343126 -123.376256 
L 258.625516 -122.002496 
z
" style="stroke: #434343; stroke-width: 1.5"/>
    </defs>
    <g clip-path="url(#pd48f3a7876)">
     <use xlink:href="#maa0032936f" x="0" y="432" style="fill: #9e9241; stroke: #434343; stroke-width: 1.5"/>
    </g>
   </g>
   <g id="PolyCollection_3">
    <defs>
     <path id="m50fc02f277" d="M 387.437277 -104.066334 
L 383.882723 -104.066334 
L 383.238871 -107.117163 
L 382.429744 -110.167991 
L 381.438508 -113.21882 
L 380.255357 -116.269649 
L 378.8803 -119.320478 
L 377.325554 -122.371307 
L 375.617141 -125.422136 
L 373.795306 -128.472965 
L 371.91349 -131.523794 
L 370.035757 -134.574623 
L 368.232816 -137.625452 
L 366.57698 -140.676281 
L 365.136626 -143.72711 
L 363.970787 -146.777939 
L 363.12456 -149.828767 
L 362.625873 -152.879596 
L 362.48397 -155.930425 
L 362.689717 -158.981254 
L 363.21758 -162.032083 
L 364.028903 -165.082912 
L 365.075969 -168.133741 
L 366.306296 -171.18457 
L 367.666665 -174.235399 
L 369.10649 -177.286228 
L 370.580308 -180.337057 
L 372.049321 -183.387886 
L 373.482057 -186.438714 
L 374.854325 -189.489543 
L 376.148646 -192.540372 
L 377.353395 -195.591201 
L 378.461807 -198.64203 
L 379.470995 -201.692859 
L 380.381048 -204.743688 
L 381.194275 -207.794517 
L 381.914575 -210.845346 
L 382.546953 -213.896175 
L 383.097149 -216.947004 
L 383.571362 -219.997833 
L 383.976042 -223.048662 
L 384.317744 -226.09949 
L 384.60301 -229.150319 
L 384.838276 -232.201148 
L 385.029785 -235.251977 
L 385.183514 -238.302806 
L 385.305096 -241.353635 
L 385.399755 -244.404464 
L 385.472243 -247.455293 
L 385.526803 -250.506122 
L 385.567137 -253.556951 
L 385.596405 -256.60778 
L 385.617238 -259.658609 
L 385.631779 -262.709438 
L 385.641723 -265.760266 
L 385.648382 -268.811095 
L 385.652742 -271.861924 
L 385.655521 -274.912753 
L 385.657228 -277.963582 
L 385.658202 -281.014411 
L 385.658654 -284.06524 
L 385.65869 -287.116069 
L 385.658322 -290.166898 
L 385.657479 -293.217727 
L 385.655997 -296.268556 
L 385.653609 -299.319385 
L 385.649926 -302.370214 
L 385.644419 -305.421042 
L 385.636401 -308.471871 
L 385.625021 -311.5227 
L 385.60927 -314.573529 
L 385.588018 -317.624358 
L 385.560073 -320.675187 
L 385.524284 -323.726016 
L 385.479668 -326.776845 
L 385.425574 -329.827674 
L 385.361852 -332.878503 
L 385.289021 -335.929332 
L 385.208394 -338.980161 
L 385.122149 -342.030989 
L 385.033305 -345.081818 
L 384.945599 -348.132647 
L 384.863253 -351.183476 
L 384.790657 -354.234305 
L 384.731988 -357.285134 
L 384.690812 -360.335963 
L 384.669728 -363.386792 
L 384.670095 -366.437621 
L 384.691891 -369.48845 
L 384.73371 -372.539279 
L 384.792915 -375.590108 
L 384.865912 -378.640937 
L 384.948512 -381.691765 
L 385.036324 -384.742594 
L 385.125137 -387.793423 
L 385.211237 -390.844252 
L 385.29163 -393.895081 
L 385.364169 -396.94591 
L 385.427568 -399.996739 
L 385.481335 -403.047568 
L 385.525638 -406.098397 
L 385.794362 -406.098397 
L 385.794362 -406.098397 
L 385.838665 -403.047568 
L 385.892432 -399.996739 
L 385.955831 -396.94591 
L 386.02837 -393.895081 
L 386.108763 -390.844252 
L 386.194863 -387.793423 
L 386.283676 -384.742594 
L 386.371488 -381.691765 
L 386.454088 -378.640937 
L 386.527085 -375.590108 
L 386.58629 -372.539279 
L 386.628109 -369.48845 
L 386.649905 -366.437621 
L 386.650272 -363.386792 
L 386.629188 -360.335963 
L 386.588012 -357.285134 
L 386.529343 -354.234305 
L 386.456747 -351.183476 
L 386.374401 -348.132647 
L 386.286695 -345.081818 
L 386.197851 -342.030989 
L 386.111606 -338.980161 
L 386.030979 -335.929332 
L 385.958148 -332.878503 
L 385.894426 -329.827674 
L 385.840332 -326.776845 
L 385.795716 -323.726016 
L 385.759927 -320.675187 
L 385.731982 -317.624358 
L 385.71073 -314.573529 
L 385.694979 -311.5227 
L 385.683599 -308.471871 
L 385.675581 -305.421042 
L 385.670074 -302.370214 
L 385.666391 -299.319385 
L 385.664003 -296.268556 
L 385.662521 -293.217727 
L 385.661678 -290.166898 
L 385.66131 -287.116069 
L 385.661346 -284.06524 
L 385.661798 -281.014411 
L 385.662772 -277.963582 
L 385.664479 -274.912753 
L 385.667258 -271.861924 
L 385.671618 -268.811095 
L 385.678277 -265.760266 
L 385.688221 -262.709438 
L 385.702762 -259.658609 
L 385.723595 -256.60778 
L 385.752863 -253.556951 
L 385.793197 -250.506122 
L 385.847757 -247.455293 
L 385.920245 -244.404464 
L 386.014904 -241.353635 
L 386.136486 -238.302806 
L 386.290215 -235.251977 
L 386.481724 -232.201148 
L 386.71699 -229.150319 
L 387.002256 -226.09949 
L 387.343958 -223.048662 
L 387.748638 -219.997833 
L 388.222851 -216.947004 
L 388.773047 -213.896175 
L 389.405425 -210.845346 
L 390.125725 -207.794517 
L 390.938952 -204.743688 
L 391.849005 -201.692859 
L 392.858193 -198.64203 
L 393.966605 -195.591201 
L 395.171354 -192.540372 
L 396.465675 -189.489543 
L 397.837943 -186.438714 
L 399.270679 -183.387886 
L 400.739692 -180.337057 
L 402.21351 -177.286228 
L 403.653335 -174.235399 
L 405.013704 -171.18457 
L 406.244031 -168.133741 
L 407.291097 -165.082912 
L 408.10242 -162.032083 
L 408.630283 -158.981254 
L 408.83603 -155.930425 
L 408.694127 -152.879596 
L 408.19544 -149.828767 
L 407.349213 -146.777939 
L 406.183374 -143.72711 
L 404.74302 -140.676281 
L 403.087184 -137.625452 
L 401.284243 -134.574623 
L 399.40651 -131.523794 
L 397.524694 -128.472965 
L 395.702859 -125.422136 
L 393.994446 -122.371307 
L 392.4397 -119.320478 
L 391.064643 -116.269649 
L 389.881492 -113.21882 
L 388.890256 -110.167991 
L 388.081129 -107.117163 
L 387.437277 -104.066334 
z
" style="stroke: #434343; stroke-width: 1.5"/>
    </defs>
    <g clip-path="url(#pd48f3a7876)">
     <use xlink:href="#m50fc02f277" x="0" y="432" style="fill: #43a178; stroke: #434343; stroke-width: 1.5"/>
    </g>
   </g>
   <g id="PolyCollection_4">
    <defs>
     <path id="m771be1b2d0" d="M 517.438511 -109.873384 
L 512.713489 -109.873384 
L 511.98726 -112.107275 
L 511.101732 -114.341167 
L 510.043106 -116.575059 
L 508.802899 -118.80895 
L 507.379874 -121.042842 
L 505.78179 -123.276734 
L 504.026768 -125.510626 
L 502.144039 -127.744517 
L 500.173864 -129.978409 
L 498.166526 -132.212301 
L 496.180309 -134.446192 
L 494.278571 -136.680084 
L 492.526072 -138.913976 
L 490.984872 -141.147867 
L 489.710155 -143.381759 
L 488.746404 -145.615651 
L 488.124311 -147.849542 
L 487.85876 -150.083434 
L 487.948078 -152.317326 
L 488.374647 -154.551217 
L 489.10677 -156.785109 
L 490.101584 -159.019001 
L 491.308668 -161.252893 
L 492.673967 -163.486784 
L 494.143613 -165.720676 
L 495.66729 -167.954568 
L 497.200861 -170.188459 
L 498.708095 -172.422351 
L 500.161454 -174.656243 
L 501.542004 -176.890134 
L 502.838613 -179.124026 
L 504.046636 -181.357918 
L 505.166345 -183.591809 
L 506.201292 -185.825701 
L 507.156822 -188.059593 
L 508.038842 -190.293484 
L 508.852927 -192.527376 
L 509.603773 -194.761268 
L 510.294977 -196.99516 
L 510.92906 -199.229051 
L 511.507679 -201.462943 
L 512.031924 -203.696835 
L 512.502648 -205.930726 
L 512.920756 -208.164618 
L 513.287427 -210.39851 
L 513.604252 -212.632401 
L 513.873274 -214.866293 
L 514.096962 -217.100185 
L 514.278129 -219.334076 
L 514.419817 -221.567968 
L 514.525181 -223.80186 
L 514.59739 -226.035751 
L 514.639556 -228.269643 
L 514.654707 -230.503535 
L 514.645793 -232.737426 
L 514.615724 -234.971318 
L 514.567433 -237.20521 
L 514.503935 -239.439102 
L 514.428372 -241.672993 
L 514.344027 -243.906885 
L 514.254299 -246.140777 
L 514.162622 -248.374668 
L 514.07235 -250.60856 
L 513.986594 -252.842452 
L 513.908055 -255.076343 
L 513.838853 -257.310235 
L 513.780394 -259.544127 
L 513.733289 -261.778018 
L 513.69734 -264.01191 
L 513.671619 -266.245802 
L 513.65461 -268.479693 
L 513.64443 -270.713585 
L 513.639083 -272.947477 
L 513.636728 -275.181369 
L 513.635926 -277.41526 
L 513.635834 -279.649152 
L 513.636315 -281.883044 
L 513.637955 -284.116935 
L 513.641994 -286.350827 
L 513.650154 -288.584719 
L 513.664414 -290.81861 
L 513.686751 -293.052502 
L 513.718878 -295.286394 
L 513.762014 -297.520285 
L 513.816716 -299.754177 
L 513.882786 -301.988069 
L 513.95927 -304.22196 
L 514.044527 -306.455852 
L 514.136373 -308.689744 
L 514.232269 -310.923636 
L 514.329529 -313.157527 
L 514.425524 -315.391419 
L 514.517867 -317.625311 
L 514.604547 -319.859202 
L 514.684025 -322.093094 
L 514.755269 -324.326986 
L 514.817752 -326.560877 
L 514.871396 -328.794769 
L 514.916506 -331.028661 
L 515.235494 -331.028661 
L 515.235494 -331.028661 
L 515.280604 -328.794769 
L 515.334248 -326.560877 
L 515.396731 -324.326986 
L 515.467975 -322.093094 
L 515.547453 -319.859202 
L 515.634133 -317.625311 
L 515.726476 -315.391419 
L 515.822471 -313.157527 
L 515.919731 -310.923636 
L 516.015627 -308.689744 
L 516.107473 -306.455852 
L 516.19273 -304.22196 
L 516.269214 -301.988069 
L 516.335284 -299.754177 
L 516.389986 -297.520285 
L 516.433122 -295.286394 
L 516.465249 -293.052502 
L 516.487586 -290.81861 
L 516.501846 -288.584719 
L 516.510006 -286.350827 
L 516.514045 -284.116935 
L 516.515685 -281.883044 
L 516.516166 -279.649152 
L 516.516074 -277.41526 
L 516.515272 -275.181369 
L 516.512917 -272.947477 
L 516.50757 -270.713585 
L 516.49739 -268.479693 
L 516.480381 -266.245802 
L 516.45466 -264.01191 
L 516.418711 -261.778018 
L 516.371606 -259.544127 
L 516.313147 -257.310235 
L 516.243945 -255.076343 
L 516.165406 -252.842452 
L 516.07965 -250.60856 
L 515.989378 -248.374668 
L 515.897701 -246.140777 
L 515.807973 -243.906885 
L 515.723628 -241.672993 
L 515.648065 -239.439102 
L 515.584567 -237.20521 
L 515.536276 -234.971318 
L 515.506207 -232.737426 
L 515.497293 -230.503535 
L 515.512444 -228.269643 
L 515.55461 -226.035751 
L 515.626819 -223.80186 
L 515.732183 -221.567968 
L 515.873871 -219.334076 
L 516.055038 -217.100185 
L 516.278726 -214.866293 
L 516.547748 -212.632401 
L 516.864573 -210.39851 
L 517.231244 -208.164618 
L 517.649352 -205.930726 
L 518.120076 -203.696835 
L 518.644321 -201.462943 
L 519.22294 -199.229051 
L 519.857023 -196.99516 
L 520.548227 -194.761268 
L 521.299073 -192.527376 
L 522.113158 -190.293484 
L 522.995178 -188.059593 
L 523.950708 -185.825701 
L 524.985655 -183.591809 
L 526.105364 -181.357918 
L 527.313387 -179.124026 
L 528.609996 -176.890134 
L 529.990546 -174.656243 
L 531.443905 -172.422351 
L 532.951139 -170.188459 
L 534.48471 -167.954568 
L 536.008387 -165.720676 
L 537.478033 -163.486784 
L 538.843332 -161.252893 
L 540.050416 -159.019001 
L 541.04523 -156.785109 
L 541.777353 -154.551217 
L 542.203922 -152.317326 
L 542.29324 -150.083434 
L 542.027689 -147.849542 
L 541.405596 -145.615651 
L 540.441845 -143.381759 
L 539.167128 -141.147867 
L 537.625928 -138.913976 
L 535.873429 -136.680084 
L 533.971691 -134.446192 
L 531.985474 -132.212301 
L 529.978136 -129.978409 
L 528.007961 -127.744517 
L 526.125232 -125.510626 
L 524.37021 -123.276734 
L 522.772126 -121.042842 
L 521.349101 -118.80895 
L 520.108894 -116.575059 
L 519.050268 -114.341167 
L 518.16474 -112.107275 
L 517.438511 -109.873384 
z
" style="stroke: #434343; stroke-width: 1.5"/>
    </defs>
    <g clip-path="url(#pd48f3a7876)">
     <use xlink:href="#m771be1b2d0" x="0" y="432" style="fill: #4a9eb4; stroke: #434343; stroke-width: 1.5"/>
    </g>
   </g>
   <g id="PolyCollection_5">
    <defs>
     <path id="m1da768e002" d="M 647.373311 -129.869405 
L 641.610689 -129.869405 
L 640.860972 -130.643066 
L 639.961693 -131.416726 
L 638.895749 -132.190387 
L 637.647336 -132.964048 
L 636.202901 -133.737708 
L 634.552183 -134.511369 
L 632.689282 -135.28503 
L 630.613705 -136.05869 
L 628.331319 -136.832351 
L 625.85513 -137.606012 
L 623.205813 -138.379673 
L 620.41193 -139.153333 
L 617.509775 -139.926994 
L 614.542812 -140.700655 
L 611.56069 -141.474315 
L 608.617861 -142.247976 
L 605.771834 -143.021637 
L 603.081156 -143.795297 
L 600.603203 -144.568958 
L 598.391914 -145.342619 
L 596.495584 -146.11628 
L 594.954862 -146.88994 
L 593.801057 -147.663601 
L 593.054866 -148.437262 
L 592.7256 -149.210922 
L 592.810943 -149.984583 
L 593.29726 -150.758244 
L 594.160421 -151.531904 
L 595.367082 -152.305565 
L 596.876329 -153.079226 
L 598.641584 -153.852886 
L 600.612646 -154.626547 
L 602.73775 -155.400208 
L 604.96552 -156.173869 
L 607.246738 -156.947529 
L 609.535818 -157.72119 
L 611.791969 -158.494851 
L 613.979986 -159.268511 
L 616.070702 -160.042172 
L 618.041086 -160.815833 
L 619.874072 -161.589493 
L 621.558135 -162.363154 
L 623.086702 -163.136815 
L 624.457454 -163.910475 
L 625.671585 -164.684136 
L 626.733071 -165.457797 
L 627.647986 -166.231458 
L 628.423915 -167.005118 
L 629.069462 -167.778779 
L 629.59388 -168.55244 
L 630.006796 -169.3261 
L 630.318046 -170.099761 
L 630.537578 -170.873422 
L 630.675414 -171.647082 
L 630.741649 -172.420743 
L 630.746461 -173.194404 
L 630.700121 -173.968065 
L 630.612991 -174.741725 
L 630.495488 -175.515386 
L 630.358034 -176.289047 
L 630.21097 -177.062707 
L 630.064452 -177.836368 
L 629.928327 -178.610029 
L 629.811996 -179.383689 
L 629.724277 -180.15735 
L 629.67326 -180.931011 
L 629.66618 -181.704671 
L 629.709285 -182.478332 
L 629.807728 -183.251993 
L 629.96547 -184.025654 
L 630.185196 -184.799314 
L 630.468255 -185.572975 
L 630.814621 -186.346636 
L 631.222882 -187.120296 
L 631.690253 -187.893957 
L 632.212631 -188.667618 
L 632.784675 -189.441278 
L 633.399936 -190.214939 
L 634.051018 -190.9886 
L 634.729774 -191.762261 
L 635.427534 -192.535921 
L 636.135354 -193.309582 
L 636.844275 -194.083243 
L 637.545589 -194.856903 
L 638.231083 -195.630564 
L 638.893267 -196.404225 
L 639.525563 -197.177885 
L 640.122454 -197.951546 
L 640.679579 -198.725207 
L 641.193786 -199.498867 
L 641.663118 -200.272528 
L 642.086771 -201.046189 
L 642.464993 -201.81985 
L 642.798966 -202.59351 
L 643.090654 -203.367171 
L 643.342644 -204.140832 
L 643.557978 -204.914492 
L 643.739999 -205.688153 
L 643.8922 -206.461814 
L 645.0918 -206.461814 
L 645.0918 -206.461814 
L 645.244001 -205.688153 
L 645.426022 -204.914492 
L 645.641356 -204.140832 
L 645.893346 -203.367171 
L 646.185034 -202.59351 
L 646.519007 -201.81985 
L 646.897229 -201.046189 
L 647.320882 -200.272528 
L 647.790214 -199.498867 
L 648.304421 -198.725207 
L 648.861546 -197.951546 
L 649.458437 -197.177885 
L 650.090733 -196.404225 
L 650.752917 -195.630564 
L 651.438411 -194.856903 
L 652.139725 -194.083243 
L 652.848646 -193.309582 
L 653.556466 -192.535921 
L 654.254226 -191.762261 
L 654.932982 -190.9886 
L 655.584064 -190.214939 
L 656.199325 -189.441278 
L 656.771369 -188.667618 
L 657.293747 -187.893957 
L 657.761118 -187.120296 
L 658.169379 -186.346636 
L 658.515745 -185.572975 
L 658.798804 -184.799314 
L 659.01853 -184.025654 
L 659.176272 -183.251993 
L 659.274715 -182.478332 
L 659.31782 -181.704671 
L 659.31074 -180.931011 
L 659.259723 -180.15735 
L 659.172004 -179.383689 
L 659.055673 -178.610029 
L 658.919548 -177.836368 
L 658.77303 -177.062707 
L 658.625966 -176.289047 
L 658.488512 -175.515386 
L 658.371009 -174.741725 
L 658.283879 -173.968065 
L 658.237539 -173.194404 
L 658.242351 -172.420743 
L 658.308586 -171.647082 
L 658.446422 -170.873422 
L 658.665954 -170.099761 
L 658.977204 -169.3261 
L 659.39012 -168.55244 
L 659.914538 -167.778779 
L 660.560085 -167.005118 
L 661.336014 -166.231458 
L 662.250929 -165.457797 
L 663.312415 -164.684136 
L 664.526546 -163.910475 
L 665.897298 -163.136815 
L 667.425865 -162.363154 
L 669.109928 -161.589493 
L 670.942914 -160.815833 
L 672.913298 -160.042172 
L 675.004014 -159.268511 
L 677.192031 -158.494851 
L 679.448182 -157.72119 
L 681.737262 -156.947529 
L 684.01848 -156.173869 
L 686.24625 -155.400208 
L 688.371354 -154.626547 
L 690.342416 -153.852886 
L 692.107671 -153.079226 
L 693.616918 -152.305565 
L 694.823579 -151.531904 
L 695.68674 -150.758244 
L 696.173057 -149.984583 
L 696.2584 -149.210922 
L 695.929134 -148.437262 
L 695.182943 -147.663601 
L 694.029138 -146.88994 
L 692.488416 -146.11628 
L 690.592086 -145.342619 
L 688.380797 -144.568958 
L 685.902844 -143.795297 
L 683.212166 -143.021637 
L 680.366139 -142.247976 
L 677.42331 -141.474315 
L 674.441188 -140.700655 
L 671.474225 -139.926994 
L 668.57207 -139.153333 
L 665.778187 -138.379673 
L 663.12887 -137.606012 
L 660.652681 -136.832351 
L 658.370295 -136.05869 
L 656.294718 -135.28503 
L 654.431817 -134.511369 
L 652.781099 -133.737708 
L 651.336664 -132.964048 
L 650.088251 -132.190387 
L 649.022307 -131.416726 
L 648.123028 -130.643066 
L 647.373311 -129.869405 
z
" style="stroke: #434343; stroke-width: 1.5"/>
    </defs>
    <g clip-path="url(#pd48f3a7876)">
     <use xlink:href="#m1da768e002" x="0" y="432" style="fill: #c789e5; stroke: #434343; stroke-width: 1.5"/>
    </g>
   </g>
   <g id="matplotlib.axis_1">
    <g id="xtick_1">
     <g id="line2d_1">
      <defs>
       <path id="m3435f0a5cd" d="M 0 0 
L 0 3.5 
" style="stroke: #000000; stroke-width: 0.8"/>
      </defs>
      <g>
       <use xlink:href="#m3435f0a5cd" x="126.828" y="343.03527" style="stroke: #000000; stroke-width: 0.8"/>
      </g>
     </g>
     <g id="text_1">
      <!-- Reference -->
      <g transform="translate(110.976655 391.013212) rotate(-45) scale(0.1 -0.1)">
       <defs>
        <path id="DejaVuSans-52" d="M 2841 2188 
Q 3044 2119 3236 1894 
Q 3428 1669 3622 1275 
L 4263 0 
L 3584 0 
L 2988 1197 
Q 2756 1666 2539 1819 
Q 2322 1972 1947 1972 
L 1259 1972 
L 1259 0 
L 628 0 
L 628 4666 
L 2053 4666 
Q 2853 4666 3247 4331 
Q 3641 3997 3641 3322 
Q 3641 2881 3436 2590 
Q 3231 2300 2841 2188 
z
M 1259 4147 
L 1259 2491 
L 2053 2491 
Q 2509 2491 2742 2702 
Q 2975 2913 2975 3322 
Q 2975 3731 2742 3939 
Q 2509 4147 2053 4147 
L 1259 4147 
z
" transform="scale(0.015625)"/>
        <path id="DejaVuSans-65" d="M 3597 1894 
L 3597 1613 
L 953 1613 
Q 991 1019 1311 708 
Q 1631 397 2203 397 
Q 2534 397 2845 478 
Q 3156 559 3463 722 
L 3463 178 
Q 3153 47 2828 -22 
Q 2503 -91 2169 -91 
Q 1331 -91 842 396 
Q 353 884 353 1716 
Q 353 2575 817 3079 
Q 1281 3584 2069 3584 
Q 2775 3584 3186 3129 
Q 3597 2675 3597 1894 
z
M 3022 2063 
Q 3016 2534 2758 2815 
Q 2500 3097 2075 3097 
Q 1594 3097 1305 2825 
Q 1016 2553 972 2059 
L 3022 2063 
z
" transform="scale(0.015625)"/>
        <path id="DejaVuSans-66" d="M 2375 4863 
L 2375 4384 
L 1825 4384 
Q 1516 4384 1395 4259 
Q 1275 4134 1275 3809 
L 1275 3500 
L 2222 3500 
L 2222 3053 
L 1275 3053 
L 1275 0 
L 697 0 
L 697 3053 
L 147 3053 
L 147 3500 
L 697 3500 
L 697 3744 
Q 697 4328 969 4595 
Q 1241 4863 1831 4863 
L 2375 4863 
z
" transform="scale(0.015625)"/>
        <path id="DejaVuSans-72" d="M 2631 2963 
Q 2534 3019 2420 3045 
Q 2306 3072 2169 3072 
Q 1681 3072 1420 2755 
Q 1159 2438 1159 1844 
L 1159 0 
L 581 0 
L 581 3500 
L 1159 3500 
L 1159 2956 
Q 1341 3275 1631 3429 
Q 1922 3584 2338 3584 
Q 2397 3584 2469 3576 
Q 2541 3569 2628 3553 
L 2631 2963 
z
" transform="scale(0.015625)"/>
        <path id="DejaVuSans-6e" d="M 3513 2113 
L 3513 0 
L 2938 0 
L 2938 2094 
Q 2938 2591 2744 2837 
Q 2550 3084 2163 3084 
Q 1697 3084 1428 2787 
Q 1159 2491 1159 1978 
L 1159 0 
L 581 0 
L 581 3500 
L 1159 3500 
L 1159 2956 
Q 1366 3272 1645 3428 
Q 1925 3584 2291 3584 
Q 2894 3584 3203 3211 
Q 3513 2838 3513 2113 
z
" transform="scale(0.015625)"/>
        <path id="DejaVuSans-63" d="M 3122 3366 
L 3122 2828 
Q 2878 2963 2633 3030 
Q 2388 3097 2138 3097 
Q 1578 3097 1268 2742 
Q 959 2388 959 1747 
Q 959 1106 1268 751 
Q 1578 397 2138 397 
Q 2388 397 2633 464 
Q 2878 531 3122 666 
L 3122 134 
Q 2881 22 2623 -34 
Q 2366 -91 2075 -91 
Q 1284 -91 818 406 
Q 353 903 353 1747 
Q 353 2603 823 3093 
Q 1294 3584 2113 3584 
Q 2378 3584 2631 3529 
Q 2884 3475 3122 3366 
z
" transform="scale(0.015625)"/>
       </defs>
       <use xlink:href="#DejaVuSans-52"/>
       <use xlink:href="#DejaVuSans-65" x="64.982422"/>
       <use xlink:href="#DejaVuSans-66" x="126.505859"/>
       <use xlink:href="#DejaVuSans-65" x="161.710938"/>
       <use xlink:href="#DejaVuSans-72" x="223.234375"/>
       <use xlink:href="#DejaVuSans-65" x="262.097656"/>
       <use xlink:href="#DejaVuSans-6e" x="323.621094"/>
       <use xlink:href="#DejaVuSans-63" x="387"/>
       <use xlink:href="#DejaVuSans-65" x="441.980469"/>
      </g>
     </g>
    </g>
    <g id="xtick_2">
     <g id="line2d_2">
      <g>
       <use xlink:href="#m3435f0a5cd" x="256.244" y="343.03527" style="stroke: #000000; stroke-width: 0.8"/>
      </g>
     </g>
     <g id="text_2">
      <!-- 24h 4ºC +PBS -->
      <g transform="translate(233.121056 405.55641) rotate(-45) scale(0.1 -0.1)">
       <defs>
        <path id="DejaVuSans-32" d="M 1228 531 
L 3431 531 
L 3431 0 
L 469 0 
L 469 531 
Q 828 903 1448 1529 
Q 2069 2156 2228 2338 
Q 2531 2678 2651 2914 
Q 2772 3150 2772 3378 
Q 2772 3750 2511 3984 
Q 2250 4219 1831 4219 
Q 1534 4219 1204 4116 
Q 875 4013 500 3803 
L 500 4441 
Q 881 4594 1212 4672 
Q 1544 4750 1819 4750 
Q 2544 4750 2975 4387 
Q 3406 4025 3406 3419 
Q 3406 3131 3298 2873 
Q 3191 2616 2906 2266 
Q 2828 2175 2409 1742 
Q 1991 1309 1228 531 
z
" transform="scale(0.015625)"/>
        <path id="DejaVuSans-34" d="M 2419 4116 
L 825 1625 
L 2419 1625 
L 2419 4116 
z
M 2253 4666 
L 3047 4666 
L 3047 1625 
L 3713 1625 
L 3713 1100 
L 3047 1100 
L 3047 0 
L 2419 0 
L 2419 1100 
L 313 1100 
L 313 1709 
L 2253 4666 
z
" transform="scale(0.015625)"/>
        <path id="DejaVuSans-68" d="M 3513 2113 
L 3513 0 
L 2938 0 
L 2938 2094 
Q 2938 2591 2744 2837 
Q 2550 3084 2163 3084 
Q 1697 3084 1428 2787 
Q 1159 2491 1159 1978 
L 1159 0 
L 581 0 
L 581 4863 
L 1159 4863 
L 1159 2956 
Q 1366 3272 1645 3428 
Q 1925 3584 2291 3584 
Q 2894 3584 3203 3211 
Q 3513 2838 3513 2113 
z
" transform="scale(0.015625)"/>
        <path id="DejaVuSans-20" transform="scale(0.015625)"/>
        <path id="DejaVuSans-ba" d="M 434 1850 
L 2584 1850 
L 2584 1466 
L 434 1466 
L 434 1850 
z
M 1509 4750 
Q 2069 4750 2391 4404 
Q 2713 4059 2713 3463 
Q 2713 2866 2391 2523 
Q 2069 2181 1509 2181 
Q 950 2181 625 2525 
Q 300 2869 300 3463 
Q 300 4059 625 4404 
Q 950 4750 1509 4750 
z
M 1509 4391 
Q 1181 4391 984 4139 
Q 788 3888 788 3463 
Q 788 3047 986 2797 
Q 1184 2547 1509 2547 
Q 1838 2547 2033 2797 
Q 2228 3047 2228 3463 
Q 2228 3891 2034 4141 
Q 1841 4391 1509 4391 
z
" transform="scale(0.015625)"/>
        <path id="DejaVuSans-43" d="M 4122 4306 
L 4122 3641 
Q 3803 3938 3442 4084 
Q 3081 4231 2675 4231 
Q 1875 4231 1450 3742 
Q 1025 3253 1025 2328 
Q 1025 1406 1450 917 
Q 1875 428 2675 428 
Q 3081 428 3442 575 
Q 3803 722 4122 1019 
L 4122 359 
Q 3791 134 3420 21 
Q 3050 -91 2638 -91 
Q 1578 -91 968 557 
Q 359 1206 359 2328 
Q 359 3453 968 4101 
Q 1578 4750 2638 4750 
Q 3056 4750 3426 4639 
Q 3797 4528 4122 4306 
z
" transform="scale(0.015625)"/>
        <path id="DejaVuSans-2b" d="M 2944 4013 
L 2944 2272 
L 4684 2272 
L 4684 1741 
L 2944 1741 
L 2944 0 
L 2419 0 
L 2419 1741 
L 678 1741 
L 678 2272 
L 2419 2272 
L 2419 4013 
L 2944 4013 
z
" transform="scale(0.015625)"/>
        <path id="DejaVuSans-50" d="M 1259 4147 
L 1259 2394 
L 2053 2394 
Q 2494 2394 2734 2622 
Q 2975 2850 2975 3272 
Q 2975 3691 2734 3919 
Q 2494 4147 2053 4147 
L 1259 4147 
z
M 628 4666 
L 2053 4666 
Q 2838 4666 3239 4311 
Q 3641 3956 3641 3272 
Q 3641 2581 3239 2228 
Q 2838 1875 2053 1875 
L 1259 1875 
L 1259 0 
L 628 0 
L 628 4666 
z
" transform="scale(0.015625)"/>
        <path id="DejaVuSans-42" d="M 1259 2228 
L 1259 519 
L 2272 519 
Q 2781 519 3026 730 
Q 3272 941 3272 1375 
Q 3272 1813 3026 2020 
Q 2781 2228 2272 2228 
L 1259 2228 
z
M 1259 4147 
L 1259 2741 
L 2194 2741 
Q 2656 2741 2882 2914 
Q 3109 3088 3109 3444 
Q 3109 3797 2882 3972 
Q 2656 4147 2194 4147 
L 1259 4147 
z
M 628 4666 
L 2241 4666 
Q 2963 4666 3353 4366 
Q 3744 4066 3744 3513 
Q 3744 3084 3544 2831 
Q 3344 2578 2956 2516 
Q 3422 2416 3680 2098 
Q 3938 1781 3938 1306 
Q 3938 681 3513 340 
Q 3088 0 2303 0 
L 628 0 
L 628 4666 
z
" transform="scale(0.015625)"/>
        <path id="DejaVuSans-53" d="M 3425 4513 
L 3425 3897 
Q 3066 4069 2747 4153 
Q 2428 4238 2131 4238 
Q 1616 4238 1336 4038 
Q 1056 3838 1056 3469 
Q 1056 3159 1242 3001 
Q 1428 2844 1947 2747 
L 2328 2669 
Q 3034 2534 3370 2195 
Q 3706 1856 3706 1288 
Q 3706 609 3251 259 
Q 2797 -91 1919 -91 
Q 1588 -91 1214 -16 
Q 841 59 441 206 
L 441 856 
Q 825 641 1194 531 
Q 1563 422 1919 422 
Q 2459 422 2753 634 
Q 3047 847 3047 1241 
Q 3047 1584 2836 1778 
Q 2625 1972 2144 2069 
L 1759 2144 
Q 1053 2284 737 2584 
Q 422 2884 422 3419 
Q 422 4038 858 4394 
Q 1294 4750 2059 4750 
Q 2388 4750 2728 4690 
Q 3069 4631 3425 4513 
z
" transform="scale(0.015625)"/>
       </defs>
       <use xlink:href="#DejaVuSans-32"/>
       <use xlink:href="#DejaVuSans-34" x="63.623047"/>
       <use xlink:href="#DejaVuSans-68" x="127.246094"/>
       <use xlink:href="#DejaVuSans-20" x="190.625"/>
       <use xlink:href="#DejaVuSans-34" x="222.412109"/>
       <use xlink:href="#DejaVuSans-ba" x="286.035156"/>
       <use xlink:href="#DejaVuSans-43" x="333.154297"/>
       <use xlink:href="#DejaVuSans-20" x="402.978516"/>
       <use xlink:href="#DejaVuSans-2b" x="434.765625"/>
       <use xlink:href="#DejaVuSans-50" x="518.554688"/>
       <use xlink:href="#DejaVuSans-42" x="578.857422"/>
       <use xlink:href="#DejaVuSans-53" x="645.710938"/>
      </g>
     </g>
    </g>
    <g id="xtick_3">
     <g id="line2d_3">
      <g>
       <use xlink:href="#m3435f0a5cd" x="385.66" y="343.03527" style="stroke: #000000; stroke-width: 0.8"/>
      </g>
     </g>
     <g id="text_3">
      <!-- 72h 4ºC +PBS -->
      <g transform="translate(362.537056 405.55641) rotate(-45) scale(0.1 -0.1)">
       <defs>
        <path id="DejaVuSans-37" d="M 525 4666 
L 3525 4666 
L 3525 4397 
L 1831 0 
L 1172 0 
L 2766 4134 
L 525 4134 
L 525 4666 
z
" transform="scale(0.015625)"/>
       </defs>
       <use xlink:href="#DejaVuSans-37"/>
       <use xlink:href="#DejaVuSans-32" x="63.623047"/>
       <use xlink:href="#DejaVuSans-68" x="127.246094"/>
       <use xlink:href="#DejaVuSans-20" x="190.625"/>
       <use xlink:href="#DejaVuSans-34" x="222.412109"/>
       <use xlink:href="#DejaVuSans-ba" x="286.035156"/>
       <use xlink:href="#DejaVuSans-43" x="333.154297"/>
       <use xlink:href="#DejaVuSans-20" x="402.978516"/>
       <use xlink:href="#DejaVuSans-2b" x="434.765625"/>
       <use xlink:href="#DejaVuSans-50" x="518.554688"/>
       <use xlink:href="#DejaVuSans-42" x="578.857422"/>
       <use xlink:href="#DejaVuSans-53" x="645.710938"/>
      </g>
     </g>
    </g>
    <g id="xtick_4">
     <g id="line2d_4">
      <g>
       <use xlink:href="#m3435f0a5cd" x="515.076" y="343.03527" style="stroke: #000000; stroke-width: 0.8"/>
      </g>
     </g>
     <g id="text_4">
      <!-- 24h 4ºC -PBS -->
      <g transform="translate(493.640168 402.182185) rotate(-45) scale(0.1 -0.1)">
       <defs>
        <path id="DejaVuSans-2d" d="M 313 2009 
L 1997 2009 
L 1997 1497 
L 313 1497 
L 313 2009 
z
" transform="scale(0.015625)"/>
       </defs>
       <use xlink:href="#DejaVuSans-32"/>
       <use xlink:href="#DejaVuSans-34" x="63.623047"/>
       <use xlink:href="#DejaVuSans-68" x="127.246094"/>
       <use xlink:href="#DejaVuSans-20" x="190.625"/>
       <use xlink:href="#DejaVuSans-34" x="222.412109"/>
       <use xlink:href="#DejaVuSans-ba" x="286.035156"/>
       <use xlink:href="#DejaVuSans-43" x="333.154297"/>
       <use xlink:href="#DejaVuSans-20" x="402.978516"/>
       <use xlink:href="#DejaVuSans-2d" x="434.765625"/>
       <use xlink:href="#DejaVuSans-50" x="470.849609"/>
       <use xlink:href="#DejaVuSans-42" x="531.152344"/>
       <use xlink:href="#DejaVuSans-53" x="598.005859"/>
      </g>
     </g>
    </g>
    <g id="xtick_5">
     <g id="line2d_5">
      <g>
       <use xlink:href="#m3435f0a5cd" x="644.492" y="343.03527" style="stroke: #000000; stroke-width: 0.8"/>
      </g>
     </g>
     <g id="text_5">
      <!-- 72h 4ºC -PBS -->
      <g transform="translate(623.056168 402.182185) rotate(-45) scale(0.1 -0.1)">
       <use xlink:href="#DejaVuSans-37"/>
       <use xlink:href="#DejaVuSans-32" x="63.623047"/>
       <use xlink:href="#DejaVuSans-68" x="127.246094"/>
       <use xlink:href="#DejaVuSans-20" x="190.625"/>
       <use xlink:href="#DejaVuSans-34" x="222.412109"/>
       <use xlink:href="#DejaVuSans-ba" x="286.035156"/>
       <use xlink:href="#DejaVuSans-43" x="333.154297"/>
       <use xlink:href="#DejaVuSans-20" x="402.978516"/>
       <use xlink:href="#DejaVuSans-2d" x="434.765625"/>
       <use xlink:href="#DejaVuSans-50" x="470.849609"/>
       <use xlink:href="#DejaVuSans-42" x="531.152344"/>
       <use xlink:href="#DejaVuSans-53" x="598.005859"/>
      </g>
     </g>
    </g>
    <g id="text_6">
     <!-- Condition -->
     <g transform="translate(361.799844 418.625409) scale(0.1 -0.1)">
      <defs>
       <path id="DejaVuSans-6f" d="M 1959 3097 
Q 1497 3097 1228 2736 
Q 959 2375 959 1747 
Q 959 1119 1226 758 
Q 1494 397 1959 397 
Q 2419 397 2687 759 
Q 2956 1122 2956 1747 
Q 2956 2369 2687 2733 
Q 2419 3097 1959 3097 
z
M 1959 3584 
Q 2709 3584 3137 3096 
Q 3566 2609 3566 1747 
Q 3566 888 3137 398 
Q 2709 -91 1959 -91 
Q 1206 -91 779 398 
Q 353 888 353 1747 
Q 353 2609 779 3096 
Q 1206 3584 1959 3584 
z
" transform="scale(0.015625)"/>
       <path id="DejaVuSans-64" d="M 2906 2969 
L 2906 4863 
L 3481 4863 
L 3481 0 
L 2906 0 
L 2906 525 
Q 2725 213 2448 61 
Q 2172 -91 1784 -91 
Q 1150 -91 751 415 
Q 353 922 353 1747 
Q 353 2572 751 3078 
Q 1150 3584 1784 3584 
Q 2172 3584 2448 3432 
Q 2725 3281 2906 2969 
z
M 947 1747 
Q 947 1113 1208 752 
Q 1469 391 1925 391 
Q 2381 391 2643 752 
Q 2906 1113 2906 1747 
Q 2906 2381 2643 2742 
Q 2381 3103 1925 3103 
Q 1469 3103 1208 2742 
Q 947 2381 947 1747 
z
" transform="scale(0.015625)"/>
       <path id="DejaVuSans-69" d="M 603 3500 
L 1178 3500 
L 1178 0 
L 603 0 
L 603 3500 
z
M 603 4863 
L 1178 4863 
L 1178 4134 
L 603 4134 
L 603 4863 
z
" transform="scale(0.015625)"/>
       <path id="DejaVuSans-74" d="M 1172 4494 
L 1172 3500 
L 2356 3500 
L 2356 3053 
L 1172 3053 
L 1172 1153 
Q 1172 725 1289 603 
Q 1406 481 1766 481 
L 2356 481 
L 2356 0 
L 1766 0 
Q 1100 0 847 248 
Q 594 497 594 1153 
L 594 3053 
L 172 3053 
L 172 3500 
L 594 3500 
L 594 4494 
L 1172 4494 
z
" transform="scale(0.015625)"/>
      </defs>
      <use xlink:href="#DejaVuSans-43"/>
      <use xlink:href="#DejaVuSans-6f" x="69.824219"/>
      <use xlink:href="#DejaVuSans-6e" x="131.005859"/>
      <use xlink:href="#DejaVuSans-64" x="194.384766"/>
      <use xlink:href="#DejaVuSans-69" x="257.861328"/>
      <use xlink:href="#DejaVuSans-74" x="285.644531"/>
      <use xlink:href="#DejaVuSans-69" x="324.853516"/>
      <use xlink:href="#DejaVuSans-6f" x="352.636719"/>
      <use xlink:href="#DejaVuSans-6e" x="413.818359"/>
     </g>
    </g>
   </g>
   <g id="matplotlib.axis_2">
    <g id="ytick_1">
     <g id="line2d_6">
      <defs>
       <path id="m5f6c475072" d="M 0 0 
L -3.5 0 
" style="stroke: #000000; stroke-width: 0.8"/>
      </defs>
      <g>
       <use xlink:href="#m5f6c475072" x="62.12" y="341.684754" style="stroke: #000000; stroke-width: 0.8"/>
      </g>
     </g>
     <g id="text_7">
      <!-- −100 -->
      <g transform="translate(27.652813 345.483973) scale(0.1 -0.1)">
       <defs>
        <path id="DejaVuSans-2212" d="M 678 2272 
L 4684 2272 
L 4684 1741 
L 678 1741 
L 678 2272 
z
" transform="scale(0.015625)"/>
        <path id="DejaVuSans-31" d="M 794 531 
L 1825 531 
L 1825 4091 
L 703 3866 
L 703 4441 
L 1819 4666 
L 2450 4666 
L 2450 531 
L 3481 531 
L 3481 0 
L 794 0 
L 794 531 
z
" transform="scale(0.015625)"/>
        <path id="DejaVuSans-30" d="M 2034 4250 
Q 1547 4250 1301 3770 
Q 1056 3291 1056 2328 
Q 1056 1369 1301 889 
Q 1547 409 2034 409 
Q 2525 409 2770 889 
Q 3016 1369 3016 2328 
Q 3016 3291 2770 3770 
Q 2525 4250 2034 4250 
z
M 2034 4750 
Q 2819 4750 3233 4129 
Q 3647 3509 3647 2328 
Q 3647 1150 3233 529 
Q 2819 -91 2034 -91 
Q 1250 -91 836 529 
Q 422 1150 422 2328 
Q 422 3509 836 4129 
Q 1250 4750 2034 4750 
z
" transform="scale(0.015625)"/>
       </defs>
       <use xlink:href="#DejaVuSans-2212"/>
       <use xlink:href="#DejaVuSans-31" x="83.789062"/>
       <use xlink:href="#DejaVuSans-30" x="147.412109"/>
       <use xlink:href="#DejaVuSans-30" x="211.035156"/>
      </g>
     </g>
    </g>
    <g id="ytick_2">
     <g id="line2d_7">
      <g>
       <use xlink:href="#m5f6c475072" x="62.12" y="289.022663" style="stroke: #000000; stroke-width: 0.8"/>
      </g>
     </g>
     <g id="text_8">
      <!-- 0 -->
      <g transform="translate(48.7575 292.821882) scale(0.1 -0.1)">
       <use xlink:href="#DejaVuSans-30"/>
      </g>
     </g>
    </g>
    <g id="ytick_3">
     <g id="line2d_8">
      <g>
       <use xlink:href="#m5f6c475072" x="62.12" y="236.360572" style="stroke: #000000; stroke-width: 0.8"/>
      </g>
     </g>
     <g id="text_9">
      <!-- 100 -->
      <g transform="translate(36.0325 240.159791) scale(0.1 -0.1)">
       <use xlink:href="#DejaVuSans-31"/>
       <use xlink:href="#DejaVuSans-30" x="63.623047"/>
       <use xlink:href="#DejaVuSans-30" x="127.246094"/>
      </g>
     </g>
    </g>
    <g id="ytick_4">
     <g id="line2d_9">
      <g>
       <use xlink:href="#m5f6c475072" x="62.12" y="183.698481" style="stroke: #000000; stroke-width: 0.8"/>
      </g>
     </g>
     <g id="text_10">
      <!-- 200 -->
      <g transform="translate(36.0325 187.4977) scale(0.1 -0.1)">
       <use xlink:href="#DejaVuSans-32"/>
       <use xlink:href="#DejaVuSans-30" x="63.623047"/>
       <use xlink:href="#DejaVuSans-30" x="127.246094"/>
      </g>
     </g>
    </g>
    <g id="ytick_5">
     <g id="line2d_10">
      <g>
       <use xlink:href="#m5f6c475072" x="62.12" y="131.03639" style="stroke: #000000; stroke-width: 0.8"/>
      </g>
     </g>
     <g id="text_11">
      <!-- 300 -->
      <g transform="translate(36.0325 134.835609) scale(0.1 -0.1)">
       <defs>
        <path id="DejaVuSans-33" d="M 2597 2516 
Q 3050 2419 3304 2112 
Q 3559 1806 3559 1356 
Q 3559 666 3084 287 
Q 2609 -91 1734 -91 
Q 1441 -91 1130 -33 
Q 819 25 488 141 
L 488 750 
Q 750 597 1062 519 
Q 1375 441 1716 441 
Q 2309 441 2620 675 
Q 2931 909 2931 1356 
Q 2931 1769 2642 2001 
Q 2353 2234 1838 2234 
L 1294 2234 
L 1294 2753 
L 1863 2753 
Q 2328 2753 2575 2939 
Q 2822 3125 2822 3475 
Q 2822 3834 2567 4026 
Q 2313 4219 1838 4219 
Q 1578 4219 1281 4162 
Q 984 4106 628 3988 
L 628 4550 
Q 988 4650 1302 4700 
Q 1616 4750 1894 4750 
Q 2613 4750 3031 4423 
Q 3450 4097 3450 3541 
Q 3450 3153 3228 2886 
Q 3006 2619 2597 2516 
z
" transform="scale(0.015625)"/>
       </defs>
       <use xlink:href="#DejaVuSans-33"/>
       <use xlink:href="#DejaVuSans-30" x="63.623047"/>
       <use xlink:href="#DejaVuSans-30" x="127.246094"/>
      </g>
     </g>
    </g>
    <g id="ytick_6">
     <g id="line2d_11">
      <g>
       <use xlink:href="#m5f6c475072" x="62.12" y="78.374299" style="stroke: #000000; stroke-width: 0.8"/>
      </g>
     </g>
     <g id="text_12">
      <!-- 400 -->
      <g transform="translate(36.0325 82.173518) scale(0.1 -0.1)">
       <use xlink:href="#DejaVuSans-34"/>
       <use xlink:href="#DejaVuSans-30" x="63.623047"/>
       <use xlink:href="#DejaVuSans-30" x="127.246094"/>
      </g>
     </g>
    </g>
    <g id="ytick_7">
     <g id="line2d_12">
      <g>
       <use xlink:href="#m5f6c475072" x="62.12" y="25.712208" style="stroke: #000000; stroke-width: 0.8"/>
      </g>
     </g>
     <g id="text_13">
      <!-- 500 -->
      <g transform="translate(36.0325 29.511427) scale(0.1 -0.1)">
       <defs>
        <path id="DejaVuSans-35" d="M 691 4666 
L 3169 4666 
L 3169 4134 
L 1269 4134 
L 1269 2991 
Q 1406 3038 1543 3061 
Q 1681 3084 1819 3084 
Q 2600 3084 3056 2656 
Q 3513 2228 3513 1497 
Q 3513 744 3044 326 
Q 2575 -91 1722 -91 
Q 1428 -91 1123 -41 
Q 819 9 494 109 
L 494 744 
Q 775 591 1075 516 
Q 1375 441 1709 441 
Q 2250 441 2565 725 
Q 2881 1009 2881 1497 
Q 2881 1984 2565 2268 
Q 2250 2553 1709 2553 
Q 1456 2553 1204 2497 
Q 953 2441 691 2322 
L 691 4666 
z
" transform="scale(0.015625)"/>
       </defs>
       <use xlink:href="#DejaVuSans-35"/>
       <use xlink:href="#DejaVuSans-30" x="63.623047"/>
       <use xlink:href="#DejaVuSans-30" x="127.246094"/>
      </g>
     </g>
    </g>
    <g id="text_14">
     <!-- $log([HSPB1]/[Total Protein])$ -->
     <g transform="translate(21.552813 244.617635) rotate(-90) scale(0.1 -0.1)">
      <defs>
       <path id="DejaVuSans-Oblique-6c" d="M 1172 4863 
L 1747 4863 
L 800 0 
L 225 0 
L 1172 4863 
z
" transform="scale(0.015625)"/>
       <path id="DejaVuSans-Oblique-6f" d="M 1625 -91 
Q 1009 -91 651 289 
Q 294 669 294 1325 
Q 294 1706 417 2101 
Q 541 2497 738 2766 
Q 1047 3184 1428 3384 
Q 1809 3584 2291 3584 
Q 2888 3584 3255 3212 
Q 3622 2841 3622 2241 
Q 3622 1825 3500 1412 
Q 3378 1000 3181 728 
Q 2875 309 2494 109 
Q 2113 -91 1625 -91 
z
M 891 1344 
Q 891 869 1089 633 
Q 1288 397 1691 397 
Q 2269 397 2648 901 
Q 3028 1406 3028 2181 
Q 3028 2634 2825 2865 
Q 2622 3097 2228 3097 
Q 1903 3097 1650 2945 
Q 1397 2794 1197 2484 
Q 1050 2253 970 1956 
Q 891 1659 891 1344 
z
" transform="scale(0.015625)"/>
       <path id="DejaVuSans-Oblique-67" d="M 3816 3500 
L 3219 434 
Q 3047 -456 2561 -893 
Q 2075 -1331 1253 -1331 
Q 950 -1331 690 -1286 
Q 431 -1241 206 -1147 
L 313 -588 
Q 525 -725 762 -790 
Q 1000 -856 1269 -856 
Q 1816 -856 2167 -557 
Q 2519 -259 2631 300 
L 2681 563 
Q 2441 288 2122 144 
Q 1803 0 1434 0 
Q 903 0 598 351 
Q 294 703 294 1319 
Q 294 1803 478 2267 
Q 663 2731 997 3091 
Q 1219 3328 1514 3456 
Q 1809 3584 2131 3584 
Q 2484 3584 2746 3420 
Q 3009 3256 3138 2956 
L 3238 3500 
L 3816 3500 
z
M 2950 2216 
Q 2950 2641 2750 2872 
Q 2550 3103 2181 3103 
Q 1953 3103 1747 3012 
Q 1541 2922 1394 2759 
Q 1156 2491 1023 2127 
Q 891 1763 891 1375 
Q 891 944 1092 712 
Q 1294 481 1672 481 
Q 2219 481 2584 976 
Q 2950 1472 2950 2216 
z
" transform="scale(0.015625)"/>
       <path id="DejaVuSans-28" d="M 1984 4856 
Q 1566 4138 1362 3434 
Q 1159 2731 1159 2009 
Q 1159 1288 1364 580 
Q 1569 -128 1984 -844 
L 1484 -844 
Q 1016 -109 783 600 
Q 550 1309 550 2009 
Q 550 2706 781 3412 
Q 1013 4119 1484 4856 
L 1984 4856 
z
" transform="scale(0.015625)"/>
       <path id="DejaVuSans-5b" d="M 550 4863 
L 1875 4863 
L 1875 4416 
L 1125 4416 
L 1125 -397 
L 1875 -397 
L 1875 -844 
L 550 -844 
L 550 4863 
z
" transform="scale(0.015625)"/>
       <path id="DejaVuSans-Oblique-48" d="M 1081 4666 
L 1716 4666 
L 1344 2753 
L 3634 2753 
L 4006 4666 
L 4641 4666 
L 3731 0 
L 3097 0 
L 3531 2222 
L 1241 2222 
L 806 0 
L 172 0 
L 1081 4666 
z
" transform="scale(0.015625)"/>
       <path id="DejaVuSans-Oblique-53" d="M 3859 4513 
L 3738 3897 
Q 3422 4066 3111 4152 
Q 2800 4238 2509 4238 
Q 1944 4238 1609 3991 
Q 1275 3744 1275 3334 
Q 1275 3109 1398 2989 
Q 1522 2869 2034 2731 
L 2413 2638 
Q 3053 2472 3303 2217 
Q 3553 1963 3553 1503 
Q 3553 797 2998 353 
Q 2444 -91 1538 -91 
Q 1166 -91 791 -17 
Q 416 56 38 206 
L 166 856 
Q 513 641 861 531 
Q 1209 422 1556 422 
Q 2147 422 2503 684 
Q 2859 947 2859 1369 
Q 2859 1650 2717 1795 
Q 2575 1941 2106 2059 
L 1728 2156 
Q 1081 2325 845 2545 
Q 609 2766 609 3163 
Q 609 3859 1145 4304 
Q 1681 4750 2541 4750 
Q 2875 4750 3203 4690 
Q 3531 4631 3859 4513 
z
" transform="scale(0.015625)"/>
       <path id="DejaVuSans-Oblique-50" d="M 1081 4666 
L 2541 4666 
Q 3178 4666 3512 4369 
Q 3847 4072 3847 3500 
Q 3847 2731 3353 2303 
Q 2859 1875 1966 1875 
L 1172 1875 
L 806 0 
L 172 0 
L 1081 4666 
z
M 1613 4147 
L 1275 2394 
L 2069 2394 
Q 2606 2394 2893 2669 
Q 3181 2944 3181 3456 
Q 3181 3784 2986 3965 
Q 2791 4147 2438 4147 
L 1613 4147 
z
" transform="scale(0.015625)"/>
       <path id="DejaVuSans-Oblique-42" d="M 1081 4666 
L 2694 4666 
Q 3350 4666 3675 4422 
Q 4000 4178 4000 3688 
Q 4000 3238 3720 2911 
Q 3441 2584 2988 2516 
Q 3375 2428 3569 2181 
Q 3763 1934 3763 1522 
Q 3763 819 3242 409 
Q 2722 0 1819 0 
L 172 0 
L 1081 4666 
z
M 1234 2228 
L 903 519 
L 1919 519 
Q 2491 519 2800 781 
Q 3109 1044 3109 1522 
Q 3109 1891 2904 2059 
Q 2700 2228 2247 2228 
L 1234 2228 
z
M 1606 4147 
L 1331 2741 
L 2272 2741 
Q 2775 2741 3058 2959 
Q 3341 3178 3341 3566 
Q 3341 3869 3150 4008 
Q 2959 4147 2541 4147 
L 1606 4147 
z
" transform="scale(0.015625)"/>
       <path id="DejaVuSans-5d" d="M 1947 4863 
L 1947 -844 
L 622 -844 
L 622 -397 
L 1369 -397 
L 1369 4416 
L 622 4416 
L 622 4863 
L 1947 4863 
z
" transform="scale(0.015625)"/>
       <path id="DejaVuSans-2f" d="M 1625 4666 
L 2156 4666 
L 531 -594 
L 0 -594 
L 1625 4666 
z
" transform="scale(0.015625)"/>
       <path id="DejaVuSans-Oblique-54" d="M 378 4666 
L 4325 4666 
L 4225 4134 
L 2559 4134 
L 1759 0 
L 1125 0 
L 1925 4134 
L 275 4134 
L 378 4666 
z
" transform="scale(0.015625)"/>
       <path id="DejaVuSans-Oblique-74" d="M 2706 3500 
L 2619 3053 
L 1472 3053 
L 1100 1153 
Q 1081 1047 1072 975 
Q 1063 903 1063 863 
Q 1063 663 1183 572 
Q 1303 481 1569 481 
L 2150 481 
L 2053 0 
L 1503 0 
Q 991 0 739 200 
Q 488 400 488 806 
Q 488 878 497 964 
Q 506 1050 525 1153 
L 897 3053 
L 409 3053 
L 500 3500 
L 978 3500 
L 1172 4494 
L 1747 4494 
L 1556 3500 
L 2706 3500 
z
" transform="scale(0.015625)"/>
       <path id="DejaVuSans-Oblique-61" d="M 3438 1997 
L 3047 0 
L 2472 0 
L 2578 531 
Q 2325 219 2001 64 
Q 1678 -91 1281 -91 
Q 834 -91 548 182 
Q 263 456 263 884 
Q 263 1497 752 1853 
Q 1241 2209 2100 2209 
L 2900 2209 
L 2931 2363 
Q 2938 2388 2941 2417 
Q 2944 2447 2944 2509 
Q 2944 2788 2717 2942 
Q 2491 3097 2081 3097 
Q 1800 3097 1504 3025 
Q 1209 2953 897 2809 
L 997 3341 
Q 1322 3463 1633 3523 
Q 1944 3584 2234 3584 
Q 2853 3584 3176 3315 
Q 3500 3047 3500 2534 
Q 3500 2431 3484 2292 
Q 3469 2153 3438 1997 
z
M 2816 1759 
L 2241 1759 
Q 1534 1759 1195 1570 
Q 856 1381 856 984 
Q 856 709 1029 553 
Q 1203 397 1509 397 
Q 1978 397 2328 733 
Q 2678 1069 2791 1631 
L 2816 1759 
z
" transform="scale(0.015625)"/>
       <path id="DejaVuSans-Oblique-72" d="M 2853 2969 
Q 2766 3016 2653 3041 
Q 2541 3066 2413 3066 
Q 1953 3066 1609 2717 
Q 1266 2369 1153 1784 
L 800 0 
L 225 0 
L 909 3500 
L 1484 3500 
L 1375 2956 
Q 1603 3259 1920 3421 
Q 2238 3584 2597 3584 
Q 2691 3584 2781 3573 
Q 2872 3563 2963 3538 
L 2853 2969 
z
" transform="scale(0.015625)"/>
       <path id="DejaVuSans-Oblique-65" d="M 3078 2063 
Q 3088 2113 3092 2166 
Q 3097 2219 3097 2272 
Q 3097 2653 2873 2875 
Q 2650 3097 2266 3097 
Q 1838 3097 1509 2826 
Q 1181 2556 1013 2059 
L 3078 2063 
z
M 3578 1613 
L 903 1613 
Q 884 1494 878 1425 
Q 872 1356 872 1306 
Q 872 872 1139 634 
Q 1406 397 1894 397 
Q 2269 397 2603 481 
Q 2938 566 3225 728 
L 3116 159 
Q 2806 34 2476 -28 
Q 2147 -91 1806 -91 
Q 1078 -91 686 257 
Q 294 606 294 1247 
Q 294 1794 489 2264 
Q 684 2734 1063 3103 
Q 1306 3334 1642 3459 
Q 1978 3584 2356 3584 
Q 2950 3584 3301 3228 
Q 3653 2872 3653 2272 
Q 3653 2128 3634 1964 
Q 3616 1800 3578 1613 
z
" transform="scale(0.015625)"/>
       <path id="DejaVuSans-Oblique-69" d="M 1172 4863 
L 1747 4863 
L 1606 4134 
L 1031 4134 
L 1172 4863 
z
M 909 3500 
L 1484 3500 
L 800 0 
L 225 0 
L 909 3500 
z
" transform="scale(0.015625)"/>
       <path id="DejaVuSans-Oblique-6e" d="M 3566 2113 
L 3156 0 
L 2578 0 
L 2988 2091 
Q 3016 2238 3031 2350 
Q 3047 2463 3047 2528 
Q 3047 2791 2881 2937 
Q 2716 3084 2419 3084 
Q 1956 3084 1622 2776 
Q 1288 2469 1184 1941 
L 800 0 
L 225 0 
L 903 3500 
L 1478 3500 
L 1363 2950 
Q 1603 3253 1940 3418 
Q 2278 3584 2650 3584 
Q 3113 3584 3367 3334 
Q 3622 3084 3622 2631 
Q 3622 2519 3608 2391 
Q 3594 2263 3566 2113 
z
" transform="scale(0.015625)"/>
       <path id="DejaVuSans-29" d="M 513 4856 
L 1013 4856 
Q 1481 4119 1714 3412 
Q 1947 2706 1947 2009 
Q 1947 1309 1714 600 
Q 1481 -109 1013 -844 
L 513 -844 
Q 928 -128 1133 580 
Q 1338 1288 1338 2009 
Q 1338 2731 1133 3434 
Q 928 4138 513 4856 
z
" transform="scale(0.015625)"/>
      </defs>
      <use xlink:href="#DejaVuSans-Oblique-6c" transform="translate(0 0.015625)"/>
      <use xlink:href="#DejaVuSans-Oblique-6f" transform="translate(27.783203 0.015625)"/>
      <use xlink:href="#DejaVuSans-Oblique-67" transform="translate(88.964844 0.015625)"/>
      <use xlink:href="#DejaVuSans-28" transform="translate(152.441406 0.015625)"/>
      <use xlink:href="#DejaVuSans-5b" transform="translate(191.455078 0.015625)"/>
      <use xlink:href="#DejaVuSans-Oblique-48" transform="translate(227.34375 0.015625)"/>
      <use xlink:href="#DejaVuSans-Oblique-53" transform="translate(302.539062 0.015625)"/>
      <use xlink:href="#DejaVuSans-Oblique-50" transform="translate(366.015625 0.015625)"/>
      <use xlink:href="#DejaVuSans-Oblique-42" transform="translate(426.318359 0.015625)"/>
      <use xlink:href="#DejaVuSans-31" transform="translate(494.921875 0.015625)"/>
      <use xlink:href="#DejaVuSans-5d" transform="translate(558.544922 0.015625)"/>
      <use xlink:href="#DejaVuSans-2f" transform="translate(597.558594 0.015625)"/>
      <use xlink:href="#DejaVuSans-5b" transform="translate(631.25 0.015625)"/>
      <use xlink:href="#DejaVuSans-Oblique-54" transform="translate(670.263672 0.015625)"/>
      <use xlink:href="#DejaVuSans-Oblique-6f" transform="translate(731.347656 0.015625)"/>
      <use xlink:href="#DejaVuSans-Oblique-74" transform="translate(792.529297 0.015625)"/>
      <use xlink:href="#DejaVuSans-Oblique-61" transform="translate(831.738281 0.015625)"/>
      <use xlink:href="#DejaVuSans-Oblique-6c" transform="translate(893.017578 0.015625)"/>
      <use xlink:href="#DejaVuSans-Oblique-50" transform="translate(920.800781 0.015625)"/>
      <use xlink:href="#DejaVuSans-Oblique-72" transform="translate(981.103516 0.015625)"/>
      <use xlink:href="#DejaVuSans-Oblique-6f" transform="translate(1022.216797 0.015625)"/>
      <use xlink:href="#DejaVuSans-Oblique-74" transform="translate(1083.398438 0.015625)"/>
      <use xlink:href="#DejaVuSans-Oblique-65" transform="translate(1122.607422 0.015625)"/>
      <use xlink:href="#DejaVuSans-Oblique-69" transform="translate(1184.130859 0.015625)"/>
      <use xlink:href="#DejaVuSans-Oblique-6e" transform="translate(1211.914062 0.015625)"/>
      <use xlink:href="#DejaVuSans-5d" transform="translate(1275.292969 0.015625)"/>
      <use xlink:href="#DejaVuSans-29" transform="translate(1314.306641 0.015625)"/>
     </g>
    </g>
   </g>
   <g id="line2d_13">
    <path d="M 126.828 284.536603 
L 126.828 253.61088 
" clip-path="url(#pd48f3a7876)" style="fill: none; stroke: #434343; stroke-width: 1.5; stroke-linecap: square"/>
   </g>
   <g id="line2d_14">
    <path d="M 126.828 279.414854 
L 126.828 259.968224 
" clip-path="url(#pd48f3a7876)" style="fill: none; stroke: #434343; stroke-width: 4.5; stroke-linecap: square"/>
   </g>
   <g id="line2d_15">
    <path d="M 256.244 287.100558 
L 256.244 244.413851 
" clip-path="url(#pd48f3a7876)" style="fill: none; stroke: #434343; stroke-width: 1.5; stroke-linecap: square"/>
   </g>
   <g id="line2d_16">
    <path d="M 256.244 283.726387 
L 256.244 262.604792 
" clip-path="url(#pd48f3a7876)" style="fill: none; stroke: #434343; stroke-width: 4.5; stroke-linecap: square"/>
   </g>
   <g id="line2d_17">
    <path d="M 385.66 286.695716 
L 385.66 241.245297 
" clip-path="url(#pd48f3a7876)" style="fill: none; stroke: #434343; stroke-width: 1.5; stroke-linecap: square"/>
   </g>
   <g id="line2d_18">
    <path d="M 385.66 283.934429 
L 385.66 262.543483 
" clip-path="url(#pd48f3a7876)" style="fill: none; stroke: #434343; stroke-width: 4.5; stroke-linecap: square"/>
   </g>
   <g id="line2d_19">
    <path d="M 515.076 287.293353 
L 515.076 248.206569 
" clip-path="url(#pd48f3a7876)" style="fill: none; stroke: #434343; stroke-width: 1.5; stroke-linecap: square"/>
   </g>
   <g id="line2d_20">
    <path d="M 515.076 285.408385 
L 515.076 267.005087 
" clip-path="url(#pd48f3a7876)" style="fill: none; stroke: #434343; stroke-width: 4.5; stroke-linecap: square"/>
   </g>
   <g id="line2d_21">
    <path d="M 644.492 287.148344 
L 644.492 240.520437 
" clip-path="url(#pd48f3a7876)" style="fill: none; stroke: #434343; stroke-width: 1.5; stroke-linecap: square"/>
   </g>
   <g id="line2d_22">
    <path d="M 644.492 284.719965 
L 644.492 266.224403 
" clip-path="url(#pd48f3a7876)" style="fill: none; stroke: #434343; stroke-width: 4.5; stroke-linecap: square"/>
   </g>
   <g id="patch_3">
    <path d="M 62.12 343.03527 
L 62.12 10.8 
" style="fill: none; stroke: #000000; stroke-width: 0.8; stroke-linejoin: miter; stroke-linecap: square"/>
   </g>
   <g id="patch_4">
    <path d="M 709.2 343.03527 
L 709.2 10.8 
" style="fill: none; stroke: #000000; stroke-width: 0.8; stroke-linejoin: miter; stroke-linecap: square"/>
   </g>
   <g id="patch_5">
    <path d="M 62.12 343.03527 
L 709.2 343.03527 
" style="fill: none; stroke: #000000; stroke-width: 0.8; stroke-linejoin: miter; stroke-linecap: square"/>
   </g>
   <g id="patch_6">
    <path d="M 62.12 10.8 
L 709.2 10.8 
" style="fill: none; stroke: #000000; stroke-width: 0.8; stroke-linejoin: miter; stroke-linecap: square"/>
   </g>
   <g id="PathCollection_1">
    <defs>
     <path id="me595f6b8f1" d="M 0 1.5 
C 0.397805 1.5 0.77937 1.341951 1.06066 1.06066 
C 1.341951 0.77937 1.5 0.397805 1.5 0 
C 1.5 -0.397805 1.341951 -0.77937 1.06066 -1.06066 
C 0.77937 -1.341951 0.397805 -1.5 0 -1.5 
C -0.397805 -1.5 -0.77937 -1.341951 -1.06066 -1.06066 
C -1.341951 -0.77937 -1.5 -0.397805 -1.5 0 
C -1.5 0.397805 -1.341951 0.77937 -1.06066 1.06066 
C -0.77937 1.341951 -0.397805 1.5 0 1.5 
z
" style="stroke: #434343"/>
    </defs>
    <g clip-path="url(#pd48f3a7876)">
     <use xlink:href="#me595f6b8f1" x="126.828" y="273.649617" style="fill: #ffffff; stroke: #434343"/>
    </g>
   </g>
   <g id="PathCollection_2">
    <g clip-path="url(#pd48f3a7876)">
     <use xlink:href="#me595f6b8f1" x="256.244" y="281.442005" style="fill: #ffffff; stroke: #434343"/>
    </g>
   </g>
   <g id="PathCollection_3">
    <g clip-path="url(#pd48f3a7876)">
     <use xlink:href="#me595f6b8f1" x="385.66" y="279.98465" style="fill: #ffffff; stroke: #434343"/>
    </g>
   </g>
   <g id="PathCollection_4">
    <g clip-path="url(#pd48f3a7876)">
     <use xlink:href="#me595f6b8f1" x="515.076" y="283.290468" style="fill: #ffffff; stroke: #434343"/>
    </g>
   </g>
   <g id="PathCollection_5">
    <g clip-path="url(#pd48f3a7876)">
     <use xlink:href="#me595f6b8f1" x="644.492" y="280.860601" style="fill: #ffffff; stroke: #434343"/>
    </g>
   </g>
  </g>
 </g>
 <defs>
  <clipPath id="pd48f3a7876">
   <rect x="62.12" y="10.8" width="647.08" height="332.23527"/>
  </clipPath>
 </defs>
</svg>
