<?xml version="1.0" encoding="utf-8" standalone="no"?>
<!DOCTYPE svg PUBLIC "-//W3C//DTD SVG 1.1//EN"
  "http://www.w3.org/Graphics/SVG/1.1/DTD/svg11.dtd">
<svg xmlns:xlink="http://www.w3.org/1999/xlink" width="720pt" height="432pt" viewBox="0 0 720 432" xmlns="http://www.w3.org/2000/svg" version="1.1">
 <metadata>
  <rdf:RDF xmlns:dc="http://purl.org/dc/elements/1.1/" xmlns:cc="http://creativecommons.org/ns#" xmlns:rdf="http://www.w3.org/1999/02/22-rdf-syntax-ns#">
   <cc:Work>
    <dc:type rdf:resource="http://purl.org/dc/dcmitype/StillImage"/>
    <dc:date>2024-09-30T14:08:27.817866</dc:date>
    <dc:format>image/svg+xml</dc:format>
    <dc:creator>
     <cc:Agent>
      <dc:title>Matplotlib v3.7.3, https://matplotlib.org/</dc:title>
     </cc:Agent>
    </dc:creator>
   </cc:Work>
  </rdf:RDF>
 </metadata>
 <defs>
  <style type="text/css">*{stroke-linejoin: round; stroke-linecap: butt}</style>
 </defs>
 <g id="figure_1">
  <g id="patch_1">
   <path d="M 0 432 
L 720 432 
L 720 0 
L 0 0 
z
" style="fill: #ffffff"/>
  </g>
  <g id="axes_1">
   <g id="patch_2">
    <path d="M 102.53 387.16 
L 709.2 387.16 
L 709.2 10.8 
L 102.53 10.8 
z
" style="fill: #ffffff"/>
   </g>
   <g id="PathCollection_1">
    <defs>
     <path id="C0_0_b66cd2e21a" d="M 0 1.5 
C 0.397805 1.5 0.77937 1.341951 1.06066 1.06066 
C 1.341951 0.77937 1.5 0.397805 1.5 -0 
C 1.5 -0.397805 1.341951 -0.77937 1.06066 -1.06066 
C 0.77937 -1.341951 0.397805 -1.5 0 -1.5 
C -0.397805 -1.5 -0.77937 -1.341951 -1.06066 -1.06066 
C -1.341951 -0.77937 -1.5 -0.397805 -1.5 0 
C -1.5 0.397805 -1.341951 0.77937 -1.06066 1.06066 
C -0.77937 1.341951 -0.397805 1.5 0 1.5 
z
"/>
    </defs>
    <g clip-path="url(#pff31089d7d)">
     <use xlink:href="#C0_0_b66cd2e21a" x="164.292503" y="58.688512" style="fill: #f77189"/>
    </g>
    <g clip-path="url(#pff31089d7d)">
     <use xlink:href="#C0_0_b66cd2e21a" x="152.794901" y="67.292368" style="fill: #f77189"/>
    </g>
    <g clip-path="url(#pff31089d7d)">
     <use xlink:href="#C0_0_b66cd2e21a" x="145.045517" y="64.312927" style="fill: #f77189"/>
    </g>
    <g clip-path="url(#pff31089d7d)">
     <use xlink:href="#C0_0_b66cd2e21a" x="149.543852" y="67.262729" style="fill: #f77189"/>
    </g>
    <g clip-path="url(#pff31089d7d)">
     <use xlink:href="#C0_0_b66cd2e21a" x="159.783841" y="59.296232" style="fill: #f77189"/>
    </g>
    <g clip-path="url(#pff31089d7d)">
     <use xlink:href="#C0_0_b66cd2e21a" x="149.94235" y="60.83105" style="fill: #f77189"/>
    </g>
    <g clip-path="url(#pff31089d7d)">
     <use xlink:href="#C0_0_b66cd2e21a" x="180.730169" y="55.82686" style="fill: #f77189"/>
    </g>
    <g clip-path="url(#pff31089d7d)">
     <use xlink:href="#C0_0_b66cd2e21a" x="171.83939" y="63.229577" style="fill: #f77189"/>
    </g>
    <g clip-path="url(#pff31089d7d)">
     <use xlink:href="#C0_0_b66cd2e21a" x="177.847789" y="57.289372" style="fill: #f77189"/>
    </g>
    <g clip-path="url(#pff31089d7d)">
     <use xlink:href="#C0_0_b66cd2e21a" x="156.750382" y="60.494018" style="fill: #f77189"/>
    </g>
    <g clip-path="url(#pff31089d7d)">
     <use xlink:href="#C0_0_b66cd2e21a" x="197.188657" y="56.137858" style="fill: #f77189"/>
    </g>
    <g clip-path="url(#pff31089d7d)">
     <use xlink:href="#C0_0_b66cd2e21a" x="214.485538" y="64.030675" style="fill: #f77189"/>
    </g>
    <g clip-path="url(#pff31089d7d)">
     <use xlink:href="#C0_0_b66cd2e21a" x="518.219272" y="64.18321" style="fill: #f77189"/>
    </g>
    <g clip-path="url(#pff31089d7d)">
     <use xlink:href="#C0_0_b66cd2e21a" x="277.246028" y="66.141951" style="fill: #f77189"/>
    </g>
    <g clip-path="url(#pff31089d7d)">
     <use xlink:href="#C0_0_b66cd2e21a" x="412.373891" y="58.180691" style="fill: #f77189"/>
    </g>
    <g clip-path="url(#pff31089d7d)">
     <use xlink:href="#C0_0_b66cd2e21a" x="430.176012" y="55.413021" style="fill: #f77189"/>
    </g>
    <g clip-path="url(#pff31089d7d)">
     <use xlink:href="#C0_0_b66cd2e21a" x="347.001687" y="54.583822" style="fill: #f77189"/>
    </g>
    <g clip-path="url(#pff31089d7d)">
     <use xlink:href="#C0_0_b66cd2e21a" x="151.859782" y="62.800323" style="fill: #f77189"/>
    </g>
    <g clip-path="url(#pff31089d7d)">
     <use xlink:href="#C0_0_b66cd2e21a" x="162.662478" y="63.357367" style="fill: #f77189"/>
    </g>
    <g clip-path="url(#pff31089d7d)">
     <use xlink:href="#C0_0_b66cd2e21a" x="164.278509" y="65.808569" style="fill: #f77189"/>
    </g>
    <g clip-path="url(#pff31089d7d)">
     <use xlink:href="#C0_0_b66cd2e21a" x="141.804179" y="60.165531" style="fill: #f77189"/>
    </g>
    <g clip-path="url(#pff31089d7d)">
     <use xlink:href="#C0_0_b66cd2e21a" x="148.744149" y="57.361082" style="fill: #f77189"/>
    </g>
    <g clip-path="url(#pff31089d7d)">
     <use xlink:href="#C0_0_b66cd2e21a" x="182.900933" y="63.895413" style="fill: #f77189"/>
    </g>
    <g clip-path="url(#pff31089d7d)">
     <use xlink:href="#C0_0_b66cd2e21a" x="195.374325" y="62.539711" style="fill: #f77189"/>
    </g>
    <g clip-path="url(#pff31089d7d)">
     <use xlink:href="#C0_0_b66cd2e21a" x="202.671798" y="63.287628" style="fill: #f77189"/>
    </g>
    <g clip-path="url(#pff31089d7d)">
     <use xlink:href="#C0_0_b66cd2e21a" x="147.363669" y="62.585188" style="fill: #f77189"/>
    </g>
    <g clip-path="url(#pff31089d7d)">
     <use xlink:href="#C0_0_b66cd2e21a" x="137.01198" y="64.715045" style="fill: #f77189"/>
    </g>
    <g clip-path="url(#pff31089d7d)">
     <use xlink:href="#C0_0_b66cd2e21a" x="137.303335" y="59.404327" style="fill: #f77189"/>
    </g>
   </g>
   <g id="PathCollection_2">
    <defs>
     <path id="C1_0_3731da8b43" d="M 0 1.5 
C 0.397805 1.5 0.77937 1.341951 1.06066 1.06066 
C 1.341951 0.77937 1.5 0.397805 1.5 -0 
C 1.5 -0.397805 1.341951 -0.77937 1.06066 -1.06066 
C 0.77937 -1.341951 0.397805 -1.5 0 -1.5 
C -0.397805 -1.5 -0.77937 -1.341951 -1.06066 -1.06066 
C -1.341951 -0.77937 -1.5 -0.397805 -1.5 0 
C -1.5 0.397805 -1.341951 0.77937 -1.06066 1.06066 
C -0.77937 1.341951 -0.397805 1.5 0 1.5 
z
"/>
    </defs>
    <g clip-path="url(#pff31089d7d)">
     <use xlink:href="#C1_0_3731da8b43" x="134.756013" y="139.745696" style="fill: #ae9d31"/>
    </g>
    <g clip-path="url(#pff31089d7d)">
     <use xlink:href="#C1_0_3731da8b43" x="134.146785" y="139.263511" style="fill: #ae9d31"/>
    </g>
    <g clip-path="url(#pff31089d7d)">
     <use xlink:href="#C1_0_3731da8b43" x="135.753506" y="128.935627" style="fill: #ae9d31"/>
    </g>
    <g clip-path="url(#pff31089d7d)">
     <use xlink:href="#C1_0_3731da8b43" x="139.041693" y="139.10554" style="fill: #ae9d31"/>
    </g>
    <g clip-path="url(#pff31089d7d)">
     <use xlink:href="#C1_0_3731da8b43" x="139.361014" y="137.520543" style="fill: #ae9d31"/>
    </g>
    <g clip-path="url(#pff31089d7d)">
     <use xlink:href="#C1_0_3731da8b43" x="142.768475" y="131.793908" style="fill: #ae9d31"/>
    </g>
    <g clip-path="url(#pff31089d7d)">
     <use xlink:href="#C1_0_3731da8b43" x="151.864933" y="132.799778" style="fill: #ae9d31"/>
    </g>
    <g clip-path="url(#pff31089d7d)">
     <use xlink:href="#C1_0_3731da8b43" x="146.061146" y="131.551042" style="fill: #ae9d31"/>
    </g>
    <g clip-path="url(#pff31089d7d)">
     <use xlink:href="#C1_0_3731da8b43" x="144.572804" y="133.530513" style="fill: #ae9d31"/>
    </g>
    <g clip-path="url(#pff31089d7d)">
     <use xlink:href="#C1_0_3731da8b43" x="205.283985" y="135.439796" style="fill: #ae9d31"/>
    </g>
    <g clip-path="url(#pff31089d7d)">
     <use xlink:href="#C1_0_3731da8b43" x="188.579522" y="127.447157" style="fill: #ae9d31"/>
    </g>
    <g clip-path="url(#pff31089d7d)">
     <use xlink:href="#C1_0_3731da8b43" x="196.719564" y="136.852351" style="fill: #ae9d31"/>
    </g>
    <g clip-path="url(#pff31089d7d)">
     <use xlink:href="#C1_0_3731da8b43" x="237.525471" y="133.204569" style="fill: #ae9d31"/>
    </g>
    <g clip-path="url(#pff31089d7d)">
     <use xlink:href="#C1_0_3731da8b43" x="356.574236" y="130.812641" style="fill: #ae9d31"/>
    </g>
    <g clip-path="url(#pff31089d7d)">
     <use xlink:href="#C1_0_3731da8b43" x="234.552842" y="135.884422" style="fill: #ae9d31"/>
    </g>
    <g clip-path="url(#pff31089d7d)">
     <use xlink:href="#C1_0_3731da8b43" x="272.759369" y="132.863384" style="fill: #ae9d31"/>
    </g>
    <g clip-path="url(#pff31089d7d)">
     <use xlink:href="#C1_0_3731da8b43" x="293.163424" y="138.595125" style="fill: #ae9d31"/>
    </g>
    <g clip-path="url(#pff31089d7d)">
     <use xlink:href="#C1_0_3731da8b43" x="132.364925" y="135.789307" style="fill: #ae9d31"/>
    </g>
    <g clip-path="url(#pff31089d7d)">
     <use xlink:href="#C1_0_3731da8b43" x="130.588889" y="131.786835" style="fill: #ae9d31"/>
    </g>
    <g clip-path="url(#pff31089d7d)">
     <use xlink:href="#C1_0_3731da8b43" x="140.735013" y="132.322245" style="fill: #ae9d31"/>
    </g>
    <g clip-path="url(#pff31089d7d)">
     <use xlink:href="#C1_0_3731da8b43" x="136.407374" y="137.453539" style="fill: #ae9d31"/>
    </g>
    <g clip-path="url(#pff31089d7d)">
     <use xlink:href="#C1_0_3731da8b43" x="136.665945" y="135.223965" style="fill: #ae9d31"/>
    </g>
    <g clip-path="url(#pff31089d7d)">
     <use xlink:href="#C1_0_3731da8b43" x="139.749392" y="128.946222" style="fill: #ae9d31"/>
    </g>
    <g clip-path="url(#pff31089d7d)">
     <use xlink:href="#C1_0_3731da8b43" x="147.660576" y="137.982964" style="fill: #ae9d31"/>
    </g>
    <g clip-path="url(#pff31089d7d)">
     <use xlink:href="#C1_0_3731da8b43" x="144.497618" y="132.489343" style="fill: #ae9d31"/>
    </g>
    <g clip-path="url(#pff31089d7d)">
     <use xlink:href="#C1_0_3731da8b43" x="144.764411" y="133.473854" style="fill: #ae9d31"/>
    </g>
    <g clip-path="url(#pff31089d7d)">
     <use xlink:href="#C1_0_3731da8b43" x="191.954445" y="137.773032" style="fill: #ae9d31"/>
    </g>
    <g clip-path="url(#pff31089d7d)">
     <use xlink:href="#C1_0_3731da8b43" x="189.950117" y="137.414236" style="fill: #ae9d31"/>
    </g>
    <g clip-path="url(#pff31089d7d)">
     <use xlink:href="#C1_0_3731da8b43" x="182.289355" y="128.404897" style="fill: #ae9d31"/>
    </g>
   </g>
   <g id="PathCollection_3">
    <defs>
     <path id="C2_0_265d22da93" d="M 0 1.5 
C 0.397805 1.5 0.77937 1.341951 1.06066 1.06066 
C 1.341951 0.77937 1.5 0.397805 1.5 -0 
C 1.5 -0.397805 1.341951 -0.77937 1.06066 -1.06066 
C 0.77937 -1.341951 0.397805 -1.5 0 -1.5 
C -0.397805 -1.5 -0.77937 -1.341951 -1.06066 -1.06066 
C -1.341951 -0.77937 -1.5 -0.397805 -1.5 0 
C -1.5 0.397805 -1.341951 0.77937 -1.06066 1.06066 
C -0.77937 1.341951 -0.397805 1.5 0 1.5 
z
"/>
    </defs>
    <g clip-path="url(#pff31089d7d)">
     <use xlink:href="#C2_0_265d22da93" x="233.569479" y="208.666255" style="fill: #33b07a"/>
    </g>
    <g clip-path="url(#pff31089d7d)">
     <use xlink:href="#C2_0_265d22da93" x="135.738031" y="200.476311" style="fill: #33b07a"/>
    </g>
    <g clip-path="url(#pff31089d7d)">
     <use xlink:href="#C2_0_265d22da93" x="131.603079" y="208.938426" style="fill: #33b07a"/>
    </g>
    <g clip-path="url(#pff31089d7d)">
     <use xlink:href="#C2_0_265d22da93" x="139.110866" y="210.148512" style="fill: #33b07a"/>
    </g>
    <g clip-path="url(#pff31089d7d)">
     <use xlink:href="#C2_0_265d22da93" x="142.147764" y="210.920281" style="fill: #33b07a"/>
    </g>
    <g clip-path="url(#pff31089d7d)">
     <use xlink:href="#C2_0_265d22da93" x="136.837569" y="204.364363" style="fill: #33b07a"/>
    </g>
    <g clip-path="url(#pff31089d7d)">
     <use xlink:href="#C2_0_265d22da93" x="139.453992" y="212.390241" style="fill: #33b07a"/>
    </g>
    <g clip-path="url(#pff31089d7d)">
     <use xlink:href="#C2_0_265d22da93" x="148.274311" y="210.60568" style="fill: #33b07a"/>
    </g>
    <g clip-path="url(#pff31089d7d)">
     <use xlink:href="#C2_0_265d22da93" x="148.556294" y="208.474597" style="fill: #33b07a"/>
    </g>
    <g clip-path="url(#pff31089d7d)">
     <use xlink:href="#C2_0_265d22da93" x="194.412015" y="207.13321" style="fill: #33b07a"/>
    </g>
    <g clip-path="url(#pff31089d7d)">
     <use xlink:href="#C2_0_265d22da93" x="186.206374" y="209.173394" style="fill: #33b07a"/>
    </g>
    <g clip-path="url(#pff31089d7d)">
     <use xlink:href="#C2_0_265d22da93" x="182.916077" y="212.190385" style="fill: #33b07a"/>
    </g>
    <g clip-path="url(#pff31089d7d)">
     <use xlink:href="#C2_0_265d22da93" x="245.463173" y="205.004016" style="fill: #33b07a"/>
    </g>
    <g clip-path="url(#pff31089d7d)">
     <use xlink:href="#C2_0_265d22da93" x="681.624091" y="199.949273" style="fill: #33b07a"/>
    </g>
    <g clip-path="url(#pff31089d7d)">
     <use xlink:href="#C2_0_265d22da93" x="191.353182" y="209.174685" style="fill: #33b07a"/>
    </g>
    <g clip-path="url(#pff31089d7d)">
     <use xlink:href="#C2_0_265d22da93" x="284.731417" y="205.325328" style="fill: #33b07a"/>
    </g>
    <g clip-path="url(#pff31089d7d)">
     <use xlink:href="#C2_0_265d22da93" x="223.986181" y="206.316367" style="fill: #33b07a"/>
    </g>
    <g clip-path="url(#pff31089d7d)">
     <use xlink:href="#C2_0_265d22da93" x="220.819914" y="204.910453" style="fill: #33b07a"/>
    </g>
    <g clip-path="url(#pff31089d7d)">
     <use xlink:href="#C2_0_265d22da93" x="132.800156" y="204.039642" style="fill: #33b07a"/>
    </g>
    <g clip-path="url(#pff31089d7d)">
     <use xlink:href="#C2_0_265d22da93" x="132.775196" y="210.582845" style="fill: #33b07a"/>
    </g>
    <g clip-path="url(#pff31089d7d)">
     <use xlink:href="#C2_0_265d22da93" x="133.993804" y="207.863808" style="fill: #33b07a"/>
    </g>
    <g clip-path="url(#pff31089d7d)">
     <use xlink:href="#C2_0_265d22da93" x="138.453062" y="206.312348" style="fill: #33b07a"/>
    </g>
    <g clip-path="url(#pff31089d7d)">
     <use xlink:href="#C2_0_265d22da93" x="138.722873" y="206.784202" style="fill: #33b07a"/>
    </g>
    <g clip-path="url(#pff31089d7d)">
     <use xlink:href="#C2_0_265d22da93" x="133.672473" y="199.000695" style="fill: #33b07a"/>
    </g>
    <g clip-path="url(#pff31089d7d)">
     <use xlink:href="#C2_0_265d22da93" x="139.655482" y="199.047293" style="fill: #33b07a"/>
    </g>
    <g clip-path="url(#pff31089d7d)">
     <use xlink:href="#C2_0_265d22da93" x="145.782593" y="200.606259" style="fill: #33b07a"/>
    </g>
    <g clip-path="url(#pff31089d7d)">
     <use xlink:href="#C2_0_265d22da93" x="152.221553" y="206.759137" style="fill: #33b07a"/>
    </g>
    <g clip-path="url(#pff31089d7d)">
     <use xlink:href="#C2_0_265d22da93" x="176.159771" y="206.526978" style="fill: #33b07a"/>
    </g>
    <g clip-path="url(#pff31089d7d)">
     <use xlink:href="#C2_0_265d22da93" x="185.072951" y="205.92913" style="fill: #33b07a"/>
    </g>
    <g clip-path="url(#pff31089d7d)">
     <use xlink:href="#C2_0_265d22da93" x="192.359651" y="203.467102" style="fill: #33b07a"/>
    </g>
   </g>
   <g id="PathCollection_4">
    <defs>
     <path id="C3_0_2a78d2ff23" d="M 0 1.5 
C 0.397805 1.5 0.77937 1.341951 1.06066 1.06066 
C 1.341951 0.77937 1.5 0.397805 1.5 -0 
C 1.5 -0.397805 1.341951 -0.77937 1.06066 -1.06066 
C 0.77937 -1.341951 0.397805 -1.5 0 -1.5 
C -0.397805 -1.5 -0.77937 -1.341951 -1.06066 -1.06066 
C -1.341951 -0.77937 -1.5 -0.397805 -1.5 0 
C -1.5 0.397805 -1.341951 0.77937 -1.06066 1.06066 
C -0.77937 1.341951 -0.397805 1.5 0 1.5 
z
"/>
    </defs>
    <g clip-path="url(#pff31089d7d)">
     <use xlink:href="#C3_0_2a78d2ff23" x="133.922815" y="273.897829" style="fill: #38a9c5"/>
    </g>
    <g clip-path="url(#pff31089d7d)">
     <use xlink:href="#C3_0_2a78d2ff23" x="130.105909" y="280.665992" style="fill: #38a9c5"/>
    </g>
    <g clip-path="url(#pff31089d7d)">
     <use xlink:href="#C3_0_2a78d2ff23" x="133.084209" y="277.216103" style="fill: #38a9c5"/>
    </g>
    <g clip-path="url(#pff31089d7d)">
     <use xlink:href="#C3_0_2a78d2ff23" x="136.326422" y="276.428999" style="fill: #38a9c5"/>
    </g>
    <g clip-path="url(#pff31089d7d)">
     <use xlink:href="#C3_0_2a78d2ff23" x="133.307035" y="279.397921" style="fill: #38a9c5"/>
    </g>
    <g clip-path="url(#pff31089d7d)">
     <use xlink:href="#C3_0_2a78d2ff23" x="135.072631" y="272.531392" style="fill: #38a9c5"/>
    </g>
    <g clip-path="url(#pff31089d7d)">
     <use xlink:href="#C3_0_2a78d2ff23" x="146.907746" y="275.792837" style="fill: #38a9c5"/>
    </g>
    <g clip-path="url(#pff31089d7d)">
     <use xlink:href="#C3_0_2a78d2ff23" x="141.292473" y="271.266292" style="fill: #38a9c5"/>
    </g>
    <g clip-path="url(#pff31089d7d)">
     <use xlink:href="#C3_0_2a78d2ff23" x="159.497719" y="276.794173" style="fill: #38a9c5"/>
    </g>
    <g clip-path="url(#pff31089d7d)">
     <use xlink:href="#C3_0_2a78d2ff23" x="165.79656" y="273.129636" style="fill: #38a9c5"/>
    </g>
    <g clip-path="url(#pff31089d7d)">
     <use xlink:href="#C3_0_2a78d2ff23" x="185.975876" y="281.580167" style="fill: #38a9c5"/>
    </g>
    <g clip-path="url(#pff31089d7d)">
     <use xlink:href="#C3_0_2a78d2ff23" x="207.867745" y="279.043543" style="fill: #38a9c5"/>
    </g>
    <g clip-path="url(#pff31089d7d)">
     <use xlink:href="#C3_0_2a78d2ff23" x="509.607877" y="279.752352" style="fill: #38a9c5"/>
    </g>
    <g clip-path="url(#pff31089d7d)">
     <use xlink:href="#C3_0_2a78d2ff23" x="217.651342" y="278.826621" style="fill: #38a9c5"/>
    </g>
    <g clip-path="url(#pff31089d7d)">
     <use xlink:href="#C3_0_2a78d2ff23" x="423.227527" y="275.4396" style="fill: #38a9c5"/>
    </g>
    <g clip-path="url(#pff31089d7d)">
     <use xlink:href="#C3_0_2a78d2ff23" x="228.024146" y="280.714634" style="fill: #38a9c5"/>
    </g>
    <g clip-path="url(#pff31089d7d)">
     <use xlink:href="#C3_0_2a78d2ff23" x="207.789798" y="281.387038" style="fill: #38a9c5"/>
    </g>
    <g clip-path="url(#pff31089d7d)">
     <use xlink:href="#C3_0_2a78d2ff23" x="251.234577" y="272.86138" style="fill: #38a9c5"/>
    </g>
    <g clip-path="url(#pff31089d7d)">
     <use xlink:href="#C3_0_2a78d2ff23" x="134.194346" y="275.661815" style="fill: #38a9c5"/>
    </g>
    <g clip-path="url(#pff31089d7d)">
     <use xlink:href="#C3_0_2a78d2ff23" x="130.743184" y="283.543379" style="fill: #38a9c5"/>
    </g>
    <g clip-path="url(#pff31089d7d)">
     <use xlink:href="#C3_0_2a78d2ff23" x="138.974995" y="275.859716" style="fill: #38a9c5"/>
    </g>
    <g clip-path="url(#pff31089d7d)">
     <use xlink:href="#C3_0_2a78d2ff23" x="136.236948" y="275.025883" style="fill: #38a9c5"/>
    </g>
    <g clip-path="url(#pff31089d7d)">
     <use xlink:href="#C3_0_2a78d2ff23" x="130.689001" y="274.755766" style="fill: #38a9c5"/>
    </g>
    <g clip-path="url(#pff31089d7d)">
     <use xlink:href="#C3_0_2a78d2ff23" x="134.746502" y="283.988918" style="fill: #38a9c5"/>
    </g>
    <g clip-path="url(#pff31089d7d)">
     <use xlink:href="#C3_0_2a78d2ff23" x="142.405749" y="278.082062" style="fill: #38a9c5"/>
    </g>
    <g clip-path="url(#pff31089d7d)">
     <use xlink:href="#C3_0_2a78d2ff23" x="151.48924" y="281.089217" style="fill: #38a9c5"/>
    </g>
    <g clip-path="url(#pff31089d7d)">
     <use xlink:href="#C3_0_2a78d2ff23" x="154.026213" y="283.289293" style="fill: #38a9c5"/>
    </g>
    <g clip-path="url(#pff31089d7d)">
     <use xlink:href="#C3_0_2a78d2ff23" x="135.074259" y="271.085619" style="fill: #38a9c5"/>
    </g>
    <g clip-path="url(#pff31089d7d)">
     <use xlink:href="#C3_0_2a78d2ff23" x="136.54228" y="283.304105" style="fill: #38a9c5"/>
    </g>
    <g clip-path="url(#pff31089d7d)">
     <use xlink:href="#C3_0_2a78d2ff23" x="138.280719" y="285.151191" style="fill: #38a9c5"/>
    </g>
   </g>
   <g id="PathCollection_5">
    <defs>
     <path id="C4_0_a783fbabe2" d="M 0 1.5 
C 0.397805 1.5 0.77937 1.341951 1.06066 1.06066 
C 1.341951 0.77937 1.5 0.397805 1.5 -0 
C 1.5 -0.397805 1.341951 -0.77937 1.06066 -1.06066 
C 0.77937 -1.341951 0.397805 -1.5 0 -1.5 
C -0.397805 -1.5 -0.77937 -1.341951 -1.06066 -1.06066 
C -1.341951 -0.77937 -1.5 -0.397805 -1.5 0 
C -1.5 0.397805 -1.341951 0.77937 -1.06066 1.06066 
C -0.77937 1.341951 -0.397805 1.5 0 1.5 
z
"/>
    </defs>
    <g clip-path="url(#pff31089d7d)">
     <use xlink:href="#C4_0_a783fbabe2" x="223.167082" y="357.842472" style="fill: #cc7af4"/>
    </g>
    <g clip-path="url(#pff31089d7d)">
     <use xlink:href="#C4_0_a783fbabe2" x="137.199444" y="357.764242" style="fill: #cc7af4"/>
    </g>
    <g clip-path="url(#pff31089d7d)">
     <use xlink:href="#C4_0_a783fbabe2" x="130.469177" y="357.270984" style="fill: #cc7af4"/>
    </g>
    <g clip-path="url(#pff31089d7d)">
     <use xlink:href="#C4_0_a783fbabe2" x="133.999362" y="354.548931" style="fill: #cc7af4"/>
    </g>
    <g clip-path="url(#pff31089d7d)">
     <use xlink:href="#C4_0_a783fbabe2" x="137.611738" y="354.556025" style="fill: #cc7af4"/>
    </g>
    <g clip-path="url(#pff31089d7d)">
     <use xlink:href="#C4_0_a783fbabe2" x="133.928134" y="346.566578" style="fill: #cc7af4"/>
    </g>
    <g clip-path="url(#pff31089d7d)">
     <use xlink:href="#C4_0_a783fbabe2" x="150.645227" y="356.421138" style="fill: #cc7af4"/>
    </g>
    <g clip-path="url(#pff31089d7d)">
     <use xlink:href="#C4_0_a783fbabe2" x="144.300781" y="357.852109" style="fill: #cc7af4"/>
    </g>
    <g clip-path="url(#pff31089d7d)">
     <use xlink:href="#C4_0_a783fbabe2" x="142.465771" y="345.896603" style="fill: #cc7af4"/>
    </g>
    <g clip-path="url(#pff31089d7d)">
     <use xlink:href="#C4_0_a783fbabe2" x="173.750676" y="351.152028" style="fill: #cc7af4"/>
    </g>
    <g clip-path="url(#pff31089d7d)">
     <use xlink:href="#C4_0_a783fbabe2" x="156.948598" y="355.21652" style="fill: #cc7af4"/>
    </g>
    <g clip-path="url(#pff31089d7d)">
     <use xlink:href="#C4_0_a783fbabe2" x="157.506996" y="349.329382" style="fill: #cc7af4"/>
    </g>
    <g clip-path="url(#pff31089d7d)">
     <use xlink:href="#C4_0_a783fbabe2" x="212.53284" y="350.665" style="fill: #cc7af4"/>
    </g>
    <g clip-path="url(#pff31089d7d)">
     <use xlink:href="#C4_0_a783fbabe2" x="247.279056" y="350.916558" style="fill: #cc7af4"/>
    </g>
    <g clip-path="url(#pff31089d7d)">
     <use xlink:href="#C4_0_a783fbabe2" x="235.320708" y="356.284138" style="fill: #cc7af4"/>
    </g>
    <g clip-path="url(#pff31089d7d)">
     <use xlink:href="#C4_0_a783fbabe2" x="198.841944" y="353.27091" style="fill: #cc7af4"/>
    </g>
    <g clip-path="url(#pff31089d7d)">
     <use xlink:href="#C4_0_a783fbabe2" x="218.018571" y="356.421544" style="fill: #cc7af4"/>
    </g>
    <g clip-path="url(#pff31089d7d)">
     <use xlink:href="#C4_0_a783fbabe2" x="238.295637" y="357.531151" style="fill: #cc7af4"/>
    </g>
    <g clip-path="url(#pff31089d7d)">
     <use xlink:href="#C4_0_a783fbabe2" x="173.190175" y="354.353869" style="fill: #cc7af4"/>
    </g>
    <g clip-path="url(#pff31089d7d)">
     <use xlink:href="#C4_0_a783fbabe2" x="185.932145" y="353.964748" style="fill: #cc7af4"/>
    </g>
    <g clip-path="url(#pff31089d7d)">
     <use xlink:href="#C4_0_a783fbabe2" x="146.458221" y="346.082793" style="fill: #cc7af4"/>
    </g>
    <g clip-path="url(#pff31089d7d)">
     <use xlink:href="#C4_0_a783fbabe2" x="138.562674" y="350.708875" style="fill: #cc7af4"/>
    </g>
    <g clip-path="url(#pff31089d7d)">
     <use xlink:href="#C4_0_a783fbabe2" x="132.441833" y="345.769188" style="fill: #cc7af4"/>
    </g>
    <g clip-path="url(#pff31089d7d)">
     <use xlink:href="#C4_0_a783fbabe2" x="134.018443" y="346.521883" style="fill: #cc7af4"/>
    </g>
    <g clip-path="url(#pff31089d7d)">
     <use xlink:href="#C4_0_a783fbabe2" x="145.983604" y="345.336349" style="fill: #cc7af4"/>
    </g>
    <g clip-path="url(#pff31089d7d)">
     <use xlink:href="#C4_0_a783fbabe2" x="144.817867" y="351.337622" style="fill: #cc7af4"/>
    </g>
    <g clip-path="url(#pff31089d7d)">
     <use xlink:href="#C4_0_a783fbabe2" x="149.881477" y="348.590143" style="fill: #cc7af4"/>
    </g>
    <g clip-path="url(#pff31089d7d)">
     <use xlink:href="#C4_0_a783fbabe2" x="136.337024" y="352.559205" style="fill: #cc7af4"/>
    </g>
    <g clip-path="url(#pff31089d7d)">
     <use xlink:href="#C4_0_a783fbabe2" x="135.594009" y="353.67226" style="fill: #cc7af4"/>
    </g>
    <g clip-path="url(#pff31089d7d)">
     <use xlink:href="#C4_0_a783fbabe2" x="134.921133" y="356.262955" style="fill: #cc7af4"/>
    </g>
   </g>
   <g id="PolyCollection_1">
    <defs>
     <path id="mac9c84c489" d="M 137.01198 -385.831229 
L 137.01198 -393.238055 
L 140.862558 -394.138564 
L 144.713137 -394.898577 
L 148.563716 -395.473939 
L 152.414295 -395.836257 
L 156.264873 -395.975909 
L 160.115452 -395.902116 
L 163.966031 -395.640181 
L 167.816609 -395.226587 
L 171.667188 -394.703041 
L 175.517767 -394.110615 
L 179.368346 -393.485029 
L 183.218924 -392.853683 
L 187.069503 -392.234663 
L 190.920082 -391.637491 
L 194.77066 -391.065125 
L 198.621239 -390.51658 
L 202.471818 -389.989531 
L 206.322397 -389.482429 
L 210.172975 -388.995819 
L 214.023554 -388.53278 
L 217.874133 -388.098604 
L 221.724711 -387.699931 
L 225.57529 -387.343641 
L 229.425869 -387.035764 
L 233.276448 -386.780608 
L 237.127026 -386.5802 
L 240.977605 -386.434039 
L 244.828184 -386.339097 
L 248.678762 -386.290002 
L 252.529341 -386.279327 
L 256.37992 -386.297993 
L 260.230499 -386.335796 
L 264.081077 -386.382099 
L 267.931656 -386.426676 
L 271.782235 -386.460655 
L 275.632813 -386.477414 
L 279.483392 -386.473268 
L 283.333971 -386.447793 
L 287.18455 -386.403695 
L 291.035128 -386.346247 
L 294.885707 -386.282408 
L 298.736286 -386.219784 
L 302.586864 -386.165642 
L 306.437443 -386.126078 
L 310.288022 -386.105434 
L 314.138601 -386.105931 
L 317.989179 -386.127516 
L 321.839758 -386.167858 
L 325.690337 -386.222518 
L 329.540915 -386.285315 
L 333.391494 -386.348921 
L 337.242073 -386.405682 
L 341.092652 -386.448606 
L 344.94323 -386.47236 
L 348.793809 -386.474106 
L 352.644388 -386.453997 
L 356.494966 -386.41521 
L 360.345545 -386.36352 
L 364.196124 -386.306505 
L 368.046703 -386.252536 
L 371.897281 -386.20976 
L 375.74786 -386.185189 
L 379.598439 -386.184014 
L 383.449017 -386.20915 
L 387.299596 -386.260988 
L 391.150175 -386.337341 
L 395.000754 -386.433573 
L 398.851332 -386.542907 
L 402.701911 -386.656942 
L 406.55249 -386.766362 
L 410.403068 -386.861812 
L 414.253647 -386.934837 
L 418.104226 -386.97878 
L 421.954805 -386.989507 
L 425.805383 -386.965849 
L 429.655962 -386.909684 
L 433.506541 -386.82564 
L 437.357119 -386.720473 
L 441.207698 -386.602203 
L 445.058277 -386.479159 
L 448.908856 -386.359088 
L 452.759434 -386.248459 
L 456.610013 -386.152064 
L 460.460592 -386.072945 
L 464.31117 -386.012606 
L 468.161749 -385.971409 
L 472.012328 -385.949027 
L 475.862907 -385.944818 
L 479.713485 -385.958025 
L 483.564064 -385.987738 
L 487.414643 -386.032653 
L 491.265221 -386.09071 
L 495.1158 -386.158732 
L 498.966379 -386.232233 
L 502.816958 -386.305512 
L 506.667536 -386.372089 
L 510.518115 -386.425461 
L 514.368694 -386.460026 
L 518.219272 -386.471979 
L 518.219272 -385.831229 
L 518.219272 -385.831229 
L 514.368694 -385.831229 
L 510.518115 -385.831229 
L 506.667536 -385.831229 
L 502.816958 -385.831229 
L 498.966379 -385.831229 
L 495.1158 -385.831229 
L 491.265221 -385.831229 
L 487.414643 -385.831229 
L 483.564064 -385.831229 
L 479.713485 -385.831229 
L 475.862907 -385.831229 
L 472.012328 -385.831229 
L 468.161749 -385.831229 
L 464.31117 -385.831229 
L 460.460592 -385.831229 
L 456.610013 -385.831229 
L 452.759434 -385.831229 
L 448.908856 -385.831229 
L 445.058277 -385.831229 
L 441.207698 -385.831229 
L 437.357119 -385.831229 
L 433.506541 -385.831229 
L 429.655962 -385.831229 
L 425.805383 -385.831229 
L 421.954805 -385.831229 
L 418.104226 -385.831229 
L 414.253647 -385.831229 
L 410.403068 -385.831229 
L 406.55249 -385.831229 
L 402.701911 -385.831229 
L 398.851332 -385.831229 
L 395.000754 -385.831229 
L 391.150175 -385.831229 
L 387.299596 -385.831229 
L 383.449017 -385.831229 
L 379.598439 -385.831229 
L 375.74786 -385.831229 
L 371.897281 -385.831229 
L 368.046703 -385.831229 
L 364.196124 -385.831229 
L 360.345545 -385.831229 
L 356.494966 -385.831229 
L 352.644388 -385.831229 
L 348.793809 -385.831229 
L 344.94323 -385.831229 
L 341.092652 -385.831229 
L 337.242073 -385.831229 
L 333.391494 -385.831229 
L 329.540915 -385.831229 
L 325.690337 -385.831229 
L 321.839758 -385.831229 
L 317.989179 -385.831229 
L 314.138601 -385.831229 
L 310.288022 -385.831229 
L 306.437443 -385.831229 
L 302.586864 -385.831229 
L 298.736286 -385.831229 
L 294.885707 -385.831229 
L 291.035128 -385.831229 
L 287.18455 -385.831229 
L 283.333971 -385.831229 
L 279.483392 -385.831229 
L 275.632813 -385.831229 
L 271.782235 -385.831229 
L 267.931656 -385.831229 
L 264.081077 -385.831229 
L 260.230499 -385.831229 
L 256.37992 -385.831229 
L 252.529341 -385.831229 
L 248.678762 -385.831229 
L 244.828184 -385.831229 
L 240.977605 -385.831229 
L 237.127026 -385.831229 
L 233.276448 -385.831229 
L 229.425869 -385.831229 
L 225.57529 -385.831229 
L 221.724711 -385.831229 
L 217.874133 -385.831229 
L 214.023554 -385.831229 
L 210.172975 -385.831229 
L 206.322397 -385.831229 
L 202.471818 -385.831229 
L 198.621239 -385.831229 
L 194.77066 -385.831229 
L 190.920082 -385.831229 
L 187.069503 -385.831229 
L 183.218924 -385.831229 
L 179.368346 -385.831229 
L 175.517767 -385.831229 
L 171.667188 -385.831229 
L 167.816609 -385.831229 
L 163.966031 -385.831229 
L 160.115452 -385.831229 
L 156.264873 -385.831229 
L 152.414295 -385.831229 
L 148.563716 -385.831229 
L 144.713137 -385.831229 
L 140.862558 -385.831229 
L 137.01198 -385.831229 
z
" style="stroke: #434343; stroke-opacity: 0.65"/>
    </defs>
    <g clip-path="url(#pff31089d7d)">
     <use xlink:href="#mac9c84c489" x="0" y="432" style="fill: #e68193; fill-opacity: 0.65; stroke: #434343; stroke-opacity: 0.65"/>
    </g>
   </g>
   <g id="PolyCollection_2">
    <defs>
     <path id="mb6b48eb152" d="M 130.588889 -313.279904 
L 130.588889 -326.561 
L 132.871569 -328.229449 
L 135.15425 -329.558044 
L 137.43693 -330.430766 
L 139.71961 -330.76947 
L 142.002291 -330.545332 
L 144.284971 -329.782919 
L 146.567651 -328.556197 
L 148.850331 -326.977486 
L 151.133012 -325.181727 
L 153.415692 -323.309186 
L 155.698372 -321.489693 
L 157.981052 -319.830793 
L 160.263733 -318.411038 
L 162.546413 -317.278392 
L 164.829093 -316.452672 
L 167.111774 -315.930392 
L 169.394454 -315.69029 
L 171.677134 -315.698277 
L 173.959814 -315.911171 
L 176.242495 -316.279286 
L 178.525175 -316.748447 
L 180.807855 -317.262156 
L 183.090535 -317.764452 
L 185.373216 -318.203595 
L 187.655896 -318.536187 
L 189.938576 -318.730995 
L 192.221257 -318.771603 
L 194.503937 -318.657259 
L 196.786617 -318.4017 
L 199.069297 -318.030256 
L 201.351978 -317.575908 
L 203.634658 -317.075147 
L 205.917338 -316.564339 
L 208.200018 -316.076975 
L 210.482699 -315.641823 
L 212.765379 -315.281743 
L 215.048059 -315.0128 
L 217.33074 -314.843434 
L 219.61342 -314.773672 
L 221.8961 -314.794606 
L 224.17878 -314.888546 
L 226.461461 -315.030244 
L 228.744141 -315.189415 
L 231.026821 -315.334434 
L 233.309501 -315.436716 
L 235.592182 -315.474942 
L 237.874862 -315.438262 
L 240.157542 -315.327707 
L 242.440223 -315.155507 
L 244.722903 -314.942498 
L 247.005583 -314.714229 
L 249.288263 -314.496667 
L 251.570944 -314.31231 
L 253.853624 -314.177354 
L 256.136304 -314.10017 
L 258.418984 -314.081109 
L 260.701665 -314.113422 
L 262.984345 -314.185036 
L 265.267025 -314.280875 
L 267.549706 -314.385416 
L 269.832386 -314.485093 
L 272.115066 -314.570141 
L 274.397746 -314.635504 
L 276.680427 -314.680594 
L 278.963107 -314.70798 
L 281.245787 -314.721388 
L 283.528468 -314.723651 
L 285.811148 -314.715257 
L 288.093828 -314.693972 
L 290.376508 -314.655618 
L 292.659189 -314.595709 
L 294.941869 -314.51133 
L 297.224549 -314.40262 
L 299.507229 -314.273359 
L 301.78991 -314.13053 
L 304.07259 -313.983048 
L 306.35527 -313.840089 
L 308.637951 -313.709537 
L 310.920631 -313.596919 
L 313.203311 -313.505015 
L 315.485991 -313.434104 
L 317.768672 -313.382656 
L 320.051352 -313.348221 
L 322.334032 -313.328294 
L 324.616712 -313.321014 
L 326.899393 -313.3256 
L 329.182073 -313.342523 
L 331.464753 -313.373375 
L 333.747434 -313.420467 
L 336.030114 -313.486132 
L 338.312794 -313.57183 
L 340.595474 -313.677152 
L 342.878155 -313.798947 
L 345.160835 -313.930837 
L 347.443515 -314.063348 
L 349.726195 -314.184808 
L 352.008876 -314.282935 
L 354.291556 -314.346848 
L 356.574236 -314.369045 
L 356.574236 -313.279904 
L 356.574236 -313.279904 
L 354.291556 -313.279904 
L 352.008876 -313.279904 
L 349.726195 -313.279904 
L 347.443515 -313.279904 
L 345.160835 -313.279904 
L 342.878155 -313.279904 
L 340.595474 -313.279904 
L 338.312794 -313.279904 
L 336.030114 -313.279904 
L 333.747434 -313.279904 
L 331.464753 -313.279904 
L 329.182073 -313.279904 
L 326.899393 -313.279904 
L 324.616712 -313.279904 
L 322.334032 -313.279904 
L 320.051352 -313.279904 
L 317.768672 -313.279904 
L 315.485991 -313.279904 
L 313.203311 -313.279904 
L 310.920631 -313.279904 
L 308.637951 -313.279904 
L 306.35527 -313.279904 
L 304.07259 -313.279904 
L 301.78991 -313.279904 
L 299.507229 -313.279904 
L 297.224549 -313.279904 
L 294.941869 -313.279904 
L 292.659189 -313.279904 
L 290.376508 -313.279904 
L 288.093828 -313.279904 
L 285.811148 -313.279904 
L 283.528468 -313.279904 
L 281.245787 -313.279904 
L 278.963107 -313.279904 
L 276.680427 -313.279904 
L 274.397746 -313.279904 
L 272.115066 -313.279904 
L 269.832386 -313.279904 
L 267.549706 -313.279904 
L 265.267025 -313.279904 
L 262.984345 -313.279904 
L 260.701665 -313.279904 
L 258.418984 -313.279904 
L 256.136304 -313.279904 
L 253.853624 -313.279904 
L 251.570944 -313.279904 
L 249.288263 -313.279904 
L 247.005583 -313.279904 
L 244.722903 -313.279904 
L 242.440223 -313.279904 
L 240.157542 -313.279904 
L 237.874862 -313.279904 
L 235.592182 -313.279904 
L 233.309501 -313.279904 
L 231.026821 -313.279904 
L 228.744141 -313.279904 
L 226.461461 -313.279904 
L 224.17878 -313.279904 
L 221.8961 -313.279904 
L 219.61342 -313.279904 
L 217.33074 -313.279904 
L 215.048059 -313.279904 
L 212.765379 -313.279904 
L 210.482699 -313.279904 
L 208.200018 -313.279904 
L 205.917338 -313.279904 
L 203.634658 -313.279904 
L 201.351978 -313.279904 
L 199.069297 -313.279904 
L 196.786617 -313.279904 
L 194.503937 -313.279904 
L 192.221257 -313.279904 
L 189.938576 -313.279904 
L 187.655896 -313.279904 
L 185.373216 -313.279904 
L 183.090535 -313.279904 
L 180.807855 -313.279904 
L 178.525175 -313.279904 
L 176.242495 -313.279904 
L 173.959814 -313.279904 
L 171.677134 -313.279904 
L 169.394454 -313.279904 
L 167.111774 -313.279904 
L 164.829093 -313.279904 
L 162.546413 -313.279904 
L 160.263733 -313.279904 
L 157.981052 -313.279904 
L 155.698372 -313.279904 
L 153.415692 -313.279904 
L 151.133012 -313.279904 
L 148.850331 -313.279904 
L 146.567651 -313.279904 
L 144.284971 -313.279904 
L 142.002291 -313.279904 
L 139.71961 -313.279904 
L 137.43693 -313.279904 
L 135.15425 -313.279904 
L 132.871569 -313.279904 
L 130.588889 -313.279904 
z
" style="stroke: #434343; stroke-opacity: 0.65"/>
    </defs>
    <g clip-path="url(#pff31089d7d)">
     <use xlink:href="#mb6b48eb152" x="0" y="432" style="fill: #9e9241; fill-opacity: 0.65; stroke: #434343; stroke-opacity: 0.65"/>
    </g>
   </g>
   <g id="PolyCollection_3">
    <defs>
     <path id="mc9eb16de23" d="M 131.603079 -240.728578 
L 131.603079 -249.739181 
L 137.158846 -250.404584 
L 142.714614 -250.519769 
L 148.270382 -250.12792 
L 153.82615 -249.37918 
L 159.381918 -248.477716 
L 164.937685 -247.613573 
L 170.493453 -246.907706 
L 176.049221 -246.390746 
L 181.604989 -246.019202 
L 187.160757 -245.715955 
L 192.716524 -245.41334 
L 198.272292 -245.079741 
L 203.82806 -244.721874 
L 209.383828 -244.367862 
L 214.939596 -244.044291 
L 220.495363 -243.760325 
L 226.051131 -243.505333 
L 231.606899 -243.258105 
L 237.162667 -243.000354 
L 242.718435 -242.726801 
L 248.274202 -242.447555 
L 253.82997 -242.182943 
L 259.385738 -241.954216 
L 264.941506 -241.774608 
L 270.497274 -241.644395 
L 276.053041 -241.551553 
L 281.608809 -241.477189 
L 287.164577 -241.403053 
L 292.720345 -241.317802 
L 298.276113 -241.21962 
L 303.83188 -241.114725 
L 309.387648 -241.013196 
L 314.943416 -240.924426 
L 320.499184 -240.854099 
L 326.054952 -240.803408 
L 331.610719 -240.770042 
L 337.166487 -240.749923 
L 342.722255 -240.738784 
L 348.278023 -240.73311 
L 353.833791 -240.730447 
L 359.389558 -240.729294 
L 364.945326 -240.728833 
L 370.501094 -240.728662 
L 376.056862 -240.728604 
L 381.61263 -240.728586 
L 387.168397 -240.72858 
L 392.724165 -240.728579 
L 398.279933 -240.728578 
L 403.835701 -240.728578 
L 409.391469 -240.728578 
L 414.947236 -240.728578 
L 420.503004 -240.728578 
L 426.058772 -240.728578 
L 431.61454 -240.728578 
L 437.170308 -240.728578 
L 442.726075 -240.728578 
L 448.281843 -240.728578 
L 453.837611 -240.728578 
L 459.393379 -240.728578 
L 464.949147 -240.728578 
L 470.504914 -240.728578 
L 476.060682 -240.728578 
L 481.61645 -240.728578 
L 487.172218 -240.728578 
L 492.727986 -240.728578 
L 498.283753 -240.728578 
L 503.839521 -240.728578 
L 509.395289 -240.728578 
L 514.951057 -240.728578 
L 520.506825 -240.728578 
L 526.062592 -240.728578 
L 531.61836 -240.728578 
L 537.174128 -240.728578 
L 542.729896 -240.728578 
L 548.285664 -240.728578 
L 553.841431 -240.728578 
L 559.397199 -240.728578 
L 564.952967 -240.728578 
L 570.508735 -240.728579 
L 576.064503 -240.728579 
L 581.62027 -240.728582 
L 587.176038 -240.728591 
L 592.731806 -240.728622 
L 598.287574 -240.728716 
L 603.843342 -240.728982 
L 609.399109 -240.729678 
L 614.954877 -240.731357 
L 620.510645 -240.735101 
L 626.066413 -240.742794 
L 631.622181 -240.757344 
L 637.177948 -240.782625 
L 642.733716 -240.822863 
L 648.289484 -240.881295 
L 653.845252 -240.958253 
L 659.40102 -241.04929 
L 664.956788 -241.144388 
L 670.512555 -241.229133 
L 676.068323 -241.288059 
L 681.624091 -241.309205 
L 681.624091 -240.728578 
L 681.624091 -240.728578 
L 676.068323 -240.728578 
L 670.512555 -240.728578 
L 664.956788 -240.728578 
L 659.40102 -240.728578 
L 653.845252 -240.728578 
L 648.289484 -240.728578 
L 642.733716 -240.728578 
L 637.177948 -240.728578 
L 631.622181 -240.728578 
L 626.066413 -240.728578 
L 620.510645 -240.728578 
L 614.954877 -240.728578 
L 609.399109 -240.728578 
L 603.843342 -240.728578 
L 598.287574 -240.728578 
L 592.731806 -240.728578 
L 587.176038 -240.728578 
L 581.62027 -240.728578 
L 576.064503 -240.728578 
L 570.508735 -240.728578 
L 564.952967 -240.728578 
L 559.397199 -240.728578 
L 553.841431 -240.728578 
L 548.285664 -240.728578 
L 542.729896 -240.728578 
L 537.174128 -240.728578 
L 531.61836 -240.728578 
L 526.062592 -240.728578 
L 520.506825 -240.728578 
L 514.951057 -240.728578 
L 509.395289 -240.728578 
L 503.839521 -240.728578 
L 498.283753 -240.728578 
L 492.727986 -240.728578 
L 487.172218 -240.728578 
L 481.61645 -240.728578 
L 476.060682 -240.728578 
L 470.504914 -240.728578 
L 464.949147 -240.728578 
L 459.393379 -240.728578 
L 453.837611 -240.728578 
L 448.281843 -240.728578 
L 442.726075 -240.728578 
L 437.170308 -240.728578 
L 431.61454 -240.728578 
L 426.058772 -240.728578 
L 420.503004 -240.728578 
L 414.947236 -240.728578 
L 409.391469 -240.728578 
L 403.835701 -240.728578 
L 398.279933 -240.728578 
L 392.724165 -240.728578 
L 387.168397 -240.728578 
L 381.61263 -240.728578 
L 376.056862 -240.728578 
L 370.501094 -240.728578 
L 364.945326 -240.728578 
L 359.389558 -240.728578 
L 353.833791 -240.728578 
L 348.278023 -240.728578 
L 342.722255 -240.728578 
L 337.166487 -240.728578 
L 331.610719 -240.728578 
L 326.054952 -240.728578 
L 320.499184 -240.728578 
L 314.943416 -240.728578 
L 309.387648 -240.728578 
L 303.83188 -240.728578 
L 298.276113 -240.728578 
L 292.720345 -240.728578 
L 287.164577 -240.728578 
L 281.608809 -240.728578 
L 276.053041 -240.728578 
L 270.497274 -240.728578 
L 264.941506 -240.728578 
L 259.385738 -240.728578 
L 253.82997 -240.728578 
L 248.274202 -240.728578 
L 242.718435 -240.728578 
L 237.162667 -240.728578 
L 231.606899 -240.728578 
L 226.051131 -240.728578 
L 220.495363 -240.728578 
L 214.939596 -240.728578 
L 209.383828 -240.728578 
L 203.82806 -240.728578 
L 198.272292 -240.728578 
L 192.716524 -240.728578 
L 187.160757 -240.728578 
L 181.604989 -240.728578 
L 176.049221 -240.728578 
L 170.493453 -240.728578 
L 164.937685 -240.728578 
L 159.381918 -240.728578 
L 153.82615 -240.728578 
L 148.270382 -240.728578 
L 142.714614 -240.728578 
L 137.158846 -240.728578 
L 131.603079 -240.728578 
z
" style="stroke: #434343; stroke-opacity: 0.65"/>
    </defs>
    <g clip-path="url(#pff31089d7d)">
     <use xlink:href="#mc9eb16de23" x="0" y="432" style="fill: #43a178; fill-opacity: 0.65; stroke: #434343; stroke-opacity: 0.65"/>
    </g>
   </g>
   <g id="PolyCollection_4">
    <defs>
     <path id="m113eff1f1b" d="M 130.105909 -168.177253 
L 130.105909 -180.400194 
L 133.939262 -181.244055 
L 137.772616 -181.579302 
L 141.605969 -181.385928 
L 145.439322 -180.710662 
L 149.272675 -179.654379 
L 153.106028 -178.349888 
L 156.939382 -176.936803 
L 160.772735 -175.540006 
L 164.606088 -174.255834 
L 168.439441 -173.147035 
L 172.272794 -172.244863 
L 176.106148 -171.55538 
L 179.939501 -171.066962 
L 183.772854 -170.756897 
L 187.606207 -170.596106 
L 191.43956 -170.552037 
L 195.272914 -170.590374 
L 199.106267 -170.676408 
L 202.93962 -170.77676 
L 206.772973 -170.861676 
L 210.606326 -170.907649 
L 214.43968 -170.899722 
L 218.273033 -170.832726 
L 222.106386 -170.710902 
L 225.939739 -170.545838 
L 229.773092 -170.353148 
L 233.606446 -170.148731 
L 237.439799 -169.945556 
L 241.273152 -169.751743 
L 245.106505 -169.570299 
L 248.939859 -169.400318 
L 252.773212 -169.239062 
L 256.606565 -169.084099 
L 260.439918 -168.934789 
L 264.273271 -168.792722 
L 268.106625 -168.661174 
L 271.939978 -168.543959 
L 275.773331 -168.4442 
L 279.606684 -168.363469 
L 283.440037 -168.301501 
L 287.273391 -168.256439 
L 291.106744 -168.225411 
L 294.940097 -168.20518 
L 298.77345 -168.192687 
L 302.606803 -168.185379 
L 306.440157 -168.181328 
L 310.27351 -168.179199 
L 314.106863 -168.178138 
L 317.940216 -168.177636 
L 321.773569 -168.177411 
L 325.606923 -168.177315 
L 329.440276 -168.177276 
L 333.273629 -168.177262 
L 337.106982 -168.177258 
L 340.940335 -168.177262 
L 344.773689 -168.177275 
L 348.607042 -168.177311 
L 352.440395 -168.177401 
L 356.273748 -168.177614 
L 360.107102 -168.17809 
L 363.940455 -168.179097 
L 367.773808 -168.181122 
L 371.607161 -168.184977 
L 375.440514 -168.191929 
L 379.273868 -168.203792 
L 383.107221 -168.222925 
L 386.940574 -168.252057 
L 390.773927 -168.293852 
L 394.60728 -168.350221 
L 398.440634 -168.421448 
L 402.273987 -168.505354 
L 406.10734 -168.596798 
L 409.940693 -168.687817 
L 413.774046 -168.768571 
L 417.6074 -168.829021 
L 421.440753 -168.860952 
L 425.274106 -168.859809 
L 429.107459 -168.825761 
L 432.940812 -168.763667 
L 436.774166 -168.681947 
L 440.607519 -168.590737 
L 444.440872 -168.499892 
L 448.274225 -168.417396 
L 452.107578 -168.348543 
L 455.940932 -168.295946 
L 459.774285 -168.260192 
L 463.607638 -168.240807 
L 467.440991 -168.237179 
L 471.274345 -168.249163 
L 475.107698 -168.277201 
L 478.941051 -168.321932 
L 482.774404 -168.383389 
L 486.607757 -168.460013 
L 490.441111 -168.547805 
L 494.274464 -168.639986 
L 498.107817 -168.727418 
L 501.94117 -168.79986 
L 505.774523 -168.847839 
L 509.607877 -168.86464 
L 509.607877 -168.177253 
L 509.607877 -168.177253 
L 505.774523 -168.177253 
L 501.94117 -168.177253 
L 498.107817 -168.177253 
L 494.274464 -168.177253 
L 490.441111 -168.177253 
L 486.607757 -168.177253 
L 482.774404 -168.177253 
L 478.941051 -168.177253 
L 475.107698 -168.177253 
L 471.274345 -168.177253 
L 467.440991 -168.177253 
L 463.607638 -168.177253 
L 459.774285 -168.177253 
L 455.940932 -168.177253 
L 452.107578 -168.177253 
L 448.274225 -168.177253 
L 444.440872 -168.177253 
L 440.607519 -168.177253 
L 436.774166 -168.177253 
L 432.940812 -168.177253 
L 429.107459 -168.177253 
L 425.274106 -168.177253 
L 421.440753 -168.177253 
L 417.6074 -168.177253 
L 413.774046 -168.177253 
L 409.940693 -168.177253 
L 406.10734 -168.177253 
L 402.273987 -168.177253 
L 398.440634 -168.177253 
L 394.60728 -168.177253 
L 390.773927 -168.177253 
L 386.940574 -168.177253 
L 383.107221 -168.177253 
L 379.273868 -168.177253 
L 375.440514 -168.177253 
L 371.607161 -168.177253 
L 367.773808 -168.177253 
L 363.940455 -168.177253 
L 360.107102 -168.177253 
L 356.273748 -168.177253 
L 352.440395 -168.177253 
L 348.607042 -168.177253 
L 344.773689 -168.177253 
L 340.940335 -168.177253 
L 337.106982 -168.177253 
L 333.273629 -168.177253 
L 329.440276 -168.177253 
L 325.606923 -168.177253 
L 321.773569 -168.177253 
L 317.940216 -168.177253 
L 314.106863 -168.177253 
L 310.27351 -168.177253 
L 306.440157 -168.177253 
L 302.606803 -168.177253 
L 298.77345 -168.177253 
L 294.940097 -168.177253 
L 291.106744 -168.177253 
L 287.273391 -168.177253 
L 283.440037 -168.177253 
L 279.606684 -168.177253 
L 275.773331 -168.177253 
L 271.939978 -168.177253 
L 268.106625 -168.177253 
L 264.273271 -168.177253 
L 260.439918 -168.177253 
L 256.606565 -168.177253 
L 252.773212 -168.177253 
L 248.939859 -168.177253 
L 245.106505 -168.177253 
L 241.273152 -168.177253 
L 237.439799 -168.177253 
L 233.606446 -168.177253 
L 229.773092 -168.177253 
L 225.939739 -168.177253 
L 222.106386 -168.177253 
L 218.273033 -168.177253 
L 214.43968 -168.177253 
L 210.606326 -168.177253 
L 206.772973 -168.177253 
L 202.93962 -168.177253 
L 199.106267 -168.177253 
L 195.272914 -168.177253 
L 191.43956 -168.177253 
L 187.606207 -168.177253 
L 183.772854 -168.177253 
L 179.939501 -168.177253 
L 176.106148 -168.177253 
L 172.272794 -168.177253 
L 168.439441 -168.177253 
L 164.606088 -168.177253 
L 160.772735 -168.177253 
L 156.939382 -168.177253 
L 153.106028 -168.177253 
L 149.272675 -168.177253 
L 145.439322 -168.177253 
L 141.605969 -168.177253 
L 137.772616 -168.177253 
L 133.939262 -168.177253 
L 130.105909 -168.177253 
z
" style="stroke: #434343; stroke-opacity: 0.65"/>
    </defs>
    <g clip-path="url(#pff31089d7d)">
     <use xlink:href="#m113eff1f1b" x="0" y="432" style="fill: #4a9eb4; fill-opacity: 0.65; stroke: #434343; stroke-opacity: 0.65"/>
    </g>
   </g>
   <g id="PolyCollection_5">
    <defs>
     <path id="m4c0e69288b" d="M 130.469177 -95.625928 
L 130.469177 -111.140766 
L 131.649075 -112.759114 
L 132.828973 -114.199538 
L 134.008871 -115.408357 
L 135.188768 -116.346038 
L 136.368666 -116.989883 
L 137.548564 -117.334678 
L 138.728462 -117.391325 
L 139.908359 -117.183837 
L 141.088257 -116.745324 
L 142.268155 -116.113702 
L 143.448053 -115.327788 
L 144.62795 -114.424272 
L 145.807848 -113.435792 
L 146.987746 -112.390104 
L 148.167644 -111.31012 
L 149.347541 -110.214533 
L 150.527439 -109.118711 
L 151.707337 -108.035633 
L 152.887235 -106.976726 
L 154.067133 -105.95255 
L 155.24703 -104.97331 
L 156.426928 -104.04918 
L 157.606826 -103.190421 
L 158.786724 -102.407234 
L 159.966621 -101.709295 
L 161.146519 -101.104987 
L 162.326417 -100.60038 
L 163.506315 -100.198128 
L 164.686212 -99.896492 
L 165.86611 -99.688726 
L 167.046008 -99.563056 
L 168.225906 -99.503339 
L 169.405803 -99.490395 
L 170.585701 -99.503847 
L 171.765599 -99.524185 
L 172.945497 -99.534714 
L 174.125394 -99.523062 
L 175.305292 -99.482007 
L 176.48519 -99.409521 
L 177.665088 -99.308091 
L 178.844986 -99.183511 
L 180.024883 -99.043422 
L 181.204781 -98.895911 
L 182.384679 -98.748381 
L 183.564577 -98.606863 
L 184.744474 -98.47576 
L 185.924372 -98.357935 
L 187.10427 -98.255006 
L 188.284168 -98.167662 
L 189.464065 -98.095912 
L 190.643963 -98.039206 
L 191.823861 -97.996466 
L 193.003759 -97.96612 
L 194.183656 -97.946217 
L 195.363554 -97.934703 
L 196.543452 -97.929838 
L 197.72335 -97.930702 
L 198.903247 -97.937649 
L 200.083145 -97.952585 
L 201.263043 -97.978932 
L 202.442941 -98.021239 
L 203.622838 -98.084465 
L 204.802736 -98.173027 
L 205.982634 -98.289813 
L 207.162532 -98.435308 
L 208.34243 -98.607033 
L 209.522327 -98.799388 
L 210.702225 -99.003948 
L 211.882123 -99.210173 
L 213.062021 -99.406426 
L 214.241918 -99.581176 
L 215.421816 -99.724224 
L 216.601714 -99.82781 
L 217.781612 -99.887489 
L 218.961509 -99.902679 
L 220.141407 -99.876816 
L 221.321305 -99.817083 
L 222.501203 -99.733724 
L 223.6811 -99.638985 
L 224.860998 -99.545759 
L 226.040896 -99.466109 
L 227.220794 -99.409808 
L 228.400691 -99.383138 
L 229.580589 -99.388088 
L 230.760487 -99.422126 
L 231.940385 -99.478563 
L 233.120283 -99.547479 
L 234.30018 -99.617049 
L 235.480078 -99.675056 
L 236.659976 -99.71033 
L 237.839874 -99.713911 
L 239.019771 -99.679757 
L 240.199669 -99.604967 
L 241.379567 -99.489554 
L 242.559465 -99.335916 
L 243.739362 -99.14815 
L 244.91926 -98.931404 
L 246.099158 -98.691353 
L 247.279056 -98.433876 
L 247.279056 -95.625928 
L 247.279056 -95.625928 
L 246.099158 -95.625928 
L 244.91926 -95.625928 
L 243.739362 -95.625928 
L 242.559465 -95.625928 
L 241.379567 -95.625928 
L 240.199669 -95.625928 
L 239.019771 -95.625928 
L 237.839874 -95.625928 
L 236.659976 -95.625928 
L 235.480078 -95.625928 
L 234.30018 -95.625928 
L 233.120283 -95.625928 
L 231.940385 -95.625928 
L 230.760487 -95.625928 
L 229.580589 -95.625928 
L 228.400691 -95.625928 
L 227.220794 -95.625928 
L 226.040896 -95.625928 
L 224.860998 -95.625928 
L 223.6811 -95.625928 
L 222.501203 -95.625928 
L 221.321305 -95.625928 
L 220.141407 -95.625928 
L 218.961509 -95.625928 
L 217.781612 -95.625928 
L 216.601714 -95.625928 
L 215.421816 -95.625928 
L 214.241918 -95.625928 
L 213.062021 -95.625928 
L 211.882123 -95.625928 
L 210.702225 -95.625928 
L 209.522327 -95.625928 
L 208.34243 -95.625928 
L 207.162532 -95.625928 
L 205.982634 -95.625928 
L 204.802736 -95.625928 
L 203.622838 -95.625928 
L 202.442941 -95.625928 
L 201.263043 -95.625928 
L 200.083145 -95.625928 
L 198.903247 -95.625928 
L 197.72335 -95.625928 
L 196.543452 -95.625928 
L 195.363554 -95.625928 
L 194.183656 -95.625928 
L 193.003759 -95.625928 
L 191.823861 -95.625928 
L 190.643963 -95.625928 
L 189.464065 -95.625928 
L 188.284168 -95.625928 
L 187.10427 -95.625928 
L 185.924372 -95.625928 
L 184.744474 -95.625928 
L 183.564577 -95.625928 
L 182.384679 -95.625928 
L 181.204781 -95.625928 
L 180.024883 -95.625928 
L 178.844986 -95.625928 
L 177.665088 -95.625928 
L 176.48519 -95.625928 
L 175.305292 -95.625928 
L 174.125394 -95.625928 
L 172.945497 -95.625928 
L 171.765599 -95.625928 
L 170.585701 -95.625928 
L 169.405803 -95.625928 
L 168.225906 -95.625928 
L 167.046008 -95.625928 
L 165.86611 -95.625928 
L 164.686212 -95.625928 
L 163.506315 -95.625928 
L 162.326417 -95.625928 
L 161.146519 -95.625928 
L 159.966621 -95.625928 
L 158.786724 -95.625928 
L 157.606826 -95.625928 
L 156.426928 -95.625928 
L 155.24703 -95.625928 
L 154.067133 -95.625928 
L 152.887235 -95.625928 
L 151.707337 -95.625928 
L 150.527439 -95.625928 
L 149.347541 -95.625928 
L 148.167644 -95.625928 
L 146.987746 -95.625928 
L 145.807848 -95.625928 
L 144.62795 -95.625928 
L 143.448053 -95.625928 
L 142.268155 -95.625928 
L 141.088257 -95.625928 
L 139.908359 -95.625928 
L 138.728462 -95.625928 
L 137.548564 -95.625928 
L 136.368666 -95.625928 
L 135.188768 -95.625928 
L 134.008871 -95.625928 
L 132.828973 -95.625928 
L 131.649075 -95.625928 
L 130.469177 -95.625928 
z
" style="stroke: #434343; stroke-opacity: 0.65"/>
    </defs>
    <g clip-path="url(#pff31089d7d)">
     <use xlink:href="#m4c0e69288b" x="0" y="432" style="fill: #c789e5; fill-opacity: 0.65; stroke: #434343; stroke-opacity: 0.65"/>
    </g>
   </g>
   <g id="matplotlib.axis_1">
    <g id="xtick_1">
     <g id="line2d_1">
      <defs>
       <path id="m48b9f23031" d="M 0 0 
L 0 3.5 
" style="stroke: #000000; stroke-width: 0.8"/>
      </defs>
      <g>
       <use xlink:href="#m48b9f23031" x="125.773728" y="387.16" style="stroke: #000000; stroke-width: 0.8"/>
      </g>
     </g>
     <g id="text_1">
      <!-- 0 -->
      <g transform="translate(122.592478 401.758438) scale(0.1 -0.1)">
       <defs>
        <path id="DejaVuSans-30" d="M 2034 4250 
Q 1547 4250 1301 3770 
Q 1056 3291 1056 2328 
Q 1056 1369 1301 889 
Q 1547 409 2034 409 
Q 2525 409 2770 889 
Q 3016 1369 3016 2328 
Q 3016 3291 2770 3770 
Q 2525 4250 2034 4250 
z
M 2034 4750 
Q 2819 4750 3233 4129 
Q 3647 3509 3647 2328 
Q 3647 1150 3233 529 
Q 2819 -91 2034 -91 
Q 1250 -91 836 529 
Q 422 1150 422 2328 
Q 422 3509 836 4129 
Q 1250 4750 2034 4750 
z
" transform="scale(0.015625)"/>
       </defs>
       <use xlink:href="#DejaVuSans-30"/>
      </g>
     </g>
    </g>
    <g id="xtick_2">
     <g id="line2d_2">
      <g>
       <use xlink:href="#m48b9f23031" x="257.700139" y="387.16" style="stroke: #000000; stroke-width: 0.8"/>
      </g>
     </g>
     <g id="text_2">
      <!-- 100 -->
      <g transform="translate(248.156389 401.758438) scale(0.1 -0.1)">
       <defs>
        <path id="DejaVuSans-31" d="M 794 531 
L 1825 531 
L 1825 4091 
L 703 3866 
L 703 4441 
L 1819 4666 
L 2450 4666 
L 2450 531 
L 3481 531 
L 3481 0 
L 794 0 
L 794 531 
z
" transform="scale(0.015625)"/>
       </defs>
       <use xlink:href="#DejaVuSans-31"/>
       <use xlink:href="#DejaVuSans-30" x="63.623047"/>
       <use xlink:href="#DejaVuSans-30" x="127.246094"/>
      </g>
     </g>
    </g>
    <g id="xtick_3">
     <g id="line2d_3">
      <g>
       <use xlink:href="#m48b9f23031" x="389.626551" y="387.16" style="stroke: #000000; stroke-width: 0.8"/>
      </g>
     </g>
     <g id="text_3">
      <!-- 200 -->
      <g transform="translate(380.082801 401.758438) scale(0.1 -0.1)">
       <defs>
        <path id="DejaVuSans-32" d="M 1228 531 
L 3431 531 
L 3431 0 
L 469 0 
L 469 531 
Q 828 903 1448 1529 
Q 2069 2156 2228 2338 
Q 2531 2678 2651 2914 
Q 2772 3150 2772 3378 
Q 2772 3750 2511 3984 
Q 2250 4219 1831 4219 
Q 1534 4219 1204 4116 
Q 875 4013 500 3803 
L 500 4441 
Q 881 4594 1212 4672 
Q 1544 4750 1819 4750 
Q 2544 4750 2975 4387 
Q 3406 4025 3406 3419 
Q 3406 3131 3298 2873 
Q 3191 2616 2906 2266 
Q 2828 2175 2409 1742 
Q 1991 1309 1228 531 
z
" transform="scale(0.015625)"/>
       </defs>
       <use xlink:href="#DejaVuSans-32"/>
       <use xlink:href="#DejaVuSans-30" x="63.623047"/>
       <use xlink:href="#DejaVuSans-30" x="127.246094"/>
      </g>
     </g>
    </g>
    <g id="xtick_4">
     <g id="line2d_4">
      <g>
       <use xlink:href="#m48b9f23031" x="521.552962" y="387.16" style="stroke: #000000; stroke-width: 0.8"/>
      </g>
     </g>
     <g id="text_4">
      <!-- 300 -->
      <g transform="translate(512.009212 401.758438) scale(0.1 -0.1)">
       <defs>
        <path id="DejaVuSans-33" d="M 2597 2516 
Q 3050 2419 3304 2112 
Q 3559 1806 3559 1356 
Q 3559 666 3084 287 
Q 2609 -91 1734 -91 
Q 1441 -91 1130 -33 
Q 819 25 488 141 
L 488 750 
Q 750 597 1062 519 
Q 1375 441 1716 441 
Q 2309 441 2620 675 
Q 2931 909 2931 1356 
Q 2931 1769 2642 2001 
Q 2353 2234 1838 2234 
L 1294 2234 
L 1294 2753 
L 1863 2753 
Q 2328 2753 2575 2939 
Q 2822 3125 2822 3475 
Q 2822 3834 2567 4026 
Q 2313 4219 1838 4219 
Q 1578 4219 1281 4162 
Q 984 4106 628 3988 
L 628 4550 
Q 988 4650 1302 4700 
Q 1616 4750 1894 4750 
Q 2613 4750 3031 4423 
Q 3450 4097 3450 3541 
Q 3450 3153 3228 2886 
Q 3006 2619 2597 2516 
z
" transform="scale(0.015625)"/>
       </defs>
       <use xlink:href="#DejaVuSans-33"/>
       <use xlink:href="#DejaVuSans-30" x="63.623047"/>
       <use xlink:href="#DejaVuSans-30" x="127.246094"/>
      </g>
     </g>
    </g>
    <g id="xtick_5">
     <g id="line2d_5">
      <g>
       <use xlink:href="#m48b9f23031" x="653.479374" y="387.16" style="stroke: #000000; stroke-width: 0.8"/>
      </g>
     </g>
     <g id="text_5">
      <!-- 400 -->
      <g transform="translate(643.935624 401.758438) scale(0.1 -0.1)">
       <defs>
        <path id="DejaVuSans-34" d="M 2419 4116 
L 825 1625 
L 2419 1625 
L 2419 4116 
z
M 2253 4666 
L 3047 4666 
L 3047 1625 
L 3713 1625 
L 3713 1100 
L 3047 1100 
L 3047 0 
L 2419 0 
L 2419 1100 
L 313 1100 
L 313 1709 
L 2253 4666 
z
" transform="scale(0.015625)"/>
       </defs>
       <use xlink:href="#DejaVuSans-34"/>
       <use xlink:href="#DejaVuSans-30" x="63.623047"/>
       <use xlink:href="#DejaVuSans-30" x="127.246094"/>
      </g>
     </g>
    </g>
    <g id="text_6">
     <!-- $log([HSPB1]/[Total Protein])$ -->
     <g transform="translate(338.165 415.438125) scale(0.1 -0.1)">
      <defs>
       <path id="DejaVuSans-Oblique-6c" d="M 1172 4863 
L 1747 4863 
L 800 0 
L 225 0 
L 1172 4863 
z
" transform="scale(0.015625)"/>
       <path id="DejaVuSans-Oblique-6f" d="M 1625 -91 
Q 1009 -91 651 289 
Q 294 669 294 1325 
Q 294 1706 417 2101 
Q 541 2497 738 2766 
Q 1047 3184 1428 3384 
Q 1809 3584 2291 3584 
Q 2888 3584 3255 3212 
Q 3622 2841 3622 2241 
Q 3622 1825 3500 1412 
Q 3378 1000 3181 728 
Q 2875 309 2494 109 
Q 2113 -91 1625 -91 
z
M 891 1344 
Q 891 869 1089 633 
Q 1288 397 1691 397 
Q 2269 397 2648 901 
Q 3028 1406 3028 2181 
Q 3028 2634 2825 2865 
Q 2622 3097 2228 3097 
Q 1903 3097 1650 2945 
Q 1397 2794 1197 2484 
Q 1050 2253 970 1956 
Q 891 1659 891 1344 
z
" transform="scale(0.015625)"/>
       <path id="DejaVuSans-Oblique-67" d="M 3816 3500 
L 3219 434 
Q 3047 -456 2561 -893 
Q 2075 -1331 1253 -1331 
Q 950 -1331 690 -1286 
Q 431 -1241 206 -1147 
L 313 -588 
Q 525 -725 762 -790 
Q 1000 -856 1269 -856 
Q 1816 -856 2167 -557 
Q 2519 -259 2631 300 
L 2681 563 
Q 2441 288 2122 144 
Q 1803 0 1434 0 
Q 903 0 598 351 
Q 294 703 294 1319 
Q 294 1803 478 2267 
Q 663 2731 997 3091 
Q 1219 3328 1514 3456 
Q 1809 3584 2131 3584 
Q 2484 3584 2746 3420 
Q 3009 3256 3138 2956 
L 3238 3500 
L 3816 3500 
z
M 2950 2216 
Q 2950 2641 2750 2872 
Q 2550 3103 2181 3103 
Q 1953 3103 1747 3012 
Q 1541 2922 1394 2759 
Q 1156 2491 1023 2127 
Q 891 1763 891 1375 
Q 891 944 1092 712 
Q 1294 481 1672 481 
Q 2219 481 2584 976 
Q 2950 1472 2950 2216 
z
" transform="scale(0.015625)"/>
       <path id="DejaVuSans-28" d="M 1984 4856 
Q 1566 4138 1362 3434 
Q 1159 2731 1159 2009 
Q 1159 1288 1364 580 
Q 1569 -128 1984 -844 
L 1484 -844 
Q 1016 -109 783 600 
Q 550 1309 550 2009 
Q 550 2706 781 3412 
Q 1013 4119 1484 4856 
L 1984 4856 
z
" transform="scale(0.015625)"/>
       <path id="DejaVuSans-5b" d="M 550 4863 
L 1875 4863 
L 1875 4416 
L 1125 4416 
L 1125 -397 
L 1875 -397 
L 1875 -844 
L 550 -844 
L 550 4863 
z
" transform="scale(0.015625)"/>
       <path id="DejaVuSans-Oblique-48" d="M 1081 4666 
L 1716 4666 
L 1344 2753 
L 3634 2753 
L 4006 4666 
L 4641 4666 
L 3731 0 
L 3097 0 
L 3531 2222 
L 1241 2222 
L 806 0 
L 172 0 
L 1081 4666 
z
" transform="scale(0.015625)"/>
       <path id="DejaVuSans-Oblique-53" d="M 3859 4513 
L 3738 3897 
Q 3422 4066 3111 4152 
Q 2800 4238 2509 4238 
Q 1944 4238 1609 3991 
Q 1275 3744 1275 3334 
Q 1275 3109 1398 2989 
Q 1522 2869 2034 2731 
L 2413 2638 
Q 3053 2472 3303 2217 
Q 3553 1963 3553 1503 
Q 3553 797 2998 353 
Q 2444 -91 1538 -91 
Q 1166 -91 791 -17 
Q 416 56 38 206 
L 166 856 
Q 513 641 861 531 
Q 1209 422 1556 422 
Q 2147 422 2503 684 
Q 2859 947 2859 1369 
Q 2859 1650 2717 1795 
Q 2575 1941 2106 2059 
L 1728 2156 
Q 1081 2325 845 2545 
Q 609 2766 609 3163 
Q 609 3859 1145 4304 
Q 1681 4750 2541 4750 
Q 2875 4750 3203 4690 
Q 3531 4631 3859 4513 
z
" transform="scale(0.015625)"/>
       <path id="DejaVuSans-Oblique-50" d="M 1081 4666 
L 2541 4666 
Q 3178 4666 3512 4369 
Q 3847 4072 3847 3500 
Q 3847 2731 3353 2303 
Q 2859 1875 1966 1875 
L 1172 1875 
L 806 0 
L 172 0 
L 1081 4666 
z
M 1613 4147 
L 1275 2394 
L 2069 2394 
Q 2606 2394 2893 2669 
Q 3181 2944 3181 3456 
Q 3181 3784 2986 3965 
Q 2791 4147 2438 4147 
L 1613 4147 
z
" transform="scale(0.015625)"/>
       <path id="DejaVuSans-Oblique-42" d="M 1081 4666 
L 2694 4666 
Q 3350 4666 3675 4422 
Q 4000 4178 4000 3688 
Q 4000 3238 3720 2911 
Q 3441 2584 2988 2516 
Q 3375 2428 3569 2181 
Q 3763 1934 3763 1522 
Q 3763 819 3242 409 
Q 2722 0 1819 0 
L 172 0 
L 1081 4666 
z
M 1234 2228 
L 903 519 
L 1919 519 
Q 2491 519 2800 781 
Q 3109 1044 3109 1522 
Q 3109 1891 2904 2059 
Q 2700 2228 2247 2228 
L 1234 2228 
z
M 1606 4147 
L 1331 2741 
L 2272 2741 
Q 2775 2741 3058 2959 
Q 3341 3178 3341 3566 
Q 3341 3869 3150 4008 
Q 2959 4147 2541 4147 
L 1606 4147 
z
" transform="scale(0.015625)"/>
       <path id="DejaVuSans-5d" d="M 1947 4863 
L 1947 -844 
L 622 -844 
L 622 -397 
L 1369 -397 
L 1369 4416 
L 622 4416 
L 622 4863 
L 1947 4863 
z
" transform="scale(0.015625)"/>
       <path id="DejaVuSans-2f" d="M 1625 4666 
L 2156 4666 
L 531 -594 
L 0 -594 
L 1625 4666 
z
" transform="scale(0.015625)"/>
       <path id="DejaVuSans-Oblique-54" d="M 378 4666 
L 4325 4666 
L 4225 4134 
L 2559 4134 
L 1759 0 
L 1125 0 
L 1925 4134 
L 275 4134 
L 378 4666 
z
" transform="scale(0.015625)"/>
       <path id="DejaVuSans-Oblique-74" d="M 2706 3500 
L 2619 3053 
L 1472 3053 
L 1100 1153 
Q 1081 1047 1072 975 
Q 1063 903 1063 863 
Q 1063 663 1183 572 
Q 1303 481 1569 481 
L 2150 481 
L 2053 0 
L 1503 0 
Q 991 0 739 200 
Q 488 400 488 806 
Q 488 878 497 964 
Q 506 1050 525 1153 
L 897 3053 
L 409 3053 
L 500 3500 
L 978 3500 
L 1172 4494 
L 1747 4494 
L 1556 3500 
L 2706 3500 
z
" transform="scale(0.015625)"/>
       <path id="DejaVuSans-Oblique-61" d="M 3438 1997 
L 3047 0 
L 2472 0 
L 2578 531 
Q 2325 219 2001 64 
Q 1678 -91 1281 -91 
Q 834 -91 548 182 
Q 263 456 263 884 
Q 263 1497 752 1853 
Q 1241 2209 2100 2209 
L 2900 2209 
L 2931 2363 
Q 2938 2388 2941 2417 
Q 2944 2447 2944 2509 
Q 2944 2788 2717 2942 
Q 2491 3097 2081 3097 
Q 1800 3097 1504 3025 
Q 1209 2953 897 2809 
L 997 3341 
Q 1322 3463 1633 3523 
Q 1944 3584 2234 3584 
Q 2853 3584 3176 3315 
Q 3500 3047 3500 2534 
Q 3500 2431 3484 2292 
Q 3469 2153 3438 1997 
z
M 2816 1759 
L 2241 1759 
Q 1534 1759 1195 1570 
Q 856 1381 856 984 
Q 856 709 1029 553 
Q 1203 397 1509 397 
Q 1978 397 2328 733 
Q 2678 1069 2791 1631 
L 2816 1759 
z
" transform="scale(0.015625)"/>
       <path id="DejaVuSans-Oblique-72" d="M 2853 2969 
Q 2766 3016 2653 3041 
Q 2541 3066 2413 3066 
Q 1953 3066 1609 2717 
Q 1266 2369 1153 1784 
L 800 0 
L 225 0 
L 909 3500 
L 1484 3500 
L 1375 2956 
Q 1603 3259 1920 3421 
Q 2238 3584 2597 3584 
Q 2691 3584 2781 3573 
Q 2872 3563 2963 3538 
L 2853 2969 
z
" transform="scale(0.015625)"/>
       <path id="DejaVuSans-Oblique-65" d="M 3078 2063 
Q 3088 2113 3092 2166 
Q 3097 2219 3097 2272 
Q 3097 2653 2873 2875 
Q 2650 3097 2266 3097 
Q 1838 3097 1509 2826 
Q 1181 2556 1013 2059 
L 3078 2063 
z
M 3578 1613 
L 903 1613 
Q 884 1494 878 1425 
Q 872 1356 872 1306 
Q 872 872 1139 634 
Q 1406 397 1894 397 
Q 2269 397 2603 481 
Q 2938 566 3225 728 
L 3116 159 
Q 2806 34 2476 -28 
Q 2147 -91 1806 -91 
Q 1078 -91 686 257 
Q 294 606 294 1247 
Q 294 1794 489 2264 
Q 684 2734 1063 3103 
Q 1306 3334 1642 3459 
Q 1978 3584 2356 3584 
Q 2950 3584 3301 3228 
Q 3653 2872 3653 2272 
Q 3653 2128 3634 1964 
Q 3616 1800 3578 1613 
z
" transform="scale(0.015625)"/>
       <path id="DejaVuSans-Oblique-69" d="M 1172 4863 
L 1747 4863 
L 1606 4134 
L 1031 4134 
L 1172 4863 
z
M 909 3500 
L 1484 3500 
L 800 0 
L 225 0 
L 909 3500 
z
" transform="scale(0.015625)"/>
       <path id="DejaVuSans-Oblique-6e" d="M 3566 2113 
L 3156 0 
L 2578 0 
L 2988 2091 
Q 3016 2238 3031 2350 
Q 3047 2463 3047 2528 
Q 3047 2791 2881 2937 
Q 2716 3084 2419 3084 
Q 1956 3084 1622 2776 
Q 1288 2469 1184 1941 
L 800 0 
L 225 0 
L 903 3500 
L 1478 3500 
L 1363 2950 
Q 1603 3253 1940 3418 
Q 2278 3584 2650 3584 
Q 3113 3584 3367 3334 
Q 3622 3084 3622 2631 
Q 3622 2519 3608 2391 
Q 3594 2263 3566 2113 
z
" transform="scale(0.015625)"/>
       <path id="DejaVuSans-29" d="M 513 4856 
L 1013 4856 
Q 1481 4119 1714 3412 
Q 1947 2706 1947 2009 
Q 1947 1309 1714 600 
Q 1481 -109 1013 -844 
L 513 -844 
Q 928 -128 1133 580 
Q 1338 1288 1338 2009 
Q 1338 2731 1133 3434 
Q 928 4138 513 4856 
z
" transform="scale(0.015625)"/>
      </defs>
      <use xlink:href="#DejaVuSans-Oblique-6c" transform="translate(0 0.015625)"/>
      <use xlink:href="#DejaVuSans-Oblique-6f" transform="translate(27.783203 0.015625)"/>
      <use xlink:href="#DejaVuSans-Oblique-67" transform="translate(88.964844 0.015625)"/>
      <use xlink:href="#DejaVuSans-28" transform="translate(152.441406 0.015625)"/>
      <use xlink:href="#DejaVuSans-5b" transform="translate(191.455078 0.015625)"/>
      <use xlink:href="#DejaVuSans-Oblique-48" transform="translate(227.34375 0.015625)"/>
      <use xlink:href="#DejaVuSans-Oblique-53" transform="translate(302.539062 0.015625)"/>
      <use xlink:href="#DejaVuSans-Oblique-50" transform="translate(366.015625 0.015625)"/>
      <use xlink:href="#DejaVuSans-Oblique-42" transform="translate(426.318359 0.015625)"/>
      <use xlink:href="#DejaVuSans-31" transform="translate(494.921875 0.015625)"/>
      <use xlink:href="#DejaVuSans-5d" transform="translate(558.544922 0.015625)"/>
      <use xlink:href="#DejaVuSans-2f" transform="translate(597.558594 0.015625)"/>
      <use xlink:href="#DejaVuSans-5b" transform="translate(631.25 0.015625)"/>
      <use xlink:href="#DejaVuSans-Oblique-54" transform="translate(670.263672 0.015625)"/>
      <use xlink:href="#DejaVuSans-Oblique-6f" transform="translate(731.347656 0.015625)"/>
      <use xlink:href="#DejaVuSans-Oblique-74" transform="translate(792.529297 0.015625)"/>
      <use xlink:href="#DejaVuSans-Oblique-61" transform="translate(831.738281 0.015625)"/>
      <use xlink:href="#DejaVuSans-Oblique-6c" transform="translate(893.017578 0.015625)"/>
      <use xlink:href="#DejaVuSans-Oblique-50" transform="translate(920.800781 0.015625)"/>
      <use xlink:href="#DejaVuSans-Oblique-72" transform="translate(981.103516 0.015625)"/>
      <use xlink:href="#DejaVuSans-Oblique-6f" transform="translate(1022.216797 0.015625)"/>
      <use xlink:href="#DejaVuSans-Oblique-74" transform="translate(1083.398438 0.015625)"/>
      <use xlink:href="#DejaVuSans-Oblique-65" transform="translate(1122.607422 0.015625)"/>
      <use xlink:href="#DejaVuSans-Oblique-69" transform="translate(1184.130859 0.015625)"/>
      <use xlink:href="#DejaVuSans-Oblique-6e" transform="translate(1211.914062 0.015625)"/>
      <use xlink:href="#DejaVuSans-5d" transform="translate(1275.292969 0.015625)"/>
      <use xlink:href="#DejaVuSans-29" transform="translate(1314.306641 0.015625)"/>
     </g>
    </g>
   </g>
   <g id="matplotlib.axis_2">
    <g id="ytick_1">
     <g id="line2d_6">
      <defs>
       <path id="m776bd42064" d="M 0 0 
L -3.5 0 
" style="stroke: #000000; stroke-width: 0.8"/>
      </defs>
      <g>
       <use xlink:href="#m776bd42064" x="102.53" y="60.679036" style="stroke: #000000; stroke-width: 0.8"/>
      </g>
     </g>
     <g id="text_7">
      <!-- Reference -->
      <g transform="translate(45.176875 64.478255) scale(0.1 -0.1)">
       <defs>
        <path id="DejaVuSans-52" d="M 2841 2188 
Q 3044 2119 3236 1894 
Q 3428 1669 3622 1275 
L 4263 0 
L 3584 0 
L 2988 1197 
Q 2756 1666 2539 1819 
Q 2322 1972 1947 1972 
L 1259 1972 
L 1259 0 
L 628 0 
L 628 4666 
L 2053 4666 
Q 2853 4666 3247 4331 
Q 3641 3997 3641 3322 
Q 3641 2881 3436 2590 
Q 3231 2300 2841 2188 
z
M 1259 4147 
L 1259 2491 
L 2053 2491 
Q 2509 2491 2742 2702 
Q 2975 2913 2975 3322 
Q 2975 3731 2742 3939 
Q 2509 4147 2053 4147 
L 1259 4147 
z
" transform="scale(0.015625)"/>
        <path id="DejaVuSans-65" d="M 3597 1894 
L 3597 1613 
L 953 1613 
Q 991 1019 1311 708 
Q 1631 397 2203 397 
Q 2534 397 2845 478 
Q 3156 559 3463 722 
L 3463 178 
Q 3153 47 2828 -22 
Q 2503 -91 2169 -91 
Q 1331 -91 842 396 
Q 353 884 353 1716 
Q 353 2575 817 3079 
Q 1281 3584 2069 3584 
Q 2775 3584 3186 3129 
Q 3597 2675 3597 1894 
z
M 3022 2063 
Q 3016 2534 2758 2815 
Q 2500 3097 2075 3097 
Q 1594 3097 1305 2825 
Q 1016 2553 972 2059 
L 3022 2063 
z
" transform="scale(0.015625)"/>
        <path id="DejaVuSans-66" d="M 2375 4863 
L 2375 4384 
L 1825 4384 
Q 1516 4384 1395 4259 
Q 1275 4134 1275 3809 
L 1275 3500 
L 2222 3500 
L 2222 3053 
L 1275 3053 
L 1275 0 
L 697 0 
L 697 3053 
L 147 3053 
L 147 3500 
L 697 3500 
L 697 3744 
Q 697 4328 969 4595 
Q 1241 4863 1831 4863 
L 2375 4863 
z
" transform="scale(0.015625)"/>
        <path id="DejaVuSans-72" d="M 2631 2963 
Q 2534 3019 2420 3045 
Q 2306 3072 2169 3072 
Q 1681 3072 1420 2755 
Q 1159 2438 1159 1844 
L 1159 0 
L 581 0 
L 581 3500 
L 1159 3500 
L 1159 2956 
Q 1341 3275 1631 3429 
Q 1922 3584 2338 3584 
Q 2397 3584 2469 3576 
Q 2541 3569 2628 3553 
L 2631 2963 
z
" transform="scale(0.015625)"/>
        <path id="DejaVuSans-6e" d="M 3513 2113 
L 3513 0 
L 2938 0 
L 2938 2094 
Q 2938 2591 2744 2837 
Q 2550 3084 2163 3084 
Q 1697 3084 1428 2787 
Q 1159 2491 1159 1978 
L 1159 0 
L 581 0 
L 581 3500 
L 1159 3500 
L 1159 2956 
Q 1366 3272 1645 3428 
Q 1925 3584 2291 3584 
Q 2894 3584 3203 3211 
Q 3513 2838 3513 2113 
z
" transform="scale(0.015625)"/>
        <path id="DejaVuSans-63" d="M 3122 3366 
L 3122 2828 
Q 2878 2963 2633 3030 
Q 2388 3097 2138 3097 
Q 1578 3097 1268 2742 
Q 959 2388 959 1747 
Q 959 1106 1268 751 
Q 1578 397 2138 397 
Q 2388 397 2633 464 
Q 2878 531 3122 666 
L 3122 134 
Q 2881 22 2623 -34 
Q 2366 -91 2075 -91 
Q 1284 -91 818 406 
Q 353 903 353 1747 
Q 353 2603 823 3093 
Q 1294 3584 2113 3584 
Q 2378 3584 2631 3529 
Q 2884 3475 3122 3366 
z
" transform="scale(0.015625)"/>
       </defs>
       <use xlink:href="#DejaVuSans-52"/>
       <use xlink:href="#DejaVuSans-65" x="64.982422"/>
       <use xlink:href="#DejaVuSans-66" x="126.505859"/>
       <use xlink:href="#DejaVuSans-65" x="161.710938"/>
       <use xlink:href="#DejaVuSans-72" x="223.234375"/>
       <use xlink:href="#DejaVuSans-65" x="262.097656"/>
       <use xlink:href="#DejaVuSans-6e" x="323.621094"/>
       <use xlink:href="#DejaVuSans-63" x="387"/>
       <use xlink:href="#DejaVuSans-65" x="441.980469"/>
      </g>
     </g>
    </g>
    <g id="ytick_2">
     <g id="line2d_7">
      <g>
       <use xlink:href="#m776bd42064" x="102.53" y="133.230361" style="stroke: #000000; stroke-width: 0.8"/>
      </g>
     </g>
     <g id="text_8">
      <!-- 24h 4C +PBS -->
      <g transform="translate(24.609688 137.02958) scale(0.1 -0.1)">
       <defs>
        <path id="DejaVuSans-68" d="M 3513 2113 
L 3513 0 
L 2938 0 
L 2938 2094 
Q 2938 2591 2744 2837 
Q 2550 3084 2163 3084 
Q 1697 3084 1428 2787 
Q 1159 2491 1159 1978 
L 1159 0 
L 581 0 
L 581 4863 
L 1159 4863 
L 1159 2956 
Q 1366 3272 1645 3428 
Q 1925 3584 2291 3584 
Q 2894 3584 3203 3211 
Q 3513 2838 3513 2113 
z
" transform="scale(0.015625)"/>
        <path id="DejaVuSans-20" transform="scale(0.015625)"/>
        <path id="DejaVuSans-ba" d="M 434 1850 
L 2584 1850 
L 2584 1466 
L 434 1466 
L 434 1850 
z
M 1509 4750 
Q 2069 4750 2391 4404 
Q 2713 4059 2713 3463 
Q 2713 2866 2391 2523 
Q 2069 2181 1509 2181 
Q 950 2181 625 2525 
Q 300 2869 300 3463 
Q 300 4059 625 4404 
Q 950 4750 1509 4750 
z
M 1509 4391 
Q 1181 4391 984 4139 
Q 788 3888 788 3463 
Q 788 3047 986 2797 
Q 1184 2547 1509 2547 
Q 1838 2547 2033 2797 
Q 2228 3047 2228 3463 
Q 2228 3891 2034 4141 
Q 1841 4391 1509 4391 
z
" transform="scale(0.015625)"/>
        <path id="DejaVuSans-43" d="M 4122 4306 
L 4122 3641 
Q 3803 3938 3442 4084 
Q 3081 4231 2675 4231 
Q 1875 4231 1450 3742 
Q 1025 3253 1025 2328 
Q 1025 1406 1450 917 
Q 1875 428 2675 428 
Q 3081 428 3442 575 
Q 3803 722 4122 1019 
L 4122 359 
Q 3791 134 3420 21 
Q 3050 -91 2638 -91 
Q 1578 -91 968 557 
Q 359 1206 359 2328 
Q 359 3453 968 4101 
Q 1578 4750 2638 4750 
Q 3056 4750 3426 4639 
Q 3797 4528 4122 4306 
z
" transform="scale(0.015625)"/>
        <path id="DejaVuSans-2b" d="M 2944 4013 
L 2944 2272 
L 4684 2272 
L 4684 1741 
L 2944 1741 
L 2944 0 
L 2419 0 
L 2419 1741 
L 678 1741 
L 678 2272 
L 2419 2272 
L 2419 4013 
L 2944 4013 
z
" transform="scale(0.015625)"/>
        <path id="DejaVuSans-50" d="M 1259 4147 
L 1259 2394 
L 2053 2394 
Q 2494 2394 2734 2622 
Q 2975 2850 2975 3272 
Q 2975 3691 2734 3919 
Q 2494 4147 2053 4147 
L 1259 4147 
z
M 628 4666 
L 2053 4666 
Q 2838 4666 3239 4311 
Q 3641 3956 3641 3272 
Q 3641 2581 3239 2228 
Q 2838 1875 2053 1875 
L 1259 1875 
L 1259 0 
L 628 0 
L 628 4666 
z
" transform="scale(0.015625)"/>
        <path id="DejaVuSans-42" d="M 1259 2228 
L 1259 519 
L 2272 519 
Q 2781 519 3026 730 
Q 3272 941 3272 1375 
Q 3272 1813 3026 2020 
Q 2781 2228 2272 2228 
L 1259 2228 
z
M 1259 4147 
L 1259 2741 
L 2194 2741 
Q 2656 2741 2882 2914 
Q 3109 3088 3109 3444 
Q 3109 3797 2882 3972 
Q 2656 4147 2194 4147 
L 1259 4147 
z
M 628 4666 
L 2241 4666 
Q 2963 4666 3353 4366 
Q 3744 4066 3744 3513 
Q 3744 3084 3544 2831 
Q 3344 2578 2956 2516 
Q 3422 2416 3680 2098 
Q 3938 1781 3938 1306 
Q 3938 681 3513 340 
Q 3088 0 2303 0 
L 628 0 
L 628 4666 
z
" transform="scale(0.015625)"/>
        <path id="DejaVuSans-53" d="M 3425 4513 
L 3425 3897 
Q 3066 4069 2747 4153 
Q 2428 4238 2131 4238 
Q 1616 4238 1336 4038 
Q 1056 3838 1056 3469 
Q 1056 3159 1242 3001 
Q 1428 2844 1947 2747 
L 2328 2669 
Q 3034 2534 3370 2195 
Q 3706 1856 3706 1288 
Q 3706 609 3251 259 
Q 2797 -91 1919 -91 
Q 1588 -91 1214 -16 
Q 841 59 441 206 
L 441 856 
Q 825 641 1194 531 
Q 1563 422 1919 422 
Q 2459 422 2753 634 
Q 3047 847 3047 1241 
Q 3047 1584 2836 1778 
Q 2625 1972 2144 2069 
L 1759 2144 
Q 1053 2284 737 2584 
Q 422 2884 422 3419 
Q 422 4038 858 4394 
Q 1294 4750 2059 4750 
Q 2388 4750 2728 4690 
Q 3069 4631 3425 4513 
z
" transform="scale(0.015625)"/>
       </defs>
       <use xlink:href="#DejaVuSans-32"/>
       <use xlink:href="#DejaVuSans-34" x="63.623047"/>
       <use xlink:href="#DejaVuSans-68" x="127.246094"/>
       <use xlink:href="#DejaVuSans-20" x="190.625"/>
       <use xlink:href="#DejaVuSans-34" x="222.412109"/>
       <use xlink:href="#DejaVuSans-ba" x="286.035156"/>
       <use xlink:href="#DejaVuSans-43" x="333.154297"/>
       <use xlink:href="#DejaVuSans-20" x="402.978516"/>
       <use xlink:href="#DejaVuSans-2b" x="434.765625"/>
       <use xlink:href="#DejaVuSans-50" x="518.554688"/>
       <use xlink:href="#DejaVuSans-42" x="578.857422"/>
       <use xlink:href="#DejaVuSans-53" x="645.710938"/>
      </g>
     </g>
    </g>
    <g id="ytick_3">
     <g id="line2d_8">
      <g>
       <use xlink:href="#m776bd42064" x="102.53" y="205.781687" style="stroke: #000000; stroke-width: 0.8"/>
      </g>
     </g>
     <g id="text_9">
      <!-- 72h 4C +PBS -->
      <g transform="translate(24.609688 209.580905) scale(0.1 -0.1)">
       <defs>
        <path id="DejaVuSans-37" d="M 525 4666 
L 3525 4666 
L 3525 4397 
L 1831 0 
L 1172 0 
L 2766 4134 
L 525 4134 
L 525 4666 
z
" transform="scale(0.015625)"/>
       </defs>
       <use xlink:href="#DejaVuSans-37"/>
       <use xlink:href="#DejaVuSans-32" x="63.623047"/>
       <use xlink:href="#DejaVuSans-68" x="127.246094"/>
       <use xlink:href="#DejaVuSans-20" x="190.625"/>
       <use xlink:href="#DejaVuSans-34" x="222.412109"/>
       <use xlink:href="#DejaVuSans-ba" x="286.035156"/>
       <use xlink:href="#DejaVuSans-43" x="333.154297"/>
       <use xlink:href="#DejaVuSans-20" x="402.978516"/>
       <use xlink:href="#DejaVuSans-2b" x="434.765625"/>
       <use xlink:href="#DejaVuSans-50" x="518.554688"/>
       <use xlink:href="#DejaVuSans-42" x="578.857422"/>
       <use xlink:href="#DejaVuSans-53" x="645.710938"/>
      </g>
     </g>
    </g>
    <g id="ytick_4">
     <g id="line2d_9">
      <g>
       <use xlink:href="#m776bd42064" x="102.53" y="278.333012" style="stroke: #000000; stroke-width: 0.8"/>
      </g>
     </g>
     <g id="text_10">
      <!-- 24h 4C -PBS -->
      <g transform="translate(29.381563 282.132231) scale(0.1 -0.1)">
       <defs>
        <path id="DejaVuSans-2d" d="M 313 2009 
L 1997 2009 
L 1997 1497 
L 313 1497 
L 313 2009 
z
" transform="scale(0.015625)"/>
       </defs>
       <use xlink:href="#DejaVuSans-32"/>
       <use xlink:href="#DejaVuSans-34" x="63.623047"/>
       <use xlink:href="#DejaVuSans-68" x="127.246094"/>
       <use xlink:href="#DejaVuSans-20" x="190.625"/>
       <use xlink:href="#DejaVuSans-34" x="222.412109"/>
       <use xlink:href="#DejaVuSans-ba" x="286.035156"/>
       <use xlink:href="#DejaVuSans-43" x="333.154297"/>
       <use xlink:href="#DejaVuSans-20" x="402.978516"/>
       <use xlink:href="#DejaVuSans-2d" x="434.765625"/>
       <use xlink:href="#DejaVuSans-50" x="470.849609"/>
       <use xlink:href="#DejaVuSans-42" x="531.152344"/>
       <use xlink:href="#DejaVuSans-53" x="598.005859"/>
      </g>
     </g>
    </g>
    <g id="ytick_5">
     <g id="line2d_10">
      <g>
       <use xlink:href="#m776bd42064" x="102.53" y="350.884337" style="stroke: #000000; stroke-width: 0.8"/>
      </g>
     </g>
     <g id="text_11">
      <!-- 72h 4C -PBS -->
      <g transform="translate(29.381563 354.683556) scale(0.1 -0.1)">
       <use xlink:href="#DejaVuSans-37"/>
       <use xlink:href="#DejaVuSans-32" x="63.623047"/>
       <use xlink:href="#DejaVuSans-68" x="127.246094"/>
       <use xlink:href="#DejaVuSans-20" x="190.625"/>
       <use xlink:href="#DejaVuSans-34" x="222.412109"/>
       <use xlink:href="#DejaVuSans-ba" x="286.035156"/>
       <use xlink:href="#DejaVuSans-43" x="333.154297"/>
       <use xlink:href="#DejaVuSans-20" x="402.978516"/>
       <use xlink:href="#DejaVuSans-2d" x="434.765625"/>
       <use xlink:href="#DejaVuSans-50" x="470.849609"/>
       <use xlink:href="#DejaVuSans-42" x="531.152344"/>
       <use xlink:href="#DejaVuSans-53" x="598.005859"/>
      </g>
     </g>
    </g>
    <g id="text_12">
     <!-- Condition -->
     <g transform="translate(18.53 222.840156) rotate(-90) scale(0.1 -0.1)">
      <defs>
       <path id="DejaVuSans-6f" d="M 1959 3097 
Q 1497 3097 1228 2736 
Q 959 2375 959 1747 
Q 959 1119 1226 758 
Q 1494 397 1959 397 
Q 2419 397 2687 759 
Q 2956 1122 2956 1747 
Q 2956 2369 2687 2733 
Q 2419 3097 1959 3097 
z
M 1959 3584 
Q 2709 3584 3137 3096 
Q 3566 2609 3566 1747 
Q 3566 888 3137 398 
Q 2709 -91 1959 -91 
Q 1206 -91 779 398 
Q 353 888 353 1747 
Q 353 2609 779 3096 
Q 1206 3584 1959 3584 
z
" transform="scale(0.015625)"/>
       <path id="DejaVuSans-64" d="M 2906 2969 
L 2906 4863 
L 3481 4863 
L 3481 0 
L 2906 0 
L 2906 525 
Q 2725 213 2448 61 
Q 2172 -91 1784 -91 
Q 1150 -91 751 415 
Q 353 922 353 1747 
Q 353 2572 751 3078 
Q 1150 3584 1784 3584 
Q 2172 3584 2448 3432 
Q 2725 3281 2906 2969 
z
M 947 1747 
Q 947 1113 1208 752 
Q 1469 391 1925 391 
Q 2381 391 2643 752 
Q 2906 1113 2906 1747 
Q 2906 2381 2643 2742 
Q 2381 3103 1925 3103 
Q 1469 3103 1208 2742 
Q 947 2381 947 1747 
z
" transform="scale(0.015625)"/>
       <path id="DejaVuSans-69" d="M 603 3500 
L 1178 3500 
L 1178 0 
L 603 0 
L 603 3500 
z
M 603 4863 
L 1178 4863 
L 1178 4134 
L 603 4134 
L 603 4863 
z
" transform="scale(0.015625)"/>
       <path id="DejaVuSans-74" d="M 1172 4494 
L 1172 3500 
L 2356 3500 
L 2356 3053 
L 1172 3053 
L 1172 1153 
Q 1172 725 1289 603 
Q 1406 481 1766 481 
L 2356 481 
L 2356 0 
L 1766 0 
Q 1100 0 847 248 
Q 594 497 594 1153 
L 594 3053 
L 172 3053 
L 172 3500 
L 594 3500 
L 594 4494 
L 1172 4494 
z
" transform="scale(0.015625)"/>
      </defs>
      <use xlink:href="#DejaVuSans-43"/>
      <use xlink:href="#DejaVuSans-6f" x="69.824219"/>
      <use xlink:href="#DejaVuSans-6e" x="131.005859"/>
      <use xlink:href="#DejaVuSans-64" x="194.384766"/>
      <use xlink:href="#DejaVuSans-69" x="257.861328"/>
      <use xlink:href="#DejaVuSans-74" x="285.644531"/>
      <use xlink:href="#DejaVuSans-69" x="324.853516"/>
      <use xlink:href="#DejaVuSans-6f" x="352.636719"/>
      <use xlink:href="#DejaVuSans-6e" x="413.818359"/>
     </g>
    </g>
   </g>
   <g id="line2d_11">
    <path d="M 137.01198 57.958361 
L 137.01198 63.399711 
" clip-path="url(#pff31089d7d)" style="fill: none; stroke: #434343; stroke-width: 1.5; stroke-linecap: square"/>
   </g>
   <g id="line2d_12">
    <path d="M 214.485538 57.958361 
L 214.485538 63.399711 
" clip-path="url(#pff31089d7d)" style="fill: none; stroke: #434343; stroke-width: 1.5; stroke-linecap: square"/>
   </g>
   <g id="line2d_13">
    <defs>
     <path id="mbcbd176a8a" d="M -0 3.535534 
L 2.12132 0 
L -0 -3.535534 
L -2.12132 -0 
z
" style="stroke: #434343; stroke-linejoin: miter"/>
    </defs>
    <g clip-path="url(#pff31089d7d)">
     <use xlink:href="#mbcbd176a8a" x="518.219272" y="60.679036" style="fill: #434343; stroke: #434343; stroke-linejoin: miter"/>
     <use xlink:href="#mbcbd176a8a" x="277.246028" y="60.679036" style="fill: #434343; stroke: #434343; stroke-linejoin: miter"/>
     <use xlink:href="#mbcbd176a8a" x="412.373891" y="60.679036" style="fill: #434343; stroke: #434343; stroke-linejoin: miter"/>
     <use xlink:href="#mbcbd176a8a" x="430.176012" y="60.679036" style="fill: #434343; stroke: #434343; stroke-linejoin: miter"/>
     <use xlink:href="#mbcbd176a8a" x="347.001687" y="60.679036" style="fill: #434343; stroke: #434343; stroke-linejoin: miter"/>
    </g>
   </g>
   <g id="line2d_14">
    <path d="M 130.588889 130.509687 
L 130.588889 135.951036 
" clip-path="url(#pff31089d7d)" style="fill: none; stroke: #434343; stroke-width: 1.5; stroke-linecap: square"/>
   </g>
   <g id="line2d_15">
    <path d="M 237.525471 130.509687 
L 237.525471 135.951036 
" clip-path="url(#pff31089d7d)" style="fill: none; stroke: #434343; stroke-width: 1.5; stroke-linecap: square"/>
   </g>
   <g id="line2d_16">
    <g clip-path="url(#pff31089d7d)">
     <use xlink:href="#mbcbd176a8a" x="356.574236" y="133.230361" style="fill: #434343; stroke: #434343; stroke-linejoin: miter"/>
     <use xlink:href="#mbcbd176a8a" x="272.759369" y="133.230361" style="fill: #434343; stroke: #434343; stroke-linejoin: miter"/>
     <use xlink:href="#mbcbd176a8a" x="293.163424" y="133.230361" style="fill: #434343; stroke: #434343; stroke-linejoin: miter"/>
    </g>
   </g>
   <g id="line2d_17">
    <path d="M 131.603079 203.061012 
L 131.603079 208.502361 
" clip-path="url(#pff31089d7d)" style="fill: none; stroke: #434343; stroke-width: 1.5; stroke-linecap: square"/>
   </g>
   <g id="line2d_18">
    <path d="M 245.463173 203.061012 
L 245.463173 208.502361 
" clip-path="url(#pff31089d7d)" style="fill: none; stroke: #434343; stroke-width: 1.5; stroke-linecap: square"/>
   </g>
   <g id="line2d_19">
    <g clip-path="url(#pff31089d7d)">
     <use xlink:href="#mbcbd176a8a" x="681.624091" y="205.781687" style="fill: #434343; stroke: #434343; stroke-linejoin: miter"/>
     <use xlink:href="#mbcbd176a8a" x="284.731417" y="205.781687" style="fill: #434343; stroke: #434343; stroke-linejoin: miter"/>
    </g>
   </g>
   <g id="line2d_20">
    <path d="M 130.105909 275.612337 
L 130.105909 281.053687 
" clip-path="url(#pff31089d7d)" style="fill: none; stroke: #434343; stroke-width: 1.5; stroke-linecap: square"/>
   </g>
   <g id="line2d_21">
    <path d="M 228.024146 275.612337 
L 228.024146 281.053687 
" clip-path="url(#pff31089d7d)" style="fill: none; stroke: #434343; stroke-width: 1.5; stroke-linecap: square"/>
   </g>
   <g id="line2d_22">
    <g clip-path="url(#pff31089d7d)">
     <use xlink:href="#mbcbd176a8a" x="509.607877" y="278.333012" style="fill: #434343; stroke: #434343; stroke-linejoin: miter"/>
     <use xlink:href="#mbcbd176a8a" x="423.227527" y="278.333012" style="fill: #434343; stroke: #434343; stroke-linejoin: miter"/>
     <use xlink:href="#mbcbd176a8a" x="251.234577" y="278.333012" style="fill: #434343; stroke: #434343; stroke-linejoin: miter"/>
    </g>
   </g>
   <g id="line2d_23">
    <path d="M 130.469177 348.163663 
L 130.469177 353.605012 
" clip-path="url(#pff31089d7d)" style="fill: none; stroke: #434343; stroke-width: 1.5; stroke-linecap: square"/>
   </g>
   <g id="line2d_24">
    <path d="M 247.279056 348.163663 
L 247.279056 353.605012 
" clip-path="url(#pff31089d7d)" style="fill: none; stroke: #434343; stroke-width: 1.5; stroke-linecap: square"/>
   </g>
   <g id="line2d_25"/>
   <g id="line2d_26">
    <path d="M 164.285506 55.237687 
L 164.285506 66.120386 
" clip-path="url(#pff31089d7d)" style="fill: none; stroke: #434343; stroke-width: 1.5; stroke-linecap: square"/>
   </g>
   <g id="line2d_27">
    <path d="M 144.764411 127.789012 
L 144.764411 138.671711 
" clip-path="url(#pff31089d7d)" style="fill: none; stroke: #434343; stroke-width: 1.5; stroke-linecap: square"/>
   </g>
   <g id="line2d_28">
    <path d="M 148.415303 200.340337 
L 148.415303 211.223036 
" clip-path="url(#pff31089d7d)" style="fill: none; stroke: #434343; stroke-width: 1.5; stroke-linecap: square"/>
   </g>
   <g id="line2d_29">
    <path d="M 140.133734 272.891663 
L 140.133734 283.774361 
" clip-path="url(#pff31089d7d)" style="fill: none; stroke: #434343; stroke-width: 1.5; stroke-linecap: square"/>
   </g>
   <g id="line2d_30">
    <path d="M 146.220913 345.442988 
L 146.220913 356.325687 
" clip-path="url(#pff31089d7d)" style="fill: none; stroke: #434343; stroke-width: 1.5; stroke-linecap: square"/>
   </g>
   <g id="patch_3">
    <path d="M 102.53 387.16 
L 102.53 10.8 
" style="fill: none; stroke: #000000; stroke-width: 0.8; stroke-linejoin: miter; stroke-linecap: square"/>
   </g>
   <g id="patch_4">
    <path d="M 709.2 387.16 
L 709.2 10.8 
" style="fill: none; stroke: #000000; stroke-width: 0.8; stroke-linejoin: miter; stroke-linecap: square"/>
   </g>
   <g id="patch_5">
    <path d="M 102.53 387.16 
L 709.2 387.16 
" style="fill: none; stroke: #000000; stroke-width: 0.8; stroke-linejoin: miter; stroke-linecap: square"/>
   </g>
   <g id="patch_6">
    <path d="M 102.53 10.8 
L 709.2 10.8 
" style="fill: none; stroke: #000000; stroke-width: 0.8; stroke-linejoin: miter; stroke-linecap: square"/>
   </g>
   <g id="patch_7">
    <path d="M 149.842726 55.237687 
L 149.842726 66.120386 
L 198.559442 66.120386 
L 198.559442 55.237687 
L 149.842726 55.237687 
L 149.842726 55.237687 
z
" clip-path="url(#pff31089d7d)" style="fill: none; stroke: #434343; stroke-width: 1.5; stroke-linejoin: miter"/>
   </g>
   <g id="line2d_31">
    <path d="M 149.842726 60.679036 
L 137.01198 60.679036 
" clip-path="url(#pff31089d7d)" style="fill: none; stroke: #434343; stroke-width: 2; stroke-linecap: square"/>
   </g>
   <g id="line2d_32">
    <path d="M 198.559442 60.679036 
L 214.485538 60.679036 
" clip-path="url(#pff31089d7d)" style="fill: none; stroke: #434343; stroke-width: 2; stroke-linecap: square"/>
   </g>
   <g id="patch_8">
    <path d="M 139.041693 127.789012 
L 139.041693 138.671711 
L 191.954445 138.671711 
L 191.954445 127.789012 
L 139.041693 127.789012 
L 139.041693 127.789012 
z
" clip-path="url(#pff31089d7d)" style="fill: none; stroke: #434343; stroke-width: 1.5; stroke-linejoin: miter"/>
   </g>
   <g id="line2d_33">
    <path d="M 139.041693 133.230361 
L 130.588889 133.230361 
" clip-path="url(#pff31089d7d)" style="fill: none; stroke: #434343; stroke-width: 2; stroke-linecap: square"/>
   </g>
   <g id="line2d_34">
    <path d="M 191.954445 133.230361 
L 237.525471 133.230361 
" clip-path="url(#pff31089d7d)" style="fill: none; stroke: #434343; stroke-width: 2; stroke-linecap: square"/>
   </g>
   <g id="patch_9">
    <path d="M 138.520515 200.340337 
L 138.520515 211.223036 
L 192.108034 211.223036 
L 192.108034 200.340337 
L 138.520515 200.340337 
L 138.520515 200.340337 
z
" clip-path="url(#pff31089d7d)" style="fill: none; stroke: #434343; stroke-width: 1.5; stroke-linejoin: miter"/>
   </g>
   <g id="line2d_35">
    <path d="M 138.520515 205.781687 
L 131.603079 205.781687 
" clip-path="url(#pff31089d7d)" style="fill: none; stroke: #434343; stroke-width: 2; stroke-linecap: square"/>
   </g>
   <g id="line2d_36">
    <path d="M 192.108034 205.781687 
L 245.463173 205.781687 
" clip-path="url(#pff31089d7d)" style="fill: none; stroke: #434343; stroke-width: 2; stroke-linecap: square"/>
   </g>
   <g id="patch_10">
    <path d="M 134.828034 272.891663 
L 134.828034 283.774361 
L 180.931047 283.774361 
L 180.931047 272.891663 
L 134.828034 272.891663 
L 134.828034 272.891663 
z
" clip-path="url(#pff31089d7d)" style="fill: none; stroke: #434343; stroke-width: 1.5; stroke-linejoin: miter"/>
   </g>
   <g id="line2d_37">
    <path d="M 134.828034 278.333012 
L 130.105909 278.333012 
" clip-path="url(#pff31089d7d)" style="fill: none; stroke: #434343; stroke-width: 2; stroke-linecap: square"/>
   </g>
   <g id="line2d_38">
    <path d="M 180.931047 278.333012 
L 228.024146 278.333012 
" clip-path="url(#pff31089d7d)" style="fill: none; stroke: #434343; stroke-width: 2; stroke-linecap: square"/>
   </g>
   <g id="patch_11">
    <path d="M 136.552629 345.442988 
L 136.552629 356.325687 
L 182.886778 356.325687 
L 182.886778 345.442988 
L 136.552629 345.442988 
L 136.552629 345.442988 
z
" clip-path="url(#pff31089d7d)" style="fill: none; stroke: #434343; stroke-width: 1.5; stroke-linejoin: miter"/>
   </g>
   <g id="line2d_39">
    <path d="M 136.552629 350.884337 
L 130.469177 350.884337 
" clip-path="url(#pff31089d7d)" style="fill: none; stroke: #434343; stroke-width: 2; stroke-linecap: square"/>
   </g>
   <g id="line2d_40">
    <path d="M 182.886778 350.884337 
L 247.279056 350.884337 
" clip-path="url(#pff31089d7d)" style="fill: none; stroke: #434343; stroke-width: 2; stroke-linecap: square"/>
   </g>
  </g>
 </g>
 <defs>
  <clipPath id="pff31089d7d">
   <rect x="102.53" y="10.8" width="606.67" height="376.36"/>
  </clipPath>
 </defs>
</svg>
