<?xml version="1.0" encoding="utf-8" standalone="no"?>
<!DOCTYPE svg PUBLIC "-//W3C//DTD SVG 1.1//EN"
  "http://www.w3.org/Graphics/SVG/1.1/DTD/svg11.dtd">
<svg xmlns:xlink="http://www.w3.org/1999/xlink" width="720pt" height="432pt" viewBox="0 0 720 432" xmlns="http://www.w3.org/2000/svg" version="1.1">
 <metadata>
  <rdf:RDF xmlns:dc="http://purl.org/dc/elements/1.1/" xmlns:cc="http://creativecommons.org/ns#" xmlns:rdf="http://www.w3.org/1999/02/22-rdf-syntax-ns#">
   <cc:Work>
    <dc:type rdf:resource="http://purl.org/dc/dcmitype/StillImage"/>
    <dc:date>2024-09-30T14:08:28.319716</dc:date>
    <dc:format>image/svg+xml</dc:format>
    <dc:creator>
     <cc:Agent>
      <dc:title>Matplotlib v3.7.3, https://matplotlib.org/</dc:title>
     </cc:Agent>
    </dc:creator>
   </cc:Work>
  </rdf:RDF>
 </metadata>
 <defs>
  <style type="text/css">*{stroke-linejoin: round; stroke-linecap: butt}</style>
 </defs>
 <g id="figure_1">
  <g id="patch_1">
   <path d="M 0 432 
L 720 432 
L 720 0 
L 0 0 
z
" style="fill: #ffffff"/>
  </g>
  <g id="axes_1">
   <g id="patch_2">
    <path d="M 62.03 343.03527 
L 709.2 343.03527 
L 709.2 10.8 
L 62.03 10.8 
z
" style="fill: #ffffff"/>
   </g>
   <g id="PolyCollection_1">
    <defs>
     <path id="m98cec6e57e" d="M 128.144767 -130.575378 
L 125.349233 -130.575378 
L 124.825346 -131.806603 
L 124.150409 -133.037828 
L 123.298258 -134.269053 
L 122.244095 -135.500278 
L 120.966674 -136.731503 
L 119.450747 -137.962727 
L 117.689556 -139.193952 
L 115.687083 -140.425177 
L 113.459733 -141.656402 
L 111.037141 -142.887627 
L 108.461804 -144.118852 
L 105.7874 -145.350077 
L 103.075744 -146.581301 
L 100.392558 -147.812526 
L 97.802398 -149.043751 
L 95.363235 -150.274976 
L 93.121314 -151.506201 
L 91.106948 -152.737426 
L 89.331835 -153.968651 
L 87.788358 -155.199875 
L 86.451082 -156.4311 
L 85.280396 -157.662325 
L 84.227963 -158.89355 
L 83.243373 -160.124775 
L 82.281194 -161.356 
L 81.307565 -162.587225 
L 80.305454 -163.818449 
L 79.277906 -165.049674 
L 78.248821 -166.280899 
L 77.261163 -167.512124 
L 76.372791 -168.743349 
L 75.650487 -169.974574 
L 75.162909 -171.205799 
L 74.9734 -172.437023 
L 75.13351 -173.668248 
L 75.678007 -174.899473 
L 76.621882 -176.130698 
L 77.959566 -177.361923 
L 79.666289 -178.593148 
L 81.701181 -179.824372 
L 84.011592 -181.055597 
L 86.537943 -182.286822 
L 89.218476 -183.518047 
L 91.993368 -184.749272 
L 94.807828 -185.980497 
L 97.614036 -187.211722 
L 100.371935 -188.442946 
L 103.049095 -189.674171 
L 105.619911 -190.905396 
L 108.064477 -192.136621 
L 110.367428 -193.367846 
L 112.516952 -194.599071 
L 114.504122 -195.830296 
L 116.322556 -197.06152 
L 117.968355 -198.292745 
L 119.440216 -199.52397 
L 120.739586 -200.755195 
L 121.870747 -201.98642 
L 122.840738 -203.217645 
L 123.659082 -204.44887 
L 124.33731 -205.680094 
L 124.88833 -206.911319 
L 125.325705 -208.142544 
L 125.662915 -209.373769 
L 125.912683 -210.604994 
L 126.086431 -211.836219 
L 126.193905 -213.067444 
L 126.243009 -214.298668 
L 126.239849 -215.529893 
L 126.188982 -216.761118 
L 126.093829 -217.992343 
L 125.95723 -219.223568 
L 125.78206 -220.454793 
L 125.571867 -221.686017 
L 125.331425 -222.917242 
L 125.06716 -224.148467 
L 124.787367 -225.379692 
L 124.50216 -226.610917 
L 124.223161 -227.842142 
L 123.962915 -229.073367 
L 123.734085 -230.304591 
L 123.54852 -231.535816 
L 123.416286 -232.767041 
L 123.344801 -233.998266 
L 123.338158 -235.229491 
L 123.396754 -236.460716 
L 123.517256 -237.691941 
L 123.692919 -238.923165 
L 123.914214 -240.15439 
L 124.169683 -241.385615 
L 124.446923 -242.61684 
L 124.733566 -243.848065 
L 125.018167 -245.07929 
L 125.290906 -246.310515 
L 125.544054 -247.541739 
L 125.772182 -248.772964 
L 125.972144 -250.004189 
L 126.142857 -251.235414 
L 126.284961 -252.466639 
L 127.209039 -252.466639 
L 127.209039 -252.466639 
L 127.351143 -251.235414 
L 127.521856 -250.004189 
L 127.721818 -248.772964 
L 127.949946 -247.541739 
L 128.203094 -246.310515 
L 128.475833 -245.07929 
L 128.760434 -243.848065 
L 129.047077 -242.61684 
L 129.324317 -241.385615 
L 129.579786 -240.15439 
L 129.801081 -238.923165 
L 129.976744 -237.691941 
L 130.097246 -236.460716 
L 130.155842 -235.229491 
L 130.149199 -233.998266 
L 130.077714 -232.767041 
L 129.94548 -231.535816 
L 129.759915 -230.304591 
L 129.531085 -229.073367 
L 129.270839 -227.842142 
L 128.99184 -226.610917 
L 128.706633 -225.379692 
L 128.42684 -224.148467 
L 128.162575 -222.917242 
L 127.922133 -221.686017 
L 127.71194 -220.454793 
L 127.53677 -219.223568 
L 127.400171 -217.992343 
L 127.305018 -216.761118 
L 127.254151 -215.529893 
L 127.250991 -214.298668 
L 127.300095 -213.067444 
L 127.407569 -211.836219 
L 127.581317 -210.604994 
L 127.831085 -209.373769 
L 128.168295 -208.142544 
L 128.60567 -206.911319 
L 129.15669 -205.680094 
L 129.834918 -204.44887 
L 130.653262 -203.217645 
L 131.623253 -201.98642 
L 132.754414 -200.755195 
L 134.053784 -199.52397 
L 135.525645 -198.292745 
L 137.171444 -197.06152 
L 138.989878 -195.830296 
L 140.977048 -194.599071 
L 143.126572 -193.367846 
L 145.429523 -192.136621 
L 147.874089 -190.905396 
L 150.444905 -189.674171 
L 153.122065 -188.442946 
L 155.879964 -187.211722 
L 158.686172 -185.980497 
L 161.500632 -184.749272 
L 164.275524 -183.518047 
L 166.956057 -182.286822 
L 169.482408 -181.055597 
L 171.792819 -179.824372 
L 173.827711 -178.593148 
L 175.534434 -177.361923 
L 176.872118 -176.130698 
L 177.815993 -174.899473 
L 178.36049 -173.668248 
L 178.5206 -172.437023 
L 178.331091 -171.205799 
L 177.843513 -169.974574 
L 177.121209 -168.743349 
L 176.232837 -167.512124 
L 175.245179 -166.280899 
L 174.216094 -165.049674 
L 173.188546 -163.818449 
L 172.186435 -162.587225 
L 171.212806 -161.356 
L 170.250627 -160.124775 
L 169.266037 -158.89355 
L 168.213604 -157.662325 
L 167.042918 -156.4311 
L 165.705642 -155.199875 
L 164.162165 -153.968651 
L 162.387052 -152.737426 
L 160.372686 -151.506201 
L 158.130765 -150.274976 
L 155.691602 -149.043751 
L 153.101442 -147.812526 
L 150.418256 -146.581301 
L 147.7066 -145.350077 
L 145.032196 -144.118852 
L 142.456859 -142.887627 
L 140.034267 -141.656402 
L 137.806917 -140.425177 
L 135.804444 -139.193952 
L 134.043253 -137.962727 
L 132.527326 -136.731503 
L 131.249905 -135.500278 
L 130.195742 -134.269053 
L 129.343591 -133.037828 
L 128.668654 -131.806603 
L 128.144767 -130.575378 
z
" style="stroke: #434343; stroke-width: 1.5"/>
    </defs>
    <g clip-path="url(#p6d3c116c74)">
     <use xlink:href="#m98cec6e57e" x="0" y="432" style="fill: #e68193; stroke: #434343; stroke-width: 1.5"/>
    </g>
   </g>
   <g id="PolyCollection_2">
    <defs>
     <path id="m8f1e285dc6" d="M 258.250423 -128.016642 
L 254.111577 -128.016642 
L 253.569723 -129.118576 
L 252.921742 -130.220509 
L 252.156924 -131.322443 
L 251.266077 -132.424377 
L 250.242258 -133.52631 
L 249.081523 -134.628244 
L 247.783641 -135.730177 
L 246.352717 -136.832111 
L 244.797664 -137.934044 
L 243.132465 -139.035978 
L 241.376171 -140.137911 
L 239.552615 -141.239845 
L 237.689808 -142.341779 
L 235.819039 -143.443712 
L 233.973707 -144.545646 
L 232.187945 -145.647579 
L 230.495115 -146.749513 
L 228.926269 -147.851446 
L 227.508688 -148.95338 
L 226.264586 -150.055314 
L 225.210092 -151.157247 
L 224.354561 -152.259181 
L 223.700286 -153.361114 
L 223.242595 -154.463048 
L 222.970354 -155.564981 
L 222.866791 -156.666915 
L 222.910596 -157.768848 
L 223.077189 -158.870782 
L 223.340063 -159.972716 
L 223.672104 -161.074649 
L 224.046785 -162.176583 
L 224.439182 -163.278516 
L 224.826752 -164.38045 
L 225.189858 -165.482383 
L 225.512043 -166.584317 
L 225.780096 -167.686251 
L 225.983939 -168.788184 
L 226.116424 -169.890118 
L 226.173075 -170.992051 
L 226.151855 -172.093985 
L 226.052994 -173.195918 
L 225.878915 -174.297852 
L 225.634253 -175.399785 
L 225.325965 -176.501719 
L 224.963495 -177.603653 
L 224.558935 -178.705586 
L 224.127129 -179.80752 
L 223.68567 -180.909453 
L 223.254709 -182.011387 
L 222.856565 -183.11332 
L 222.515102 -184.215254 
L 222.254872 -185.317187 
L 222.100076 -186.419121 
L 222.073386 -187.521055 
L 222.194699 -188.622988 
L 222.479942 -189.724922 
L 222.939998 -190.826855 
L 223.579861 -191.928789 
L 224.398107 -193.030722 
L 225.386716 -194.132656 
L 226.531312 -195.23459 
L 227.811776 -196.336523 
L 229.203235 -197.438457 
L 230.677334 -198.54039 
L 232.203719 -199.642324 
L 233.751607 -200.744257 
L 235.291344 -201.846191 
L 236.795837 -202.948124 
L 238.241757 -204.050058 
L 239.61044 -205.151992 
L 240.888443 -206.253925 
L 242.067723 -207.355859 
L 243.145473 -208.457792 
L 244.123619 -209.559726 
L 245.008079 -210.661659 
L 245.80783 -211.763593 
L 246.533885 -212.865527 
L 247.198257 -213.96746 
L 247.812988 -215.069394 
L 248.389317 -216.171327 
L 248.937013 -217.273261 
L 249.463923 -218.375194 
L 249.975731 -219.477128 
L 250.475914 -220.579061 
L 250.965881 -221.680995 
L 251.44525 -222.782929 
L 251.912216 -223.884862 
L 252.363985 -224.986796 
L 252.797203 -226.088729 
L 253.208374 -227.190663 
L 253.594214 -228.292596 
L 253.951932 -229.39453 
L 254.279432 -230.496463 
L 254.575426 -231.598397 
L 254.839471 -232.700331 
L 255.071935 -233.802264 
L 255.273914 -234.904198 
L 255.447109 -236.006131 
L 255.593684 -237.108065 
L 256.768316 -237.108065 
L 256.768316 -237.108065 
L 256.914891 -236.006131 
L 257.088086 -234.904198 
L 257.290065 -233.802264 
L 257.522529 -232.700331 
L 257.786574 -231.598397 
L 258.082568 -230.496463 
L 258.410068 -229.39453 
L 258.767786 -228.292596 
L 259.153626 -227.190663 
L 259.564797 -226.088729 
L 259.998015 -224.986796 
L 260.449784 -223.884862 
L 260.91675 -222.782929 
L 261.396119 -221.680995 
L 261.886086 -220.579061 
L 262.386269 -219.477128 
L 262.898077 -218.375194 
L 263.424987 -217.273261 
L 263.972683 -216.171327 
L 264.549012 -215.069394 
L 265.163743 -213.96746 
L 265.828115 -212.865527 
L 266.55417 -211.763593 
L 267.353921 -210.661659 
L 268.238381 -209.559726 
L 269.216527 -208.457792 
L 270.294277 -207.355859 
L 271.473557 -206.253925 
L 272.75156 -205.151992 
L 274.120243 -204.050058 
L 275.566163 -202.948124 
L 277.070656 -201.846191 
L 278.610393 -200.744257 
L 280.158281 -199.642324 
L 281.684666 -198.54039 
L 283.158765 -197.438457 
L 284.550224 -196.336523 
L 285.830688 -195.23459 
L 286.975284 -194.132656 
L 287.963893 -193.030722 
L 288.782139 -191.928789 
L 289.422002 -190.826855 
L 289.882058 -189.724922 
L 290.167301 -188.622988 
L 290.288614 -187.521055 
L 290.261924 -186.419121 
L 290.107128 -185.317187 
L 289.846898 -184.215254 
L 289.505435 -183.11332 
L 289.107291 -182.011387 
L 288.67633 -180.909453 
L 288.234871 -179.80752 
L 287.803065 -178.705586 
L 287.398505 -177.603653 
L 287.036035 -176.501719 
L 286.727747 -175.399785 
L 286.483085 -174.297852 
L 286.309006 -173.195918 
L 286.210145 -172.093985 
L 286.188925 -170.992051 
L 286.245576 -169.890118 
L 286.378061 -168.788184 
L 286.581904 -167.686251 
L 286.849957 -166.584317 
L 287.172142 -165.482383 
L 287.535248 -164.38045 
L 287.922818 -163.278516 
L 288.315215 -162.176583 
L 288.689896 -161.074649 
L 289.021937 -159.972716 
L 289.284811 -158.870782 
L 289.451404 -157.768848 
L 289.495209 -156.666915 
L 289.391646 -155.564981 
L 289.119405 -154.463048 
L 288.661714 -153.361114 
L 288.007439 -152.259181 
L 287.151908 -151.157247 
L 286.097414 -150.055314 
L 284.853312 -148.95338 
L 283.435731 -147.851446 
L 281.866885 -146.749513 
L 280.174055 -145.647579 
L 278.388293 -144.545646 
L 276.542961 -143.443712 
L 274.672192 -142.341779 
L 272.809385 -141.239845 
L 270.985829 -140.137911 
L 269.229535 -139.035978 
L 267.564336 -137.934044 
L 266.009283 -136.832111 
L 264.578359 -135.730177 
L 263.280477 -134.628244 
L 262.119742 -133.52631 
L 261.095923 -132.424377 
L 260.205076 -131.322443 
L 259.440258 -130.220509 
L 258.792277 -129.118576 
L 258.250423 -128.016642 
z
" style="stroke: #434343; stroke-width: 1.5"/>
    </defs>
    <g clip-path="url(#p6d3c116c74)">
     <use xlink:href="#m8f1e285dc6" x="0" y="432" style="fill: #9e9241; stroke: #434343; stroke-width: 1.5"/>
    </g>
   </g>
   <g id="PolyCollection_3">
    <defs>
     <path id="m9ad1c43998" d="M 388.086469 -133.79036 
L 383.143531 -133.79036 
L 382.461365 -134.617779 
L 381.636919 -135.445197 
L 380.654116 -136.272616 
L 379.498719 -137.100034 
L 378.15943 -137.927453 
L 376.629048 -138.754871 
L 374.905599 -139.58229 
L 372.99336 -140.409708 
L 370.90367 -141.237127 
L 368.655447 -142.064546 
L 366.275302 -142.891964 
L 363.797212 -143.719383 
L 361.261692 -144.546801 
L 358.714491 -145.37422 
L 356.20484 -146.201638 
L 353.783348 -147.029057 
L 351.499659 -147.856475 
L 349.400032 -148.683894 
L 347.524998 -149.511312 
L 345.907261 -150.338731 
L 344.570005 -151.166149 
L 343.525706 -151.993568 
L 342.775551 -152.820987 
L 342.309483 -153.648405 
L 342.106868 -154.475824 
L 342.137711 -155.303242 
L 342.364341 -156.130661 
L 342.74342 -156.958079 
L 343.228161 -157.785498 
L 343.770603 -158.612916 
L 344.323819 -159.440335 
L 344.843958 -160.267753 
L 345.29201 -161.095172 
L 345.635271 -161.92259 
L 345.84843 -162.750009 
L 345.914292 -163.577428 
L 345.824115 -164.404846 
L 345.577586 -165.232265 
L 345.182448 -166.059683 
L 344.653819 -166.887102 
L 344.013224 -167.71452 
L 343.287418 -168.541939 
L 342.507017 -169.369357 
L 341.705046 -170.196776 
L 340.915442 -171.024194 
L 340.171614 -171.851613 
L 339.505114 -172.679031 
L 338.944507 -173.50645 
L 338.514477 -174.333869 
L 338.235212 -175.161287 
L 338.122077 -175.988706 
L 338.185568 -176.816124 
L 338.431498 -177.643543 
L 338.861379 -178.470961 
L 339.472933 -179.29838 
L 340.260659 -180.125798 
L 341.216395 -180.953217 
L 342.329837 -181.780635 
L 343.588964 -182.608054 
L 344.980364 -183.435472 
L 346.489471 -184.262891 
L 348.100716 -185.090309 
L 349.797644 -185.917728 
L 351.563024 -186.745147 
L 353.378982 -187.572565 
L 355.227204 -188.399984 
L 357.089209 -189.227402 
L 358.946701 -190.054821 
L 360.781999 -190.882239 
L 362.578492 -191.709658 
L 364.321122 -192.537076 
L 365.996819 -193.364495 
L 367.594868 -194.191913 
L 369.107169 -195.019332 
L 370.528361 -195.84675 
L 371.855794 -196.674169 
L 373.089359 -197.501588 
L 374.23118 -198.329006 
L 375.285205 -199.156425 
L 376.256728 -199.983843 
L 377.15188 -200.811262 
L 377.977137 -201.63868 
L 378.738879 -202.466099 
L 379.44303 -203.293517 
L 380.094799 -204.120936 
L 380.698533 -204.948354 
L 381.25767 -205.775773 
L 381.774798 -206.603191 
L 382.251775 -207.43061 
L 382.689907 -208.258029 
L 383.090151 -209.085447 
L 383.453305 -209.912866 
L 383.780198 -210.740284 
L 384.071822 -211.567703 
L 384.329438 -212.395121 
L 384.554625 -213.22254 
L 384.749285 -214.049958 
L 384.915614 -214.877377 
L 385.056043 -215.704795 
L 386.173957 -215.704795 
L 386.173957 -215.704795 
L 386.314386 -214.877377 
L 386.480715 -214.049958 
L 386.675375 -213.22254 
L 386.900562 -212.395121 
L 387.158178 -211.567703 
L 387.449802 -210.740284 
L 387.776695 -209.912866 
L 388.139849 -209.085447 
L 388.540093 -208.258029 
L 388.978225 -207.43061 
L 389.455202 -206.603191 
L 389.97233 -205.775773 
L 390.531467 -204.948354 
L 391.135201 -204.120936 
L 391.78697 -203.293517 
L 392.491121 -202.466099 
L 393.252863 -201.63868 
L 394.07812 -200.811262 
L 394.973272 -199.983843 
L 395.944795 -199.156425 
L 396.99882 -198.329006 
L 398.140641 -197.501588 
L 399.374206 -196.674169 
L 400.701639 -195.84675 
L 402.122831 -195.019332 
L 403.635132 -194.191913 
L 405.233181 -193.364495 
L 406.908878 -192.537076 
L 408.651508 -191.709658 
L 410.448001 -190.882239 
L 412.283299 -190.054821 
L 414.140791 -189.227402 
L 416.002796 -188.399984 
L 417.851018 -187.572565 
L 419.666976 -186.745147 
L 421.432356 -185.917728 
L 423.129284 -185.090309 
L 424.740529 -184.262891 
L 426.249636 -183.435472 
L 427.641036 -182.608054 
L 428.900163 -181.780635 
L 430.013605 -180.953217 
L 430.969341 -180.125798 
L 431.757067 -179.29838 
L 432.368621 -178.470961 
L 432.798502 -177.643543 
L 433.044432 -176.816124 
L 433.107923 -175.988706 
L 432.994788 -175.161287 
L 432.715523 -174.333869 
L 432.285493 -173.50645 
L 431.724886 -172.679031 
L 431.058386 -171.851613 
L 430.314558 -171.024194 
L 429.524954 -170.196776 
L 428.722983 -169.369357 
L 427.942582 -168.541939 
L 427.216776 -167.71452 
L 426.576181 -166.887102 
L 426.047552 -166.059683 
L 425.652414 -165.232265 
L 425.405885 -164.404846 
L 425.315708 -163.577428 
L 425.38157 -162.750009 
L 425.594729 -161.92259 
L 425.93799 -161.095172 
L 426.386042 -160.267753 
L 426.906181 -159.440335 
L 427.459397 -158.612916 
L 428.001839 -157.785498 
L 428.48658 -156.958079 
L 428.865659 -156.130661 
L 429.092289 -155.303242 
L 429.123132 -154.475824 
L 428.920517 -153.648405 
L 428.454449 -152.820987 
L 427.704294 -151.993568 
L 426.659995 -151.166149 
L 425.322739 -150.338731 
L 423.705002 -149.511312 
L 421.829968 -148.683894 
L 419.730341 -147.856475 
L 417.446652 -147.029057 
L 415.02516 -146.201638 
L 412.515509 -145.37422 
L 409.968308 -144.546801 
L 407.432788 -143.719383 
L 404.954698 -142.891964 
L 402.574553 -142.064546 
L 400.32633 -141.237127 
L 398.23664 -140.409708 
L 396.324401 -139.58229 
L 394.600952 -138.754871 
L 393.07057 -137.927453 
L 391.731281 -137.100034 
L 390.575884 -136.272616 
L 389.593081 -135.445197 
L 388.768635 -134.617779 
L 388.086469 -133.79036 
z
" style="stroke: #434343; stroke-width: 1.5"/>
    </defs>
    <g clip-path="url(#p6d3c116c74)">
     <use xlink:href="#m9ad1c43998" x="0" y="432" style="fill: #43a178; stroke: #434343; stroke-width: 1.5"/>
    </g>
   </g>
   <g id="PolyCollection_4">
    <defs>
     <path id="m58a4cdc297" d="M 517.811151 -136.856678 
L 512.286849 -136.856678 
L 511.597361 -137.555589 
L 510.778319 -138.254499 
L 509.816794 -138.953409 
L 508.701353 -139.65232 
L 507.422815 -140.35123 
L 505.975017 -141.050141 
L 504.355578 -141.749051 
L 502.566572 -142.447961 
L 500.615081 -143.146872 
L 498.513564 -143.845782 
L 496.279991 -144.544692 
L 493.93771 -145.243603 
L 491.515023 -145.942513 
L 489.044461 -146.641423 
L 486.561786 -147.340334 
L 484.104746 -148.039244 
L 481.711653 -148.738154 
L 479.419852 -149.437065 
L 477.26418 -150.135975 
L 475.275492 -150.834886 
L 473.479359 -151.533796 
L 471.895019 -152.232706 
L 470.534638 -152.931617 
L 469.402941 -153.630527 
L 468.497223 -154.329437 
L 467.807742 -155.028348 
L 467.318456 -155.727258 
L 467.008066 -156.426168 
L 466.85127 -157.125079 
L 466.820174 -157.823989 
L 466.885746 -158.5229 
L 467.019244 -159.22181 
L 467.193523 -159.92072 
L 467.384164 -160.619631 
L 467.570367 -161.318541 
L 467.735574 -162.017451 
L 467.867809 -162.716362 
L 467.959737 -163.415272 
L 468.008464 -164.114182 
L 468.015116 -164.813093 
L 467.984228 -165.512003 
L 467.923026 -166.210914 
L 467.840617 -166.909824 
L 467.747183 -167.608734 
L 467.653196 -168.307645 
L 467.568729 -169.006555 
L 467.502867 -169.705465 
L 467.463273 -170.404376 
L 467.455906 -171.103286 
L 467.484898 -171.802196 
L 467.552589 -172.501107 
L 467.659695 -173.200017 
L 467.805603 -173.898927 
L 467.98875 -174.597838 
L 468.207062 -175.296748 
L 468.458424 -175.995659 
L 468.741146 -176.694569 
L 469.054391 -177.393479 
L 469.398541 -178.09239 
L 469.775478 -178.7913 
L 470.188754 -179.49021 
L 470.643632 -180.189121 
L 471.147009 -180.888031 
L 471.707186 -181.586941 
L 472.333524 -182.285852 
L 473.035978 -182.984762 
L 473.824541 -183.683673 
L 474.708623 -184.382583 
L 475.696406 -185.081493 
L 476.794215 -185.780404 
L 478.005935 -186.479314 
L 479.332535 -187.178224 
L 480.771719 -187.877135 
L 482.317737 -188.576045 
L 483.961374 -189.274955 
L 485.690121 -189.973866 
L 487.488526 -190.672776 
L 489.338693 -191.371686 
L 491.220915 -192.070597 
L 493.114388 -192.769507 
L 494.997972 -193.468418 
L 496.850947 -194.167328 
L 498.653726 -194.866238 
L 500.388483 -195.565149 
L 502.039673 -196.264059 
L 503.594414 -196.962969 
L 505.042725 -197.66188 
L 506.377627 -198.36079 
L 507.595099 -199.0597 
L 508.693921 -199.758611 
L 509.675419 -200.457521 
L 510.543132 -201.156432 
L 511.302439 -201.855342 
L 511.960153 -202.554252 
L 512.524126 -203.253163 
L 513.002866 -203.952073 
L 513.405191 -204.650983 
L 513.739928 -205.349894 
L 514.01566 -206.048804 
L 516.08234 -206.048804 
L 516.08234 -206.048804 
L 516.358072 -205.349894 
L 516.692809 -204.650983 
L 517.095134 -203.952073 
L 517.573874 -203.253163 
L 518.137847 -202.554252 
L 518.795561 -201.855342 
L 519.554868 -201.156432 
L 520.422581 -200.457521 
L 521.404079 -199.758611 
L 522.502901 -199.0597 
L 523.720373 -198.36079 
L 525.055275 -197.66188 
L 526.503586 -196.962969 
L 528.058327 -196.264059 
L 529.709517 -195.565149 
L 531.444274 -194.866238 
L 533.247053 -194.167328 
L 535.100028 -193.468418 
L 536.983612 -192.769507 
L 538.877085 -192.070597 
L 540.759307 -191.371686 
L 542.609474 -190.672776 
L 544.407879 -189.973866 
L 546.136626 -189.274955 
L 547.780263 -188.576045 
L 549.326281 -187.877135 
L 550.765465 -187.178224 
L 552.092065 -186.479314 
L 553.303785 -185.780404 
L 554.401594 -185.081493 
L 555.389377 -184.382583 
L 556.273459 -183.683673 
L 557.062022 -182.984762 
L 557.764476 -182.285852 
L 558.390814 -181.586941 
L 558.950991 -180.888031 
L 559.454368 -180.189121 
L 559.909246 -179.49021 
L 560.322522 -178.7913 
L 560.699459 -178.09239 
L 561.043609 -177.393479 
L 561.356854 -176.694569 
L 561.639576 -175.995659 
L 561.890938 -175.296748 
L 562.10925 -174.597838 
L 562.292397 -173.898927 
L 562.438305 -173.200017 
L 562.545411 -172.501107 
L 562.613102 -171.802196 
L 562.642094 -171.103286 
L 562.634727 -170.404376 
L 562.595133 -169.705465 
L 562.529271 -169.006555 
L 562.444804 -168.307645 
L 562.350817 -167.608734 
L 562.257383 -166.909824 
L 562.174974 -166.210914 
L 562.113772 -165.512003 
L 562.082884 -164.813093 
L 562.089536 -164.114182 
L 562.138263 -163.415272 
L 562.230191 -162.716362 
L 562.362426 -162.017451 
L 562.527633 -161.318541 
L 562.713836 -160.619631 
L 562.904477 -159.92072 
L 563.078756 -159.22181 
L 563.212254 -158.5229 
L 563.277826 -157.823989 
L 563.24673 -157.125079 
L 563.089934 -156.426168 
L 562.779544 -155.727258 
L 562.290258 -155.028348 
L 561.600777 -154.329437 
L 560.695059 -153.630527 
L 559.563362 -152.931617 
L 558.202981 -152.232706 
L 556.618641 -151.533796 
L 554.822508 -150.834886 
L 552.83382 -150.135975 
L 550.678148 -149.437065 
L 548.386347 -148.738154 
L 545.993254 -148.039244 
L 543.536214 -147.340334 
L 541.053539 -146.641423 
L 538.582977 -145.942513 
L 536.16029 -145.243603 
L 533.818009 -144.544692 
L 531.584436 -143.845782 
L 529.482919 -143.146872 
L 527.531428 -142.447961 
L 525.742422 -141.749051 
L 524.122983 -141.050141 
L 522.675185 -140.35123 
L 521.396647 -139.65232 
L 520.281206 -138.953409 
L 519.319681 -138.254499 
L 518.500639 -137.555589 
L 517.811151 -136.856678 
z
" style="stroke: #434343; stroke-width: 1.5"/>
    </defs>
    <g clip-path="url(#p6d3c116c74)">
     <use xlink:href="#m58a4cdc297" x="0" y="432" style="fill: #4a9eb4; stroke: #434343; stroke-width: 1.5"/>
    </g>
   </g>
   <g id="PolyCollection_5">
    <defs>
     <path id="me2b32bb804" d="M 646.144478 -104.066334 
L 642.821522 -104.066334 
L 642.246476 -107.117163 
L 641.524899 -110.167991 
L 640.638373 -113.21882 
L 639.572322 -116.269649 
L 638.318142 -119.320478 
L 636.875337 -122.371307 
L 635.253387 -125.422136 
L 633.473117 -128.472965 
L 631.567282 -131.523794 
L 629.580172 -134.574623 
L 627.566131 -137.625452 
L 625.586978 -140.676281 
L 623.708475 -143.72711 
L 621.996124 -146.777939 
L 620.510672 -149.828767 
L 619.30376 -152.879596 
L 618.414196 -155.930425 
L 617.865232 -158.981254 
L 617.663143 -162.032083 
L 617.79726 -165.082912 
L 618.241416 -168.133741 
L 618.956632 -171.18457 
L 619.894708 -174.235399 
L 621.002324 -177.286228 
L 622.225206 -180.337057 
L 623.511946 -183.387886 
L 624.817147 -186.438714 
L 626.103649 -189.489543 
L 627.34374 -192.540372 
L 628.519363 -195.591201 
L 629.62142 -198.64203 
L 630.648404 -201.692859 
L 631.604553 -204.743688 
L 632.497826 -207.794517 
L 633.337909 -210.845346 
L 634.134471 -213.896175 
L 634.895807 -216.947004 
L 635.627958 -219.997833 
L 636.33433 -223.048662 
L 637.015761 -226.09949 
L 637.670961 -229.150319 
L 638.297189 -232.201148 
L 638.891042 -235.251977 
L 639.449218 -238.302806 
L 639.96915 -241.353635 
L 640.449422 -244.404464 
L 640.889953 -247.455293 
L 641.291939 -250.506122 
L 641.657618 -253.556951 
L 641.989908 -256.60778 
L 642.291999 -259.658609 
L 642.566988 -262.709438 
L 642.817583 -265.760266 
L 643.045938 -268.811095 
L 643.253602 -271.861924 
L 643.441577 -274.912753 
L 643.610456 -277.963582 
L 643.760592 -281.014411 
L 643.892261 -284.06524 
L 644.005804 -287.116069 
L 644.101701 -290.166898 
L 644.180596 -293.217727 
L 644.243268 -296.268556 
L 644.290555 -299.319385 
L 644.323266 -302.370214 
L 644.342088 -305.421042 
L 644.347519 -308.471871 
L 644.339834 -311.5227 
L 644.319101 -314.573529 
L 644.285245 -317.624358 
L 644.238167 -320.675187 
L 644.177899 -323.726016 
L 644.104785 -326.776845 
L 644.019663 -329.827674 
L 643.924025 -332.878503 
L 643.82013 -335.929332 
L 643.711039 -338.980161 
L 643.600561 -342.030989 
L 643.493105 -345.081818 
L 643.393433 -348.132647 
L 643.306339 -351.183476 
L 643.236284 -354.234305 
L 643.187029 -357.285134 
L 643.161307 -360.335963 
L 643.160572 -363.386792 
L 643.18487 -366.437621 
L 643.232829 -369.48845 
L 643.301797 -372.539279 
L 643.388076 -375.590108 
L 643.487257 -378.640937 
L 643.594587 -381.691765 
L 643.705346 -384.742594 
L 643.815176 -387.793423 
L 643.920346 -390.844252 
L 644.017923 -393.895081 
L 644.105851 -396.94591 
L 644.182943 -399.996739 
L 644.248793 -403.047568 
L 644.303651 -406.098397 
L 644.662349 -406.098397 
L 644.662349 -406.098397 
L 644.717207 -403.047568 
L 644.783057 -399.996739 
L 644.860149 -396.94591 
L 644.948077 -393.895081 
L 645.045654 -390.844252 
L 645.150824 -387.793423 
L 645.260654 -384.742594 
L 645.371413 -381.691765 
L 645.478743 -378.640937 
L 645.577924 -375.590108 
L 645.664203 -372.539279 
L 645.733171 -369.48845 
L 645.78113 -366.437621 
L 645.805428 -363.386792 
L 645.804693 -360.335963 
L 645.778971 -357.285134 
L 645.729716 -354.234305 
L 645.659661 -351.183476 
L 645.572567 -348.132647 
L 645.472895 -345.081818 
L 645.365439 -342.030989 
L 645.254961 -338.980161 
L 645.14587 -335.929332 
L 645.041975 -332.878503 
L 644.946337 -329.827674 
L 644.861215 -326.776845 
L 644.788101 -323.726016 
L 644.727833 -320.675187 
L 644.680755 -317.624358 
L 644.646899 -314.573529 
L 644.626166 -311.5227 
L 644.618481 -308.471871 
L 644.623912 -305.421042 
L 644.642734 -302.370214 
L 644.675445 -299.319385 
L 644.722732 -296.268556 
L 644.785404 -293.217727 
L 644.864299 -290.166898 
L 644.960196 -287.116069 
L 645.073739 -284.06524 
L 645.205408 -281.014411 
L 645.355544 -277.963582 
L 645.524423 -274.912753 
L 645.712398 -271.861924 
L 645.920062 -268.811095 
L 646.148417 -265.760266 
L 646.399012 -262.709438 
L 646.674001 -259.658609 
L 646.976092 -256.60778 
L 647.308382 -253.556951 
L 647.674061 -250.506122 
L 648.076047 -247.455293 
L 648.516578 -244.404464 
L 648.99685 -241.353635 
L 649.516782 -238.302806 
L 650.074958 -235.251977 
L 650.668811 -232.201148 
L 651.295039 -229.150319 
L 651.950239 -226.09949 
L 652.63167 -223.048662 
L 653.338042 -219.997833 
L 654.070193 -216.947004 
L 654.831529 -213.896175 
L 655.628091 -210.845346 
L 656.468174 -207.794517 
L 657.361447 -204.743688 
L 658.317596 -201.692859 
L 659.34458 -198.64203 
L 660.446637 -195.591201 
L 661.62226 -192.540372 
L 662.862351 -189.489543 
L 664.148853 -186.438714 
L 665.454054 -183.387886 
L 666.740794 -180.337057 
L 667.963676 -177.286228 
L 669.071292 -174.235399 
L 670.009368 -171.18457 
L 670.724584 -168.133741 
L 671.16874 -165.082912 
L 671.302857 -162.032083 
L 671.100768 -158.981254 
L 670.551804 -155.930425 
L 669.66224 -152.879596 
L 668.455328 -149.828767 
L 666.969876 -146.777939 
L 665.257525 -143.72711 
L 663.379022 -140.676281 
L 661.399869 -137.625452 
L 659.385828 -134.574623 
L 657.398718 -131.523794 
L 655.492883 -128.472965 
L 653.712613 -125.422136 
L 652.090663 -122.371307 
L 650.647858 -119.320478 
L 649.393678 -116.269649 
L 648.327627 -113.21882 
L 647.441101 -110.167991 
L 646.719524 -107.117163 
L 646.144478 -104.066334 
z
" style="stroke: #434343; stroke-width: 1.5"/>
    </defs>
    <g clip-path="url(#p6d3c116c74)">
     <use xlink:href="#me2b32bb804" x="0" y="432" style="fill: #c789e5; stroke: #434343; stroke-width: 1.5"/>
    </g>
   </g>
   <g id="matplotlib.axis_1">
    <g id="xtick_1">
     <g id="line2d_1">
      <defs>
       <path id="m1595241c79" d="M 0 0 
L 0 3.5 
" style="stroke: #000000; stroke-width: 0.8"/>
      </defs>
      <g>
       <use xlink:href="#m1595241c79" x="126.747" y="343.03527" style="stroke: #000000; stroke-width: 0.8"/>
      </g>
     </g>
     <g id="text_1">
      <!-- Reference -->
      <g transform="translate(110.895655 391.013212) rotate(-45) scale(0.1 -0.1)">
       <defs>
        <path id="DejaVuSans-52" d="M 2841 2188 
Q 3044 2119 3236 1894 
Q 3428 1669 3622 1275 
L 4263 0 
L 3584 0 
L 2988 1197 
Q 2756 1666 2539 1819 
Q 2322 1972 1947 1972 
L 1259 1972 
L 1259 0 
L 628 0 
L 628 4666 
L 2053 4666 
Q 2853 4666 3247 4331 
Q 3641 3997 3641 3322 
Q 3641 2881 3436 2590 
Q 3231 2300 2841 2188 
z
M 1259 4147 
L 1259 2491 
L 2053 2491 
Q 2509 2491 2742 2702 
Q 2975 2913 2975 3322 
Q 2975 3731 2742 3939 
Q 2509 4147 2053 4147 
L 1259 4147 
z
" transform="scale(0.015625)"/>
        <path id="DejaVuSans-65" d="M 3597 1894 
L 3597 1613 
L 953 1613 
Q 991 1019 1311 708 
Q 1631 397 2203 397 
Q 2534 397 2845 478 
Q 3156 559 3463 722 
L 3463 178 
Q 3153 47 2828 -22 
Q 2503 -91 2169 -91 
Q 1331 -91 842 396 
Q 353 884 353 1716 
Q 353 2575 817 3079 
Q 1281 3584 2069 3584 
Q 2775 3584 3186 3129 
Q 3597 2675 3597 1894 
z
M 3022 2063 
Q 3016 2534 2758 2815 
Q 2500 3097 2075 3097 
Q 1594 3097 1305 2825 
Q 1016 2553 972 2059 
L 3022 2063 
z
" transform="scale(0.015625)"/>
        <path id="DejaVuSans-66" d="M 2375 4863 
L 2375 4384 
L 1825 4384 
Q 1516 4384 1395 4259 
Q 1275 4134 1275 3809 
L 1275 3500 
L 2222 3500 
L 2222 3053 
L 1275 3053 
L 1275 0 
L 697 0 
L 697 3053 
L 147 3053 
L 147 3500 
L 697 3500 
L 697 3744 
Q 697 4328 969 4595 
Q 1241 4863 1831 4863 
L 2375 4863 
z
" transform="scale(0.015625)"/>
        <path id="DejaVuSans-72" d="M 2631 2963 
Q 2534 3019 2420 3045 
Q 2306 3072 2169 3072 
Q 1681 3072 1420 2755 
Q 1159 2438 1159 1844 
L 1159 0 
L 581 0 
L 581 3500 
L 1159 3500 
L 1159 2956 
Q 1341 3275 1631 3429 
Q 1922 3584 2338 3584 
Q 2397 3584 2469 3576 
Q 2541 3569 2628 3553 
L 2631 2963 
z
" transform="scale(0.015625)"/>
        <path id="DejaVuSans-6e" d="M 3513 2113 
L 3513 0 
L 2938 0 
L 2938 2094 
Q 2938 2591 2744 2837 
Q 2550 3084 2163 3084 
Q 1697 3084 1428 2787 
Q 1159 2491 1159 1978 
L 1159 0 
L 581 0 
L 581 3500 
L 1159 3500 
L 1159 2956 
Q 1366 3272 1645 3428 
Q 1925 3584 2291 3584 
Q 2894 3584 3203 3211 
Q 3513 2838 3513 2113 
z
" transform="scale(0.015625)"/>
        <path id="DejaVuSans-63" d="M 3122 3366 
L 3122 2828 
Q 2878 2963 2633 3030 
Q 2388 3097 2138 3097 
Q 1578 3097 1268 2742 
Q 959 2388 959 1747 
Q 959 1106 1268 751 
Q 1578 397 2138 397 
Q 2388 397 2633 464 
Q 2878 531 3122 666 
L 3122 134 
Q 2881 22 2623 -34 
Q 2366 -91 2075 -91 
Q 1284 -91 818 406 
Q 353 903 353 1747 
Q 353 2603 823 3093 
Q 1294 3584 2113 3584 
Q 2378 3584 2631 3529 
Q 2884 3475 3122 3366 
z
" transform="scale(0.015625)"/>
       </defs>
       <use xlink:href="#DejaVuSans-52"/>
       <use xlink:href="#DejaVuSans-65" x="64.982422"/>
       <use xlink:href="#DejaVuSans-66" x="126.505859"/>
       <use xlink:href="#DejaVuSans-65" x="161.710938"/>
       <use xlink:href="#DejaVuSans-72" x="223.234375"/>
       <use xlink:href="#DejaVuSans-65" x="262.097656"/>
       <use xlink:href="#DejaVuSans-6e" x="323.621094"/>
       <use xlink:href="#DejaVuSans-63" x="387"/>
       <use xlink:href="#DejaVuSans-65" x="441.980469"/>
      </g>
     </g>
    </g>
    <g id="xtick_2">
     <g id="line2d_2">
      <g>
       <use xlink:href="#m1595241c79" x="256.181" y="343.03527" style="stroke: #000000; stroke-width: 0.8"/>
      </g>
     </g>
     <g id="text_2">
      <!-- 24h 4ºC +PBS -->
      <g transform="translate(233.058056 405.55641) rotate(-45) scale(0.1 -0.1)">
       <defs>
        <path id="DejaVuSans-32" d="M 1228 531 
L 3431 531 
L 3431 0 
L 469 0 
L 469 531 
Q 828 903 1448 1529 
Q 2069 2156 2228 2338 
Q 2531 2678 2651 2914 
Q 2772 3150 2772 3378 
Q 2772 3750 2511 3984 
Q 2250 4219 1831 4219 
Q 1534 4219 1204 4116 
Q 875 4013 500 3803 
L 500 4441 
Q 881 4594 1212 4672 
Q 1544 4750 1819 4750 
Q 2544 4750 2975 4387 
Q 3406 4025 3406 3419 
Q 3406 3131 3298 2873 
Q 3191 2616 2906 2266 
Q 2828 2175 2409 1742 
Q 1991 1309 1228 531 
z
" transform="scale(0.015625)"/>
        <path id="DejaVuSans-34" d="M 2419 4116 
L 825 1625 
L 2419 1625 
L 2419 4116 
z
M 2253 4666 
L 3047 4666 
L 3047 1625 
L 3713 1625 
L 3713 1100 
L 3047 1100 
L 3047 0 
L 2419 0 
L 2419 1100 
L 313 1100 
L 313 1709 
L 2253 4666 
z
" transform="scale(0.015625)"/>
        <path id="DejaVuSans-68" d="M 3513 2113 
L 3513 0 
L 2938 0 
L 2938 2094 
Q 2938 2591 2744 2837 
Q 2550 3084 2163 3084 
Q 1697 3084 1428 2787 
Q 1159 2491 1159 1978 
L 1159 0 
L 581 0 
L 581 4863 
L 1159 4863 
L 1159 2956 
Q 1366 3272 1645 3428 
Q 1925 3584 2291 3584 
Q 2894 3584 3203 3211 
Q 3513 2838 3513 2113 
z
" transform="scale(0.015625)"/>
        <path id="DejaVuSans-20" transform="scale(0.015625)"/>
        <path id="DejaVuSans-ba" d="M 434 1850 
L 2584 1850 
L 2584 1466 
L 434 1466 
L 434 1850 
z
M 1509 4750 
Q 2069 4750 2391 4404 
Q 2713 4059 2713 3463 
Q 2713 2866 2391 2523 
Q 2069 2181 1509 2181 
Q 950 2181 625 2525 
Q 300 2869 300 3463 
Q 300 4059 625 4404 
Q 950 4750 1509 4750 
z
M 1509 4391 
Q 1181 4391 984 4139 
Q 788 3888 788 3463 
Q 788 3047 986 2797 
Q 1184 2547 1509 2547 
Q 1838 2547 2033 2797 
Q 2228 3047 2228 3463 
Q 2228 3891 2034 4141 
Q 1841 4391 1509 4391 
z
" transform="scale(0.015625)"/>
        <path id="DejaVuSans-43" d="M 4122 4306 
L 4122 3641 
Q 3803 3938 3442 4084 
Q 3081 4231 2675 4231 
Q 1875 4231 1450 3742 
Q 1025 3253 1025 2328 
Q 1025 1406 1450 917 
Q 1875 428 2675 428 
Q 3081 428 3442 575 
Q 3803 722 4122 1019 
L 4122 359 
Q 3791 134 3420 21 
Q 3050 -91 2638 -91 
Q 1578 -91 968 557 
Q 359 1206 359 2328 
Q 359 3453 968 4101 
Q 1578 4750 2638 4750 
Q 3056 4750 3426 4639 
Q 3797 4528 4122 4306 
z
" transform="scale(0.015625)"/>
        <path id="DejaVuSans-2b" d="M 2944 4013 
L 2944 2272 
L 4684 2272 
L 4684 1741 
L 2944 1741 
L 2944 0 
L 2419 0 
L 2419 1741 
L 678 1741 
L 678 2272 
L 2419 2272 
L 2419 4013 
L 2944 4013 
z
" transform="scale(0.015625)"/>
        <path id="DejaVuSans-50" d="M 1259 4147 
L 1259 2394 
L 2053 2394 
Q 2494 2394 2734 2622 
Q 2975 2850 2975 3272 
Q 2975 3691 2734 3919 
Q 2494 4147 2053 4147 
L 1259 4147 
z
M 628 4666 
L 2053 4666 
Q 2838 4666 3239 4311 
Q 3641 3956 3641 3272 
Q 3641 2581 3239 2228 
Q 2838 1875 2053 1875 
L 1259 1875 
L 1259 0 
L 628 0 
L 628 4666 
z
" transform="scale(0.015625)"/>
        <path id="DejaVuSans-42" d="M 1259 2228 
L 1259 519 
L 2272 519 
Q 2781 519 3026 730 
Q 3272 941 3272 1375 
Q 3272 1813 3026 2020 
Q 2781 2228 2272 2228 
L 1259 2228 
z
M 1259 4147 
L 1259 2741 
L 2194 2741 
Q 2656 2741 2882 2914 
Q 3109 3088 3109 3444 
Q 3109 3797 2882 3972 
Q 2656 4147 2194 4147 
L 1259 4147 
z
M 628 4666 
L 2241 4666 
Q 2963 4666 3353 4366 
Q 3744 4066 3744 3513 
Q 3744 3084 3544 2831 
Q 3344 2578 2956 2516 
Q 3422 2416 3680 2098 
Q 3938 1781 3938 1306 
Q 3938 681 3513 340 
Q 3088 0 2303 0 
L 628 0 
L 628 4666 
z
" transform="scale(0.015625)"/>
        <path id="DejaVuSans-53" d="M 3425 4513 
L 3425 3897 
Q 3066 4069 2747 4153 
Q 2428 4238 2131 4238 
Q 1616 4238 1336 4038 
Q 1056 3838 1056 3469 
Q 1056 3159 1242 3001 
Q 1428 2844 1947 2747 
L 2328 2669 
Q 3034 2534 3370 2195 
Q 3706 1856 3706 1288 
Q 3706 609 3251 259 
Q 2797 -91 1919 -91 
Q 1588 -91 1214 -16 
Q 841 59 441 206 
L 441 856 
Q 825 641 1194 531 
Q 1563 422 1919 422 
Q 2459 422 2753 634 
Q 3047 847 3047 1241 
Q 3047 1584 2836 1778 
Q 2625 1972 2144 2069 
L 1759 2144 
Q 1053 2284 737 2584 
Q 422 2884 422 3419 
Q 422 4038 858 4394 
Q 1294 4750 2059 4750 
Q 2388 4750 2728 4690 
Q 3069 4631 3425 4513 
z
" transform="scale(0.015625)"/>
       </defs>
       <use xlink:href="#DejaVuSans-32"/>
       <use xlink:href="#DejaVuSans-34" x="63.623047"/>
       <use xlink:href="#DejaVuSans-68" x="127.246094"/>
       <use xlink:href="#DejaVuSans-20" x="190.625"/>
       <use xlink:href="#DejaVuSans-34" x="222.412109"/>
       <use xlink:href="#DejaVuSans-ba" x="286.035156"/>
       <use xlink:href="#DejaVuSans-43" x="333.154297"/>
       <use xlink:href="#DejaVuSans-20" x="402.978516"/>
       <use xlink:href="#DejaVuSans-2b" x="434.765625"/>
       <use xlink:href="#DejaVuSans-50" x="518.554688"/>
       <use xlink:href="#DejaVuSans-42" x="578.857422"/>
       <use xlink:href="#DejaVuSans-53" x="645.710938"/>
      </g>
     </g>
    </g>
    <g id="xtick_3">
     <g id="line2d_3">
      <g>
       <use xlink:href="#m1595241c79" x="385.615" y="343.03527" style="stroke: #000000; stroke-width: 0.8"/>
      </g>
     </g>
     <g id="text_3">
      <!-- 72h 4ºC +PBS -->
      <g transform="translate(362.492056 405.55641) rotate(-45) scale(0.1 -0.1)">
       <defs>
        <path id="DejaVuSans-37" d="M 525 4666 
L 3525 4666 
L 3525 4397 
L 1831 0 
L 1172 0 
L 2766 4134 
L 525 4134 
L 525 4666 
z
" transform="scale(0.015625)"/>
       </defs>
       <use xlink:href="#DejaVuSans-37"/>
       <use xlink:href="#DejaVuSans-32" x="63.623047"/>
       <use xlink:href="#DejaVuSans-68" x="127.246094"/>
       <use xlink:href="#DejaVuSans-20" x="190.625"/>
       <use xlink:href="#DejaVuSans-34" x="222.412109"/>
       <use xlink:href="#DejaVuSans-ba" x="286.035156"/>
       <use xlink:href="#DejaVuSans-43" x="333.154297"/>
       <use xlink:href="#DejaVuSans-20" x="402.978516"/>
       <use xlink:href="#DejaVuSans-2b" x="434.765625"/>
       <use xlink:href="#DejaVuSans-50" x="518.554688"/>
       <use xlink:href="#DejaVuSans-42" x="578.857422"/>
       <use xlink:href="#DejaVuSans-53" x="645.710938"/>
      </g>
     </g>
    </g>
    <g id="xtick_4">
     <g id="line2d_4">
      <g>
       <use xlink:href="#m1595241c79" x="515.049" y="343.03527" style="stroke: #000000; stroke-width: 0.8"/>
      </g>
     </g>
     <g id="text_4">
      <!-- 24h 4ºC -PBS -->
      <g transform="translate(493.613168 402.182185) rotate(-45) scale(0.1 -0.1)">
       <defs>
        <path id="DejaVuSans-2d" d="M 313 2009 
L 1997 2009 
L 1997 1497 
L 313 1497 
L 313 2009 
z
" transform="scale(0.015625)"/>
       </defs>
       <use xlink:href="#DejaVuSans-32"/>
       <use xlink:href="#DejaVuSans-34" x="63.623047"/>
       <use xlink:href="#DejaVuSans-68" x="127.246094"/>
       <use xlink:href="#DejaVuSans-20" x="190.625"/>
       <use xlink:href="#DejaVuSans-34" x="222.412109"/>
       <use xlink:href="#DejaVuSans-ba" x="286.035156"/>
       <use xlink:href="#DejaVuSans-43" x="333.154297"/>
       <use xlink:href="#DejaVuSans-20" x="402.978516"/>
       <use xlink:href="#DejaVuSans-2d" x="434.765625"/>
       <use xlink:href="#DejaVuSans-50" x="470.849609"/>
       <use xlink:href="#DejaVuSans-42" x="531.152344"/>
       <use xlink:href="#DejaVuSans-53" x="598.005859"/>
      </g>
     </g>
    </g>
    <g id="xtick_5">
     <g id="line2d_5">
      <g>
       <use xlink:href="#m1595241c79" x="644.483" y="343.03527" style="stroke: #000000; stroke-width: 0.8"/>
      </g>
     </g>
     <g id="text_5">
      <!-- 72h 4ºC -PBS -->
      <g transform="translate(623.047168 402.182185) rotate(-45) scale(0.1 -0.1)">
       <use xlink:href="#DejaVuSans-37"/>
       <use xlink:href="#DejaVuSans-32" x="63.623047"/>
       <use xlink:href="#DejaVuSans-68" x="127.246094"/>
       <use xlink:href="#DejaVuSans-20" x="190.625"/>
       <use xlink:href="#DejaVuSans-34" x="222.412109"/>
       <use xlink:href="#DejaVuSans-ba" x="286.035156"/>
       <use xlink:href="#DejaVuSans-43" x="333.154297"/>
       <use xlink:href="#DejaVuSans-20" x="402.978516"/>
       <use xlink:href="#DejaVuSans-2d" x="434.765625"/>
       <use xlink:href="#DejaVuSans-50" x="470.849609"/>
       <use xlink:href="#DejaVuSans-42" x="531.152344"/>
       <use xlink:href="#DejaVuSans-53" x="598.005859"/>
      </g>
     </g>
    </g>
    <g id="text_6">
     <!-- Condition -->
     <g transform="translate(361.754844 418.625409) scale(0.1 -0.1)">
      <defs>
       <path id="DejaVuSans-6f" d="M 1959 3097 
Q 1497 3097 1228 2736 
Q 959 2375 959 1747 
Q 959 1119 1226 758 
Q 1494 397 1959 397 
Q 2419 397 2687 759 
Q 2956 1122 2956 1747 
Q 2956 2369 2687 2733 
Q 2419 3097 1959 3097 
z
M 1959 3584 
Q 2709 3584 3137 3096 
Q 3566 2609 3566 1747 
Q 3566 888 3137 398 
Q 2709 -91 1959 -91 
Q 1206 -91 779 398 
Q 353 888 353 1747 
Q 353 2609 779 3096 
Q 1206 3584 1959 3584 
z
" transform="scale(0.015625)"/>
       <path id="DejaVuSans-64" d="M 2906 2969 
L 2906 4863 
L 3481 4863 
L 3481 0 
L 2906 0 
L 2906 525 
Q 2725 213 2448 61 
Q 2172 -91 1784 -91 
Q 1150 -91 751 415 
Q 353 922 353 1747 
Q 353 2572 751 3078 
Q 1150 3584 1784 3584 
Q 2172 3584 2448 3432 
Q 2725 3281 2906 2969 
z
M 947 1747 
Q 947 1113 1208 752 
Q 1469 391 1925 391 
Q 2381 391 2643 752 
Q 2906 1113 2906 1747 
Q 2906 2381 2643 2742 
Q 2381 3103 1925 3103 
Q 1469 3103 1208 2742 
Q 947 2381 947 1747 
z
" transform="scale(0.015625)"/>
       <path id="DejaVuSans-69" d="M 603 3500 
L 1178 3500 
L 1178 0 
L 603 0 
L 603 3500 
z
M 603 4863 
L 1178 4863 
L 1178 4134 
L 603 4134 
L 603 4863 
z
" transform="scale(0.015625)"/>
       <path id="DejaVuSans-74" d="M 1172 4494 
L 1172 3500 
L 2356 3500 
L 2356 3053 
L 1172 3053 
L 1172 1153 
Q 1172 725 1289 603 
Q 1406 481 1766 481 
L 2356 481 
L 2356 0 
L 1766 0 
Q 1100 0 847 248 
Q 594 497 594 1153 
L 594 3053 
L 172 3053 
L 172 3500 
L 594 3500 
L 594 4494 
L 1172 4494 
z
" transform="scale(0.015625)"/>
      </defs>
      <use xlink:href="#DejaVuSans-43"/>
      <use xlink:href="#DejaVuSans-6f" x="69.824219"/>
      <use xlink:href="#DejaVuSans-6e" x="131.005859"/>
      <use xlink:href="#DejaVuSans-64" x="194.384766"/>
      <use xlink:href="#DejaVuSans-69" x="257.861328"/>
      <use xlink:href="#DejaVuSans-74" x="285.644531"/>
      <use xlink:href="#DejaVuSans-69" x="324.853516"/>
      <use xlink:href="#DejaVuSans-6f" x="352.636719"/>
      <use xlink:href="#DejaVuSans-6e" x="413.818359"/>
     </g>
    </g>
   </g>
   <g id="matplotlib.axis_2">
    <g id="ytick_1">
     <g id="line2d_6">
      <defs>
       <path id="m4e7b4a7924" d="M 0 0 
L -3.5 0 
" style="stroke: #000000; stroke-width: 0.8"/>
      </defs>
      <g>
       <use xlink:href="#m4e7b4a7924" x="62.03" y="332.195969" style="stroke: #000000; stroke-width: 0.8"/>
      </g>
     </g>
     <g id="text_7">
      <!-- −250 -->
      <g transform="translate(27.562813 335.995188) scale(0.1 -0.1)">
       <defs>
        <path id="DejaVuSans-2212" d="M 678 2272 
L 4684 2272 
L 4684 1741 
L 678 1741 
L 678 2272 
z
" transform="scale(0.015625)"/>
        <path id="DejaVuSans-35" d="M 691 4666 
L 3169 4666 
L 3169 4134 
L 1269 4134 
L 1269 2991 
Q 1406 3038 1543 3061 
Q 1681 3084 1819 3084 
Q 2600 3084 3056 2656 
Q 3513 2228 3513 1497 
Q 3513 744 3044 326 
Q 2575 -91 1722 -91 
Q 1428 -91 1123 -41 
Q 819 9 494 109 
L 494 744 
Q 775 591 1075 516 
Q 1375 441 1709 441 
Q 2250 441 2565 725 
Q 2881 1009 2881 1497 
Q 2881 1984 2565 2268 
Q 2250 2553 1709 2553 
Q 1456 2553 1204 2497 
Q 953 2441 691 2322 
L 691 4666 
z
" transform="scale(0.015625)"/>
        <path id="DejaVuSans-30" d="M 2034 4250 
Q 1547 4250 1301 3770 
Q 1056 3291 1056 2328 
Q 1056 1369 1301 889 
Q 1547 409 2034 409 
Q 2525 409 2770 889 
Q 3016 1369 3016 2328 
Q 3016 3291 2770 3770 
Q 2525 4250 2034 4250 
z
M 2034 4750 
Q 2819 4750 3233 4129 
Q 3647 3509 3647 2328 
Q 3647 1150 3233 529 
Q 2819 -91 2034 -91 
Q 1250 -91 836 529 
Q 422 1150 422 2328 
Q 422 3509 836 4129 
Q 1250 4750 2034 4750 
z
" transform="scale(0.015625)"/>
       </defs>
       <use xlink:href="#DejaVuSans-2212"/>
       <use xlink:href="#DejaVuSans-32" x="83.789062"/>
       <use xlink:href="#DejaVuSans-35" x="147.412109"/>
       <use xlink:href="#DejaVuSans-30" x="211.035156"/>
      </g>
     </g>
    </g>
    <g id="ytick_2">
     <g id="line2d_7">
      <g>
       <use xlink:href="#m4e7b4a7924" x="62.03" y="288.628968" style="stroke: #000000; stroke-width: 0.8"/>
      </g>
     </g>
     <g id="text_8">
      <!-- 0 -->
      <g transform="translate(48.6675 292.428186) scale(0.1 -0.1)">
       <use xlink:href="#DejaVuSans-30"/>
      </g>
     </g>
    </g>
    <g id="ytick_3">
     <g id="line2d_8">
      <g>
       <use xlink:href="#m4e7b4a7924" x="62.03" y="245.061966" style="stroke: #000000; stroke-width: 0.8"/>
      </g>
     </g>
     <g id="text_9">
      <!-- 250 -->
      <g transform="translate(35.9425 248.861185) scale(0.1 -0.1)">
       <use xlink:href="#DejaVuSans-32"/>
       <use xlink:href="#DejaVuSans-35" x="63.623047"/>
       <use xlink:href="#DejaVuSans-30" x="127.246094"/>
      </g>
     </g>
    </g>
    <g id="ytick_4">
     <g id="line2d_9">
      <g>
       <use xlink:href="#m4e7b4a7924" x="62.03" y="201.494964" style="stroke: #000000; stroke-width: 0.8"/>
      </g>
     </g>
     <g id="text_10">
      <!-- 500 -->
      <g transform="translate(35.9425 205.294183) scale(0.1 -0.1)">
       <use xlink:href="#DejaVuSans-35"/>
       <use xlink:href="#DejaVuSans-30" x="63.623047"/>
       <use xlink:href="#DejaVuSans-30" x="127.246094"/>
      </g>
     </g>
    </g>
    <g id="ytick_5">
     <g id="line2d_10">
      <g>
       <use xlink:href="#m4e7b4a7924" x="62.03" y="157.927963" style="stroke: #000000; stroke-width: 0.8"/>
      </g>
     </g>
     <g id="text_11">
      <!-- 750 -->
      <g transform="translate(35.9425 161.727182) scale(0.1 -0.1)">
       <use xlink:href="#DejaVuSans-37"/>
       <use xlink:href="#DejaVuSans-35" x="63.623047"/>
       <use xlink:href="#DejaVuSans-30" x="127.246094"/>
      </g>
     </g>
    </g>
    <g id="ytick_6">
     <g id="line2d_11">
      <g>
       <use xlink:href="#m4e7b4a7924" x="62.03" y="114.360961" style="stroke: #000000; stroke-width: 0.8"/>
      </g>
     </g>
     <g id="text_12">
      <!-- 1000 -->
      <g transform="translate(29.58 118.16018) scale(0.1 -0.1)">
       <defs>
        <path id="DejaVuSans-31" d="M 794 531 
L 1825 531 
L 1825 4091 
L 703 3866 
L 703 4441 
L 1819 4666 
L 2450 4666 
L 2450 531 
L 3481 531 
L 3481 0 
L 794 0 
L 794 531 
z
" transform="scale(0.015625)"/>
       </defs>
       <use xlink:href="#DejaVuSans-31"/>
       <use xlink:href="#DejaVuSans-30" x="63.623047"/>
       <use xlink:href="#DejaVuSans-30" x="127.246094"/>
       <use xlink:href="#DejaVuSans-30" x="190.869141"/>
      </g>
     </g>
    </g>
    <g id="ytick_7">
     <g id="line2d_12">
      <g>
       <use xlink:href="#m4e7b4a7924" x="62.03" y="70.79396" style="stroke: #000000; stroke-width: 0.8"/>
      </g>
     </g>
     <g id="text_13">
      <!-- 1250 -->
      <g transform="translate(29.58 74.593178) scale(0.1 -0.1)">
       <use xlink:href="#DejaVuSans-31"/>
       <use xlink:href="#DejaVuSans-32" x="63.623047"/>
       <use xlink:href="#DejaVuSans-35" x="127.246094"/>
       <use xlink:href="#DejaVuSans-30" x="190.869141"/>
      </g>
     </g>
    </g>
    <g id="ytick_8">
     <g id="line2d_13">
      <g>
       <use xlink:href="#m4e7b4a7924" x="62.03" y="27.226958" style="stroke: #000000; stroke-width: 0.8"/>
      </g>
     </g>
     <g id="text_14">
      <!-- 1500 -->
      <g transform="translate(29.58 31.026177) scale(0.1 -0.1)">
       <use xlink:href="#DejaVuSans-31"/>
       <use xlink:href="#DejaVuSans-35" x="63.623047"/>
       <use xlink:href="#DejaVuSans-30" x="127.246094"/>
       <use xlink:href="#DejaVuSans-30" x="190.869141"/>
      </g>
     </g>
    </g>
    <g id="text_15">
     <!-- $log([MMP9]/[Total Protein])$ -->
     <g transform="translate(21.462813 243.017635) rotate(-90) scale(0.1 -0.1)">
      <defs>
       <path id="DejaVuSans-Oblique-6c" d="M 1172 4863 
L 1747 4863 
L 800 0 
L 225 0 
L 1172 4863 
z
" transform="scale(0.015625)"/>
       <path id="DejaVuSans-Oblique-6f" d="M 1625 -91 
Q 1009 -91 651 289 
Q 294 669 294 1325 
Q 294 1706 417 2101 
Q 541 2497 738 2766 
Q 1047 3184 1428 3384 
Q 1809 3584 2291 3584 
Q 2888 3584 3255 3212 
Q 3622 2841 3622 2241 
Q 3622 1825 3500 1412 
Q 3378 1000 3181 728 
Q 2875 309 2494 109 
Q 2113 -91 1625 -91 
z
M 891 1344 
Q 891 869 1089 633 
Q 1288 397 1691 397 
Q 2269 397 2648 901 
Q 3028 1406 3028 2181 
Q 3028 2634 2825 2865 
Q 2622 3097 2228 3097 
Q 1903 3097 1650 2945 
Q 1397 2794 1197 2484 
Q 1050 2253 970 1956 
Q 891 1659 891 1344 
z
" transform="scale(0.015625)"/>
       <path id="DejaVuSans-Oblique-67" d="M 3816 3500 
L 3219 434 
Q 3047 -456 2561 -893 
Q 2075 -1331 1253 -1331 
Q 950 -1331 690 -1286 
Q 431 -1241 206 -1147 
L 313 -588 
Q 525 -725 762 -790 
Q 1000 -856 1269 -856 
Q 1816 -856 2167 -557 
Q 2519 -259 2631 300 
L 2681 563 
Q 2441 288 2122 144 
Q 1803 0 1434 0 
Q 903 0 598 351 
Q 294 703 294 1319 
Q 294 1803 478 2267 
Q 663 2731 997 3091 
Q 1219 3328 1514 3456 
Q 1809 3584 2131 3584 
Q 2484 3584 2746 3420 
Q 3009 3256 3138 2956 
L 3238 3500 
L 3816 3500 
z
M 2950 2216 
Q 2950 2641 2750 2872 
Q 2550 3103 2181 3103 
Q 1953 3103 1747 3012 
Q 1541 2922 1394 2759 
Q 1156 2491 1023 2127 
Q 891 1763 891 1375 
Q 891 944 1092 712 
Q 1294 481 1672 481 
Q 2219 481 2584 976 
Q 2950 1472 2950 2216 
z
" transform="scale(0.015625)"/>
       <path id="DejaVuSans-28" d="M 1984 4856 
Q 1566 4138 1362 3434 
Q 1159 2731 1159 2009 
Q 1159 1288 1364 580 
Q 1569 -128 1984 -844 
L 1484 -844 
Q 1016 -109 783 600 
Q 550 1309 550 2009 
Q 550 2706 781 3412 
Q 1013 4119 1484 4856 
L 1984 4856 
z
" transform="scale(0.015625)"/>
       <path id="DejaVuSans-5b" d="M 550 4863 
L 1875 4863 
L 1875 4416 
L 1125 4416 
L 1125 -397 
L 1875 -397 
L 1875 -844 
L 550 -844 
L 550 4863 
z
" transform="scale(0.015625)"/>
       <path id="DejaVuSans-Oblique-4d" d="M 1081 4666 
L 2028 4666 
L 2572 1522 
L 4378 4666 
L 5350 4666 
L 4441 0 
L 3828 0 
L 4622 4091 
L 2791 897 
L 2175 897 
L 1581 4103 
L 788 0 
L 172 0 
L 1081 4666 
z
" transform="scale(0.015625)"/>
       <path id="DejaVuSans-Oblique-50" d="M 1081 4666 
L 2541 4666 
Q 3178 4666 3512 4369 
Q 3847 4072 3847 3500 
Q 3847 2731 3353 2303 
Q 2859 1875 1966 1875 
L 1172 1875 
L 806 0 
L 172 0 
L 1081 4666 
z
M 1613 4147 
L 1275 2394 
L 2069 2394 
Q 2606 2394 2893 2669 
Q 3181 2944 3181 3456 
Q 3181 3784 2986 3965 
Q 2791 4147 2438 4147 
L 1613 4147 
z
" transform="scale(0.015625)"/>
       <path id="DejaVuSans-39" d="M 703 97 
L 703 672 
Q 941 559 1184 500 
Q 1428 441 1663 441 
Q 2288 441 2617 861 
Q 2947 1281 2994 2138 
Q 2813 1869 2534 1725 
Q 2256 1581 1919 1581 
Q 1219 1581 811 2004 
Q 403 2428 403 3163 
Q 403 3881 828 4315 
Q 1253 4750 1959 4750 
Q 2769 4750 3195 4129 
Q 3622 3509 3622 2328 
Q 3622 1225 3098 567 
Q 2575 -91 1691 -91 
Q 1453 -91 1209 -44 
Q 966 3 703 97 
z
M 1959 2075 
Q 2384 2075 2632 2365 
Q 2881 2656 2881 3163 
Q 2881 3666 2632 3958 
Q 2384 4250 1959 4250 
Q 1534 4250 1286 3958 
Q 1038 3666 1038 3163 
Q 1038 2656 1286 2365 
Q 1534 2075 1959 2075 
z
" transform="scale(0.015625)"/>
       <path id="DejaVuSans-5d" d="M 1947 4863 
L 1947 -844 
L 622 -844 
L 622 -397 
L 1369 -397 
L 1369 4416 
L 622 4416 
L 622 4863 
L 1947 4863 
z
" transform="scale(0.015625)"/>
       <path id="DejaVuSans-2f" d="M 1625 4666 
L 2156 4666 
L 531 -594 
L 0 -594 
L 1625 4666 
z
" transform="scale(0.015625)"/>
       <path id="DejaVuSans-Oblique-54" d="M 378 4666 
L 4325 4666 
L 4225 4134 
L 2559 4134 
L 1759 0 
L 1125 0 
L 1925 4134 
L 275 4134 
L 378 4666 
z
" transform="scale(0.015625)"/>
       <path id="DejaVuSans-Oblique-74" d="M 2706 3500 
L 2619 3053 
L 1472 3053 
L 1100 1153 
Q 1081 1047 1072 975 
Q 1063 903 1063 863 
Q 1063 663 1183 572 
Q 1303 481 1569 481 
L 2150 481 
L 2053 0 
L 1503 0 
Q 991 0 739 200 
Q 488 400 488 806 
Q 488 878 497 964 
Q 506 1050 525 1153 
L 897 3053 
L 409 3053 
L 500 3500 
L 978 3500 
L 1172 4494 
L 1747 4494 
L 1556 3500 
L 2706 3500 
z
" transform="scale(0.015625)"/>
       <path id="DejaVuSans-Oblique-61" d="M 3438 1997 
L 3047 0 
L 2472 0 
L 2578 531 
Q 2325 219 2001 64 
Q 1678 -91 1281 -91 
Q 834 -91 548 182 
Q 263 456 263 884 
Q 263 1497 752 1853 
Q 1241 2209 2100 2209 
L 2900 2209 
L 2931 2363 
Q 2938 2388 2941 2417 
Q 2944 2447 2944 2509 
Q 2944 2788 2717 2942 
Q 2491 3097 2081 3097 
Q 1800 3097 1504 3025 
Q 1209 2953 897 2809 
L 997 3341 
Q 1322 3463 1633 3523 
Q 1944 3584 2234 3584 
Q 2853 3584 3176 3315 
Q 3500 3047 3500 2534 
Q 3500 2431 3484 2292 
Q 3469 2153 3438 1997 
z
M 2816 1759 
L 2241 1759 
Q 1534 1759 1195 1570 
Q 856 1381 856 984 
Q 856 709 1029 553 
Q 1203 397 1509 397 
Q 1978 397 2328 733 
Q 2678 1069 2791 1631 
L 2816 1759 
z
" transform="scale(0.015625)"/>
       <path id="DejaVuSans-Oblique-72" d="M 2853 2969 
Q 2766 3016 2653 3041 
Q 2541 3066 2413 3066 
Q 1953 3066 1609 2717 
Q 1266 2369 1153 1784 
L 800 0 
L 225 0 
L 909 3500 
L 1484 3500 
L 1375 2956 
Q 1603 3259 1920 3421 
Q 2238 3584 2597 3584 
Q 2691 3584 2781 3573 
Q 2872 3563 2963 3538 
L 2853 2969 
z
" transform="scale(0.015625)"/>
       <path id="DejaVuSans-Oblique-65" d="M 3078 2063 
Q 3088 2113 3092 2166 
Q 3097 2219 3097 2272 
Q 3097 2653 2873 2875 
Q 2650 3097 2266 3097 
Q 1838 3097 1509 2826 
Q 1181 2556 1013 2059 
L 3078 2063 
z
M 3578 1613 
L 903 1613 
Q 884 1494 878 1425 
Q 872 1356 872 1306 
Q 872 872 1139 634 
Q 1406 397 1894 397 
Q 2269 397 2603 481 
Q 2938 566 3225 728 
L 3116 159 
Q 2806 34 2476 -28 
Q 2147 -91 1806 -91 
Q 1078 -91 686 257 
Q 294 606 294 1247 
Q 294 1794 489 2264 
Q 684 2734 1063 3103 
Q 1306 3334 1642 3459 
Q 1978 3584 2356 3584 
Q 2950 3584 3301 3228 
Q 3653 2872 3653 2272 
Q 3653 2128 3634 1964 
Q 3616 1800 3578 1613 
z
" transform="scale(0.015625)"/>
       <path id="DejaVuSans-Oblique-69" d="M 1172 4863 
L 1747 4863 
L 1606 4134 
L 1031 4134 
L 1172 4863 
z
M 909 3500 
L 1484 3500 
L 800 0 
L 225 0 
L 909 3500 
z
" transform="scale(0.015625)"/>
       <path id="DejaVuSans-Oblique-6e" d="M 3566 2113 
L 3156 0 
L 2578 0 
L 2988 2091 
Q 3016 2238 3031 2350 
Q 3047 2463 3047 2528 
Q 3047 2791 2881 2937 
Q 2716 3084 2419 3084 
Q 1956 3084 1622 2776 
Q 1288 2469 1184 1941 
L 800 0 
L 225 0 
L 903 3500 
L 1478 3500 
L 1363 2950 
Q 1603 3253 1940 3418 
Q 2278 3584 2650 3584 
Q 3113 3584 3367 3334 
Q 3622 3084 3622 2631 
Q 3622 2519 3608 2391 
Q 3594 2263 3566 2113 
z
" transform="scale(0.015625)"/>
       <path id="DejaVuSans-29" d="M 513 4856 
L 1013 4856 
Q 1481 4119 1714 3412 
Q 1947 2706 1947 2009 
Q 1947 1309 1714 600 
Q 1481 -109 1013 -844 
L 513 -844 
Q 928 -128 1133 580 
Q 1338 1288 1338 2009 
Q 1338 2731 1133 3434 
Q 928 4138 513 4856 
z
" transform="scale(0.015625)"/>
      </defs>
      <use xlink:href="#DejaVuSans-Oblique-6c" transform="translate(0 0.015625)"/>
      <use xlink:href="#DejaVuSans-Oblique-6f" transform="translate(27.783203 0.015625)"/>
      <use xlink:href="#DejaVuSans-Oblique-67" transform="translate(88.964844 0.015625)"/>
      <use xlink:href="#DejaVuSans-28" transform="translate(152.441406 0.015625)"/>
      <use xlink:href="#DejaVuSans-5b" transform="translate(191.455078 0.015625)"/>
      <use xlink:href="#DejaVuSans-Oblique-4d" transform="translate(230.46875 0.015625)"/>
      <use xlink:href="#DejaVuSans-Oblique-4d" transform="translate(316.748047 0.015625)"/>
      <use xlink:href="#DejaVuSans-Oblique-50" transform="translate(403.027344 0.015625)"/>
      <use xlink:href="#DejaVuSans-39" transform="translate(463.330078 0.015625)"/>
      <use xlink:href="#DejaVuSans-5d" transform="translate(526.953125 0.015625)"/>
      <use xlink:href="#DejaVuSans-2f" transform="translate(565.966797 0.015625)"/>
      <use xlink:href="#DejaVuSans-5b" transform="translate(599.658203 0.015625)"/>
      <use xlink:href="#DejaVuSans-Oblique-54" transform="translate(638.671875 0.015625)"/>
      <use xlink:href="#DejaVuSans-Oblique-6f" transform="translate(699.755859 0.015625)"/>
      <use xlink:href="#DejaVuSans-Oblique-74" transform="translate(760.9375 0.015625)"/>
      <use xlink:href="#DejaVuSans-Oblique-61" transform="translate(800.146484 0.015625)"/>
      <use xlink:href="#DejaVuSans-Oblique-6c" transform="translate(861.425781 0.015625)"/>
      <use xlink:href="#DejaVuSans-Oblique-50" transform="translate(889.208984 0.015625)"/>
      <use xlink:href="#DejaVuSans-Oblique-72" transform="translate(949.511719 0.015625)"/>
      <use xlink:href="#DejaVuSans-Oblique-6f" transform="translate(990.625 0.015625)"/>
      <use xlink:href="#DejaVuSans-Oblique-74" transform="translate(1051.806641 0.015625)"/>
      <use xlink:href="#DejaVuSans-Oblique-65" transform="translate(1091.015625 0.015625)"/>
      <use xlink:href="#DejaVuSans-Oblique-69" transform="translate(1152.539062 0.015625)"/>
      <use xlink:href="#DejaVuSans-Oblique-6e" transform="translate(1180.322266 0.015625)"/>
      <use xlink:href="#DejaVuSans-5d" transform="translate(1243.701172 0.015625)"/>
      <use xlink:href="#DejaVuSans-29" transform="translate(1282.714844 0.015625)"/>
     </g>
    </g>
   </g>
   <g id="line2d_14">
    <path d="M 126.747 283.696975 
L 126.747 239.538105 
" clip-path="url(#p6d3c116c74)" style="fill: none; stroke: #434343; stroke-width: 1.5; stroke-linecap: square"/>
   </g>
   <g id="line2d_15">
    <path d="M 126.747 273.404139 
L 126.747 255.335456 
" clip-path="url(#p6d3c116c74)" style="fill: none; stroke: #434343; stroke-width: 4.5; stroke-linecap: square"/>
   </g>
   <g id="line2d_16">
    <path d="M 256.181 283.485316 
L 256.181 215.389977 
" clip-path="url(#p6d3c116c74)" style="fill: none; stroke: #434343; stroke-width: 1.5; stroke-linecap: square"/>
   </g>
   <g id="line2d_17">
    <path d="M 256.181 276.842737 
L 256.181 240.0562 
" clip-path="url(#p6d3c116c74)" style="fill: none; stroke: #434343; stroke-width: 4.5; stroke-linecap: square"/>
   </g>
   <g id="line2d_18">
    <path d="M 385.615 283.26069 
L 385.615 231.244154 
" clip-path="url(#p6d3c116c74)" style="fill: none; stroke: #434343; stroke-width: 1.5; stroke-linecap: square"/>
   </g>
   <g id="line2d_19">
    <path d="M 385.615 278.87773 
L 385.615 251.218231 
" clip-path="url(#p6d3c116c74)" style="fill: none; stroke: #434343; stroke-width: 4.5; stroke-linecap: square"/>
   </g>
   <g id="line2d_20">
    <path d="M 515.049 281.612624 
L 515.049 239.481894 
" clip-path="url(#p6d3c116c74)" style="fill: none; stroke: #434343; stroke-width: 1.5; stroke-linecap: square"/>
   </g>
   <g id="line2d_21">
    <path d="M 515.049 275.147144 
L 515.049 252.513684 
" clip-path="url(#p6d3c116c74)" style="fill: none; stroke: #434343; stroke-width: 4.5; stroke-linecap: square"/>
   </g>
   <g id="line2d_22">
    <path d="M 644.483 283.786149 
L 644.483 210.106766 
" clip-path="url(#p6d3c116c74)" style="fill: none; stroke: #434343; stroke-width: 1.5; stroke-linecap: square"/>
   </g>
   <g id="line2d_23">
    <path d="M 644.483 276.712419 
L 644.483 237.331318 
" clip-path="url(#p6d3c116c74)" style="fill: none; stroke: #434343; stroke-width: 4.5; stroke-linecap: square"/>
   </g>
   <g id="patch_3">
    <path d="M 62.03 343.03527 
L 62.03 10.8 
" style="fill: none; stroke: #000000; stroke-width: 0.8; stroke-linejoin: miter; stroke-linecap: square"/>
   </g>
   <g id="patch_4">
    <path d="M 709.2 343.03527 
L 709.2 10.8 
" style="fill: none; stroke: #000000; stroke-width: 0.8; stroke-linejoin: miter; stroke-linecap: square"/>
   </g>
   <g id="patch_5">
    <path d="M 62.03 343.03527 
L 709.2 343.03527 
" style="fill: none; stroke: #000000; stroke-width: 0.8; stroke-linejoin: miter; stroke-linecap: square"/>
   </g>
   <g id="patch_6">
    <path d="M 62.03 10.8 
L 709.2 10.8 
" style="fill: none; stroke: #000000; stroke-width: 0.8; stroke-linejoin: miter; stroke-linecap: square"/>
   </g>
   <g id="PathCollection_1">
    <defs>
     <path id="m5b907c2e72" d="M 0 1.5 
C 0.397805 1.5 0.77937 1.341951 1.06066 1.06066 
C 1.341951 0.77937 1.5 0.397805 1.5 0 
C 1.5 -0.397805 1.341951 -0.77937 1.06066 -1.06066 
C 0.77937 -1.341951 0.397805 -1.5 0 -1.5 
C -0.397805 -1.5 -0.77937 -1.341951 -1.06066 -1.06066 
C -1.341951 -0.77937 -1.5 -0.397805 -1.5 0 
C -1.5 0.397805 -1.341951 0.77937 -1.06066 1.06066 
C -0.77937 1.341951 -0.397805 1.5 0 1.5 
z
" style="stroke: #434343"/>
    </defs>
    <g clip-path="url(#p6d3c116c74)">
     <use xlink:href="#m5b907c2e72" x="126.747" y="260.377148" style="fill: #ffffff; stroke: #434343"/>
    </g>
   </g>
   <g id="PathCollection_2">
    <g clip-path="url(#p6d3c116c74)">
     <use xlink:href="#m5b907c2e72" x="256.181" y="258.19563" style="fill: #ffffff; stroke: #434343"/>
    </g>
   </g>
   <g id="PathCollection_3">
    <g clip-path="url(#p6d3c116c74)">
     <use xlink:href="#m5b907c2e72" x="385.615" y="259.726151" style="fill: #ffffff; stroke: #434343"/>
    </g>
   </g>
   <g id="PathCollection_4">
    <g clip-path="url(#p6d3c116c74)">
     <use xlink:href="#m5b907c2e72" x="515.049" y="263.174685" style="fill: #ffffff; stroke: #434343"/>
    </g>
   </g>
   <g id="PathCollection_5">
    <g clip-path="url(#p6d3c116c74)">
     <use xlink:href="#m5b907c2e72" x="644.483" y="266.88177" style="fill: #ffffff; stroke: #434343"/>
    </g>
   </g>
  </g>
 </g>
 <defs>
  <clipPath id="p6d3c116c74">
   <rect x="62.03" y="10.8" width="647.17" height="332.23527"/>
  </clipPath>
 </defs>
</svg>
