<?xml version="1.0" encoding="utf-8" standalone="no"?>
<!DOCTYPE svg PUBLIC "-//W3C//DTD SVG 1.1//EN"
  "http://www.w3.org/Graphics/SVG/1.1/DTD/svg11.dtd">
<svg xmlns:xlink="http://www.w3.org/1999/xlink" width="720pt" height="432pt" viewBox="0 0 720 432" xmlns="http://www.w3.org/2000/svg" version="1.1">
 <metadata>
  <rdf:RDF xmlns:dc="http://purl.org/dc/elements/1.1/" xmlns:cc="http://creativecommons.org/ns#" xmlns:rdf="http://www.w3.org/1999/02/22-rdf-syntax-ns#">
   <cc:Work>
    <dc:type rdf:resource="http://purl.org/dc/dcmitype/StillImage"/>
    <dc:date>2024-09-30T14:08:29.088222</dc:date>
    <dc:format>image/svg+xml</dc:format>
    <dc:creator>
     <cc:Agent>
      <dc:title>Matplotlib v3.7.3, https://matplotlib.org/</dc:title>
     </cc:Agent>
    </dc:creator>
   </cc:Work>
  </rdf:RDF>
 </metadata>
 <defs>
  <style type="text/css">*{stroke-linejoin: round; stroke-linecap: butt}</style>
 </defs>
 <g id="figure_1">
  <g id="patch_1">
   <path d="M 0 432 
L 720 432 
L 720 0 
L 0 0 
z
" style="fill: #ffffff"/>
  </g>
  <g id="axes_1">
   <g id="patch_2">
    <path d="M 102.53 387.16 
L 709.2 387.16 
L 709.2 10.8 
L 102.53 10.8 
z
" style="fill: #ffffff"/>
   </g>
   <g id="PathCollection_1">
    <defs>
     <path id="C0_0_309022aa45" d="M 0 1.5 
C 0.397805 1.5 0.77937 1.341951 1.06066 1.06066 
C 1.341951 0.77937 1.5 0.397805 1.5 -0 
C 1.5 -0.397805 1.341951 -0.77937 1.06066 -1.06066 
C 0.77937 -1.341951 0.397805 -1.5 0 -1.5 
C -0.397805 -1.5 -0.77937 -1.341951 -1.06066 -1.06066 
C -1.341951 -0.77937 -1.5 -0.397805 -1.5 0 
C -1.5 0.397805 -1.341951 0.77937 -1.06066 1.06066 
C -0.77937 1.341951 -0.397805 1.5 0 1.5 
z
"/>
    </defs>
    <g clip-path="url(#pa38170d26c)">
     <use xlink:href="#C0_0_309022aa45" x="202.812247" y="54.143694" style="fill: #f77189"/>
    </g>
    <g clip-path="url(#pa38170d26c)">
     <use xlink:href="#C0_0_309022aa45" x="235.675995" y="60.932262" style="fill: #f77189"/>
    </g>
    <g clip-path="url(#pa38170d26c)">
     <use xlink:href="#C0_0_309022aa45" x="353.371803" y="58.506279" style="fill: #f77189"/>
    </g>
    <g clip-path="url(#pa38170d26c)">
     <use xlink:href="#C0_0_309022aa45" x="192.484251" y="58.168587" style="fill: #f77189"/>
    </g>
    <g clip-path="url(#pa38170d26c)">
     <use xlink:href="#C0_0_309022aa45" x="190.509526" y="67.91308" style="fill: #f77189"/>
    </g>
    <g clip-path="url(#pa38170d26c)">
     <use xlink:href="#C0_0_309022aa45" x="195.658807" y="65.356051" style="fill: #f77189"/>
    </g>
    <g clip-path="url(#pa38170d26c)">
     <use xlink:href="#C0_0_309022aa45" x="173.720789" y="58.400854" style="fill: #f77189"/>
    </g>
    <g clip-path="url(#pa38170d26c)">
     <use xlink:href="#C0_0_309022aa45" x="189.193425" y="66.991534" style="fill: #f77189"/>
    </g>
    <g clip-path="url(#pa38170d26c)">
     <use xlink:href="#C0_0_309022aa45" x="186.741863" y="53.645044" style="fill: #f77189"/>
    </g>
    <g clip-path="url(#pa38170d26c)">
     <use xlink:href="#C0_0_309022aa45" x="193.24268" y="56.703658" style="fill: #f77189"/>
    </g>
    <g clip-path="url(#pa38170d26c)">
     <use xlink:href="#C0_0_309022aa45" x="198.848494" y="55.097505" style="fill: #f77189"/>
    </g>
    <g clip-path="url(#pa38170d26c)">
     <use xlink:href="#C0_0_309022aa45" x="223.568395" y="62.446865" style="fill: #f77189"/>
    </g>
    <g clip-path="url(#pa38170d26c)">
     <use xlink:href="#C0_0_309022aa45" x="138.39788" y="60.553964" style="fill: #f77189"/>
    </g>
    <g clip-path="url(#pa38170d26c)">
     <use xlink:href="#C0_0_309022aa45" x="145.174773" y="57.885269" style="fill: #f77189"/>
    </g>
    <g clip-path="url(#pa38170d26c)">
     <use xlink:href="#C0_0_309022aa45" x="130.336008" y="55.714779" style="fill: #f77189"/>
    </g>
    <g clip-path="url(#pa38170d26c)">
     <use xlink:href="#C0_0_309022aa45" x="149.35172" y="61.789326" style="fill: #f77189"/>
    </g>
    <g clip-path="url(#pa38170d26c)">
     <use xlink:href="#C0_0_309022aa45" x="157.437916" y="54.40623" style="fill: #f77189"/>
    </g>
    <g clip-path="url(#pa38170d26c)">
     <use xlink:href="#C0_0_309022aa45" x="156.895218" y="59.731873" style="fill: #f77189"/>
    </g>
    <g clip-path="url(#pa38170d26c)">
     <use xlink:href="#C0_0_309022aa45" x="182.038383" y="56.310309" style="fill: #f77189"/>
    </g>
    <g clip-path="url(#pa38170d26c)">
     <use xlink:href="#C0_0_309022aa45" x="160.681719" y="55.598636" style="fill: #f77189"/>
    </g>
    <g clip-path="url(#pa38170d26c)">
     <use xlink:href="#C0_0_309022aa45" x="139.01655" y="60.907704" style="fill: #f77189"/>
    </g>
    <g clip-path="url(#pa38170d26c)">
     <use xlink:href="#C0_0_309022aa45" x="141.9979" y="64.282537" style="fill: #f77189"/>
    </g>
    <g clip-path="url(#pa38170d26c)">
     <use xlink:href="#C0_0_309022aa45" x="141.849508" y="65.248853" style="fill: #f77189"/>
    </g>
    <g clip-path="url(#pa38170d26c)">
     <use xlink:href="#C0_0_309022aa45" x="203.518899" y="66.317923" style="fill: #f77189"/>
    </g>
    <g clip-path="url(#pa38170d26c)">
     <use xlink:href="#C0_0_309022aa45" x="228.378805" y="56.860169" style="fill: #f77189"/>
    </g>
    <g clip-path="url(#pa38170d26c)">
     <use xlink:href="#C0_0_309022aa45" x="212.936253" y="59.044793" style="fill: #f77189"/>
    </g>
    <g clip-path="url(#pa38170d26c)">
     <use xlink:href="#C0_0_309022aa45" x="244.281731" y="54.125815" style="fill: #f77189"/>
    </g>
    <g clip-path="url(#pa38170d26c)">
     <use xlink:href="#C0_0_309022aa45" x="210.787603" y="67.70317" style="fill: #f77189"/>
    </g>
    <g clip-path="url(#pa38170d26c)">
     <use xlink:href="#C0_0_309022aa45" x="201.833014" y="63.163285" style="fill: #f77189"/>
    </g>
   </g>
   <g id="PathCollection_2">
    <defs>
     <path id="C1_0_be0dda6585" d="M 0 1.5 
C 0.397805 1.5 0.77937 1.341951 1.06066 1.06066 
C 1.341951 0.77937 1.5 0.397805 1.5 -0 
C 1.5 -0.397805 1.341951 -0.77937 1.06066 -1.06066 
C 0.77937 -1.341951 0.397805 -1.5 0 -1.5 
C -0.397805 -1.5 -0.77937 -1.341951 -1.06066 -1.06066 
C -1.341951 -0.77937 -1.5 -0.397805 -1.5 0 
C -1.5 0.397805 -1.341951 0.77937 -1.06066 1.06066 
C -0.77937 1.341951 -0.397805 1.5 0 1.5 
z
"/>
    </defs>
    <g clip-path="url(#pa38170d26c)">
     <use xlink:href="#C1_0_be0dda6585" x="245.471354" y="138.869185" style="fill: #ae9d31"/>
    </g>
    <g clip-path="url(#pa38170d26c)">
     <use xlink:href="#C1_0_be0dda6585" x="242.94486" y="131.566839" style="fill: #ae9d31"/>
    </g>
    <g clip-path="url(#pa38170d26c)">
     <use xlink:href="#C1_0_be0dda6585" x="256.885022" y="126.768935" style="fill: #ae9d31"/>
    </g>
    <g clip-path="url(#pa38170d26c)">
     <use xlink:href="#C1_0_be0dda6585" x="248.620134" y="126.293786" style="fill: #ae9d31"/>
    </g>
    <g clip-path="url(#pa38170d26c)">
     <use xlink:href="#C1_0_be0dda6585" x="190.686764" y="140.004571" style="fill: #ae9d31"/>
    </g>
    <g clip-path="url(#pa38170d26c)">
     <use xlink:href="#C1_0_be0dda6585" x="188.536703" y="128.450153" style="fill: #ae9d31"/>
    </g>
    <g clip-path="url(#pa38170d26c)">
     <use xlink:href="#C1_0_be0dda6585" x="167.256966" y="131.581808" style="fill: #ae9d31"/>
    </g>
    <g clip-path="url(#pa38170d26c)">
     <use xlink:href="#C1_0_be0dda6585" x="165.029235" y="140.135089" style="fill: #ae9d31"/>
    </g>
    <g clip-path="url(#pa38170d26c)">
     <use xlink:href="#C1_0_be0dda6585" x="183.041375" y="127.282373" style="fill: #ae9d31"/>
    </g>
    <g clip-path="url(#pa38170d26c)">
     <use xlink:href="#C1_0_be0dda6585" x="243.687766" y="128.729492" style="fill: #ae9d31"/>
    </g>
    <g clip-path="url(#pa38170d26c)">
     <use xlink:href="#C1_0_be0dda6585" x="203.102681" y="139.687388" style="fill: #ae9d31"/>
    </g>
    <g clip-path="url(#pa38170d26c)">
     <use xlink:href="#C1_0_be0dda6585" x="219.045351" y="133.707233" style="fill: #ae9d31"/>
    </g>
    <g clip-path="url(#pa38170d26c)">
     <use xlink:href="#C1_0_be0dda6585" x="132.449073" y="133.277052" style="fill: #ae9d31"/>
    </g>
    <g clip-path="url(#pa38170d26c)">
     <use xlink:href="#C1_0_be0dda6585" x="138.678077" y="139.205135" style="fill: #ae9d31"/>
    </g>
    <g clip-path="url(#pa38170d26c)">
     <use xlink:href="#C1_0_be0dda6585" x="130.882167" y="134.450113" style="fill: #ae9d31"/>
    </g>
    <g clip-path="url(#pa38170d26c)">
     <use xlink:href="#C1_0_be0dda6585" x="140.625202" y="131.262959" style="fill: #ae9d31"/>
    </g>
    <g clip-path="url(#pa38170d26c)">
     <use xlink:href="#C1_0_be0dda6585" x="148.022401" y="135.026742" style="fill: #ae9d31"/>
    </g>
    <g clip-path="url(#pa38170d26c)">
     <use xlink:href="#C1_0_be0dda6585" x="196.138626" y="139.607753" style="fill: #ae9d31"/>
    </g>
    <g clip-path="url(#pa38170d26c)">
     <use xlink:href="#C1_0_be0dda6585" x="153.915948" y="134.279059" style="fill: #ae9d31"/>
    </g>
    <g clip-path="url(#pa38170d26c)">
     <use xlink:href="#C1_0_be0dda6585" x="297.203525" y="126.194313" style="fill: #ae9d31"/>
    </g>
    <g clip-path="url(#pa38170d26c)">
     <use xlink:href="#C1_0_be0dda6585" x="134.848901" y="126.52408" style="fill: #ae9d31"/>
    </g>
    <g clip-path="url(#pa38170d26c)">
     <use xlink:href="#C1_0_be0dda6585" x="139.05249" y="128.051412" style="fill: #ae9d31"/>
    </g>
    <g clip-path="url(#pa38170d26c)">
     <use xlink:href="#C1_0_be0dda6585" x="136.064708" y="135.897983" style="fill: #ae9d31"/>
    </g>
    <g clip-path="url(#pa38170d26c)">
     <use xlink:href="#C1_0_be0dda6585" x="218.72978" y="132.741971" style="fill: #ae9d31"/>
    </g>
    <g clip-path="url(#pa38170d26c)">
     <use xlink:href="#C1_0_be0dda6585" x="238.272786" y="127.908358" style="fill: #ae9d31"/>
    </g>
    <g clip-path="url(#pa38170d26c)">
     <use xlink:href="#C1_0_be0dda6585" x="226.303444" y="132.625514" style="fill: #ae9d31"/>
    </g>
    <g clip-path="url(#pa38170d26c)">
     <use xlink:href="#C1_0_be0dda6585" x="306.59256" y="133.14224" style="fill: #ae9d31"/>
    </g>
    <g clip-path="url(#pa38170d26c)">
     <use xlink:href="#C1_0_be0dda6585" x="240.920312" y="134.113109" style="fill: #ae9d31"/>
    </g>
    <g clip-path="url(#pa38170d26c)">
     <use xlink:href="#C1_0_be0dda6585" x="247.141876" y="137.135823" style="fill: #ae9d31"/>
    </g>
   </g>
   <g id="PathCollection_3">
    <defs>
     <path id="C2_0_13c908ca80" d="M 0 1.5 
C 0.397805 1.5 0.77937 1.341951 1.06066 1.06066 
C 1.341951 0.77937 1.5 0.397805 1.5 -0 
C 1.5 -0.397805 1.341951 -0.77937 1.06066 -1.06066 
C 0.77937 -1.341951 0.397805 -1.5 0 -1.5 
C -0.397805 -1.5 -0.77937 -1.341951 -1.06066 -1.06066 
C -1.341951 -0.77937 -1.5 -0.397805 -1.5 0 
C -1.5 0.397805 -1.341951 0.77937 -1.06066 1.06066 
C -0.77937 1.341951 -0.397805 1.5 0 1.5 
z
"/>
    </defs>
    <g clip-path="url(#pa38170d26c)">
     <use xlink:href="#C2_0_13c908ca80" x="214.636603" y="204.352276" style="fill: #33b07a"/>
    </g>
    <g clip-path="url(#pa38170d26c)">
     <use xlink:href="#C2_0_13c908ca80" x="200.328039" y="207.873042" style="fill: #33b07a"/>
    </g>
    <g clip-path="url(#pa38170d26c)">
     <use xlink:href="#C2_0_13c908ca80" x="219.035317" y="210.638918" style="fill: #33b07a"/>
    </g>
    <g clip-path="url(#pa38170d26c)">
     <use xlink:href="#C2_0_13c908ca80" x="158.45861" y="209.159958" style="fill: #33b07a"/>
    </g>
    <g clip-path="url(#pa38170d26c)">
     <use xlink:href="#C2_0_13c908ca80" x="199.198993" y="205.755679" style="fill: #33b07a"/>
    </g>
    <g clip-path="url(#pa38170d26c)">
     <use xlink:href="#C2_0_13c908ca80" x="241.691078" y="209.834042" style="fill: #33b07a"/>
    </g>
    <g clip-path="url(#pa38170d26c)">
     <use xlink:href="#C2_0_13c908ca80" x="191.937418" y="201.885567" style="fill: #33b07a"/>
    </g>
    <g clip-path="url(#pa38170d26c)">
     <use xlink:href="#C2_0_13c908ca80" x="167.297116" y="211.063282" style="fill: #33b07a"/>
    </g>
    <g clip-path="url(#pa38170d26c)">
     <use xlink:href="#C2_0_13c908ca80" x="159.676823" y="204.188435" style="fill: #33b07a"/>
    </g>
    <g clip-path="url(#pa38170d26c)">
     <use xlink:href="#C2_0_13c908ca80" x="265.683097" y="205.369865" style="fill: #33b07a"/>
    </g>
    <g clip-path="url(#pa38170d26c)">
     <use xlink:href="#C2_0_13c908ca80" x="226.928493" y="204.413471" style="fill: #33b07a"/>
    </g>
    <g clip-path="url(#pa38170d26c)">
     <use xlink:href="#C2_0_13c908ca80" x="228.770076" y="200.246324" style="fill: #33b07a"/>
    </g>
    <g clip-path="url(#pa38170d26c)">
     <use xlink:href="#C2_0_13c908ca80" x="135.322964" y="212.719671" style="fill: #33b07a"/>
    </g>
    <g clip-path="url(#pa38170d26c)">
     <use xlink:href="#C2_0_13c908ca80" x="140.785838" y="203.43978" style="fill: #33b07a"/>
    </g>
    <g clip-path="url(#pa38170d26c)">
     <use xlink:href="#C2_0_13c908ca80" x="132.815965" y="210.285467" style="fill: #33b07a"/>
    </g>
    <g clip-path="url(#pa38170d26c)">
     <use xlink:href="#C2_0_13c908ca80" x="148.72805" y="201.716275" style="fill: #33b07a"/>
    </g>
    <g clip-path="url(#pa38170d26c)">
     <use xlink:href="#C2_0_13c908ca80" x="139.101465" y="200.526767" style="fill: #33b07a"/>
    </g>
    <g clip-path="url(#pa38170d26c)">
     <use xlink:href="#C2_0_13c908ca80" x="139.794868" y="210.387314" style="fill: #33b07a"/>
    </g>
    <g clip-path="url(#pa38170d26c)">
     <use xlink:href="#C2_0_13c908ca80" x="172.800635" y="211.095939" style="fill: #33b07a"/>
    </g>
    <g clip-path="url(#pa38170d26c)">
     <use xlink:href="#C2_0_13c908ca80" x="179.611462" y="212.872804" style="fill: #33b07a"/>
    </g>
    <g clip-path="url(#pa38170d26c)">
     <use xlink:href="#C2_0_13c908ca80" x="216.474929" y="208.786317" style="fill: #33b07a"/>
    </g>
    <g clip-path="url(#pa38170d26c)">
     <use xlink:href="#C2_0_13c908ca80" x="140.428911" y="199.485489" style="fill: #33b07a"/>
    </g>
    <g clip-path="url(#pa38170d26c)">
     <use xlink:href="#C2_0_13c908ca80" x="137.843783" y="205.042795" style="fill: #33b07a"/>
    </g>
    <g clip-path="url(#pa38170d26c)">
     <use xlink:href="#C2_0_13c908ca80" x="131.461781" y="201.006696" style="fill: #33b07a"/>
    </g>
    <g clip-path="url(#pa38170d26c)">
     <use xlink:href="#C2_0_13c908ca80" x="193.948545" y="205.869195" style="fill: #33b07a"/>
    </g>
    <g clip-path="url(#pa38170d26c)">
     <use xlink:href="#C2_0_13c908ca80" x="192.441247" y="199.276038" style="fill: #33b07a"/>
    </g>
    <g clip-path="url(#pa38170d26c)">
     <use xlink:href="#C2_0_13c908ca80" x="199.081902" y="211.738266" style="fill: #33b07a"/>
    </g>
    <g clip-path="url(#pa38170d26c)">
     <use xlink:href="#C2_0_13c908ca80" x="234.263809" y="199.046985" style="fill: #33b07a"/>
    </g>
    <g clip-path="url(#pa38170d26c)">
     <use xlink:href="#C2_0_13c908ca80" x="212.661458" y="200.701192" style="fill: #33b07a"/>
    </g>
    <g clip-path="url(#pa38170d26c)">
     <use xlink:href="#C2_0_13c908ca80" x="196.178903" y="210.471504" style="fill: #33b07a"/>
    </g>
   </g>
   <g id="PathCollection_4">
    <defs>
     <path id="C3_0_fd20510c3a" d="M 0 1.5 
C 0.397805 1.5 0.77937 1.341951 1.06066 1.06066 
C 1.341951 0.77937 1.5 0.397805 1.5 -0 
C 1.5 -0.397805 1.341951 -0.77937 1.06066 -1.06066 
C 0.77937 -1.341951 0.397805 -1.5 0 -1.5 
C -0.397805 -1.5 -0.77937 -1.341951 -1.06066 -1.06066 
C -1.341951 -0.77937 -1.5 -0.397805 -1.5 0 
C -1.5 0.397805 -1.341951 0.77937 -1.06066 1.06066 
C -0.77937 1.341951 -0.397805 1.5 0 1.5 
z
"/>
    </defs>
    <g clip-path="url(#pa38170d26c)">
     <use xlink:href="#C3_0_fd20510c3a" x="234.800417" y="283.028994" style="fill: #38a9c5"/>
    </g>
    <g clip-path="url(#pa38170d26c)">
     <use xlink:href="#C3_0_fd20510c3a" x="207.552146" y="282.366229" style="fill: #38a9c5"/>
    </g>
    <g clip-path="url(#pa38170d26c)">
     <use xlink:href="#C3_0_fd20510c3a" x="225.343753" y="271.362801" style="fill: #38a9c5"/>
    </g>
    <g clip-path="url(#pa38170d26c)">
     <use xlink:href="#C3_0_fd20510c3a" x="207.9634" y="283.320115" style="fill: #38a9c5"/>
    </g>
    <g clip-path="url(#pa38170d26c)">
     <use xlink:href="#C3_0_fd20510c3a" x="229.190032" y="284.891271" style="fill: #38a9c5"/>
    </g>
    <g clip-path="url(#pa38170d26c)">
     <use xlink:href="#C3_0_fd20510c3a" x="214.116336" y="272.122735" style="fill: #38a9c5"/>
    </g>
    <g clip-path="url(#pa38170d26c)">
     <use xlink:href="#C3_0_fd20510c3a" x="174.869634" y="278.914437" style="fill: #38a9c5"/>
    </g>
    <g clip-path="url(#pa38170d26c)">
     <use xlink:href="#C3_0_fd20510c3a" x="153.052866" y="278.271877" style="fill: #38a9c5"/>
    </g>
    <g clip-path="url(#pa38170d26c)">
     <use xlink:href="#C3_0_fd20510c3a" x="180.248222" y="275.86112" style="fill: #38a9c5"/>
    </g>
    <g clip-path="url(#pa38170d26c)">
     <use xlink:href="#C3_0_fd20510c3a" x="201.129887" y="271.819737" style="fill: #38a9c5"/>
    </g>
    <g clip-path="url(#pa38170d26c)">
     <use xlink:href="#C3_0_fd20510c3a" x="192.671242" y="276.758629" style="fill: #38a9c5"/>
    </g>
    <g clip-path="url(#pa38170d26c)">
     <use xlink:href="#C3_0_fd20510c3a" x="229.768819" y="277.662388" style="fill: #38a9c5"/>
    </g>
    <g clip-path="url(#pa38170d26c)">
     <use xlink:href="#C3_0_fd20510c3a" x="158.681863" y="275.592456" style="fill: #38a9c5"/>
    </g>
    <g clip-path="url(#pa38170d26c)">
     <use xlink:href="#C3_0_fd20510c3a" x="136.614504" y="281.389618" style="fill: #38a9c5"/>
    </g>
    <g clip-path="url(#pa38170d26c)">
     <use xlink:href="#C3_0_fd20510c3a" x="137.195136" y="277.677361" style="fill: #38a9c5"/>
    </g>
    <g clip-path="url(#pa38170d26c)">
     <use xlink:href="#C3_0_fd20510c3a" x="140.877335" y="276.651737" style="fill: #38a9c5"/>
    </g>
    <g clip-path="url(#pa38170d26c)">
     <use xlink:href="#C3_0_fd20510c3a" x="135.714383" y="275.322086" style="fill: #38a9c5"/>
    </g>
    <g clip-path="url(#pa38170d26c)">
     <use xlink:href="#C3_0_fd20510c3a" x="152.179232" y="282.133922" style="fill: #38a9c5"/>
    </g>
    <g clip-path="url(#pa38170d26c)">
     <use xlink:href="#C3_0_fd20510c3a" x="167.880485" y="278.024046" style="fill: #38a9c5"/>
    </g>
    <g clip-path="url(#pa38170d26c)">
     <use xlink:href="#C3_0_fd20510c3a" x="166.539525" y="279.196274" style="fill: #38a9c5"/>
    </g>
    <g clip-path="url(#pa38170d26c)">
     <use xlink:href="#C3_0_fd20510c3a" x="211.745643" y="275.531977" style="fill: #38a9c5"/>
    </g>
    <g clip-path="url(#pa38170d26c)">
     <use xlink:href="#C3_0_fd20510c3a" x="141.401725" y="274.287491" style="fill: #38a9c5"/>
    </g>
    <g clip-path="url(#pa38170d26c)">
     <use xlink:href="#C3_0_fd20510c3a" x="140.914517" y="278.706231" style="fill: #38a9c5"/>
    </g>
    <g clip-path="url(#pa38170d26c)">
     <use xlink:href="#C3_0_fd20510c3a" x="147.584604" y="273.12333" style="fill: #38a9c5"/>
    </g>
    <g clip-path="url(#pa38170d26c)">
     <use xlink:href="#C3_0_fd20510c3a" x="191.893123" y="285.341242" style="fill: #38a9c5"/>
    </g>
    <g clip-path="url(#pa38170d26c)">
     <use xlink:href="#C3_0_fd20510c3a" x="180.513267" y="279.55815" style="fill: #38a9c5"/>
    </g>
    <g clip-path="url(#pa38170d26c)">
     <use xlink:href="#C3_0_fd20510c3a" x="186.068489" y="283.642405" style="fill: #38a9c5"/>
    </g>
    <g clip-path="url(#pa38170d26c)">
     <use xlink:href="#C3_0_fd20510c3a" x="190.000015" y="279.4446" style="fill: #38a9c5"/>
    </g>
    <g clip-path="url(#pa38170d26c)">
     <use xlink:href="#C3_0_fd20510c3a" x="230.765914" y="283.560392" style="fill: #38a9c5"/>
    </g>
    <g clip-path="url(#pa38170d26c)">
     <use xlink:href="#C3_0_fd20510c3a" x="244.426775" y="284.568709" style="fill: #38a9c5"/>
    </g>
   </g>
   <g id="PathCollection_5">
    <defs>
     <path id="C4_0_ec7069764b" d="M 0 1.5 
C 0.397805 1.5 0.77937 1.341951 1.06066 1.06066 
C 1.341951 0.77937 1.5 0.397805 1.5 -0 
C 1.5 -0.397805 1.341951 -0.77937 1.06066 -1.06066 
C 0.77937 -1.341951 0.397805 -1.5 0 -1.5 
C -0.397805 -1.5 -0.77937 -1.341951 -1.06066 -1.06066 
C -1.341951 -0.77937 -1.5 -0.397805 -1.5 0 
C -1.5 0.397805 -1.341951 0.77937 -1.06066 1.06066 
C -0.77937 1.341951 -0.397805 1.5 0 1.5 
z
"/>
    </defs>
    <g clip-path="url(#pa38170d26c)">
     <use xlink:href="#C4_0_ec7069764b" x="311.525494" y="350.53031" style="fill: #cc7af4"/>
    </g>
    <g clip-path="url(#pa38170d26c)">
     <use xlink:href="#C4_0_ec7069764b" x="266.235516" y="350.433891" style="fill: #cc7af4"/>
    </g>
    <g clip-path="url(#pa38170d26c)">
     <use xlink:href="#C4_0_ec7069764b" x="403.323985" y="349.424936" style="fill: #cc7af4"/>
    </g>
    <g clip-path="url(#pa38170d26c)">
     <use xlink:href="#C4_0_ec7069764b" x="173.585332" y="352.53497" style="fill: #cc7af4"/>
    </g>
    <g clip-path="url(#pa38170d26c)">
     <use xlink:href="#C4_0_ec7069764b" x="182.214268" y="353.361007" style="fill: #cc7af4"/>
    </g>
    <g clip-path="url(#pa38170d26c)">
     <use xlink:href="#C4_0_ec7069764b" x="149.414049" y="354.811942" style="fill: #cc7af4"/>
    </g>
    <g clip-path="url(#pa38170d26c)">
     <use xlink:href="#C4_0_ec7069764b" x="310.703521" y="344.253012" style="fill: #cc7af4"/>
    </g>
    <g clip-path="url(#pa38170d26c)">
     <use xlink:href="#C4_0_ec7069764b" x="203.320616" y="351.126585" style="fill: #cc7af4"/>
    </g>
    <g clip-path="url(#pa38170d26c)">
     <use xlink:href="#C4_0_ec7069764b" x="171.113311" y="350.342351" style="fill: #cc7af4"/>
    </g>
    <g clip-path="url(#pa38170d26c)">
     <use xlink:href="#C4_0_ec7069764b" x="235.893066" y="353.529312" style="fill: #cc7af4"/>
    </g>
    <g clip-path="url(#pa38170d26c)">
     <use xlink:href="#C4_0_ec7069764b" x="204.68362" y="350.258667" style="fill: #cc7af4"/>
    </g>
    <g clip-path="url(#pa38170d26c)">
     <use xlink:href="#C4_0_ec7069764b" x="218.327067" y="357.890601" style="fill: #cc7af4"/>
    </g>
    <g clip-path="url(#pa38170d26c)">
     <use xlink:href="#C4_0_ec7069764b" x="130.677743" y="356.243248" style="fill: #cc7af4"/>
    </g>
    <g clip-path="url(#pa38170d26c)">
     <use xlink:href="#C4_0_ec7069764b" x="130.105909" y="350.516166" style="fill: #cc7af4"/>
    </g>
    <g clip-path="url(#pa38170d26c)">
     <use xlink:href="#C4_0_ec7069764b" x="132.470863" y="344.777752" style="fill: #cc7af4"/>
    </g>
    <g clip-path="url(#pa38170d26c)">
     <use xlink:href="#C4_0_ec7069764b" x="155.309705" y="349.020981" style="fill: #cc7af4"/>
    </g>
    <g clip-path="url(#pa38170d26c)">
     <use xlink:href="#C4_0_ec7069764b" x="147.175292" y="349.534076" style="fill: #cc7af4"/>
    </g>
    <g clip-path="url(#pa38170d26c)">
     <use xlink:href="#C4_0_ec7069764b" x="152.744158" y="345.703338" style="fill: #cc7af4"/>
    </g>
    <g clip-path="url(#pa38170d26c)">
     <use xlink:href="#C4_0_ec7069764b" x="164.176221" y="355.13528" style="fill: #cc7af4"/>
    </g>
    <g clip-path="url(#pa38170d26c)">
     <use xlink:href="#C4_0_ec7069764b" x="320.225138" y="357.509191" style="fill: #cc7af4"/>
    </g>
    <g clip-path="url(#pa38170d26c)">
     <use xlink:href="#C4_0_ec7069764b" x="148.006874" y="348.714517" style="fill: #cc7af4"/>
    </g>
    <g clip-path="url(#pa38170d26c)">
     <use xlink:href="#C4_0_ec7069764b" x="132.129207" y="357.424573" style="fill: #cc7af4"/>
    </g>
    <g clip-path="url(#pa38170d26c)">
     <use xlink:href="#C4_0_ec7069764b" x="131.805872" y="344.130708" style="fill: #cc7af4"/>
    </g>
    <g clip-path="url(#pa38170d26c)">
     <use xlink:href="#C4_0_ec7069764b" x="133.989005" y="355.31633" style="fill: #cc7af4"/>
    </g>
    <g clip-path="url(#pa38170d26c)">
     <use xlink:href="#C4_0_ec7069764b" x="173.865206" y="353.735423" style="fill: #cc7af4"/>
    </g>
    <g clip-path="url(#pa38170d26c)">
     <use xlink:href="#C4_0_ec7069764b" x="174.68161" y="352.296546" style="fill: #cc7af4"/>
    </g>
    <g clip-path="url(#pa38170d26c)">
     <use xlink:href="#C4_0_ec7069764b" x="167.587327" y="348.929507" style="fill: #cc7af4"/>
    </g>
    <g clip-path="url(#pa38170d26c)">
     <use xlink:href="#C4_0_ec7069764b" x="277.686125" y="348.451929" style="fill: #cc7af4"/>
    </g>
    <g clip-path="url(#pa38170d26c)">
     <use xlink:href="#C4_0_ec7069764b" x="254.670353" y="356.58093" style="fill: #cc7af4"/>
    </g>
    <g clip-path="url(#pa38170d26c)">
     <use xlink:href="#C4_0_ec7069764b" x="681.624091" y="346.467158" style="fill: #cc7af4"/>
    </g>
   </g>
   <g id="PolyCollection_1">
    <defs>
     <path id="m143e450683" d="M 130.336008 -385.831229 
L 130.336008 -394.372115 
L 132.588895 -396.228073 
L 134.841782 -398.00848 
L 137.094669 -399.56245 
L 139.347556 -400.756989 
L 141.600442 -401.506253 
L 143.853329 -401.789749 
L 146.106216 -401.651338 
L 148.359103 -401.178707 
L 150.61199 -400.47212 
L 152.864877 -399.616469 
L 155.117763 -398.668629 
L 157.37065 -397.663755 
L 159.623537 -396.634226 
L 161.876424 -395.629044 
L 164.129311 -394.722795 
L 166.382197 -394.010196 
L 168.635084 -393.590128 
L 170.887971 -393.547104 
L 173.140858 -393.936854 
L 175.393745 -394.778105 
L 177.646631 -396.048738 
L 179.899518 -397.68386 
L 182.152405 -399.575787 
L 184.405292 -401.578711 
L 186.658179 -403.521239 
L 188.911066 -405.227173 
L 191.163952 -406.540652 
L 193.416839 -407.348947 
L 195.669726 -407.596627 
L 197.922613 -407.288212 
L 200.1755 -406.480666 
L 202.428386 -405.269794 
L 204.681273 -403.774986 
L 206.93416 -402.125148 
L 209.187047 -400.446749 
L 211.439934 -398.853521 
L 213.692821 -397.437208 
L 215.945707 -396.259444 
L 218.198594 -395.346051 
L 220.451481 -394.685826 
L 222.704368 -394.235503 
L 224.957255 -393.930796 
L 227.210141 -393.700924 
L 229.463028 -393.482306 
L 231.715915 -393.227393 
L 233.968802 -392.906912 
L 236.221689 -392.506817 
L 238.474576 -392.023348 
L 240.727462 -391.459556 
L 242.980349 -390.824817 
L 245.233236 -390.136424 
L 247.486123 -389.42077 
L 249.73901 -388.711854 
L 251.991896 -388.046446 
L 254.244783 -387.45727 
L 256.49767 -386.966739 
L 258.750557 -386.583552 
L 261.003444 -386.303083 
L 263.256331 -386.11089 
L 265.509217 -385.98764 
L 267.762104 -385.913687 
L 270.014991 -385.87217 
L 272.267878 -385.85036 
L 274.520765 -385.839638 
L 276.773651 -385.834705 
L 279.026538 -385.832579 
L 281.279425 -385.831722 
L 283.532312 -385.831398 
L 285.785199 -385.831283 
L 288.038085 -385.831245 
L 290.290972 -385.831234 
L 292.543859 -385.83123 
L 294.796746 -385.831229 
L 297.049633 -385.831229 
L 299.30252 -385.831229 
L 301.555406 -385.831229 
L 303.808293 -385.831229 
L 306.06118 -385.831231 
L 308.314067 -385.831237 
L 310.566954 -385.831256 
L 312.81984 -385.831317 
L 315.072727 -385.831494 
L 317.325614 -385.831979 
L 319.578501 -385.833223 
L 321.831388 -385.836205 
L 324.084275 -385.842889 
L 326.337161 -385.856881 
L 328.590048 -385.884214 
L 330.842935 -385.933978 
L 333.095822 -386.018302 
L 335.348709 -386.151011 
L 337.601595 -386.344448 
L 339.854482 -386.604546 
L 342.107369 -386.925235 
L 344.360256 -387.284307 
L 346.613143 -387.643257 
L 348.86603 -387.952752 
L 351.118916 -388.163276 
L 353.371803 -388.237995 
L 353.371803 -385.831229 
L 353.371803 -385.831229 
L 351.118916 -385.831229 
L 348.86603 -385.831229 
L 346.613143 -385.831229 
L 344.360256 -385.831229 
L 342.107369 -385.831229 
L 339.854482 -385.831229 
L 337.601595 -385.831229 
L 335.348709 -385.831229 
L 333.095822 -385.831229 
L 330.842935 -385.831229 
L 328.590048 -385.831229 
L 326.337161 -385.831229 
L 324.084275 -385.831229 
L 321.831388 -385.831229 
L 319.578501 -385.831229 
L 317.325614 -385.831229 
L 315.072727 -385.831229 
L 312.81984 -385.831229 
L 310.566954 -385.831229 
L 308.314067 -385.831229 
L 306.06118 -385.831229 
L 303.808293 -385.831229 
L 301.555406 -385.831229 
L 299.30252 -385.831229 
L 297.049633 -385.831229 
L 294.796746 -385.831229 
L 292.543859 -385.831229 
L 290.290972 -385.831229 
L 288.038085 -385.831229 
L 285.785199 -385.831229 
L 283.532312 -385.831229 
L 281.279425 -385.831229 
L 279.026538 -385.831229 
L 276.773651 -385.831229 
L 274.520765 -385.831229 
L 272.267878 -385.831229 
L 270.014991 -385.831229 
L 267.762104 -385.831229 
L 265.509217 -385.831229 
L 263.256331 -385.831229 
L 261.003444 -385.831229 
L 258.750557 -385.831229 
L 256.49767 -385.831229 
L 254.244783 -385.831229 
L 251.991896 -385.831229 
L 249.73901 -385.831229 
L 247.486123 -385.831229 
L 245.233236 -385.831229 
L 242.980349 -385.831229 
L 240.727462 -385.831229 
L 238.474576 -385.831229 
L 236.221689 -385.831229 
L 233.968802 -385.831229 
L 231.715915 -385.831229 
L 229.463028 -385.831229 
L 227.210141 -385.831229 
L 224.957255 -385.831229 
L 222.704368 -385.831229 
L 220.451481 -385.831229 
L 218.198594 -385.831229 
L 215.945707 -385.831229 
L 213.692821 -385.831229 
L 211.439934 -385.831229 
L 209.187047 -385.831229 
L 206.93416 -385.831229 
L 204.681273 -385.831229 
L 202.428386 -385.831229 
L 200.1755 -385.831229 
L 197.922613 -385.831229 
L 195.669726 -385.831229 
L 193.416839 -385.831229 
L 191.163952 -385.831229 
L 188.911066 -385.831229 
L 186.658179 -385.831229 
L 184.405292 -385.831229 
L 182.152405 -385.831229 
L 179.899518 -385.831229 
L 177.646631 -385.831229 
L 175.393745 -385.831229 
L 173.140858 -385.831229 
L 170.887971 -385.831229 
L 168.635084 -385.831229 
L 166.382197 -385.831229 
L 164.129311 -385.831229 
L 161.876424 -385.831229 
L 159.623537 -385.831229 
L 157.37065 -385.831229 
L 155.117763 -385.831229 
L 152.864877 -385.831229 
L 150.61199 -385.831229 
L 148.359103 -385.831229 
L 146.106216 -385.831229 
L 143.853329 -385.831229 
L 141.600442 -385.831229 
L 139.347556 -385.831229 
L 137.094669 -385.831229 
L 134.841782 -385.831229 
L 132.588895 -385.831229 
L 130.336008 -385.831229 
z
" style="stroke: #434343; stroke-opacity: 0.65"/>
    </defs>
    <g clip-path="url(#pa38170d26c)">
     <use xlink:href="#m143e450683" x="0" y="432" style="fill: #e68193; fill-opacity: 0.65; stroke: #434343; stroke-opacity: 0.65"/>
    </g>
   </g>
   <g id="PolyCollection_2">
    <defs>
     <path id="mca0a2fc8b6" d="M 130.882167 -313.279904 
L 130.882167 -326.347539 
L 132.657019 -327.422811 
L 134.431872 -328.242623 
L 136.206724 -328.767397 
L 137.981576 -328.980066 
L 139.756429 -328.8876 
L 141.531281 -328.519478 
L 143.306134 -327.923447 
L 145.080986 -327.159312 
L 146.855839 -326.291805 
L 148.630691 -325.383612 
L 150.405544 -324.489485 
L 152.180396 -323.652111 
L 153.955249 -322.90003 
L 155.730101 -322.247616 
L 157.504953 -321.69685 
L 159.279806 -321.24043 
L 161.054658 -320.865667 
L 162.829511 -320.55854 
L 164.604363 -320.307294 
L 166.379216 -320.10504 
L 168.154068 -319.950936 
L 169.928921 -319.849792 
L 171.703773 -319.810182 
L 173.478626 -319.841467 
L 175.253478 -319.950342 
L 177.02833 -320.137641 
L 178.803183 -320.396095 
L 180.578035 -320.709532 
L 182.352888 -321.053743 
L 184.12774 -321.398858 
L 185.902593 -321.712828 
L 187.677445 -321.965406 
L 189.452298 -322.131949 
L 191.22715 -322.196481 
L 193.002003 -322.153596 
L 194.776855 -322.009 
L 196.551707 -321.778716 
L 198.32656 -321.487122 
L 200.101412 -321.164107 
L 201.876265 -320.841693 
L 203.651117 -320.550517 
L 205.42597 -320.316558 
L 207.200822 -320.158541 
L 208.975675 -320.08635 
L 210.750527 -320.100785 
L 212.52538 -320.194758 
L 214.300232 -320.355838 
L 216.075084 -320.569789 
L 217.849937 -320.824445 
L 219.624789 -321.113149 
L 221.399642 -321.436933 
L 223.174494 -321.804792 
L 224.949347 -322.231751 
L 226.724199 -322.734876 
L 228.499052 -323.327883 
L 230.273904 -324.015349 
L 232.048757 -324.787783 
L 233.823609 -325.618696 
L 235.598461 -326.464537 
L 237.373314 -327.267786 
L 239.148166 -327.962891 
L 240.923019 -328.484126 
L 242.697871 -328.774034 
L 244.472724 -328.790993 
L 246.247576 -328.514608 
L 248.022429 -327.948071 
L 249.797281 -327.11725 
L 251.572134 -326.066858 
L 253.346986 -324.854563 
L 255.121838 -323.544162 
L 256.896691 -322.198939 
L 258.671543 -320.876139 
L 260.446396 -319.623127 
L 262.221248 -318.475401 
L 263.996101 -317.456325 
L 265.770953 -316.578202 
L 267.545806 -315.844215 
L 269.320658 -315.250778 
L 271.095511 -314.789898 
L 272.870363 -314.451278 
L 274.645215 -314.223965 
L 276.420068 -314.097457 
L 278.19492 -314.062239 
L 279.969773 -314.109788 
L 281.744625 -314.232132 
L 283.519478 -314.421111 
L 285.29433 -314.66752 
L 287.069183 -314.960321 
L 288.844035 -315.286123 
L 290.618888 -315.62908 
L 292.39374 -315.971261 
L 294.168592 -316.293518 
L 295.943445 -316.576728 
L 297.718297 -316.803278 
L 299.49315 -316.95856 
L 301.268002 -317.032305 
L 303.042855 -317.019535 
L 304.817707 -316.921024 
L 306.59256 -316.743196 
L 306.59256 -313.279904 
L 306.59256 -313.279904 
L 304.817707 -313.279904 
L 303.042855 -313.279904 
L 301.268002 -313.279904 
L 299.49315 -313.279904 
L 297.718297 -313.279904 
L 295.943445 -313.279904 
L 294.168592 -313.279904 
L 292.39374 -313.279904 
L 290.618888 -313.279904 
L 288.844035 -313.279904 
L 287.069183 -313.279904 
L 285.29433 -313.279904 
L 283.519478 -313.279904 
L 281.744625 -313.279904 
L 279.969773 -313.279904 
L 278.19492 -313.279904 
L 276.420068 -313.279904 
L 274.645215 -313.279904 
L 272.870363 -313.279904 
L 271.095511 -313.279904 
L 269.320658 -313.279904 
L 267.545806 -313.279904 
L 265.770953 -313.279904 
L 263.996101 -313.279904 
L 262.221248 -313.279904 
L 260.446396 -313.279904 
L 258.671543 -313.279904 
L 256.896691 -313.279904 
L 255.121838 -313.279904 
L 253.346986 -313.279904 
L 251.572134 -313.279904 
L 249.797281 -313.279904 
L 248.022429 -313.279904 
L 246.247576 -313.279904 
L 244.472724 -313.279904 
L 242.697871 -313.279904 
L 240.923019 -313.279904 
L 239.148166 -313.279904 
L 237.373314 -313.279904 
L 235.598461 -313.279904 
L 233.823609 -313.279904 
L 232.048757 -313.279904 
L 230.273904 -313.279904 
L 228.499052 -313.279904 
L 226.724199 -313.279904 
L 224.949347 -313.279904 
L 223.174494 -313.279904 
L 221.399642 -313.279904 
L 219.624789 -313.279904 
L 217.849937 -313.279904 
L 216.075084 -313.279904 
L 214.300232 -313.279904 
L 212.52538 -313.279904 
L 210.750527 -313.279904 
L 208.975675 -313.279904 
L 207.200822 -313.279904 
L 205.42597 -313.279904 
L 203.651117 -313.279904 
L 201.876265 -313.279904 
L 200.101412 -313.279904 
L 198.32656 -313.279904 
L 196.551707 -313.279904 
L 194.776855 -313.279904 
L 193.002003 -313.279904 
L 191.22715 -313.279904 
L 189.452298 -313.279904 
L 187.677445 -313.279904 
L 185.902593 -313.279904 
L 184.12774 -313.279904 
L 182.352888 -313.279904 
L 180.578035 -313.279904 
L 178.803183 -313.279904 
L 177.02833 -313.279904 
L 175.253478 -313.279904 
L 173.478626 -313.279904 
L 171.703773 -313.279904 
L 169.928921 -313.279904 
L 168.154068 -313.279904 
L 166.379216 -313.279904 
L 164.604363 -313.279904 
L 162.829511 -313.279904 
L 161.054658 -313.279904 
L 159.279806 -313.279904 
L 157.504953 -313.279904 
L 155.730101 -313.279904 
L 153.955249 -313.279904 
L 152.180396 -313.279904 
L 150.405544 -313.279904 
L 148.630691 -313.279904 
L 146.855839 -313.279904 
L 145.080986 -313.279904 
L 143.306134 -313.279904 
L 141.531281 -313.279904 
L 139.756429 -313.279904 
L 137.981576 -313.279904 
L 136.206724 -313.279904 
L 134.431872 -313.279904 
L 132.657019 -313.279904 
L 130.882167 -313.279904 
z
" style="stroke: #434343; stroke-opacity: 0.65"/>
    </defs>
    <g clip-path="url(#pa38170d26c)">
     <use xlink:href="#mca0a2fc8b6" x="0" y="432" style="fill: #9e9241; fill-opacity: 0.65; stroke: #434343; stroke-opacity: 0.65"/>
    </g>
   </g>
   <g id="PolyCollection_3">
    <defs>
     <path id="m1709653c88" d="M 131.461781 -240.728578 
L 131.461781 -256.551026 
L 132.817552 -258.289501 
L 134.173322 -259.7605 
L 135.529093 -260.875725 
L 136.884864 -261.569409 
L 138.240635 -261.806579 
L 139.596406 -261.587997 
L 140.952177 -260.950797 
L 142.307948 -259.964542 
L 143.663719 -258.723198 
L 145.019489 -257.334206 
L 146.37526 -255.906337 
L 147.731031 -254.538142 
L 149.086802 -253.308608 
L 150.442573 -252.271188 
L 151.798344 -251.451687 
L 153.154115 -250.849892 
L 154.509886 -250.444249 
L 155.865656 -250.198503 
L 157.221427 -250.069085 
L 158.577198 -250.012034 
L 159.932969 -249.988491 
L 161.28874 -249.968186 
L 162.644511 -249.930743 
L 164.000282 -249.865102 
L 165.356053 -249.767645 
L 166.711823 -249.639786 
L 168.067594 -249.485804 
L 169.423365 -249.311443 
L 170.779136 -249.123593 
L 172.134907 -248.930985 
L 173.490678 -248.745603 
L 174.846449 -248.584275 
L 176.20222 -248.469847 
L 177.55799 -248.43133 
L 178.913761 -248.502556 
L 180.269532 -248.7191 
L 181.625303 -249.113575 
L 182.981074 -249.709773 
L 184.336845 -250.516515 
L 185.692616 -251.522344 
L 187.048387 -252.692281 
L 188.404157 -253.967687 
L 189.759928 -255.269844 
L 191.115699 -256.507222 
L 192.47147 -257.585714 
L 193.827241 -258.420423 
L 195.183012 -258.947216 
L 196.538783 -259.132089 
L 197.894554 -258.976657 
L 199.250324 -258.518648 
L 200.606095 -257.827084 
L 201.961866 -256.992757 
L 203.317637 -256.115439 
L 204.673408 -255.289917 
L 206.029179 -254.593181 
L 207.38495 -254.074922 
L 208.740721 -253.75291 
L 210.096491 -253.613845 
L 211.452262 -253.619264 
L 212.808033 -253.71506 
L 214.163804 -253.842555 
L 215.519575 -253.948837 
L 216.875346 -253.994451 
L 218.231117 -253.957227 
L 219.586888 -253.832024 
L 220.942658 -253.627114 
L 222.298429 -253.358579 
L 223.6542 -253.044369 
L 225.009971 -252.69946 
L 226.365742 -252.33304 
L 227.721513 -251.947927 
L 229.077284 -251.541833 
L 230.433055 -251.109664 
L 231.788825 -250.645971 
L 233.144596 -250.146869 
L 234.500367 -249.61106 
L 235.856138 -249.040032 
L 237.211909 -248.437712 
L 238.56768 -247.809975 
L 239.923451 -247.164324 
L 241.279222 -246.509869 
L 242.634993 -245.857516 
L 243.990763 -245.220156 
L 245.346534 -244.612607 
L 246.702305 -244.051107 
L 248.058076 -243.552321 
L 249.413847 -243.131928 
L 250.769618 -242.802974 
L 252.125389 -242.574223 
L 253.48116 -242.448729 
L 254.83693 -242.42283 
L 256.192701 -242.485739 
L 257.548472 -242.619838 
L 258.904243 -242.80177 
L 260.260014 -243.004296 
L 261.615785 -243.198817 
L 262.971556 -243.358284 
L 264.327327 -243.460119 
L 265.683097 -243.488687 
L 265.683097 -240.728578 
L 265.683097 -240.728578 
L 264.327327 -240.728578 
L 262.971556 -240.728578 
L 261.615785 -240.728578 
L 260.260014 -240.728578 
L 258.904243 -240.728578 
L 257.548472 -240.728578 
L 256.192701 -240.728578 
L 254.83693 -240.728578 
L 253.48116 -240.728578 
L 252.125389 -240.728578 
L 250.769618 -240.728578 
L 249.413847 -240.728578 
L 248.058076 -240.728578 
L 246.702305 -240.728578 
L 245.346534 -240.728578 
L 243.990763 -240.728578 
L 242.634993 -240.728578 
L 241.279222 -240.728578 
L 239.923451 -240.728578 
L 238.56768 -240.728578 
L 237.211909 -240.728578 
L 235.856138 -240.728578 
L 234.500367 -240.728578 
L 233.144596 -240.728578 
L 231.788825 -240.728578 
L 230.433055 -240.728578 
L 229.077284 -240.728578 
L 227.721513 -240.728578 
L 226.365742 -240.728578 
L 225.009971 -240.728578 
L 223.6542 -240.728578 
L 222.298429 -240.728578 
L 220.942658 -240.728578 
L 219.586888 -240.728578 
L 218.231117 -240.728578 
L 216.875346 -240.728578 
L 215.519575 -240.728578 
L 214.163804 -240.728578 
L 212.808033 -240.728578 
L 211.452262 -240.728578 
L 210.096491 -240.728578 
L 208.740721 -240.728578 
L 207.38495 -240.728578 
L 206.029179 -240.728578 
L 204.673408 -240.728578 
L 203.317637 -240.728578 
L 201.961866 -240.728578 
L 200.606095 -240.728578 
L 199.250324 -240.728578 
L 197.894554 -240.728578 
L 196.538783 -240.728578 
L 195.183012 -240.728578 
L 193.827241 -240.728578 
L 192.47147 -240.728578 
L 191.115699 -240.728578 
L 189.759928 -240.728578 
L 188.404157 -240.728578 
L 187.048387 -240.728578 
L 185.692616 -240.728578 
L 184.336845 -240.728578 
L 182.981074 -240.728578 
L 181.625303 -240.728578 
L 180.269532 -240.728578 
L 178.913761 -240.728578 
L 177.55799 -240.728578 
L 176.20222 -240.728578 
L 174.846449 -240.728578 
L 173.490678 -240.728578 
L 172.134907 -240.728578 
L 170.779136 -240.728578 
L 169.423365 -240.728578 
L 168.067594 -240.728578 
L 166.711823 -240.728578 
L 165.356053 -240.728578 
L 164.000282 -240.728578 
L 162.644511 -240.728578 
L 161.28874 -240.728578 
L 159.932969 -240.728578 
L 158.577198 -240.728578 
L 157.221427 -240.728578 
L 155.865656 -240.728578 
L 154.509886 -240.728578 
L 153.154115 -240.728578 
L 151.798344 -240.728578 
L 150.442573 -240.728578 
L 149.086802 -240.728578 
L 147.731031 -240.728578 
L 146.37526 -240.728578 
L 145.019489 -240.728578 
L 143.663719 -240.728578 
L 142.307948 -240.728578 
L 140.952177 -240.728578 
L 139.596406 -240.728578 
L 138.240635 -240.728578 
L 136.884864 -240.728578 
L 135.529093 -240.728578 
L 134.173322 -240.728578 
L 132.817552 -240.728578 
L 131.461781 -240.728578 
z
" style="stroke: #434343; stroke-opacity: 0.65"/>
    </defs>
    <g clip-path="url(#pa38170d26c)">
     <use xlink:href="#m1709653c88" x="0" y="432" style="fill: #43a178; fill-opacity: 0.65; stroke: #434343; stroke-opacity: 0.65"/>
    </g>
   </g>
   <g id="PolyCollection_4">
    <defs>
     <path id="m6a1672754c" d="M 135.714383 -168.177253 
L 135.714383 -184.886372 
L 136.812488 -186.076542 
L 137.910593 -187.007736 
L 139.008698 -187.653432 
L 140.106803 -188.007263 
L 141.204908 -188.082722 
L 142.303013 -187.910467 
L 143.401118 -187.533698 
L 144.499223 -187.002376 
L 145.597328 -186.367235 
L 146.695433 -185.674519 
L 147.793538 -184.962184 
L 148.891643 -184.257998 
L 149.989748 -183.579565 
L 151.087853 -182.935973 
L 152.185958 -182.33048 
L 153.284063 -181.763512 
L 154.382167 -181.235315 
L 155.480272 -180.747741 
L 156.578377 -180.304916 
L 157.676482 -179.912825 
L 158.774587 -179.578088 
L 159.872692 -179.306375 
L 160.970797 -179.100934 
L 162.068902 -178.961656 
L 163.167007 -178.884911 
L 164.265112 -178.864182 
L 165.363217 -178.891331 
L 166.461322 -178.958144 
L 167.559427 -179.057776 
L 168.657532 -179.185726 
L 169.755637 -179.34014 
L 170.853742 -179.521393 
L 171.951847 -179.731111 
L 173.049952 -179.970914 
L 174.148057 -180.241205 
L 175.246162 -180.540302 
L 176.344267 -180.864069 
L 177.442372 -181.206039 
L 178.540477 -181.557888 
L 179.638582 -181.910039 
L 180.736687 -182.25215 
L 181.834792 -182.573364 
L 182.932897 -182.862317 
L 184.031002 -183.107045 
L 185.129107 -183.295041 
L 186.227212 -183.41371 
L 187.325317 -183.4514 
L 188.423422 -183.398999 
L 189.521527 -183.251897 
L 190.619632 -183.011953 
L 191.717737 -182.68897 
L 192.815842 -182.301254 
L 193.913947 -181.874931 
L 195.012052 -181.441935 
L 196.110156 -181.036853 
L 197.208261 -180.693003 
L 198.306366 -180.438343 
L 199.404471 -180.291783 
L 200.502576 -180.260491 
L 201.600681 -180.338567 
L 202.698786 -180.507311 
L 203.796891 -180.737071 
L 204.894996 -180.990466 
L 205.993101 -181.226611 
L 207.091206 -181.405894 
L 208.189311 -181.494733 
L 209.287416 -181.469813 
L 210.385521 -181.321287 
L 211.483626 -181.054542 
L 212.581731 -180.690278 
L 213.679836 -180.262798 
L 214.777941 -179.816617 
L 215.876046 -179.401716 
L 216.974151 -179.067894 
L 218.072256 -178.858876 
L 219.170361 -178.806839 
L 220.268466 -178.92806 
L 221.366571 -179.22024 
L 222.464676 -179.661921 
L 223.562781 -180.21413 
L 224.660886 -180.824128 
L 225.758991 -181.430843 
L 226.857096 -181.971347 
L 227.955201 -182.387549 
L 229.053306 -182.63227 
L 230.151411 -182.673907 
L 231.249516 -182.499095 
L 232.347621 -182.113091 
L 233.445726 -181.537893 
L 234.543831 -180.80848 
L 235.641936 -179.96779 
L 236.74004 -179.061232 
L 237.838145 -178.131539 
L 238.93625 -177.214662 
L 240.034355 -176.337177 
L 241.13246 -175.515395 
L 242.230565 -174.756062 
L 243.32867 -174.058296 
L 244.426775 -173.416235 
L 244.426775 -168.177253 
L 244.426775 -168.177253 
L 243.32867 -168.177253 
L 242.230565 -168.177253 
L 241.13246 -168.177253 
L 240.034355 -168.177253 
L 238.93625 -168.177253 
L 237.838145 -168.177253 
L 236.74004 -168.177253 
L 235.641936 -168.177253 
L 234.543831 -168.177253 
L 233.445726 -168.177253 
L 232.347621 -168.177253 
L 231.249516 -168.177253 
L 230.151411 -168.177253 
L 229.053306 -168.177253 
L 227.955201 -168.177253 
L 226.857096 -168.177253 
L 225.758991 -168.177253 
L 224.660886 -168.177253 
L 223.562781 -168.177253 
L 222.464676 -168.177253 
L 221.366571 -168.177253 
L 220.268466 -168.177253 
L 219.170361 -168.177253 
L 218.072256 -168.177253 
L 216.974151 -168.177253 
L 215.876046 -168.177253 
L 214.777941 -168.177253 
L 213.679836 -168.177253 
L 212.581731 -168.177253 
L 211.483626 -168.177253 
L 210.385521 -168.177253 
L 209.287416 -168.177253 
L 208.189311 -168.177253 
L 207.091206 -168.177253 
L 205.993101 -168.177253 
L 204.894996 -168.177253 
L 203.796891 -168.177253 
L 202.698786 -168.177253 
L 201.600681 -168.177253 
L 200.502576 -168.177253 
L 199.404471 -168.177253 
L 198.306366 -168.177253 
L 197.208261 -168.177253 
L 196.110156 -168.177253 
L 195.012052 -168.177253 
L 193.913947 -168.177253 
L 192.815842 -168.177253 
L 191.717737 -168.177253 
L 190.619632 -168.177253 
L 189.521527 -168.177253 
L 188.423422 -168.177253 
L 187.325317 -168.177253 
L 186.227212 -168.177253 
L 185.129107 -168.177253 
L 184.031002 -168.177253 
L 182.932897 -168.177253 
L 181.834792 -168.177253 
L 180.736687 -168.177253 
L 179.638582 -168.177253 
L 178.540477 -168.177253 
L 177.442372 -168.177253 
L 176.344267 -168.177253 
L 175.246162 -168.177253 
L 174.148057 -168.177253 
L 173.049952 -168.177253 
L 171.951847 -168.177253 
L 170.853742 -168.177253 
L 169.755637 -168.177253 
L 168.657532 -168.177253 
L 167.559427 -168.177253 
L 166.461322 -168.177253 
L 165.363217 -168.177253 
L 164.265112 -168.177253 
L 163.167007 -168.177253 
L 162.068902 -168.177253 
L 160.970797 -168.177253 
L 159.872692 -168.177253 
L 158.774587 -168.177253 
L 157.676482 -168.177253 
L 156.578377 -168.177253 
L 155.480272 -168.177253 
L 154.382167 -168.177253 
L 153.284063 -168.177253 
L 152.185958 -168.177253 
L 151.087853 -168.177253 
L 149.989748 -168.177253 
L 148.891643 -168.177253 
L 147.793538 -168.177253 
L 146.695433 -168.177253 
L 145.597328 -168.177253 
L 144.499223 -168.177253 
L 143.401118 -168.177253 
L 142.303013 -168.177253 
L 141.204908 -168.177253 
L 140.106803 -168.177253 
L 139.008698 -168.177253 
L 137.910593 -168.177253 
L 136.812488 -168.177253 
L 135.714383 -168.177253 
z
" style="stroke: #434343; stroke-opacity: 0.65"/>
    </defs>
    <g clip-path="url(#pa38170d26c)">
     <use xlink:href="#m6a1672754c" x="0" y="432" style="fill: #4a9eb4; fill-opacity: 0.65; stroke: #434343; stroke-opacity: 0.65"/>
    </g>
   </g>
   <g id="PolyCollection_5">
    <defs>
     <path id="m5bda86a4cc" d="M 130.105909 -95.625928 
L 130.105909 -105.423475 
L 135.6768 -106.61988 
L 141.247691 -107.534579 
L 146.818581 -108.121103 
L 152.389472 -108.364699 
L 157.960363 -108.276397 
L 163.531253 -107.886643 
L 169.102144 -107.241292 
L 174.673035 -106.399622 
L 180.243926 -105.431662 
L 185.814816 -104.412362 
L 191.385707 -103.412497 
L 196.956598 -102.488983 
L 202.527489 -101.678421 
L 208.098379 -100.996328 
L 213.66927 -100.441782 
L 219.240161 -100.004653 
L 224.811051 -99.671921 
L 230.381942 -99.430744 
L 235.952833 -99.268134 
L 241.523724 -99.168943 
L 247.094614 -99.114503 
L 252.665505 -99.083669 
L 258.236396 -99.056559 
L 263.807287 -99.019655 
L 269.378177 -98.969912 
L 274.949068 -98.915399 
L 280.519959 -98.871211 
L 286.090849 -98.851423 
L 291.66174 -98.860002 
L 297.232631 -98.884717 
L 302.803522 -98.897329 
L 308.374412 -98.860868 
L 313.945303 -98.7416 
L 319.516194 -98.520978 
L 325.087084 -98.202809 
L 330.657975 -97.812943 
L 336.228866 -97.392122 
L 341.799757 -96.985262 
L 347.370647 -96.631345 
L 352.941538 -96.356986 
L 358.512429 -96.174555 
L 364.08332 -96.083732 
L 369.65421 -96.074484 
L 375.225101 -96.129826 
L 380.795992 -96.227843 
L 386.366882 -96.343474 
L 391.937773 -96.450916 
L 397.508664 -96.52704 
L 403.079555 -96.555278 
L 408.650445 -96.52875 
L 414.221336 -96.45128 
L 419.792227 -96.335721 
L 425.363118 -96.20007 
L 430.934008 -96.062722 
L 436.504899 -95.938461 
L 442.07579 -95.836244 
L 447.64668 -95.759036 
L 453.217571 -95.705158 
L 458.788462 -95.670282 
L 464.359353 -95.64928 
L 469.930243 -95.637491 
L 475.501134 -95.631313 
L 481.072025 -95.628286 
L 486.642916 -95.626899 
L 492.213806 -95.626304 
L 497.784697 -95.626065 
L 503.355588 -95.625975 
L 508.926478 -95.625943 
L 514.497369 -95.625932 
L 520.06826 -95.625929 
L 525.639151 -95.625928 
L 531.210041 -95.625928 
L 536.780932 -95.625928 
L 542.351823 -95.625928 
L 547.922713 -95.625928 
L 553.493604 -95.625928 
L 559.064495 -95.625928 
L 564.635386 -95.625929 
L 570.206276 -95.625932 
L 575.777167 -95.625942 
L 581.348058 -95.625972 
L 586.918949 -95.626059 
L 592.489839 -95.626288 
L 598.06073 -95.626861 
L 603.631621 -95.628199 
L 609.202511 -95.631128 
L 614.773402 -95.637124 
L 620.344293 -95.6486 
L 625.915184 -95.669107 
L 631.486074 -95.703266 
L 637.056965 -95.756208 
L 642.627856 -95.832329 
L 648.198747 -95.93347 
L 653.769637 -96.056902 
L 659.340528 -96.193933 
L 664.911419 -96.329987 
L 670.482309 -96.446697 
L 676.0532 -96.525816 
L 681.624091 -96.553848 
L 681.624091 -95.625928 
L 681.624091 -95.625928 
L 676.0532 -95.625928 
L 670.482309 -95.625928 
L 664.911419 -95.625928 
L 659.340528 -95.625928 
L 653.769637 -95.625928 
L 648.198747 -95.625928 
L 642.627856 -95.625928 
L 637.056965 -95.625928 
L 631.486074 -95.625928 
L 625.915184 -95.625928 
L 620.344293 -95.625928 
L 614.773402 -95.625928 
L 609.202511 -95.625928 
L 603.631621 -95.625928 
L 598.06073 -95.625928 
L 592.489839 -95.625928 
L 586.918949 -95.625928 
L 581.348058 -95.625928 
L 575.777167 -95.625928 
L 570.206276 -95.625928 
L 564.635386 -95.625928 
L 559.064495 -95.625928 
L 553.493604 -95.625928 
L 547.922713 -95.625928 
L 542.351823 -95.625928 
L 536.780932 -95.625928 
L 531.210041 -95.625928 
L 525.639151 -95.625928 
L 520.06826 -95.625928 
L 514.497369 -95.625928 
L 508.926478 -95.625928 
L 503.355588 -95.625928 
L 497.784697 -95.625928 
L 492.213806 -95.625928 
L 486.642916 -95.625928 
L 481.072025 -95.625928 
L 475.501134 -95.625928 
L 469.930243 -95.625928 
L 464.359353 -95.625928 
L 458.788462 -95.625928 
L 453.217571 -95.625928 
L 447.64668 -95.625928 
L 442.07579 -95.625928 
L 436.504899 -95.625928 
L 430.934008 -95.625928 
L 425.363118 -95.625928 
L 419.792227 -95.625928 
L 414.221336 -95.625928 
L 408.650445 -95.625928 
L 403.079555 -95.625928 
L 397.508664 -95.625928 
L 391.937773 -95.625928 
L 386.366882 -95.625928 
L 380.795992 -95.625928 
L 375.225101 -95.625928 
L 369.65421 -95.625928 
L 364.08332 -95.625928 
L 358.512429 -95.625928 
L 352.941538 -95.625928 
L 347.370647 -95.625928 
L 341.799757 -95.625928 
L 336.228866 -95.625928 
L 330.657975 -95.625928 
L 325.087084 -95.625928 
L 319.516194 -95.625928 
L 313.945303 -95.625928 
L 308.374412 -95.625928 
L 302.803522 -95.625928 
L 297.232631 -95.625928 
L 291.66174 -95.625928 
L 286.090849 -95.625928 
L 280.519959 -95.625928 
L 274.949068 -95.625928 
L 269.378177 -95.625928 
L 263.807287 -95.625928 
L 258.236396 -95.625928 
L 252.665505 -95.625928 
L 247.094614 -95.625928 
L 241.523724 -95.625928 
L 235.952833 -95.625928 
L 230.381942 -95.625928 
L 224.811051 -95.625928 
L 219.240161 -95.625928 
L 213.66927 -95.625928 
L 208.098379 -95.625928 
L 202.527489 -95.625928 
L 196.956598 -95.625928 
L 191.385707 -95.625928 
L 185.814816 -95.625928 
L 180.243926 -95.625928 
L 174.673035 -95.625928 
L 169.102144 -95.625928 
L 163.531253 -95.625928 
L 157.960363 -95.625928 
L 152.389472 -95.625928 
L 146.818581 -95.625928 
L 141.247691 -95.625928 
L 135.6768 -95.625928 
L 130.105909 -95.625928 
z
" style="stroke: #434343; stroke-opacity: 0.65"/>
    </defs>
    <g clip-path="url(#pa38170d26c)">
     <use xlink:href="#m5bda86a4cc" x="0" y="432" style="fill: #c789e5; fill-opacity: 0.65; stroke: #434343; stroke-opacity: 0.65"/>
    </g>
   </g>
   <g id="matplotlib.axis_1">
    <g id="xtick_1">
     <g id="line2d_1">
      <defs>
       <path id="m4e4e107bd3" d="M 0 0 
L 0 3.5 
" style="stroke: #000000; stroke-width: 0.8"/>
      </defs>
      <g>
       <use xlink:href="#m4e4e107bd3" x="117.6097" y="387.16" style="stroke: #000000; stroke-width: 0.8"/>
      </g>
     </g>
     <g id="text_1">
      <!-- 0 -->
      <g transform="translate(114.42845 401.758438) scale(0.1 -0.1)">
       <defs>
        <path id="DejaVuSans-30" d="M 2034 4250 
Q 1547 4250 1301 3770 
Q 1056 3291 1056 2328 
Q 1056 1369 1301 889 
Q 1547 409 2034 409 
Q 2525 409 2770 889 
Q 3016 1369 3016 2328 
Q 3016 3291 2770 3770 
Q 2525 4250 2034 4250 
z
M 2034 4750 
Q 2819 4750 3233 4129 
Q 3647 3509 3647 2328 
Q 3647 1150 3233 529 
Q 2819 -91 2034 -91 
Q 1250 -91 836 529 
Q 422 1150 422 2328 
Q 422 3509 836 4129 
Q 1250 4750 2034 4750 
z
" transform="scale(0.015625)"/>
       </defs>
       <use xlink:href="#DejaVuSans-30"/>
      </g>
     </g>
    </g>
    <g id="xtick_2">
     <g id="line2d_2">
      <g>
       <use xlink:href="#m4e4e107bd3" x="207.54449" y="387.16" style="stroke: #000000; stroke-width: 0.8"/>
      </g>
     </g>
     <g id="text_2">
      <!-- 200 -->
      <g transform="translate(198.00074 401.758438) scale(0.1 -0.1)">
       <defs>
        <path id="DejaVuSans-32" d="M 1228 531 
L 3431 531 
L 3431 0 
L 469 0 
L 469 531 
Q 828 903 1448 1529 
Q 2069 2156 2228 2338 
Q 2531 2678 2651 2914 
Q 2772 3150 2772 3378 
Q 2772 3750 2511 3984 
Q 2250 4219 1831 4219 
Q 1534 4219 1204 4116 
Q 875 4013 500 3803 
L 500 4441 
Q 881 4594 1212 4672 
Q 1544 4750 1819 4750 
Q 2544 4750 2975 4387 
Q 3406 4025 3406 3419 
Q 3406 3131 3298 2873 
Q 3191 2616 2906 2266 
Q 2828 2175 2409 1742 
Q 1991 1309 1228 531 
z
" transform="scale(0.015625)"/>
       </defs>
       <use xlink:href="#DejaVuSans-32"/>
       <use xlink:href="#DejaVuSans-30" x="63.623047"/>
       <use xlink:href="#DejaVuSans-30" x="127.246094"/>
      </g>
     </g>
    </g>
    <g id="xtick_3">
     <g id="line2d_3">
      <g>
       <use xlink:href="#m4e4e107bd3" x="297.479281" y="387.16" style="stroke: #000000; stroke-width: 0.8"/>
      </g>
     </g>
     <g id="text_3">
      <!-- 400 -->
      <g transform="translate(287.935531 401.758438) scale(0.1 -0.1)">
       <defs>
        <path id="DejaVuSans-34" d="M 2419 4116 
L 825 1625 
L 2419 1625 
L 2419 4116 
z
M 2253 4666 
L 3047 4666 
L 3047 1625 
L 3713 1625 
L 3713 1100 
L 3047 1100 
L 3047 0 
L 2419 0 
L 2419 1100 
L 313 1100 
L 313 1709 
L 2253 4666 
z
" transform="scale(0.015625)"/>
       </defs>
       <use xlink:href="#DejaVuSans-34"/>
       <use xlink:href="#DejaVuSans-30" x="63.623047"/>
       <use xlink:href="#DejaVuSans-30" x="127.246094"/>
      </g>
     </g>
    </g>
    <g id="xtick_4">
     <g id="line2d_4">
      <g>
       <use xlink:href="#m4e4e107bd3" x="387.414071" y="387.16" style="stroke: #000000; stroke-width: 0.8"/>
      </g>
     </g>
     <g id="text_4">
      <!-- 600 -->
      <g transform="translate(377.870321 401.758438) scale(0.1 -0.1)">
       <defs>
        <path id="DejaVuSans-36" d="M 2113 2584 
Q 1688 2584 1439 2293 
Q 1191 2003 1191 1497 
Q 1191 994 1439 701 
Q 1688 409 2113 409 
Q 2538 409 2786 701 
Q 3034 994 3034 1497 
Q 3034 2003 2786 2293 
Q 2538 2584 2113 2584 
z
M 3366 4563 
L 3366 3988 
Q 3128 4100 2886 4159 
Q 2644 4219 2406 4219 
Q 1781 4219 1451 3797 
Q 1122 3375 1075 2522 
Q 1259 2794 1537 2939 
Q 1816 3084 2150 3084 
Q 2853 3084 3261 2657 
Q 3669 2231 3669 1497 
Q 3669 778 3244 343 
Q 2819 -91 2113 -91 
Q 1303 -91 875 529 
Q 447 1150 447 2328 
Q 447 3434 972 4092 
Q 1497 4750 2381 4750 
Q 2619 4750 2861 4703 
Q 3103 4656 3366 4563 
z
" transform="scale(0.015625)"/>
       </defs>
       <use xlink:href="#DejaVuSans-36"/>
       <use xlink:href="#DejaVuSans-30" x="63.623047"/>
       <use xlink:href="#DejaVuSans-30" x="127.246094"/>
      </g>
     </g>
    </g>
    <g id="xtick_5">
     <g id="line2d_5">
      <g>
       <use xlink:href="#m4e4e107bd3" x="477.348861" y="387.16" style="stroke: #000000; stroke-width: 0.8"/>
      </g>
     </g>
     <g id="text_5">
      <!-- 800 -->
      <g transform="translate(467.805111 401.758438) scale(0.1 -0.1)">
       <defs>
        <path id="DejaVuSans-38" d="M 2034 2216 
Q 1584 2216 1326 1975 
Q 1069 1734 1069 1313 
Q 1069 891 1326 650 
Q 1584 409 2034 409 
Q 2484 409 2743 651 
Q 3003 894 3003 1313 
Q 3003 1734 2745 1975 
Q 2488 2216 2034 2216 
z
M 1403 2484 
Q 997 2584 770 2862 
Q 544 3141 544 3541 
Q 544 4100 942 4425 
Q 1341 4750 2034 4750 
Q 2731 4750 3128 4425 
Q 3525 4100 3525 3541 
Q 3525 3141 3298 2862 
Q 3072 2584 2669 2484 
Q 3125 2378 3379 2068 
Q 3634 1759 3634 1313 
Q 3634 634 3220 271 
Q 2806 -91 2034 -91 
Q 1263 -91 848 271 
Q 434 634 434 1313 
Q 434 1759 690 2068 
Q 947 2378 1403 2484 
z
M 1172 3481 
Q 1172 3119 1398 2916 
Q 1625 2713 2034 2713 
Q 2441 2713 2670 2916 
Q 2900 3119 2900 3481 
Q 2900 3844 2670 4047 
Q 2441 4250 2034 4250 
Q 1625 4250 1398 4047 
Q 1172 3844 1172 3481 
z
" transform="scale(0.015625)"/>
       </defs>
       <use xlink:href="#DejaVuSans-38"/>
       <use xlink:href="#DejaVuSans-30" x="63.623047"/>
       <use xlink:href="#DejaVuSans-30" x="127.246094"/>
      </g>
     </g>
    </g>
    <g id="xtick_6">
     <g id="line2d_6">
      <g>
       <use xlink:href="#m4e4e107bd3" x="567.283652" y="387.16" style="stroke: #000000; stroke-width: 0.8"/>
      </g>
     </g>
     <g id="text_6">
      <!-- 1000 -->
      <g transform="translate(554.558652 401.758438) scale(0.1 -0.1)">
       <defs>
        <path id="DejaVuSans-31" d="M 794 531 
L 1825 531 
L 1825 4091 
L 703 3866 
L 703 4441 
L 1819 4666 
L 2450 4666 
L 2450 531 
L 3481 531 
L 3481 0 
L 794 0 
L 794 531 
z
" transform="scale(0.015625)"/>
       </defs>
       <use xlink:href="#DejaVuSans-31"/>
       <use xlink:href="#DejaVuSans-30" x="63.623047"/>
       <use xlink:href="#DejaVuSans-30" x="127.246094"/>
       <use xlink:href="#DejaVuSans-30" x="190.869141"/>
      </g>
     </g>
    </g>
    <g id="xtick_7">
     <g id="line2d_7">
      <g>
       <use xlink:href="#m4e4e107bd3" x="657.218442" y="387.16" style="stroke: #000000; stroke-width: 0.8"/>
      </g>
     </g>
     <g id="text_7">
      <!-- 1200 -->
      <g transform="translate(644.493442 401.758438) scale(0.1 -0.1)">
       <use xlink:href="#DejaVuSans-31"/>
       <use xlink:href="#DejaVuSans-32" x="63.623047"/>
       <use xlink:href="#DejaVuSans-30" x="127.246094"/>
       <use xlink:href="#DejaVuSans-30" x="190.869141"/>
      </g>
     </g>
    </g>
    <g id="text_8">
     <!-- $log([MMP9]/[Total Protein])$ -->
     <g transform="translate(339.765 415.438125) scale(0.1 -0.1)">
      <defs>
       <path id="DejaVuSans-Oblique-6c" d="M 1172 4863 
L 1747 4863 
L 800 0 
L 225 0 
L 1172 4863 
z
" transform="scale(0.015625)"/>
       <path id="DejaVuSans-Oblique-6f" d="M 1625 -91 
Q 1009 -91 651 289 
Q 294 669 294 1325 
Q 294 1706 417 2101 
Q 541 2497 738 2766 
Q 1047 3184 1428 3384 
Q 1809 3584 2291 3584 
Q 2888 3584 3255 3212 
Q 3622 2841 3622 2241 
Q 3622 1825 3500 1412 
Q 3378 1000 3181 728 
Q 2875 309 2494 109 
Q 2113 -91 1625 -91 
z
M 891 1344 
Q 891 869 1089 633 
Q 1288 397 1691 397 
Q 2269 397 2648 901 
Q 3028 1406 3028 2181 
Q 3028 2634 2825 2865 
Q 2622 3097 2228 3097 
Q 1903 3097 1650 2945 
Q 1397 2794 1197 2484 
Q 1050 2253 970 1956 
Q 891 1659 891 1344 
z
" transform="scale(0.015625)"/>
       <path id="DejaVuSans-Oblique-67" d="M 3816 3500 
L 3219 434 
Q 3047 -456 2561 -893 
Q 2075 -1331 1253 -1331 
Q 950 -1331 690 -1286 
Q 431 -1241 206 -1147 
L 313 -588 
Q 525 -725 762 -790 
Q 1000 -856 1269 -856 
Q 1816 -856 2167 -557 
Q 2519 -259 2631 300 
L 2681 563 
Q 2441 288 2122 144 
Q 1803 0 1434 0 
Q 903 0 598 351 
Q 294 703 294 1319 
Q 294 1803 478 2267 
Q 663 2731 997 3091 
Q 1219 3328 1514 3456 
Q 1809 3584 2131 3584 
Q 2484 3584 2746 3420 
Q 3009 3256 3138 2956 
L 3238 3500 
L 3816 3500 
z
M 2950 2216 
Q 2950 2641 2750 2872 
Q 2550 3103 2181 3103 
Q 1953 3103 1747 3012 
Q 1541 2922 1394 2759 
Q 1156 2491 1023 2127 
Q 891 1763 891 1375 
Q 891 944 1092 712 
Q 1294 481 1672 481 
Q 2219 481 2584 976 
Q 2950 1472 2950 2216 
z
" transform="scale(0.015625)"/>
       <path id="DejaVuSans-28" d="M 1984 4856 
Q 1566 4138 1362 3434 
Q 1159 2731 1159 2009 
Q 1159 1288 1364 580 
Q 1569 -128 1984 -844 
L 1484 -844 
Q 1016 -109 783 600 
Q 550 1309 550 2009 
Q 550 2706 781 3412 
Q 1013 4119 1484 4856 
L 1984 4856 
z
" transform="scale(0.015625)"/>
       <path id="DejaVuSans-5b" d="M 550 4863 
L 1875 4863 
L 1875 4416 
L 1125 4416 
L 1125 -397 
L 1875 -397 
L 1875 -844 
L 550 -844 
L 550 4863 
z
" transform="scale(0.015625)"/>
       <path id="DejaVuSans-Oblique-4d" d="M 1081 4666 
L 2028 4666 
L 2572 1522 
L 4378 4666 
L 5350 4666 
L 4441 0 
L 3828 0 
L 4622 4091 
L 2791 897 
L 2175 897 
L 1581 4103 
L 788 0 
L 172 0 
L 1081 4666 
z
" transform="scale(0.015625)"/>
       <path id="DejaVuSans-Oblique-50" d="M 1081 4666 
L 2541 4666 
Q 3178 4666 3512 4369 
Q 3847 4072 3847 3500 
Q 3847 2731 3353 2303 
Q 2859 1875 1966 1875 
L 1172 1875 
L 806 0 
L 172 0 
L 1081 4666 
z
M 1613 4147 
L 1275 2394 
L 2069 2394 
Q 2606 2394 2893 2669 
Q 3181 2944 3181 3456 
Q 3181 3784 2986 3965 
Q 2791 4147 2438 4147 
L 1613 4147 
z
" transform="scale(0.015625)"/>
       <path id="DejaVuSans-39" d="M 703 97 
L 703 672 
Q 941 559 1184 500 
Q 1428 441 1663 441 
Q 2288 441 2617 861 
Q 2947 1281 2994 2138 
Q 2813 1869 2534 1725 
Q 2256 1581 1919 1581 
Q 1219 1581 811 2004 
Q 403 2428 403 3163 
Q 403 3881 828 4315 
Q 1253 4750 1959 4750 
Q 2769 4750 3195 4129 
Q 3622 3509 3622 2328 
Q 3622 1225 3098 567 
Q 2575 -91 1691 -91 
Q 1453 -91 1209 -44 
Q 966 3 703 97 
z
M 1959 2075 
Q 2384 2075 2632 2365 
Q 2881 2656 2881 3163 
Q 2881 3666 2632 3958 
Q 2384 4250 1959 4250 
Q 1534 4250 1286 3958 
Q 1038 3666 1038 3163 
Q 1038 2656 1286 2365 
Q 1534 2075 1959 2075 
z
" transform="scale(0.015625)"/>
       <path id="DejaVuSans-5d" d="M 1947 4863 
L 1947 -844 
L 622 -844 
L 622 -397 
L 1369 -397 
L 1369 4416 
L 622 4416 
L 622 4863 
L 1947 4863 
z
" transform="scale(0.015625)"/>
       <path id="DejaVuSans-2f" d="M 1625 4666 
L 2156 4666 
L 531 -594 
L 0 -594 
L 1625 4666 
z
" transform="scale(0.015625)"/>
       <path id="DejaVuSans-Oblique-54" d="M 378 4666 
L 4325 4666 
L 4225 4134 
L 2559 4134 
L 1759 0 
L 1125 0 
L 1925 4134 
L 275 4134 
L 378 4666 
z
" transform="scale(0.015625)"/>
       <path id="DejaVuSans-Oblique-74" d="M 2706 3500 
L 2619 3053 
L 1472 3053 
L 1100 1153 
Q 1081 1047 1072 975 
Q 1063 903 1063 863 
Q 1063 663 1183 572 
Q 1303 481 1569 481 
L 2150 481 
L 2053 0 
L 1503 0 
Q 991 0 739 200 
Q 488 400 488 806 
Q 488 878 497 964 
Q 506 1050 525 1153 
L 897 3053 
L 409 3053 
L 500 3500 
L 978 3500 
L 1172 4494 
L 1747 4494 
L 1556 3500 
L 2706 3500 
z
" transform="scale(0.015625)"/>
       <path id="DejaVuSans-Oblique-61" d="M 3438 1997 
L 3047 0 
L 2472 0 
L 2578 531 
Q 2325 219 2001 64 
Q 1678 -91 1281 -91 
Q 834 -91 548 182 
Q 263 456 263 884 
Q 263 1497 752 1853 
Q 1241 2209 2100 2209 
L 2900 2209 
L 2931 2363 
Q 2938 2388 2941 2417 
Q 2944 2447 2944 2509 
Q 2944 2788 2717 2942 
Q 2491 3097 2081 3097 
Q 1800 3097 1504 3025 
Q 1209 2953 897 2809 
L 997 3341 
Q 1322 3463 1633 3523 
Q 1944 3584 2234 3584 
Q 2853 3584 3176 3315 
Q 3500 3047 3500 2534 
Q 3500 2431 3484 2292 
Q 3469 2153 3438 1997 
z
M 2816 1759 
L 2241 1759 
Q 1534 1759 1195 1570 
Q 856 1381 856 984 
Q 856 709 1029 553 
Q 1203 397 1509 397 
Q 1978 397 2328 733 
Q 2678 1069 2791 1631 
L 2816 1759 
z
" transform="scale(0.015625)"/>
       <path id="DejaVuSans-Oblique-72" d="M 2853 2969 
Q 2766 3016 2653 3041 
Q 2541 3066 2413 3066 
Q 1953 3066 1609 2717 
Q 1266 2369 1153 1784 
L 800 0 
L 225 0 
L 909 3500 
L 1484 3500 
L 1375 2956 
Q 1603 3259 1920 3421 
Q 2238 3584 2597 3584 
Q 2691 3584 2781 3573 
Q 2872 3563 2963 3538 
L 2853 2969 
z
" transform="scale(0.015625)"/>
       <path id="DejaVuSans-Oblique-65" d="M 3078 2063 
Q 3088 2113 3092 2166 
Q 3097 2219 3097 2272 
Q 3097 2653 2873 2875 
Q 2650 3097 2266 3097 
Q 1838 3097 1509 2826 
Q 1181 2556 1013 2059 
L 3078 2063 
z
M 3578 1613 
L 903 1613 
Q 884 1494 878 1425 
Q 872 1356 872 1306 
Q 872 872 1139 634 
Q 1406 397 1894 397 
Q 2269 397 2603 481 
Q 2938 566 3225 728 
L 3116 159 
Q 2806 34 2476 -28 
Q 2147 -91 1806 -91 
Q 1078 -91 686 257 
Q 294 606 294 1247 
Q 294 1794 489 2264 
Q 684 2734 1063 3103 
Q 1306 3334 1642 3459 
Q 1978 3584 2356 3584 
Q 2950 3584 3301 3228 
Q 3653 2872 3653 2272 
Q 3653 2128 3634 1964 
Q 3616 1800 3578 1613 
z
" transform="scale(0.015625)"/>
       <path id="DejaVuSans-Oblique-69" d="M 1172 4863 
L 1747 4863 
L 1606 4134 
L 1031 4134 
L 1172 4863 
z
M 909 3500 
L 1484 3500 
L 800 0 
L 225 0 
L 909 3500 
z
" transform="scale(0.015625)"/>
       <path id="DejaVuSans-Oblique-6e" d="M 3566 2113 
L 3156 0 
L 2578 0 
L 2988 2091 
Q 3016 2238 3031 2350 
Q 3047 2463 3047 2528 
Q 3047 2791 2881 2937 
Q 2716 3084 2419 3084 
Q 1956 3084 1622 2776 
Q 1288 2469 1184 1941 
L 800 0 
L 225 0 
L 903 3500 
L 1478 3500 
L 1363 2950 
Q 1603 3253 1940 3418 
Q 2278 3584 2650 3584 
Q 3113 3584 3367 3334 
Q 3622 3084 3622 2631 
Q 3622 2519 3608 2391 
Q 3594 2263 3566 2113 
z
" transform="scale(0.015625)"/>
       <path id="DejaVuSans-29" d="M 513 4856 
L 1013 4856 
Q 1481 4119 1714 3412 
Q 1947 2706 1947 2009 
Q 1947 1309 1714 600 
Q 1481 -109 1013 -844 
L 513 -844 
Q 928 -128 1133 580 
Q 1338 1288 1338 2009 
Q 1338 2731 1133 3434 
Q 928 4138 513 4856 
z
" transform="scale(0.015625)"/>
      </defs>
      <use xlink:href="#DejaVuSans-Oblique-6c" transform="translate(0 0.015625)"/>
      <use xlink:href="#DejaVuSans-Oblique-6f" transform="translate(27.783203 0.015625)"/>
      <use xlink:href="#DejaVuSans-Oblique-67" transform="translate(88.964844 0.015625)"/>
      <use xlink:href="#DejaVuSans-28" transform="translate(152.441406 0.015625)"/>
      <use xlink:href="#DejaVuSans-5b" transform="translate(191.455078 0.015625)"/>
      <use xlink:href="#DejaVuSans-Oblique-4d" transform="translate(230.46875 0.015625)"/>
      <use xlink:href="#DejaVuSans-Oblique-4d" transform="translate(316.748047 0.015625)"/>
      <use xlink:href="#DejaVuSans-Oblique-50" transform="translate(403.027344 0.015625)"/>
      <use xlink:href="#DejaVuSans-39" transform="translate(463.330078 0.015625)"/>
      <use xlink:href="#DejaVuSans-5d" transform="translate(526.953125 0.015625)"/>
      <use xlink:href="#DejaVuSans-2f" transform="translate(565.966797 0.015625)"/>
      <use xlink:href="#DejaVuSans-5b" transform="translate(599.658203 0.015625)"/>
      <use xlink:href="#DejaVuSans-Oblique-54" transform="translate(638.671875 0.015625)"/>
      <use xlink:href="#DejaVuSans-Oblique-6f" transform="translate(699.755859 0.015625)"/>
      <use xlink:href="#DejaVuSans-Oblique-74" transform="translate(760.9375 0.015625)"/>
      <use xlink:href="#DejaVuSans-Oblique-61" transform="translate(800.146484 0.015625)"/>
      <use xlink:href="#DejaVuSans-Oblique-6c" transform="translate(861.425781 0.015625)"/>
      <use xlink:href="#DejaVuSans-Oblique-50" transform="translate(889.208984 0.015625)"/>
      <use xlink:href="#DejaVuSans-Oblique-72" transform="translate(949.511719 0.015625)"/>
      <use xlink:href="#DejaVuSans-Oblique-6f" transform="translate(990.625 0.015625)"/>
      <use xlink:href="#DejaVuSans-Oblique-74" transform="translate(1051.806641 0.015625)"/>
      <use xlink:href="#DejaVuSans-Oblique-65" transform="translate(1091.015625 0.015625)"/>
      <use xlink:href="#DejaVuSans-Oblique-69" transform="translate(1152.539062 0.015625)"/>
      <use xlink:href="#DejaVuSans-Oblique-6e" transform="translate(1180.322266 0.015625)"/>
      <use xlink:href="#DejaVuSans-5d" transform="translate(1243.701172 0.015625)"/>
      <use xlink:href="#DejaVuSans-29" transform="translate(1282.714844 0.015625)"/>
     </g>
    </g>
   </g>
   <g id="matplotlib.axis_2">
    <g id="ytick_1">
     <g id="line2d_8">
      <defs>
       <path id="m5a30fac2a1" d="M 0 0 
L -3.5 0 
" style="stroke: #000000; stroke-width: 0.8"/>
      </defs>
      <g>
       <use xlink:href="#m5a30fac2a1" x="102.53" y="60.679036" style="stroke: #000000; stroke-width: 0.8"/>
      </g>
     </g>
     <g id="text_9">
      <!-- Reference -->
      <g transform="translate(45.176875 64.478255) scale(0.1 -0.1)">
       <defs>
        <path id="DejaVuSans-52" d="M 2841 2188 
Q 3044 2119 3236 1894 
Q 3428 1669 3622 1275 
L 4263 0 
L 3584 0 
L 2988 1197 
Q 2756 1666 2539 1819 
Q 2322 1972 1947 1972 
L 1259 1972 
L 1259 0 
L 628 0 
L 628 4666 
L 2053 4666 
Q 2853 4666 3247 4331 
Q 3641 3997 3641 3322 
Q 3641 2881 3436 2590 
Q 3231 2300 2841 2188 
z
M 1259 4147 
L 1259 2491 
L 2053 2491 
Q 2509 2491 2742 2702 
Q 2975 2913 2975 3322 
Q 2975 3731 2742 3939 
Q 2509 4147 2053 4147 
L 1259 4147 
z
" transform="scale(0.015625)"/>
        <path id="DejaVuSans-65" d="M 3597 1894 
L 3597 1613 
L 953 1613 
Q 991 1019 1311 708 
Q 1631 397 2203 397 
Q 2534 397 2845 478 
Q 3156 559 3463 722 
L 3463 178 
Q 3153 47 2828 -22 
Q 2503 -91 2169 -91 
Q 1331 -91 842 396 
Q 353 884 353 1716 
Q 353 2575 817 3079 
Q 1281 3584 2069 3584 
Q 2775 3584 3186 3129 
Q 3597 2675 3597 1894 
z
M 3022 2063 
Q 3016 2534 2758 2815 
Q 2500 3097 2075 3097 
Q 1594 3097 1305 2825 
Q 1016 2553 972 2059 
L 3022 2063 
z
" transform="scale(0.015625)"/>
        <path id="DejaVuSans-66" d="M 2375 4863 
L 2375 4384 
L 1825 4384 
Q 1516 4384 1395 4259 
Q 1275 4134 1275 3809 
L 1275 3500 
L 2222 3500 
L 2222 3053 
L 1275 3053 
L 1275 0 
L 697 0 
L 697 3053 
L 147 3053 
L 147 3500 
L 697 3500 
L 697 3744 
Q 697 4328 969 4595 
Q 1241 4863 1831 4863 
L 2375 4863 
z
" transform="scale(0.015625)"/>
        <path id="DejaVuSans-72" d="M 2631 2963 
Q 2534 3019 2420 3045 
Q 2306 3072 2169 3072 
Q 1681 3072 1420 2755 
Q 1159 2438 1159 1844 
L 1159 0 
L 581 0 
L 581 3500 
L 1159 3500 
L 1159 2956 
Q 1341 3275 1631 3429 
Q 1922 3584 2338 3584 
Q 2397 3584 2469 3576 
Q 2541 3569 2628 3553 
L 2631 2963 
z
" transform="scale(0.015625)"/>
        <path id="DejaVuSans-6e" d="M 3513 2113 
L 3513 0 
L 2938 0 
L 2938 2094 
Q 2938 2591 2744 2837 
Q 2550 3084 2163 3084 
Q 1697 3084 1428 2787 
Q 1159 2491 1159 1978 
L 1159 0 
L 581 0 
L 581 3500 
L 1159 3500 
L 1159 2956 
Q 1366 3272 1645 3428 
Q 1925 3584 2291 3584 
Q 2894 3584 3203 3211 
Q 3513 2838 3513 2113 
z
" transform="scale(0.015625)"/>
        <path id="DejaVuSans-63" d="M 3122 3366 
L 3122 2828 
Q 2878 2963 2633 3030 
Q 2388 3097 2138 3097 
Q 1578 3097 1268 2742 
Q 959 2388 959 1747 
Q 959 1106 1268 751 
Q 1578 397 2138 397 
Q 2388 397 2633 464 
Q 2878 531 3122 666 
L 3122 134 
Q 2881 22 2623 -34 
Q 2366 -91 2075 -91 
Q 1284 -91 818 406 
Q 353 903 353 1747 
Q 353 2603 823 3093 
Q 1294 3584 2113 3584 
Q 2378 3584 2631 3529 
Q 2884 3475 3122 3366 
z
" transform="scale(0.015625)"/>
       </defs>
       <use xlink:href="#DejaVuSans-52"/>
       <use xlink:href="#DejaVuSans-65" x="64.982422"/>
       <use xlink:href="#DejaVuSans-66" x="126.505859"/>
       <use xlink:href="#DejaVuSans-65" x="161.710938"/>
       <use xlink:href="#DejaVuSans-72" x="223.234375"/>
       <use xlink:href="#DejaVuSans-65" x="262.097656"/>
       <use xlink:href="#DejaVuSans-6e" x="323.621094"/>
       <use xlink:href="#DejaVuSans-63" x="387"/>
       <use xlink:href="#DejaVuSans-65" x="441.980469"/>
      </g>
     </g>
    </g>
    <g id="ytick_2">
     <g id="line2d_9">
      <g>
       <use xlink:href="#m5a30fac2a1" x="102.53" y="133.230361" style="stroke: #000000; stroke-width: 0.8"/>
      </g>
     </g>
     <g id="text_10">
      <!-- 24h 4C +PBS -->
      <g transform="translate(24.609688 137.02958) scale(0.1 -0.1)">
       <defs>
        <path id="DejaVuSans-68" d="M 3513 2113 
L 3513 0 
L 2938 0 
L 2938 2094 
Q 2938 2591 2744 2837 
Q 2550 3084 2163 3084 
Q 1697 3084 1428 2787 
Q 1159 2491 1159 1978 
L 1159 0 
L 581 0 
L 581 4863 
L 1159 4863 
L 1159 2956 
Q 1366 3272 1645 3428 
Q 1925 3584 2291 3584 
Q 2894 3584 3203 3211 
Q 3513 2838 3513 2113 
z
" transform="scale(0.015625)"/>
        <path id="DejaVuSans-20" transform="scale(0.015625)"/>
        <path id="DejaVuSans-ba" d="M 434 1850 
L 2584 1850 
L 2584 1466 
L 434 1466 
L 434 1850 
z
M 1509 4750 
Q 2069 4750 2391 4404 
Q 2713 4059 2713 3463 
Q 2713 2866 2391 2523 
Q 2069 2181 1509 2181 
Q 950 2181 625 2525 
Q 300 2869 300 3463 
Q 300 4059 625 4404 
Q 950 4750 1509 4750 
z
M 1509 4391 
Q 1181 4391 984 4139 
Q 788 3888 788 3463 
Q 788 3047 986 2797 
Q 1184 2547 1509 2547 
Q 1838 2547 2033 2797 
Q 2228 3047 2228 3463 
Q 2228 3891 2034 4141 
Q 1841 4391 1509 4391 
z
" transform="scale(0.015625)"/>
        <path id="DejaVuSans-43" d="M 4122 4306 
L 4122 3641 
Q 3803 3938 3442 4084 
Q 3081 4231 2675 4231 
Q 1875 4231 1450 3742 
Q 1025 3253 1025 2328 
Q 1025 1406 1450 917 
Q 1875 428 2675 428 
Q 3081 428 3442 575 
Q 3803 722 4122 1019 
L 4122 359 
Q 3791 134 3420 21 
Q 3050 -91 2638 -91 
Q 1578 -91 968 557 
Q 359 1206 359 2328 
Q 359 3453 968 4101 
Q 1578 4750 2638 4750 
Q 3056 4750 3426 4639 
Q 3797 4528 4122 4306 
z
" transform="scale(0.015625)"/>
        <path id="DejaVuSans-2b" d="M 2944 4013 
L 2944 2272 
L 4684 2272 
L 4684 1741 
L 2944 1741 
L 2944 0 
L 2419 0 
L 2419 1741 
L 678 1741 
L 678 2272 
L 2419 2272 
L 2419 4013 
L 2944 4013 
z
" transform="scale(0.015625)"/>
        <path id="DejaVuSans-50" d="M 1259 4147 
L 1259 2394 
L 2053 2394 
Q 2494 2394 2734 2622 
Q 2975 2850 2975 3272 
Q 2975 3691 2734 3919 
Q 2494 4147 2053 4147 
L 1259 4147 
z
M 628 4666 
L 2053 4666 
Q 2838 4666 3239 4311 
Q 3641 3956 3641 3272 
Q 3641 2581 3239 2228 
Q 2838 1875 2053 1875 
L 1259 1875 
L 1259 0 
L 628 0 
L 628 4666 
z
" transform="scale(0.015625)"/>
        <path id="DejaVuSans-42" d="M 1259 2228 
L 1259 519 
L 2272 519 
Q 2781 519 3026 730 
Q 3272 941 3272 1375 
Q 3272 1813 3026 2020 
Q 2781 2228 2272 2228 
L 1259 2228 
z
M 1259 4147 
L 1259 2741 
L 2194 2741 
Q 2656 2741 2882 2914 
Q 3109 3088 3109 3444 
Q 3109 3797 2882 3972 
Q 2656 4147 2194 4147 
L 1259 4147 
z
M 628 4666 
L 2241 4666 
Q 2963 4666 3353 4366 
Q 3744 4066 3744 3513 
Q 3744 3084 3544 2831 
Q 3344 2578 2956 2516 
Q 3422 2416 3680 2098 
Q 3938 1781 3938 1306 
Q 3938 681 3513 340 
Q 3088 0 2303 0 
L 628 0 
L 628 4666 
z
" transform="scale(0.015625)"/>
        <path id="DejaVuSans-53" d="M 3425 4513 
L 3425 3897 
Q 3066 4069 2747 4153 
Q 2428 4238 2131 4238 
Q 1616 4238 1336 4038 
Q 1056 3838 1056 3469 
Q 1056 3159 1242 3001 
Q 1428 2844 1947 2747 
L 2328 2669 
Q 3034 2534 3370 2195 
Q 3706 1856 3706 1288 
Q 3706 609 3251 259 
Q 2797 -91 1919 -91 
Q 1588 -91 1214 -16 
Q 841 59 441 206 
L 441 856 
Q 825 641 1194 531 
Q 1563 422 1919 422 
Q 2459 422 2753 634 
Q 3047 847 3047 1241 
Q 3047 1584 2836 1778 
Q 2625 1972 2144 2069 
L 1759 2144 
Q 1053 2284 737 2584 
Q 422 2884 422 3419 
Q 422 4038 858 4394 
Q 1294 4750 2059 4750 
Q 2388 4750 2728 4690 
Q 3069 4631 3425 4513 
z
" transform="scale(0.015625)"/>
       </defs>
       <use xlink:href="#DejaVuSans-32"/>
       <use xlink:href="#DejaVuSans-34" x="63.623047"/>
       <use xlink:href="#DejaVuSans-68" x="127.246094"/>
       <use xlink:href="#DejaVuSans-20" x="190.625"/>
       <use xlink:href="#DejaVuSans-34" x="222.412109"/>
       <use xlink:href="#DejaVuSans-ba" x="286.035156"/>
       <use xlink:href="#DejaVuSans-43" x="333.154297"/>
       <use xlink:href="#DejaVuSans-20" x="402.978516"/>
       <use xlink:href="#DejaVuSans-2b" x="434.765625"/>
       <use xlink:href="#DejaVuSans-50" x="518.554688"/>
       <use xlink:href="#DejaVuSans-42" x="578.857422"/>
       <use xlink:href="#DejaVuSans-53" x="645.710938"/>
      </g>
     </g>
    </g>
    <g id="ytick_3">
     <g id="line2d_10">
      <g>
       <use xlink:href="#m5a30fac2a1" x="102.53" y="205.781687" style="stroke: #000000; stroke-width: 0.8"/>
      </g>
     </g>
     <g id="text_11">
      <!-- 72h 4C +PBS -->
      <g transform="translate(24.609688 209.580905) scale(0.1 -0.1)">
       <defs>
        <path id="DejaVuSans-37" d="M 525 4666 
L 3525 4666 
L 3525 4397 
L 1831 0 
L 1172 0 
L 2766 4134 
L 525 4134 
L 525 4666 
z
" transform="scale(0.015625)"/>
       </defs>
       <use xlink:href="#DejaVuSans-37"/>
       <use xlink:href="#DejaVuSans-32" x="63.623047"/>
       <use xlink:href="#DejaVuSans-68" x="127.246094"/>
       <use xlink:href="#DejaVuSans-20" x="190.625"/>
       <use xlink:href="#DejaVuSans-34" x="222.412109"/>
       <use xlink:href="#DejaVuSans-ba" x="286.035156"/>
       <use xlink:href="#DejaVuSans-43" x="333.154297"/>
       <use xlink:href="#DejaVuSans-20" x="402.978516"/>
       <use xlink:href="#DejaVuSans-2b" x="434.765625"/>
       <use xlink:href="#DejaVuSans-50" x="518.554688"/>
       <use xlink:href="#DejaVuSans-42" x="578.857422"/>
       <use xlink:href="#DejaVuSans-53" x="645.710938"/>
      </g>
     </g>
    </g>
    <g id="ytick_4">
     <g id="line2d_11">
      <g>
       <use xlink:href="#m5a30fac2a1" x="102.53" y="278.333012" style="stroke: #000000; stroke-width: 0.8"/>
      </g>
     </g>
     <g id="text_12">
      <!-- 24h 4C -PBS -->
      <g transform="translate(29.381563 282.132231) scale(0.1 -0.1)">
       <defs>
        <path id="DejaVuSans-2d" d="M 313 2009 
L 1997 2009 
L 1997 1497 
L 313 1497 
L 313 2009 
z
" transform="scale(0.015625)"/>
       </defs>
       <use xlink:href="#DejaVuSans-32"/>
       <use xlink:href="#DejaVuSans-34" x="63.623047"/>
       <use xlink:href="#DejaVuSans-68" x="127.246094"/>
       <use xlink:href="#DejaVuSans-20" x="190.625"/>
       <use xlink:href="#DejaVuSans-34" x="222.412109"/>
       <use xlink:href="#DejaVuSans-ba" x="286.035156"/>
       <use xlink:href="#DejaVuSans-43" x="333.154297"/>
       <use xlink:href="#DejaVuSans-20" x="402.978516"/>
       <use xlink:href="#DejaVuSans-2d" x="434.765625"/>
       <use xlink:href="#DejaVuSans-50" x="470.849609"/>
       <use xlink:href="#DejaVuSans-42" x="531.152344"/>
       <use xlink:href="#DejaVuSans-53" x="598.005859"/>
      </g>
     </g>
    </g>
    <g id="ytick_5">
     <g id="line2d_12">
      <g>
       <use xlink:href="#m5a30fac2a1" x="102.53" y="350.884337" style="stroke: #000000; stroke-width: 0.8"/>
      </g>
     </g>
     <g id="text_13">
      <!-- 72h 4C -PBS -->
      <g transform="translate(29.381563 354.683556) scale(0.1 -0.1)">
       <use xlink:href="#DejaVuSans-37"/>
       <use xlink:href="#DejaVuSans-32" x="63.623047"/>
       <use xlink:href="#DejaVuSans-68" x="127.246094"/>
       <use xlink:href="#DejaVuSans-20" x="190.625"/>
       <use xlink:href="#DejaVuSans-34" x="222.412109"/>
       <use xlink:href="#DejaVuSans-ba" x="286.035156"/>
       <use xlink:href="#DejaVuSans-43" x="333.154297"/>
       <use xlink:href="#DejaVuSans-20" x="402.978516"/>
       <use xlink:href="#DejaVuSans-2d" x="434.765625"/>
       <use xlink:href="#DejaVuSans-50" x="470.849609"/>
       <use xlink:href="#DejaVuSans-42" x="531.152344"/>
       <use xlink:href="#DejaVuSans-53" x="598.005859"/>
      </g>
     </g>
    </g>
    <g id="text_14">
     <!-- Condition -->
     <g transform="translate(18.53 222.840156) rotate(-90) scale(0.1 -0.1)">
      <defs>
       <path id="DejaVuSans-6f" d="M 1959 3097 
Q 1497 3097 1228 2736 
Q 959 2375 959 1747 
Q 959 1119 1226 758 
Q 1494 397 1959 397 
Q 2419 397 2687 759 
Q 2956 1122 2956 1747 
Q 2956 2369 2687 2733 
Q 2419 3097 1959 3097 
z
M 1959 3584 
Q 2709 3584 3137 3096 
Q 3566 2609 3566 1747 
Q 3566 888 3137 398 
Q 2709 -91 1959 -91 
Q 1206 -91 779 398 
Q 353 888 353 1747 
Q 353 2609 779 3096 
Q 1206 3584 1959 3584 
z
" transform="scale(0.015625)"/>
       <path id="DejaVuSans-64" d="M 2906 2969 
L 2906 4863 
L 3481 4863 
L 3481 0 
L 2906 0 
L 2906 525 
Q 2725 213 2448 61 
Q 2172 -91 1784 -91 
Q 1150 -91 751 415 
Q 353 922 353 1747 
Q 353 2572 751 3078 
Q 1150 3584 1784 3584 
Q 2172 3584 2448 3432 
Q 2725 3281 2906 2969 
z
M 947 1747 
Q 947 1113 1208 752 
Q 1469 391 1925 391 
Q 2381 391 2643 752 
Q 2906 1113 2906 1747 
Q 2906 2381 2643 2742 
Q 2381 3103 1925 3103 
Q 1469 3103 1208 2742 
Q 947 2381 947 1747 
z
" transform="scale(0.015625)"/>
       <path id="DejaVuSans-69" d="M 603 3500 
L 1178 3500 
L 1178 0 
L 603 0 
L 603 3500 
z
M 603 4863 
L 1178 4863 
L 1178 4134 
L 603 4134 
L 603 4863 
z
" transform="scale(0.015625)"/>
       <path id="DejaVuSans-74" d="M 1172 4494 
L 1172 3500 
L 2356 3500 
L 2356 3053 
L 1172 3053 
L 1172 1153 
Q 1172 725 1289 603 
Q 1406 481 1766 481 
L 2356 481 
L 2356 0 
L 1766 0 
Q 1100 0 847 248 
Q 594 497 594 1153 
L 594 3053 
L 172 3053 
L 172 3500 
L 594 3500 
L 594 4494 
L 1172 4494 
z
" transform="scale(0.015625)"/>
      </defs>
      <use xlink:href="#DejaVuSans-43"/>
      <use xlink:href="#DejaVuSans-6f" x="69.824219"/>
      <use xlink:href="#DejaVuSans-6e" x="131.005859"/>
      <use xlink:href="#DejaVuSans-64" x="194.384766"/>
      <use xlink:href="#DejaVuSans-69" x="257.861328"/>
      <use xlink:href="#DejaVuSans-74" x="285.644531"/>
      <use xlink:href="#DejaVuSans-69" x="324.853516"/>
      <use xlink:href="#DejaVuSans-6f" x="352.636719"/>
      <use xlink:href="#DejaVuSans-6e" x="413.818359"/>
     </g>
    </g>
   </g>
   <g id="line2d_13">
    <path d="M 130.336008 57.958361 
L 130.336008 63.399711 
" clip-path="url(#pa38170d26c)" style="fill: none; stroke: #434343; stroke-width: 1.5; stroke-linecap: square"/>
   </g>
   <g id="line2d_14">
    <path d="M 244.281731 57.958361 
L 244.281731 63.399711 
" clip-path="url(#pa38170d26c)" style="fill: none; stroke: #434343; stroke-width: 1.5; stroke-linecap: square"/>
   </g>
   <g id="line2d_15">
    <defs>
     <path id="m5eaa1d64b2" d="M -0 3.535534 
L 2.12132 0 
L -0 -3.535534 
L -2.12132 -0 
z
" style="stroke: #434343; stroke-linejoin: miter"/>
    </defs>
    <g clip-path="url(#pa38170d26c)">
     <use xlink:href="#m5eaa1d64b2" x="353.371803" y="60.679036" style="fill: #434343; stroke: #434343; stroke-linejoin: miter"/>
    </g>
   </g>
   <g id="line2d_16">
    <path d="M 130.882167 130.509687 
L 130.882167 135.951036 
" clip-path="url(#pa38170d26c)" style="fill: none; stroke: #434343; stroke-width: 1.5; stroke-linecap: square"/>
   </g>
   <g id="line2d_17">
    <path d="M 306.59256 130.509687 
L 306.59256 135.951036 
" clip-path="url(#pa38170d26c)" style="fill: none; stroke: #434343; stroke-width: 1.5; stroke-linecap: square"/>
   </g>
   <g id="line2d_18"/>
   <g id="line2d_19">
    <path d="M 131.461781 203.061012 
L 131.461781 208.502361 
" clip-path="url(#pa38170d26c)" style="fill: none; stroke: #434343; stroke-width: 1.5; stroke-linecap: square"/>
   </g>
   <g id="line2d_20">
    <path d="M 265.683097 203.061012 
L 265.683097 208.502361 
" clip-path="url(#pa38170d26c)" style="fill: none; stroke: #434343; stroke-width: 1.5; stroke-linecap: square"/>
   </g>
   <g id="line2d_21"/>
   <g id="line2d_22">
    <path d="M 135.714383 275.612337 
L 135.714383 281.053687 
" clip-path="url(#pa38170d26c)" style="fill: none; stroke: #434343; stroke-width: 1.5; stroke-linecap: square"/>
   </g>
   <g id="line2d_23">
    <path d="M 244.426775 275.612337 
L 244.426775 281.053687 
" clip-path="url(#pa38170d26c)" style="fill: none; stroke: #434343; stroke-width: 1.5; stroke-linecap: square"/>
   </g>
   <g id="line2d_24"/>
   <g id="line2d_25">
    <path d="M 130.105909 348.163663 
L 130.105909 353.605012 
" clip-path="url(#pa38170d26c)" style="fill: none; stroke: #434343; stroke-width: 1.5; stroke-linecap: square"/>
   </g>
   <g id="line2d_26">
    <path d="M 320.225138 348.163663 
L 320.225138 353.605012 
" clip-path="url(#pa38170d26c)" style="fill: none; stroke: #434343; stroke-width: 1.5; stroke-linecap: square"/>
   </g>
   <g id="line2d_27">
    <g clip-path="url(#pa38170d26c)">
     <use xlink:href="#m5eaa1d64b2" x="403.323985" y="350.884337" style="fill: #434343; stroke: #434343; stroke-linejoin: miter"/>
     <use xlink:href="#m5eaa1d64b2" x="681.624091" y="350.884337" style="fill: #434343; stroke: #434343; stroke-linejoin: miter"/>
    </g>
   </g>
   <g id="line2d_28">
    <path d="M 190.509526 55.237687 
L 190.509526 66.120386 
" clip-path="url(#pa38170d26c)" style="fill: none; stroke: #434343; stroke-width: 1.5; stroke-linecap: square"/>
   </g>
   <g id="line2d_29">
    <path d="M 196.138626 127.789012 
L 196.138626 138.671711 
" clip-path="url(#pa38170d26c)" style="fill: none; stroke: #434343; stroke-width: 1.5; stroke-linecap: square"/>
   </g>
   <g id="line2d_30">
    <path d="M 192.189333 200.340337 
L 192.189333 211.223036 
" clip-path="url(#pa38170d26c)" style="fill: none; stroke: #434343; stroke-width: 1.5; stroke-linecap: square"/>
   </g>
   <g id="line2d_31">
    <path d="M 183.290878 272.891663 
L 183.290878 283.774361 
" clip-path="url(#pa38170d26c)" style="fill: none; stroke: #434343; stroke-width: 1.5; stroke-linecap: square"/>
   </g>
   <g id="line2d_32">
    <path d="M 173.725269 345.442988 
L 173.725269 356.325687 
" clip-path="url(#pa38170d26c)" style="fill: none; stroke: #434343; stroke-width: 1.5; stroke-linecap: square"/>
   </g>
   <g id="patch_3">
    <path d="M 102.53 387.16 
L 102.53 10.8 
" style="fill: none; stroke: #000000; stroke-width: 0.8; stroke-linejoin: miter; stroke-linecap: square"/>
   </g>
   <g id="patch_4">
    <path d="M 709.2 387.16 
L 709.2 10.8 
" style="fill: none; stroke: #000000; stroke-width: 0.8; stroke-linejoin: miter; stroke-linecap: square"/>
   </g>
   <g id="patch_5">
    <path d="M 102.53 387.16 
L 709.2 387.16 
" style="fill: none; stroke: #000000; stroke-width: 0.8; stroke-linejoin: miter; stroke-linecap: square"/>
   </g>
   <g id="patch_6">
    <path d="M 102.53 10.8 
L 709.2 10.8 
" style="fill: none; stroke: #000000; stroke-width: 0.8; stroke-linejoin: miter; stroke-linecap: square"/>
   </g>
   <g id="patch_7">
    <path d="M 156.895218 55.237687 
L 156.895218 66.120386 
L 203.518899 66.120386 
L 203.518899 55.237687 
L 156.895218 55.237687 
L 156.895218 55.237687 
z
" clip-path="url(#pa38170d26c)" style="fill: none; stroke: #434343; stroke-width: 1.5; stroke-linejoin: miter"/>
   </g>
   <g id="line2d_33">
    <path d="M 156.895218 60.679036 
L 130.336008 60.679036 
" clip-path="url(#pa38170d26c)" style="fill: none; stroke: #434343; stroke-width: 2; stroke-linecap: square"/>
   </g>
   <g id="line2d_34">
    <path d="M 203.518899 60.679036 
L 244.281731 60.679036 
" clip-path="url(#pa38170d26c)" style="fill: none; stroke: #434343; stroke-width: 2; stroke-linecap: square"/>
   </g>
   <g id="patch_8">
    <path d="M 148.022401 127.789012 
L 148.022401 138.671711 
L 242.94486 138.671711 
L 242.94486 127.789012 
L 148.022401 127.789012 
L 148.022401 127.789012 
z
" clip-path="url(#pa38170d26c)" style="fill: none; stroke: #434343; stroke-width: 1.5; stroke-linejoin: miter"/>
   </g>
   <g id="line2d_35">
    <path d="M 148.022401 133.230361 
L 130.882167 133.230361 
" clip-path="url(#pa38170d26c)" style="fill: none; stroke: #434343; stroke-width: 2; stroke-linecap: square"/>
   </g>
   <g id="line2d_36">
    <path d="M 242.94486 133.230361 
L 306.59256 133.230361 
" clip-path="url(#pa38170d26c)" style="fill: none; stroke: #434343; stroke-width: 2; stroke-linecap: square"/>
   </g>
   <g id="patch_9">
    <path d="M 142.771391 200.340337 
L 142.771391 211.223036 
L 214.142817 211.223036 
L 214.142817 200.340337 
L 142.771391 200.340337 
L 142.771391 200.340337 
z
" clip-path="url(#pa38170d26c)" style="fill: none; stroke: #434343; stroke-width: 1.5; stroke-linejoin: miter"/>
   </g>
   <g id="line2d_37">
    <path d="M 142.771391 205.781687 
L 131.461781 205.781687 
" clip-path="url(#pa38170d26c)" style="fill: none; stroke: #434343; stroke-width: 2; stroke-linecap: square"/>
   </g>
   <g id="line2d_38">
    <path d="M 214.142817 205.781687 
L 265.683097 205.781687 
" clip-path="url(#pa38170d26c)" style="fill: none; stroke: #434343; stroke-width: 2; stroke-linecap: square"/>
   </g>
   <g id="patch_10">
    <path d="M 152.397641 272.891663 
L 152.397641 283.774361 
L 210.800083 283.774361 
L 210.800083 272.891663 
L 152.397641 272.891663 
L 152.397641 272.891663 
z
" clip-path="url(#pa38170d26c)" style="fill: none; stroke: #434343; stroke-width: 1.5; stroke-linejoin: miter"/>
   </g>
   <g id="line2d_39">
    <path d="M 152.397641 278.333012 
L 135.714383 278.333012 
" clip-path="url(#pa38170d26c)" style="fill: none; stroke: #434343; stroke-width: 2; stroke-linecap: square"/>
   </g>
   <g id="line2d_40">
    <path d="M 210.800083 278.333012 
L 244.426775 278.333012 
" clip-path="url(#pa38170d26c)" style="fill: none; stroke: #434343; stroke-width: 2; stroke-linecap: square"/>
   </g>
   <g id="patch_11">
    <path d="M 148.358668 345.442988 
L 148.358668 356.325687 
L 249.976031 356.325687 
L 249.976031 345.442988 
L 148.358668 345.442988 
L 148.358668 345.442988 
z
" clip-path="url(#pa38170d26c)" style="fill: none; stroke: #434343; stroke-width: 1.5; stroke-linejoin: miter"/>
   </g>
   <g id="line2d_41">
    <path d="M 148.358668 350.884337 
L 130.105909 350.884337 
" clip-path="url(#pa38170d26c)" style="fill: none; stroke: #434343; stroke-width: 2; stroke-linecap: square"/>
   </g>
   <g id="line2d_42">
    <path d="M 249.976031 350.884337 
L 320.225138 350.884337 
" clip-path="url(#pa38170d26c)" style="fill: none; stroke: #434343; stroke-width: 2; stroke-linecap: square"/>
   </g>
  </g>
 </g>
 <defs>
  <clipPath id="pa38170d26c">
   <rect x="102.53" y="10.8" width="606.67" height="376.36"/>
  </clipPath>
 </defs>
</svg>
