<?xml version="1.0" encoding="utf-8" standalone="no"?>
<!DOCTYPE svg PUBLIC "-//W3C//DTD SVG 1.1//EN"
  "http://www.w3.org/Graphics/SVG/1.1/DTD/svg11.dtd">
<svg xmlns:xlink="http://www.w3.org/1999/xlink" width="720pt" height="432pt" viewBox="0 0 720 432" xmlns="http://www.w3.org/2000/svg" version="1.1">
 <metadata>
  <rdf:RDF xmlns:dc="http://purl.org/dc/elements/1.1/" xmlns:cc="http://creativecommons.org/ns#" xmlns:rdf="http://www.w3.org/1999/02/22-rdf-syntax-ns#">
   <cc:Work>
    <dc:type rdf:resource="http://purl.org/dc/dcmitype/StillImage"/>
    <dc:date>2024-09-30T14:08:30.323332</dc:date>
    <dc:format>image/svg+xml</dc:format>
    <dc:creator>
     <cc:Agent>
      <dc:title>Matplotlib v3.7.3, https://matplotlib.org/</dc:title>
     </cc:Agent>
    </dc:creator>
   </cc:Work>
  </rdf:RDF>
 </metadata>
 <defs>
  <style type="text/css">*{stroke-linejoin: round; stroke-linecap: butt}</style>
 </defs>
 <g id="figure_1">
  <g id="patch_1">
   <path d="M 0 432 
L 720 432 
L 720 0 
L 0 0 
z
" style="fill: #ffffff"/>
  </g>
  <g id="axes_1">
   <g id="patch_2">
    <path d="M 102.53 387.16 
L 709.2 387.16 
L 709.2 10.8 
L 102.53 10.8 
z
" style="fill: #ffffff"/>
   </g>
   <g id="PathCollection_1">
    <defs>
     <path id="C0_0_379c08f95e" d="M 0 1.5 
C 0.397805 1.5 0.77937 1.341951 1.06066 1.06066 
C 1.341951 0.77937 1.5 0.397805 1.5 -0 
C 1.5 -0.397805 1.341951 -0.77937 1.06066 -1.06066 
C 0.77937 -1.341951 0.397805 -1.5 0 -1.5 
C -0.397805 -1.5 -0.77937 -1.341951 -1.06066 -1.06066 
C -1.341951 -0.77937 -1.5 -0.397805 -1.5 0 
C -1.5 0.397805 -1.341951 0.77937 -1.06066 1.06066 
C -0.77937 1.341951 -0.397805 1.5 0 1.5 
z
"/>
    </defs>
    <g clip-path="url(#pd7623dacba)">
     <use xlink:href="#C0_0_379c08f95e" x="216.863558" y="66.479224" style="fill: #f77189"/>
    </g>
    <g clip-path="url(#pd7623dacba)">
     <use xlink:href="#C0_0_379c08f95e" x="253.744242" y="64.471974" style="fill: #f77189"/>
    </g>
    <g clip-path="url(#pd7623dacba)">
     <use xlink:href="#C0_0_379c08f95e" x="445.808887" y="65.296786" style="fill: #f77189"/>
    </g>
    <g clip-path="url(#pd7623dacba)">
     <use xlink:href="#C0_0_379c08f95e" x="144.331009" y="54.532871" style="fill: #f77189"/>
    </g>
    <g clip-path="url(#pd7623dacba)">
     <use xlink:href="#C0_0_379c08f95e" x="149.062634" y="67.459584" style="fill: #f77189"/>
    </g>
    <g clip-path="url(#pd7623dacba)">
     <use xlink:href="#C0_0_379c08f95e" x="154.679613" y="62.275159" style="fill: #f77189"/>
    </g>
    <g clip-path="url(#pd7623dacba)">
     <use xlink:href="#C0_0_379c08f95e" x="180.461044" y="67.24925" style="fill: #f77189"/>
    </g>
    <g clip-path="url(#pd7623dacba)">
     <use xlink:href="#C0_0_379c08f95e" x="176.14872" y="65.901067" style="fill: #f77189"/>
    </g>
    <g clip-path="url(#pd7623dacba)">
     <use xlink:href="#C0_0_379c08f95e" x="174.163075" y="53.971861" style="fill: #f77189"/>
    </g>
    <g clip-path="url(#pd7623dacba)">
     <use xlink:href="#C0_0_379c08f95e" x="201.836321" y="67.857193" style="fill: #f77189"/>
    </g>
    <g clip-path="url(#pd7623dacba)">
     <use xlink:href="#C0_0_379c08f95e" x="193.624001" y="56.70675" style="fill: #f77189"/>
    </g>
    <g clip-path="url(#pd7623dacba)">
     <use xlink:href="#C0_0_379c08f95e" x="173.748559" y="63.77451" style="fill: #f77189"/>
    </g>
    <g clip-path="url(#pd7623dacba)">
     <use xlink:href="#C0_0_379c08f95e" x="171.182" y="61.339522" style="fill: #f77189"/>
    </g>
    <g clip-path="url(#pd7623dacba)">
     <use xlink:href="#C0_0_379c08f95e" x="183.108511" y="62.690948" style="fill: #f77189"/>
    </g>
    <g clip-path="url(#pd7623dacba)">
     <use xlink:href="#C0_0_379c08f95e" x="152.78561" y="59.160503" style="fill: #f77189"/>
    </g>
    <g clip-path="url(#pd7623dacba)">
     <use xlink:href="#C0_0_379c08f95e" x="402.680795" y="66.438746" style="fill: #f77189"/>
    </g>
    <g clip-path="url(#pd7623dacba)">
     <use xlink:href="#C0_0_379c08f95e" x="553.564893" y="55.049011" style="fill: #f77189"/>
    </g>
    <g clip-path="url(#pd7623dacba)">
     <use xlink:href="#C0_0_379c08f95e" x="130.105909" y="64.359098" style="fill: #f77189"/>
    </g>
    <g clip-path="url(#pd7623dacba)">
     <use xlink:href="#C0_0_379c08f95e" x="171.310465" y="63.049937" style="fill: #f77189"/>
    </g>
    <g clip-path="url(#pd7623dacba)">
     <use xlink:href="#C0_0_379c08f95e" x="152.999069" y="65.375659" style="fill: #f77189"/>
    </g>
    <g clip-path="url(#pd7623dacba)">
     <use xlink:href="#C0_0_379c08f95e" x="142.161062" y="66.243001" style="fill: #f77189"/>
    </g>
    <g clip-path="url(#pd7623dacba)">
     <use xlink:href="#C0_0_379c08f95e" x="145.086946" y="54.894508" style="fill: #f77189"/>
    </g>
    <g clip-path="url(#pd7623dacba)">
     <use xlink:href="#C0_0_379c08f95e" x="139.857734" y="60.789909" style="fill: #f77189"/>
    </g>
    <g clip-path="url(#pd7623dacba)">
     <use xlink:href="#C0_0_379c08f95e" x="216.290809" y="61.610116" style="fill: #f77189"/>
    </g>
    <g clip-path="url(#pd7623dacba)">
     <use xlink:href="#C0_0_379c08f95e" x="177.642405" y="62.626473" style="fill: #f77189"/>
    </g>
    <g clip-path="url(#pd7623dacba)">
     <use xlink:href="#C0_0_379c08f95e" x="177.516598" y="56.840912" style="fill: #f77189"/>
    </g>
    <g clip-path="url(#pd7623dacba)">
     <use xlink:href="#C0_0_379c08f95e" x="172.513264" y="61.889772" style="fill: #f77189"/>
    </g>
    <g clip-path="url(#pd7623dacba)">
     <use xlink:href="#C0_0_379c08f95e" x="175.508175" y="61.271821" style="fill: #f77189"/>
    </g>
    <g clip-path="url(#pd7623dacba)">
     <use xlink:href="#C0_0_379c08f95e" x="171.964026" y="57.638304" style="fill: #f77189"/>
    </g>
   </g>
   <g id="PathCollection_2">
    <defs>
     <path id="C1_0_e9ab8e8777" d="M 0 1.5 
C 0.397805 1.5 0.77937 1.341951 1.06066 1.06066 
C 1.341951 0.77937 1.5 0.397805 1.5 -0 
C 1.5 -0.397805 1.341951 -0.77937 1.06066 -1.06066 
C 0.77937 -1.341951 0.397805 -1.5 0 -1.5 
C -0.397805 -1.5 -0.77937 -1.341951 -1.06066 -1.06066 
C -1.341951 -0.77937 -1.5 -0.397805 -1.5 0 
C -1.5 0.397805 -1.341951 0.77937 -1.06066 1.06066 
C -0.77937 1.341951 -0.397805 1.5 0 1.5 
z
"/>
    </defs>
    <g clip-path="url(#pd7623dacba)">
     <use xlink:href="#C1_0_e9ab8e8777" x="286.717329" y="135.807854" style="fill: #ae9d31"/>
    </g>
    <g clip-path="url(#pd7623dacba)">
     <use xlink:href="#C1_0_e9ab8e8777" x="278.679399" y="132.471463" style="fill: #ae9d31"/>
    </g>
    <g clip-path="url(#pd7623dacba)">
     <use xlink:href="#C1_0_e9ab8e8777" x="239.311088" y="137.701762" style="fill: #ae9d31"/>
    </g>
    <g clip-path="url(#pd7623dacba)">
     <use xlink:href="#C1_0_e9ab8e8777" x="145.524313" y="138.52333" style="fill: #ae9d31"/>
    </g>
    <g clip-path="url(#pd7623dacba)">
     <use xlink:href="#C1_0_e9ab8e8777" x="147.83576" y="132.112168" style="fill: #ae9d31"/>
    </g>
    <g clip-path="url(#pd7623dacba)">
     <use xlink:href="#C1_0_e9ab8e8777" x="142.104167" y="132.072769" style="fill: #ae9d31"/>
    </g>
    <g clip-path="url(#pd7623dacba)">
     <use xlink:href="#C1_0_e9ab8e8777" x="191.451158" y="128.339607" style="fill: #ae9d31"/>
    </g>
    <g clip-path="url(#pd7623dacba)">
     <use xlink:href="#C1_0_e9ab8e8777" x="161.845236" y="137.260198" style="fill: #ae9d31"/>
    </g>
    <g clip-path="url(#pd7623dacba)">
     <use xlink:href="#C1_0_e9ab8e8777" x="208.211747" y="131.899901" style="fill: #ae9d31"/>
    </g>
    <g clip-path="url(#pd7623dacba)">
     <use xlink:href="#C1_0_e9ab8e8777" x="210.760101" y="130.141154" style="fill: #ae9d31"/>
    </g>
    <g clip-path="url(#pd7623dacba)">
     <use xlink:href="#C1_0_e9ab8e8777" x="201.230871" y="126.088136" style="fill: #ae9d31"/>
    </g>
    <g clip-path="url(#pd7623dacba)">
     <use xlink:href="#C1_0_e9ab8e8777" x="225.560494" y="139.820994" style="fill: #ae9d31"/>
    </g>
    <g clip-path="url(#pd7623dacba)">
     <use xlink:href="#C1_0_e9ab8e8777" x="196.007028" y="135.995678" style="fill: #ae9d31"/>
    </g>
    <g clip-path="url(#pd7623dacba)">
     <use xlink:href="#C1_0_e9ab8e8777" x="190.122592" y="138.137109" style="fill: #ae9d31"/>
    </g>
    <g clip-path="url(#pd7623dacba)">
     <use xlink:href="#C1_0_e9ab8e8777" x="184.382743" y="129.449134" style="fill: #ae9d31"/>
    </g>
    <g clip-path="url(#pd7623dacba)">
     <use xlink:href="#C1_0_e9ab8e8777" x="351.913422" y="135.780916" style="fill: #ae9d31"/>
    </g>
    <g clip-path="url(#pd7623dacba)">
     <use xlink:href="#C1_0_e9ab8e8777" x="681.624091" y="128.569817" style="fill: #ae9d31"/>
    </g>
    <g clip-path="url(#pd7623dacba)">
     <use xlink:href="#C1_0_e9ab8e8777" x="176.11686" y="132.870968" style="fill: #ae9d31"/>
    </g>
    <g clip-path="url(#pd7623dacba)">
     <use xlink:href="#C1_0_e9ab8e8777" x="160.382386" y="139.770403" style="fill: #ae9d31"/>
    </g>
    <g clip-path="url(#pd7623dacba)">
     <use xlink:href="#C1_0_e9ab8e8777" x="192.12608" y="129.893442" style="fill: #ae9d31"/>
    </g>
    <g clip-path="url(#pd7623dacba)">
     <use xlink:href="#C1_0_e9ab8e8777" x="131.498714" y="134.006016" style="fill: #ae9d31"/>
    </g>
    <g clip-path="url(#pd7623dacba)">
     <use xlink:href="#C1_0_e9ab8e8777" x="132.691421" y="129.954568" style="fill: #ae9d31"/>
    </g>
    <g clip-path="url(#pd7623dacba)">
     <use xlink:href="#C1_0_e9ab8e8777" x="138.566273" y="138.00791" style="fill: #ae9d31"/>
    </g>
    <g clip-path="url(#pd7623dacba)">
     <use xlink:href="#C1_0_e9ab8e8777" x="193.64935" y="137.685033" style="fill: #ae9d31"/>
    </g>
    <g clip-path="url(#pd7623dacba)">
     <use xlink:href="#C1_0_e9ab8e8777" x="186.3402" y="131.679862" style="fill: #ae9d31"/>
    </g>
    <g clip-path="url(#pd7623dacba)">
     <use xlink:href="#C1_0_e9ab8e8777" x="188.567875" y="137.324485" style="fill: #ae9d31"/>
    </g>
    <g clip-path="url(#pd7623dacba)">
     <use xlink:href="#C1_0_e9ab8e8777" x="173.192496" y="138.566275" style="fill: #ae9d31"/>
    </g>
    <g clip-path="url(#pd7623dacba)">
     <use xlink:href="#C1_0_e9ab8e8777" x="260.76228" y="136.794242" style="fill: #ae9d31"/>
    </g>
    <g clip-path="url(#pd7623dacba)">
     <use xlink:href="#C1_0_e9ab8e8777" x="177.269462" y="131.959161" style="fill: #ae9d31"/>
    </g>
   </g>
   <g id="PathCollection_3">
    <defs>
     <path id="C2_0_f809b211ac" d="M 0 1.5 
C 0.397805 1.5 0.77937 1.341951 1.06066 1.06066 
C 1.341951 0.77937 1.5 0.397805 1.5 -0 
C 1.5 -0.397805 1.341951 -0.77937 1.06066 -1.06066 
C 0.77937 -1.341951 0.397805 -1.5 0 -1.5 
C -0.397805 -1.5 -0.77937 -1.341951 -1.06066 -1.06066 
C -1.341951 -0.77937 -1.5 -0.397805 -1.5 0 
C -1.5 0.397805 -1.341951 0.77937 -1.06066 1.06066 
C -0.77937 1.341951 -0.397805 1.5 0 1.5 
z
"/>
    </defs>
    <g clip-path="url(#pd7623dacba)">
     <use xlink:href="#C2_0_f809b211ac" x="269.693945" y="208.869746" style="fill: #33b07a"/>
    </g>
    <g clip-path="url(#pd7623dacba)">
     <use xlink:href="#C2_0_f809b211ac" x="205.106885" y="203.059528" style="fill: #33b07a"/>
    </g>
    <g clip-path="url(#pd7623dacba)">
     <use xlink:href="#C2_0_f809b211ac" x="233.104182" y="212.269214" style="fill: #33b07a"/>
    </g>
    <g clip-path="url(#pd7623dacba)">
     <use xlink:href="#C2_0_f809b211ac" x="141.276076" y="203.517594" style="fill: #33b07a"/>
    </g>
    <g clip-path="url(#pd7623dacba)">
     <use xlink:href="#C2_0_f809b211ac" x="155.267498" y="198.955466" style="fill: #33b07a"/>
    </g>
    <g clip-path="url(#pd7623dacba)">
     <use xlink:href="#C2_0_f809b211ac" x="150.016544" y="205.188612" style="fill: #33b07a"/>
    </g>
    <g clip-path="url(#pd7623dacba)">
     <use xlink:href="#C2_0_f809b211ac" x="216.23297" y="201.934777" style="fill: #33b07a"/>
    </g>
    <g clip-path="url(#pd7623dacba)">
     <use xlink:href="#C2_0_f809b211ac" x="175.778955" y="209.212473" style="fill: #33b07a"/>
    </g>
    <g clip-path="url(#pd7623dacba)">
     <use xlink:href="#C2_0_f809b211ac" x="179.34962" y="203.355917" style="fill: #33b07a"/>
    </g>
    <g clip-path="url(#pd7623dacba)">
     <use xlink:href="#C2_0_f809b211ac" x="250.481604" y="203.190169" style="fill: #33b07a"/>
    </g>
    <g clip-path="url(#pd7623dacba)">
     <use xlink:href="#C2_0_f809b211ac" x="225.849308" y="208.489843" style="fill: #33b07a"/>
    </g>
    <g clip-path="url(#pd7623dacba)">
     <use xlink:href="#C2_0_f809b211ac" x="203.515436" y="199.898526" style="fill: #33b07a"/>
    </g>
    <g clip-path="url(#pd7623dacba)">
     <use xlink:href="#C2_0_f809b211ac" x="153.647017" y="201.973928" style="fill: #33b07a"/>
    </g>
    <g clip-path="url(#pd7623dacba)">
     <use xlink:href="#C2_0_f809b211ac" x="169.593704" y="206.92515" style="fill: #33b07a"/>
    </g>
    <g clip-path="url(#pd7623dacba)">
     <use xlink:href="#C2_0_f809b211ac" x="167.738566" y="204.020907" style="fill: #33b07a"/>
    </g>
    <g clip-path="url(#pd7623dacba)">
     <use xlink:href="#C2_0_f809b211ac" x="370.810933" y="212.422922" style="fill: #33b07a"/>
    </g>
    <g clip-path="url(#pd7623dacba)">
     <use xlink:href="#C2_0_f809b211ac" x="322.424266" y="212.649124" style="fill: #33b07a"/>
    </g>
    <g clip-path="url(#pd7623dacba)">
     <use xlink:href="#C2_0_f809b211ac" x="309.541529" y="200.516923" style="fill: #33b07a"/>
    </g>
    <g clip-path="url(#pd7623dacba)">
     <use xlink:href="#C2_0_f809b211ac" x="178.918921" y="199.482385" style="fill: #33b07a"/>
    </g>
    <g clip-path="url(#pd7623dacba)">
     <use xlink:href="#C2_0_f809b211ac" x="165.844502" y="203.476948" style="fill: #33b07a"/>
    </g>
    <g clip-path="url(#pd7623dacba)">
     <use xlink:href="#C2_0_f809b211ac" x="155.675383" y="198.66531" style="fill: #33b07a"/>
    </g>
    <g clip-path="url(#pd7623dacba)">
     <use xlink:href="#C2_0_f809b211ac" x="136.227324" y="209.918893" style="fill: #33b07a"/>
    </g>
    <g clip-path="url(#pd7623dacba)">
     <use xlink:href="#C2_0_f809b211ac" x="138.297368" y="199.896269" style="fill: #33b07a"/>
    </g>
    <g clip-path="url(#pd7623dacba)">
     <use xlink:href="#C2_0_f809b211ac" x="136.980603" y="203.043963" style="fill: #33b07a"/>
    </g>
    <g clip-path="url(#pd7623dacba)">
     <use xlink:href="#C2_0_f809b211ac" x="173.577074" y="205.200071" style="fill: #33b07a"/>
    </g>
    <g clip-path="url(#pd7623dacba)">
     <use xlink:href="#C2_0_f809b211ac" x="191.165701" y="206.625564" style="fill: #33b07a"/>
    </g>
    <g clip-path="url(#pd7623dacba)">
     <use xlink:href="#C2_0_f809b211ac" x="168.094372" y="210.145014" style="fill: #33b07a"/>
    </g>
    <g clip-path="url(#pd7623dacba)">
     <use xlink:href="#C2_0_f809b211ac" x="158.551349" y="202.047391" style="fill: #33b07a"/>
    </g>
    <g clip-path="url(#pd7623dacba)">
     <use xlink:href="#C2_0_f809b211ac" x="162.660415" y="209.231328" style="fill: #33b07a"/>
    </g>
    <g clip-path="url(#pd7623dacba)">
     <use xlink:href="#C2_0_f809b211ac" x="167.739031" y="198.567869" style="fill: #33b07a"/>
    </g>
   </g>
   <g id="PathCollection_4">
    <defs>
     <path id="C3_0_8449f1e8d3" d="M 0 1.5 
C 0.397805 1.5 0.77937 1.341951 1.06066 1.06066 
C 1.341951 0.77937 1.5 0.397805 1.5 -0 
C 1.5 -0.397805 1.341951 -0.77937 1.06066 -1.06066 
C 0.77937 -1.341951 0.397805 -1.5 0 -1.5 
C -0.397805 -1.5 -0.77937 -1.341951 -1.06066 -1.06066 
C -1.341951 -0.77937 -1.5 -0.397805 -1.5 0 
C -1.5 0.397805 -1.341951 0.77937 -1.06066 1.06066 
C -0.77937 1.341951 -0.397805 1.5 0 1.5 
z
"/>
    </defs>
    <g clip-path="url(#pd7623dacba)">
     <use xlink:href="#C3_0_8449f1e8d3" x="236.802895" y="274.307887" style="fill: #38a9c5"/>
    </g>
    <g clip-path="url(#pd7623dacba)">
     <use xlink:href="#C3_0_8449f1e8d3" x="213.489682" y="285.448716" style="fill: #38a9c5"/>
    </g>
    <g clip-path="url(#pd7623dacba)">
     <use xlink:href="#C3_0_8449f1e8d3" x="248.23587" y="272.142488" style="fill: #38a9c5"/>
    </g>
    <g clip-path="url(#pd7623dacba)">
     <use xlink:href="#C3_0_8449f1e8d3" x="155.393403" y="283.924864" style="fill: #38a9c5"/>
    </g>
    <g clip-path="url(#pd7623dacba)">
     <use xlink:href="#C3_0_8449f1e8d3" x="153.628416" y="284.644767" style="fill: #38a9c5"/>
    </g>
    <g clip-path="url(#pd7623dacba)">
     <use xlink:href="#C3_0_8449f1e8d3" x="150.583409" y="271.746029" style="fill: #38a9c5"/>
    </g>
    <g clip-path="url(#pd7623dacba)">
     <use xlink:href="#C3_0_8449f1e8d3" x="165.814928" y="277.586171" style="fill: #38a9c5"/>
    </g>
    <g clip-path="url(#pd7623dacba)">
     <use xlink:href="#C3_0_8449f1e8d3" x="162.656977" y="285.437016" style="fill: #38a9c5"/>
    </g>
    <g clip-path="url(#pd7623dacba)">
     <use xlink:href="#C3_0_8449f1e8d3" x="190.780241" y="283.708527" style="fill: #38a9c5"/>
    </g>
    <g clip-path="url(#pd7623dacba)">
     <use xlink:href="#C3_0_8449f1e8d3" x="184.072285" y="281.311894" style="fill: #38a9c5"/>
    </g>
    <g clip-path="url(#pd7623dacba)">
     <use xlink:href="#C3_0_8449f1e8d3" x="209.491632" y="282.905823" style="fill: #38a9c5"/>
    </g>
    <g clip-path="url(#pd7623dacba)">
     <use xlink:href="#C3_0_8449f1e8d3" x="280.285622" y="276.945945" style="fill: #38a9c5"/>
    </g>
    <g clip-path="url(#pd7623dacba)">
     <use xlink:href="#C3_0_8449f1e8d3" x="188.550646" y="284.038513" style="fill: #38a9c5"/>
    </g>
    <g clip-path="url(#pd7623dacba)">
     <use xlink:href="#C3_0_8449f1e8d3" x="163.277862" y="273.725348" style="fill: #38a9c5"/>
    </g>
    <g clip-path="url(#pd7623dacba)">
     <use xlink:href="#C3_0_8449f1e8d3" x="171.459517" y="276.162258" style="fill: #38a9c5"/>
    </g>
    <g clip-path="url(#pd7623dacba)">
     <use xlink:href="#C3_0_8449f1e8d3" x="438.063403" y="284.862793" style="fill: #38a9c5"/>
    </g>
    <g clip-path="url(#pd7623dacba)">
     <use xlink:href="#C3_0_8449f1e8d3" x="343.137951" y="281.551714" style="fill: #38a9c5"/>
    </g>
    <g clip-path="url(#pd7623dacba)">
     <use xlink:href="#C3_0_8449f1e8d3" x="550.54268" y="276.733546" style="fill: #38a9c5"/>
    </g>
    <g clip-path="url(#pd7623dacba)">
     <use xlink:href="#C3_0_8449f1e8d3" x="162.94203" y="271.232335" style="fill: #38a9c5"/>
    </g>
    <g clip-path="url(#pd7623dacba)">
     <use xlink:href="#C3_0_8449f1e8d3" x="149.912742" y="282.23912" style="fill: #38a9c5"/>
    </g>
    <g clip-path="url(#pd7623dacba)">
     <use xlink:href="#C3_0_8449f1e8d3" x="166.147602" y="271.334779" style="fill: #38a9c5"/>
    </g>
    <g clip-path="url(#pd7623dacba)">
     <use xlink:href="#C3_0_8449f1e8d3" x="140.466107" y="273.835276" style="fill: #38a9c5"/>
    </g>
    <g clip-path="url(#pd7623dacba)">
     <use xlink:href="#C3_0_8449f1e8d3" x="139.14863" y="281.081209" style="fill: #38a9c5"/>
    </g>
    <g clip-path="url(#pd7623dacba)">
     <use xlink:href="#C3_0_8449f1e8d3" x="131.155386" y="279.800688" style="fill: #38a9c5"/>
    </g>
    <g clip-path="url(#pd7623dacba)">
     <use xlink:href="#C3_0_8449f1e8d3" x="153.83006" y="284.650361" style="fill: #38a9c5"/>
    </g>
    <g clip-path="url(#pd7623dacba)">
     <use xlink:href="#C3_0_8449f1e8d3" x="163.074037" y="272.858823" style="fill: #38a9c5"/>
    </g>
    <g clip-path="url(#pd7623dacba)">
     <use xlink:href="#C3_0_8449f1e8d3" x="172.375626" y="272.40757" style="fill: #38a9c5"/>
    </g>
    <g clip-path="url(#pd7623dacba)">
     <use xlink:href="#C3_0_8449f1e8d3" x="182.577935" y="282.189876" style="fill: #38a9c5"/>
    </g>
    <g clip-path="url(#pd7623dacba)">
     <use xlink:href="#C3_0_8449f1e8d3" x="175.783676" y="277.317321" style="fill: #38a9c5"/>
    </g>
    <g clip-path="url(#pd7623dacba)">
     <use xlink:href="#C3_0_8449f1e8d3" x="232.725514" y="272.0575" style="fill: #38a9c5"/>
    </g>
   </g>
   <g id="PathCollection_5">
    <defs>
     <path id="C4_0_483fe5b3b4" d="M 0 1.5 
C 0.397805 1.5 0.77937 1.341951 1.06066 1.06066 
C 1.341951 0.77937 1.5 0.397805 1.5 -0 
C 1.5 -0.397805 1.341951 -0.77937 1.06066 -1.06066 
C 0.77937 -1.341951 0.397805 -1.5 0 -1.5 
C -0.397805 -1.5 -0.77937 -1.341951 -1.06066 -1.06066 
C -1.341951 -0.77937 -1.5 -0.397805 -1.5 0 
C -1.5 0.397805 -1.341951 0.77937 -1.06066 1.06066 
C -0.77937 1.341951 -0.397805 1.5 0 1.5 
z
"/>
    </defs>
    <g clip-path="url(#pd7623dacba)">
     <use xlink:href="#C4_0_483fe5b3b4" x="287.176504" y="343.804493" style="fill: #cc7af4"/>
    </g>
    <g clip-path="url(#pd7623dacba)">
     <use xlink:href="#C4_0_483fe5b3b4" x="256.52691" y="353.877932" style="fill: #cc7af4"/>
    </g>
    <g clip-path="url(#pd7623dacba)">
     <use xlink:href="#C4_0_483fe5b3b4" x="300.367658" y="355.282729" style="fill: #cc7af4"/>
    </g>
    <g clip-path="url(#pd7623dacba)">
     <use xlink:href="#C4_0_483fe5b3b4" x="149.444958" y="357.723151" style="fill: #cc7af4"/>
    </g>
    <g clip-path="url(#pd7623dacba)">
     <use xlink:href="#C4_0_483fe5b3b4" x="164.411031" y="351.592541" style="fill: #cc7af4"/>
    </g>
    <g clip-path="url(#pd7623dacba)">
     <use xlink:href="#C4_0_483fe5b3b4" x="142.210877" y="352.510744" style="fill: #cc7af4"/>
    </g>
    <g clip-path="url(#pd7623dacba)">
     <use xlink:href="#C4_0_483fe5b3b4" x="183.671467" y="349.202404" style="fill: #cc7af4"/>
    </g>
    <g clip-path="url(#pd7623dacba)">
     <use xlink:href="#C4_0_483fe5b3b4" x="169.058386" y="347.231583" style="fill: #cc7af4"/>
    </g>
    <g clip-path="url(#pd7623dacba)">
     <use xlink:href="#C4_0_483fe5b3b4" x="163.881501" y="355.729252" style="fill: #cc7af4"/>
    </g>
    <g clip-path="url(#pd7623dacba)">
     <use xlink:href="#C4_0_483fe5b3b4" x="217.53126" y="351.935463" style="fill: #cc7af4"/>
    </g>
    <g clip-path="url(#pd7623dacba)">
     <use xlink:href="#C4_0_483fe5b3b4" x="225.429717" y="351.261868" style="fill: #cc7af4"/>
    </g>
    <g clip-path="url(#pd7623dacba)">
     <use xlink:href="#C4_0_483fe5b3b4" x="239.409428" y="350.095256" style="fill: #cc7af4"/>
    </g>
    <g clip-path="url(#pd7623dacba)">
     <use xlink:href="#C4_0_483fe5b3b4" x="146.121799" y="354.940512" style="fill: #cc7af4"/>
    </g>
    <g clip-path="url(#pd7623dacba)">
     <use xlink:href="#C4_0_483fe5b3b4" x="158.927918" y="352.294871" style="fill: #cc7af4"/>
    </g>
    <g clip-path="url(#pd7623dacba)">
     <use xlink:href="#C4_0_483fe5b3b4" x="165.128339" y="349.936862" style="fill: #cc7af4"/>
    </g>
    <g clip-path="url(#pd7623dacba)">
     <use xlink:href="#C4_0_483fe5b3b4" x="643.322266" y="353.446689" style="fill: #cc7af4"/>
    </g>
    <g clip-path="url(#pd7623dacba)">
     <use xlink:href="#C4_0_483fe5b3b4" x="360.33173" y="344.048685" style="fill: #cc7af4"/>
    </g>
    <g clip-path="url(#pd7623dacba)">
     <use xlink:href="#C4_0_483fe5b3b4" x="540.787536" y="345.596141" style="fill: #cc7af4"/>
    </g>
    <g clip-path="url(#pd7623dacba)">
     <use xlink:href="#C4_0_483fe5b3b4" x="174.282051" y="353.112348" style="fill: #cc7af4"/>
    </g>
    <g clip-path="url(#pd7623dacba)">
     <use xlink:href="#C4_0_483fe5b3b4" x="194.752234" y="347.558979" style="fill: #cc7af4"/>
    </g>
    <g clip-path="url(#pd7623dacba)">
     <use xlink:href="#C4_0_483fe5b3b4" x="144.643338" y="344.235612" style="fill: #cc7af4"/>
    </g>
    <g clip-path="url(#pd7623dacba)">
     <use xlink:href="#C4_0_483fe5b3b4" x="135.699384" y="350.915042" style="fill: #cc7af4"/>
    </g>
    <g clip-path="url(#pd7623dacba)">
     <use xlink:href="#C4_0_483fe5b3b4" x="138.732695" y="343.905381" style="fill: #cc7af4"/>
    </g>
    <g clip-path="url(#pd7623dacba)">
     <use xlink:href="#C4_0_483fe5b3b4" x="140.571117" y="355.374779" style="fill: #cc7af4"/>
    </g>
    <g clip-path="url(#pd7623dacba)">
     <use xlink:href="#C4_0_483fe5b3b4" x="182.921211" y="356.867961" style="fill: #cc7af4"/>
    </g>
    <g clip-path="url(#pd7623dacba)">
     <use xlink:href="#C4_0_483fe5b3b4" x="196.079306" y="357.498929" style="fill: #cc7af4"/>
    </g>
    <g clip-path="url(#pd7623dacba)">
     <use xlink:href="#C4_0_483fe5b3b4" x="168.604171" y="354.798048" style="fill: #cc7af4"/>
    </g>
    <g clip-path="url(#pd7623dacba)">
     <use xlink:href="#C4_0_483fe5b3b4" x="208.606676" y="355.786753" style="fill: #cc7af4"/>
    </g>
    <g clip-path="url(#pd7623dacba)">
     <use xlink:href="#C4_0_483fe5b3b4" x="193.925038" y="356.480078" style="fill: #cc7af4"/>
    </g>
    <g clip-path="url(#pd7623dacba)">
     <use xlink:href="#C4_0_483fe5b3b4" x="179.170923" y="355.515503" style="fill: #cc7af4"/>
    </g>
   </g>
   <g id="PolyCollection_1">
    <defs>
     <path id="mce6ecde630" d="M 130.105909 -385.831229 
L 130.105909 -393.93099 
L 134.383273 -395.551188 
L 138.660636 -397.186912 
L 142.938 -398.780682 
L 147.215363 -400.280084 
L 151.492726 -401.636404 
L 155.77009 -402.80001 
L 160.047453 -403.715942 
L 164.324817 -404.323838 
L 168.60218 -404.564829 
L 172.879544 -404.394744 
L 177.156907 -403.7994 
L 181.434271 -402.805846 
L 185.711634 -401.484234 
L 189.988998 -399.938379 
L 194.266361 -398.287455 
L 198.543725 -396.644641 
L 202.821088 -395.099365 
L 207.098452 -393.707965 
L 211.375815 -392.494065 
L 215.653179 -391.456436 
L 219.930542 -390.580037 
L 224.207906 -389.845815 
L 228.485269 -389.236454 
L 232.762633 -388.737561 
L 237.039996 -388.335736 
L 241.317359 -388.01589 
L 245.594723 -387.75989 
L 249.872086 -387.547457 
L 254.14945 -387.358949 
L 258.426813 -387.17875 
L 262.704177 -386.997794 
L 266.98154 -386.814264 
L 271.258904 -386.632332 
L 275.536267 -386.459557 
L 279.813631 -386.303944 
L 284.090994 -386.171578 
L 288.368358 -386.065377 
L 292.645721 -385.984991 
L 296.923085 -385.927547 
L 301.200448 -385.888757 
L 305.477812 -385.863983 
L 309.755175 -385.849009 
L 314.032539 -385.840449 
L 318.309902 -385.835844 
L 322.587266 -385.833583 
L 326.864629 -385.832736 
L 331.141993 -385.832919 
L 335.419356 -385.834217 
L 339.696719 -385.837201 
L 343.974083 -385.843032 
L 348.251446 -385.853608 
L 352.52881 -385.871709 
L 356.806173 -385.901006 
L 361.083537 -385.945829 
L 365.3609 -386.01057 
L 369.638264 -386.098675 
L 373.915627 -386.211364 
L 378.192991 -386.346353 
L 382.470354 -386.497062 
L 386.747718 -386.652781 
L 391.025081 -386.800082 
L 395.302445 -386.9254 
L 399.579808 -387.018203 
L 403.857172 -387.073809 
L 408.134535 -387.094851 
L 412.411899 -387.090688 
L 416.689262 -387.074723 
L 420.966626 -387.060353 
L 425.243989 -387.056789 
L 429.521352 -387.066141 
L 433.798716 -387.082746 
L 438.076079 -387.094968 
L 442.353443 -387.088862 
L 446.630806 -387.052468 
L 450.90817 -386.979356 
L 455.185533 -386.870371 
L 459.462897 -386.733218 
L 463.74026 -386.580251 
L 468.017624 -386.425362 
L 472.294987 -386.281007 
L 476.572351 -386.156149 
L 480.849714 -386.055487 
L 485.127078 -385.979875 
L 489.404441 -385.927514 
L 493.681805 -385.895449 
L 497.959168 -385.880939 
L 502.236532 -385.882453 
L 506.513895 -385.900153 
L 510.791259 -385.935841 
L 515.068622 -385.992353 
L 519.345986 -386.072458 
L 523.623349 -386.17739 
L 527.900712 -386.305308 
L 532.178076 -386.45009 
L 536.455439 -386.600965 
L 540.732803 -386.743344 
L 545.010166 -386.860906 
L 549.28753 -386.9386 
L 553.564893 -386.965779 
L 553.564893 -385.831229 
L 553.564893 -385.831229 
L 549.28753 -385.831229 
L 545.010166 -385.831229 
L 540.732803 -385.831229 
L 536.455439 -385.831229 
L 532.178076 -385.831229 
L 527.900712 -385.831229 
L 523.623349 -385.831229 
L 519.345986 -385.831229 
L 515.068622 -385.831229 
L 510.791259 -385.831229 
L 506.513895 -385.831229 
L 502.236532 -385.831229 
L 497.959168 -385.831229 
L 493.681805 -385.831229 
L 489.404441 -385.831229 
L 485.127078 -385.831229 
L 480.849714 -385.831229 
L 476.572351 -385.831229 
L 472.294987 -385.831229 
L 468.017624 -385.831229 
L 463.74026 -385.831229 
L 459.462897 -385.831229 
L 455.185533 -385.831229 
L 450.90817 -385.831229 
L 446.630806 -385.831229 
L 442.353443 -385.831229 
L 438.076079 -385.831229 
L 433.798716 -385.831229 
L 429.521352 -385.831229 
L 425.243989 -385.831229 
L 420.966626 -385.831229 
L 416.689262 -385.831229 
L 412.411899 -385.831229 
L 408.134535 -385.831229 
L 403.857172 -385.831229 
L 399.579808 -385.831229 
L 395.302445 -385.831229 
L 391.025081 -385.831229 
L 386.747718 -385.831229 
L 382.470354 -385.831229 
L 378.192991 -385.831229 
L 373.915627 -385.831229 
L 369.638264 -385.831229 
L 365.3609 -385.831229 
L 361.083537 -385.831229 
L 356.806173 -385.831229 
L 352.52881 -385.831229 
L 348.251446 -385.831229 
L 343.974083 -385.831229 
L 339.696719 -385.831229 
L 335.419356 -385.831229 
L 331.141993 -385.831229 
L 326.864629 -385.831229 
L 322.587266 -385.831229 
L 318.309902 -385.831229 
L 314.032539 -385.831229 
L 309.755175 -385.831229 
L 305.477812 -385.831229 
L 301.200448 -385.831229 
L 296.923085 -385.831229 
L 292.645721 -385.831229 
L 288.368358 -385.831229 
L 284.090994 -385.831229 
L 279.813631 -385.831229 
L 275.536267 -385.831229 
L 271.258904 -385.831229 
L 266.98154 -385.831229 
L 262.704177 -385.831229 
L 258.426813 -385.831229 
L 254.14945 -385.831229 
L 249.872086 -385.831229 
L 245.594723 -385.831229 
L 241.317359 -385.831229 
L 237.039996 -385.831229 
L 232.762633 -385.831229 
L 228.485269 -385.831229 
L 224.207906 -385.831229 
L 219.930542 -385.831229 
L 215.653179 -385.831229 
L 211.375815 -385.831229 
L 207.098452 -385.831229 
L 202.821088 -385.831229 
L 198.543725 -385.831229 
L 194.266361 -385.831229 
L 189.988998 -385.831229 
L 185.711634 -385.831229 
L 181.434271 -385.831229 
L 177.156907 -385.831229 
L 172.879544 -385.831229 
L 168.60218 -385.831229 
L 164.324817 -385.831229 
L 160.047453 -385.831229 
L 155.77009 -385.831229 
L 151.492726 -385.831229 
L 147.215363 -385.831229 
L 142.938 -385.831229 
L 138.660636 -385.831229 
L 134.383273 -385.831229 
L 130.105909 -385.831229 
z
" style="stroke: #434343; stroke-opacity: 0.65"/>
    </defs>
    <g clip-path="url(#pd7623dacba)">
     <use xlink:href="#mce6ecde630" x="0" y="432" style="fill: #e68193; fill-opacity: 0.65; stroke: #434343; stroke-opacity: 0.65"/>
    </g>
   </g>
   <g id="PolyCollection_2">
    <defs>
     <path id="m2c3b9f5ff9" d="M 131.498714 -313.279904 
L 131.498714 -320.249138 
L 137.055536 -321.364113 
L 142.612358 -322.351545 
L 148.16918 -323.22818 
L 153.726002 -324.04993 
L 159.282824 -324.87989 
L 164.839646 -325.748619 
L 170.396468 -326.623966 
L 175.95329 -327.405143 
L 181.510112 -327.946119 
L 187.066934 -328.100852 
L 192.623756 -327.773102 
L 198.180578 -326.951209 
L 203.7374 -325.714697 
L 209.294222 -324.211731 
L 214.851044 -322.618274 
L 220.407865 -321.095656 
L 225.964687 -319.760972 
L 231.521509 -318.676699 
L 237.078331 -317.856908 
L 242.635153 -317.28196 
L 248.191975 -316.913205 
L 253.748797 -316.702745 
L 259.305619 -316.597946 
L 264.862441 -316.543608 
L 270.419263 -316.485336 
L 275.976085 -316.375874 
L 281.532907 -316.183462 
L 287.089729 -315.89904 
L 292.646551 -315.538738 
L 298.203373 -315.139765 
L 303.760195 -314.750602 
L 309.317017 -314.418704 
L 314.873839 -314.179539 
L 320.430661 -314.04962 
L 325.987483 -314.024348 
L 331.544305 -314.080149 
L 337.101127 -314.18004 
L 342.657949 -314.281724 
L 348.214771 -314.346965 
L 353.771593 -314.350164 
L 359.328415 -314.283562 
L 364.885237 -314.157222 
L 370.442059 -313.993822 
L 375.998881 -313.820445 
L 381.555703 -313.660619 
L 387.112525 -313.529319 
L 392.669347 -313.431881 
L 398.226169 -313.366035 
L 403.782991 -313.325305 
L 409.339813 -313.302162 
L 414.896635 -313.290053 
L 420.453457 -313.284208 
L 426.010279 -313.281602 
L 431.567101 -313.280527 
L 437.123923 -313.280116 
L 442.680745 -313.279971 
L 448.237567 -313.279924 
L 453.794389 -313.279909 
L 459.351211 -313.279905 
L 464.908033 -313.279904 
L 470.464855 -313.279904 
L 476.021677 -313.279904 
L 481.578499 -313.279904 
L 487.135321 -313.279904 
L 492.692143 -313.279904 
L 498.248965 -313.279904 
L 503.805787 -313.279904 
L 509.362609 -313.279904 
L 514.919431 -313.279904 
L 520.476253 -313.279904 
L 526.033075 -313.279904 
L 531.589897 -313.279904 
L 537.146719 -313.279904 
L 542.703541 -313.279904 
L 548.260363 -313.279904 
L 553.817185 -313.279904 
L 559.374007 -313.279904 
L 564.930829 -313.279904 
L 570.487651 -313.279904 
L 576.044473 -313.279906 
L 581.601295 -313.279912 
L 587.158117 -313.279934 
L 592.714939 -313.280003 
L 598.271761 -313.280211 
L 603.828583 -313.280782 
L 609.385405 -313.28224 
L 614.942227 -313.285685 
L 620.499049 -313.293208 
L 626.055871 -313.308382 
L 631.612693 -313.336601 
L 637.169515 -313.384889 
L 642.726337 -313.460711 
L 648.283159 -313.56952 
L 653.839981 -313.711377 
L 659.396803 -313.877773 
L 664.953625 -314.050416 
L 670.510447 -314.203486 
L 676.067269 -314.309561 
L 681.624091 -314.347561 
L 681.624091 -313.279904 
L 681.624091 -313.279904 
L 676.067269 -313.279904 
L 670.510447 -313.279904 
L 664.953625 -313.279904 
L 659.396803 -313.279904 
L 653.839981 -313.279904 
L 648.283159 -313.279904 
L 642.726337 -313.279904 
L 637.169515 -313.279904 
L 631.612693 -313.279904 
L 626.055871 -313.279904 
L 620.499049 -313.279904 
L 614.942227 -313.279904 
L 609.385405 -313.279904 
L 603.828583 -313.279904 
L 598.271761 -313.279904 
L 592.714939 -313.279904 
L 587.158117 -313.279904 
L 581.601295 -313.279904 
L 576.044473 -313.279904 
L 570.487651 -313.279904 
L 564.930829 -313.279904 
L 559.374007 -313.279904 
L 553.817185 -313.279904 
L 548.260363 -313.279904 
L 542.703541 -313.279904 
L 537.146719 -313.279904 
L 531.589897 -313.279904 
L 526.033075 -313.279904 
L 520.476253 -313.279904 
L 514.919431 -313.279904 
L 509.362609 -313.279904 
L 503.805787 -313.279904 
L 498.248965 -313.279904 
L 492.692143 -313.279904 
L 487.135321 -313.279904 
L 481.578499 -313.279904 
L 476.021677 -313.279904 
L 470.464855 -313.279904 
L 464.908033 -313.279904 
L 459.351211 -313.279904 
L 453.794389 -313.279904 
L 448.237567 -313.279904 
L 442.680745 -313.279904 
L 437.123923 -313.279904 
L 431.567101 -313.279904 
L 426.010279 -313.279904 
L 420.453457 -313.279904 
L 414.896635 -313.279904 
L 409.339813 -313.279904 
L 403.782991 -313.279904 
L 398.226169 -313.279904 
L 392.669347 -313.279904 
L 387.112525 -313.279904 
L 381.555703 -313.279904 
L 375.998881 -313.279904 
L 370.442059 -313.279904 
L 364.885237 -313.279904 
L 359.328415 -313.279904 
L 353.771593 -313.279904 
L 348.214771 -313.279904 
L 342.657949 -313.279904 
L 337.101127 -313.279904 
L 331.544305 -313.279904 
L 325.987483 -313.279904 
L 320.430661 -313.279904 
L 314.873839 -313.279904 
L 309.317017 -313.279904 
L 303.760195 -313.279904 
L 298.203373 -313.279904 
L 292.646551 -313.279904 
L 287.089729 -313.279904 
L 281.532907 -313.279904 
L 275.976085 -313.279904 
L 270.419263 -313.279904 
L 264.862441 -313.279904 
L 259.305619 -313.279904 
L 253.748797 -313.279904 
L 248.191975 -313.279904 
L 242.635153 -313.279904 
L 237.078331 -313.279904 
L 231.521509 -313.279904 
L 225.964687 -313.279904 
L 220.407865 -313.279904 
L 214.851044 -313.279904 
L 209.294222 -313.279904 
L 203.7374 -313.279904 
L 198.180578 -313.279904 
L 192.623756 -313.279904 
L 187.066934 -313.279904 
L 181.510112 -313.279904 
L 175.95329 -313.279904 
L 170.396468 -313.279904 
L 164.839646 -313.279904 
L 159.282824 -313.279904 
L 153.726002 -313.279904 
L 148.16918 -313.279904 
L 142.612358 -313.279904 
L 137.055536 -313.279904 
L 131.498714 -313.279904 
z
" style="stroke: #434343; stroke-opacity: 0.65"/>
    </defs>
    <g clip-path="url(#pd7623dacba)">
     <use xlink:href="#m2c3b9f5ff9" x="0" y="432" style="fill: #9e9241; fill-opacity: 0.65; stroke: #434343; stroke-opacity: 0.65"/>
    </g>
   </g>
   <g id="PolyCollection_3">
    <defs>
     <path id="m3390f46be1" d="M 136.227324 -240.728578 
L 136.227324 -250.974648 
L 138.596856 -252.225316 
L 140.966387 -253.431536 
L 143.335919 -254.599146 
L 145.70545 -255.741135 
L 148.074981 -256.869175 
L 150.444513 -257.98511 
L 152.814044 -259.074621 
L 155.183576 -260.104582 
L 157.553107 -261.02462 
L 159.922638 -261.7725 
L 162.29217 -262.28229 
L 164.661701 -262.493976 
L 167.031233 -262.363081 
L 169.400764 -261.868841 
L 171.770295 -261.019609 
L 174.139827 -259.854464 
L 176.509358 -258.44047 
L 178.87889 -256.865781 
L 181.248421 -255.229533 
L 183.617952 -253.630145 
L 185.987484 -252.153948 
L 188.357015 -250.866012 
L 190.726547 -249.804596 
L 193.096078 -248.979885 
L 195.465609 -248.376938 
L 197.835141 -247.961958 
L 200.204672 -247.6905 
L 202.574204 -247.515952 
L 204.943735 -247.396702 
L 207.313266 -247.300812 
L 209.682798 -247.207646 
L 212.052329 -247.106667 
L 214.421861 -246.994272 
L 216.791392 -246.869927 
L 219.160923 -246.732878 
L 221.530455 -246.580404 
L 223.899986 -246.407904 
L 226.269518 -246.210525 
L 228.639049 -245.985489 
L 231.00858 -245.734109 
L 233.378112 -245.462636 
L 235.747643 -245.18158 
L 238.117175 -244.903705 
L 240.486706 -244.6414 
L 242.856237 -244.404305 
L 245.225769 -244.197937 
L 247.5953 -244.023573 
L 249.964832 -243.879141 
L 252.334363 -243.760502 
L 254.703894 -243.662429 
L 257.073426 -243.578933 
L 259.442957 -243.502999 
L 261.812488 -243.426214 
L 264.18202 -243.338913 
L 266.551551 -243.231221 
L 268.921083 -243.094948 
L 271.290614 -242.925848 
L 273.660145 -242.725488 
L 276.029677 -242.502077 
L 278.399208 -242.269905 
L 280.76874 -242.047541 
L 283.138271 -241.855246 
L 285.507802 -241.712205 
L 287.877334 -241.634109 
L 290.246865 -241.631365 
L 292.616397 -241.708012 
L 294.985928 -241.861275 
L 297.355459 -242.081692 
L 299.724991 -242.353766 
L 302.094522 -242.657154 
L 304.464054 -242.968354 
L 306.833585 -243.262752 
L 309.203116 -243.516821 
L 311.572648 -243.710183 
L 313.942179 -243.827317 
L 316.311711 -243.858752 
L 318.681242 -243.801723 
L 321.050773 -243.660275 
L 323.420305 -243.444827 
L 325.789836 -243.171191 
L 328.159368 -242.859058 
L 330.528899 -242.530057 
L 332.89843 -242.205647 
L 335.267962 -241.905159 
L 337.637493 -241.644361 
L 340.007025 -241.434763 
L 342.376556 -241.283676 
L 344.746087 -241.194797 
L 347.115619 -241.168946 
L 349.48515 -241.204547 
L 351.854682 -241.297607 
L 354.224213 -241.441179 
L 356.593744 -241.624605 
L 358.963276 -241.832997 
L 361.332807 -242.047474 
L 363.702339 -242.246495 
L 366.07187 -242.408281 
L 368.441401 -242.513924 
L 370.810933 -242.550489 
L 370.810933 -240.728578 
L 370.810933 -240.728578 
L 368.441401 -240.728578 
L 366.07187 -240.728578 
L 363.702339 -240.728578 
L 361.332807 -240.728578 
L 358.963276 -240.728578 
L 356.593744 -240.728578 
L 354.224213 -240.728578 
L 351.854682 -240.728578 
L 349.48515 -240.728578 
L 347.115619 -240.728578 
L 344.746087 -240.728578 
L 342.376556 -240.728578 
L 340.007025 -240.728578 
L 337.637493 -240.728578 
L 335.267962 -240.728578 
L 332.89843 -240.728578 
L 330.528899 -240.728578 
L 328.159368 -240.728578 
L 325.789836 -240.728578 
L 323.420305 -240.728578 
L 321.050773 -240.728578 
L 318.681242 -240.728578 
L 316.311711 -240.728578 
L 313.942179 -240.728578 
L 311.572648 -240.728578 
L 309.203116 -240.728578 
L 306.833585 -240.728578 
L 304.464054 -240.728578 
L 302.094522 -240.728578 
L 299.724991 -240.728578 
L 297.355459 -240.728578 
L 294.985928 -240.728578 
L 292.616397 -240.728578 
L 290.246865 -240.728578 
L 287.877334 -240.728578 
L 285.507802 -240.728578 
L 283.138271 -240.728578 
L 280.76874 -240.728578 
L 278.399208 -240.728578 
L 276.029677 -240.728578 
L 273.660145 -240.728578 
L 271.290614 -240.728578 
L 268.921083 -240.728578 
L 266.551551 -240.728578 
L 264.18202 -240.728578 
L 261.812488 -240.728578 
L 259.442957 -240.728578 
L 257.073426 -240.728578 
L 254.703894 -240.728578 
L 252.334363 -240.728578 
L 249.964832 -240.728578 
L 247.5953 -240.728578 
L 245.225769 -240.728578 
L 242.856237 -240.728578 
L 240.486706 -240.728578 
L 238.117175 -240.728578 
L 235.747643 -240.728578 
L 233.378112 -240.728578 
L 231.00858 -240.728578 
L 228.639049 -240.728578 
L 226.269518 -240.728578 
L 223.899986 -240.728578 
L 221.530455 -240.728578 
L 219.160923 -240.728578 
L 216.791392 -240.728578 
L 214.421861 -240.728578 
L 212.052329 -240.728578 
L 209.682798 -240.728578 
L 207.313266 -240.728578 
L 204.943735 -240.728578 
L 202.574204 -240.728578 
L 200.204672 -240.728578 
L 197.835141 -240.728578 
L 195.465609 -240.728578 
L 193.096078 -240.728578 
L 190.726547 -240.728578 
L 188.357015 -240.728578 
L 185.987484 -240.728578 
L 183.617952 -240.728578 
L 181.248421 -240.728578 
L 178.87889 -240.728578 
L 176.509358 -240.728578 
L 174.139827 -240.728578 
L 171.770295 -240.728578 
L 169.400764 -240.728578 
L 167.031233 -240.728578 
L 164.661701 -240.728578 
L 162.29217 -240.728578 
L 159.922638 -240.728578 
L 157.553107 -240.728578 
L 155.183576 -240.728578 
L 152.814044 -240.728578 
L 150.444513 -240.728578 
L 148.074981 -240.728578 
L 145.70545 -240.728578 
L 143.335919 -240.728578 
L 140.966387 -240.728578 
L 138.596856 -240.728578 
L 136.227324 -240.728578 
z
" style="stroke: #434343; stroke-opacity: 0.65"/>
    </defs>
    <g clip-path="url(#pd7623dacba)">
     <use xlink:href="#m3390f46be1" x="0" y="432" style="fill: #43a178; fill-opacity: 0.65; stroke: #434343; stroke-opacity: 0.65"/>
    </g>
   </g>
   <g id="PolyCollection_4">
    <defs>
     <path id="md2de5e47be" d="M 131.155386 -168.177253 
L 131.155386 -176.070437 
L 135.391621 -177.893537 
L 139.627856 -179.783502 
L 143.864091 -181.636334 
L 148.100327 -183.333138 
L 152.336562 -184.752658 
L 156.572797 -185.786895 
L 160.809033 -186.356951 
L 165.045268 -186.425559 
L 169.281503 -186.003166 
L 173.517739 -185.146017 
L 177.753974 -183.946822 
L 181.990209 -182.520413 
L 186.226445 -180.987684 
L 190.46268 -179.460927 
L 194.698915 -178.032705 
L 198.93515 -176.769256 
L 203.171386 -175.708395 
L 207.407621 -174.861155 
L 211.643856 -174.216003 
L 215.880092 -173.744364 
L 220.116327 -173.406462 
L 224.352562 -173.156959 
L 228.588798 -172.950358 
L 232.825033 -172.7463 
L 237.061268 -172.51454 
L 241.297503 -172.238856 
L 245.533739 -171.918708 
L 249.769974 -171.567691 
L 254.006209 -171.208682 
L 258.242445 -170.866727 
L 262.47868 -170.561734 
L 266.714915 -170.303226 
L 270.951151 -170.088773 
L 275.187386 -169.906411 
L 279.423621 -169.739945 
L 283.659856 -169.575091 
L 287.896092 -169.404358 
L 292.132327 -169.229219 
L 296.368562 -169.059311 
L 300.604798 -168.909373 
L 304.841033 -168.795182 
L 309.077268 -168.729669 
L 313.313504 -168.719952 
L 317.549739 -168.76556 
L 321.785974 -168.857889 
L 326.022209 -168.980884 
L 330.258445 -169.113037 
L 334.49468 -169.230623 
L 338.730915 -169.311816 
L 342.967151 -169.340806 
L 347.203386 -169.310861 
L 351.439621 -169.225361 
L 355.675857 -169.096463 
L 359.912092 -168.941831 
L 364.148327 -168.780464 
L 368.384562 -168.62892 
L 372.620798 -168.498903 
L 376.857033 -168.396611 
L 381.093268 -168.323638 
L 385.329504 -168.278797 
L 389.565739 -168.260135 
L 393.801974 -168.266511 
L 398.03821 -168.298338 
L 402.274445 -168.357325 
L 406.51068 -168.445268 
L 410.746915 -168.562187 
L 414.983151 -168.704314 
L 419.219386 -168.862648 
L 423.455621 -169.02277 
L 427.691857 -169.16638 
L 431.928092 -169.274448 
L 436.164327 -169.331248 
L 440.400563 -169.328074 
L 444.636798 -169.265417 
L 448.873033 -169.152833 
L 453.109269 -169.006556 
L 457.345504 -168.845669 
L 461.581739 -168.688072 
L 465.817974 -168.547412 
L 470.05421 -168.431623 
L 474.290445 -168.343112 
L 478.52668 -168.280097 
L 482.762916 -168.238446 
L 486.999151 -168.213433 
L 491.235386 -168.201064 
L 495.471622 -168.198911 
L 499.707857 -168.206512 
L 503.944092 -168.225442 
L 508.180327 -168.259069 
L 512.416563 -168.311924 
L 516.652798 -168.388601 
L 520.889033 -168.492168 
L 525.125269 -168.62231 
L 529.361504 -168.773675 
L 533.597739 -168.935101 
L 537.833975 -169.090303 
L 542.07021 -169.220266 
L 546.306445 -169.306963 
L 550.54268 -169.337434 
L 550.54268 -168.177253 
L 550.54268 -168.177253 
L 546.306445 -168.177253 
L 542.07021 -168.177253 
L 537.833975 -168.177253 
L 533.597739 -168.177253 
L 529.361504 -168.177253 
L 525.125269 -168.177253 
L 520.889033 -168.177253 
L 516.652798 -168.177253 
L 512.416563 -168.177253 
L 508.180327 -168.177253 
L 503.944092 -168.177253 
L 499.707857 -168.177253 
L 495.471622 -168.177253 
L 491.235386 -168.177253 
L 486.999151 -168.177253 
L 482.762916 -168.177253 
L 478.52668 -168.177253 
L 474.290445 -168.177253 
L 470.05421 -168.177253 
L 465.817974 -168.177253 
L 461.581739 -168.177253 
L 457.345504 -168.177253 
L 453.109269 -168.177253 
L 448.873033 -168.177253 
L 444.636798 -168.177253 
L 440.400563 -168.177253 
L 436.164327 -168.177253 
L 431.928092 -168.177253 
L 427.691857 -168.177253 
L 423.455621 -168.177253 
L 419.219386 -168.177253 
L 414.983151 -168.177253 
L 410.746915 -168.177253 
L 406.51068 -168.177253 
L 402.274445 -168.177253 
L 398.03821 -168.177253 
L 393.801974 -168.177253 
L 389.565739 -168.177253 
L 385.329504 -168.177253 
L 381.093268 -168.177253 
L 376.857033 -168.177253 
L 372.620798 -168.177253 
L 368.384562 -168.177253 
L 364.148327 -168.177253 
L 359.912092 -168.177253 
L 355.675857 -168.177253 
L 351.439621 -168.177253 
L 347.203386 -168.177253 
L 342.967151 -168.177253 
L 338.730915 -168.177253 
L 334.49468 -168.177253 
L 330.258445 -168.177253 
L 326.022209 -168.177253 
L 321.785974 -168.177253 
L 317.549739 -168.177253 
L 313.313504 -168.177253 
L 309.077268 -168.177253 
L 304.841033 -168.177253 
L 300.604798 -168.177253 
L 296.368562 -168.177253 
L 292.132327 -168.177253 
L 287.896092 -168.177253 
L 283.659856 -168.177253 
L 279.423621 -168.177253 
L 275.187386 -168.177253 
L 270.951151 -168.177253 
L 266.714915 -168.177253 
L 262.47868 -168.177253 
L 258.242445 -168.177253 
L 254.006209 -168.177253 
L 249.769974 -168.177253 
L 245.533739 -168.177253 
L 241.297503 -168.177253 
L 237.061268 -168.177253 
L 232.825033 -168.177253 
L 228.588798 -168.177253 
L 224.352562 -168.177253 
L 220.116327 -168.177253 
L 215.880092 -168.177253 
L 211.643856 -168.177253 
L 207.407621 -168.177253 
L 203.171386 -168.177253 
L 198.93515 -168.177253 
L 194.698915 -168.177253 
L 190.46268 -168.177253 
L 186.226445 -168.177253 
L 181.990209 -168.177253 
L 177.753974 -168.177253 
L 173.517739 -168.177253 
L 169.281503 -168.177253 
L 165.045268 -168.177253 
L 160.809033 -168.177253 
L 156.572797 -168.177253 
L 152.336562 -168.177253 
L 148.100327 -168.177253 
L 143.864091 -168.177253 
L 139.627856 -168.177253 
L 135.391621 -168.177253 
L 131.155386 -168.177253 
z
" style="stroke: #434343; stroke-opacity: 0.65"/>
    </defs>
    <g clip-path="url(#pd7623dacba)">
     <use xlink:href="#md2de5e47be" x="0" y="432" style="fill: #4a9eb4; fill-opacity: 0.65; stroke: #434343; stroke-opacity: 0.65"/>
    </g>
   </g>
   <g id="PolyCollection_5">
    <defs>
     <path id="mdc92f7ca05" d="M 135.699384 -95.625928 
L 135.699384 -104.927882 
L 140.826888 -106.263491 
L 145.954392 -107.434863 
L 151.081896 -108.381055 
L 156.2094 -109.060637 
L 161.336904 -109.453033 
L 166.464408 -109.557206 
L 171.591911 -109.388928 
L 176.719415 -108.977601 
L 181.846919 -108.363009 
L 186.974423 -107.591969 
L 192.101927 -106.714658 
L 197.229431 -105.780658 
L 202.356935 -104.83505 
L 207.484438 -103.915132 
L 212.611942 -103.048353 
L 217.739446 -102.25179 
L 222.86695 -101.533181 
L 227.994454 -100.893137 
L 233.121958 -100.327956 
L 238.249462 -99.832395 
L 243.376965 -99.401828 
L 248.504469 -99.033376 
L 253.631973 -98.72583 
L 258.759477 -98.478409 
L 263.886981 -98.28876 
L 269.014485 -98.150823 
L 274.141989 -98.053429 
L 279.269492 -97.98036 
L 284.396996 -97.912242 
L 289.5245 -97.829996 
L 294.652004 -97.718977 
L 299.779508 -97.572535 
L 304.907012 -97.393856 
L 310.034516 -97.195394 
L 315.162019 -96.995966 
L 320.289523 -96.816281 
L 325.417027 -96.674048 
L 330.544531 -96.57991 
L 335.672035 -96.535127 
L 340.799539 -96.531481 
L 345.927043 -96.553332 
L 351.054546 -96.58126 
L 356.18205 -96.596377 
L 361.309554 -96.584266 
L 366.437058 -96.537599 
L 371.564562 -96.456896 
L 376.692066 -96.349388 
L 381.81957 -96.22652 
L 386.947073 -96.100893 
L 392.074577 -95.983557 
L 397.202081 -95.882238 
L 402.329585 -95.800747 
L 407.457089 -95.739395 
L 412.584593 -95.696006 
L 417.712097 -95.667111 
L 422.839601 -95.648958 
L 427.967104 -95.638186 
L 433.094608 -95.632146 
L 438.222112 -95.62896 
L 443.349616 -95.627414 
L 448.47712 -95.626818 
L 453.604624 -95.626876 
L 458.732128 -95.627617 
L 463.859631 -95.629404 
L 468.987135 -95.633016 
L 474.114639 -95.639777 
L 479.242143 -95.651709 
L 484.369647 -95.671602 
L 489.497151 -95.702923 
L 494.624655 -95.749428 
L 499.752158 -95.814413 
L 504.879662 -95.899639 
L 510.007166 -96.004122 
L 515.13467 -96.123142 
L 520.262174 -96.247912 
L 525.389678 -96.366252 
L 530.517182 -96.464367 
L 535.644685 -96.529435 
L 540.772189 -96.552344 
L 545.899693 -96.529805 
L 551.027197 -96.465155 
L 556.154701 -96.367613 
L 561.282205 -96.250247 
L 566.409709 -96.12733 
L 571.537212 -96.011888 
L 576.664716 -95.914082 
L 581.79222 -95.840688 
L 586.919724 -95.795508 
L 592.047228 -95.780263 
L 597.174732 -95.795417 
L 602.302236 -95.840509 
L 607.429739 -95.913823 
L 612.557243 -96.011564 
L 617.684747 -96.126968 
L 622.812251 -96.249881 
L 627.939755 -96.367285 
L 633.067259 -96.464907 
L 638.194763 -96.529671 
L 643.322266 -96.552344 
L 643.322266 -95.625928 
L 643.322266 -95.625928 
L 638.194763 -95.625928 
L 633.067259 -95.625928 
L 627.939755 -95.625928 
L 622.812251 -95.625928 
L 617.684747 -95.625928 
L 612.557243 -95.625928 
L 607.429739 -95.625928 
L 602.302236 -95.625928 
L 597.174732 -95.625928 
L 592.047228 -95.625928 
L 586.919724 -95.625928 
L 581.79222 -95.625928 
L 576.664716 -95.625928 
L 571.537212 -95.625928 
L 566.409709 -95.625928 
L 561.282205 -95.625928 
L 556.154701 -95.625928 
L 551.027197 -95.625928 
L 545.899693 -95.625928 
L 540.772189 -95.625928 
L 535.644685 -95.625928 
L 530.517182 -95.625928 
L 525.389678 -95.625928 
L 520.262174 -95.625928 
L 515.13467 -95.625928 
L 510.007166 -95.625928 
L 504.879662 -95.625928 
L 499.752158 -95.625928 
L 494.624655 -95.625928 
L 489.497151 -95.625928 
L 484.369647 -95.625928 
L 479.242143 -95.625928 
L 474.114639 -95.625928 
L 468.987135 -95.625928 
L 463.859631 -95.625928 
L 458.732128 -95.625928 
L 453.604624 -95.625928 
L 448.47712 -95.625928 
L 443.349616 -95.625928 
L 438.222112 -95.625928 
L 433.094608 -95.625928 
L 427.967104 -95.625928 
L 422.839601 -95.625928 
L 417.712097 -95.625928 
L 412.584593 -95.625928 
L 407.457089 -95.625928 
L 402.329585 -95.625928 
L 397.202081 -95.625928 
L 392.074577 -95.625928 
L 386.947073 -95.625928 
L 381.81957 -95.625928 
L 376.692066 -95.625928 
L 371.564562 -95.625928 
L 366.437058 -95.625928 
L 361.309554 -95.625928 
L 356.18205 -95.625928 
L 351.054546 -95.625928 
L 345.927043 -95.625928 
L 340.799539 -95.625928 
L 335.672035 -95.625928 
L 330.544531 -95.625928 
L 325.417027 -95.625928 
L 320.289523 -95.625928 
L 315.162019 -95.625928 
L 310.034516 -95.625928 
L 304.907012 -95.625928 
L 299.779508 -95.625928 
L 294.652004 -95.625928 
L 289.5245 -95.625928 
L 284.396996 -95.625928 
L 279.269492 -95.625928 
L 274.141989 -95.625928 
L 269.014485 -95.625928 
L 263.886981 -95.625928 
L 258.759477 -95.625928 
L 253.631973 -95.625928 
L 248.504469 -95.625928 
L 243.376965 -95.625928 
L 238.249462 -95.625928 
L 233.121958 -95.625928 
L 227.994454 -95.625928 
L 222.86695 -95.625928 
L 217.739446 -95.625928 
L 212.611942 -95.625928 
L 207.484438 -95.625928 
L 202.356935 -95.625928 
L 197.229431 -95.625928 
L 192.101927 -95.625928 
L 186.974423 -95.625928 
L 181.846919 -95.625928 
L 176.719415 -95.625928 
L 171.591911 -95.625928 
L 166.464408 -95.625928 
L 161.336904 -95.625928 
L 156.2094 -95.625928 
L 151.081896 -95.625928 
L 145.954392 -95.625928 
L 140.826888 -95.625928 
L 135.699384 -95.625928 
z
" style="stroke: #434343; stroke-opacity: 0.65"/>
    </defs>
    <g clip-path="url(#pd7623dacba)">
     <use xlink:href="#mdc92f7ca05" x="0" y="432" style="fill: #c789e5; fill-opacity: 0.65; stroke: #434343; stroke-opacity: 0.65"/>
    </g>
   </g>
   <g id="matplotlib.axis_1">
    <g id="xtick_1">
     <g id="line2d_1">
      <defs>
       <path id="m629c694014" d="M 0 0 
L 0 3.5 
" style="stroke: #000000; stroke-width: 0.8"/>
      </defs>
      <g>
       <use xlink:href="#m629c694014" x="129.661452" y="387.16" style="stroke: #000000; stroke-width: 0.8"/>
      </g>
     </g>
     <g id="text_1">
      <!-- 0 -->
      <g transform="translate(126.480202 401.758438) scale(0.1 -0.1)">
       <defs>
        <path id="DejaVuSans-30" d="M 2034 4250 
Q 1547 4250 1301 3770 
Q 1056 3291 1056 2328 
Q 1056 1369 1301 889 
Q 1547 409 2034 409 
Q 2525 409 2770 889 
Q 3016 1369 3016 2328 
Q 3016 3291 2770 3770 
Q 2525 4250 2034 4250 
z
M 2034 4750 
Q 2819 4750 3233 4129 
Q 3647 3509 3647 2328 
Q 3647 1150 3233 529 
Q 2819 -91 2034 -91 
Q 1250 -91 836 529 
Q 422 1150 422 2328 
Q 422 3509 836 4129 
Q 1250 4750 2034 4750 
z
" transform="scale(0.015625)"/>
       </defs>
       <use xlink:href="#DejaVuSans-30"/>
      </g>
     </g>
    </g>
    <g id="xtick_2">
     <g id="line2d_2">
      <g>
       <use xlink:href="#m629c694014" x="230.168285" y="387.16" style="stroke: #000000; stroke-width: 0.8"/>
      </g>
     </g>
     <g id="text_2">
      <!-- 200 -->
      <g transform="translate(220.624535 401.758438) scale(0.1 -0.1)">
       <defs>
        <path id="DejaVuSans-32" d="M 1228 531 
L 3431 531 
L 3431 0 
L 469 0 
L 469 531 
Q 828 903 1448 1529 
Q 2069 2156 2228 2338 
Q 2531 2678 2651 2914 
Q 2772 3150 2772 3378 
Q 2772 3750 2511 3984 
Q 2250 4219 1831 4219 
Q 1534 4219 1204 4116 
Q 875 4013 500 3803 
L 500 4441 
Q 881 4594 1212 4672 
Q 1544 4750 1819 4750 
Q 2544 4750 2975 4387 
Q 3406 4025 3406 3419 
Q 3406 3131 3298 2873 
Q 3191 2616 2906 2266 
Q 2828 2175 2409 1742 
Q 1991 1309 1228 531 
z
" transform="scale(0.015625)"/>
       </defs>
       <use xlink:href="#DejaVuSans-32"/>
       <use xlink:href="#DejaVuSans-30" x="63.623047"/>
       <use xlink:href="#DejaVuSans-30" x="127.246094"/>
      </g>
     </g>
    </g>
    <g id="xtick_3">
     <g id="line2d_3">
      <g>
       <use xlink:href="#m629c694014" x="330.675119" y="387.16" style="stroke: #000000; stroke-width: 0.8"/>
      </g>
     </g>
     <g id="text_3">
      <!-- 400 -->
      <g transform="translate(321.131369 401.758438) scale(0.1 -0.1)">
       <defs>
        <path id="DejaVuSans-34" d="M 2419 4116 
L 825 1625 
L 2419 1625 
L 2419 4116 
z
M 2253 4666 
L 3047 4666 
L 3047 1625 
L 3713 1625 
L 3713 1100 
L 3047 1100 
L 3047 0 
L 2419 0 
L 2419 1100 
L 313 1100 
L 313 1709 
L 2253 4666 
z
" transform="scale(0.015625)"/>
       </defs>
       <use xlink:href="#DejaVuSans-34"/>
       <use xlink:href="#DejaVuSans-30" x="63.623047"/>
       <use xlink:href="#DejaVuSans-30" x="127.246094"/>
      </g>
     </g>
    </g>
    <g id="xtick_4">
     <g id="line2d_4">
      <g>
       <use xlink:href="#m629c694014" x="431.181952" y="387.16" style="stroke: #000000; stroke-width: 0.8"/>
      </g>
     </g>
     <g id="text_4">
      <!-- 600 -->
      <g transform="translate(421.638202 401.758438) scale(0.1 -0.1)">
       <defs>
        <path id="DejaVuSans-36" d="M 2113 2584 
Q 1688 2584 1439 2293 
Q 1191 2003 1191 1497 
Q 1191 994 1439 701 
Q 1688 409 2113 409 
Q 2538 409 2786 701 
Q 3034 994 3034 1497 
Q 3034 2003 2786 2293 
Q 2538 2584 2113 2584 
z
M 3366 4563 
L 3366 3988 
Q 3128 4100 2886 4159 
Q 2644 4219 2406 4219 
Q 1781 4219 1451 3797 
Q 1122 3375 1075 2522 
Q 1259 2794 1537 2939 
Q 1816 3084 2150 3084 
Q 2853 3084 3261 2657 
Q 3669 2231 3669 1497 
Q 3669 778 3244 343 
Q 2819 -91 2113 -91 
Q 1303 -91 875 529 
Q 447 1150 447 2328 
Q 447 3434 972 4092 
Q 1497 4750 2381 4750 
Q 2619 4750 2861 4703 
Q 3103 4656 3366 4563 
z
" transform="scale(0.015625)"/>
       </defs>
       <use xlink:href="#DejaVuSans-36"/>
       <use xlink:href="#DejaVuSans-30" x="63.623047"/>
       <use xlink:href="#DejaVuSans-30" x="127.246094"/>
      </g>
     </g>
    </g>
    <g id="xtick_5">
     <g id="line2d_5">
      <g>
       <use xlink:href="#m629c694014" x="531.688786" y="387.16" style="stroke: #000000; stroke-width: 0.8"/>
      </g>
     </g>
     <g id="text_5">
      <!-- 800 -->
      <g transform="translate(522.145036 401.758438) scale(0.1 -0.1)">
       <defs>
        <path id="DejaVuSans-38" d="M 2034 2216 
Q 1584 2216 1326 1975 
Q 1069 1734 1069 1313 
Q 1069 891 1326 650 
Q 1584 409 2034 409 
Q 2484 409 2743 651 
Q 3003 894 3003 1313 
Q 3003 1734 2745 1975 
Q 2488 2216 2034 2216 
z
M 1403 2484 
Q 997 2584 770 2862 
Q 544 3141 544 3541 
Q 544 4100 942 4425 
Q 1341 4750 2034 4750 
Q 2731 4750 3128 4425 
Q 3525 4100 3525 3541 
Q 3525 3141 3298 2862 
Q 3072 2584 2669 2484 
Q 3125 2378 3379 2068 
Q 3634 1759 3634 1313 
Q 3634 634 3220 271 
Q 2806 -91 2034 -91 
Q 1263 -91 848 271 
Q 434 634 434 1313 
Q 434 1759 690 2068 
Q 947 2378 1403 2484 
z
M 1172 3481 
Q 1172 3119 1398 2916 
Q 1625 2713 2034 2713 
Q 2441 2713 2670 2916 
Q 2900 3119 2900 3481 
Q 2900 3844 2670 4047 
Q 2441 4250 2034 4250 
Q 1625 4250 1398 4047 
Q 1172 3844 1172 3481 
z
" transform="scale(0.015625)"/>
       </defs>
       <use xlink:href="#DejaVuSans-38"/>
       <use xlink:href="#DejaVuSans-30" x="63.623047"/>
       <use xlink:href="#DejaVuSans-30" x="127.246094"/>
      </g>
     </g>
    </g>
    <g id="xtick_6">
     <g id="line2d_6">
      <g>
       <use xlink:href="#m629c694014" x="632.195619" y="387.16" style="stroke: #000000; stroke-width: 0.8"/>
      </g>
     </g>
     <g id="text_6">
      <!-- 1000 -->
      <g transform="translate(619.470619 401.758438) scale(0.1 -0.1)">
       <defs>
        <path id="DejaVuSans-31" d="M 794 531 
L 1825 531 
L 1825 4091 
L 703 3866 
L 703 4441 
L 1819 4666 
L 2450 4666 
L 2450 531 
L 3481 531 
L 3481 0 
L 794 0 
L 794 531 
z
" transform="scale(0.015625)"/>
       </defs>
       <use xlink:href="#DejaVuSans-31"/>
       <use xlink:href="#DejaVuSans-30" x="63.623047"/>
       <use xlink:href="#DejaVuSans-30" x="127.246094"/>
       <use xlink:href="#DejaVuSans-30" x="190.869141"/>
      </g>
     </g>
    </g>
    <g id="text_7">
     <!-- $log([PERM]/[Total Protein])$ -->
     <g transform="translate(340.615 415.438125) scale(0.1 -0.1)">
      <defs>
       <path id="DejaVuSans-Oblique-6c" d="M 1172 4863 
L 1747 4863 
L 800 0 
L 225 0 
L 1172 4863 
z
" transform="scale(0.015625)"/>
       <path id="DejaVuSans-Oblique-6f" d="M 1625 -91 
Q 1009 -91 651 289 
Q 294 669 294 1325 
Q 294 1706 417 2101 
Q 541 2497 738 2766 
Q 1047 3184 1428 3384 
Q 1809 3584 2291 3584 
Q 2888 3584 3255 3212 
Q 3622 2841 3622 2241 
Q 3622 1825 3500 1412 
Q 3378 1000 3181 728 
Q 2875 309 2494 109 
Q 2113 -91 1625 -91 
z
M 891 1344 
Q 891 869 1089 633 
Q 1288 397 1691 397 
Q 2269 397 2648 901 
Q 3028 1406 3028 2181 
Q 3028 2634 2825 2865 
Q 2622 3097 2228 3097 
Q 1903 3097 1650 2945 
Q 1397 2794 1197 2484 
Q 1050 2253 970 1956 
Q 891 1659 891 1344 
z
" transform="scale(0.015625)"/>
       <path id="DejaVuSans-Oblique-67" d="M 3816 3500 
L 3219 434 
Q 3047 -456 2561 -893 
Q 2075 -1331 1253 -1331 
Q 950 -1331 690 -1286 
Q 431 -1241 206 -1147 
L 313 -588 
Q 525 -725 762 -790 
Q 1000 -856 1269 -856 
Q 1816 -856 2167 -557 
Q 2519 -259 2631 300 
L 2681 563 
Q 2441 288 2122 144 
Q 1803 0 1434 0 
Q 903 0 598 351 
Q 294 703 294 1319 
Q 294 1803 478 2267 
Q 663 2731 997 3091 
Q 1219 3328 1514 3456 
Q 1809 3584 2131 3584 
Q 2484 3584 2746 3420 
Q 3009 3256 3138 2956 
L 3238 3500 
L 3816 3500 
z
M 2950 2216 
Q 2950 2641 2750 2872 
Q 2550 3103 2181 3103 
Q 1953 3103 1747 3012 
Q 1541 2922 1394 2759 
Q 1156 2491 1023 2127 
Q 891 1763 891 1375 
Q 891 944 1092 712 
Q 1294 481 1672 481 
Q 2219 481 2584 976 
Q 2950 1472 2950 2216 
z
" transform="scale(0.015625)"/>
       <path id="DejaVuSans-28" d="M 1984 4856 
Q 1566 4138 1362 3434 
Q 1159 2731 1159 2009 
Q 1159 1288 1364 580 
Q 1569 -128 1984 -844 
L 1484 -844 
Q 1016 -109 783 600 
Q 550 1309 550 2009 
Q 550 2706 781 3412 
Q 1013 4119 1484 4856 
L 1984 4856 
z
" transform="scale(0.015625)"/>
       <path id="DejaVuSans-5b" d="M 550 4863 
L 1875 4863 
L 1875 4416 
L 1125 4416 
L 1125 -397 
L 1875 -397 
L 1875 -844 
L 550 -844 
L 550 4863 
z
" transform="scale(0.015625)"/>
       <path id="DejaVuSans-Oblique-50" d="M 1081 4666 
L 2541 4666 
Q 3178 4666 3512 4369 
Q 3847 4072 3847 3500 
Q 3847 2731 3353 2303 
Q 2859 1875 1966 1875 
L 1172 1875 
L 806 0 
L 172 0 
L 1081 4666 
z
M 1613 4147 
L 1275 2394 
L 2069 2394 
Q 2606 2394 2893 2669 
Q 3181 2944 3181 3456 
Q 3181 3784 2986 3965 
Q 2791 4147 2438 4147 
L 1613 4147 
z
" transform="scale(0.015625)"/>
       <path id="DejaVuSans-Oblique-45" d="M 1081 4666 
L 4031 4666 
L 3928 4134 
L 1606 4134 
L 1338 2753 
L 3566 2753 
L 3463 2222 
L 1234 2222 
L 909 531 
L 3284 531 
L 3181 0 
L 172 0 
L 1081 4666 
z
" transform="scale(0.015625)"/>
       <path id="DejaVuSans-Oblique-52" d="M 1613 4147 
L 1294 2491 
L 2106 2491 
Q 2584 2491 2879 2755 
Q 3175 3019 3175 3444 
Q 3175 3784 2976 3965 
Q 2778 4147 2406 4147 
L 1613 4147 
z
M 2772 2241 
Q 2972 2194 3105 2009 
Q 3238 1825 3413 1275 
L 3809 0 
L 3144 0 
L 2778 1197 
Q 2638 1659 2453 1815 
Q 2269 1972 1888 1972 
L 1191 1972 
L 806 0 
L 172 0 
L 1081 4666 
L 2503 4666 
Q 3150 4666 3495 4373 
Q 3841 4081 3841 3531 
Q 3841 3044 3547 2687 
Q 3253 2331 2772 2241 
z
" transform="scale(0.015625)"/>
       <path id="DejaVuSans-Oblique-4d" d="M 1081 4666 
L 2028 4666 
L 2572 1522 
L 4378 4666 
L 5350 4666 
L 4441 0 
L 3828 0 
L 4622 4091 
L 2791 897 
L 2175 897 
L 1581 4103 
L 788 0 
L 172 0 
L 1081 4666 
z
" transform="scale(0.015625)"/>
       <path id="DejaVuSans-5d" d="M 1947 4863 
L 1947 -844 
L 622 -844 
L 622 -397 
L 1369 -397 
L 1369 4416 
L 622 4416 
L 622 4863 
L 1947 4863 
z
" transform="scale(0.015625)"/>
       <path id="DejaVuSans-2f" d="M 1625 4666 
L 2156 4666 
L 531 -594 
L 0 -594 
L 1625 4666 
z
" transform="scale(0.015625)"/>
       <path id="DejaVuSans-Oblique-54" d="M 378 4666 
L 4325 4666 
L 4225 4134 
L 2559 4134 
L 1759 0 
L 1125 0 
L 1925 4134 
L 275 4134 
L 378 4666 
z
" transform="scale(0.015625)"/>
       <path id="DejaVuSans-Oblique-74" d="M 2706 3500 
L 2619 3053 
L 1472 3053 
L 1100 1153 
Q 1081 1047 1072 975 
Q 1063 903 1063 863 
Q 1063 663 1183 572 
Q 1303 481 1569 481 
L 2150 481 
L 2053 0 
L 1503 0 
Q 991 0 739 200 
Q 488 400 488 806 
Q 488 878 497 964 
Q 506 1050 525 1153 
L 897 3053 
L 409 3053 
L 500 3500 
L 978 3500 
L 1172 4494 
L 1747 4494 
L 1556 3500 
L 2706 3500 
z
" transform="scale(0.015625)"/>
       <path id="DejaVuSans-Oblique-61" d="M 3438 1997 
L 3047 0 
L 2472 0 
L 2578 531 
Q 2325 219 2001 64 
Q 1678 -91 1281 -91 
Q 834 -91 548 182 
Q 263 456 263 884 
Q 263 1497 752 1853 
Q 1241 2209 2100 2209 
L 2900 2209 
L 2931 2363 
Q 2938 2388 2941 2417 
Q 2944 2447 2944 2509 
Q 2944 2788 2717 2942 
Q 2491 3097 2081 3097 
Q 1800 3097 1504 3025 
Q 1209 2953 897 2809 
L 997 3341 
Q 1322 3463 1633 3523 
Q 1944 3584 2234 3584 
Q 2853 3584 3176 3315 
Q 3500 3047 3500 2534 
Q 3500 2431 3484 2292 
Q 3469 2153 3438 1997 
z
M 2816 1759 
L 2241 1759 
Q 1534 1759 1195 1570 
Q 856 1381 856 984 
Q 856 709 1029 553 
Q 1203 397 1509 397 
Q 1978 397 2328 733 
Q 2678 1069 2791 1631 
L 2816 1759 
z
" transform="scale(0.015625)"/>
       <path id="DejaVuSans-Oblique-72" d="M 2853 2969 
Q 2766 3016 2653 3041 
Q 2541 3066 2413 3066 
Q 1953 3066 1609 2717 
Q 1266 2369 1153 1784 
L 800 0 
L 225 0 
L 909 3500 
L 1484 3500 
L 1375 2956 
Q 1603 3259 1920 3421 
Q 2238 3584 2597 3584 
Q 2691 3584 2781 3573 
Q 2872 3563 2963 3538 
L 2853 2969 
z
" transform="scale(0.015625)"/>
       <path id="DejaVuSans-Oblique-65" d="M 3078 2063 
Q 3088 2113 3092 2166 
Q 3097 2219 3097 2272 
Q 3097 2653 2873 2875 
Q 2650 3097 2266 3097 
Q 1838 3097 1509 2826 
Q 1181 2556 1013 2059 
L 3078 2063 
z
M 3578 1613 
L 903 1613 
Q 884 1494 878 1425 
Q 872 1356 872 1306 
Q 872 872 1139 634 
Q 1406 397 1894 397 
Q 2269 397 2603 481 
Q 2938 566 3225 728 
L 3116 159 
Q 2806 34 2476 -28 
Q 2147 -91 1806 -91 
Q 1078 -91 686 257 
Q 294 606 294 1247 
Q 294 1794 489 2264 
Q 684 2734 1063 3103 
Q 1306 3334 1642 3459 
Q 1978 3584 2356 3584 
Q 2950 3584 3301 3228 
Q 3653 2872 3653 2272 
Q 3653 2128 3634 1964 
Q 3616 1800 3578 1613 
z
" transform="scale(0.015625)"/>
       <path id="DejaVuSans-Oblique-69" d="M 1172 4863 
L 1747 4863 
L 1606 4134 
L 1031 4134 
L 1172 4863 
z
M 909 3500 
L 1484 3500 
L 800 0 
L 225 0 
L 909 3500 
z
" transform="scale(0.015625)"/>
       <path id="DejaVuSans-Oblique-6e" d="M 3566 2113 
L 3156 0 
L 2578 0 
L 2988 2091 
Q 3016 2238 3031 2350 
Q 3047 2463 3047 2528 
Q 3047 2791 2881 2937 
Q 2716 3084 2419 3084 
Q 1956 3084 1622 2776 
Q 1288 2469 1184 1941 
L 800 0 
L 225 0 
L 903 3500 
L 1478 3500 
L 1363 2950 
Q 1603 3253 1940 3418 
Q 2278 3584 2650 3584 
Q 3113 3584 3367 3334 
Q 3622 3084 3622 2631 
Q 3622 2519 3608 2391 
Q 3594 2263 3566 2113 
z
" transform="scale(0.015625)"/>
       <path id="DejaVuSans-29" d="M 513 4856 
L 1013 4856 
Q 1481 4119 1714 3412 
Q 1947 2706 1947 2009 
Q 1947 1309 1714 600 
Q 1481 -109 1013 -844 
L 513 -844 
Q 928 -128 1133 580 
Q 1338 1288 1338 2009 
Q 1338 2731 1133 3434 
Q 928 4138 513 4856 
z
" transform="scale(0.015625)"/>
      </defs>
      <use xlink:href="#DejaVuSans-Oblique-6c" transform="translate(0 0.015625)"/>
      <use xlink:href="#DejaVuSans-Oblique-6f" transform="translate(27.783203 0.015625)"/>
      <use xlink:href="#DejaVuSans-Oblique-67" transform="translate(88.964844 0.015625)"/>
      <use xlink:href="#DejaVuSans-28" transform="translate(152.441406 0.015625)"/>
      <use xlink:href="#DejaVuSans-5b" transform="translate(191.455078 0.015625)"/>
      <use xlink:href="#DejaVuSans-Oblique-50" transform="translate(230.46875 0.015625)"/>
      <use xlink:href="#DejaVuSans-Oblique-45" transform="translate(290.771484 0.015625)"/>
      <use xlink:href="#DejaVuSans-Oblique-52" transform="translate(353.955078 0.015625)"/>
      <use xlink:href="#DejaVuSans-Oblique-4d" transform="translate(423.4375 0.015625)"/>
      <use xlink:href="#DejaVuSans-5d" transform="translate(509.716797 0.015625)"/>
      <use xlink:href="#DejaVuSans-2f" transform="translate(548.730469 0.015625)"/>
      <use xlink:href="#DejaVuSans-5b" transform="translate(582.421875 0.015625)"/>
      <use xlink:href="#DejaVuSans-Oblique-54" transform="translate(621.435547 0.015625)"/>
      <use xlink:href="#DejaVuSans-Oblique-6f" transform="translate(682.519531 0.015625)"/>
      <use xlink:href="#DejaVuSans-Oblique-74" transform="translate(743.701172 0.015625)"/>
      <use xlink:href="#DejaVuSans-Oblique-61" transform="translate(782.910156 0.015625)"/>
      <use xlink:href="#DejaVuSans-Oblique-6c" transform="translate(844.189453 0.015625)"/>
      <use xlink:href="#DejaVuSans-Oblique-50" transform="translate(871.972656 0.015625)"/>
      <use xlink:href="#DejaVuSans-Oblique-72" transform="translate(932.275391 0.015625)"/>
      <use xlink:href="#DejaVuSans-Oblique-6f" transform="translate(973.388672 0.015625)"/>
      <use xlink:href="#DejaVuSans-Oblique-74" transform="translate(1034.570312 0.015625)"/>
      <use xlink:href="#DejaVuSans-Oblique-65" transform="translate(1073.779297 0.015625)"/>
      <use xlink:href="#DejaVuSans-Oblique-69" transform="translate(1135.302734 0.015625)"/>
      <use xlink:href="#DejaVuSans-Oblique-6e" transform="translate(1163.085938 0.015625)"/>
      <use xlink:href="#DejaVuSans-5d" transform="translate(1226.464844 0.015625)"/>
      <use xlink:href="#DejaVuSans-29" transform="translate(1265.478516 0.015625)"/>
     </g>
    </g>
   </g>
   <g id="matplotlib.axis_2">
    <g id="ytick_1">
     <g id="line2d_7">
      <defs>
       <path id="m7e15943e15" d="M 0 0 
L -3.5 0 
" style="stroke: #000000; stroke-width: 0.8"/>
      </defs>
      <g>
       <use xlink:href="#m7e15943e15" x="102.53" y="60.679036" style="stroke: #000000; stroke-width: 0.8"/>
      </g>
     </g>
     <g id="text_8">
      <!-- Reference -->
      <g transform="translate(45.176875 64.478255) scale(0.1 -0.1)">
       <defs>
        <path id="DejaVuSans-52" d="M 2841 2188 
Q 3044 2119 3236 1894 
Q 3428 1669 3622 1275 
L 4263 0 
L 3584 0 
L 2988 1197 
Q 2756 1666 2539 1819 
Q 2322 1972 1947 1972 
L 1259 1972 
L 1259 0 
L 628 0 
L 628 4666 
L 2053 4666 
Q 2853 4666 3247 4331 
Q 3641 3997 3641 3322 
Q 3641 2881 3436 2590 
Q 3231 2300 2841 2188 
z
M 1259 4147 
L 1259 2491 
L 2053 2491 
Q 2509 2491 2742 2702 
Q 2975 2913 2975 3322 
Q 2975 3731 2742 3939 
Q 2509 4147 2053 4147 
L 1259 4147 
z
" transform="scale(0.015625)"/>
        <path id="DejaVuSans-65" d="M 3597 1894 
L 3597 1613 
L 953 1613 
Q 991 1019 1311 708 
Q 1631 397 2203 397 
Q 2534 397 2845 478 
Q 3156 559 3463 722 
L 3463 178 
Q 3153 47 2828 -22 
Q 2503 -91 2169 -91 
Q 1331 -91 842 396 
Q 353 884 353 1716 
Q 353 2575 817 3079 
Q 1281 3584 2069 3584 
Q 2775 3584 3186 3129 
Q 3597 2675 3597 1894 
z
M 3022 2063 
Q 3016 2534 2758 2815 
Q 2500 3097 2075 3097 
Q 1594 3097 1305 2825 
Q 1016 2553 972 2059 
L 3022 2063 
z
" transform="scale(0.015625)"/>
        <path id="DejaVuSans-66" d="M 2375 4863 
L 2375 4384 
L 1825 4384 
Q 1516 4384 1395 4259 
Q 1275 4134 1275 3809 
L 1275 3500 
L 2222 3500 
L 2222 3053 
L 1275 3053 
L 1275 0 
L 697 0 
L 697 3053 
L 147 3053 
L 147 3500 
L 697 3500 
L 697 3744 
Q 697 4328 969 4595 
Q 1241 4863 1831 4863 
L 2375 4863 
z
" transform="scale(0.015625)"/>
        <path id="DejaVuSans-72" d="M 2631 2963 
Q 2534 3019 2420 3045 
Q 2306 3072 2169 3072 
Q 1681 3072 1420 2755 
Q 1159 2438 1159 1844 
L 1159 0 
L 581 0 
L 581 3500 
L 1159 3500 
L 1159 2956 
Q 1341 3275 1631 3429 
Q 1922 3584 2338 3584 
Q 2397 3584 2469 3576 
Q 2541 3569 2628 3553 
L 2631 2963 
z
" transform="scale(0.015625)"/>
        <path id="DejaVuSans-6e" d="M 3513 2113 
L 3513 0 
L 2938 0 
L 2938 2094 
Q 2938 2591 2744 2837 
Q 2550 3084 2163 3084 
Q 1697 3084 1428 2787 
Q 1159 2491 1159 1978 
L 1159 0 
L 581 0 
L 581 3500 
L 1159 3500 
L 1159 2956 
Q 1366 3272 1645 3428 
Q 1925 3584 2291 3584 
Q 2894 3584 3203 3211 
Q 3513 2838 3513 2113 
z
" transform="scale(0.015625)"/>
        <path id="DejaVuSans-63" d="M 3122 3366 
L 3122 2828 
Q 2878 2963 2633 3030 
Q 2388 3097 2138 3097 
Q 1578 3097 1268 2742 
Q 959 2388 959 1747 
Q 959 1106 1268 751 
Q 1578 397 2138 397 
Q 2388 397 2633 464 
Q 2878 531 3122 666 
L 3122 134 
Q 2881 22 2623 -34 
Q 2366 -91 2075 -91 
Q 1284 -91 818 406 
Q 353 903 353 1747 
Q 353 2603 823 3093 
Q 1294 3584 2113 3584 
Q 2378 3584 2631 3529 
Q 2884 3475 3122 3366 
z
" transform="scale(0.015625)"/>
       </defs>
       <use xlink:href="#DejaVuSans-52"/>
       <use xlink:href="#DejaVuSans-65" x="64.982422"/>
       <use xlink:href="#DejaVuSans-66" x="126.505859"/>
       <use xlink:href="#DejaVuSans-65" x="161.710938"/>
       <use xlink:href="#DejaVuSans-72" x="223.234375"/>
       <use xlink:href="#DejaVuSans-65" x="262.097656"/>
       <use xlink:href="#DejaVuSans-6e" x="323.621094"/>
       <use xlink:href="#DejaVuSans-63" x="387"/>
       <use xlink:href="#DejaVuSans-65" x="441.980469"/>
      </g>
     </g>
    </g>
    <g id="ytick_2">
     <g id="line2d_8">
      <g>
       <use xlink:href="#m7e15943e15" x="102.53" y="133.230361" style="stroke: #000000; stroke-width: 0.8"/>
      </g>
     </g>
     <g id="text_9">
      <!-- 24h 4C +PBS -->
      <g transform="translate(24.609688 137.02958) scale(0.1 -0.1)">
       <defs>
        <path id="DejaVuSans-68" d="M 3513 2113 
L 3513 0 
L 2938 0 
L 2938 2094 
Q 2938 2591 2744 2837 
Q 2550 3084 2163 3084 
Q 1697 3084 1428 2787 
Q 1159 2491 1159 1978 
L 1159 0 
L 581 0 
L 581 4863 
L 1159 4863 
L 1159 2956 
Q 1366 3272 1645 3428 
Q 1925 3584 2291 3584 
Q 2894 3584 3203 3211 
Q 3513 2838 3513 2113 
z
" transform="scale(0.015625)"/>
        <path id="DejaVuSans-20" transform="scale(0.015625)"/>
        <path id="DejaVuSans-ba" d="M 434 1850 
L 2584 1850 
L 2584 1466 
L 434 1466 
L 434 1850 
z
M 1509 4750 
Q 2069 4750 2391 4404 
Q 2713 4059 2713 3463 
Q 2713 2866 2391 2523 
Q 2069 2181 1509 2181 
Q 950 2181 625 2525 
Q 300 2869 300 3463 
Q 300 4059 625 4404 
Q 950 4750 1509 4750 
z
M 1509 4391 
Q 1181 4391 984 4139 
Q 788 3888 788 3463 
Q 788 3047 986 2797 
Q 1184 2547 1509 2547 
Q 1838 2547 2033 2797 
Q 2228 3047 2228 3463 
Q 2228 3891 2034 4141 
Q 1841 4391 1509 4391 
z
" transform="scale(0.015625)"/>
        <path id="DejaVuSans-43" d="M 4122 4306 
L 4122 3641 
Q 3803 3938 3442 4084 
Q 3081 4231 2675 4231 
Q 1875 4231 1450 3742 
Q 1025 3253 1025 2328 
Q 1025 1406 1450 917 
Q 1875 428 2675 428 
Q 3081 428 3442 575 
Q 3803 722 4122 1019 
L 4122 359 
Q 3791 134 3420 21 
Q 3050 -91 2638 -91 
Q 1578 -91 968 557 
Q 359 1206 359 2328 
Q 359 3453 968 4101 
Q 1578 4750 2638 4750 
Q 3056 4750 3426 4639 
Q 3797 4528 4122 4306 
z
" transform="scale(0.015625)"/>
        <path id="DejaVuSans-2b" d="M 2944 4013 
L 2944 2272 
L 4684 2272 
L 4684 1741 
L 2944 1741 
L 2944 0 
L 2419 0 
L 2419 1741 
L 678 1741 
L 678 2272 
L 2419 2272 
L 2419 4013 
L 2944 4013 
z
" transform="scale(0.015625)"/>
        <path id="DejaVuSans-50" d="M 1259 4147 
L 1259 2394 
L 2053 2394 
Q 2494 2394 2734 2622 
Q 2975 2850 2975 3272 
Q 2975 3691 2734 3919 
Q 2494 4147 2053 4147 
L 1259 4147 
z
M 628 4666 
L 2053 4666 
Q 2838 4666 3239 4311 
Q 3641 3956 3641 3272 
Q 3641 2581 3239 2228 
Q 2838 1875 2053 1875 
L 1259 1875 
L 1259 0 
L 628 0 
L 628 4666 
z
" transform="scale(0.015625)"/>
        <path id="DejaVuSans-42" d="M 1259 2228 
L 1259 519 
L 2272 519 
Q 2781 519 3026 730 
Q 3272 941 3272 1375 
Q 3272 1813 3026 2020 
Q 2781 2228 2272 2228 
L 1259 2228 
z
M 1259 4147 
L 1259 2741 
L 2194 2741 
Q 2656 2741 2882 2914 
Q 3109 3088 3109 3444 
Q 3109 3797 2882 3972 
Q 2656 4147 2194 4147 
L 1259 4147 
z
M 628 4666 
L 2241 4666 
Q 2963 4666 3353 4366 
Q 3744 4066 3744 3513 
Q 3744 3084 3544 2831 
Q 3344 2578 2956 2516 
Q 3422 2416 3680 2098 
Q 3938 1781 3938 1306 
Q 3938 681 3513 340 
Q 3088 0 2303 0 
L 628 0 
L 628 4666 
z
" transform="scale(0.015625)"/>
        <path id="DejaVuSans-53" d="M 3425 4513 
L 3425 3897 
Q 3066 4069 2747 4153 
Q 2428 4238 2131 4238 
Q 1616 4238 1336 4038 
Q 1056 3838 1056 3469 
Q 1056 3159 1242 3001 
Q 1428 2844 1947 2747 
L 2328 2669 
Q 3034 2534 3370 2195 
Q 3706 1856 3706 1288 
Q 3706 609 3251 259 
Q 2797 -91 1919 -91 
Q 1588 -91 1214 -16 
Q 841 59 441 206 
L 441 856 
Q 825 641 1194 531 
Q 1563 422 1919 422 
Q 2459 422 2753 634 
Q 3047 847 3047 1241 
Q 3047 1584 2836 1778 
Q 2625 1972 2144 2069 
L 1759 2144 
Q 1053 2284 737 2584 
Q 422 2884 422 3419 
Q 422 4038 858 4394 
Q 1294 4750 2059 4750 
Q 2388 4750 2728 4690 
Q 3069 4631 3425 4513 
z
" transform="scale(0.015625)"/>
       </defs>
       <use xlink:href="#DejaVuSans-32"/>
       <use xlink:href="#DejaVuSans-34" x="63.623047"/>
       <use xlink:href="#DejaVuSans-68" x="127.246094"/>
       <use xlink:href="#DejaVuSans-20" x="190.625"/>
       <use xlink:href="#DejaVuSans-34" x="222.412109"/>
       <use xlink:href="#DejaVuSans-ba" x="286.035156"/>
       <use xlink:href="#DejaVuSans-43" x="333.154297"/>
       <use xlink:href="#DejaVuSans-20" x="402.978516"/>
       <use xlink:href="#DejaVuSans-2b" x="434.765625"/>
       <use xlink:href="#DejaVuSans-50" x="518.554688"/>
       <use xlink:href="#DejaVuSans-42" x="578.857422"/>
       <use xlink:href="#DejaVuSans-53" x="645.710938"/>
      </g>
     </g>
    </g>
    <g id="ytick_3">
     <g id="line2d_9">
      <g>
       <use xlink:href="#m7e15943e15" x="102.53" y="205.781687" style="stroke: #000000; stroke-width: 0.8"/>
      </g>
     </g>
     <g id="text_10">
      <!-- 72h 4C +PBS -->
      <g transform="translate(24.609688 209.580905) scale(0.1 -0.1)">
       <defs>
        <path id="DejaVuSans-37" d="M 525 4666 
L 3525 4666 
L 3525 4397 
L 1831 0 
L 1172 0 
L 2766 4134 
L 525 4134 
L 525 4666 
z
" transform="scale(0.015625)"/>
       </defs>
       <use xlink:href="#DejaVuSans-37"/>
       <use xlink:href="#DejaVuSans-32" x="63.623047"/>
       <use xlink:href="#DejaVuSans-68" x="127.246094"/>
       <use xlink:href="#DejaVuSans-20" x="190.625"/>
       <use xlink:href="#DejaVuSans-34" x="222.412109"/>
       <use xlink:href="#DejaVuSans-ba" x="286.035156"/>
       <use xlink:href="#DejaVuSans-43" x="333.154297"/>
       <use xlink:href="#DejaVuSans-20" x="402.978516"/>
       <use xlink:href="#DejaVuSans-2b" x="434.765625"/>
       <use xlink:href="#DejaVuSans-50" x="518.554688"/>
       <use xlink:href="#DejaVuSans-42" x="578.857422"/>
       <use xlink:href="#DejaVuSans-53" x="645.710938"/>
      </g>
     </g>
    </g>
    <g id="ytick_4">
     <g id="line2d_10">
      <g>
       <use xlink:href="#m7e15943e15" x="102.53" y="278.333012" style="stroke: #000000; stroke-width: 0.8"/>
      </g>
     </g>
     <g id="text_11">
      <!-- 24h 4C -PBS -->
      <g transform="translate(29.381563 282.132231) scale(0.1 -0.1)">
       <defs>
        <path id="DejaVuSans-2d" d="M 313 2009 
L 1997 2009 
L 1997 1497 
L 313 1497 
L 313 2009 
z
" transform="scale(0.015625)"/>
       </defs>
       <use xlink:href="#DejaVuSans-32"/>
       <use xlink:href="#DejaVuSans-34" x="63.623047"/>
       <use xlink:href="#DejaVuSans-68" x="127.246094"/>
       <use xlink:href="#DejaVuSans-20" x="190.625"/>
       <use xlink:href="#DejaVuSans-34" x="222.412109"/>
       <use xlink:href="#DejaVuSans-ba" x="286.035156"/>
       <use xlink:href="#DejaVuSans-43" x="333.154297"/>
       <use xlink:href="#DejaVuSans-20" x="402.978516"/>
       <use xlink:href="#DejaVuSans-2d" x="434.765625"/>
       <use xlink:href="#DejaVuSans-50" x="470.849609"/>
       <use xlink:href="#DejaVuSans-42" x="531.152344"/>
       <use xlink:href="#DejaVuSans-53" x="598.005859"/>
      </g>
     </g>
    </g>
    <g id="ytick_5">
     <g id="line2d_11">
      <g>
       <use xlink:href="#m7e15943e15" x="102.53" y="350.884337" style="stroke: #000000; stroke-width: 0.8"/>
      </g>
     </g>
     <g id="text_12">
      <!-- 72h 4C -PBS -->
      <g transform="translate(29.381563 354.683556) scale(0.1 -0.1)">
       <use xlink:href="#DejaVuSans-37"/>
       <use xlink:href="#DejaVuSans-32" x="63.623047"/>
       <use xlink:href="#DejaVuSans-68" x="127.246094"/>
       <use xlink:href="#DejaVuSans-20" x="190.625"/>
       <use xlink:href="#DejaVuSans-34" x="222.412109"/>
       <use xlink:href="#DejaVuSans-ba" x="286.035156"/>
       <use xlink:href="#DejaVuSans-43" x="333.154297"/>
       <use xlink:href="#DejaVuSans-20" x="402.978516"/>
       <use xlink:href="#DejaVuSans-2d" x="434.765625"/>
       <use xlink:href="#DejaVuSans-50" x="470.849609"/>
       <use xlink:href="#DejaVuSans-42" x="531.152344"/>
       <use xlink:href="#DejaVuSans-53" x="598.005859"/>
      </g>
     </g>
    </g>
    <g id="text_13">
     <!-- Condition -->
     <g transform="translate(18.53 222.840156) rotate(-90) scale(0.1 -0.1)">
      <defs>
       <path id="DejaVuSans-6f" d="M 1959 3097 
Q 1497 3097 1228 2736 
Q 959 2375 959 1747 
Q 959 1119 1226 758 
Q 1494 397 1959 397 
Q 2419 397 2687 759 
Q 2956 1122 2956 1747 
Q 2956 2369 2687 2733 
Q 2419 3097 1959 3097 
z
M 1959 3584 
Q 2709 3584 3137 3096 
Q 3566 2609 3566 1747 
Q 3566 888 3137 398 
Q 2709 -91 1959 -91 
Q 1206 -91 779 398 
Q 353 888 353 1747 
Q 353 2609 779 3096 
Q 1206 3584 1959 3584 
z
" transform="scale(0.015625)"/>
       <path id="DejaVuSans-64" d="M 2906 2969 
L 2906 4863 
L 3481 4863 
L 3481 0 
L 2906 0 
L 2906 525 
Q 2725 213 2448 61 
Q 2172 -91 1784 -91 
Q 1150 -91 751 415 
Q 353 922 353 1747 
Q 353 2572 751 3078 
Q 1150 3584 1784 3584 
Q 2172 3584 2448 3432 
Q 2725 3281 2906 2969 
z
M 947 1747 
Q 947 1113 1208 752 
Q 1469 391 1925 391 
Q 2381 391 2643 752 
Q 2906 1113 2906 1747 
Q 2906 2381 2643 2742 
Q 2381 3103 1925 3103 
Q 1469 3103 1208 2742 
Q 947 2381 947 1747 
z
" transform="scale(0.015625)"/>
       <path id="DejaVuSans-69" d="M 603 3500 
L 1178 3500 
L 1178 0 
L 603 0 
L 603 3500 
z
M 603 4863 
L 1178 4863 
L 1178 4134 
L 603 4134 
L 603 4863 
z
" transform="scale(0.015625)"/>
       <path id="DejaVuSans-74" d="M 1172 4494 
L 1172 3500 
L 2356 3500 
L 2356 3053 
L 1172 3053 
L 1172 1153 
Q 1172 725 1289 603 
Q 1406 481 1766 481 
L 2356 481 
L 2356 0 
L 1766 0 
Q 1100 0 847 248 
Q 594 497 594 1153 
L 594 3053 
L 172 3053 
L 172 3500 
L 594 3500 
L 594 4494 
L 1172 4494 
z
" transform="scale(0.015625)"/>
      </defs>
      <use xlink:href="#DejaVuSans-43"/>
      <use xlink:href="#DejaVuSans-6f" x="69.824219"/>
      <use xlink:href="#DejaVuSans-6e" x="131.005859"/>
      <use xlink:href="#DejaVuSans-64" x="194.384766"/>
      <use xlink:href="#DejaVuSans-69" x="257.861328"/>
      <use xlink:href="#DejaVuSans-74" x="285.644531"/>
      <use xlink:href="#DejaVuSans-69" x="324.853516"/>
      <use xlink:href="#DejaVuSans-6f" x="352.636719"/>
      <use xlink:href="#DejaVuSans-6e" x="413.818359"/>
     </g>
    </g>
   </g>
   <g id="line2d_12">
    <path d="M 130.105909 57.958361 
L 130.105909 63.399711 
" clip-path="url(#pd7623dacba)" style="fill: none; stroke: #434343; stroke-width: 1.5; stroke-linecap: square"/>
   </g>
   <g id="line2d_13">
    <path d="M 253.744242 57.958361 
L 253.744242 63.399711 
" clip-path="url(#pd7623dacba)" style="fill: none; stroke: #434343; stroke-width: 1.5; stroke-linecap: square"/>
   </g>
   <g id="line2d_14">
    <defs>
     <path id="m2462798cb7" d="M -0 3.535534 
L 2.12132 0 
L -0 -3.535534 
L -2.12132 -0 
z
" style="stroke: #434343; stroke-linejoin: miter"/>
    </defs>
    <g clip-path="url(#pd7623dacba)">
     <use xlink:href="#m2462798cb7" x="445.808887" y="60.679036" style="fill: #434343; stroke: #434343; stroke-linejoin: miter"/>
     <use xlink:href="#m2462798cb7" x="402.680795" y="60.679036" style="fill: #434343; stroke: #434343; stroke-linejoin: miter"/>
     <use xlink:href="#m2462798cb7" x="553.564893" y="60.679036" style="fill: #434343; stroke: #434343; stroke-linejoin: miter"/>
    </g>
   </g>
   <g id="line2d_15">
    <path d="M 131.498714 130.509687 
L 131.498714 135.951036 
" clip-path="url(#pd7623dacba)" style="fill: none; stroke: #434343; stroke-width: 1.5; stroke-linecap: square"/>
   </g>
   <g id="line2d_16">
    <path d="M 278.679399 130.509687 
L 278.679399 135.951036 
" clip-path="url(#pd7623dacba)" style="fill: none; stroke: #434343; stroke-width: 1.5; stroke-linecap: square"/>
   </g>
   <g id="line2d_17">
    <g clip-path="url(#pd7623dacba)">
     <use xlink:href="#m2462798cb7" x="286.717329" y="133.230361" style="fill: #434343; stroke: #434343; stroke-linejoin: miter"/>
     <use xlink:href="#m2462798cb7" x="351.913422" y="133.230361" style="fill: #434343; stroke: #434343; stroke-linejoin: miter"/>
     <use xlink:href="#m2462798cb7" x="681.624091" y="133.230361" style="fill: #434343; stroke: #434343; stroke-linejoin: miter"/>
    </g>
   </g>
   <g id="line2d_18">
    <path d="M 136.227324 203.061012 
L 136.227324 208.502361 
" clip-path="url(#pd7623dacba)" style="fill: none; stroke: #434343; stroke-width: 1.5; stroke-linecap: square"/>
   </g>
   <g id="line2d_19">
    <path d="M 269.693945 203.061012 
L 269.693945 208.502361 
" clip-path="url(#pd7623dacba)" style="fill: none; stroke: #434343; stroke-width: 1.5; stroke-linecap: square"/>
   </g>
   <g id="line2d_20">
    <g clip-path="url(#pd7623dacba)">
     <use xlink:href="#m2462798cb7" x="370.810933" y="205.781687" style="fill: #434343; stroke: #434343; stroke-linejoin: miter"/>
     <use xlink:href="#m2462798cb7" x="322.424266" y="205.781687" style="fill: #434343; stroke: #434343; stroke-linejoin: miter"/>
     <use xlink:href="#m2462798cb7" x="309.541529" y="205.781687" style="fill: #434343; stroke: #434343; stroke-linejoin: miter"/>
    </g>
   </g>
   <g id="line2d_21">
    <path d="M 131.155386 275.612337 
L 131.155386 281.053687 
" clip-path="url(#pd7623dacba)" style="fill: none; stroke: #434343; stroke-width: 1.5; stroke-linecap: square"/>
   </g>
   <g id="line2d_22">
    <path d="M 280.285622 275.612337 
L 280.285622 281.053687 
" clip-path="url(#pd7623dacba)" style="fill: none; stroke: #434343; stroke-width: 1.5; stroke-linecap: square"/>
   </g>
   <g id="line2d_23">
    <g clip-path="url(#pd7623dacba)">
     <use xlink:href="#m2462798cb7" x="438.063403" y="278.333012" style="fill: #434343; stroke: #434343; stroke-linejoin: miter"/>
     <use xlink:href="#m2462798cb7" x="343.137951" y="278.333012" style="fill: #434343; stroke: #434343; stroke-linejoin: miter"/>
     <use xlink:href="#m2462798cb7" x="550.54268" y="278.333012" style="fill: #434343; stroke: #434343; stroke-linejoin: miter"/>
    </g>
   </g>
   <g id="line2d_24">
    <path d="M 135.699384 348.163663 
L 135.699384 353.605012 
" clip-path="url(#pd7623dacba)" style="fill: none; stroke: #434343; stroke-width: 1.5; stroke-linecap: square"/>
   </g>
   <g id="line2d_25">
    <path d="M 300.367658 348.163663 
L 300.367658 353.605012 
" clip-path="url(#pd7623dacba)" style="fill: none; stroke: #434343; stroke-width: 1.5; stroke-linecap: square"/>
   </g>
   <g id="line2d_26">
    <g clip-path="url(#pd7623dacba)">
     <use xlink:href="#m2462798cb7" x="643.322266" y="350.884337" style="fill: #434343; stroke: #434343; stroke-linejoin: miter"/>
     <use xlink:href="#m2462798cb7" x="360.33173" y="350.884337" style="fill: #434343; stroke: #434343; stroke-linejoin: miter"/>
     <use xlink:href="#m2462798cb7" x="540.787536" y="350.884337" style="fill: #434343; stroke: #434343; stroke-linejoin: miter"/>
    </g>
   </g>
   <g id="line2d_27">
    <path d="M 174.163075 55.237687 
L 174.163075 66.120386 
" clip-path="url(#pd7623dacba)" style="fill: none; stroke: #434343; stroke-width: 1.5; stroke-linecap: square"/>
   </g>
   <g id="line2d_28">
    <path d="M 190.122592 127.789012 
L 190.122592 138.671711 
" clip-path="url(#pd7623dacba)" style="fill: none; stroke: #434343; stroke-width: 1.5; stroke-linecap: square"/>
   </g>
   <g id="line2d_29">
    <path d="M 171.585389 200.340337 
L 171.585389 211.223036 
" clip-path="url(#pd7623dacba)" style="fill: none; stroke: #434343; stroke-width: 1.5; stroke-linecap: square"/>
   </g>
   <g id="line2d_30">
    <path d="M 171.917571 272.891663 
L 171.917571 283.774361 
" clip-path="url(#pd7623dacba)" style="fill: none; stroke: #434343; stroke-width: 1.5; stroke-linecap: square"/>
   </g>
   <g id="line2d_31">
    <path d="M 181.046067 345.442988 
L 181.046067 356.325687 
" clip-path="url(#pd7623dacba)" style="fill: none; stroke: #434343; stroke-width: 1.5; stroke-linecap: square"/>
   </g>
   <g id="patch_3">
    <path d="M 102.53 387.16 
L 102.53 10.8 
" style="fill: none; stroke: #000000; stroke-width: 0.8; stroke-linejoin: miter; stroke-linecap: square"/>
   </g>
   <g id="patch_4">
    <path d="M 709.2 387.16 
L 709.2 10.8 
" style="fill: none; stroke: #000000; stroke-width: 0.8; stroke-linejoin: miter; stroke-linecap: square"/>
   </g>
   <g id="patch_5">
    <path d="M 102.53 387.16 
L 709.2 387.16 
" style="fill: none; stroke: #000000; stroke-width: 0.8; stroke-linejoin: miter; stroke-linecap: square"/>
   </g>
   <g id="patch_6">
    <path d="M 102.53 10.8 
L 709.2 10.8 
" style="fill: none; stroke: #000000; stroke-width: 0.8; stroke-linejoin: miter; stroke-linecap: square"/>
   </g>
   <g id="patch_7">
    <path d="M 152.999069 55.237687 
L 152.999069 66.120386 
L 193.624001 66.120386 
L 193.624001 55.237687 
L 152.999069 55.237687 
L 152.999069 55.237687 
z
" clip-path="url(#pd7623dacba)" style="fill: none; stroke: #434343; stroke-width: 1.5; stroke-linejoin: miter"/>
   </g>
   <g id="line2d_32">
    <path d="M 152.999069 60.679036 
L 130.105909 60.679036 
" clip-path="url(#pd7623dacba)" style="fill: none; stroke: #434343; stroke-width: 2; stroke-linecap: square"/>
   </g>
   <g id="line2d_33">
    <path d="M 193.624001 60.679036 
L 253.744242 60.679036 
" clip-path="url(#pd7623dacba)" style="fill: none; stroke: #434343; stroke-width: 2; stroke-linecap: square"/>
   </g>
   <g id="patch_8">
    <path d="M 161.845236 127.789012 
L 161.845236 138.671711 
L 210.760101 138.671711 
L 210.760101 127.789012 
L 161.845236 127.789012 
L 161.845236 127.789012 
z
" clip-path="url(#pd7623dacba)" style="fill: none; stroke: #434343; stroke-width: 1.5; stroke-linejoin: miter"/>
   </g>
   <g id="line2d_34">
    <path d="M 161.845236 133.230361 
L 131.498714 133.230361 
" clip-path="url(#pd7623dacba)" style="fill: none; stroke: #434343; stroke-width: 2; stroke-linecap: square"/>
   </g>
   <g id="line2d_35">
    <path d="M 210.760101 133.230361 
L 278.679399 133.230361 
" clip-path="url(#pd7623dacba)" style="fill: none; stroke: #434343; stroke-width: 2; stroke-linecap: square"/>
   </g>
   <g id="patch_9">
    <path d="M 156.394374 200.340337 
L 156.394374 211.223036 
L 213.451449 211.223036 
L 213.451449 200.340337 
L 156.394374 200.340337 
L 156.394374 200.340337 
z
" clip-path="url(#pd7623dacba)" style="fill: none; stroke: #434343; stroke-width: 1.5; stroke-linejoin: miter"/>
   </g>
   <g id="line2d_36">
    <path d="M 156.394374 205.781687 
L 136.227324 205.781687 
" clip-path="url(#pd7623dacba)" style="fill: none; stroke: #434343; stroke-width: 2; stroke-linecap: square"/>
   </g>
   <g id="line2d_37">
    <path d="M 213.451449 205.781687 
L 269.693945 205.781687 
" clip-path="url(#pd7623dacba)" style="fill: none; stroke: #434343; stroke-width: 2; stroke-linecap: square"/>
   </g>
   <g id="patch_10">
    <path d="M 157.209297 272.891663 
L 157.209297 283.774361 
L 212.49017 283.774361 
L 212.49017 272.891663 
L 157.209297 272.891663 
L 157.209297 272.891663 
z
" clip-path="url(#pd7623dacba)" style="fill: none; stroke: #434343; stroke-width: 1.5; stroke-linejoin: miter"/>
   </g>
   <g id="line2d_38">
    <path d="M 157.209297 278.333012 
L 131.155386 278.333012 
" clip-path="url(#pd7623dacba)" style="fill: none; stroke: #434343; stroke-width: 2; stroke-linecap: square"/>
   </g>
   <g id="line2d_39">
    <path d="M 212.49017 278.333012 
L 280.285622 278.333012 
" clip-path="url(#pd7623dacba)" style="fill: none; stroke: #434343; stroke-width: 2; stroke-linecap: square"/>
   </g>
   <g id="patch_11">
    <path d="M 160.166313 345.442988 
L 160.166313 356.325687 
L 223.455102 356.325687 
L 223.455102 345.442988 
L 160.166313 345.442988 
L 160.166313 345.442988 
z
" clip-path="url(#pd7623dacba)" style="fill: none; stroke: #434343; stroke-width: 1.5; stroke-linejoin: miter"/>
   </g>
   <g id="line2d_40">
    <path d="M 160.166313 350.884337 
L 135.699384 350.884337 
" clip-path="url(#pd7623dacba)" style="fill: none; stroke: #434343; stroke-width: 2; stroke-linecap: square"/>
   </g>
   <g id="line2d_41">
    <path d="M 223.455102 350.884337 
L 300.367658 350.884337 
" clip-path="url(#pd7623dacba)" style="fill: none; stroke: #434343; stroke-width: 2; stroke-linecap: square"/>
   </g>
  </g>
 </g>
 <defs>
  <clipPath id="pd7623dacba">
   <rect x="102.53" y="10.8" width="606.67" height="376.36"/>
  </clipPath>
 </defs>
</svg>
