<?xml version="1.0" encoding="utf-8" standalone="no"?>
<!DOCTYPE svg PUBLIC "-//W3C//DTD SVG 1.1//EN"
  "http://www.w3.org/Graphics/SVG/1.1/DTD/svg11.dtd">
<svg xmlns:xlink="http://www.w3.org/1999/xlink" width="720pt" height="432pt" viewBox="0 0 720 432" xmlns="http://www.w3.org/2000/svg" version="1.1">
 <metadata>
  <rdf:RDF xmlns:dc="http://purl.org/dc/elements/1.1/" xmlns:cc="http://creativecommons.org/ns#" xmlns:rdf="http://www.w3.org/1999/02/22-rdf-syntax-ns#">
   <cc:Work>
    <dc:type rdf:resource="http://purl.org/dc/dcmitype/StillImage"/>
    <dc:date>2024-09-30T14:00:15.931524</dc:date>
    <dc:format>image/svg+xml</dc:format>
    <dc:creator>
     <cc:Agent>
      <dc:title>Matplotlib v3.7.3, https://matplotlib.org/</dc:title>
     </cc:Agent>
    </dc:creator>
   </cc:Work>
  </rdf:RDF>
 </metadata>
 <defs>
  <style type="text/css">*{stroke-linejoin: round; stroke-linecap: butt}</style>
 </defs>
 <g id="figure_1">
  <g id="patch_1">
   <path d="M 0 432 
L 720 432 
L 720 0 
L 0 0 
z
" style="fill: #ffffff"/>
  </g>
  <g id="axes_1">
   <g id="patch_2">
    <path d="M 62.03 343.03527 
L 709.2 343.03527 
L 709.2 10.8 
L 62.03 10.8 
z
" style="fill: #ffffff"/>
   </g>
   <g id="PolyCollection_1">
    <defs>
     <path id="m78bf7481cd" d="M 128.15548 -108.720445 
L 125.33852 -108.720445 
L 124.84971 -111.190659 
L 124.227779 -113.660873 
L 123.449593 -116.131088 
L 122.492218 -118.601302 
L 121.33441 -121.071517 
L 119.958386 -123.541731 
L 118.351816 -126.011945 
L 116.509884 -128.48216 
L 114.437267 -130.952374 
L 112.149826 -133.422588 
L 109.675809 -135.892803 
L 107.056356 -138.363017 
L 104.345158 -140.833232 
L 101.607152 -143.303446 
L 98.916244 -145.77366 
L 96.352123 -148.243875 
L 93.996345 -150.714089 
L 91.927943 -153.184304 
L 90.218902 -155.654518 
L 88.929852 -158.124732 
L 88.106362 -160.594947 
L 87.776146 -163.065161 
L 87.947442 -165.535376 
L 88.60869 -168.00559 
L 89.729536 -170.475804 
L 91.263046 -172.946019 
L 93.148916 -175.416233 
L 95.317375 -177.886448 
L 97.69342 -180.356662 
L 100.201045 -182.826876 
L 102.767114 -185.297091 
L 105.324624 -187.767305 
L 107.815183 -190.237519 
L 110.1906 -192.707734 
L 112.413603 -195.177948 
L 114.457766 -197.648163 
L 116.306777 -200.118377 
L 117.953236 -202.588591 
L 119.397156 -205.058806 
L 120.64434 -207.52902 
L 121.704803 -209.999235 
L 122.591331 -212.469449 
L 123.318262 -214.939663 
L 123.900532 -217.409878 
L 124.352986 -219.880092 
L 124.689936 -222.350307 
L 124.924936 -224.820521 
L 125.070713 -227.290735 
L 125.139232 -229.76095 
L 125.141812 -232.231164 
L 125.089282 -234.701379 
L 124.992111 -237.171593 
L 124.860515 -239.641807 
L 124.70449 -242.112022 
L 124.533785 -244.582236 
L 124.357803 -247.05245 
L 124.185439 -249.522665 
L 124.02487 -251.992879 
L 123.883317 -254.463094 
L 123.766798 -256.933308 
L 123.679901 -259.403522 
L 123.625603 -261.873737 
L 123.605144 -264.343951 
L 123.617997 -266.814166 
L 123.661921 -269.28438 
L 123.733123 -271.754594 
L 123.826515 -274.224809 
L 123.936056 -276.695023 
L 124.055168 -279.165238 
L 124.177195 -281.635452 
L 124.295862 -284.105666 
L 124.405722 -286.575881 
L 124.502535 -289.046095 
L 124.583547 -291.51631 
L 124.647661 -293.986524 
L 124.695458 -296.456738 
L 124.729083 -298.926953 
L 124.752001 -301.397167 
L 124.768635 -303.867381 
L 124.783942 -306.337596 
L 124.802942 -308.80781 
L 124.830271 -311.278025 
L 124.869781 -313.748239 
L 124.92423 -316.218453 
L 124.995096 -318.688668 
L 125.082512 -321.158882 
L 125.18533 -323.629097 
L 125.301291 -326.099311 
L 125.42729 -328.569525 
L 125.559672 -331.03974 
L 125.694569 -333.509954 
L 125.828193 -335.980169 
L 125.957107 -338.450383 
L 126.078419 -340.920597 
L 126.189907 -343.390812 
L 126.290071 -345.861026 
L 126.37812 -348.331241 
L 126.453901 -350.801455 
L 126.517798 -353.271669 
L 126.976202 -353.271669 
L 126.976202 -353.271669 
L 127.040099 -350.801455 
L 127.11588 -348.331241 
L 127.203929 -345.861026 
L 127.304093 -343.390812 
L 127.415581 -340.920597 
L 127.536893 -338.450383 
L 127.665807 -335.980169 
L 127.799431 -333.509954 
L 127.934328 -331.03974 
L 128.06671 -328.569525 
L 128.192709 -326.099311 
L 128.30867 -323.629097 
L 128.411488 -321.158882 
L 128.498904 -318.688668 
L 128.56977 -316.218453 
L 128.624219 -313.748239 
L 128.663729 -311.278025 
L 128.691058 -308.80781 
L 128.710058 -306.337596 
L 128.725365 -303.867381 
L 128.741999 -301.397167 
L 128.764917 -298.926953 
L 128.798542 -296.456738 
L 128.846339 -293.986524 
L 128.910453 -291.51631 
L 128.991465 -289.046095 
L 129.088278 -286.575881 
L 129.198138 -284.105666 
L 129.316805 -281.635452 
L 129.438832 -279.165238 
L 129.557944 -276.695023 
L 129.667485 -274.224809 
L 129.760877 -271.754594 
L 129.832079 -269.28438 
L 129.876003 -266.814166 
L 129.888856 -264.343951 
L 129.868397 -261.873737 
L 129.814099 -259.403522 
L 129.727202 -256.933308 
L 129.610683 -254.463094 
L 129.46913 -251.992879 
L 129.308561 -249.522665 
L 129.136197 -247.05245 
L 128.960215 -244.582236 
L 128.78951 -242.112022 
L 128.633485 -239.641807 
L 128.501889 -237.171593 
L 128.404718 -234.701379 
L 128.352188 -232.231164 
L 128.354768 -229.76095 
L 128.423287 -227.290735 
L 128.569064 -224.820521 
L 128.804064 -222.350307 
L 129.141014 -219.880092 
L 129.593468 -217.409878 
L 130.175738 -214.939663 
L 130.902669 -212.469449 
L 131.789197 -209.999235 
L 132.84966 -207.52902 
L 134.096844 -205.058806 
L 135.540764 -202.588591 
L 137.187223 -200.118377 
L 139.036234 -197.648163 
L 141.080397 -195.177948 
L 143.3034 -192.707734 
L 145.678817 -190.237519 
L 148.169376 -187.767305 
L 150.726886 -185.297091 
L 153.292955 -182.826876 
L 155.80058 -180.356662 
L 158.176625 -177.886448 
L 160.345084 -175.416233 
L 162.230954 -172.946019 
L 163.764464 -170.475804 
L 164.88531 -168.00559 
L 165.546558 -165.535376 
L 165.717854 -163.065161 
L 165.387638 -160.594947 
L 164.564148 -158.124732 
L 163.275098 -155.654518 
L 161.566057 -153.184304 
L 159.497655 -150.714089 
L 157.141877 -148.243875 
L 154.577756 -145.77366 
L 151.886848 -143.303446 
L 149.148842 -140.833232 
L 146.437644 -138.363017 
L 143.818191 -135.892803 
L 141.344174 -133.422588 
L 139.056733 -130.952374 
L 136.984116 -128.48216 
L 135.142184 -126.011945 
L 133.535614 -123.541731 
L 132.15959 -121.071517 
L 131.001782 -118.601302 
L 130.044407 -116.131088 
L 129.266221 -113.660873 
L 128.64429 -111.190659 
L 128.15548 -108.720445 
z
" style="stroke: #434343; stroke-width: 1.5"/>
    </defs>
    <g clip-path="url(#p8f00250e71)">
     <use xlink:href="#m78bf7481cd" x="0" y="432" style="fill: #e68193; stroke: #434343; stroke-width: 1.5"/>
    </g>
   </g>
   <g id="PolyCollection_2">
    <defs>
     <path id="m420a529875" d="M 257.460211 -106.826823 
L 254.901789 -106.826823 
L 254.405757 -109.849769 
L 253.76238 -112.872714 
L 252.945346 -115.895659 
L 251.929582 -118.918604 
L 250.693461 -121.941549 
L 249.221315 -124.964494 
L 247.506071 -127.98744 
L 245.551761 -131.010385 
L 243.375627 -134.03333 
L 241.009533 -137.056275 
L 238.500418 -140.07922 
L 235.909582 -143.102166 
L 233.310701 -146.125111 
L 230.786572 -149.148056 
L 228.424742 -152.171001 
L 226.312307 -155.193946 
L 224.530272 -158.216892 
L 223.147993 -161.239837 
L 222.218208 -164.262782 
L 221.77319 -167.285727 
L 221.822449 -170.308672 
L 222.35223 -173.331617 
L 223.326924 -176.354563 
L 224.692205 -179.377508 
L 226.379581 -182.400453 
L 228.311826 -185.423398 
L 230.408695 -188.446343 
L 232.592332 -191.469289 
L 234.791842 -194.492234 
L 236.94666 -197.515179 
L 239.008558 -200.538124 
L 240.942293 -203.561069 
L 242.725104 -206.584015 
L 244.345326 -209.60696 
L 245.800486 -212.629905 
L 247.095186 -215.65285 
L 248.239039 -218.675795 
L 249.244834 -221.69874 
L 250.127006 -224.721686 
L 250.900442 -227.744631 
L 251.579588 -230.767576 
L 252.177806 -233.790521 
L 252.706952 -236.813466 
L 253.177124 -239.836412 
L 253.596574 -242.859357 
L 253.971752 -245.882302 
L 254.307488 -248.905247 
L 254.607262 -251.928192 
L 254.873548 -254.951138 
L 255.108173 -257.974083 
L 255.312662 -260.997028 
L 255.488523 -264.019973 
L 255.637445 -267.042918 
L 255.761404 -270.065863 
L 255.862677 -273.088809 
L 255.943785 -276.111754 
L 256.007384 -279.134699 
L 256.056134 -282.157644 
L 256.092568 -285.180589 
L 256.118975 -288.203535 
L 256.13731 -291.22648 
L 256.149127 -294.249425 
L 256.155545 -297.27237 
L 256.157226 -300.295315 
L 256.154373 -303.31826 
L 256.146734 -306.341206 
L 256.133628 -309.364151 
L 256.11398 -312.387096 
L 256.086387 -315.410041 
L 256.049209 -318.432986 
L 256.000717 -321.455932 
L 255.939271 -324.478877 
L 255.863553 -327.501822 
L 255.772824 -330.524767 
L 255.66719 -333.547712 
L 255.547837 -336.570658 
L 255.417203 -339.593603 
L 255.279043 -342.616548 
L 255.138352 -345.639493 
L 255.001131 -348.662438 
L 254.874008 -351.685383 
L 254.76372 -354.708329 
L 254.676536 -357.731274 
L 254.617668 -360.754219 
L 254.590755 -363.777164 
L 254.597492 -366.800109 
L 254.637454 -369.823055 
L 254.708137 -372.846 
L 254.805221 -375.868945 
L 254.923007 -378.89189 
L 255.054968 -381.914835 
L 255.194341 -384.937781 
L 255.334696 -387.960726 
L 255.470393 -390.983671 
L 255.596916 -394.006616 
L 255.711035 -397.029561 
L 255.810833 -400.052506 
L 255.895587 -403.075452 
L 255.965576 -406.098397 
L 256.396424 -406.098397 
L 256.396424 -406.098397 
L 256.466413 -403.075452 
L 256.551167 -400.052506 
L 256.650965 -397.029561 
L 256.765084 -394.006616 
L 256.891607 -390.983671 
L 257.027304 -387.960726 
L 257.167659 -384.937781 
L 257.307032 -381.914835 
L 257.438993 -378.89189 
L 257.556779 -375.868945 
L 257.653863 -372.846 
L 257.724546 -369.823055 
L 257.764508 -366.800109 
L 257.771245 -363.777164 
L 257.744332 -360.754219 
L 257.685464 -357.731274 
L 257.59828 -354.708329 
L 257.487992 -351.685383 
L 257.360869 -348.662438 
L 257.223648 -345.639493 
L 257.082957 -342.616548 
L 256.944797 -339.593603 
L 256.814163 -336.570658 
L 256.69481 -333.547712 
L 256.589176 -330.524767 
L 256.498447 -327.501822 
L 256.422729 -324.478877 
L 256.361283 -321.455932 
L 256.312791 -318.432986 
L 256.275613 -315.410041 
L 256.24802 -312.387096 
L 256.228372 -309.364151 
L 256.215266 -306.341206 
L 256.207627 -303.31826 
L 256.204774 -300.295315 
L 256.206455 -297.27237 
L 256.212873 -294.249425 
L 256.22469 -291.22648 
L 256.243025 -288.203535 
L 256.269432 -285.180589 
L 256.305866 -282.157644 
L 256.354616 -279.134699 
L 256.418215 -276.111754 
L 256.499323 -273.088809 
L 256.600596 -270.065863 
L 256.724555 -267.042918 
L 256.873477 -264.019973 
L 257.049338 -260.997028 
L 257.253827 -257.974083 
L 257.488452 -254.951138 
L 257.754738 -251.928192 
L 258.054512 -248.905247 
L 258.390248 -245.882302 
L 258.765426 -242.859357 
L 259.184876 -239.836412 
L 259.655048 -236.813466 
L 260.184194 -233.790521 
L 260.782412 -230.767576 
L 261.461558 -227.744631 
L 262.234994 -224.721686 
L 263.117166 -221.69874 
L 264.122961 -218.675795 
L 265.266814 -215.65285 
L 266.561514 -212.629905 
L 268.016674 -209.60696 
L 269.636896 -206.584015 
L 271.419707 -203.561069 
L 273.353442 -200.538124 
L 275.41534 -197.515179 
L 277.570158 -194.492234 
L 279.769668 -191.469289 
L 281.953305 -188.446343 
L 284.050174 -185.423398 
L 285.982419 -182.400453 
L 287.669795 -179.377508 
L 289.035076 -176.354563 
L 290.00977 -173.331617 
L 290.539551 -170.308672 
L 290.58881 -167.285727 
L 290.143792 -164.262782 
L 289.214007 -161.239837 
L 287.831728 -158.216892 
L 286.049693 -155.193946 
L 283.937258 -152.171001 
L 281.575428 -149.148056 
L 279.051299 -146.125111 
L 276.452418 -143.102166 
L 273.861582 -140.07922 
L 271.352467 -137.056275 
L 268.986373 -134.03333 
L 266.810239 -131.010385 
L 264.855929 -127.98744 
L 263.140685 -124.964494 
L 261.668539 -121.941549 
L 260.432418 -118.918604 
L 259.416654 -115.895659 
L 258.59962 -112.872714 
L 257.956243 -109.849769 
L 257.460211 -106.826823 
z
" style="stroke: #434343; stroke-width: 1.5"/>
    </defs>
    <g clip-path="url(#p8f00250e71)">
     <use xlink:href="#m420a529875" x="0" y="432" style="fill: #9e9241; stroke: #434343; stroke-width: 1.5"/>
    </g>
   </g>
   <g id="PolyCollection_3">
    <defs>
     <path id="m42c2a26b2b" d="M 387.576076 -126.794392 
L 383.653924 -126.794392 
L 383.046935 -128.197492 
L 382.293701 -129.600593 
L 381.372238 -131.003694 
L 380.261008 -132.406794 
L 378.940092 -133.809895 
L 377.392536 -135.212995 
L 375.605817 -136.616096 
L 373.573348 -138.019197 
L 371.295927 -139.422297 
L 368.783012 -140.825398 
L 366.053711 -142.228499 
L 363.137367 -143.631599 
L 360.073648 -145.0347 
L 356.912052 -146.4378 
L 353.710796 -147.840901 
L 350.535088 -149.244002 
L 347.45483 -150.647102 
L 344.541845 -152.050203 
L 341.866779 -153.453303 
L 339.495853 -154.856404 
L 337.487685 -156.259505 
L 335.890379 -157.662605 
L 334.739128 -159.065706 
L 334.054474 -160.468806 
L 333.8414 -161.871907 
L 334.089309 -163.275008 
L 334.772904 -164.678108 
L 335.853908 -166.081209 
L 337.283474 -167.48431 
L 339.005114 -168.88741 
L 340.957891 -170.290511 
L 343.079657 -171.693611 
L 345.310077 -173.096712 
L 347.593251 -174.499813 
L 349.879771 -175.902913 
L 352.128121 -177.306014 
L 354.305395 -178.709114 
L 356.387361 -180.112215 
L 358.357967 -181.515316 
L 360.208403 -182.918416 
L 361.935868 -184.321517 
L 363.542185 -185.724617 
L 365.032397 -187.127718 
L 366.413461 -188.530819 
L 367.693116 -189.933919 
L 368.878976 -191.33702 
L 369.977881 -192.740121 
L 370.995486 -194.143221 
L 371.936085 -195.546322 
L 372.80264 -196.949422 
L 373.596961 -198.352523 
L 374.320018 -199.755624 
L 374.972329 -201.158724 
L 375.554402 -202.561825 
L 376.067164 -203.964925 
L 376.512368 -205.368026 
L 376.892924 -206.771127 
L 377.213117 -208.174227 
L 377.478704 -209.577328 
L 377.696847 -210.980428 
L 377.875909 -212.383529 
L 378.025088 -213.78663 
L 378.153959 -215.18973 
L 378.271929 -216.592831 
L 378.387685 -217.995932 
L 378.508681 -219.399032 
L 378.640728 -220.802133 
L 378.787729 -222.205233 
L 378.951594 -223.608334 
L 379.132343 -225.011435 
L 379.328379 -226.414535 
L 379.53691 -227.817636 
L 379.754454 -229.220736 
L 379.977366 -230.623837 
L 380.202338 -232.026938 
L 380.426789 -233.430038 
L 380.649135 -234.833139 
L 380.868879 -236.236239 
L 381.08655 -237.63934 
L 381.3035 -239.042441 
L 381.521584 -240.445541 
L 381.742798 -241.848642 
L 381.968902 -243.251743 
L 382.201092 -244.654843 
L 382.439758 -246.057944 
L 382.684348 -247.461044 
L 382.933356 -248.864145 
L 383.184422 -250.267246 
L 383.434521 -251.670346 
L 383.68022 -253.073447 
L 383.917959 -254.476547 
L 384.144328 -255.879648 
L 384.356315 -257.282749 
L 384.551492 -258.685849 
L 384.728133 -260.08895 
L 384.885268 -261.49205 
L 385.022666 -262.895151 
L 385.140763 -264.298252 
L 385.240552 -265.701352 
L 385.989448 -265.701352 
L 385.989448 -265.701352 
L 386.089237 -264.298252 
L 386.207334 -262.895151 
L 386.344732 -261.49205 
L 386.501867 -260.08895 
L 386.678508 -258.685849 
L 386.873685 -257.282749 
L 387.085672 -255.879648 
L 387.312041 -254.476547 
L 387.54978 -253.073447 
L 387.795479 -251.670346 
L 388.045578 -250.267246 
L 388.296644 -248.864145 
L 388.545652 -247.461044 
L 388.790242 -246.057944 
L 389.028908 -244.654843 
L 389.261098 -243.251743 
L 389.487202 -241.848642 
L 389.708416 -240.445541 
L 389.9265 -239.042441 
L 390.14345 -237.63934 
L 390.361121 -236.236239 
L 390.580865 -234.833139 
L 390.803211 -233.430038 
L 391.027662 -232.026938 
L 391.252634 -230.623837 
L 391.475546 -229.220736 
L 391.69309 -227.817636 
L 391.901621 -226.414535 
L 392.097657 -225.011435 
L 392.278406 -223.608334 
L 392.442271 -222.205233 
L 392.589272 -220.802133 
L 392.721319 -219.399032 
L 392.842315 -217.995932 
L 392.958071 -216.592831 
L 393.076041 -215.18973 
L 393.204912 -213.78663 
L 393.354091 -212.383529 
L 393.533153 -210.980428 
L 393.751296 -209.577328 
L 394.016883 -208.174227 
L 394.337076 -206.771127 
L 394.717632 -205.368026 
L 395.162836 -203.964925 
L 395.675598 -202.561825 
L 396.257671 -201.158724 
L 396.909982 -199.755624 
L 397.633039 -198.352523 
L 398.42736 -196.949422 
L 399.293915 -195.546322 
L 400.234514 -194.143221 
L 401.252119 -192.740121 
L 402.351024 -191.33702 
L 403.536884 -189.933919 
L 404.816539 -188.530819 
L 406.197603 -187.127718 
L 407.687815 -185.724617 
L 409.294132 -184.321517 
L 411.021597 -182.918416 
L 412.872033 -181.515316 
L 414.842639 -180.112215 
L 416.924605 -178.709114 
L 419.101879 -177.306014 
L 421.350229 -175.902913 
L 423.636749 -174.499813 
L 425.919923 -173.096712 
L 428.150343 -171.693611 
L 430.272109 -170.290511 
L 432.224886 -168.88741 
L 433.946526 -167.48431 
L 435.376092 -166.081209 
L 436.457096 -164.678108 
L 437.140691 -163.275008 
L 437.3886 -161.871907 
L 437.175526 -160.468806 
L 436.490872 -159.065706 
L 435.339621 -157.662605 
L 433.742315 -156.259505 
L 431.734147 -154.856404 
L 429.363221 -153.453303 
L 426.688155 -152.050203 
L 423.77517 -150.647102 
L 420.694912 -149.244002 
L 417.519204 -147.840901 
L 414.317948 -146.4378 
L 411.156352 -145.0347 
L 408.092633 -143.631599 
L 405.176289 -142.228499 
L 402.446988 -140.825398 
L 399.934073 -139.422297 
L 397.656652 -138.019197 
L 395.624183 -136.616096 
L 393.837464 -135.212995 
L 392.289908 -133.809895 
L 390.968992 -132.406794 
L 389.857762 -131.003694 
L 388.936299 -129.600593 
L 388.183065 -128.197492 
L 387.576076 -126.794392 
z
" style="stroke: #434343; stroke-width: 1.5"/>
    </defs>
    <g clip-path="url(#p8f00250e71)">
     <use xlink:href="#m42c2a26b2b" x="0" y="432" style="fill: #43a178; stroke: #434343; stroke-width: 1.5"/>
    </g>
   </g>
   <g id="PolyCollection_4">
    <defs>
     <path id="m52aab47d40" d="M 516.420569 -111.513567 
L 513.677431 -111.513567 
L 513.179181 -113.919514 
L 512.539318 -116.325462 
L 511.732386 -118.731409 
L 510.733325 -121.137357 
L 509.519297 -123.543304 
L 508.071854 -125.949252 
L 506.379343 -128.355199 
L 504.439332 -130.761147 
L 502.260849 -133.167094 
L 499.866145 -135.573042 
L 497.291721 -137.978989 
L 494.588378 -140.384937 
L 491.820115 -142.790884 
L 489.061823 -145.196832 
L 486.395834 -147.602779 
L 483.907523 -150.008727 
L 481.680304 -152.414674 
L 479.790439 -154.820622 
L 478.302136 -157.226569 
L 477.263418 -159.632517 
L 476.703145 -162.038464 
L 476.629499 -164.444412 
L 477.03004 -166.850359 
L 477.873289 -169.256307 
L 479.111641 -171.662255 
L 480.685258 -174.068202 
L 482.52651 -176.47415 
L 484.564532 -178.880097 
L 486.729462 -181.286045 
L 488.956031 -183.691992 
L 491.186276 -186.09794 
L 493.371274 -188.503887 
L 495.471929 -190.909835 
L 497.458921 -193.315782 
L 499.312009 -195.72173 
L 501.01891 -198.127677 
L 502.573962 -200.533625 
L 503.976754 -202.939572 
L 505.230872 -205.34552 
L 506.342816 -207.751467 
L 507.321134 -210.157415 
L 508.175757 -212.563362 
L 508.917488 -214.96931 
L 509.557593 -217.375257 
L 510.107456 -219.781205 
L 510.578252 -222.187152 
L 510.980632 -224.5931 
L 511.32442 -226.999047 
L 511.618351 -229.404995 
L 511.869874 -231.810942 
L 512.085054 -234.21689 
L 512.268594 -236.622838 
L 512.423983 -239.028785 
L 512.553765 -241.434733 
L 512.659881 -243.84068 
L 512.744055 -246.246628 
L 512.808157 -248.652575 
L 512.854494 -251.058523 
L 512.885981 -253.46447 
L 512.906163 -255.870418 
L 512.919089 -258.276365 
L 512.929038 -260.682313 
L 512.940162 -263.08826 
L 512.956068 -265.494208 
L 512.979435 -267.900155 
L 513.011702 -270.306103 
L 513.052887 -272.71205 
L 513.101571 -275.117998 
L 513.155057 -277.523945 
L 513.209683 -279.929893 
L 513.261269 -282.33584 
L 513.305638 -284.741788 
L 513.339138 -287.147735 
L 513.359131 -289.553683 
L 513.364362 -291.95963 
L 513.35518 -294.365578 
L 513.333583 -296.771525 
L 513.303072 -299.177473 
L 513.268353 -301.583421 
L 513.234896 -303.989368 
L 513.208417 -306.395316 
L 513.194342 -308.801263 
L 513.1973 -311.207211 
L 513.220714 -313.613158 
L 513.266519 -316.019106 
L 513.335036 -318.425053 
L 513.425003 -320.831001 
L 513.533755 -323.236948 
L 513.657524 -325.642896 
L 513.791807 -328.048843 
L 513.93177 -330.454791 
L 514.072641 -332.860738 
L 514.210044 -335.266686 
L 514.340265 -337.672633 
L 514.460414 -340.078581 
L 514.568501 -342.484528 
L 514.663422 -344.890476 
L 514.744871 -347.296423 
L 514.813215 -349.702371 
L 515.284785 -349.702371 
L 515.284785 -349.702371 
L 515.353129 -347.296423 
L 515.434578 -344.890476 
L 515.529499 -342.484528 
L 515.637586 -340.078581 
L 515.757735 -337.672633 
L 515.887956 -335.266686 
L 516.025359 -332.860738 
L 516.16623 -330.454791 
L 516.306193 -328.048843 
L 516.440476 -325.642896 
L 516.564245 -323.236948 
L 516.672997 -320.831001 
L 516.762964 -318.425053 
L 516.831481 -316.019106 
L 516.877286 -313.613158 
L 516.9007 -311.207211 
L 516.903658 -308.801263 
L 516.889583 -306.395316 
L 516.863104 -303.989368 
L 516.829647 -301.583421 
L 516.794928 -299.177473 
L 516.764417 -296.771525 
L 516.74282 -294.365578 
L 516.733638 -291.95963 
L 516.738869 -289.553683 
L 516.758862 -287.147735 
L 516.792362 -284.741788 
L 516.836731 -282.33584 
L 516.888317 -279.929893 
L 516.942943 -277.523945 
L 516.996429 -275.117998 
L 517.045113 -272.71205 
L 517.086298 -270.306103 
L 517.118565 -267.900155 
L 517.141932 -265.494208 
L 517.157838 -263.08826 
L 517.168962 -260.682313 
L 517.178911 -258.276365 
L 517.191837 -255.870418 
L 517.212019 -253.46447 
L 517.243506 -251.058523 
L 517.289843 -248.652575 
L 517.353945 -246.246628 
L 517.438119 -243.84068 
L 517.544235 -241.434733 
L 517.674017 -239.028785 
L 517.829406 -236.622838 
L 518.012946 -234.21689 
L 518.228126 -231.810942 
L 518.479649 -229.404995 
L 518.77358 -226.999047 
L 519.117368 -224.5931 
L 519.519748 -222.187152 
L 519.990544 -219.781205 
L 520.540407 -217.375257 
L 521.180512 -214.96931 
L 521.922243 -212.563362 
L 522.776866 -210.157415 
L 523.755184 -207.751467 
L 524.867128 -205.34552 
L 526.121246 -202.939572 
L 527.524038 -200.533625 
L 529.07909 -198.127677 
L 530.785991 -195.72173 
L 532.639079 -193.315782 
L 534.626071 -190.909835 
L 536.726726 -188.503887 
L 538.911724 -186.09794 
L 541.141969 -183.691992 
L 543.368538 -181.286045 
L 545.533468 -178.880097 
L 547.57149 -176.47415 
L 549.412742 -174.068202 
L 550.986359 -171.662255 
L 552.224711 -169.256307 
L 553.06796 -166.850359 
L 553.468501 -164.444412 
L 553.394855 -162.038464 
L 552.834582 -159.632517 
L 551.795864 -157.226569 
L 550.307561 -154.820622 
L 548.417696 -152.414674 
L 546.190477 -150.008727 
L 543.702166 -147.602779 
L 541.036177 -145.196832 
L 538.277885 -142.790884 
L 535.509622 -140.384937 
L 532.806279 -137.978989 
L 530.231855 -135.573042 
L 527.837151 -133.167094 
L 525.658668 -130.761147 
L 523.718657 -128.355199 
L 522.026146 -125.949252 
L 520.578703 -123.543304 
L 519.364675 -121.137357 
L 518.365614 -118.731409 
L 517.558682 -116.325462 
L 516.918819 -113.919514 
L 516.420569 -111.513567 
z
" style="stroke: #434343; stroke-width: 1.5"/>
    </defs>
    <g clip-path="url(#p8f00250e71)">
     <use xlink:href="#m52aab47d40" x="0" y="432" style="fill: #4a9eb4; stroke: #434343; stroke-width: 1.5"/>
    </g>
   </g>
   <g id="PolyCollection_5">
    <defs>
     <path id="mf4f9e5d149" d="M 646.080224 -104.066334 
L 642.885776 -104.066334 
L 642.35776 -107.009519 
L 641.697602 -109.952705 
L 640.88687 -112.895891 
L 639.909109 -115.839077 
L 638.751421 -118.782263 
L 637.406174 -121.725449 
L 635.872688 -124.668634 
L 634.158752 -127.61182 
L 632.28178 -130.555006 
L 630.269444 -133.498192 
L 628.159622 -136.441378 
L 625.999569 -139.384564 
L 623.844291 -142.327749 
L 621.754153 -145.270935 
L 619.791868 -148.214121 
L 618.019086 -151.157307 
L 616.492834 -154.100493 
L 615.26212 -157.043679 
L 614.364997 -159.986864 
L 613.826335 -162.93005 
L 613.656513 -165.873236 
L 613.851109 -168.816422 
L 614.391622 -171.759608 
L 615.247106 -174.702794 
L 616.376555 -177.645979 
L 617.731794 -180.589165 
L 619.260605 -183.532351 
L 620.90983 -186.475537 
L 622.628191 -189.418723 
L 624.368652 -192.361909 
L 626.090197 -195.305094 
L 627.758956 -198.24828 
L 629.348703 -201.191466 
L 630.840792 -204.134652 
L 632.223623 -207.077838 
L 633.491781 -210.021023 
L 634.644975 -212.964209 
L 635.686882 -215.907395 
L 636.624026 -218.850581 
L 637.464744 -221.793767 
L 638.218291 -224.736953 
L 638.894112 -227.680138 
L 639.501287 -230.623324 
L 640.04812 -233.56651 
L 640.541886 -236.509696 
L 640.988678 -239.452882 
L 641.393362 -242.396068 
L 641.759608 -245.339253 
L 642.089987 -248.282439 
L 642.386114 -251.225625 
L 642.648833 -254.168811 
L 642.878424 -257.111997 
L 643.074831 -260.055183 
L 643.237888 -262.998368 
L 643.36754 -265.941554 
L 643.464046 -268.88474 
L 643.528144 -271.827926 
L 643.561186 -274.771112 
L 643.565216 -277.714298 
L 643.542993 -280.657483 
L 643.497957 -283.600669 
L 643.434128 -286.543855 
L 643.355954 -289.487041 
L 643.268108 -292.430227 
L 643.175251 -295.373413 
L 643.081783 -298.316598 
L 642.99161 -301.259784 
L 642.907946 -304.20297 
L 642.83317 -307.146156 
L 642.768775 -310.089342 
L 642.715394 -313.032528 
L 642.672921 -315.975713 
L 642.640698 -318.918899 
L 642.61776 -321.862085 
L 642.603089 -324.805271 
L 642.595853 -327.748457 
L 642.59559 -330.691642 
L 642.602321 -333.634828 
L 642.616558 -336.578014 
L 642.639234 -339.5212 
L 642.671539 -342.464386 
L 642.714711 -345.407572 
L 642.7698 -348.350757 
L 642.837446 -351.293943 
L 642.917701 -354.237129 
L 643.009923 -357.180315 
L 643.112755 -360.123501 
L 643.224178 -363.066687 
L 643.341652 -366.009872 
L 643.462296 -368.953058 
L 643.583109 -371.896244 
L 643.701181 -374.83943 
L 643.81389 -377.782616 
L 643.919049 -380.725802 
L 644.015011 -383.668987 
L 644.100704 -386.612173 
L 644.175626 -389.555359 
L 644.239789 -392.498545 
L 644.293631 -395.441731 
L 644.672369 -395.441731 
L 644.672369 -395.441731 
L 644.726211 -392.498545 
L 644.790374 -389.555359 
L 644.865296 -386.612173 
L 644.950989 -383.668987 
L 645.046951 -380.725802 
L 645.15211 -377.782616 
L 645.264819 -374.83943 
L 645.382891 -371.896244 
L 645.503704 -368.953058 
L 645.624348 -366.009872 
L 645.741822 -363.066687 
L 645.853245 -360.123501 
L 645.956077 -357.180315 
L 646.048299 -354.237129 
L 646.128554 -351.293943 
L 646.1962 -348.350757 
L 646.251289 -345.407572 
L 646.294461 -342.464386 
L 646.326766 -339.5212 
L 646.349442 -336.578014 
L 646.363679 -333.634828 
L 646.37041 -330.691642 
L 646.370147 -327.748457 
L 646.362911 -324.805271 
L 646.34824 -321.862085 
L 646.325302 -318.918899 
L 646.293079 -315.975713 
L 646.250606 -313.032528 
L 646.197225 -310.089342 
L 646.13283 -307.146156 
L 646.058054 -304.20297 
L 645.97439 -301.259784 
L 645.884217 -298.316598 
L 645.790749 -295.373413 
L 645.697892 -292.430227 
L 645.610046 -289.487041 
L 645.531872 -286.543855 
L 645.468043 -283.600669 
L 645.423007 -280.657483 
L 645.400784 -277.714298 
L 645.404814 -274.771112 
L 645.437856 -271.827926 
L 645.501954 -268.88474 
L 645.59846 -265.941554 
L 645.728112 -262.998368 
L 645.891169 -260.055183 
L 646.087576 -257.111997 
L 646.317167 -254.168811 
L 646.579886 -251.225625 
L 646.876013 -248.282439 
L 647.206392 -245.339253 
L 647.572638 -242.396068 
L 647.977322 -239.452882 
L 648.424114 -236.509696 
L 648.91788 -233.56651 
L 649.464713 -230.623324 
L 650.071888 -227.680138 
L 650.747709 -224.736953 
L 651.501256 -221.793767 
L 652.341974 -218.850581 
L 653.279118 -215.907395 
L 654.321025 -212.964209 
L 655.474219 -210.021023 
L 656.742377 -207.077838 
L 658.125208 -204.134652 
L 659.617297 -201.191466 
L 661.207044 -198.24828 
L 662.875803 -195.305094 
L 664.597348 -192.361909 
L 666.337809 -189.418723 
L 668.05617 -186.475537 
L 669.705395 -183.532351 
L 671.234206 -180.589165 
L 672.589445 -177.645979 
L 673.718894 -174.702794 
L 674.574378 -171.759608 
L 675.114891 -168.816422 
L 675.309487 -165.873236 
L 675.139665 -162.93005 
L 674.601003 -159.986864 
L 673.70388 -157.043679 
L 672.473166 -154.100493 
L 670.946914 -151.157307 
L 669.174132 -148.214121 
L 667.211847 -145.270935 
L 665.121709 -142.327749 
L 662.966431 -139.384564 
L 660.806378 -136.441378 
L 658.696556 -133.498192 
L 656.68422 -130.555006 
L 654.807248 -127.61182 
L 653.093312 -124.668634 
L 651.559826 -121.725449 
L 650.214579 -118.782263 
L 649.056891 -115.839077 
L 648.07913 -112.895891 
L 647.268398 -109.952705 
L 646.60824 -107.009519 
L 646.080224 -104.066334 
z
" style="stroke: #434343; stroke-width: 1.5"/>
    </defs>
    <g clip-path="url(#p8f00250e71)">
     <use xlink:href="#mf4f9e5d149" x="0" y="432" style="fill: #c789e5; stroke: #434343; stroke-width: 1.5"/>
    </g>
   </g>
   <g id="matplotlib.axis_1">
    <g id="xtick_1">
     <g id="line2d_1">
      <defs>
       <path id="mb09a2df24c" d="M 0 0 
L 0 3.5 
" style="stroke: #000000; stroke-width: 0.8"/>
      </defs>
      <g>
       <use xlink:href="#mb09a2df24c" x="126.747" y="343.03527" style="stroke: #000000; stroke-width: 0.8"/>
      </g>
     </g>
     <g id="text_1">
      <!-- Reference -->
      <g transform="translate(110.895655 391.013212) rotate(-45) scale(0.1 -0.1)">
       <defs>
        <path id="DejaVuSans-52" d="M 2841 2188 
Q 3044 2119 3236 1894 
Q 3428 1669 3622 1275 
L 4263 0 
L 3584 0 
L 2988 1197 
Q 2756 1666 2539 1819 
Q 2322 1972 1947 1972 
L 1259 1972 
L 1259 0 
L 628 0 
L 628 4666 
L 2053 4666 
Q 2853 4666 3247 4331 
Q 3641 3997 3641 3322 
Q 3641 2881 3436 2590 
Q 3231 2300 2841 2188 
z
M 1259 4147 
L 1259 2491 
L 2053 2491 
Q 2509 2491 2742 2702 
Q 2975 2913 2975 3322 
Q 2975 3731 2742 3939 
Q 2509 4147 2053 4147 
L 1259 4147 
z
" transform="scale(0.015625)"/>
        <path id="DejaVuSans-65" d="M 3597 1894 
L 3597 1613 
L 953 1613 
Q 991 1019 1311 708 
Q 1631 397 2203 397 
Q 2534 397 2845 478 
Q 3156 559 3463 722 
L 3463 178 
Q 3153 47 2828 -22 
Q 2503 -91 2169 -91 
Q 1331 -91 842 396 
Q 353 884 353 1716 
Q 353 2575 817 3079 
Q 1281 3584 2069 3584 
Q 2775 3584 3186 3129 
Q 3597 2675 3597 1894 
z
M 3022 2063 
Q 3016 2534 2758 2815 
Q 2500 3097 2075 3097 
Q 1594 3097 1305 2825 
Q 1016 2553 972 2059 
L 3022 2063 
z
" transform="scale(0.015625)"/>
        <path id="DejaVuSans-66" d="M 2375 4863 
L 2375 4384 
L 1825 4384 
Q 1516 4384 1395 4259 
Q 1275 4134 1275 3809 
L 1275 3500 
L 2222 3500 
L 2222 3053 
L 1275 3053 
L 1275 0 
L 697 0 
L 697 3053 
L 147 3053 
L 147 3500 
L 697 3500 
L 697 3744 
Q 697 4328 969 4595 
Q 1241 4863 1831 4863 
L 2375 4863 
z
" transform="scale(0.015625)"/>
        <path id="DejaVuSans-72" d="M 2631 2963 
Q 2534 3019 2420 3045 
Q 2306 3072 2169 3072 
Q 1681 3072 1420 2755 
Q 1159 2438 1159 1844 
L 1159 0 
L 581 0 
L 581 3500 
L 1159 3500 
L 1159 2956 
Q 1341 3275 1631 3429 
Q 1922 3584 2338 3584 
Q 2397 3584 2469 3576 
Q 2541 3569 2628 3553 
L 2631 2963 
z
" transform="scale(0.015625)"/>
        <path id="DejaVuSans-6e" d="M 3513 2113 
L 3513 0 
L 2938 0 
L 2938 2094 
Q 2938 2591 2744 2837 
Q 2550 3084 2163 3084 
Q 1697 3084 1428 2787 
Q 1159 2491 1159 1978 
L 1159 0 
L 581 0 
L 581 3500 
L 1159 3500 
L 1159 2956 
Q 1366 3272 1645 3428 
Q 1925 3584 2291 3584 
Q 2894 3584 3203 3211 
Q 3513 2838 3513 2113 
z
" transform="scale(0.015625)"/>
        <path id="DejaVuSans-63" d="M 3122 3366 
L 3122 2828 
Q 2878 2963 2633 3030 
Q 2388 3097 2138 3097 
Q 1578 3097 1268 2742 
Q 959 2388 959 1747 
Q 959 1106 1268 751 
Q 1578 397 2138 397 
Q 2388 397 2633 464 
Q 2878 531 3122 666 
L 3122 134 
Q 2881 22 2623 -34 
Q 2366 -91 2075 -91 
Q 1284 -91 818 406 
Q 353 903 353 1747 
Q 353 2603 823 3093 
Q 1294 3584 2113 3584 
Q 2378 3584 2631 3529 
Q 2884 3475 3122 3366 
z
" transform="scale(0.015625)"/>
       </defs>
       <use xlink:href="#DejaVuSans-52"/>
       <use xlink:href="#DejaVuSans-65" x="64.982422"/>
       <use xlink:href="#DejaVuSans-66" x="126.505859"/>
       <use xlink:href="#DejaVuSans-65" x="161.710938"/>
       <use xlink:href="#DejaVuSans-72" x="223.234375"/>
       <use xlink:href="#DejaVuSans-65" x="262.097656"/>
       <use xlink:href="#DejaVuSans-6e" x="323.621094"/>
       <use xlink:href="#DejaVuSans-63" x="387"/>
       <use xlink:href="#DejaVuSans-65" x="441.980469"/>
      </g>
     </g>
    </g>
    <g id="xtick_2">
     <g id="line2d_2">
      <g>
       <use xlink:href="#mb09a2df24c" x="256.181" y="343.03527" style="stroke: #000000; stroke-width: 0.8"/>
      </g>
     </g>
     <g id="text_2">
      <!-- 24h 4ºC +PBS -->
      <g transform="translate(233.058056 405.55641) rotate(-45) scale(0.1 -0.1)">
       <defs>
        <path id="DejaVuSans-32" d="M 1228 531 
L 3431 531 
L 3431 0 
L 469 0 
L 469 531 
Q 828 903 1448 1529 
Q 2069 2156 2228 2338 
Q 2531 2678 2651 2914 
Q 2772 3150 2772 3378 
Q 2772 3750 2511 3984 
Q 2250 4219 1831 4219 
Q 1534 4219 1204 4116 
Q 875 4013 500 3803 
L 500 4441 
Q 881 4594 1212 4672 
Q 1544 4750 1819 4750 
Q 2544 4750 2975 4387 
Q 3406 4025 3406 3419 
Q 3406 3131 3298 2873 
Q 3191 2616 2906 2266 
Q 2828 2175 2409 1742 
Q 1991 1309 1228 531 
z
" transform="scale(0.015625)"/>
        <path id="DejaVuSans-34" d="M 2419 4116 
L 825 1625 
L 2419 1625 
L 2419 4116 
z
M 2253 4666 
L 3047 4666 
L 3047 1625 
L 3713 1625 
L 3713 1100 
L 3047 1100 
L 3047 0 
L 2419 0 
L 2419 1100 
L 313 1100 
L 313 1709 
L 2253 4666 
z
" transform="scale(0.015625)"/>
        <path id="DejaVuSans-68" d="M 3513 2113 
L 3513 0 
L 2938 0 
L 2938 2094 
Q 2938 2591 2744 2837 
Q 2550 3084 2163 3084 
Q 1697 3084 1428 2787 
Q 1159 2491 1159 1978 
L 1159 0 
L 581 0 
L 581 4863 
L 1159 4863 
L 1159 2956 
Q 1366 3272 1645 3428 
Q 1925 3584 2291 3584 
Q 2894 3584 3203 3211 
Q 3513 2838 3513 2113 
z
" transform="scale(0.015625)"/>
        <path id="DejaVuSans-20" transform="scale(0.015625)"/>
        <path id="DejaVuSans-ba" d="M 434 1850 
L 2584 1850 
L 2584 1466 
L 434 1466 
L 434 1850 
z
M 1509 4750 
Q 2069 4750 2391 4404 
Q 2713 4059 2713 3463 
Q 2713 2866 2391 2523 
Q 2069 2181 1509 2181 
Q 950 2181 625 2525 
Q 300 2869 300 3463 
Q 300 4059 625 4404 
Q 950 4750 1509 4750 
z
M 1509 4391 
Q 1181 4391 984 4139 
Q 788 3888 788 3463 
Q 788 3047 986 2797 
Q 1184 2547 1509 2547 
Q 1838 2547 2033 2797 
Q 2228 3047 2228 3463 
Q 2228 3891 2034 4141 
Q 1841 4391 1509 4391 
z
" transform="scale(0.015625)"/>
        <path id="DejaVuSans-43" d="M 4122 4306 
L 4122 3641 
Q 3803 3938 3442 4084 
Q 3081 4231 2675 4231 
Q 1875 4231 1450 3742 
Q 1025 3253 1025 2328 
Q 1025 1406 1450 917 
Q 1875 428 2675 428 
Q 3081 428 3442 575 
Q 3803 722 4122 1019 
L 4122 359 
Q 3791 134 3420 21 
Q 3050 -91 2638 -91 
Q 1578 -91 968 557 
Q 359 1206 359 2328 
Q 359 3453 968 4101 
Q 1578 4750 2638 4750 
Q 3056 4750 3426 4639 
Q 3797 4528 4122 4306 
z
" transform="scale(0.015625)"/>
        <path id="DejaVuSans-2b" d="M 2944 4013 
L 2944 2272 
L 4684 2272 
L 4684 1741 
L 2944 1741 
L 2944 0 
L 2419 0 
L 2419 1741 
L 678 1741 
L 678 2272 
L 2419 2272 
L 2419 4013 
L 2944 4013 
z
" transform="scale(0.015625)"/>
        <path id="DejaVuSans-50" d="M 1259 4147 
L 1259 2394 
L 2053 2394 
Q 2494 2394 2734 2622 
Q 2975 2850 2975 3272 
Q 2975 3691 2734 3919 
Q 2494 4147 2053 4147 
L 1259 4147 
z
M 628 4666 
L 2053 4666 
Q 2838 4666 3239 4311 
Q 3641 3956 3641 3272 
Q 3641 2581 3239 2228 
Q 2838 1875 2053 1875 
L 1259 1875 
L 1259 0 
L 628 0 
L 628 4666 
z
" transform="scale(0.015625)"/>
        <path id="DejaVuSans-42" d="M 1259 2228 
L 1259 519 
L 2272 519 
Q 2781 519 3026 730 
Q 3272 941 3272 1375 
Q 3272 1813 3026 2020 
Q 2781 2228 2272 2228 
L 1259 2228 
z
M 1259 4147 
L 1259 2741 
L 2194 2741 
Q 2656 2741 2882 2914 
Q 3109 3088 3109 3444 
Q 3109 3797 2882 3972 
Q 2656 4147 2194 4147 
L 1259 4147 
z
M 628 4666 
L 2241 4666 
Q 2963 4666 3353 4366 
Q 3744 4066 3744 3513 
Q 3744 3084 3544 2831 
Q 3344 2578 2956 2516 
Q 3422 2416 3680 2098 
Q 3938 1781 3938 1306 
Q 3938 681 3513 340 
Q 3088 0 2303 0 
L 628 0 
L 628 4666 
z
" transform="scale(0.015625)"/>
        <path id="DejaVuSans-53" d="M 3425 4513 
L 3425 3897 
Q 3066 4069 2747 4153 
Q 2428 4238 2131 4238 
Q 1616 4238 1336 4038 
Q 1056 3838 1056 3469 
Q 1056 3159 1242 3001 
Q 1428 2844 1947 2747 
L 2328 2669 
Q 3034 2534 3370 2195 
Q 3706 1856 3706 1288 
Q 3706 609 3251 259 
Q 2797 -91 1919 -91 
Q 1588 -91 1214 -16 
Q 841 59 441 206 
L 441 856 
Q 825 641 1194 531 
Q 1563 422 1919 422 
Q 2459 422 2753 634 
Q 3047 847 3047 1241 
Q 3047 1584 2836 1778 
Q 2625 1972 2144 2069 
L 1759 2144 
Q 1053 2284 737 2584 
Q 422 2884 422 3419 
Q 422 4038 858 4394 
Q 1294 4750 2059 4750 
Q 2388 4750 2728 4690 
Q 3069 4631 3425 4513 
z
" transform="scale(0.015625)"/>
       </defs>
       <use xlink:href="#DejaVuSans-32"/>
       <use xlink:href="#DejaVuSans-34" x="63.623047"/>
       <use xlink:href="#DejaVuSans-68" x="127.246094"/>
       <use xlink:href="#DejaVuSans-20" x="190.625"/>
       <use xlink:href="#DejaVuSans-34" x="222.412109"/>
       <use xlink:href="#DejaVuSans-ba" x="286.035156"/>
       <use xlink:href="#DejaVuSans-43" x="333.154297"/>
       <use xlink:href="#DejaVuSans-20" x="402.978516"/>
       <use xlink:href="#DejaVuSans-2b" x="434.765625"/>
       <use xlink:href="#DejaVuSans-50" x="518.554688"/>
       <use xlink:href="#DejaVuSans-42" x="578.857422"/>
       <use xlink:href="#DejaVuSans-53" x="645.710938"/>
      </g>
     </g>
    </g>
    <g id="xtick_3">
     <g id="line2d_3">
      <g>
       <use xlink:href="#mb09a2df24c" x="385.615" y="343.03527" style="stroke: #000000; stroke-width: 0.8"/>
      </g>
     </g>
     <g id="text_3">
      <!-- 72h 4ºC +PBS -->
      <g transform="translate(362.492056 405.55641) rotate(-45) scale(0.1 -0.1)">
       <defs>
        <path id="DejaVuSans-37" d="M 525 4666 
L 3525 4666 
L 3525 4397 
L 1831 0 
L 1172 0 
L 2766 4134 
L 525 4134 
L 525 4666 
z
" transform="scale(0.015625)"/>
       </defs>
       <use xlink:href="#DejaVuSans-37"/>
       <use xlink:href="#DejaVuSans-32" x="63.623047"/>
       <use xlink:href="#DejaVuSans-68" x="127.246094"/>
       <use xlink:href="#DejaVuSans-20" x="190.625"/>
       <use xlink:href="#DejaVuSans-34" x="222.412109"/>
       <use xlink:href="#DejaVuSans-ba" x="286.035156"/>
       <use xlink:href="#DejaVuSans-43" x="333.154297"/>
       <use xlink:href="#DejaVuSans-20" x="402.978516"/>
       <use xlink:href="#DejaVuSans-2b" x="434.765625"/>
       <use xlink:href="#DejaVuSans-50" x="518.554688"/>
       <use xlink:href="#DejaVuSans-42" x="578.857422"/>
       <use xlink:href="#DejaVuSans-53" x="645.710938"/>
      </g>
     </g>
    </g>
    <g id="xtick_4">
     <g id="line2d_4">
      <g>
       <use xlink:href="#mb09a2df24c" x="515.049" y="343.03527" style="stroke: #000000; stroke-width: 0.8"/>
      </g>
     </g>
     <g id="text_4">
      <!-- 24h 4ºC -PBS -->
      <g transform="translate(493.613168 402.182185) rotate(-45) scale(0.1 -0.1)">
       <defs>
        <path id="DejaVuSans-2d" d="M 313 2009 
L 1997 2009 
L 1997 1497 
L 313 1497 
L 313 2009 
z
" transform="scale(0.015625)"/>
       </defs>
       <use xlink:href="#DejaVuSans-32"/>
       <use xlink:href="#DejaVuSans-34" x="63.623047"/>
       <use xlink:href="#DejaVuSans-68" x="127.246094"/>
       <use xlink:href="#DejaVuSans-20" x="190.625"/>
       <use xlink:href="#DejaVuSans-34" x="222.412109"/>
       <use xlink:href="#DejaVuSans-ba" x="286.035156"/>
       <use xlink:href="#DejaVuSans-43" x="333.154297"/>
       <use xlink:href="#DejaVuSans-20" x="402.978516"/>
       <use xlink:href="#DejaVuSans-2d" x="434.765625"/>
       <use xlink:href="#DejaVuSans-50" x="470.849609"/>
       <use xlink:href="#DejaVuSans-42" x="531.152344"/>
       <use xlink:href="#DejaVuSans-53" x="598.005859"/>
      </g>
     </g>
    </g>
    <g id="xtick_5">
     <g id="line2d_5">
      <g>
       <use xlink:href="#mb09a2df24c" x="644.483" y="343.03527" style="stroke: #000000; stroke-width: 0.8"/>
      </g>
     </g>
     <g id="text_5">
      <!-- 72h 4ºC -PBS -->
      <g transform="translate(623.047168 402.182185) rotate(-45) scale(0.1 -0.1)">
       <use xlink:href="#DejaVuSans-37"/>
       <use xlink:href="#DejaVuSans-32" x="63.623047"/>
       <use xlink:href="#DejaVuSans-68" x="127.246094"/>
       <use xlink:href="#DejaVuSans-20" x="190.625"/>
       <use xlink:href="#DejaVuSans-34" x="222.412109"/>
       <use xlink:href="#DejaVuSans-ba" x="286.035156"/>
       <use xlink:href="#DejaVuSans-43" x="333.154297"/>
       <use xlink:href="#DejaVuSans-20" x="402.978516"/>
       <use xlink:href="#DejaVuSans-2d" x="434.765625"/>
       <use xlink:href="#DejaVuSans-50" x="470.849609"/>
       <use xlink:href="#DejaVuSans-42" x="531.152344"/>
       <use xlink:href="#DejaVuSans-53" x="598.005859"/>
      </g>
     </g>
    </g>
    <g id="text_6">
     <!-- Condition -->
     <g transform="translate(361.754844 418.625409) scale(0.1 -0.1)">
      <defs>
       <path id="DejaVuSans-6f" d="M 1959 3097 
Q 1497 3097 1228 2736 
Q 959 2375 959 1747 
Q 959 1119 1226 758 
Q 1494 397 1959 397 
Q 2419 397 2687 759 
Q 2956 1122 2956 1747 
Q 2956 2369 2687 2733 
Q 2419 3097 1959 3097 
z
M 1959 3584 
Q 2709 3584 3137 3096 
Q 3566 2609 3566 1747 
Q 3566 888 3137 398 
Q 2709 -91 1959 -91 
Q 1206 -91 779 398 
Q 353 888 353 1747 
Q 353 2609 779 3096 
Q 1206 3584 1959 3584 
z
" transform="scale(0.015625)"/>
       <path id="DejaVuSans-64" d="M 2906 2969 
L 2906 4863 
L 3481 4863 
L 3481 0 
L 2906 0 
L 2906 525 
Q 2725 213 2448 61 
Q 2172 -91 1784 -91 
Q 1150 -91 751 415 
Q 353 922 353 1747 
Q 353 2572 751 3078 
Q 1150 3584 1784 3584 
Q 2172 3584 2448 3432 
Q 2725 3281 2906 2969 
z
M 947 1747 
Q 947 1113 1208 752 
Q 1469 391 1925 391 
Q 2381 391 2643 752 
Q 2906 1113 2906 1747 
Q 2906 2381 2643 2742 
Q 2381 3103 1925 3103 
Q 1469 3103 1208 2742 
Q 947 2381 947 1747 
z
" transform="scale(0.015625)"/>
       <path id="DejaVuSans-69" d="M 603 3500 
L 1178 3500 
L 1178 0 
L 603 0 
L 603 3500 
z
M 603 4863 
L 1178 4863 
L 1178 4134 
L 603 4134 
L 603 4863 
z
" transform="scale(0.015625)"/>
       <path id="DejaVuSans-74" d="M 1172 4494 
L 1172 3500 
L 2356 3500 
L 2356 3053 
L 1172 3053 
L 1172 1153 
Q 1172 725 1289 603 
Q 1406 481 1766 481 
L 2356 481 
L 2356 0 
L 1766 0 
Q 1100 0 847 248 
Q 594 497 594 1153 
L 594 3053 
L 172 3053 
L 172 3500 
L 594 3500 
L 594 4494 
L 1172 4494 
z
" transform="scale(0.015625)"/>
      </defs>
      <use xlink:href="#DejaVuSans-43"/>
      <use xlink:href="#DejaVuSans-6f" x="69.824219"/>
      <use xlink:href="#DejaVuSans-6e" x="131.005859"/>
      <use xlink:href="#DejaVuSans-64" x="194.384766"/>
      <use xlink:href="#DejaVuSans-69" x="257.861328"/>
      <use xlink:href="#DejaVuSans-74" x="285.644531"/>
      <use xlink:href="#DejaVuSans-69" x="324.853516"/>
      <use xlink:href="#DejaVuSans-6f" x="352.636719"/>
      <use xlink:href="#DejaVuSans-6e" x="413.818359"/>
     </g>
    </g>
   </g>
   <g id="matplotlib.axis_2">
    <g id="ytick_1">
     <g id="line2d_6">
      <defs>
       <path id="m2127dd9eb8" d="M 0 0 
L -3.5 0 
" style="stroke: #000000; stroke-width: 0.8"/>
      </defs>
      <g>
       <use xlink:href="#m2127dd9eb8" x="62.03" y="324.028719" style="stroke: #000000; stroke-width: 0.8"/>
      </g>
     </g>
     <g id="text_7">
      <!-- −200 -->
      <g transform="translate(27.562813 327.827938) scale(0.1 -0.1)">
       <defs>
        <path id="DejaVuSans-2212" d="M 678 2272 
L 4684 2272 
L 4684 1741 
L 678 1741 
L 678 2272 
z
" transform="scale(0.015625)"/>
        <path id="DejaVuSans-30" d="M 2034 4250 
Q 1547 4250 1301 3770 
Q 1056 3291 1056 2328 
Q 1056 1369 1301 889 
Q 1547 409 2034 409 
Q 2525 409 2770 889 
Q 3016 1369 3016 2328 
Q 3016 3291 2770 3770 
Q 2525 4250 2034 4250 
z
M 2034 4750 
Q 2819 4750 3233 4129 
Q 3647 3509 3647 2328 
Q 3647 1150 3233 529 
Q 2819 -91 2034 -91 
Q 1250 -91 836 529 
Q 422 1150 422 2328 
Q 422 3509 836 4129 
Q 1250 4750 2034 4750 
z
" transform="scale(0.015625)"/>
       </defs>
       <use xlink:href="#DejaVuSans-2212"/>
       <use xlink:href="#DejaVuSans-32" x="83.789062"/>
       <use xlink:href="#DejaVuSans-30" x="147.412109"/>
       <use xlink:href="#DejaVuSans-30" x="211.035156"/>
      </g>
     </g>
    </g>
    <g id="ytick_2">
     <g id="line2d_7">
      <g>
       <use xlink:href="#m2127dd9eb8" x="62.03" y="284.484138" style="stroke: #000000; stroke-width: 0.8"/>
      </g>
     </g>
     <g id="text_8">
      <!-- 0 -->
      <g transform="translate(48.6675 288.283356) scale(0.1 -0.1)">
       <use xlink:href="#DejaVuSans-30"/>
      </g>
     </g>
    </g>
    <g id="ytick_3">
     <g id="line2d_8">
      <g>
       <use xlink:href="#m2127dd9eb8" x="62.03" y="244.939556" style="stroke: #000000; stroke-width: 0.8"/>
      </g>
     </g>
     <g id="text_9">
      <!-- 200 -->
      <g transform="translate(35.9425 248.738775) scale(0.1 -0.1)">
       <use xlink:href="#DejaVuSans-32"/>
       <use xlink:href="#DejaVuSans-30" x="63.623047"/>
       <use xlink:href="#DejaVuSans-30" x="127.246094"/>
      </g>
     </g>
    </g>
    <g id="ytick_4">
     <g id="line2d_9">
      <g>
       <use xlink:href="#m2127dd9eb8" x="62.03" y="205.394975" style="stroke: #000000; stroke-width: 0.8"/>
      </g>
     </g>
     <g id="text_10">
      <!-- 400 -->
      <g transform="translate(35.9425 209.194194) scale(0.1 -0.1)">
       <use xlink:href="#DejaVuSans-34"/>
       <use xlink:href="#DejaVuSans-30" x="63.623047"/>
       <use xlink:href="#DejaVuSans-30" x="127.246094"/>
      </g>
     </g>
    </g>
    <g id="ytick_5">
     <g id="line2d_10">
      <g>
       <use xlink:href="#m2127dd9eb8" x="62.03" y="165.850393" style="stroke: #000000; stroke-width: 0.8"/>
      </g>
     </g>
     <g id="text_11">
      <!-- 600 -->
      <g transform="translate(35.9425 169.649612) scale(0.1 -0.1)">
       <defs>
        <path id="DejaVuSans-36" d="M 2113 2584 
Q 1688 2584 1439 2293 
Q 1191 2003 1191 1497 
Q 1191 994 1439 701 
Q 1688 409 2113 409 
Q 2538 409 2786 701 
Q 3034 994 3034 1497 
Q 3034 2003 2786 2293 
Q 2538 2584 2113 2584 
z
M 3366 4563 
L 3366 3988 
Q 3128 4100 2886 4159 
Q 2644 4219 2406 4219 
Q 1781 4219 1451 3797 
Q 1122 3375 1075 2522 
Q 1259 2794 1537 2939 
Q 1816 3084 2150 3084 
Q 2853 3084 3261 2657 
Q 3669 2231 3669 1497 
Q 3669 778 3244 343 
Q 2819 -91 2113 -91 
Q 1303 -91 875 529 
Q 447 1150 447 2328 
Q 447 3434 972 4092 
Q 1497 4750 2381 4750 
Q 2619 4750 2861 4703 
Q 3103 4656 3366 4563 
z
" transform="scale(0.015625)"/>
       </defs>
       <use xlink:href="#DejaVuSans-36"/>
       <use xlink:href="#DejaVuSans-30" x="63.623047"/>
       <use xlink:href="#DejaVuSans-30" x="127.246094"/>
      </g>
     </g>
    </g>
    <g id="ytick_6">
     <g id="line2d_11">
      <g>
       <use xlink:href="#m2127dd9eb8" x="62.03" y="126.305812" style="stroke: #000000; stroke-width: 0.8"/>
      </g>
     </g>
     <g id="text_12">
      <!-- 800 -->
      <g transform="translate(35.9425 130.105031) scale(0.1 -0.1)">
       <defs>
        <path id="DejaVuSans-38" d="M 2034 2216 
Q 1584 2216 1326 1975 
Q 1069 1734 1069 1313 
Q 1069 891 1326 650 
Q 1584 409 2034 409 
Q 2484 409 2743 651 
Q 3003 894 3003 1313 
Q 3003 1734 2745 1975 
Q 2488 2216 2034 2216 
z
M 1403 2484 
Q 997 2584 770 2862 
Q 544 3141 544 3541 
Q 544 4100 942 4425 
Q 1341 4750 2034 4750 
Q 2731 4750 3128 4425 
Q 3525 4100 3525 3541 
Q 3525 3141 3298 2862 
Q 3072 2584 2669 2484 
Q 3125 2378 3379 2068 
Q 3634 1759 3634 1313 
Q 3634 634 3220 271 
Q 2806 -91 2034 -91 
Q 1263 -91 848 271 
Q 434 634 434 1313 
Q 434 1759 690 2068 
Q 947 2378 1403 2484 
z
M 1172 3481 
Q 1172 3119 1398 2916 
Q 1625 2713 2034 2713 
Q 2441 2713 2670 2916 
Q 2900 3119 2900 3481 
Q 2900 3844 2670 4047 
Q 2441 4250 2034 4250 
Q 1625 4250 1398 4047 
Q 1172 3844 1172 3481 
z
" transform="scale(0.015625)"/>
       </defs>
       <use xlink:href="#DejaVuSans-38"/>
       <use xlink:href="#DejaVuSans-30" x="63.623047"/>
       <use xlink:href="#DejaVuSans-30" x="127.246094"/>
      </g>
     </g>
    </g>
    <g id="ytick_7">
     <g id="line2d_12">
      <g>
       <use xlink:href="#m2127dd9eb8" x="62.03" y="86.76123" style="stroke: #000000; stroke-width: 0.8"/>
      </g>
     </g>
     <g id="text_13">
      <!-- 1000 -->
      <g transform="translate(29.58 90.560449) scale(0.1 -0.1)">
       <defs>
        <path id="DejaVuSans-31" d="M 794 531 
L 1825 531 
L 1825 4091 
L 703 3866 
L 703 4441 
L 1819 4666 
L 2450 4666 
L 2450 531 
L 3481 531 
L 3481 0 
L 794 0 
L 794 531 
z
" transform="scale(0.015625)"/>
       </defs>
       <use xlink:href="#DejaVuSans-31"/>
       <use xlink:href="#DejaVuSans-30" x="63.623047"/>
       <use xlink:href="#DejaVuSans-30" x="127.246094"/>
       <use xlink:href="#DejaVuSans-30" x="190.869141"/>
      </g>
     </g>
    </g>
    <g id="ytick_8">
     <g id="line2d_13">
      <g>
       <use xlink:href="#m2127dd9eb8" x="62.03" y="47.216649" style="stroke: #000000; stroke-width: 0.8"/>
      </g>
     </g>
     <g id="text_14">
      <!-- 1200 -->
      <g transform="translate(29.58 51.015868) scale(0.1 -0.1)">
       <use xlink:href="#DejaVuSans-31"/>
       <use xlink:href="#DejaVuSans-32" x="63.623047"/>
       <use xlink:href="#DejaVuSans-30" x="127.246094"/>
       <use xlink:href="#DejaVuSans-30" x="190.869141"/>
      </g>
     </g>
    </g>
    <g id="text_15">
     <!-- $log([PERM]/[Total Protein])$ -->
     <g transform="translate(21.462813 242.167635) rotate(-90) scale(0.1 -0.1)">
      <defs>
       <path id="DejaVuSans-Oblique-6c" d="M 1172 4863 
L 1747 4863 
L 800 0 
L 225 0 
L 1172 4863 
z
" transform="scale(0.015625)"/>
       <path id="DejaVuSans-Oblique-6f" d="M 1625 -91 
Q 1009 -91 651 289 
Q 294 669 294 1325 
Q 294 1706 417 2101 
Q 541 2497 738 2766 
Q 1047 3184 1428 3384 
Q 1809 3584 2291 3584 
Q 2888 3584 3255 3212 
Q 3622 2841 3622 2241 
Q 3622 1825 3500 1412 
Q 3378 1000 3181 728 
Q 2875 309 2494 109 
Q 2113 -91 1625 -91 
z
M 891 1344 
Q 891 869 1089 633 
Q 1288 397 1691 397 
Q 2269 397 2648 901 
Q 3028 1406 3028 2181 
Q 3028 2634 2825 2865 
Q 2622 3097 2228 3097 
Q 1903 3097 1650 2945 
Q 1397 2794 1197 2484 
Q 1050 2253 970 1956 
Q 891 1659 891 1344 
z
" transform="scale(0.015625)"/>
       <path id="DejaVuSans-Oblique-67" d="M 3816 3500 
L 3219 434 
Q 3047 -456 2561 -893 
Q 2075 -1331 1253 -1331 
Q 950 -1331 690 -1286 
Q 431 -1241 206 -1147 
L 313 -588 
Q 525 -725 762 -790 
Q 1000 -856 1269 -856 
Q 1816 -856 2167 -557 
Q 2519 -259 2631 300 
L 2681 563 
Q 2441 288 2122 144 
Q 1803 0 1434 0 
Q 903 0 598 351 
Q 294 703 294 1319 
Q 294 1803 478 2267 
Q 663 2731 997 3091 
Q 1219 3328 1514 3456 
Q 1809 3584 2131 3584 
Q 2484 3584 2746 3420 
Q 3009 3256 3138 2956 
L 3238 3500 
L 3816 3500 
z
M 2950 2216 
Q 2950 2641 2750 2872 
Q 2550 3103 2181 3103 
Q 1953 3103 1747 3012 
Q 1541 2922 1394 2759 
Q 1156 2491 1023 2127 
Q 891 1763 891 1375 
Q 891 944 1092 712 
Q 1294 481 1672 481 
Q 2219 481 2584 976 
Q 2950 1472 2950 2216 
z
" transform="scale(0.015625)"/>
       <path id="DejaVuSans-28" d="M 1984 4856 
Q 1566 4138 1362 3434 
Q 1159 2731 1159 2009 
Q 1159 1288 1364 580 
Q 1569 -128 1984 -844 
L 1484 -844 
Q 1016 -109 783 600 
Q 550 1309 550 2009 
Q 550 2706 781 3412 
Q 1013 4119 1484 4856 
L 1984 4856 
z
" transform="scale(0.015625)"/>
       <path id="DejaVuSans-5b" d="M 550 4863 
L 1875 4863 
L 1875 4416 
L 1125 4416 
L 1125 -397 
L 1875 -397 
L 1875 -844 
L 550 -844 
L 550 4863 
z
" transform="scale(0.015625)"/>
       <path id="DejaVuSans-Oblique-50" d="M 1081 4666 
L 2541 4666 
Q 3178 4666 3512 4369 
Q 3847 4072 3847 3500 
Q 3847 2731 3353 2303 
Q 2859 1875 1966 1875 
L 1172 1875 
L 806 0 
L 172 0 
L 1081 4666 
z
M 1613 4147 
L 1275 2394 
L 2069 2394 
Q 2606 2394 2893 2669 
Q 3181 2944 3181 3456 
Q 3181 3784 2986 3965 
Q 2791 4147 2438 4147 
L 1613 4147 
z
" transform="scale(0.015625)"/>
       <path id="DejaVuSans-Oblique-45" d="M 1081 4666 
L 4031 4666 
L 3928 4134 
L 1606 4134 
L 1338 2753 
L 3566 2753 
L 3463 2222 
L 1234 2222 
L 909 531 
L 3284 531 
L 3181 0 
L 172 0 
L 1081 4666 
z
" transform="scale(0.015625)"/>
       <path id="DejaVuSans-Oblique-52" d="M 1613 4147 
L 1294 2491 
L 2106 2491 
Q 2584 2491 2879 2755 
Q 3175 3019 3175 3444 
Q 3175 3784 2976 3965 
Q 2778 4147 2406 4147 
L 1613 4147 
z
M 2772 2241 
Q 2972 2194 3105 2009 
Q 3238 1825 3413 1275 
L 3809 0 
L 3144 0 
L 2778 1197 
Q 2638 1659 2453 1815 
Q 2269 1972 1888 1972 
L 1191 1972 
L 806 0 
L 172 0 
L 1081 4666 
L 2503 4666 
Q 3150 4666 3495 4373 
Q 3841 4081 3841 3531 
Q 3841 3044 3547 2687 
Q 3253 2331 2772 2241 
z
" transform="scale(0.015625)"/>
       <path id="DejaVuSans-Oblique-4d" d="M 1081 4666 
L 2028 4666 
L 2572 1522 
L 4378 4666 
L 5350 4666 
L 4441 0 
L 3828 0 
L 4622 4091 
L 2791 897 
L 2175 897 
L 1581 4103 
L 788 0 
L 172 0 
L 1081 4666 
z
" transform="scale(0.015625)"/>
       <path id="DejaVuSans-5d" d="M 1947 4863 
L 1947 -844 
L 622 -844 
L 622 -397 
L 1369 -397 
L 1369 4416 
L 622 4416 
L 622 4863 
L 1947 4863 
z
" transform="scale(0.015625)"/>
       <path id="DejaVuSans-2f" d="M 1625 4666 
L 2156 4666 
L 531 -594 
L 0 -594 
L 1625 4666 
z
" transform="scale(0.015625)"/>
       <path id="DejaVuSans-Oblique-54" d="M 378 4666 
L 4325 4666 
L 4225 4134 
L 2559 4134 
L 1759 0 
L 1125 0 
L 1925 4134 
L 275 4134 
L 378 4666 
z
" transform="scale(0.015625)"/>
       <path id="DejaVuSans-Oblique-74" d="M 2706 3500 
L 2619 3053 
L 1472 3053 
L 1100 1153 
Q 1081 1047 1072 975 
Q 1063 903 1063 863 
Q 1063 663 1183 572 
Q 1303 481 1569 481 
L 2150 481 
L 2053 0 
L 1503 0 
Q 991 0 739 200 
Q 488 400 488 806 
Q 488 878 497 964 
Q 506 1050 525 1153 
L 897 3053 
L 409 3053 
L 500 3500 
L 978 3500 
L 1172 4494 
L 1747 4494 
L 1556 3500 
L 2706 3500 
z
" transform="scale(0.015625)"/>
       <path id="DejaVuSans-Oblique-61" d="M 3438 1997 
L 3047 0 
L 2472 0 
L 2578 531 
Q 2325 219 2001 64 
Q 1678 -91 1281 -91 
Q 834 -91 548 182 
Q 263 456 263 884 
Q 263 1497 752 1853 
Q 1241 2209 2100 2209 
L 2900 2209 
L 2931 2363 
Q 2938 2388 2941 2417 
Q 2944 2447 2944 2509 
Q 2944 2788 2717 2942 
Q 2491 3097 2081 3097 
Q 1800 3097 1504 3025 
Q 1209 2953 897 2809 
L 997 3341 
Q 1322 3463 1633 3523 
Q 1944 3584 2234 3584 
Q 2853 3584 3176 3315 
Q 3500 3047 3500 2534 
Q 3500 2431 3484 2292 
Q 3469 2153 3438 1997 
z
M 2816 1759 
L 2241 1759 
Q 1534 1759 1195 1570 
Q 856 1381 856 984 
Q 856 709 1029 553 
Q 1203 397 1509 397 
Q 1978 397 2328 733 
Q 2678 1069 2791 1631 
L 2816 1759 
z
" transform="scale(0.015625)"/>
       <path id="DejaVuSans-Oblique-72" d="M 2853 2969 
Q 2766 3016 2653 3041 
Q 2541 3066 2413 3066 
Q 1953 3066 1609 2717 
Q 1266 2369 1153 1784 
L 800 0 
L 225 0 
L 909 3500 
L 1484 3500 
L 1375 2956 
Q 1603 3259 1920 3421 
Q 2238 3584 2597 3584 
Q 2691 3584 2781 3573 
Q 2872 3563 2963 3538 
L 2853 2969 
z
" transform="scale(0.015625)"/>
       <path id="DejaVuSans-Oblique-65" d="M 3078 2063 
Q 3088 2113 3092 2166 
Q 3097 2219 3097 2272 
Q 3097 2653 2873 2875 
Q 2650 3097 2266 3097 
Q 1838 3097 1509 2826 
Q 1181 2556 1013 2059 
L 3078 2063 
z
M 3578 1613 
L 903 1613 
Q 884 1494 878 1425 
Q 872 1356 872 1306 
Q 872 872 1139 634 
Q 1406 397 1894 397 
Q 2269 397 2603 481 
Q 2938 566 3225 728 
L 3116 159 
Q 2806 34 2476 -28 
Q 2147 -91 1806 -91 
Q 1078 -91 686 257 
Q 294 606 294 1247 
Q 294 1794 489 2264 
Q 684 2734 1063 3103 
Q 1306 3334 1642 3459 
Q 1978 3584 2356 3584 
Q 2950 3584 3301 3228 
Q 3653 2872 3653 2272 
Q 3653 2128 3634 1964 
Q 3616 1800 3578 1613 
z
" transform="scale(0.015625)"/>
       <path id="DejaVuSans-Oblique-69" d="M 1172 4863 
L 1747 4863 
L 1606 4134 
L 1031 4134 
L 1172 4863 
z
M 909 3500 
L 1484 3500 
L 800 0 
L 225 0 
L 909 3500 
z
" transform="scale(0.015625)"/>
       <path id="DejaVuSans-Oblique-6e" d="M 3566 2113 
L 3156 0 
L 2578 0 
L 2988 2091 
Q 3016 2238 3031 2350 
Q 3047 2463 3047 2528 
Q 3047 2791 2881 2937 
Q 2716 3084 2419 3084 
Q 1956 3084 1622 2776 
Q 1288 2469 1184 1941 
L 800 0 
L 225 0 
L 903 3500 
L 1478 3500 
L 1363 2950 
Q 1603 3253 1940 3418 
Q 2278 3584 2650 3584 
Q 3113 3584 3367 3334 
Q 3622 3084 3622 2631 
Q 3622 2519 3608 2391 
Q 3594 2263 3566 2113 
z
" transform="scale(0.015625)"/>
       <path id="DejaVuSans-29" d="M 513 4856 
L 1013 4856 
Q 1481 4119 1714 3412 
Q 1947 2706 1947 2009 
Q 1947 1309 1714 600 
Q 1481 -109 1013 -844 
L 513 -844 
Q 928 -128 1133 580 
Q 1338 1288 1338 2009 
Q 1338 2731 1133 3434 
Q 928 4138 513 4856 
z
" transform="scale(0.015625)"/>
      </defs>
      <use xlink:href="#DejaVuSans-Oblique-6c" transform="translate(0 0.015625)"/>
      <use xlink:href="#DejaVuSans-Oblique-6f" transform="translate(27.783203 0.015625)"/>
      <use xlink:href="#DejaVuSans-Oblique-67" transform="translate(88.964844 0.015625)"/>
      <use xlink:href="#DejaVuSans-28" transform="translate(152.441406 0.015625)"/>
      <use xlink:href="#DejaVuSans-5b" transform="translate(191.455078 0.015625)"/>
      <use xlink:href="#DejaVuSans-Oblique-50" transform="translate(230.46875 0.015625)"/>
      <use xlink:href="#DejaVuSans-Oblique-45" transform="translate(290.771484 0.015625)"/>
      <use xlink:href="#DejaVuSans-Oblique-52" transform="translate(353.955078 0.015625)"/>
      <use xlink:href="#DejaVuSans-Oblique-4d" transform="translate(423.4375 0.015625)"/>
      <use xlink:href="#DejaVuSans-5d" transform="translate(509.716797 0.015625)"/>
      <use xlink:href="#DejaVuSans-2f" transform="translate(548.730469 0.015625)"/>
      <use xlink:href="#DejaVuSans-5b" transform="translate(582.421875 0.015625)"/>
      <use xlink:href="#DejaVuSans-Oblique-54" transform="translate(621.435547 0.015625)"/>
      <use xlink:href="#DejaVuSans-Oblique-6f" transform="translate(682.519531 0.015625)"/>
      <use xlink:href="#DejaVuSans-Oblique-74" transform="translate(743.701172 0.015625)"/>
      <use xlink:href="#DejaVuSans-Oblique-61" transform="translate(782.910156 0.015625)"/>
      <use xlink:href="#DejaVuSans-Oblique-6c" transform="translate(844.189453 0.015625)"/>
      <use xlink:href="#DejaVuSans-Oblique-50" transform="translate(871.972656 0.015625)"/>
      <use xlink:href="#DejaVuSans-Oblique-72" transform="translate(932.275391 0.015625)"/>
      <use xlink:href="#DejaVuSans-Oblique-6f" transform="translate(973.388672 0.015625)"/>
      <use xlink:href="#DejaVuSans-Oblique-74" transform="translate(1034.570312 0.015625)"/>
      <use xlink:href="#DejaVuSans-Oblique-65" transform="translate(1073.779297 0.015625)"/>
      <use xlink:href="#DejaVuSans-Oblique-69" transform="translate(1135.302734 0.015625)"/>
      <use xlink:href="#DejaVuSans-Oblique-6e" transform="translate(1163.085938 0.015625)"/>
      <use xlink:href="#DejaVuSans-5d" transform="translate(1226.464844 0.015625)"/>
      <use xlink:href="#DejaVuSans-29" transform="translate(1265.478516 0.015625)"/>
     </g>
    </g>
   </g>
   <g id="line2d_14">
    <path d="M 126.747 284.309265 
L 126.747 235.663557 
" clip-path="url(#p8f00250e71)" style="fill: none; stroke: #434343; stroke-width: 1.5; stroke-linecap: square"/>
   </g>
   <g id="line2d_15">
    <path d="M 126.747 275.301913 
L 126.747 259.317966 
" clip-path="url(#p8f00250e71)" style="fill: none; stroke: #434343; stroke-width: 4.5; stroke-linecap: square"/>
   </g>
   <g id="line2d_16">
    <path d="M 256.181 283.761264 
L 256.181 225.852777 
" clip-path="url(#p8f00250e71)" style="fill: none; stroke: #434343; stroke-width: 1.5; stroke-linecap: square"/>
   </g>
   <g id="line2d_17">
    <path d="M 256.181 271.821374 
L 256.181 252.575739 
" clip-path="url(#p8f00250e71)" style="fill: none; stroke: #434343; stroke-width: 4.5; stroke-linecap: square"/>
   </g>
   <g id="line2d_18">
    <path d="M 385.615 281.900784 
L 385.615 229.388119 
" clip-path="url(#p8f00250e71)" style="fill: none; stroke: #434343; stroke-width: 1.5; stroke-linecap: square"/>
   </g>
   <g id="line2d_19">
    <path d="M 385.615 273.966025 
L 385.615 251.516824 
" clip-path="url(#p8f00250e71)" style="fill: none; stroke: #434343; stroke-width: 4.5; stroke-linecap: square"/>
   </g>
   <g id="line2d_20">
    <path d="M 515.049 283.896347 
L 515.049 225.220806 
" clip-path="url(#p8f00250e71)" style="fill: none; stroke: #434343; stroke-width: 1.5; stroke-linecap: square"/>
   </g>
   <g id="line2d_21">
    <path d="M 515.049 273.645392 
L 515.049 251.89504 
" clip-path="url(#p8f00250e71)" style="fill: none; stroke: #434343; stroke-width: 4.5; stroke-linecap: square"/>
   </g>
   <g id="line2d_22">
    <path d="M 644.483 282.108503 
L 644.483 217.319496 
" clip-path="url(#p8f00250e71)" style="fill: none; stroke: #434343; stroke-width: 1.5; stroke-linecap: square"/>
   </g>
   <g id="line2d_23">
    <path d="M 644.483 272.481949 
L 644.483 247.580869 
" clip-path="url(#p8f00250e71)" style="fill: none; stroke: #434343; stroke-width: 4.5; stroke-linecap: square"/>
   </g>
   <g id="patch_3">
    <path d="M 62.03 343.03527 
L 62.03 10.8 
" style="fill: none; stroke: #000000; stroke-width: 0.8; stroke-linejoin: miter; stroke-linecap: square"/>
   </g>
   <g id="patch_4">
    <path d="M 709.2 343.03527 
L 709.2 10.8 
" style="fill: none; stroke: #000000; stroke-width: 0.8; stroke-linejoin: miter; stroke-linecap: square"/>
   </g>
   <g id="patch_5">
    <path d="M 62.03 343.03527 
L 709.2 343.03527 
" style="fill: none; stroke: #000000; stroke-width: 0.8; stroke-linejoin: miter; stroke-linecap: square"/>
   </g>
   <g id="patch_6">
    <path d="M 62.03 10.8 
L 709.2 10.8 
" style="fill: none; stroke: #000000; stroke-width: 0.8; stroke-linejoin: miter; stroke-linecap: square"/>
   </g>
   <g id="PathCollection_1">
    <defs>
     <path id="mc7ea457189" d="M 0 1.5 
C 0.397805 1.5 0.77937 1.341951 1.06066 1.06066 
C 1.341951 0.77937 1.5 0.397805 1.5 0 
C 1.5 -0.397805 1.341951 -0.77937 1.06066 -1.06066 
C 0.77937 -1.341951 0.397805 -1.5 0 -1.5 
C -0.397805 -1.5 -0.77937 -1.341951 -1.06066 -1.06066 
C -1.341951 -0.77937 -1.5 -0.397805 -1.5 0 
C -1.5 0.397805 -1.341951 0.77937 -1.06066 1.06066 
C -0.77937 1.341951 -0.397805 1.5 0 1.5 
z
" style="stroke: #434343"/>
    </defs>
    <g clip-path="url(#p8f00250e71)">
     <use xlink:href="#mc7ea457189" x="126.747" y="266.9749" style="fill: #ffffff; stroke: #434343"/>
    </g>
   </g>
   <g id="PathCollection_2">
    <g clip-path="url(#p8f00250e71)">
     <use xlink:href="#mc7ea457189" x="256.181" y="260.695601" style="fill: #ffffff; stroke: #434343"/>
    </g>
   </g>
   <g id="PathCollection_3">
    <g clip-path="url(#p8f00250e71)">
     <use xlink:href="#mc7ea457189" x="385.615" y="267.989095" style="fill: #ffffff; stroke: #434343"/>
    </g>
   </g>
   <g id="PathCollection_4">
    <g clip-path="url(#p8f00250e71)">
     <use xlink:href="#mc7ea457189" x="515.049" y="267.858397" style="fill: #ffffff; stroke: #434343"/>
    </g>
   </g>
   <g id="PathCollection_5">
    <g clip-path="url(#p8f00250e71)">
     <use xlink:href="#mc7ea457189" x="644.483" y="264.266775" style="fill: #ffffff; stroke: #434343"/>
    </g>
   </g>
  </g>
 </g>
 <defs>
  <clipPath id="p8f00250e71">
   <rect x="62.03" y="10.8" width="647.17" height="332.23527"/>
  </clipPath>
 </defs>
</svg>
