<?xml version="1.0" encoding="utf-8" standalone="no"?>
<!DOCTYPE svg PUBLIC "-//W3C//DTD SVG 1.1//EN"
  "http://www.w3.org/Graphics/SVG/1.1/DTD/svg11.dtd">
<svg xmlns:xlink="http://www.w3.org/1999/xlink" width="720pt" height="432pt" viewBox="0 0 720 432" xmlns="http://www.w3.org/2000/svg" version="1.1">
 <metadata>
  <rdf:RDF xmlns:dc="http://purl.org/dc/elements/1.1/" xmlns:cc="http://creativecommons.org/ns#" xmlns:rdf="http://www.w3.org/1999/02/22-rdf-syntax-ns#">
   <cc:Work>
    <dc:type rdf:resource="http://purl.org/dc/dcmitype/StillImage"/>
    <dc:date>2024-09-30T14:00:16.610993</dc:date>
    <dc:format>image/svg+xml</dc:format>
    <dc:creator>
     <cc:Agent>
      <dc:title>Matplotlib v3.7.3, https://matplotlib.org/</dc:title>
     </cc:Agent>
    </dc:creator>
   </cc:Work>
  </rdf:RDF>
 </metadata>
 <defs>
  <style type="text/css">*{stroke-linejoin: round; stroke-linecap: butt}</style>
 </defs>
 <g id="figure_1">
  <g id="patch_1">
   <path d="M 0 432 
L 720 432 
L 720 0 
L 0 0 
z
" style="fill: #ffffff"/>
  </g>
  <g id="axes_1">
   <g id="patch_2">
    <path d="M 105.41 390.04 
L 709.2 390.04 
L 709.2 10.8 
L 105.41 10.8 
z
" style="fill: #ffffff"/>
   </g>
   <g id="PathCollection_1">
    <defs>
     <path id="C0_0_4e2ea3a627" d="M 0 1.5 
C 0.397805 1.5 0.77937 1.341951 1.06066 1.06066 
C 1.341951 0.77937 1.5 0.397805 1.5 -0 
C 1.5 -0.397805 1.341951 -0.77937 1.06066 -1.06066 
C 0.77937 -1.341951 0.397805 -1.5 0 -1.5 
C -0.397805 -1.5 -0.77937 -1.341951 -1.06066 -1.06066 
C -1.341951 -0.77937 -1.5 -0.397805 -1.5 0 
C -1.5 0.397805 -1.341951 0.77937 -1.06066 1.06066 
C -0.77937 1.341951 -0.397805 1.5 0 1.5 
z
"/>
    </defs>
    <g clip-path="url(#pb1c9393a11)">
     <use xlink:href="#C0_0_4e2ea3a627" x="219.20079" y="55.204429" style="fill: #f77189"/>
    </g>
    <g clip-path="url(#pb1c9393a11)">
     <use xlink:href="#C0_0_4e2ea3a627" x="255.906394" y="56.116334" style="fill: #f77189"/>
    </g>
    <g clip-path="url(#pb1c9393a11)">
     <use xlink:href="#C0_0_4e2ea3a627" x="447.059264" y="58.591304" style="fill: #f77189"/>
    </g>
    <g clip-path="url(#pb1c9393a11)">
     <use xlink:href="#C0_0_4e2ea3a627" x="147.01257" y="67.636805" style="fill: #f77189"/>
    </g>
    <g clip-path="url(#pb1c9393a11)">
     <use xlink:href="#C0_0_4e2ea3a627" x="151.721733" y="63.999233" style="fill: #f77189"/>
    </g>
    <g clip-path="url(#pb1c9393a11)">
     <use xlink:href="#C0_0_4e2ea3a627" x="157.312047" y="55.208669" style="fill: #f77189"/>
    </g>
    <g clip-path="url(#pb1c9393a11)">
     <use xlink:href="#C0_0_4e2ea3a627" x="182.971088" y="55.872481" style="fill: #f77189"/>
    </g>
    <g clip-path="url(#pb1c9393a11)">
     <use xlink:href="#C0_0_4e2ea3a627" x="178.679236" y="64.332167" style="fill: #f77189"/>
    </g>
    <g clip-path="url(#pb1c9393a11)">
     <use xlink:href="#C0_0_4e2ea3a627" x="176.703017" y="62.064968" style="fill: #f77189"/>
    </g>
    <g clip-path="url(#pb1c9393a11)">
     <use xlink:href="#C0_0_4e2ea3a627" x="204.244891" y="65.400972" style="fill: #f77189"/>
    </g>
    <g clip-path="url(#pb1c9393a11)">
     <use xlink:href="#C0_0_4e2ea3a627" x="196.071557" y="62.500351" style="fill: #f77189"/>
    </g>
    <g clip-path="url(#pb1c9393a11)">
     <use xlink:href="#C0_0_4e2ea3a627" x="176.290469" y="57.234485" style="fill: #f77189"/>
    </g>
    <g clip-path="url(#pb1c9393a11)">
     <use xlink:href="#C0_0_4e2ea3a627" x="173.736094" y="59.066445" style="fill: #f77189"/>
    </g>
    <g clip-path="url(#pb1c9393a11)">
     <use xlink:href="#C0_0_4e2ea3a627" x="185.605987" y="66.395787" style="fill: #f77189"/>
    </g>
    <g clip-path="url(#pb1c9393a11)">
     <use xlink:href="#C0_0_4e2ea3a627" x="155.427035" y="59.887614" style="fill: #f77189"/>
    </g>
    <g clip-path="url(#pb1c9393a11)">
     <use xlink:href="#C0_0_4e2ea3a627" x="404.135911" y="58.640541" style="fill: #f77189"/>
    </g>
    <g clip-path="url(#pb1c9393a11)">
     <use xlink:href="#C0_0_4e2ea3a627" x="554.303728" y="60.696222" style="fill: #f77189"/>
    </g>
    <g clip-path="url(#pb1c9393a11)">
     <use xlink:href="#C0_0_4e2ea3a627" x="132.855" y="62.58355" style="fill: #f77189"/>
    </g>
    <g clip-path="url(#pb1c9393a11)">
     <use xlink:href="#C0_0_4e2ea3a627" x="173.863949" y="59.205683" style="fill: #f77189"/>
    </g>
    <g clip-path="url(#pb1c9393a11)">
     <use xlink:href="#C0_0_4e2ea3a627" x="155.639481" y="66.947141" style="fill: #f77189"/>
    </g>
    <g clip-path="url(#pb1c9393a11)">
     <use xlink:href="#C0_0_4e2ea3a627" x="144.852924" y="60.49956" style="fill: #f77189"/>
    </g>
    <g clip-path="url(#pb1c9393a11)">
     <use xlink:href="#C0_0_4e2ea3a627" x="147.764918" y="55.956205" style="fill: #f77189"/>
    </g>
    <g clip-path="url(#pb1c9393a11)">
     <use xlink:href="#C0_0_4e2ea3a627" x="142.560531" y="58.88006" style="fill: #f77189"/>
    </g>
    <g clip-path="url(#pb1c9393a11)">
     <use xlink:href="#C0_0_4e2ea3a627" x="218.630761" y="61.003483" style="fill: #f77189"/>
    </g>
    <g clip-path="url(#pb1c9393a11)">
     <use xlink:href="#C0_0_4e2ea3a627" x="180.16583" y="55.821519" style="fill: #f77189"/>
    </g>
    <g clip-path="url(#pb1c9393a11)">
     <use xlink:href="#C0_0_4e2ea3a627" x="180.04062" y="56.181646" style="fill: #f77189"/>
    </g>
    <g clip-path="url(#pb1c9393a11)">
     <use xlink:href="#C0_0_4e2ea3a627" x="175.061037" y="63.163256" style="fill: #f77189"/>
    </g>
    <g clip-path="url(#pb1c9393a11)">
     <use xlink:href="#C0_0_4e2ea3a627" x="178.041731" y="59.498584" style="fill: #f77189"/>
    </g>
    <g clip-path="url(#pb1c9393a11)">
     <use xlink:href="#C0_0_4e2ea3a627" x="174.514407" y="58.13122" style="fill: #f77189"/>
    </g>
   </g>
   <g id="PathCollection_2">
    <defs>
     <path id="C1_0_177e77d9f0" d="M 0 1.5 
C 0.397805 1.5 0.77937 1.341951 1.06066 1.06066 
C 1.341951 0.77937 1.5 0.397805 1.5 -0 
C 1.5 -0.397805 1.341951 -0.77937 1.06066 -1.06066 
C 0.77937 -1.341951 0.397805 -1.5 0 -1.5 
C -0.397805 -1.5 -0.77937 -1.341951 -1.06066 -1.06066 
C -1.341951 -0.77937 -1.5 -0.397805 -1.5 0 
C -1.5 0.397805 -1.341951 0.77937 -1.06066 1.06066 
C -0.77937 1.341951 -0.397805 1.5 0 1.5 
z
"/>
    </defs>
    <g clip-path="url(#pb1c9393a11)">
     <use xlink:href="#C1_0_177e77d9f0" x="288.72295" y="134.969583" style="fill: #ae9d31"/>
    </g>
    <g clip-path="url(#pb1c9393a11)">
     <use xlink:href="#C1_0_177e77d9f0" x="280.723178" y="130.558631" style="fill: #ae9d31"/>
    </g>
    <g clip-path="url(#pb1c9393a11)">
     <use xlink:href="#C1_0_177e77d9f0" x="241.541757" y="130.808073" style="fill: #ae9d31"/>
    </g>
    <g clip-path="url(#pb1c9393a11)">
     <use xlink:href="#C1_0_177e77d9f0" x="148.200209" y="130.853805" style="fill: #ae9d31"/>
    </g>
    <g clip-path="url(#pb1c9393a11)">
     <use xlink:href="#C1_0_177e77d9f0" x="150.500683" y="137.443215" style="fill: #ae9d31"/>
    </g>
    <g clip-path="url(#pb1c9393a11)">
     <use xlink:href="#C1_0_177e77d9f0" x="144.7963" y="133.563055" style="fill: #ae9d31"/>
    </g>
    <g clip-path="url(#pb1c9393a11)">
     <use xlink:href="#C1_0_177e77d9f0" x="193.909029" y="135.8299" style="fill: #ae9d31"/>
    </g>
    <g clip-path="url(#pb1c9393a11)">
     <use xlink:href="#C1_0_177e77d9f0" x="164.443653" y="135.404021" style="fill: #ae9d31"/>
    </g>
    <g clip-path="url(#pb1c9393a11)">
     <use xlink:href="#C1_0_177e77d9f0" x="210.590052" y="127.255907" style="fill: #ae9d31"/>
    </g>
    <g clip-path="url(#pb1c9393a11)">
     <use xlink:href="#C1_0_177e77d9f0" x="213.126309" y="130.335501" style="fill: #ae9d31"/>
    </g>
    <g clip-path="url(#pb1c9393a11)">
     <use xlink:href="#C1_0_177e77d9f0" x="203.642316" y="140.435386" style="fill: #ae9d31"/>
    </g>
    <g clip-path="url(#pb1c9393a11)">
     <use xlink:href="#C1_0_177e77d9f0" x="227.85644" y="127.365635" style="fill: #ae9d31"/>
    </g>
    <g clip-path="url(#pb1c9393a11)">
     <use xlink:href="#C1_0_177e77d9f0" x="198.443271" y="128.290448" style="fill: #ae9d31"/>
    </g>
    <g clip-path="url(#pb1c9393a11)">
     <use xlink:href="#C1_0_177e77d9f0" x="192.58677" y="139.505112" style="fill: #ae9d31"/>
    </g>
    <g clip-path="url(#pb1c9393a11)">
     <use xlink:href="#C1_0_177e77d9f0" x="186.874169" y="127.652546" style="fill: #ae9d31"/>
    </g>
    <g clip-path="url(#pb1c9393a11)">
     <use xlink:href="#C1_0_177e77d9f0" x="353.609543" y="131.368948" style="fill: #ae9d31"/>
    </g>
    <g clip-path="url(#pb1c9393a11)">
     <use xlink:href="#C1_0_177e77d9f0" x="681.755" y="140.830697" style="fill: #ae9d31"/>
    </g>
    <g clip-path="url(#pb1c9393a11)">
     <use xlink:href="#C1_0_177e77d9f0" x="178.647526" y="132.101179" style="fill: #ae9d31"/>
    </g>
    <g clip-path="url(#pb1c9393a11)">
     <use xlink:href="#C1_0_177e77d9f0" x="162.987748" y="132.349648" style="fill: #ae9d31"/>
    </g>
    <g clip-path="url(#pb1c9393a11)">
     <use xlink:href="#C1_0_177e77d9f0" x="194.580747" y="139.350593" style="fill: #ae9d31"/>
    </g>
    <g clip-path="url(#pb1c9393a11)">
     <use xlink:href="#C1_0_177e77d9f0" x="134.241193" y="129.888142" style="fill: #ae9d31"/>
    </g>
    <g clip-path="url(#pb1c9393a11)">
     <use xlink:href="#C1_0_177e77d9f0" x="135.428238" y="129.957762" style="fill: #ae9d31"/>
    </g>
    <g clip-path="url(#pb1c9393a11)">
     <use xlink:href="#C1_0_177e77d9f0" x="141.2752" y="140.870422" style="fill: #ae9d31"/>
    </g>
    <g clip-path="url(#pb1c9393a11)">
     <use xlink:href="#C1_0_177e77d9f0" x="196.096786" y="129.406943" style="fill: #ae9d31"/>
    </g>
    <g clip-path="url(#pb1c9393a11)">
     <use xlink:href="#C1_0_177e77d9f0" x="188.822334" y="141.118566" style="fill: #ae9d31"/>
    </g>
    <g clip-path="url(#pb1c9393a11)">
     <use xlink:href="#C1_0_177e77d9f0" x="191.039434" y="137.692904" style="fill: #ae9d31"/>
    </g>
    <g clip-path="url(#pb1c9393a11)">
     <use xlink:href="#C1_0_177e77d9f0" x="175.737045" y="134.845693" style="fill: #ae9d31"/>
    </g>
    <g clip-path="url(#pb1c9393a11)">
     <use xlink:href="#C1_0_177e77d9f0" x="262.891116" y="133.3455" style="fill: #ae9d31"/>
    </g>
    <g clip-path="url(#pb1c9393a11)">
     <use xlink:href="#C1_0_177e77d9f0" x="179.794657" y="135.704628" style="fill: #ae9d31"/>
    </g>
   </g>
   <g id="PathCollection_3">
    <defs>
     <path id="C2_0_7093c07b63" d="M 0 1.5 
C 0.397805 1.5 0.77937 1.341951 1.06066 1.06066 
C 1.341951 0.77937 1.5 0.397805 1.5 -0 
C 1.5 -0.397805 1.341951 -0.77937 1.06066 -1.06066 
C 0.77937 -1.341951 0.397805 -1.5 0 -1.5 
C -0.397805 -1.5 -0.77937 -1.341951 -1.06066 -1.06066 
C -1.341951 -0.77937 -1.5 -0.397805 -1.5 0 
C -1.5 0.397805 -1.341951 0.77937 -1.06066 1.06066 
C -0.77937 1.341951 -0.397805 1.5 0 1.5 
z
"/>
    </defs>
    <g clip-path="url(#pb1c9393a11)">
     <use xlink:href="#C2_0_7093c07b63" x="271.78038" y="204.650773" style="fill: #33b07a"/>
    </g>
    <g clip-path="url(#pb1c9393a11)">
     <use xlink:href="#C2_0_7093c07b63" x="207.49993" y="214.238639" style="fill: #33b07a"/>
    </g>
    <g clip-path="url(#pb1c9393a11)">
     <use xlink:href="#C2_0_7093c07b63" x="235.364317" y="203.129679" style="fill: #33b07a"/>
    </g>
    <g clip-path="url(#pb1c9393a11)">
     <use xlink:href="#C2_0_7093c07b63" x="143.972139" y="212.942497" style="fill: #33b07a"/>
    </g>
    <g clip-path="url(#pb1c9393a11)">
     <use xlink:href="#C2_0_7093c07b63" x="157.897141" y="210.252476" style="fill: #33b07a"/>
    </g>
    <g clip-path="url(#pb1c9393a11)">
     <use xlink:href="#C2_0_7093c07b63" x="152.671115" y="207.206491" style="fill: #33b07a"/>
    </g>
    <g clip-path="url(#pb1c9393a11)">
     <use xlink:href="#C2_0_7093c07b63" x="218.573196" y="210.227341" style="fill: #33b07a"/>
    </g>
    <g clip-path="url(#pb1c9393a11)">
     <use xlink:href="#C2_0_7093c07b63" x="178.311226" y="201.417068" style="fill: #33b07a"/>
    </g>
    <g clip-path="url(#pb1c9393a11)">
     <use xlink:href="#C2_0_7093c07b63" x="181.86494" y="213.053622" style="fill: #33b07a"/>
    </g>
    <g clip-path="url(#pb1c9393a11)">
     <use xlink:href="#C2_0_7093c07b63" x="252.659245" y="204.944286" style="fill: #33b07a"/>
    </g>
    <g clip-path="url(#pb1c9393a11)">
     <use xlink:href="#C2_0_7093c07b63" x="228.143883" y="201.551424" style="fill: #33b07a"/>
    </g>
    <g clip-path="url(#pb1c9393a11)">
     <use xlink:href="#C2_0_7093c07b63" x="205.916036" y="211.074783" style="fill: #33b07a"/>
    </g>
    <g clip-path="url(#pb1c9393a11)">
     <use xlink:href="#C2_0_7093c07b63" x="156.284353" y="202.835115" style="fill: #33b07a"/>
    </g>
    <g clip-path="url(#pb1c9393a11)">
     <use xlink:href="#C2_0_7093c07b63" x="172.155337" y="213.941572" style="fill: #33b07a"/>
    </g>
    <g clip-path="url(#pb1c9393a11)">
     <use xlink:href="#C2_0_7093c07b63" x="170.309006" y="205.039703" style="fill: #33b07a"/>
    </g>
    <g clip-path="url(#pb1c9393a11)">
     <use xlink:href="#C2_0_7093c07b63" x="372.417342" y="208.40721" style="fill: #33b07a"/>
    </g>
    <g clip-path="url(#pb1c9393a11)">
     <use xlink:href="#C2_0_7093c07b63" x="324.260378" y="203.932149" style="fill: #33b07a"/>
    </g>
    <g clip-path="url(#pb1c9393a11)">
     <use xlink:href="#C2_0_7093c07b63" x="311.438799" y="202.983519" style="fill: #33b07a"/>
    </g>
    <g clip-path="url(#pb1c9393a11)">
     <use xlink:href="#C2_0_7093c07b63" x="181.436285" y="214.113453" style="fill: #33b07a"/>
    </g>
    <g clip-path="url(#pb1c9393a11)">
     <use xlink:href="#C2_0_7093c07b63" x="168.423934" y="208.614684" style="fill: #33b07a"/>
    </g>
    <g clip-path="url(#pb1c9393a11)">
     <use xlink:href="#C2_0_7093c07b63" x="158.303089" y="200.803786" style="fill: #33b07a"/>
    </g>
    <g clip-path="url(#pb1c9393a11)">
     <use xlink:href="#C2_0_7093c07b63" x="138.947356" y="210.851921" style="fill: #33b07a"/>
    </g>
    <g clip-path="url(#pb1c9393a11)">
     <use xlink:href="#C2_0_7093c07b63" x="141.007572" y="201.315736" style="fill: #33b07a"/>
    </g>
    <g clip-path="url(#pb1c9393a11)">
     <use xlink:href="#C2_0_7093c07b63" x="139.697058" y="208.165984" style="fill: #33b07a"/>
    </g>
    <g clip-path="url(#pb1c9393a11)">
     <use xlink:href="#C2_0_7093c07b63" x="176.119797" y="212.183996" style="fill: #33b07a"/>
    </g>
    <g clip-path="url(#pb1c9393a11)">
     <use xlink:href="#C2_0_7093c07b63" x="193.624927" y="200.634846" style="fill: #33b07a"/>
    </g>
    <g clip-path="url(#pb1c9393a11)">
     <use xlink:href="#C2_0_7093c07b63" x="170.663123" y="209.774364" style="fill: #33b07a"/>
    </g>
    <g clip-path="url(#pb1c9393a11)">
     <use xlink:href="#C2_0_7093c07b63" x="161.165403" y="206.423996" style="fill: #33b07a"/>
    </g>
    <g clip-path="url(#pb1c9393a11)">
     <use xlink:href="#C2_0_7093c07b63" x="165.254962" y="210.468624" style="fill: #33b07a"/>
    </g>
    <g clip-path="url(#pb1c9393a11)">
     <use xlink:href="#C2_0_7093c07b63" x="170.309469" y="208.871553" style="fill: #33b07a"/>
    </g>
   </g>
   <g id="PathCollection_4">
    <defs>
     <path id="C3_0_d4d44ba1bb" d="M 0 1.5 
C 0.397805 1.5 0.77937 1.341951 1.06066 1.06066 
C 1.341951 0.77937 1.5 0.397805 1.5 -0 
C 1.5 -0.397805 1.341951 -0.77937 1.06066 -1.06066 
C 0.77937 -1.341951 0.397805 -1.5 0 -1.5 
C -0.397805 -1.5 -0.77937 -1.341951 -1.06066 -1.06066 
C -1.341951 -0.77937 -1.5 -0.397805 -1.5 0 
C -1.5 0.397805 -1.341951 0.77937 -1.06066 1.06066 
C -0.77937 1.341951 -0.397805 1.5 0 1.5 
z
"/>
    </defs>
    <g clip-path="url(#pb1c9393a11)">
     <use xlink:href="#C3_0_d4d44ba1bb" x="239.045471" y="275.254425" style="fill: #38a9c5"/>
    </g>
    <g clip-path="url(#pb1c9393a11)">
     <use xlink:href="#C3_0_d4d44ba1bb" x="215.842932" y="277.144471" style="fill: #38a9c5"/>
    </g>
    <g clip-path="url(#pb1c9393a11)">
     <use xlink:href="#C3_0_d4d44ba1bb" x="250.424171" y="286.025416" style="fill: #38a9c5"/>
    </g>
    <g clip-path="url(#pb1c9393a11)">
     <use xlink:href="#C3_0_d4d44ba1bb" x="158.022449" y="284.134571" style="fill: #38a9c5"/>
    </g>
    <g clip-path="url(#pb1c9393a11)">
     <use xlink:href="#C3_0_d4d44ba1bb" x="156.26584" y="276.461179" style="fill: #38a9c5"/>
    </g>
    <g clip-path="url(#pb1c9393a11)">
     <use xlink:href="#C3_0_d4d44ba1bb" x="153.235288" y="285.430336" style="fill: #38a9c5"/>
    </g>
    <g clip-path="url(#pb1c9393a11)">
     <use xlink:href="#C3_0_d4d44ba1bb" x="168.3945" y="284.83863" style="fill: #38a9c5"/>
    </g>
    <g clip-path="url(#pb1c9393a11)">
     <use xlink:href="#C3_0_d4d44ba1bb" x="165.251541" y="284.616303" style="fill: #38a9c5"/>
    </g>
    <g clip-path="url(#pb1c9393a11)">
     <use xlink:href="#C3_0_d4d44ba1bb" x="193.241297" y="275.453361" style="fill: #38a9c5"/>
    </g>
    <g clip-path="url(#pb1c9393a11)">
     <use xlink:href="#C3_0_d4d44ba1bb" x="186.565185" y="275.308056" style="fill: #38a9c5"/>
    </g>
    <g clip-path="url(#pb1c9393a11)">
     <use xlink:href="#C3_0_d4d44ba1bb" x="211.86386" y="286.915516" style="fill: #38a9c5"/>
    </g>
    <g clip-path="url(#pb1c9393a11)">
     <use xlink:href="#C3_0_d4d44ba1bb" x="282.321776" y="283.496608" style="fill: #38a9c5"/>
    </g>
    <g clip-path="url(#pb1c9393a11)">
     <use xlink:href="#C3_0_d4d44ba1bb" x="191.022286" y="283.704678" style="fill: #38a9c5"/>
    </g>
    <g clip-path="url(#pb1c9393a11)">
     <use xlink:href="#C3_0_d4d44ba1bb" x="165.869478" y="283.316346" style="fill: #38a9c5"/>
    </g>
    <g clip-path="url(#pb1c9393a11)">
     <use xlink:href="#C3_0_d4d44ba1bb" x="174.012293" y="275.451247" style="fill: #38a9c5"/>
    </g>
    <g clip-path="url(#pb1c9393a11)">
     <use xlink:href="#C3_0_d4d44ba1bb" x="439.35055" y="273.536643" style="fill: #38a9c5"/>
    </g>
    <g clip-path="url(#pb1c9393a11)">
     <use xlink:href="#C3_0_d4d44ba1bb" x="344.875731" y="274.407158" style="fill: #38a9c5"/>
    </g>
    <g clip-path="url(#pb1c9393a11)">
     <use xlink:href="#C3_0_d4d44ba1bb" x="551.295863" y="279.012127" style="fill: #38a9c5"/>
    </g>
    <g clip-path="url(#pb1c9393a11)">
     <use xlink:href="#C3_0_d4d44ba1bb" x="165.53524" y="273.575565" style="fill: #38a9c5"/>
    </g>
    <g clip-path="url(#pb1c9393a11)">
     <use xlink:href="#C3_0_d4d44ba1bb" x="152.567805" y="279.867207" style="fill: #38a9c5"/>
    </g>
    <g clip-path="url(#pb1c9393a11)">
     <use xlink:href="#C3_0_d4d44ba1bb" x="168.725595" y="274.534745" style="fill: #38a9c5"/>
    </g>
    <g clip-path="url(#pb1c9393a11)">
     <use xlink:href="#C3_0_d4d44ba1bb" x="143.166016" y="279.851402" style="fill: #38a9c5"/>
    </g>
    <g clip-path="url(#pb1c9393a11)">
     <use xlink:href="#C3_0_d4d44ba1bb" x="141.854793" y="282.179337" style="fill: #38a9c5"/>
    </g>
    <g clip-path="url(#pb1c9393a11)">
     <use xlink:href="#C3_0_d4d44ba1bb" x="133.899494" y="276.208745" style="fill: #38a9c5"/>
    </g>
    <g clip-path="url(#pb1c9393a11)">
     <use xlink:href="#C3_0_d4d44ba1bb" x="156.466527" y="274.403845" style="fill: #38a9c5"/>
    </g>
    <g clip-path="url(#pb1c9393a11)">
     <use xlink:href="#C3_0_d4d44ba1bb" x="165.666621" y="277.132101" style="fill: #38a9c5"/>
    </g>
    <g clip-path="url(#pb1c9393a11)">
     <use xlink:href="#C3_0_d4d44ba1bb" x="174.924053" y="287.575968" style="fill: #38a9c5"/>
    </g>
    <g clip-path="url(#pb1c9393a11)">
     <use xlink:href="#C3_0_d4d44ba1bb" x="185.077929" y="273.451056" style="fill: #38a9c5"/>
    </g>
    <g clip-path="url(#pb1c9393a11)">
     <use xlink:href="#C3_0_d4d44ba1bb" x="178.315924" y="283.647397" style="fill: #38a9c5"/>
    </g>
    <g clip-path="url(#pb1c9393a11)">
     <use xlink:href="#C3_0_d4d44ba1bb" x="234.987446" y="275.681167" style="fill: #38a9c5"/>
    </g>
   </g>
   <g id="PathCollection_5">
    <defs>
     <path id="C4_0_e5ab2cf060" d="M 0 1.5 
C 0.397805 1.5 0.77937 1.341951 1.06066 1.06066 
C 1.341951 0.77937 1.5 0.397805 1.5 -0 
C 1.5 -0.397805 1.341951 -0.77937 1.06066 -1.06066 
C 0.77937 -1.341951 0.397805 -1.5 0 -1.5 
C -0.397805 -1.5 -0.77937 -1.341951 -1.06066 -1.06066 
C -1.341951 -0.77937 -1.5 -0.397805 -1.5 0 
C -1.5 0.397805 -1.341951 0.77937 -1.06066 1.06066 
C -0.77937 1.341951 -0.397805 1.5 0 1.5 
z
"/>
    </defs>
    <g clip-path="url(#pb1c9393a11)">
     <use xlink:href="#C4_0_e5ab2cf060" x="289.179945" y="353.591746" style="fill: #cc7af4"/>
    </g>
    <g clip-path="url(#pb1c9393a11)">
     <use xlink:href="#C4_0_e5ab2cf060" x="258.675851" y="360.080074" style="fill: #cc7af4"/>
    </g>
    <g clip-path="url(#pb1c9393a11)">
     <use xlink:href="#C4_0_e5ab2cf060" x="302.308478" y="354.334179" style="fill: #cc7af4"/>
    </g>
    <g clip-path="url(#pb1c9393a11)">
     <use xlink:href="#C4_0_e5ab2cf060" x="152.102242" y="346.841211" style="fill: #cc7af4"/>
    </g>
    <g clip-path="url(#pb1c9393a11)">
     <use xlink:href="#C4_0_e5ab2cf060" x="166.997267" y="356.31217" style="fill: #cc7af4"/>
    </g>
    <g clip-path="url(#pb1c9393a11)">
     <use xlink:href="#C4_0_e5ab2cf060" x="144.902503" y="356.005865" style="fill: #cc7af4"/>
    </g>
    <g clip-path="url(#pb1c9393a11)">
     <use xlink:href="#C4_0_e5ab2cf060" x="186.16627" y="352.194272" style="fill: #cc7af4"/>
    </g>
    <g clip-path="url(#pb1c9393a11)">
     <use xlink:href="#C4_0_e5ab2cf060" x="171.622561" y="352.034013" style="fill: #cc7af4"/>
    </g>
    <g clip-path="url(#pb1c9393a11)">
     <use xlink:href="#C4_0_e5ab2cf060" x="166.470251" y="353.356315" style="fill: #cc7af4"/>
    </g>
    <g clip-path="url(#pb1c9393a11)">
     <use xlink:href="#C4_0_e5ab2cf060" x="219.865323" y="356.867807" style="fill: #cc7af4"/>
    </g>
    <g clip-path="url(#pb1c9393a11)">
     <use xlink:href="#C4_0_e5ab2cf060" x="227.726284" y="353.117275" style="fill: #cc7af4"/>
    </g>
    <g clip-path="url(#pb1c9393a11)">
     <use xlink:href="#C4_0_e5ab2cf060" x="241.63963" y="347.972374" style="fill: #cc7af4"/>
    </g>
    <g clip-path="url(#pb1c9393a11)">
     <use xlink:href="#C4_0_e5ab2cf060" x="148.794859" y="354.538909" style="fill: #cc7af4"/>
    </g>
    <g clip-path="url(#pb1c9393a11)">
     <use xlink:href="#C4_0_e5ab2cf060" x="161.540184" y="357.605509" style="fill: #cc7af4"/>
    </g>
    <g clip-path="url(#pb1c9393a11)">
     <use xlink:href="#C4_0_e5ab2cf060" x="167.71117" y="360.333108" style="fill: #cc7af4"/>
    </g>
    <g clip-path="url(#pb1c9393a11)">
     <use xlink:href="#C4_0_e5ab2cf060" x="643.635003" y="355.38809" style="fill: #cc7af4"/>
    </g>
    <g clip-path="url(#pb1c9393a11)">
     <use xlink:href="#C4_0_e5ab2cf060" x="361.987886" y="356.298527" style="fill: #cc7af4"/>
    </g>
    <g clip-path="url(#pb1c9393a11)">
     <use xlink:href="#C4_0_e5ab2cf060" x="541.587028" y="356.114631" style="fill: #cc7af4"/>
    </g>
    <g clip-path="url(#pb1c9393a11)">
     <use xlink:href="#C4_0_e5ab2cf060" x="176.821428" y="351.51491" style="fill: #cc7af4"/>
    </g>
    <g clip-path="url(#pb1c9393a11)">
     <use xlink:href="#C4_0_e5ab2cf060" x="197.194435" y="347.533077" style="fill: #cc7af4"/>
    </g>
    <g clip-path="url(#pb1c9393a11)">
     <use xlink:href="#C4_0_e5ab2cf060" x="147.323416" y="359.733472" style="fill: #cc7af4"/>
    </g>
    <g clip-path="url(#pb1c9393a11)">
     <use xlink:href="#C4_0_e5ab2cf060" x="138.421922" y="355.322692" style="fill: #cc7af4"/>
    </g>
    <g clip-path="url(#pb1c9393a11)">
     <use xlink:href="#C4_0_e5ab2cf060" x="141.440832" y="359.856341" style="fill: #cc7af4"/>
    </g>
    <g clip-path="url(#pb1c9393a11)">
     <use xlink:href="#C4_0_e5ab2cf060" x="143.270527" y="358.48681" style="fill: #cc7af4"/>
    </g>
    <g clip-path="url(#pb1c9393a11)">
     <use xlink:href="#C4_0_e5ab2cf060" x="185.419576" y="348.426991" style="fill: #cc7af4"/>
    </g>
    <g clip-path="url(#pb1c9393a11)">
     <use xlink:href="#C4_0_e5ab2cf060" x="198.515207" y="358.16935" style="fill: #cc7af4"/>
    </g>
    <g clip-path="url(#pb1c9393a11)">
     <use xlink:href="#C4_0_e5ab2cf060" x="171.170502" y="350.620584" style="fill: #cc7af4"/>
    </g>
    <g clip-path="url(#pb1c9393a11)">
     <use xlink:href="#C4_0_e5ab2cf060" x="210.983106" y="357.699681" style="fill: #cc7af4"/>
    </g>
    <g clip-path="url(#pb1c9393a11)">
     <use xlink:href="#C4_0_e5ab2cf060" x="196.371165" y="356.814694" style="fill: #cc7af4"/>
    </g>
    <g clip-path="url(#pb1c9393a11)">
     <use xlink:href="#C4_0_e5ab2cf060" x="181.687091" y="349.558161" style="fill: #cc7af4"/>
    </g>
   </g>
   <g id="PolyCollection_1">
    <defs>
     <path id="m7fdd90b2fa" d="M 132.855 -385.560578 
L 132.855 -393.722321 
L 137.112058 -395.354917 
L 141.369116 -397.003158 
L 145.626174 -398.609124 
L 149.883231 -400.12 
L 154.140289 -401.486698 
L 158.397347 -402.659209 
L 162.654405 -403.58215 
L 166.911463 -404.194697 
L 171.168521 -404.437533 
L 175.425579 -404.266146 
L 179.682636 -403.666246 
L 183.939694 -402.665089 
L 188.196752 -401.333364 
L 192.45381 -399.775679 
L 196.710868 -398.112123 
L 200.967926 -396.456738 
L 205.224984 -394.899636 
L 209.482042 -393.497589 
L 213.739099 -392.2744 
L 217.996157 -391.228831 
L 222.253215 -390.345726 
L 226.510273 -389.605885 
L 230.767331 -388.991861 
L 235.024389 -388.48915 
L 239.281447 -388.08425 
L 243.538504 -387.761957 
L 247.795562 -387.503998 
L 252.05262 -387.289939 
L 256.309678 -387.099989 
L 260.566736 -386.918411 
L 264.823794 -386.73607 
L 269.080852 -386.551136 
L 273.337909 -386.367811 
L 277.594967 -386.193714 
L 281.852025 -386.03691 
L 286.109083 -385.903532 
L 290.366141 -385.796518 
L 294.623199 -385.715517 
L 298.880257 -385.657633 
L 303.137315 -385.618546 
L 307.394372 -385.593583 
L 311.65143 -385.578495 
L 315.908488 -385.569869 
L 320.165546 -385.565229 
L 324.422604 -385.56295 
L 328.679662 -385.562097 
L 332.93672 -385.562281 
L 337.193777 -385.563589 
L 341.450835 -385.566596 
L 345.707893 -385.572471 
L 349.964951 -385.583129 
L 354.222009 -385.601368 
L 358.479067 -385.630889 
L 362.736125 -385.676056 
L 366.993182 -385.741292 
L 371.25024 -385.830071 
L 375.507298 -385.943623 
L 379.764356 -386.079644 
L 384.021414 -386.231507 
L 388.278472 -386.388417 
L 392.53553 -386.536845 
L 396.792588 -386.663123 
L 401.049645 -386.756635 
L 405.306703 -386.812667 
L 409.563761 -386.83387 
L 413.820819 -386.829675 
L 418.077877 -386.813588 
L 422.334935 -386.799108 
L 426.591993 -386.795516 
L 430.84905 -386.80494 
L 435.106108 -386.821672 
L 439.363166 -386.833988 
L 443.620224 -386.827835 
L 447.877282 -386.791162 
L 452.13434 -386.717491 
L 456.391398 -386.607672 
L 460.648455 -386.46947 
L 464.905513 -386.315332 
L 469.162571 -386.159258 
L 473.419629 -386.013798 
L 477.676687 -385.887984 
L 481.933745 -385.786553 
L 486.190803 -385.710362 
L 490.447861 -385.6576 
L 494.704918 -385.62529 
L 498.961976 -385.610669 
L 503.219034 -385.612194 
L 507.476092 -385.630029 
L 511.73315 -385.665991 
L 515.990208 -385.722935 
L 520.247266 -385.803653 
L 524.504323 -385.909388 
L 528.761381 -386.038285 
L 533.018439 -386.184175 
L 537.275497 -386.336205 
L 541.532555 -386.479673 
L 545.789613 -386.598135 
L 550.046671 -386.676423 
L 554.303728 -386.70381 
L 554.303728 -385.560578 
L 554.303728 -385.560578 
L 550.046671 -385.560578 
L 545.789613 -385.560578 
L 541.532555 -385.560578 
L 537.275497 -385.560578 
L 533.018439 -385.560578 
L 528.761381 -385.560578 
L 524.504323 -385.560578 
L 520.247266 -385.560578 
L 515.990208 -385.560578 
L 511.73315 -385.560578 
L 507.476092 -385.560578 
L 503.219034 -385.560578 
L 498.961976 -385.560578 
L 494.704918 -385.560578 
L 490.447861 -385.560578 
L 486.190803 -385.560578 
L 481.933745 -385.560578 
L 477.676687 -385.560578 
L 473.419629 -385.560578 
L 469.162571 -385.560578 
L 464.905513 -385.560578 
L 460.648455 -385.560578 
L 456.391398 -385.560578 
L 452.13434 -385.560578 
L 447.877282 -385.560578 
L 443.620224 -385.560578 
L 439.363166 -385.560578 
L 435.106108 -385.560578 
L 430.84905 -385.560578 
L 426.591993 -385.560578 
L 422.334935 -385.560578 
L 418.077877 -385.560578 
L 413.820819 -385.560578 
L 409.563761 -385.560578 
L 405.306703 -385.560578 
L 401.049645 -385.560578 
L 396.792588 -385.560578 
L 392.53553 -385.560578 
L 388.278472 -385.560578 
L 384.021414 -385.560578 
L 379.764356 -385.560578 
L 375.507298 -385.560578 
L 371.25024 -385.560578 
L 366.993182 -385.560578 
L 362.736125 -385.560578 
L 358.479067 -385.560578 
L 354.222009 -385.560578 
L 349.964951 -385.560578 
L 345.707893 -385.560578 
L 341.450835 -385.560578 
L 337.193777 -385.560578 
L 332.93672 -385.560578 
L 328.679662 -385.560578 
L 324.422604 -385.560578 
L 320.165546 -385.560578 
L 315.908488 -385.560578 
L 311.65143 -385.560578 
L 307.394372 -385.560578 
L 303.137315 -385.560578 
L 298.880257 -385.560578 
L 294.623199 -385.560578 
L 290.366141 -385.560578 
L 286.109083 -385.560578 
L 281.852025 -385.560578 
L 277.594967 -385.560578 
L 273.337909 -385.560578 
L 269.080852 -385.560578 
L 264.823794 -385.560578 
L 260.566736 -385.560578 
L 256.309678 -385.560578 
L 252.05262 -385.560578 
L 247.795562 -385.560578 
L 243.538504 -385.560578 
L 239.281447 -385.560578 
L 235.024389 -385.560578 
L 230.767331 -385.560578 
L 226.510273 -385.560578 
L 222.253215 -385.560578 
L 217.996157 -385.560578 
L 213.739099 -385.560578 
L 209.482042 -385.560578 
L 205.224984 -385.560578 
L 200.967926 -385.560578 
L 196.710868 -385.560578 
L 192.45381 -385.560578 
L 188.196752 -385.560578 
L 183.939694 -385.560578 
L 179.682636 -385.560578 
L 175.425579 -385.560578 
L 171.168521 -385.560578 
L 166.911463 -385.560578 
L 162.654405 -385.560578 
L 158.397347 -385.560578 
L 154.140289 -385.560578 
L 149.883231 -385.560578 
L 145.626174 -385.560578 
L 141.369116 -385.560578 
L 137.112058 -385.560578 
L 132.855 -385.560578 
z
" style="stroke: #434343; stroke-opacity: 0.65"/>
    </defs>
    <g clip-path="url(#pb1c9393a11)">
     <use xlink:href="#m7fdd90b2fa" x="0" y="432" style="fill: #e68193; fill-opacity: 0.65; stroke: #434343; stroke-opacity: 0.65"/>
    </g>
   </g>
   <g id="PolyCollection_2">
    <defs>
     <path id="m932bcbd964" d="M 134.241193 -312.454072 
L 134.241193 -319.476637 
L 139.771635 -320.600144 
L 145.302078 -321.595132 
L 150.83252 -322.478475 
L 156.362963 -323.306513 
L 161.893405 -324.142825 
L 167.423848 -325.018201 
L 172.95429 -325.900246 
L 178.484733 -326.687402 
L 184.015175 -327.232517 
L 189.545618 -327.388434 
L 195.07606 -327.058177 
L 200.606503 -326.229994 
L 206.136945 -324.98402 
L 211.667388 -323.469553 
L 217.19783 -321.863903 
L 222.728273 -320.329633 
L 228.258715 -318.984735 
L 233.789158 -317.892165 
L 239.3196 -317.066101 
L 244.850043 -316.486753 
L 250.380485 -316.115176 
L 255.910928 -315.903106 
L 261.44137 -315.797505 
L 266.971813 -315.742752 
L 272.502255 -315.684034 
L 278.032698 -315.573733 
L 283.56314 -315.379849 
L 289.093583 -315.093251 
L 294.624025 -314.730192 
L 300.154468 -314.328166 
L 305.68491 -313.936025 
L 311.215353 -313.601587 
L 316.745795 -313.360592 
L 322.276238 -313.229679 
L 327.80668 -313.204213 
L 333.337123 -313.260442 
L 338.867565 -313.361097 
L 344.398008 -313.463559 
L 349.92845 -313.529299 
L 355.458893 -313.532523 
L 360.989335 -313.465411 
L 366.519778 -313.338104 
L 372.05022 -313.173454 
L 377.580663 -312.99875 
L 383.111105 -312.837701 
L 388.641548 -312.705396 
L 394.17199 -312.607213 
L 399.702433 -312.540863 
L 405.232875 -312.499821 
L 410.763318 -312.476501 
L 416.29376 -312.4643 
L 421.824203 -312.45841 
L 427.354645 -312.455783 
L 432.885088 -312.4547 
L 438.41553 -312.454286 
L 443.945973 -312.45414 
L 449.476415 -312.454092 
L 455.006858 -312.454078 
L 460.5373 -312.454074 
L 466.067743 -312.454073 
L 471.598185 -312.454072 
L 477.128628 -312.454072 
L 482.65907 -312.454072 
L 488.189513 -312.454072 
L 493.719955 -312.454072 
L 499.250398 -312.454072 
L 504.78084 -312.454072 
L 510.311283 -312.454072 
L 515.841725 -312.454072 
L 521.372168 -312.454072 
L 526.90261 -312.454072 
L 532.433053 -312.454072 
L 537.963495 -312.454072 
L 543.493938 -312.454072 
L 549.02438 -312.454072 
L 554.554823 -312.454072 
L 560.085265 -312.454072 
L 565.615708 -312.454072 
L 571.14615 -312.454073 
L 576.676593 -312.454075 
L 582.207035 -312.454081 
L 587.737478 -312.454103 
L 593.26792 -312.454173 
L 598.798363 -312.454382 
L 604.328805 -312.454957 
L 609.859248 -312.456426 
L 615.38969 -312.459897 
L 620.920133 -312.467479 
L 626.450575 -312.482769 
L 631.981018 -312.511204 
L 637.51146 -312.559861 
L 643.041903 -312.636263 
L 648.572345 -312.745905 
L 654.102788 -312.888847 
L 659.63323 -313.056516 
L 665.163673 -313.230481 
L 670.694115 -313.384722 
L 676.224558 -313.491609 
L 681.755 -313.5299 
L 681.755 -312.454072 
L 681.755 -312.454072 
L 676.224558 -312.454072 
L 670.694115 -312.454072 
L 665.163673 -312.454072 
L 659.63323 -312.454072 
L 654.102788 -312.454072 
L 648.572345 -312.454072 
L 643.041903 -312.454072 
L 637.51146 -312.454072 
L 631.981018 -312.454072 
L 626.450575 -312.454072 
L 620.920133 -312.454072 
L 615.38969 -312.454072 
L 609.859248 -312.454072 
L 604.328805 -312.454072 
L 598.798363 -312.454072 
L 593.26792 -312.454072 
L 587.737478 -312.454072 
L 582.207035 -312.454072 
L 576.676593 -312.454072 
L 571.14615 -312.454072 
L 565.615708 -312.454072 
L 560.085265 -312.454072 
L 554.554823 -312.454072 
L 549.02438 -312.454072 
L 543.493938 -312.454072 
L 537.963495 -312.454072 
L 532.433053 -312.454072 
L 526.90261 -312.454072 
L 521.372168 -312.454072 
L 515.841725 -312.454072 
L 510.311283 -312.454072 
L 504.78084 -312.454072 
L 499.250398 -312.454072 
L 493.719955 -312.454072 
L 488.189513 -312.454072 
L 482.65907 -312.454072 
L 477.128628 -312.454072 
L 471.598185 -312.454072 
L 466.067743 -312.454072 
L 460.5373 -312.454072 
L 455.006858 -312.454072 
L 449.476415 -312.454072 
L 443.945973 -312.454072 
L 438.41553 -312.454072 
L 432.885088 -312.454072 
L 427.354645 -312.454072 
L 421.824203 -312.454072 
L 416.29376 -312.454072 
L 410.763318 -312.454072 
L 405.232875 -312.454072 
L 399.702433 -312.454072 
L 394.17199 -312.454072 
L 388.641548 -312.454072 
L 383.111105 -312.454072 
L 377.580663 -312.454072 
L 372.05022 -312.454072 
L 366.519778 -312.454072 
L 360.989335 -312.454072 
L 355.458893 -312.454072 
L 349.92845 -312.454072 
L 344.398008 -312.454072 
L 338.867565 -312.454072 
L 333.337123 -312.454072 
L 327.80668 -312.454072 
L 322.276238 -312.454072 
L 316.745795 -312.454072 
L 311.215353 -312.454072 
L 305.68491 -312.454072 
L 300.154468 -312.454072 
L 294.624025 -312.454072 
L 289.093583 -312.454072 
L 283.56314 -312.454072 
L 278.032698 -312.454072 
L 272.502255 -312.454072 
L 266.971813 -312.454072 
L 261.44137 -312.454072 
L 255.910928 -312.454072 
L 250.380485 -312.454072 
L 244.850043 -312.454072 
L 239.3196 -312.454072 
L 233.789158 -312.454072 
L 228.258715 -312.454072 
L 222.728273 -312.454072 
L 217.19783 -312.454072 
L 211.667388 -312.454072 
L 206.136945 -312.454072 
L 200.606503 -312.454072 
L 195.07606 -312.454072 
L 189.545618 -312.454072 
L 184.015175 -312.454072 
L 178.484733 -312.454072 
L 172.95429 -312.454072 
L 167.423848 -312.454072 
L 161.893405 -312.454072 
L 156.362963 -312.454072 
L 150.83252 -312.454072 
L 145.302078 -312.454072 
L 139.771635 -312.454072 
L 134.241193 -312.454072 
z
" style="stroke: #434343; stroke-opacity: 0.65"/>
    </defs>
    <g clip-path="url(#pb1c9393a11)">
     <use xlink:href="#m932bcbd964" x="0" y="432" style="fill: #9e9241; fill-opacity: 0.65; stroke: #434343; stroke-opacity: 0.65"/>
    </g>
   </g>
   <g id="PolyCollection_3">
    <defs>
     <path id="m2d78c248f0" d="M 138.947356 -239.347566 
L 138.947356 -249.672042 
L 141.305638 -250.93228 
L 143.663921 -252.14773 
L 146.022204 -253.324275 
L 148.380486 -254.475003 
L 150.738769 -255.611675 
L 153.097052 -256.736149 
L 155.455334 -257.833998 
L 157.813617 -258.871839 
L 160.1719 -259.798918 
L 162.530182 -260.552521 
L 164.888465 -261.066212 
L 167.246748 -261.279518 
L 169.605031 -261.147622 
L 171.963313 -260.649599 
L 174.321596 -259.793869 
L 176.679879 -258.619808 
L 179.038161 -257.194994 
L 181.396444 -255.608254 
L 183.754727 -253.959486 
L 186.113009 -252.347859 
L 188.471292 -250.860365 
L 190.829575 -249.562575 
L 193.187858 -248.493035 
L 195.54614 -247.662014 
L 197.904423 -247.054453 
L 200.262706 -246.636297 
L 202.620988 -246.362762 
L 204.979271 -246.186878 
L 207.337554 -246.066716 
L 209.695836 -245.970093 
L 212.054119 -245.876213 
L 214.412402 -245.774461 
L 216.770684 -245.661207 
L 219.128967 -245.53591 
L 221.48725 -245.397813 
L 223.845533 -245.244172 
L 226.203815 -245.070352 
L 228.562098 -244.871462 
L 230.920381 -244.644704 
L 233.278663 -244.391401 
L 235.636946 -244.11785 
L 237.995229 -243.834643 
L 240.353511 -243.554642 
L 242.711794 -243.29033 
L 245.070077 -243.051421 
L 247.42836 -242.843473 
L 249.786642 -242.667775 
L 252.144925 -242.522238 
L 254.503208 -242.402691 
L 256.86149 -242.303867 
L 259.219773 -242.219733 
L 261.578056 -242.143217 
L 263.936338 -242.065845 
L 266.294621 -241.977876 
L 268.652904 -241.86936 
L 271.011187 -241.732044 
L 273.369469 -241.56165 
L 275.727752 -241.359757 
L 278.086035 -241.134636 
L 280.444317 -240.900688 
L 282.8026 -240.676622 
L 285.160883 -240.482855 
L 287.519165 -240.33872 
L 289.877448 -240.260026 
L 292.235731 -240.257261 
L 294.594013 -240.334495 
L 296.952296 -240.488931 
L 299.310579 -240.711034 
L 301.668862 -240.98519 
L 304.027144 -241.2909 
L 306.385427 -241.604481 
L 308.74371 -241.901132 
L 311.101992 -242.157145 
L 313.460275 -242.351987 
L 315.818558 -242.470017 
L 318.17684 -242.501692 
L 320.535123 -242.444227 
L 322.893406 -242.301697 
L 325.251689 -242.0846 
L 327.609971 -241.808871 
L 329.968254 -241.494349 
L 332.326537 -241.162831 
L 334.684819 -240.835938 
L 337.043102 -240.533151 
L 339.401385 -240.270357 
L 341.759667 -240.059155 
L 344.11795 -239.906911 
L 346.476233 -239.817352 
L 348.834515 -239.791303 
L 351.192798 -239.827177 
L 353.551081 -239.920949 
L 355.909364 -240.06562 
L 358.267646 -240.25045 
L 360.625929 -240.460436 
L 362.984212 -240.676554 
L 365.342494 -240.877099 
L 367.700777 -241.040122 
L 370.05906 -241.146574 
L 372.417342 -241.183419 
L 372.417342 -239.347566 
L 372.417342 -239.347566 
L 370.05906 -239.347566 
L 367.700777 -239.347566 
L 365.342494 -239.347566 
L 362.984212 -239.347566 
L 360.625929 -239.347566 
L 358.267646 -239.347566 
L 355.909364 -239.347566 
L 353.551081 -239.347566 
L 351.192798 -239.347566 
L 348.834515 -239.347566 
L 346.476233 -239.347566 
L 344.11795 -239.347566 
L 341.759667 -239.347566 
L 339.401385 -239.347566 
L 337.043102 -239.347566 
L 334.684819 -239.347566 
L 332.326537 -239.347566 
L 329.968254 -239.347566 
L 327.609971 -239.347566 
L 325.251689 -239.347566 
L 322.893406 -239.347566 
L 320.535123 -239.347566 
L 318.17684 -239.347566 
L 315.818558 -239.347566 
L 313.460275 -239.347566 
L 311.101992 -239.347566 
L 308.74371 -239.347566 
L 306.385427 -239.347566 
L 304.027144 -239.347566 
L 301.668862 -239.347566 
L 299.310579 -239.347566 
L 296.952296 -239.347566 
L 294.594013 -239.347566 
L 292.235731 -239.347566 
L 289.877448 -239.347566 
L 287.519165 -239.347566 
L 285.160883 -239.347566 
L 282.8026 -239.347566 
L 280.444317 -239.347566 
L 278.086035 -239.347566 
L 275.727752 -239.347566 
L 273.369469 -239.347566 
L 271.011187 -239.347566 
L 268.652904 -239.347566 
L 266.294621 -239.347566 
L 263.936338 -239.347566 
L 261.578056 -239.347566 
L 259.219773 -239.347566 
L 256.86149 -239.347566 
L 254.503208 -239.347566 
L 252.144925 -239.347566 
L 249.786642 -239.347566 
L 247.42836 -239.347566 
L 245.070077 -239.347566 
L 242.711794 -239.347566 
L 240.353511 -239.347566 
L 237.995229 -239.347566 
L 235.636946 -239.347566 
L 233.278663 -239.347566 
L 230.920381 -239.347566 
L 228.562098 -239.347566 
L 226.203815 -239.347566 
L 223.845533 -239.347566 
L 221.48725 -239.347566 
L 219.128967 -239.347566 
L 216.770684 -239.347566 
L 214.412402 -239.347566 
L 212.054119 -239.347566 
L 209.695836 -239.347566 
L 207.337554 -239.347566 
L 204.979271 -239.347566 
L 202.620988 -239.347566 
L 200.262706 -239.347566 
L 197.904423 -239.347566 
L 195.54614 -239.347566 
L 193.187858 -239.347566 
L 190.829575 -239.347566 
L 188.471292 -239.347566 
L 186.113009 -239.347566 
L 183.754727 -239.347566 
L 181.396444 -239.347566 
L 179.038161 -239.347566 
L 176.679879 -239.347566 
L 174.321596 -239.347566 
L 171.963313 -239.347566 
L 169.605031 -239.347566 
L 167.246748 -239.347566 
L 164.888465 -239.347566 
L 162.530182 -239.347566 
L 160.1719 -239.347566 
L 157.813617 -239.347566 
L 155.455334 -239.347566 
L 153.097052 -239.347566 
L 150.738769 -239.347566 
L 148.380486 -239.347566 
L 146.022204 -239.347566 
L 143.663921 -239.347566 
L 141.305638 -239.347566 
L 138.947356 -239.347566 
z
" style="stroke: #434343; stroke-opacity: 0.65"/>
    </defs>
    <g clip-path="url(#pb1c9393a11)">
     <use xlink:href="#m2d78c248f0" x="0" y="432" style="fill: #43a178; fill-opacity: 0.65; stroke: #434343; stroke-opacity: 0.65"/>
    </g>
   </g>
   <g id="PolyCollection_4">
    <defs>
     <path id="mc27cdba814" d="M 133.899494 -166.24106 
L 133.899494 -174.194645 
L 138.115619 -176.031695 
L 142.331744 -177.936123 
L 146.547869 -179.803134 
L 150.763994 -181.512922 
L 154.980119 -182.943305 
L 159.196244 -183.985455 
L 163.412369 -184.559873 
L 167.628494 -184.629007 
L 171.844619 -184.203382 
L 176.060744 -183.339673 
L 180.276869 -182.131302 
L 184.492994 -180.693977 
L 188.709119 -179.14952 
L 192.925243 -177.61108 
L 197.141368 -176.171929 
L 201.357493 -174.898811 
L 205.573618 -173.829832 
L 209.789743 -172.976109 
L 214.005868 -172.32602 
L 218.221993 -171.850772 
L 222.438118 -171.510284 
L 226.654243 -171.258872 
L 230.870368 -171.05069 
L 235.086493 -170.84507 
L 239.302618 -170.611537 
L 243.518743 -170.333744 
L 247.734868 -170.011145 
L 251.950992 -169.657443 
L 256.167117 -169.295686 
L 260.383242 -168.951115 
L 264.599367 -168.643788 
L 268.815492 -168.383301 
L 273.031617 -168.167207 
L 277.247742 -167.983451 
L 281.463867 -167.81571 
L 285.679992 -167.649595 
L 289.896117 -167.477555 
L 294.112242 -167.301076 
L 298.328367 -167.129868 
L 302.544492 -166.978782 
L 306.760617 -166.863718 
L 310.976742 -166.797704 
L 315.192866 -166.787912 
L 319.408991 -166.833869 
L 323.625116 -166.926904 
L 327.841241 -167.050841 
L 332.057366 -167.184005 
L 336.273491 -167.302491 
L 340.489616 -167.384305 
L 344.705741 -167.413517 
L 348.921866 -167.383343 
L 353.137991 -167.297188 
L 357.354116 -167.167305 
L 361.570241 -167.011489 
L 365.786366 -166.848887 
L 370.002491 -166.696183 
L 374.218616 -166.565172 
L 378.43474 -166.462097 
L 382.650865 -166.388566 
L 386.86699 -166.343382 
L 391.083115 -166.324577 
L 395.29924 -166.331001 
L 399.515365 -166.363072 
L 403.73149 -166.42251 
L 407.947615 -166.511126 
L 412.16374 -166.62894 
L 416.379865 -166.772155 
L 420.59599 -166.9317 
L 424.812115 -167.093047 
L 429.02824 -167.237756 
L 433.244365 -167.346652 
L 437.46049 -167.403886 
L 441.676614 -167.400688 
L 445.892739 -167.337551 
L 450.108864 -167.224105 
L 454.324989 -167.07671 
L 458.541114 -166.914592 
L 462.757239 -166.755788 
L 466.973364 -166.614051 
L 471.189489 -166.497377 
L 475.405614 -166.408189 
L 479.621739 -166.344691 
L 483.837864 -166.302721 
L 488.053989 -166.277517 
L 492.270114 -166.265054 
L 496.486239 -166.262884 
L 500.702364 -166.270543 
L 504.918488 -166.289618 
L 509.134613 -166.323502 
L 513.350738 -166.376761 
L 517.566863 -166.454025 
L 521.782988 -166.558385 
L 525.999113 -166.689522 
L 530.215238 -166.842046 
L 534.431363 -167.004707 
L 538.647488 -167.161097 
L 542.863613 -167.292055 
L 547.079738 -167.379415 
L 551.295863 -167.41012 
L 551.295863 -166.24106 
L 551.295863 -166.24106 
L 547.079738 -166.24106 
L 542.863613 -166.24106 
L 538.647488 -166.24106 
L 534.431363 -166.24106 
L 530.215238 -166.24106 
L 525.999113 -166.24106 
L 521.782988 -166.24106 
L 517.566863 -166.24106 
L 513.350738 -166.24106 
L 509.134613 -166.24106 
L 504.918488 -166.24106 
L 500.702364 -166.24106 
L 496.486239 -166.24106 
L 492.270114 -166.24106 
L 488.053989 -166.24106 
L 483.837864 -166.24106 
L 479.621739 -166.24106 
L 475.405614 -166.24106 
L 471.189489 -166.24106 
L 466.973364 -166.24106 
L 462.757239 -166.24106 
L 458.541114 -166.24106 
L 454.324989 -166.24106 
L 450.108864 -166.24106 
L 445.892739 -166.24106 
L 441.676614 -166.24106 
L 437.46049 -166.24106 
L 433.244365 -166.24106 
L 429.02824 -166.24106 
L 424.812115 -166.24106 
L 420.59599 -166.24106 
L 416.379865 -166.24106 
L 412.16374 -166.24106 
L 407.947615 -166.24106 
L 403.73149 -166.24106 
L 399.515365 -166.24106 
L 395.29924 -166.24106 
L 391.083115 -166.24106 
L 386.86699 -166.24106 
L 382.650865 -166.24106 
L 378.43474 -166.24106 
L 374.218616 -166.24106 
L 370.002491 -166.24106 
L 365.786366 -166.24106 
L 361.570241 -166.24106 
L 357.354116 -166.24106 
L 353.137991 -166.24106 
L 348.921866 -166.24106 
L 344.705741 -166.24106 
L 340.489616 -166.24106 
L 336.273491 -166.24106 
L 332.057366 -166.24106 
L 327.841241 -166.24106 
L 323.625116 -166.24106 
L 319.408991 -166.24106 
L 315.192866 -166.24106 
L 310.976742 -166.24106 
L 306.760617 -166.24106 
L 302.544492 -166.24106 
L 298.328367 -166.24106 
L 294.112242 -166.24106 
L 289.896117 -166.24106 
L 285.679992 -166.24106 
L 281.463867 -166.24106 
L 277.247742 -166.24106 
L 273.031617 -166.24106 
L 268.815492 -166.24106 
L 264.599367 -166.24106 
L 260.383242 -166.24106 
L 256.167117 -166.24106 
L 251.950992 -166.24106 
L 247.734868 -166.24106 
L 243.518743 -166.24106 
L 239.302618 -166.24106 
L 235.086493 -166.24106 
L 230.870368 -166.24106 
L 226.654243 -166.24106 
L 222.438118 -166.24106 
L 218.221993 -166.24106 
L 214.005868 -166.24106 
L 209.789743 -166.24106 
L 205.573618 -166.24106 
L 201.357493 -166.24106 
L 197.141368 -166.24106 
L 192.925243 -166.24106 
L 188.709119 -166.24106 
L 184.492994 -166.24106 
L 180.276869 -166.24106 
L 176.060744 -166.24106 
L 171.844619 -166.24106 
L 167.628494 -166.24106 
L 163.412369 -166.24106 
L 159.196244 -166.24106 
L 154.980119 -166.24106 
L 150.763994 -166.24106 
L 146.547869 -166.24106 
L 142.331744 -166.24106 
L 138.115619 -166.24106 
L 133.899494 -166.24106 
z
" style="stroke: #434343; stroke-opacity: 0.65"/>
    </defs>
    <g clip-path="url(#pb1c9393a11)">
     <use xlink:href="#mc27cdba814" x="0" y="432" style="fill: #4a9eb4; fill-opacity: 0.65; stroke: #434343; stroke-opacity: 0.65"/>
    </g>
   </g>
   <g id="PolyCollection_5">
    <defs>
     <path id="md26074fe51" d="M 138.421922 -93.134554 
L 138.421922 -102.507689 
L 143.525084 -103.853518 
L 148.628247 -105.033855 
L 153.731409 -105.987286 
L 158.834572 -106.672069 
L 163.937734 -107.067468 
L 169.040896 -107.172438 
L 174.144059 -107.002873 
L 179.247221 -106.588397 
L 184.350384 -105.969103 
L 189.453546 -105.192163 
L 194.556709 -104.308138 
L 199.659871 -103.366991 
L 204.763033 -102.414147 
L 209.866196 -101.48719 
L 214.969358 -100.613777 
L 220.072521 -99.811119 
L 225.175683 -99.087011 
L 230.278846 -98.442069 
L 235.382008 -97.872563 
L 240.485171 -97.37321 
L 245.588333 -96.939348 
L 250.691495 -96.568077 
L 255.794658 -96.258177 
L 260.89782 -96.008864 
L 266.000983 -95.817763 
L 271.104145 -95.678771 
L 276.207308 -95.580632 
L 281.31047 -95.507003 
L 286.413632 -95.438364 
L 291.516795 -95.355489 
L 296.619957 -95.24362 
L 301.72312 -95.096057 
L 306.826282 -94.916011 
L 311.929445 -94.71603 
L 317.032607 -94.515077 
L 322.13577 -94.334016 
L 327.238932 -94.190695 
L 332.342094 -94.095837 
L 337.445257 -94.050711 
L 342.548419 -94.047037 
L 347.651582 -94.069056 
L 352.754744 -94.097197 
L 357.857907 -94.112429 
L 362.961069 -94.100226 
L 368.064231 -94.053202 
L 373.167394 -93.971881 
L 378.270556 -93.863551 
L 383.373719 -93.739742 
L 388.476881 -93.613154 
L 393.580044 -93.49492 
L 398.683206 -93.392825 
L 403.786368 -93.310712 
L 408.889531 -93.248889 
L 413.992693 -93.205168 
L 419.095856 -93.176052 
L 424.199018 -93.15776 
L 429.302181 -93.146906 
L 434.405343 -93.140821 
L 439.508506 -93.13761 
L 444.611668 -93.136052 
L 449.71483 -93.135452 
L 454.817993 -93.13551 
L 459.921155 -93.136256 
L 465.024318 -93.138058 
L 470.12748 -93.141696 
L 475.230643 -93.14851 
L 480.333805 -93.160533 
L 485.436967 -93.180578 
L 490.54013 -93.212139 
L 495.643292 -93.259 
L 500.746455 -93.324482 
L 505.849617 -93.41036 
L 510.95278 -93.515642 
L 516.055942 -93.635573 
L 521.159105 -93.761298 
L 526.262267 -93.880543 
L 531.365429 -93.97941 
L 536.468592 -94.044975 
L 541.571754 -94.068059 
L 546.674917 -94.045348 
L 551.778079 -93.980204 
L 556.881242 -93.881915 
L 561.984404 -93.763651 
L 567.087566 -93.639793 
L 572.190729 -93.523467 
L 577.293891 -93.424913 
L 582.397054 -93.350958 
L 587.500216 -93.305432 
L 592.603379 -93.29007 
L 597.706541 -93.305341 
L 602.809703 -93.350778 
L 607.912866 -93.424653 
L 613.016028 -93.523142 
L 618.119191 -93.639428 
L 623.222353 -93.763282 
L 628.325516 -93.881584 
L 633.428678 -93.979953 
L 638.531841 -94.045213 
L 643.635003 -94.06806 
L 643.635003 -93.134554 
L 643.635003 -93.134554 
L 638.531841 -93.134554 
L 633.428678 -93.134554 
L 628.325516 -93.134554 
L 623.222353 -93.134554 
L 618.119191 -93.134554 
L 613.016028 -93.134554 
L 607.912866 -93.134554 
L 602.809703 -93.134554 
L 597.706541 -93.134554 
L 592.603379 -93.134554 
L 587.500216 -93.134554 
L 582.397054 -93.134554 
L 577.293891 -93.134554 
L 572.190729 -93.134554 
L 567.087566 -93.134554 
L 561.984404 -93.134554 
L 556.881242 -93.134554 
L 551.778079 -93.134554 
L 546.674917 -93.134554 
L 541.571754 -93.134554 
L 536.468592 -93.134554 
L 531.365429 -93.134554 
L 526.262267 -93.134554 
L 521.159105 -93.134554 
L 516.055942 -93.134554 
L 510.95278 -93.134554 
L 505.849617 -93.134554 
L 500.746455 -93.134554 
L 495.643292 -93.134554 
L 490.54013 -93.134554 
L 485.436967 -93.134554 
L 480.333805 -93.134554 
L 475.230643 -93.134554 
L 470.12748 -93.134554 
L 465.024318 -93.134554 
L 459.921155 -93.134554 
L 454.817993 -93.134554 
L 449.71483 -93.134554 
L 444.611668 -93.134554 
L 439.508506 -93.134554 
L 434.405343 -93.134554 
L 429.302181 -93.134554 
L 424.199018 -93.134554 
L 419.095856 -93.134554 
L 413.992693 -93.134554 
L 408.889531 -93.134554 
L 403.786368 -93.134554 
L 398.683206 -93.134554 
L 393.580044 -93.134554 
L 388.476881 -93.134554 
L 383.373719 -93.134554 
L 378.270556 -93.134554 
L 373.167394 -93.134554 
L 368.064231 -93.134554 
L 362.961069 -93.134554 
L 357.857907 -93.134554 
L 352.754744 -93.134554 
L 347.651582 -93.134554 
L 342.548419 -93.134554 
L 337.445257 -93.134554 
L 332.342094 -93.134554 
L 327.238932 -93.134554 
L 322.13577 -93.134554 
L 317.032607 -93.134554 
L 311.929445 -93.134554 
L 306.826282 -93.134554 
L 301.72312 -93.134554 
L 296.619957 -93.134554 
L 291.516795 -93.134554 
L 286.413632 -93.134554 
L 281.31047 -93.134554 
L 276.207308 -93.134554 
L 271.104145 -93.134554 
L 266.000983 -93.134554 
L 260.89782 -93.134554 
L 255.794658 -93.134554 
L 250.691495 -93.134554 
L 245.588333 -93.134554 
L 240.485171 -93.134554 
L 235.382008 -93.134554 
L 230.278846 -93.134554 
L 225.175683 -93.134554 
L 220.072521 -93.134554 
L 214.969358 -93.134554 
L 209.866196 -93.134554 
L 204.763033 -93.134554 
L 199.659871 -93.134554 
L 194.556709 -93.134554 
L 189.453546 -93.134554 
L 184.350384 -93.134554 
L 179.247221 -93.134554 
L 174.144059 -93.134554 
L 169.040896 -93.134554 
L 163.937734 -93.134554 
L 158.834572 -93.134554 
L 153.731409 -93.134554 
L 148.628247 -93.134554 
L 143.525084 -93.134554 
L 138.421922 -93.134554 
z
" style="stroke: #434343; stroke-opacity: 0.65"/>
    </defs>
    <g clip-path="url(#pb1c9393a11)">
     <use xlink:href="#md26074fe51" x="0" y="432" style="fill: #c789e5; fill-opacity: 0.65; stroke: #434343; stroke-opacity: 0.65"/>
    </g>
   </g>
   <g id="matplotlib.axis_1">
    <g id="xtick_1">
     <g id="line2d_1">
      <defs>
       <path id="m5a41d52b27" d="M 0 0 
L 0 3.5 
" style="stroke: #000000; stroke-width: 0.8"/>
      </defs>
      <g>
       <use xlink:href="#m5a41d52b27" x="132.412653" y="390.04" style="stroke: #000000; stroke-width: 0.8"/>
      </g>
     </g>
     <g id="text_1">
      <!-- 0 -->
      <g transform="translate(129.231403 404.638438) scale(0.1 -0.1)">
       <defs>
        <path id="DejaVuSans-30" d="M 2034 4250 
Q 1547 4250 1301 3770 
Q 1056 3291 1056 2328 
Q 1056 1369 1301 889 
Q 1547 409 2034 409 
Q 2525 409 2770 889 
Q 3016 1369 3016 2328 
Q 3016 3291 2770 3770 
Q 2525 4250 2034 4250 
z
M 2034 4750 
Q 2819 4750 3233 4129 
Q 3647 3509 3647 2328 
Q 3647 1150 3233 529 
Q 2819 -91 2034 -91 
Q 1250 -91 836 529 
Q 422 1150 422 2328 
Q 422 3509 836 4129 
Q 1250 4750 2034 4750 
z
" transform="scale(0.015625)"/>
       </defs>
       <use xlink:href="#DejaVuSans-30"/>
      </g>
     </g>
    </g>
    <g id="xtick_2">
     <g id="line2d_2">
      <g>
       <use xlink:href="#m5a41d52b27" x="232.442357" y="390.04" style="stroke: #000000; stroke-width: 0.8"/>
      </g>
     </g>
     <g id="text_2">
      <!-- 200 -->
      <g transform="translate(222.898607 404.638438) scale(0.1 -0.1)">
       <defs>
        <path id="DejaVuSans-32" d="M 1228 531 
L 3431 531 
L 3431 0 
L 469 0 
L 469 531 
Q 828 903 1448 1529 
Q 2069 2156 2228 2338 
Q 2531 2678 2651 2914 
Q 2772 3150 2772 3378 
Q 2772 3750 2511 3984 
Q 2250 4219 1831 4219 
Q 1534 4219 1204 4116 
Q 875 4013 500 3803 
L 500 4441 
Q 881 4594 1212 4672 
Q 1544 4750 1819 4750 
Q 2544 4750 2975 4387 
Q 3406 4025 3406 3419 
Q 3406 3131 3298 2873 
Q 3191 2616 2906 2266 
Q 2828 2175 2409 1742 
Q 1991 1309 1228 531 
z
" transform="scale(0.015625)"/>
       </defs>
       <use xlink:href="#DejaVuSans-32"/>
       <use xlink:href="#DejaVuSans-30" x="63.623047"/>
       <use xlink:href="#DejaVuSans-30" x="127.246094"/>
      </g>
     </g>
    </g>
    <g id="xtick_3">
     <g id="line2d_3">
      <g>
       <use xlink:href="#m5a41d52b27" x="332.472062" y="390.04" style="stroke: #000000; stroke-width: 0.8"/>
      </g>
     </g>
     <g id="text_3">
      <!-- 400 -->
      <g transform="translate(322.928312 404.638438) scale(0.1 -0.1)">
       <defs>
        <path id="DejaVuSans-34" d="M 2419 4116 
L 825 1625 
L 2419 1625 
L 2419 4116 
z
M 2253 4666 
L 3047 4666 
L 3047 1625 
L 3713 1625 
L 3713 1100 
L 3047 1100 
L 3047 0 
L 2419 0 
L 2419 1100 
L 313 1100 
L 313 1709 
L 2253 4666 
z
" transform="scale(0.015625)"/>
       </defs>
       <use xlink:href="#DejaVuSans-34"/>
       <use xlink:href="#DejaVuSans-30" x="63.623047"/>
       <use xlink:href="#DejaVuSans-30" x="127.246094"/>
      </g>
     </g>
    </g>
    <g id="xtick_4">
     <g id="line2d_4">
      <g>
       <use xlink:href="#m5a41d52b27" x="432.501767" y="390.04" style="stroke: #000000; stroke-width: 0.8"/>
      </g>
     </g>
     <g id="text_4">
      <!-- 600 -->
      <g transform="translate(422.958017 404.638438) scale(0.1 -0.1)">
       <defs>
        <path id="DejaVuSans-36" d="M 2113 2584 
Q 1688 2584 1439 2293 
Q 1191 2003 1191 1497 
Q 1191 994 1439 701 
Q 1688 409 2113 409 
Q 2538 409 2786 701 
Q 3034 994 3034 1497 
Q 3034 2003 2786 2293 
Q 2538 2584 2113 2584 
z
M 3366 4563 
L 3366 3988 
Q 3128 4100 2886 4159 
Q 2644 4219 2406 4219 
Q 1781 4219 1451 3797 
Q 1122 3375 1075 2522 
Q 1259 2794 1537 2939 
Q 1816 3084 2150 3084 
Q 2853 3084 3261 2657 
Q 3669 2231 3669 1497 
Q 3669 778 3244 343 
Q 2819 -91 2113 -91 
Q 1303 -91 875 529 
Q 447 1150 447 2328 
Q 447 3434 972 4092 
Q 1497 4750 2381 4750 
Q 2619 4750 2861 4703 
Q 3103 4656 3366 4563 
z
" transform="scale(0.015625)"/>
       </defs>
       <use xlink:href="#DejaVuSans-36"/>
       <use xlink:href="#DejaVuSans-30" x="63.623047"/>
       <use xlink:href="#DejaVuSans-30" x="127.246094"/>
      </g>
     </g>
    </g>
    <g id="xtick_5">
     <g id="line2d_5">
      <g>
       <use xlink:href="#m5a41d52b27" x="532.531472" y="390.04" style="stroke: #000000; stroke-width: 0.8"/>
      </g>
     </g>
     <g id="text_5">
      <!-- 800 -->
      <g transform="translate(522.987722 404.638438) scale(0.1 -0.1)">
       <defs>
        <path id="DejaVuSans-38" d="M 2034 2216 
Q 1584 2216 1326 1975 
Q 1069 1734 1069 1313 
Q 1069 891 1326 650 
Q 1584 409 2034 409 
Q 2484 409 2743 651 
Q 3003 894 3003 1313 
Q 3003 1734 2745 1975 
Q 2488 2216 2034 2216 
z
M 1403 2484 
Q 997 2584 770 2862 
Q 544 3141 544 3541 
Q 544 4100 942 4425 
Q 1341 4750 2034 4750 
Q 2731 4750 3128 4425 
Q 3525 4100 3525 3541 
Q 3525 3141 3298 2862 
Q 3072 2584 2669 2484 
Q 3125 2378 3379 2068 
Q 3634 1759 3634 1313 
Q 3634 634 3220 271 
Q 2806 -91 2034 -91 
Q 1263 -91 848 271 
Q 434 634 434 1313 
Q 434 1759 690 2068 
Q 947 2378 1403 2484 
z
M 1172 3481 
Q 1172 3119 1398 2916 
Q 1625 2713 2034 2713 
Q 2441 2713 2670 2916 
Q 2900 3119 2900 3481 
Q 2900 3844 2670 4047 
Q 2441 4250 2034 4250 
Q 1625 4250 1398 4047 
Q 1172 3844 1172 3481 
z
" transform="scale(0.015625)"/>
       </defs>
       <use xlink:href="#DejaVuSans-38"/>
       <use xlink:href="#DejaVuSans-30" x="63.623047"/>
       <use xlink:href="#DejaVuSans-30" x="127.246094"/>
      </g>
     </g>
    </g>
    <g id="xtick_6">
     <g id="line2d_6">
      <g>
       <use xlink:href="#m5a41d52b27" x="632.561177" y="390.04" style="stroke: #000000; stroke-width: 0.8"/>
      </g>
     </g>
     <g id="text_6">
      <!-- 1000 -->
      <g transform="translate(619.836177 404.638438) scale(0.1 -0.1)">
       <defs>
        <path id="DejaVuSans-31" d="M 794 531 
L 1825 531 
L 1825 4091 
L 703 3866 
L 703 4441 
L 1819 4666 
L 2450 4666 
L 2450 531 
L 3481 531 
L 3481 0 
L 794 0 
L 794 531 
z
" transform="scale(0.015625)"/>
       </defs>
       <use xlink:href="#DejaVuSans-31"/>
       <use xlink:href="#DejaVuSans-30" x="63.623047"/>
       <use xlink:href="#DejaVuSans-30" x="127.246094"/>
       <use xlink:href="#DejaVuSans-30" x="190.869141"/>
      </g>
     </g>
    </g>
    <g id="text_7">
     <!-- Concentration -->
     <g transform="translate(371.933906 418.316562) scale(0.1 -0.1)">
      <defs>
       <path id="DejaVuSans-43" d="M 4122 4306 
L 4122 3641 
Q 3803 3938 3442 4084 
Q 3081 4231 2675 4231 
Q 1875 4231 1450 3742 
Q 1025 3253 1025 2328 
Q 1025 1406 1450 917 
Q 1875 428 2675 428 
Q 3081 428 3442 575 
Q 3803 722 4122 1019 
L 4122 359 
Q 3791 134 3420 21 
Q 3050 -91 2638 -91 
Q 1578 -91 968 557 
Q 359 1206 359 2328 
Q 359 3453 968 4101 
Q 1578 4750 2638 4750 
Q 3056 4750 3426 4639 
Q 3797 4528 4122 4306 
z
" transform="scale(0.015625)"/>
       <path id="DejaVuSans-6f" d="M 1959 3097 
Q 1497 3097 1228 2736 
Q 959 2375 959 1747 
Q 959 1119 1226 758 
Q 1494 397 1959 397 
Q 2419 397 2687 759 
Q 2956 1122 2956 1747 
Q 2956 2369 2687 2733 
Q 2419 3097 1959 3097 
z
M 1959 3584 
Q 2709 3584 3137 3096 
Q 3566 2609 3566 1747 
Q 3566 888 3137 398 
Q 2709 -91 1959 -91 
Q 1206 -91 779 398 
Q 353 888 353 1747 
Q 353 2609 779 3096 
Q 1206 3584 1959 3584 
z
" transform="scale(0.015625)"/>
       <path id="DejaVuSans-6e" d="M 3513 2113 
L 3513 0 
L 2938 0 
L 2938 2094 
Q 2938 2591 2744 2837 
Q 2550 3084 2163 3084 
Q 1697 3084 1428 2787 
Q 1159 2491 1159 1978 
L 1159 0 
L 581 0 
L 581 3500 
L 1159 3500 
L 1159 2956 
Q 1366 3272 1645 3428 
Q 1925 3584 2291 3584 
Q 2894 3584 3203 3211 
Q 3513 2838 3513 2113 
z
" transform="scale(0.015625)"/>
       <path id="DejaVuSans-63" d="M 3122 3366 
L 3122 2828 
Q 2878 2963 2633 3030 
Q 2388 3097 2138 3097 
Q 1578 3097 1268 2742 
Q 959 2388 959 1747 
Q 959 1106 1268 751 
Q 1578 397 2138 397 
Q 2388 397 2633 464 
Q 2878 531 3122 666 
L 3122 134 
Q 2881 22 2623 -34 
Q 2366 -91 2075 -91 
Q 1284 -91 818 406 
Q 353 903 353 1747 
Q 353 2603 823 3093 
Q 1294 3584 2113 3584 
Q 2378 3584 2631 3529 
Q 2884 3475 3122 3366 
z
" transform="scale(0.015625)"/>
       <path id="DejaVuSans-65" d="M 3597 1894 
L 3597 1613 
L 953 1613 
Q 991 1019 1311 708 
Q 1631 397 2203 397 
Q 2534 397 2845 478 
Q 3156 559 3463 722 
L 3463 178 
Q 3153 47 2828 -22 
Q 2503 -91 2169 -91 
Q 1331 -91 842 396 
Q 353 884 353 1716 
Q 353 2575 817 3079 
Q 1281 3584 2069 3584 
Q 2775 3584 3186 3129 
Q 3597 2675 3597 1894 
z
M 3022 2063 
Q 3016 2534 2758 2815 
Q 2500 3097 2075 3097 
Q 1594 3097 1305 2825 
Q 1016 2553 972 2059 
L 3022 2063 
z
" transform="scale(0.015625)"/>
       <path id="DejaVuSans-74" d="M 1172 4494 
L 1172 3500 
L 2356 3500 
L 2356 3053 
L 1172 3053 
L 1172 1153 
Q 1172 725 1289 603 
Q 1406 481 1766 481 
L 2356 481 
L 2356 0 
L 1766 0 
Q 1100 0 847 248 
Q 594 497 594 1153 
L 594 3053 
L 172 3053 
L 172 3500 
L 594 3500 
L 594 4494 
L 1172 4494 
z
" transform="scale(0.015625)"/>
       <path id="DejaVuSans-72" d="M 2631 2963 
Q 2534 3019 2420 3045 
Q 2306 3072 2169 3072 
Q 1681 3072 1420 2755 
Q 1159 2438 1159 1844 
L 1159 0 
L 581 0 
L 581 3500 
L 1159 3500 
L 1159 2956 
Q 1341 3275 1631 3429 
Q 1922 3584 2338 3584 
Q 2397 3584 2469 3576 
Q 2541 3569 2628 3553 
L 2631 2963 
z
" transform="scale(0.015625)"/>
       <path id="DejaVuSans-61" d="M 2194 1759 
Q 1497 1759 1228 1600 
Q 959 1441 959 1056 
Q 959 750 1161 570 
Q 1363 391 1709 391 
Q 2188 391 2477 730 
Q 2766 1069 2766 1631 
L 2766 1759 
L 2194 1759 
z
M 3341 1997 
L 3341 0 
L 2766 0 
L 2766 531 
Q 2569 213 2275 61 
Q 1981 -91 1556 -91 
Q 1019 -91 701 211 
Q 384 513 384 1019 
Q 384 1609 779 1909 
Q 1175 2209 1959 2209 
L 2766 2209 
L 2766 2266 
Q 2766 2663 2505 2880 
Q 2244 3097 1772 3097 
Q 1472 3097 1187 3025 
Q 903 2953 641 2809 
L 641 3341 
Q 956 3463 1253 3523 
Q 1550 3584 1831 3584 
Q 2591 3584 2966 3190 
Q 3341 2797 3341 1997 
z
" transform="scale(0.015625)"/>
       <path id="DejaVuSans-69" d="M 603 3500 
L 1178 3500 
L 1178 0 
L 603 0 
L 603 3500 
z
M 603 4863 
L 1178 4863 
L 1178 4134 
L 603 4134 
L 603 4863 
z
" transform="scale(0.015625)"/>
      </defs>
      <use xlink:href="#DejaVuSans-43"/>
      <use xlink:href="#DejaVuSans-6f" x="69.824219"/>
      <use xlink:href="#DejaVuSans-6e" x="131.005859"/>
      <use xlink:href="#DejaVuSans-63" x="194.384766"/>
      <use xlink:href="#DejaVuSans-65" x="249.365234"/>
      <use xlink:href="#DejaVuSans-6e" x="310.888672"/>
      <use xlink:href="#DejaVuSans-74" x="374.267578"/>
      <use xlink:href="#DejaVuSans-72" x="413.476562"/>
      <use xlink:href="#DejaVuSans-61" x="454.589844"/>
      <use xlink:href="#DejaVuSans-74" x="515.869141"/>
      <use xlink:href="#DejaVuSans-69" x="555.078125"/>
      <use xlink:href="#DejaVuSans-6f" x="582.861328"/>
      <use xlink:href="#DejaVuSans-6e" x="644.042969"/>
     </g>
    </g>
   </g>
   <g id="matplotlib.axis_2">
    <g id="ytick_1">
     <g id="line2d_7">
      <defs>
       <path id="m0643ddd3eb" d="M 0 0 
L -3.5 0 
" style="stroke: #000000; stroke-width: 0.8"/>
      </defs>
      <g>
       <use xlink:href="#m0643ddd3eb" x="105.41" y="61.060723" style="stroke: #000000; stroke-width: 0.8"/>
      </g>
     </g>
     <g id="text_8">
      <!-- Reference -->
      <g transform="translate(48.056875 64.859942) scale(0.1 -0.1)">
       <defs>
        <path id="DejaVuSans-52" d="M 2841 2188 
Q 3044 2119 3236 1894 
Q 3428 1669 3622 1275 
L 4263 0 
L 3584 0 
L 2988 1197 
Q 2756 1666 2539 1819 
Q 2322 1972 1947 1972 
L 1259 1972 
L 1259 0 
L 628 0 
L 628 4666 
L 2053 4666 
Q 2853 4666 3247 4331 
Q 3641 3997 3641 3322 
Q 3641 2881 3436 2590 
Q 3231 2300 2841 2188 
z
M 1259 4147 
L 1259 2491 
L 2053 2491 
Q 2509 2491 2742 2702 
Q 2975 2913 2975 3322 
Q 2975 3731 2742 3939 
Q 2509 4147 2053 4147 
L 1259 4147 
z
" transform="scale(0.015625)"/>
        <path id="DejaVuSans-66" d="M 2375 4863 
L 2375 4384 
L 1825 4384 
Q 1516 4384 1395 4259 
Q 1275 4134 1275 3809 
L 1275 3500 
L 2222 3500 
L 2222 3053 
L 1275 3053 
L 1275 0 
L 697 0 
L 697 3053 
L 147 3053 
L 147 3500 
L 697 3500 
L 697 3744 
Q 697 4328 969 4595 
Q 1241 4863 1831 4863 
L 2375 4863 
z
" transform="scale(0.015625)"/>
       </defs>
       <use xlink:href="#DejaVuSans-52"/>
       <use xlink:href="#DejaVuSans-65" x="64.982422"/>
       <use xlink:href="#DejaVuSans-66" x="126.505859"/>
       <use xlink:href="#DejaVuSans-65" x="161.710938"/>
       <use xlink:href="#DejaVuSans-72" x="223.234375"/>
       <use xlink:href="#DejaVuSans-65" x="262.097656"/>
       <use xlink:href="#DejaVuSans-6e" x="323.621094"/>
       <use xlink:href="#DejaVuSans-63" x="387"/>
       <use xlink:href="#DejaVuSans-65" x="441.980469"/>
      </g>
     </g>
    </g>
    <g id="ytick_2">
     <g id="line2d_8">
      <g>
       <use xlink:href="#m0643ddd3eb" x="105.41" y="134.167229" style="stroke: #000000; stroke-width: 0.8"/>
      </g>
     </g>
     <g id="text_9">
      <!-- 24h 4C +PBS -->
      <g transform="translate(27.489688 137.966448) scale(0.1 -0.1)">
       <defs>
        <path id="DejaVuSans-68" d="M 3513 2113 
L 3513 0 
L 2938 0 
L 2938 2094 
Q 2938 2591 2744 2837 
Q 2550 3084 2163 3084 
Q 1697 3084 1428 2787 
Q 1159 2491 1159 1978 
L 1159 0 
L 581 0 
L 581 4863 
L 1159 4863 
L 1159 2956 
Q 1366 3272 1645 3428 
Q 1925 3584 2291 3584 
Q 2894 3584 3203 3211 
Q 3513 2838 3513 2113 
z
" transform="scale(0.015625)"/>
        <path id="DejaVuSans-20" transform="scale(0.015625)"/>
        <path id="DejaVuSans-ba" d="M 434 1850 
L 2584 1850 
L 2584 1466 
L 434 1466 
L 434 1850 
z
M 1509 4750 
Q 2069 4750 2391 4404 
Q 2713 4059 2713 3463 
Q 2713 2866 2391 2523 
Q 2069 2181 1509 2181 
Q 950 2181 625 2525 
Q 300 2869 300 3463 
Q 300 4059 625 4404 
Q 950 4750 1509 4750 
z
M 1509 4391 
Q 1181 4391 984 4139 
Q 788 3888 788 3463 
Q 788 3047 986 2797 
Q 1184 2547 1509 2547 
Q 1838 2547 2033 2797 
Q 2228 3047 2228 3463 
Q 2228 3891 2034 4141 
Q 1841 4391 1509 4391 
z
" transform="scale(0.015625)"/>
        <path id="DejaVuSans-2b" d="M 2944 4013 
L 2944 2272 
L 4684 2272 
L 4684 1741 
L 2944 1741 
L 2944 0 
L 2419 0 
L 2419 1741 
L 678 1741 
L 678 2272 
L 2419 2272 
L 2419 4013 
L 2944 4013 
z
" transform="scale(0.015625)"/>
        <path id="DejaVuSans-50" d="M 1259 4147 
L 1259 2394 
L 2053 2394 
Q 2494 2394 2734 2622 
Q 2975 2850 2975 3272 
Q 2975 3691 2734 3919 
Q 2494 4147 2053 4147 
L 1259 4147 
z
M 628 4666 
L 2053 4666 
Q 2838 4666 3239 4311 
Q 3641 3956 3641 3272 
Q 3641 2581 3239 2228 
Q 2838 1875 2053 1875 
L 1259 1875 
L 1259 0 
L 628 0 
L 628 4666 
z
" transform="scale(0.015625)"/>
        <path id="DejaVuSans-42" d="M 1259 2228 
L 1259 519 
L 2272 519 
Q 2781 519 3026 730 
Q 3272 941 3272 1375 
Q 3272 1813 3026 2020 
Q 2781 2228 2272 2228 
L 1259 2228 
z
M 1259 4147 
L 1259 2741 
L 2194 2741 
Q 2656 2741 2882 2914 
Q 3109 3088 3109 3444 
Q 3109 3797 2882 3972 
Q 2656 4147 2194 4147 
L 1259 4147 
z
M 628 4666 
L 2241 4666 
Q 2963 4666 3353 4366 
Q 3744 4066 3744 3513 
Q 3744 3084 3544 2831 
Q 3344 2578 2956 2516 
Q 3422 2416 3680 2098 
Q 3938 1781 3938 1306 
Q 3938 681 3513 340 
Q 3088 0 2303 0 
L 628 0 
L 628 4666 
z
" transform="scale(0.015625)"/>
        <path id="DejaVuSans-53" d="M 3425 4513 
L 3425 3897 
Q 3066 4069 2747 4153 
Q 2428 4238 2131 4238 
Q 1616 4238 1336 4038 
Q 1056 3838 1056 3469 
Q 1056 3159 1242 3001 
Q 1428 2844 1947 2747 
L 2328 2669 
Q 3034 2534 3370 2195 
Q 3706 1856 3706 1288 
Q 3706 609 3251 259 
Q 2797 -91 1919 -91 
Q 1588 -91 1214 -16 
Q 841 59 441 206 
L 441 856 
Q 825 641 1194 531 
Q 1563 422 1919 422 
Q 2459 422 2753 634 
Q 3047 847 3047 1241 
Q 3047 1584 2836 1778 
Q 2625 1972 2144 2069 
L 1759 2144 
Q 1053 2284 737 2584 
Q 422 2884 422 3419 
Q 422 4038 858 4394 
Q 1294 4750 2059 4750 
Q 2388 4750 2728 4690 
Q 3069 4631 3425 4513 
z
" transform="scale(0.015625)"/>
       </defs>
       <use xlink:href="#DejaVuSans-32"/>
       <use xlink:href="#DejaVuSans-34" x="63.623047"/>
       <use xlink:href="#DejaVuSans-68" x="127.246094"/>
       <use xlink:href="#DejaVuSans-20" x="190.625"/>
       <use xlink:href="#DejaVuSans-34" x="222.412109"/>
       <use xlink:href="#DejaVuSans-ba" x="286.035156"/>
       <use xlink:href="#DejaVuSans-43" x="333.154297"/>
       <use xlink:href="#DejaVuSans-20" x="402.978516"/>
       <use xlink:href="#DejaVuSans-2b" x="434.765625"/>
       <use xlink:href="#DejaVuSans-50" x="518.554688"/>
       <use xlink:href="#DejaVuSans-42" x="578.857422"/>
       <use xlink:href="#DejaVuSans-53" x="645.710938"/>
      </g>
     </g>
    </g>
    <g id="ytick_3">
     <g id="line2d_9">
      <g>
       <use xlink:href="#m0643ddd3eb" x="105.41" y="207.273735" style="stroke: #000000; stroke-width: 0.8"/>
      </g>
     </g>
     <g id="text_10">
      <!-- 72h 4C +PBS -->
      <g transform="translate(27.489688 211.072954) scale(0.1 -0.1)">
       <defs>
        <path id="DejaVuSans-37" d="M 525 4666 
L 3525 4666 
L 3525 4397 
L 1831 0 
L 1172 0 
L 2766 4134 
L 525 4134 
L 525 4666 
z
" transform="scale(0.015625)"/>
       </defs>
       <use xlink:href="#DejaVuSans-37"/>
       <use xlink:href="#DejaVuSans-32" x="63.623047"/>
       <use xlink:href="#DejaVuSans-68" x="127.246094"/>
       <use xlink:href="#DejaVuSans-20" x="190.625"/>
       <use xlink:href="#DejaVuSans-34" x="222.412109"/>
       <use xlink:href="#DejaVuSans-ba" x="286.035156"/>
       <use xlink:href="#DejaVuSans-43" x="333.154297"/>
       <use xlink:href="#DejaVuSans-20" x="402.978516"/>
       <use xlink:href="#DejaVuSans-2b" x="434.765625"/>
       <use xlink:href="#DejaVuSans-50" x="518.554688"/>
       <use xlink:href="#DejaVuSans-42" x="578.857422"/>
       <use xlink:href="#DejaVuSans-53" x="645.710938"/>
      </g>
     </g>
    </g>
    <g id="ytick_4">
     <g id="line2d_10">
      <g>
       <use xlink:href="#m0643ddd3eb" x="105.41" y="280.380241" style="stroke: #000000; stroke-width: 0.8"/>
      </g>
     </g>
     <g id="text_11">
      <!-- 24h 4C -PBS -->
      <g transform="translate(32.261563 284.17946) scale(0.1 -0.1)">
       <defs>
        <path id="DejaVuSans-2d" d="M 313 2009 
L 1997 2009 
L 1997 1497 
L 313 1497 
L 313 2009 
z
" transform="scale(0.015625)"/>
       </defs>
       <use xlink:href="#DejaVuSans-32"/>
       <use xlink:href="#DejaVuSans-34" x="63.623047"/>
       <use xlink:href="#DejaVuSans-68" x="127.246094"/>
       <use xlink:href="#DejaVuSans-20" x="190.625"/>
       <use xlink:href="#DejaVuSans-34" x="222.412109"/>
       <use xlink:href="#DejaVuSans-ba" x="286.035156"/>
       <use xlink:href="#DejaVuSans-43" x="333.154297"/>
       <use xlink:href="#DejaVuSans-20" x="402.978516"/>
       <use xlink:href="#DejaVuSans-2d" x="434.765625"/>
       <use xlink:href="#DejaVuSans-50" x="470.849609"/>
       <use xlink:href="#DejaVuSans-42" x="531.152344"/>
       <use xlink:href="#DejaVuSans-53" x="598.005859"/>
      </g>
     </g>
    </g>
    <g id="ytick_5">
     <g id="line2d_11">
      <g>
       <use xlink:href="#m0643ddd3eb" x="105.41" y="353.486747" style="stroke: #000000; stroke-width: 0.8"/>
      </g>
     </g>
     <g id="text_12">
      <!-- 72h 4C -PBS -->
      <g transform="translate(32.261563 357.285966) scale(0.1 -0.1)">
       <use xlink:href="#DejaVuSans-37"/>
       <use xlink:href="#DejaVuSans-32" x="63.623047"/>
       <use xlink:href="#DejaVuSans-68" x="127.246094"/>
       <use xlink:href="#DejaVuSans-20" x="190.625"/>
       <use xlink:href="#DejaVuSans-34" x="222.412109"/>
       <use xlink:href="#DejaVuSans-ba" x="286.035156"/>
       <use xlink:href="#DejaVuSans-43" x="333.154297"/>
       <use xlink:href="#DejaVuSans-20" x="402.978516"/>
       <use xlink:href="#DejaVuSans-2d" x="434.765625"/>
       <use xlink:href="#DejaVuSans-50" x="470.849609"/>
       <use xlink:href="#DejaVuSans-42" x="531.152344"/>
       <use xlink:href="#DejaVuSans-53" x="598.005859"/>
      </g>
     </g>
    </g>
    <g id="text_13">
     <!-- $log([PERM]/[Total Protein])$ -->
     <g transform="translate(21.389688 265.67) rotate(-90) scale(0.1 -0.1)">
      <defs>
       <path id="DejaVuSans-Oblique-6c" d="M 1172 4863 
L 1747 4863 
L 800 0 
L 225 0 
L 1172 4863 
z
" transform="scale(0.015625)"/>
       <path id="DejaVuSans-Oblique-6f" d="M 1625 -91 
Q 1009 -91 651 289 
Q 294 669 294 1325 
Q 294 1706 417 2101 
Q 541 2497 738 2766 
Q 1047 3184 1428 3384 
Q 1809 3584 2291 3584 
Q 2888 3584 3255 3212 
Q 3622 2841 3622 2241 
Q 3622 1825 3500 1412 
Q 3378 1000 3181 728 
Q 2875 309 2494 109 
Q 2113 -91 1625 -91 
z
M 891 1344 
Q 891 869 1089 633 
Q 1288 397 1691 397 
Q 2269 397 2648 901 
Q 3028 1406 3028 2181 
Q 3028 2634 2825 2865 
Q 2622 3097 2228 3097 
Q 1903 3097 1650 2945 
Q 1397 2794 1197 2484 
Q 1050 2253 970 1956 
Q 891 1659 891 1344 
z
" transform="scale(0.015625)"/>
       <path id="DejaVuSans-Oblique-67" d="M 3816 3500 
L 3219 434 
Q 3047 -456 2561 -893 
Q 2075 -1331 1253 -1331 
Q 950 -1331 690 -1286 
Q 431 -1241 206 -1147 
L 313 -588 
Q 525 -725 762 -790 
Q 1000 -856 1269 -856 
Q 1816 -856 2167 -557 
Q 2519 -259 2631 300 
L 2681 563 
Q 2441 288 2122 144 
Q 1803 0 1434 0 
Q 903 0 598 351 
Q 294 703 294 1319 
Q 294 1803 478 2267 
Q 663 2731 997 3091 
Q 1219 3328 1514 3456 
Q 1809 3584 2131 3584 
Q 2484 3584 2746 3420 
Q 3009 3256 3138 2956 
L 3238 3500 
L 3816 3500 
z
M 2950 2216 
Q 2950 2641 2750 2872 
Q 2550 3103 2181 3103 
Q 1953 3103 1747 3012 
Q 1541 2922 1394 2759 
Q 1156 2491 1023 2127 
Q 891 1763 891 1375 
Q 891 944 1092 712 
Q 1294 481 1672 481 
Q 2219 481 2584 976 
Q 2950 1472 2950 2216 
z
" transform="scale(0.015625)"/>
       <path id="DejaVuSans-28" d="M 1984 4856 
Q 1566 4138 1362 3434 
Q 1159 2731 1159 2009 
Q 1159 1288 1364 580 
Q 1569 -128 1984 -844 
L 1484 -844 
Q 1016 -109 783 600 
Q 550 1309 550 2009 
Q 550 2706 781 3412 
Q 1013 4119 1484 4856 
L 1984 4856 
z
" transform="scale(0.015625)"/>
       <path id="DejaVuSans-5b" d="M 550 4863 
L 1875 4863 
L 1875 4416 
L 1125 4416 
L 1125 -397 
L 1875 -397 
L 1875 -844 
L 550 -844 
L 550 4863 
z
" transform="scale(0.015625)"/>
       <path id="DejaVuSans-Oblique-50" d="M 1081 4666 
L 2541 4666 
Q 3178 4666 3512 4369 
Q 3847 4072 3847 3500 
Q 3847 2731 3353 2303 
Q 2859 1875 1966 1875 
L 1172 1875 
L 806 0 
L 172 0 
L 1081 4666 
z
M 1613 4147 
L 1275 2394 
L 2069 2394 
Q 2606 2394 2893 2669 
Q 3181 2944 3181 3456 
Q 3181 3784 2986 3965 
Q 2791 4147 2438 4147 
L 1613 4147 
z
" transform="scale(0.015625)"/>
       <path id="DejaVuSans-Oblique-45" d="M 1081 4666 
L 4031 4666 
L 3928 4134 
L 1606 4134 
L 1338 2753 
L 3566 2753 
L 3463 2222 
L 1234 2222 
L 909 531 
L 3284 531 
L 3181 0 
L 172 0 
L 1081 4666 
z
" transform="scale(0.015625)"/>
       <path id="DejaVuSans-Oblique-52" d="M 1613 4147 
L 1294 2491 
L 2106 2491 
Q 2584 2491 2879 2755 
Q 3175 3019 3175 3444 
Q 3175 3784 2976 3965 
Q 2778 4147 2406 4147 
L 1613 4147 
z
M 2772 2241 
Q 2972 2194 3105 2009 
Q 3238 1825 3413 1275 
L 3809 0 
L 3144 0 
L 2778 1197 
Q 2638 1659 2453 1815 
Q 2269 1972 1888 1972 
L 1191 1972 
L 806 0 
L 172 0 
L 1081 4666 
L 2503 4666 
Q 3150 4666 3495 4373 
Q 3841 4081 3841 3531 
Q 3841 3044 3547 2687 
Q 3253 2331 2772 2241 
z
" transform="scale(0.015625)"/>
       <path id="DejaVuSans-Oblique-4d" d="M 1081 4666 
L 2028 4666 
L 2572 1522 
L 4378 4666 
L 5350 4666 
L 4441 0 
L 3828 0 
L 4622 4091 
L 2791 897 
L 2175 897 
L 1581 4103 
L 788 0 
L 172 0 
L 1081 4666 
z
" transform="scale(0.015625)"/>
       <path id="DejaVuSans-5d" d="M 1947 4863 
L 1947 -844 
L 622 -844 
L 622 -397 
L 1369 -397 
L 1369 4416 
L 622 4416 
L 622 4863 
L 1947 4863 
z
" transform="scale(0.015625)"/>
       <path id="DejaVuSans-2f" d="M 1625 4666 
L 2156 4666 
L 531 -594 
L 0 -594 
L 1625 4666 
z
" transform="scale(0.015625)"/>
       <path id="DejaVuSans-Oblique-54" d="M 378 4666 
L 4325 4666 
L 4225 4134 
L 2559 4134 
L 1759 0 
L 1125 0 
L 1925 4134 
L 275 4134 
L 378 4666 
z
" transform="scale(0.015625)"/>
       <path id="DejaVuSans-Oblique-74" d="M 2706 3500 
L 2619 3053 
L 1472 3053 
L 1100 1153 
Q 1081 1047 1072 975 
Q 1063 903 1063 863 
Q 1063 663 1183 572 
Q 1303 481 1569 481 
L 2150 481 
L 2053 0 
L 1503 0 
Q 991 0 739 200 
Q 488 400 488 806 
Q 488 878 497 964 
Q 506 1050 525 1153 
L 897 3053 
L 409 3053 
L 500 3500 
L 978 3500 
L 1172 4494 
L 1747 4494 
L 1556 3500 
L 2706 3500 
z
" transform="scale(0.015625)"/>
       <path id="DejaVuSans-Oblique-61" d="M 3438 1997 
L 3047 0 
L 2472 0 
L 2578 531 
Q 2325 219 2001 64 
Q 1678 -91 1281 -91 
Q 834 -91 548 182 
Q 263 456 263 884 
Q 263 1497 752 1853 
Q 1241 2209 2100 2209 
L 2900 2209 
L 2931 2363 
Q 2938 2388 2941 2417 
Q 2944 2447 2944 2509 
Q 2944 2788 2717 2942 
Q 2491 3097 2081 3097 
Q 1800 3097 1504 3025 
Q 1209 2953 897 2809 
L 997 3341 
Q 1322 3463 1633 3523 
Q 1944 3584 2234 3584 
Q 2853 3584 3176 3315 
Q 3500 3047 3500 2534 
Q 3500 2431 3484 2292 
Q 3469 2153 3438 1997 
z
M 2816 1759 
L 2241 1759 
Q 1534 1759 1195 1570 
Q 856 1381 856 984 
Q 856 709 1029 553 
Q 1203 397 1509 397 
Q 1978 397 2328 733 
Q 2678 1069 2791 1631 
L 2816 1759 
z
" transform="scale(0.015625)"/>
       <path id="DejaVuSans-Oblique-72" d="M 2853 2969 
Q 2766 3016 2653 3041 
Q 2541 3066 2413 3066 
Q 1953 3066 1609 2717 
Q 1266 2369 1153 1784 
L 800 0 
L 225 0 
L 909 3500 
L 1484 3500 
L 1375 2956 
Q 1603 3259 1920 3421 
Q 2238 3584 2597 3584 
Q 2691 3584 2781 3573 
Q 2872 3563 2963 3538 
L 2853 2969 
z
" transform="scale(0.015625)"/>
       <path id="DejaVuSans-Oblique-65" d="M 3078 2063 
Q 3088 2113 3092 2166 
Q 3097 2219 3097 2272 
Q 3097 2653 2873 2875 
Q 2650 3097 2266 3097 
Q 1838 3097 1509 2826 
Q 1181 2556 1013 2059 
L 3078 2063 
z
M 3578 1613 
L 903 1613 
Q 884 1494 878 1425 
Q 872 1356 872 1306 
Q 872 872 1139 634 
Q 1406 397 1894 397 
Q 2269 397 2603 481 
Q 2938 566 3225 728 
L 3116 159 
Q 2806 34 2476 -28 
Q 2147 -91 1806 -91 
Q 1078 -91 686 257 
Q 294 606 294 1247 
Q 294 1794 489 2264 
Q 684 2734 1063 3103 
Q 1306 3334 1642 3459 
Q 1978 3584 2356 3584 
Q 2950 3584 3301 3228 
Q 3653 2872 3653 2272 
Q 3653 2128 3634 1964 
Q 3616 1800 3578 1613 
z
" transform="scale(0.015625)"/>
       <path id="DejaVuSans-Oblique-69" d="M 1172 4863 
L 1747 4863 
L 1606 4134 
L 1031 4134 
L 1172 4863 
z
M 909 3500 
L 1484 3500 
L 800 0 
L 225 0 
L 909 3500 
z
" transform="scale(0.015625)"/>
       <path id="DejaVuSans-Oblique-6e" d="M 3566 2113 
L 3156 0 
L 2578 0 
L 2988 2091 
Q 3016 2238 3031 2350 
Q 3047 2463 3047 2528 
Q 3047 2791 2881 2937 
Q 2716 3084 2419 3084 
Q 1956 3084 1622 2776 
Q 1288 2469 1184 1941 
L 800 0 
L 225 0 
L 903 3500 
L 1478 3500 
L 1363 2950 
Q 1603 3253 1940 3418 
Q 2278 3584 2650 3584 
Q 3113 3584 3367 3334 
Q 3622 3084 3622 2631 
Q 3622 2519 3608 2391 
Q 3594 2263 3566 2113 
z
" transform="scale(0.015625)"/>
       <path id="DejaVuSans-29" d="M 513 4856 
L 1013 4856 
Q 1481 4119 1714 3412 
Q 1947 2706 1947 2009 
Q 1947 1309 1714 600 
Q 1481 -109 1013 -844 
L 513 -844 
Q 928 -128 1133 580 
Q 1338 1288 1338 2009 
Q 1338 2731 1133 3434 
Q 928 4138 513 4856 
z
" transform="scale(0.015625)"/>
      </defs>
      <use xlink:href="#DejaVuSans-Oblique-6c" transform="translate(0 0.015625)"/>
      <use xlink:href="#DejaVuSans-Oblique-6f" transform="translate(27.783203 0.015625)"/>
      <use xlink:href="#DejaVuSans-Oblique-67" transform="translate(88.964844 0.015625)"/>
      <use xlink:href="#DejaVuSans-28" transform="translate(152.441406 0.015625)"/>
      <use xlink:href="#DejaVuSans-5b" transform="translate(191.455078 0.015625)"/>
      <use xlink:href="#DejaVuSans-Oblique-50" transform="translate(230.46875 0.015625)"/>
      <use xlink:href="#DejaVuSans-Oblique-45" transform="translate(290.771484 0.015625)"/>
      <use xlink:href="#DejaVuSans-Oblique-52" transform="translate(353.955078 0.015625)"/>
      <use xlink:href="#DejaVuSans-Oblique-4d" transform="translate(423.4375 0.015625)"/>
      <use xlink:href="#DejaVuSans-5d" transform="translate(509.716797 0.015625)"/>
      <use xlink:href="#DejaVuSans-2f" transform="translate(548.730469 0.015625)"/>
      <use xlink:href="#DejaVuSans-5b" transform="translate(582.421875 0.015625)"/>
      <use xlink:href="#DejaVuSans-Oblique-54" transform="translate(621.435547 0.015625)"/>
      <use xlink:href="#DejaVuSans-Oblique-6f" transform="translate(682.519531 0.015625)"/>
      <use xlink:href="#DejaVuSans-Oblique-74" transform="translate(743.701172 0.015625)"/>
      <use xlink:href="#DejaVuSans-Oblique-61" transform="translate(782.910156 0.015625)"/>
      <use xlink:href="#DejaVuSans-Oblique-6c" transform="translate(844.189453 0.015625)"/>
      <use xlink:href="#DejaVuSans-Oblique-50" transform="translate(871.972656 0.015625)"/>
      <use xlink:href="#DejaVuSans-Oblique-72" transform="translate(932.275391 0.015625)"/>
      <use xlink:href="#DejaVuSans-Oblique-6f" transform="translate(973.388672 0.015625)"/>
      <use xlink:href="#DejaVuSans-Oblique-74" transform="translate(1034.570312 0.015625)"/>
      <use xlink:href="#DejaVuSans-Oblique-65" transform="translate(1073.779297 0.015625)"/>
      <use xlink:href="#DejaVuSans-Oblique-69" transform="translate(1135.302734 0.015625)"/>
      <use xlink:href="#DejaVuSans-Oblique-6e" transform="translate(1163.085938 0.015625)"/>
      <use xlink:href="#DejaVuSans-5d" transform="translate(1226.464844 0.015625)"/>
      <use xlink:href="#DejaVuSans-29" transform="translate(1265.478516 0.015625)"/>
     </g>
    </g>
   </g>
   <g id="line2d_12">
    <path d="M 132.855 58.319229 
L 132.855 63.802217 
" clip-path="url(#pb1c9393a11)" style="fill: none; stroke: #434343; stroke-width: 1.5; stroke-linecap: square"/>
   </g>
   <g id="line2d_13">
    <path d="M 255.906394 58.319229 
L 255.906394 63.802217 
" clip-path="url(#pb1c9393a11)" style="fill: none; stroke: #434343; stroke-width: 1.5; stroke-linecap: square"/>
   </g>
   <g id="line2d_14">
    <defs>
     <path id="mbd5f17e412" d="M -0 3.535534 
L 2.12132 0 
L -0 -3.535534 
L -2.12132 -0 
z
" style="stroke: #434343; stroke-linejoin: miter"/>
    </defs>
    <g clip-path="url(#pb1c9393a11)">
     <use xlink:href="#mbd5f17e412" x="447.059264" y="61.060723" style="fill: #434343; stroke: #434343; stroke-linejoin: miter"/>
     <use xlink:href="#mbd5f17e412" x="404.135911" y="61.060723" style="fill: #434343; stroke: #434343; stroke-linejoin: miter"/>
     <use xlink:href="#mbd5f17e412" x="554.303728" y="61.060723" style="fill: #434343; stroke: #434343; stroke-linejoin: miter"/>
    </g>
   </g>
   <g id="line2d_15">
    <path d="M 134.241193 131.425735 
L 134.241193 136.908723 
" clip-path="url(#pb1c9393a11)" style="fill: none; stroke: #434343; stroke-width: 1.5; stroke-linecap: square"/>
   </g>
   <g id="line2d_16">
    <path d="M 280.723178 131.425735 
L 280.723178 136.908723 
" clip-path="url(#pb1c9393a11)" style="fill: none; stroke: #434343; stroke-width: 1.5; stroke-linecap: square"/>
   </g>
   <g id="line2d_17">
    <g clip-path="url(#pb1c9393a11)">
     <use xlink:href="#mbd5f17e412" x="288.72295" y="134.167229" style="fill: #434343; stroke: #434343; stroke-linejoin: miter"/>
     <use xlink:href="#mbd5f17e412" x="353.609543" y="134.167229" style="fill: #434343; stroke: #434343; stroke-linejoin: miter"/>
     <use xlink:href="#mbd5f17e412" x="681.755" y="134.167229" style="fill: #434343; stroke: #434343; stroke-linejoin: miter"/>
    </g>
   </g>
   <g id="line2d_18">
    <path d="M 138.947356 204.532241 
L 138.947356 210.015229 
" clip-path="url(#pb1c9393a11)" style="fill: none; stroke: #434343; stroke-width: 1.5; stroke-linecap: square"/>
   </g>
   <g id="line2d_19">
    <path d="M 271.78038 204.532241 
L 271.78038 210.015229 
" clip-path="url(#pb1c9393a11)" style="fill: none; stroke: #434343; stroke-width: 1.5; stroke-linecap: square"/>
   </g>
   <g id="line2d_20">
    <g clip-path="url(#pb1c9393a11)">
     <use xlink:href="#mbd5f17e412" x="372.417342" y="207.273735" style="fill: #434343; stroke: #434343; stroke-linejoin: miter"/>
     <use xlink:href="#mbd5f17e412" x="324.260378" y="207.273735" style="fill: #434343; stroke: #434343; stroke-linejoin: miter"/>
     <use xlink:href="#mbd5f17e412" x="311.438799" y="207.273735" style="fill: #434343; stroke: #434343; stroke-linejoin: miter"/>
    </g>
   </g>
   <g id="line2d_21">
    <path d="M 133.899494 277.638747 
L 133.899494 283.121735 
" clip-path="url(#pb1c9393a11)" style="fill: none; stroke: #434343; stroke-width: 1.5; stroke-linecap: square"/>
   </g>
   <g id="line2d_22">
    <path d="M 282.321776 277.638747 
L 282.321776 283.121735 
" clip-path="url(#pb1c9393a11)" style="fill: none; stroke: #434343; stroke-width: 1.5; stroke-linecap: square"/>
   </g>
   <g id="line2d_23">
    <g clip-path="url(#pb1c9393a11)">
     <use xlink:href="#mbd5f17e412" x="439.35055" y="280.380241" style="fill: #434343; stroke: #434343; stroke-linejoin: miter"/>
     <use xlink:href="#mbd5f17e412" x="344.875731" y="280.380241" style="fill: #434343; stroke: #434343; stroke-linejoin: miter"/>
     <use xlink:href="#mbd5f17e412" x="551.295863" y="280.380241" style="fill: #434343; stroke: #434343; stroke-linejoin: miter"/>
    </g>
   </g>
   <g id="line2d_24">
    <path d="M 138.421922 350.745253 
L 138.421922 356.228241 
" clip-path="url(#pb1c9393a11)" style="fill: none; stroke: #434343; stroke-width: 1.5; stroke-linecap: square"/>
   </g>
   <g id="line2d_25">
    <path d="M 302.308478 350.745253 
L 302.308478 356.228241 
" clip-path="url(#pb1c9393a11)" style="fill: none; stroke: #434343; stroke-width: 1.5; stroke-linecap: square"/>
   </g>
   <g id="line2d_26">
    <g clip-path="url(#pb1c9393a11)">
     <use xlink:href="#mbd5f17e412" x="643.635003" y="353.486747" style="fill: #434343; stroke: #434343; stroke-linejoin: miter"/>
     <use xlink:href="#mbd5f17e412" x="361.987886" y="353.486747" style="fill: #434343; stroke: #434343; stroke-linejoin: miter"/>
     <use xlink:href="#mbd5f17e412" x="541.587028" y="353.486747" style="fill: #434343; stroke: #434343; stroke-linejoin: miter"/>
    </g>
   </g>
   <g id="line2d_27">
    <path d="M 176.703017 55.577735 
L 176.703017 66.543711 
" clip-path="url(#pb1c9393a11)" style="fill: none; stroke: #434343; stroke-width: 1.5; stroke-linecap: square"/>
   </g>
   <g id="line2d_28">
    <path d="M 192.58677 128.684241 
L 192.58677 139.650217 
" clip-path="url(#pb1c9393a11)" style="fill: none; stroke: #434343; stroke-width: 1.5; stroke-linecap: square"/>
   </g>
   <g id="line2d_29">
    <path d="M 174.137567 201.790747 
L 174.137567 212.756723 
" clip-path="url(#pb1c9393a11)" style="fill: none; stroke: #434343; stroke-width: 1.5; stroke-linecap: square"/>
   </g>
   <g id="line2d_30">
    <path d="M 174.468173 274.897253 
L 174.468173 285.863229 
" clip-path="url(#pb1c9393a11)" style="fill: none; stroke: #434343; stroke-width: 1.5; stroke-linecap: square"/>
   </g>
   <g id="line2d_31">
    <path d="M 183.553334 348.003759 
L 183.553334 358.969735 
" clip-path="url(#pb1c9393a11)" style="fill: none; stroke: #434343; stroke-width: 1.5; stroke-linecap: square"/>
   </g>
   <g id="patch_3">
    <path d="M 105.41 390.04 
L 105.41 10.8 
" style="fill: none; stroke: #000000; stroke-width: 0.8; stroke-linejoin: miter; stroke-linecap: square"/>
   </g>
   <g id="patch_4">
    <path d="M 709.2 390.04 
L 709.2 10.8 
" style="fill: none; stroke: #000000; stroke-width: 0.8; stroke-linejoin: miter; stroke-linecap: square"/>
   </g>
   <g id="patch_5">
    <path d="M 105.41 390.04 
L 709.2 390.04 
" style="fill: none; stroke: #000000; stroke-width: 0.8; stroke-linejoin: miter; stroke-linecap: square"/>
   </g>
   <g id="patch_6">
    <path d="M 105.41 10.8 
L 709.2 10.8 
" style="fill: none; stroke: #000000; stroke-width: 0.8; stroke-linejoin: miter; stroke-linecap: square"/>
   </g>
   <g id="patch_7">
    <path d="M 155.639481 55.577735 
L 155.639481 66.543711 
L 196.071557 66.543711 
L 196.071557 55.577735 
L 155.639481 55.577735 
L 155.639481 55.577735 
z
" clip-path="url(#pb1c9393a11)" style="fill: none; stroke: #434343; stroke-width: 1.5; stroke-linejoin: miter"/>
   </g>
   <g id="line2d_32">
    <path d="M 155.639481 61.060723 
L 132.855 61.060723 
" clip-path="url(#pb1c9393a11)" style="fill: none; stroke: #434343; stroke-width: 2; stroke-linecap: square"/>
   </g>
   <g id="line2d_33">
    <path d="M 196.071557 61.060723 
L 255.906394 61.060723 
" clip-path="url(#pb1c9393a11)" style="fill: none; stroke: #434343; stroke-width: 2; stroke-linecap: square"/>
   </g>
   <g id="patch_8">
    <path d="M 164.443653 128.684241 
L 164.443653 139.650217 
L 213.126309 139.650217 
L 213.126309 128.684241 
L 164.443653 128.684241 
L 164.443653 128.684241 
z
" clip-path="url(#pb1c9393a11)" style="fill: none; stroke: #434343; stroke-width: 1.5; stroke-linejoin: miter"/>
   </g>
   <g id="line2d_34">
    <path d="M 164.443653 134.167229 
L 134.241193 134.167229 
" clip-path="url(#pb1c9393a11)" style="fill: none; stroke: #434343; stroke-width: 2; stroke-linecap: square"/>
   </g>
   <g id="line2d_35">
    <path d="M 213.126309 134.167229 
L 280.723178 134.167229 
" clip-path="url(#pb1c9393a11)" style="fill: none; stroke: #434343; stroke-width: 2; stroke-linecap: square"/>
   </g>
   <g id="patch_9">
    <path d="M 159.018668 201.790747 
L 159.018668 212.756723 
L 215.804879 212.756723 
L 215.804879 201.790747 
L 159.018668 201.790747 
L 159.018668 201.790747 
z
" clip-path="url(#pb1c9393a11)" style="fill: none; stroke: #434343; stroke-width: 1.5; stroke-linejoin: miter"/>
   </g>
   <g id="line2d_36">
    <path d="M 159.018668 207.273735 
L 138.947356 207.273735 
" clip-path="url(#pb1c9393a11)" style="fill: none; stroke: #434343; stroke-width: 2; stroke-linecap: square"/>
   </g>
   <g id="line2d_37">
    <path d="M 215.804879 207.273735 
L 271.78038 207.273735 
" clip-path="url(#pb1c9393a11)" style="fill: none; stroke: #434343; stroke-width: 2; stroke-linecap: square"/>
   </g>
   <g id="patch_10">
    <path d="M 159.829722 274.897253 
L 159.829722 285.863229 
L 214.848164 285.863229 
L 214.848164 274.897253 
L 159.829722 274.897253 
L 159.829722 274.897253 
z
" clip-path="url(#pb1c9393a11)" style="fill: none; stroke: #434343; stroke-width: 1.5; stroke-linejoin: miter"/>
   </g>
   <g id="line2d_38">
    <path d="M 159.829722 280.380241 
L 133.899494 280.380241 
" clip-path="url(#pb1c9393a11)" style="fill: none; stroke: #434343; stroke-width: 2; stroke-linecap: square"/>
   </g>
   <g id="line2d_39">
    <path d="M 214.848164 280.380241 
L 282.321776 280.380241 
" clip-path="url(#pb1c9393a11)" style="fill: none; stroke: #434343; stroke-width: 2; stroke-linecap: square"/>
   </g>
   <g id="patch_11">
    <path d="M 162.772701 348.003759 
L 162.772701 358.969735 
L 225.761044 358.969735 
L 225.761044 348.003759 
L 162.772701 348.003759 
L 162.772701 348.003759 
z
" clip-path="url(#pb1c9393a11)" style="fill: none; stroke: #434343; stroke-width: 1.5; stroke-linejoin: miter"/>
   </g>
   <g id="line2d_40">
    <path d="M 162.772701 353.486747 
L 138.421922 353.486747 
" clip-path="url(#pb1c9393a11)" style="fill: none; stroke: #434343; stroke-width: 2; stroke-linecap: square"/>
   </g>
   <g id="line2d_41">
    <path d="M 225.761044 353.486747 
L 302.308478 353.486747 
" clip-path="url(#pb1c9393a11)" style="fill: none; stroke: #434343; stroke-width: 2; stroke-linecap: square"/>
   </g>
  </g>
 </g>
 <defs>
  <clipPath id="pb1c9393a11">
   <rect x="105.41" y="10.8" width="603.79" height="379.24"/>
  </clipPath>
 </defs>
</svg>
